%TF.GenerationSoftware,KiCad,Pcbnew,7.0.7*%
%TF.CreationDate,2023-09-07T16:09:01+01:00*%
%TF.ProjectId,FamiFlex,46616d69-466c-4657-982e-6b696361645f,rev?*%
%TF.SameCoordinates,Original*%
%TF.FileFunction,Soldermask,Top*%
%TF.FilePolarity,Negative*%
%FSLAX46Y46*%
G04 Gerber Fmt 4.6, Leading zero omitted, Abs format (unit mm)*
G04 Created by KiCad (PCBNEW 7.0.7) date 2023-09-07 16:09:01*
%MOMM*%
%LPD*%
G01*
G04 APERTURE LIST*
G04 Aperture macros list*
%AMRoundRect*
0 Rectangle with rounded corners*
0 $1 Rounding radius*
0 $2 $3 $4 $5 $6 $7 $8 $9 X,Y pos of 4 corners*
0 Add a 4 corners polygon primitive as box body*
4,1,4,$2,$3,$4,$5,$6,$7,$8,$9,$2,$3,0*
0 Add four circle primitives for the rounded corners*
1,1,$1+$1,$2,$3*
1,1,$1+$1,$4,$5*
1,1,$1+$1,$6,$7*
1,1,$1+$1,$8,$9*
0 Add four rect primitives between the rounded corners*
20,1,$1+$1,$2,$3,$4,$5,0*
20,1,$1+$1,$4,$5,$6,$7,0*
20,1,$1+$1,$6,$7,$8,$9,0*
20,1,$1+$1,$8,$9,$2,$3,0*%
G04 Aperture macros list end*
%ADD10C,0.100000*%
%ADD11RoundRect,0.250000X0.325000X0.450000X-0.325000X0.450000X-0.325000X-0.450000X0.325000X-0.450000X0*%
%ADD12R,2.200000X2.200000*%
%ADD13O,2.200000X2.200000*%
%ADD14R,1.600000X1.600000*%
%ADD15O,1.600000X1.600000*%
%ADD16RoundRect,0.150000X-0.150000X-0.587500X0.150000X-0.587500X0.150000X0.587500X-0.150000X0.587500X0*%
%ADD17RoundRect,0.150000X-0.587500X-0.150000X0.587500X-0.150000X0.587500X0.150000X-0.587500X0.150000X0*%
%ADD18RoundRect,0.150000X0.587500X-0.150000X0.587500X0.150000X-0.587500X0.150000X-0.587500X-0.150000X0*%
%ADD19RoundRect,0.150000X0.150000X-0.587500X0.150000X0.587500X-0.150000X0.587500X-0.150000X-0.587500X0*%
G04 APERTURE END LIST*
D10*
%TO.C,H1*%
X35810000Y-85100000D02*
X114200000Y-85100000D01*
X114200000Y-85100000D02*
X114200000Y-91400000D01*
X114200000Y-91400000D02*
X35810000Y-91400000D01*
X35810000Y-91400000D02*
X35810000Y-85100000D01*
G36*
X35810000Y-85100000D02*
G01*
X114200000Y-85100000D01*
X114200000Y-91400000D01*
X35810000Y-91400000D01*
X35810000Y-85100000D01*
G37*
%TD*%
D11*
%TO.C,R1*%
X76025000Y-64100000D03*
X73975000Y-64100000D03*
%TD*%
D12*
%TO.C,D1*%
X73550000Y-60950000D03*
D13*
X76090000Y-60950000D03*
%TD*%
D14*
%TO.C,U4*%
X70650000Y-77400000D03*
D15*
X70650000Y-74860000D03*
X70650000Y-72320000D03*
X70650000Y-69780000D03*
X70650000Y-67240000D03*
X70650000Y-64700000D03*
X70650000Y-62160000D03*
X70650000Y-59620000D03*
X63030000Y-59620000D03*
X63030000Y-62160000D03*
X63030000Y-64700000D03*
X63030000Y-67240000D03*
X63030000Y-69780000D03*
X63030000Y-72320000D03*
X63030000Y-74860000D03*
X63030000Y-77400000D03*
%TD*%
D14*
%TO.C,U5*%
X83570000Y-76640000D03*
D15*
X86110000Y-76640000D03*
X88650000Y-76640000D03*
X91190000Y-76640000D03*
X93730000Y-76640000D03*
X96270000Y-76640000D03*
X98810000Y-76640000D03*
X101350000Y-76640000D03*
X103890000Y-76640000D03*
X106430000Y-76640000D03*
X108970000Y-76640000D03*
X111510000Y-76640000D03*
X114050000Y-76640000D03*
X116590000Y-76640000D03*
X116590000Y-61400000D03*
X114050000Y-61400000D03*
X111510000Y-61400000D03*
X108970000Y-61400000D03*
X106430000Y-61400000D03*
X103890000Y-61400000D03*
X101350000Y-61400000D03*
X98810000Y-61400000D03*
X96270000Y-61400000D03*
X93730000Y-61400000D03*
X91190000Y-61400000D03*
X88650000Y-61400000D03*
X86110000Y-61400000D03*
X83570000Y-61400000D03*
%TD*%
D16*
%TO.C,U1*%
X39567500Y-61972500D03*
X38297500Y-61972500D03*
X37027500Y-61972500D03*
X35757500Y-61972500D03*
D17*
X34005000Y-63730000D03*
X34005000Y-65000000D03*
X34005000Y-66270000D03*
X34005000Y-67540000D03*
X34005000Y-68810000D03*
X34005000Y-70080000D03*
X34005000Y-71350000D03*
X34005000Y-72620000D03*
X34005000Y-73890000D03*
D16*
X35757500Y-75647500D03*
X37027500Y-75647500D03*
X38297500Y-75647500D03*
X39567500Y-75647500D03*
X40837500Y-75647500D03*
X42107500Y-75647500D03*
X43377500Y-75647500D03*
D17*
X45130000Y-73890000D03*
X45130000Y-72620000D03*
X45130000Y-71350000D03*
X45130000Y-70080000D03*
X45130000Y-68810000D03*
X45130000Y-67540000D03*
X45130000Y-66270000D03*
X45130000Y-65000000D03*
X45130000Y-63730000D03*
D16*
X43377500Y-61972500D03*
X42107500Y-61972500D03*
X40837500Y-61972500D03*
%TD*%
D14*
%TO.C,RN1*%
X79450000Y-59850000D03*
D15*
X79450000Y-62390000D03*
X79450000Y-64930000D03*
X79450000Y-67470000D03*
X79450000Y-70010000D03*
X79450000Y-72550000D03*
X79450000Y-75090000D03*
X79450000Y-77630000D03*
X79450000Y-80170000D03*
%TD*%
D18*
%TO.C,U2*%
X96322500Y-68967500D03*
X96322500Y-70237500D03*
X96322500Y-71507500D03*
X96322500Y-72777500D03*
D19*
X98080000Y-74530000D03*
X99350000Y-74530000D03*
X100620000Y-74530000D03*
X101890000Y-74530000D03*
X103160000Y-74530000D03*
X104430000Y-74530000D03*
X105700000Y-74530000D03*
X106970000Y-74530000D03*
X108240000Y-74530000D03*
D18*
X109997500Y-72777500D03*
X109997500Y-71507500D03*
X109997500Y-70237500D03*
X109997500Y-68967500D03*
X109997500Y-67697500D03*
X109997500Y-66427500D03*
X109997500Y-65157500D03*
D19*
X108240000Y-63405000D03*
X106970000Y-63405000D03*
X105700000Y-63405000D03*
X104430000Y-63405000D03*
X103160000Y-63405000D03*
X101890000Y-63405000D03*
X100620000Y-63405000D03*
X99350000Y-63405000D03*
X98080000Y-63405000D03*
D18*
X96322500Y-65157500D03*
X96322500Y-66427500D03*
X96322500Y-67697500D03*
%TD*%
D14*
%TO.C,U3*%
X58850000Y-77500000D03*
D15*
X58850000Y-74960000D03*
X58850000Y-72420000D03*
X58850000Y-69880000D03*
X58850000Y-67340000D03*
X58850000Y-64800000D03*
X58850000Y-62260000D03*
X58850000Y-59720000D03*
X51230000Y-59720000D03*
X51230000Y-62260000D03*
X51230000Y-64800000D03*
X51230000Y-67340000D03*
X51230000Y-69880000D03*
X51230000Y-72420000D03*
X51230000Y-74960000D03*
X51230000Y-77500000D03*
%TD*%
M02*
