%TF.GenerationSoftware,KiCad,Pcbnew,7.0.7*%
%TF.CreationDate,2023-09-07T16:09:01+01:00*%
%TF.ProjectId,FamiFlex,46616d69-466c-4657-982e-6b696361645f,rev?*%
%TF.SameCoordinates,Original*%
%TF.FileFunction,Legend,Bot*%
%TF.FilePolarity,Positive*%
%FSLAX46Y46*%
G04 Gerber Fmt 4.6, Leading zero omitted, Abs format (unit mm)*
G04 Created by KiCad (PCBNEW 7.0.7) date 2023-09-07 16:09:01*
%MOMM*%
%LPD*%
G01*
G04 APERTURE LIST*
%ADD10C,0.150000*%
%ADD11C,0.175000*%
%ADD12C,0.120000*%
G04 APERTURE END LIST*
D10*
X71850000Y-78373700D02*
X71850000Y-79026300D01*
D11*
X72573227Y-71278305D02*
X72606560Y-71325925D01*
X72606560Y-71325925D02*
X72706560Y-71373544D01*
X72706560Y-71373544D02*
X72773227Y-71373544D01*
X72773227Y-71373544D02*
X72873227Y-71325925D01*
X72873227Y-71325925D02*
X72939894Y-71230686D01*
X72939894Y-71230686D02*
X72973227Y-71135448D01*
X72973227Y-71135448D02*
X73006560Y-70944972D01*
X73006560Y-70944972D02*
X73006560Y-70802115D01*
X73006560Y-70802115D02*
X72973227Y-70611639D01*
X72973227Y-70611639D02*
X72939894Y-70516401D01*
X72939894Y-70516401D02*
X72873227Y-70421163D01*
X72873227Y-70421163D02*
X72773227Y-70373544D01*
X72773227Y-70373544D02*
X72706560Y-70373544D01*
X72706560Y-70373544D02*
X72606560Y-70421163D01*
X72606560Y-70421163D02*
X72573227Y-70468782D01*
X72273227Y-71373544D02*
X72273227Y-70373544D01*
X72273227Y-70849734D02*
X71873227Y-70849734D01*
X71873227Y-71373544D02*
X71873227Y-70373544D01*
X71139894Y-71373544D02*
X71373227Y-70897353D01*
X71539894Y-71373544D02*
X71539894Y-70373544D01*
X71539894Y-70373544D02*
X71273227Y-70373544D01*
X71273227Y-70373544D02*
X71206561Y-70421163D01*
X71206561Y-70421163D02*
X71173227Y-70468782D01*
X71173227Y-70468782D02*
X71139894Y-70564020D01*
X71139894Y-70564020D02*
X71139894Y-70706877D01*
X71139894Y-70706877D02*
X71173227Y-70802115D01*
X71173227Y-70802115D02*
X71206561Y-70849734D01*
X71206561Y-70849734D02*
X71273227Y-70897353D01*
X71273227Y-70897353D02*
X71539894Y-70897353D01*
X70073228Y-70849734D02*
X69973228Y-70897353D01*
X69973228Y-70897353D02*
X69939894Y-70944972D01*
X69939894Y-70944972D02*
X69906561Y-71040210D01*
X69906561Y-71040210D02*
X69906561Y-71183067D01*
X69906561Y-71183067D02*
X69939894Y-71278305D01*
X69939894Y-71278305D02*
X69973228Y-71325925D01*
X69973228Y-71325925D02*
X70039894Y-71373544D01*
X70039894Y-71373544D02*
X70306561Y-71373544D01*
X70306561Y-71373544D02*
X70306561Y-70373544D01*
X70306561Y-70373544D02*
X70073228Y-70373544D01*
X70073228Y-70373544D02*
X70006561Y-70421163D01*
X70006561Y-70421163D02*
X69973228Y-70468782D01*
X69973228Y-70468782D02*
X69939894Y-70564020D01*
X69939894Y-70564020D02*
X69939894Y-70659258D01*
X69939894Y-70659258D02*
X69973228Y-70754496D01*
X69973228Y-70754496D02*
X70006561Y-70802115D01*
X70006561Y-70802115D02*
X70073228Y-70849734D01*
X70073228Y-70849734D02*
X70306561Y-70849734D01*
X69639894Y-70706877D02*
X69139894Y-70706877D01*
X69439894Y-70278305D02*
X69639894Y-71564020D01*
X69206561Y-71135448D02*
X69706561Y-71135448D01*
X69406561Y-71564020D02*
X69206561Y-70278305D01*
D10*
X113169506Y-78509819D02*
X113169506Y-79224104D01*
X113169506Y-79224104D02*
X113217125Y-79366961D01*
X113217125Y-79366961D02*
X113312363Y-79462200D01*
X113312363Y-79462200D02*
X113455220Y-79509819D01*
X113455220Y-79509819D02*
X113550458Y-79509819D01*
X112217125Y-79509819D02*
X112693315Y-79509819D01*
X112693315Y-79509819D02*
X112693315Y-78509819D01*
X111312363Y-79414580D02*
X111359982Y-79462200D01*
X111359982Y-79462200D02*
X111502839Y-79509819D01*
X111502839Y-79509819D02*
X111598077Y-79509819D01*
X111598077Y-79509819D02*
X111740934Y-79462200D01*
X111740934Y-79462200D02*
X111836172Y-79366961D01*
X111836172Y-79366961D02*
X111883791Y-79271723D01*
X111883791Y-79271723D02*
X111931410Y-79081247D01*
X111931410Y-79081247D02*
X111931410Y-78938390D01*
X111931410Y-78938390D02*
X111883791Y-78747914D01*
X111883791Y-78747914D02*
X111836172Y-78652676D01*
X111836172Y-78652676D02*
X111740934Y-78557438D01*
X111740934Y-78557438D02*
X111598077Y-78509819D01*
X111598077Y-78509819D02*
X111502839Y-78509819D01*
X111502839Y-78509819D02*
X111359982Y-78557438D01*
X111359982Y-78557438D02*
X111312363Y-78605057D01*
X110598077Y-78509819D02*
X110598077Y-79224104D01*
X110598077Y-79224104D02*
X110645696Y-79366961D01*
X110645696Y-79366961D02*
X110740934Y-79462200D01*
X110740934Y-79462200D02*
X110883791Y-79509819D01*
X110883791Y-79509819D02*
X110979029Y-79509819D01*
X109645696Y-79509819D02*
X110121886Y-79509819D01*
X110121886Y-79509819D02*
X110121886Y-78509819D01*
X108740934Y-79414580D02*
X108788553Y-79462200D01*
X108788553Y-79462200D02*
X108931410Y-79509819D01*
X108931410Y-79509819D02*
X109026648Y-79509819D01*
X109026648Y-79509819D02*
X109169505Y-79462200D01*
X109169505Y-79462200D02*
X109264743Y-79366961D01*
X109264743Y-79366961D02*
X109312362Y-79271723D01*
X109312362Y-79271723D02*
X109359981Y-79081247D01*
X109359981Y-79081247D02*
X109359981Y-78938390D01*
X109359981Y-78938390D02*
X109312362Y-78747914D01*
X109312362Y-78747914D02*
X109264743Y-78652676D01*
X109264743Y-78652676D02*
X109169505Y-78557438D01*
X109169505Y-78557438D02*
X109026648Y-78509819D01*
X109026648Y-78509819D02*
X108931410Y-78509819D01*
X108931410Y-78509819D02*
X108788553Y-78557438D01*
X108788553Y-78557438D02*
X108740934Y-78605057D01*
X108026648Y-78509819D02*
X108026648Y-79224104D01*
X108026648Y-79224104D02*
X108074267Y-79366961D01*
X108074267Y-79366961D02*
X108169505Y-79462200D01*
X108169505Y-79462200D02*
X108312362Y-79509819D01*
X108312362Y-79509819D02*
X108407600Y-79509819D01*
X107074267Y-79509819D02*
X107550457Y-79509819D01*
X107550457Y-79509819D02*
X107550457Y-78509819D01*
X106169505Y-79414580D02*
X106217124Y-79462200D01*
X106217124Y-79462200D02*
X106359981Y-79509819D01*
X106359981Y-79509819D02*
X106455219Y-79509819D01*
X106455219Y-79509819D02*
X106598076Y-79462200D01*
X106598076Y-79462200D02*
X106693314Y-79366961D01*
X106693314Y-79366961D02*
X106740933Y-79271723D01*
X106740933Y-79271723D02*
X106788552Y-79081247D01*
X106788552Y-79081247D02*
X106788552Y-78938390D01*
X106788552Y-78938390D02*
X106740933Y-78747914D01*
X106740933Y-78747914D02*
X106693314Y-78652676D01*
X106693314Y-78652676D02*
X106598076Y-78557438D01*
X106598076Y-78557438D02*
X106455219Y-78509819D01*
X106455219Y-78509819D02*
X106359981Y-78509819D01*
X106359981Y-78509819D02*
X106217124Y-78557438D01*
X106217124Y-78557438D02*
X106169505Y-78605057D01*
X105455219Y-78509819D02*
X105455219Y-79224104D01*
X105455219Y-79224104D02*
X105502838Y-79366961D01*
X105502838Y-79366961D02*
X105598076Y-79462200D01*
X105598076Y-79462200D02*
X105740933Y-79509819D01*
X105740933Y-79509819D02*
X105836171Y-79509819D01*
X104502838Y-79509819D02*
X104979028Y-79509819D01*
X104979028Y-79509819D02*
X104979028Y-78509819D01*
X103598076Y-79414580D02*
X103645695Y-79462200D01*
X103645695Y-79462200D02*
X103788552Y-79509819D01*
X103788552Y-79509819D02*
X103883790Y-79509819D01*
X103883790Y-79509819D02*
X104026647Y-79462200D01*
X104026647Y-79462200D02*
X104121885Y-79366961D01*
X104121885Y-79366961D02*
X104169504Y-79271723D01*
X104169504Y-79271723D02*
X104217123Y-79081247D01*
X104217123Y-79081247D02*
X104217123Y-78938390D01*
X104217123Y-78938390D02*
X104169504Y-78747914D01*
X104169504Y-78747914D02*
X104121885Y-78652676D01*
X104121885Y-78652676D02*
X104026647Y-78557438D01*
X104026647Y-78557438D02*
X103883790Y-78509819D01*
X103883790Y-78509819D02*
X103788552Y-78509819D01*
X103788552Y-78509819D02*
X103645695Y-78557438D01*
X103645695Y-78557438D02*
X103598076Y-78605057D01*
X92663220Y-83119819D02*
X92663220Y-82119819D01*
X92663220Y-82596009D02*
X92091792Y-82596009D01*
X92091792Y-83119819D02*
X92091792Y-82119819D01*
X91615601Y-83119819D02*
X91615601Y-82453152D01*
X91615601Y-82548390D02*
X91567982Y-82500771D01*
X91567982Y-82500771D02*
X91472744Y-82453152D01*
X91472744Y-82453152D02*
X91329887Y-82453152D01*
X91329887Y-82453152D02*
X91234649Y-82500771D01*
X91234649Y-82500771D02*
X91187030Y-82596009D01*
X91187030Y-82596009D02*
X91187030Y-83119819D01*
X91187030Y-82596009D02*
X91139411Y-82500771D01*
X91139411Y-82500771D02*
X91044173Y-82453152D01*
X91044173Y-82453152D02*
X90901316Y-82453152D01*
X90901316Y-82453152D02*
X90806077Y-82500771D01*
X90806077Y-82500771D02*
X90758458Y-82596009D01*
X90758458Y-82596009D02*
X90758458Y-83119819D01*
X89567983Y-82072200D02*
X90425125Y-83357914D01*
X89377506Y-82119819D02*
X89044173Y-83119819D01*
X89044173Y-83119819D02*
X88710840Y-82119819D01*
X88377506Y-83119819D02*
X88377506Y-82453152D01*
X88377506Y-82548390D02*
X88329887Y-82500771D01*
X88329887Y-82500771D02*
X88234649Y-82453152D01*
X88234649Y-82453152D02*
X88091792Y-82453152D01*
X88091792Y-82453152D02*
X87996554Y-82500771D01*
X87996554Y-82500771D02*
X87948935Y-82596009D01*
X87948935Y-82596009D02*
X87948935Y-83119819D01*
X87948935Y-82596009D02*
X87901316Y-82500771D01*
X87901316Y-82500771D02*
X87806078Y-82453152D01*
X87806078Y-82453152D02*
X87663221Y-82453152D01*
X87663221Y-82453152D02*
X87567982Y-82500771D01*
X87567982Y-82500771D02*
X87520363Y-82596009D01*
X87520363Y-82596009D02*
X87520363Y-83119819D01*
X101469999Y-70734819D02*
X101469999Y-69734819D01*
X101469999Y-69734819D02*
X101069999Y-70734819D01*
X101069999Y-70734819D02*
X101069999Y-69734819D01*
X100236666Y-69687200D02*
X100836666Y-70972914D01*
X100003333Y-70734819D02*
X100003333Y-70068152D01*
X100003333Y-69734819D02*
X100036666Y-69782438D01*
X100036666Y-69782438D02*
X100003333Y-69830057D01*
X100003333Y-69830057D02*
X99970000Y-69782438D01*
X99970000Y-69782438D02*
X100003333Y-69734819D01*
X100003333Y-69734819D02*
X100003333Y-69830057D01*
X99736667Y-69734819D02*
X99303333Y-69734819D01*
X99303333Y-69734819D02*
X99536667Y-70115771D01*
X99536667Y-70115771D02*
X99436667Y-70115771D01*
X99436667Y-70115771D02*
X99370000Y-70163390D01*
X99370000Y-70163390D02*
X99336667Y-70211009D01*
X99336667Y-70211009D02*
X99303333Y-70306247D01*
X99303333Y-70306247D02*
X99303333Y-70544342D01*
X99303333Y-70544342D02*
X99336667Y-70639580D01*
X99336667Y-70639580D02*
X99370000Y-70687200D01*
X99370000Y-70687200D02*
X99436667Y-70734819D01*
X99436667Y-70734819D02*
X99636667Y-70734819D01*
X99636667Y-70734819D02*
X99703333Y-70687200D01*
X99703333Y-70687200D02*
X99736667Y-70639580D01*
X98870000Y-69734819D02*
X98803333Y-69734819D01*
X98803333Y-69734819D02*
X98736666Y-69782438D01*
X98736666Y-69782438D02*
X98703333Y-69830057D01*
X98703333Y-69830057D02*
X98670000Y-69925295D01*
X98670000Y-69925295D02*
X98636666Y-70115771D01*
X98636666Y-70115771D02*
X98636666Y-70353866D01*
X98636666Y-70353866D02*
X98670000Y-70544342D01*
X98670000Y-70544342D02*
X98703333Y-70639580D01*
X98703333Y-70639580D02*
X98736666Y-70687200D01*
X98736666Y-70687200D02*
X98803333Y-70734819D01*
X98803333Y-70734819D02*
X98870000Y-70734819D01*
X98870000Y-70734819D02*
X98936666Y-70687200D01*
X98936666Y-70687200D02*
X98970000Y-70639580D01*
X98970000Y-70639580D02*
X99003333Y-70544342D01*
X99003333Y-70544342D02*
X99036666Y-70353866D01*
X99036666Y-70353866D02*
X99036666Y-70115771D01*
X99036666Y-70115771D02*
X99003333Y-69925295D01*
X99003333Y-69925295D02*
X98970000Y-69830057D01*
X98970000Y-69830057D02*
X98936666Y-69782438D01*
X98936666Y-69782438D02*
X98870000Y-69734819D01*
X71534649Y-73203152D02*
X71534649Y-73869819D01*
X71701316Y-72822200D02*
X71867982Y-73536485D01*
X71867982Y-73536485D02*
X71434649Y-73536485D01*
X71201315Y-73822200D02*
X71134649Y-73869819D01*
X71134649Y-73869819D02*
X71001315Y-73869819D01*
X71001315Y-73869819D02*
X70934649Y-73822200D01*
X70934649Y-73822200D02*
X70901315Y-73726961D01*
X70901315Y-73726961D02*
X70901315Y-73679342D01*
X70901315Y-73679342D02*
X70934649Y-73584104D01*
X70934649Y-73584104D02*
X71001315Y-73536485D01*
X71001315Y-73536485D02*
X71101315Y-73536485D01*
X71101315Y-73536485D02*
X71167982Y-73488866D01*
X71167982Y-73488866D02*
X71201315Y-73393628D01*
X71201315Y-73393628D02*
X71201315Y-73346009D01*
X71201315Y-73346009D02*
X71167982Y-73250771D01*
X71167982Y-73250771D02*
X71101315Y-73203152D01*
X71101315Y-73203152D02*
X71001315Y-73203152D01*
X71001315Y-73203152D02*
X70934649Y-73250771D01*
X70101315Y-72822200D02*
X70701315Y-74107914D01*
X69634649Y-73346009D02*
X69534649Y-73393628D01*
X69534649Y-73393628D02*
X69501315Y-73441247D01*
X69501315Y-73441247D02*
X69467982Y-73536485D01*
X69467982Y-73536485D02*
X69467982Y-73679342D01*
X69467982Y-73679342D02*
X69501315Y-73774580D01*
X69501315Y-73774580D02*
X69534649Y-73822200D01*
X69534649Y-73822200D02*
X69601315Y-73869819D01*
X69601315Y-73869819D02*
X69867982Y-73869819D01*
X69867982Y-73869819D02*
X69867982Y-72869819D01*
X69867982Y-72869819D02*
X69634649Y-72869819D01*
X69634649Y-72869819D02*
X69567982Y-72917438D01*
X69567982Y-72917438D02*
X69534649Y-72965057D01*
X69534649Y-72965057D02*
X69501315Y-73060295D01*
X69501315Y-73060295D02*
X69501315Y-73155533D01*
X69501315Y-73155533D02*
X69534649Y-73250771D01*
X69534649Y-73250771D02*
X69567982Y-73298390D01*
X69567982Y-73298390D02*
X69634649Y-73346009D01*
X69634649Y-73346009D02*
X69867982Y-73346009D01*
X69167982Y-73869819D02*
X69167982Y-73203152D01*
X69167982Y-73393628D02*
X69134649Y-73298390D01*
X69134649Y-73298390D02*
X69101315Y-73250771D01*
X69101315Y-73250771D02*
X69034649Y-73203152D01*
X69034649Y-73203152D02*
X68967982Y-73203152D01*
X68734649Y-73774580D02*
X68701316Y-73822200D01*
X68701316Y-73822200D02*
X68734649Y-73869819D01*
X68734649Y-73869819D02*
X68767982Y-73822200D01*
X68767982Y-73822200D02*
X68734649Y-73774580D01*
X68734649Y-73774580D02*
X68734649Y-73869819D01*
X68067983Y-72869819D02*
X68401316Y-72869819D01*
X68401316Y-72869819D02*
X68434649Y-73346009D01*
X68434649Y-73346009D02*
X68401316Y-73298390D01*
X68401316Y-73298390D02*
X68334649Y-73250771D01*
X68334649Y-73250771D02*
X68167983Y-73250771D01*
X68167983Y-73250771D02*
X68101316Y-73298390D01*
X68101316Y-73298390D02*
X68067983Y-73346009D01*
X68067983Y-73346009D02*
X68034649Y-73441247D01*
X68034649Y-73441247D02*
X68034649Y-73679342D01*
X68034649Y-73679342D02*
X68067983Y-73774580D01*
X68067983Y-73774580D02*
X68101316Y-73822200D01*
X68101316Y-73822200D02*
X68167983Y-73869819D01*
X68167983Y-73869819D02*
X68334649Y-73869819D01*
X68334649Y-73869819D02*
X68401316Y-73822200D01*
X68401316Y-73822200D02*
X68434649Y-73774580D01*
X71001316Y-78646009D02*
X70901316Y-78693628D01*
X70901316Y-78693628D02*
X70867982Y-78741247D01*
X70867982Y-78741247D02*
X70834649Y-78836485D01*
X70834649Y-78836485D02*
X70834649Y-78979342D01*
X70834649Y-78979342D02*
X70867982Y-79074580D01*
X70867982Y-79074580D02*
X70901316Y-79122200D01*
X70901316Y-79122200D02*
X70967982Y-79169819D01*
X70967982Y-79169819D02*
X71234649Y-79169819D01*
X71234649Y-79169819D02*
X71234649Y-78169819D01*
X71234649Y-78169819D02*
X71001316Y-78169819D01*
X71001316Y-78169819D02*
X70934649Y-78217438D01*
X70934649Y-78217438D02*
X70901316Y-78265057D01*
X70901316Y-78265057D02*
X70867982Y-78360295D01*
X70867982Y-78360295D02*
X70867982Y-78455533D01*
X70867982Y-78455533D02*
X70901316Y-78550771D01*
X70901316Y-78550771D02*
X70934649Y-78598390D01*
X70934649Y-78598390D02*
X71001316Y-78646009D01*
X71001316Y-78646009D02*
X71234649Y-78646009D01*
X70534649Y-79169819D02*
X70534649Y-78503152D01*
X70534649Y-78693628D02*
X70501316Y-78598390D01*
X70501316Y-78598390D02*
X70467982Y-78550771D01*
X70467982Y-78550771D02*
X70401316Y-78503152D01*
X70401316Y-78503152D02*
X70334649Y-78503152D01*
X70101316Y-79074580D02*
X70067983Y-79122200D01*
X70067983Y-79122200D02*
X70101316Y-79169819D01*
X70101316Y-79169819D02*
X70134649Y-79122200D01*
X70134649Y-79122200D02*
X70101316Y-79074580D01*
X70101316Y-79074580D02*
X70101316Y-79169819D01*
X69467983Y-78169819D02*
X69601316Y-78169819D01*
X69601316Y-78169819D02*
X69667983Y-78217438D01*
X69667983Y-78217438D02*
X69701316Y-78265057D01*
X69701316Y-78265057D02*
X69767983Y-78407914D01*
X69767983Y-78407914D02*
X69801316Y-78598390D01*
X69801316Y-78598390D02*
X69801316Y-78979342D01*
X69801316Y-78979342D02*
X69767983Y-79074580D01*
X69767983Y-79074580D02*
X69734650Y-79122200D01*
X69734650Y-79122200D02*
X69667983Y-79169819D01*
X69667983Y-79169819D02*
X69534650Y-79169819D01*
X69534650Y-79169819D02*
X69467983Y-79122200D01*
X69467983Y-79122200D02*
X69434650Y-79074580D01*
X69434650Y-79074580D02*
X69401316Y-78979342D01*
X69401316Y-78979342D02*
X69401316Y-78741247D01*
X69401316Y-78741247D02*
X69434650Y-78646009D01*
X69434650Y-78646009D02*
X69467983Y-78598390D01*
X69467983Y-78598390D02*
X69534650Y-78550771D01*
X69534650Y-78550771D02*
X69667983Y-78550771D01*
X69667983Y-78550771D02*
X69734650Y-78598390D01*
X69734650Y-78598390D02*
X69767983Y-78646009D01*
X69767983Y-78646009D02*
X69801316Y-78741247D01*
X101397982Y-67395057D02*
X101364649Y-67347438D01*
X101364649Y-67347438D02*
X101297982Y-67299819D01*
X101297982Y-67299819D02*
X101131316Y-67299819D01*
X101131316Y-67299819D02*
X101064649Y-67347438D01*
X101064649Y-67347438D02*
X101031316Y-67395057D01*
X101031316Y-67395057D02*
X100997982Y-67490295D01*
X100997982Y-67490295D02*
X100997982Y-67585533D01*
X100997982Y-67585533D02*
X101031316Y-67728390D01*
X101031316Y-67728390D02*
X101431316Y-68299819D01*
X101431316Y-68299819D02*
X100997982Y-68299819D01*
X100731315Y-68252200D02*
X100664649Y-68299819D01*
X100664649Y-68299819D02*
X100531315Y-68299819D01*
X100531315Y-68299819D02*
X100464649Y-68252200D01*
X100464649Y-68252200D02*
X100431315Y-68156961D01*
X100431315Y-68156961D02*
X100431315Y-68109342D01*
X100431315Y-68109342D02*
X100464649Y-68014104D01*
X100464649Y-68014104D02*
X100531315Y-67966485D01*
X100531315Y-67966485D02*
X100631315Y-67966485D01*
X100631315Y-67966485D02*
X100697982Y-67918866D01*
X100697982Y-67918866D02*
X100731315Y-67823628D01*
X100731315Y-67823628D02*
X100731315Y-67776009D01*
X100731315Y-67776009D02*
X100697982Y-67680771D01*
X100697982Y-67680771D02*
X100631315Y-67633152D01*
X100631315Y-67633152D02*
X100531315Y-67633152D01*
X100531315Y-67633152D02*
X100464649Y-67680771D01*
X99631315Y-67252200D02*
X100231315Y-68537914D01*
X99097982Y-67633152D02*
X99097982Y-68299819D01*
X99264649Y-67252200D02*
X99431315Y-67966485D01*
X99431315Y-67966485D02*
X98997982Y-67966485D01*
X98764648Y-68252200D02*
X98697982Y-68299819D01*
X98697982Y-68299819D02*
X98564648Y-68299819D01*
X98564648Y-68299819D02*
X98497982Y-68252200D01*
X98497982Y-68252200D02*
X98464648Y-68156961D01*
X98464648Y-68156961D02*
X98464648Y-68109342D01*
X98464648Y-68109342D02*
X98497982Y-68014104D01*
X98497982Y-68014104D02*
X98564648Y-67966485D01*
X98564648Y-67966485D02*
X98664648Y-67966485D01*
X98664648Y-67966485D02*
X98731315Y-67918866D01*
X98731315Y-67918866D02*
X98764648Y-67823628D01*
X98764648Y-67823628D02*
X98764648Y-67776009D01*
X98764648Y-67776009D02*
X98731315Y-67680771D01*
X98731315Y-67680771D02*
X98664648Y-67633152D01*
X98664648Y-67633152D02*
X98564648Y-67633152D01*
X98564648Y-67633152D02*
X98497982Y-67680771D01*
D11*
X57256709Y-72092331D02*
X57304328Y-72192331D01*
X57304328Y-72192331D02*
X57351947Y-72225664D01*
X57351947Y-72225664D02*
X57447185Y-72258997D01*
X57447185Y-72258997D02*
X57590042Y-72258997D01*
X57590042Y-72258997D02*
X57685280Y-72225664D01*
X57685280Y-72225664D02*
X57732900Y-72192331D01*
X57732900Y-72192331D02*
X57780519Y-72125664D01*
X57780519Y-72125664D02*
X57780519Y-71858997D01*
X57780519Y-71858997D02*
X56780519Y-71858997D01*
X56780519Y-71858997D02*
X56780519Y-72092331D01*
X56780519Y-72092331D02*
X56828138Y-72158997D01*
X56828138Y-72158997D02*
X56875757Y-72192331D01*
X56875757Y-72192331D02*
X56970995Y-72225664D01*
X56970995Y-72225664D02*
X57066233Y-72225664D01*
X57066233Y-72225664D02*
X57161471Y-72192331D01*
X57161471Y-72192331D02*
X57209090Y-72158997D01*
X57209090Y-72158997D02*
X57256709Y-72092331D01*
X57256709Y-72092331D02*
X57256709Y-71858997D01*
X57113852Y-72525664D02*
X57113852Y-73025664D01*
X56685280Y-72725664D02*
X57970995Y-72525664D01*
X57542423Y-72958997D02*
X57542423Y-72458997D01*
X57970995Y-72758997D02*
X56685280Y-72958997D01*
D10*
X80578077Y-82435819D02*
X80244744Y-83435819D01*
X80244744Y-83435819D02*
X79911411Y-82435819D01*
X79006649Y-83435819D02*
X79339982Y-82959628D01*
X79578077Y-83435819D02*
X79578077Y-82435819D01*
X79578077Y-82435819D02*
X79197125Y-82435819D01*
X79197125Y-82435819D02*
X79101887Y-82483438D01*
X79101887Y-82483438D02*
X79054268Y-82531057D01*
X79054268Y-82531057D02*
X79006649Y-82626295D01*
X79006649Y-82626295D02*
X79006649Y-82769152D01*
X79006649Y-82769152D02*
X79054268Y-82864390D01*
X79054268Y-82864390D02*
X79101887Y-82912009D01*
X79101887Y-82912009D02*
X79197125Y-82959628D01*
X79197125Y-82959628D02*
X79578077Y-82959628D01*
X78625696Y-83150104D02*
X78149506Y-83150104D01*
X78720934Y-83435819D02*
X78387601Y-82435819D01*
X78387601Y-82435819D02*
X78054268Y-83435819D01*
X77720934Y-83435819D02*
X77720934Y-82435819D01*
X77720934Y-82435819D02*
X77387601Y-83150104D01*
X77387601Y-83150104D02*
X77054268Y-82435819D01*
X77054268Y-82435819D02*
X77054268Y-83435819D01*
X80573316Y-82158200D02*
X76916173Y-82158200D01*
X72279999Y-72614819D02*
X72679999Y-72614819D01*
X72479999Y-72614819D02*
X72479999Y-71614819D01*
X72479999Y-71614819D02*
X72546666Y-71757676D01*
X72546666Y-71757676D02*
X72613333Y-71852914D01*
X72613333Y-71852914D02*
X72679999Y-71900533D01*
X113455220Y-81099819D02*
X113455220Y-80099819D01*
X113455220Y-80099819D02*
X113217125Y-80099819D01*
X113217125Y-80099819D02*
X113074268Y-80147438D01*
X113074268Y-80147438D02*
X112979030Y-80242676D01*
X112979030Y-80242676D02*
X112931411Y-80337914D01*
X112931411Y-80337914D02*
X112883792Y-80528390D01*
X112883792Y-80528390D02*
X112883792Y-80671247D01*
X112883792Y-80671247D02*
X112931411Y-80861723D01*
X112931411Y-80861723D02*
X112979030Y-80956961D01*
X112979030Y-80956961D02*
X113074268Y-81052200D01*
X113074268Y-81052200D02*
X113217125Y-81099819D01*
X113217125Y-81099819D02*
X113455220Y-81099819D01*
X112074268Y-81052200D02*
X112169506Y-81099819D01*
X112169506Y-81099819D02*
X112359982Y-81099819D01*
X112359982Y-81099819D02*
X112455220Y-81052200D01*
X112455220Y-81052200D02*
X112502839Y-80956961D01*
X112502839Y-80956961D02*
X112502839Y-80576009D01*
X112502839Y-80576009D02*
X112455220Y-80480771D01*
X112455220Y-80480771D02*
X112359982Y-80433152D01*
X112359982Y-80433152D02*
X112169506Y-80433152D01*
X112169506Y-80433152D02*
X112074268Y-80480771D01*
X112074268Y-80480771D02*
X112026649Y-80576009D01*
X112026649Y-80576009D02*
X112026649Y-80671247D01*
X112026649Y-80671247D02*
X112502839Y-80766485D01*
X111645696Y-81052200D02*
X111550458Y-81099819D01*
X111550458Y-81099819D02*
X111359982Y-81099819D01*
X111359982Y-81099819D02*
X111264744Y-81052200D01*
X111264744Y-81052200D02*
X111217125Y-80956961D01*
X111217125Y-80956961D02*
X111217125Y-80909342D01*
X111217125Y-80909342D02*
X111264744Y-80814104D01*
X111264744Y-80814104D02*
X111359982Y-80766485D01*
X111359982Y-80766485D02*
X111502839Y-80766485D01*
X111502839Y-80766485D02*
X111598077Y-80718866D01*
X111598077Y-80718866D02*
X111645696Y-80623628D01*
X111645696Y-80623628D02*
X111645696Y-80576009D01*
X111645696Y-80576009D02*
X111598077Y-80480771D01*
X111598077Y-80480771D02*
X111502839Y-80433152D01*
X111502839Y-80433152D02*
X111359982Y-80433152D01*
X111359982Y-80433152D02*
X111264744Y-80480771D01*
X110788553Y-81099819D02*
X110788553Y-80433152D01*
X110788553Y-80099819D02*
X110836172Y-80147438D01*
X110836172Y-80147438D02*
X110788553Y-80195057D01*
X110788553Y-80195057D02*
X110740934Y-80147438D01*
X110740934Y-80147438D02*
X110788553Y-80099819D01*
X110788553Y-80099819D02*
X110788553Y-80195057D01*
X109883792Y-80433152D02*
X109883792Y-81242676D01*
X109883792Y-81242676D02*
X109931411Y-81337914D01*
X109931411Y-81337914D02*
X109979030Y-81385533D01*
X109979030Y-81385533D02*
X110074268Y-81433152D01*
X110074268Y-81433152D02*
X110217125Y-81433152D01*
X110217125Y-81433152D02*
X110312363Y-81385533D01*
X109883792Y-81052200D02*
X109979030Y-81099819D01*
X109979030Y-81099819D02*
X110169506Y-81099819D01*
X110169506Y-81099819D02*
X110264744Y-81052200D01*
X110264744Y-81052200D02*
X110312363Y-81004580D01*
X110312363Y-81004580D02*
X110359982Y-80909342D01*
X110359982Y-80909342D02*
X110359982Y-80623628D01*
X110359982Y-80623628D02*
X110312363Y-80528390D01*
X110312363Y-80528390D02*
X110264744Y-80480771D01*
X110264744Y-80480771D02*
X110169506Y-80433152D01*
X110169506Y-80433152D02*
X109979030Y-80433152D01*
X109979030Y-80433152D02*
X109883792Y-80480771D01*
X109407601Y-80433152D02*
X109407601Y-81099819D01*
X109407601Y-80528390D02*
X109359982Y-80480771D01*
X109359982Y-80480771D02*
X109264744Y-80433152D01*
X109264744Y-80433152D02*
X109121887Y-80433152D01*
X109121887Y-80433152D02*
X109026649Y-80480771D01*
X109026649Y-80480771D02*
X108979030Y-80576009D01*
X108979030Y-80576009D02*
X108979030Y-81099819D01*
X108121887Y-81052200D02*
X108217125Y-81099819D01*
X108217125Y-81099819D02*
X108407601Y-81099819D01*
X108407601Y-81099819D02*
X108502839Y-81052200D01*
X108502839Y-81052200D02*
X108550458Y-80956961D01*
X108550458Y-80956961D02*
X108550458Y-80576009D01*
X108550458Y-80576009D02*
X108502839Y-80480771D01*
X108502839Y-80480771D02*
X108407601Y-80433152D01*
X108407601Y-80433152D02*
X108217125Y-80433152D01*
X108217125Y-80433152D02*
X108121887Y-80480771D01*
X108121887Y-80480771D02*
X108074268Y-80576009D01*
X108074268Y-80576009D02*
X108074268Y-80671247D01*
X108074268Y-80671247D02*
X108550458Y-80766485D01*
X107217125Y-81099819D02*
X107217125Y-80099819D01*
X107217125Y-81052200D02*
X107312363Y-81099819D01*
X107312363Y-81099819D02*
X107502839Y-81099819D01*
X107502839Y-81099819D02*
X107598077Y-81052200D01*
X107598077Y-81052200D02*
X107645696Y-81004580D01*
X107645696Y-81004580D02*
X107693315Y-80909342D01*
X107693315Y-80909342D02*
X107693315Y-80623628D01*
X107693315Y-80623628D02*
X107645696Y-80528390D01*
X107645696Y-80528390D02*
X107598077Y-80480771D01*
X107598077Y-80480771D02*
X107502839Y-80433152D01*
X107502839Y-80433152D02*
X107312363Y-80433152D01*
X107312363Y-80433152D02*
X107217125Y-80480771D01*
X106026648Y-80814104D02*
X105550458Y-80814104D01*
X106121886Y-81099819D02*
X105788553Y-80099819D01*
X105788553Y-80099819D02*
X105455220Y-81099819D01*
X104693315Y-80433152D02*
X104693315Y-81099819D01*
X105121886Y-80433152D02*
X105121886Y-80956961D01*
X105121886Y-80956961D02*
X105074267Y-81052200D01*
X105074267Y-81052200D02*
X104979029Y-81099819D01*
X104979029Y-81099819D02*
X104836172Y-81099819D01*
X104836172Y-81099819D02*
X104740934Y-81052200D01*
X104740934Y-81052200D02*
X104693315Y-81004580D01*
X103788553Y-80433152D02*
X103788553Y-81242676D01*
X103788553Y-81242676D02*
X103836172Y-81337914D01*
X103836172Y-81337914D02*
X103883791Y-81385533D01*
X103883791Y-81385533D02*
X103979029Y-81433152D01*
X103979029Y-81433152D02*
X104121886Y-81433152D01*
X104121886Y-81433152D02*
X104217124Y-81385533D01*
X103788553Y-81052200D02*
X103883791Y-81099819D01*
X103883791Y-81099819D02*
X104074267Y-81099819D01*
X104074267Y-81099819D02*
X104169505Y-81052200D01*
X104169505Y-81052200D02*
X104217124Y-81004580D01*
X104217124Y-81004580D02*
X104264743Y-80909342D01*
X104264743Y-80909342D02*
X104264743Y-80623628D01*
X104264743Y-80623628D02*
X104217124Y-80528390D01*
X104217124Y-80528390D02*
X104169505Y-80480771D01*
X104169505Y-80480771D02*
X104074267Y-80433152D01*
X104074267Y-80433152D02*
X103883791Y-80433152D01*
X103883791Y-80433152D02*
X103788553Y-80480771D01*
X102883791Y-80433152D02*
X102883791Y-81099819D01*
X103312362Y-80433152D02*
X103312362Y-80956961D01*
X103312362Y-80956961D02*
X103264743Y-81052200D01*
X103264743Y-81052200D02*
X103169505Y-81099819D01*
X103169505Y-81099819D02*
X103026648Y-81099819D01*
X103026648Y-81099819D02*
X102931410Y-81052200D01*
X102931410Y-81052200D02*
X102883791Y-81004580D01*
X102455219Y-81052200D02*
X102359981Y-81099819D01*
X102359981Y-81099819D02*
X102169505Y-81099819D01*
X102169505Y-81099819D02*
X102074267Y-81052200D01*
X102074267Y-81052200D02*
X102026648Y-80956961D01*
X102026648Y-80956961D02*
X102026648Y-80909342D01*
X102026648Y-80909342D02*
X102074267Y-80814104D01*
X102074267Y-80814104D02*
X102169505Y-80766485D01*
X102169505Y-80766485D02*
X102312362Y-80766485D01*
X102312362Y-80766485D02*
X102407600Y-80718866D01*
X102407600Y-80718866D02*
X102455219Y-80623628D01*
X102455219Y-80623628D02*
X102455219Y-80576009D01*
X102455219Y-80576009D02*
X102407600Y-80480771D01*
X102407600Y-80480771D02*
X102312362Y-80433152D01*
X102312362Y-80433152D02*
X102169505Y-80433152D01*
X102169505Y-80433152D02*
X102074267Y-80480771D01*
X101740933Y-80433152D02*
X101359981Y-80433152D01*
X101598076Y-80099819D02*
X101598076Y-80956961D01*
X101598076Y-80956961D02*
X101550457Y-81052200D01*
X101550457Y-81052200D02*
X101455219Y-81099819D01*
X101455219Y-81099819D02*
X101359981Y-81099819D01*
X100312361Y-80195057D02*
X100264742Y-80147438D01*
X100264742Y-80147438D02*
X100169504Y-80099819D01*
X100169504Y-80099819D02*
X99931409Y-80099819D01*
X99931409Y-80099819D02*
X99836171Y-80147438D01*
X99836171Y-80147438D02*
X99788552Y-80195057D01*
X99788552Y-80195057D02*
X99740933Y-80290295D01*
X99740933Y-80290295D02*
X99740933Y-80385533D01*
X99740933Y-80385533D02*
X99788552Y-80528390D01*
X99788552Y-80528390D02*
X100359980Y-81099819D01*
X100359980Y-81099819D02*
X99740933Y-81099819D01*
X99121885Y-80099819D02*
X99026647Y-80099819D01*
X99026647Y-80099819D02*
X98931409Y-80147438D01*
X98931409Y-80147438D02*
X98883790Y-80195057D01*
X98883790Y-80195057D02*
X98836171Y-80290295D01*
X98836171Y-80290295D02*
X98788552Y-80480771D01*
X98788552Y-80480771D02*
X98788552Y-80718866D01*
X98788552Y-80718866D02*
X98836171Y-80909342D01*
X98836171Y-80909342D02*
X98883790Y-81004580D01*
X98883790Y-81004580D02*
X98931409Y-81052200D01*
X98931409Y-81052200D02*
X99026647Y-81099819D01*
X99026647Y-81099819D02*
X99121885Y-81099819D01*
X99121885Y-81099819D02*
X99217123Y-81052200D01*
X99217123Y-81052200D02*
X99264742Y-81004580D01*
X99264742Y-81004580D02*
X99312361Y-80909342D01*
X99312361Y-80909342D02*
X99359980Y-80718866D01*
X99359980Y-80718866D02*
X99359980Y-80480771D01*
X99359980Y-80480771D02*
X99312361Y-80290295D01*
X99312361Y-80290295D02*
X99264742Y-80195057D01*
X99264742Y-80195057D02*
X99217123Y-80147438D01*
X99217123Y-80147438D02*
X99121885Y-80099819D01*
X98407599Y-80195057D02*
X98359980Y-80147438D01*
X98359980Y-80147438D02*
X98264742Y-80099819D01*
X98264742Y-80099819D02*
X98026647Y-80099819D01*
X98026647Y-80099819D02*
X97931409Y-80147438D01*
X97931409Y-80147438D02*
X97883790Y-80195057D01*
X97883790Y-80195057D02*
X97836171Y-80290295D01*
X97836171Y-80290295D02*
X97836171Y-80385533D01*
X97836171Y-80385533D02*
X97883790Y-80528390D01*
X97883790Y-80528390D02*
X98455218Y-81099819D01*
X98455218Y-81099819D02*
X97836171Y-81099819D01*
X97502837Y-80099819D02*
X96883790Y-80099819D01*
X96883790Y-80099819D02*
X97217123Y-80480771D01*
X97217123Y-80480771D02*
X97074266Y-80480771D01*
X97074266Y-80480771D02*
X96979028Y-80528390D01*
X96979028Y-80528390D02*
X96931409Y-80576009D01*
X96931409Y-80576009D02*
X96883790Y-80671247D01*
X96883790Y-80671247D02*
X96883790Y-80909342D01*
X96883790Y-80909342D02*
X96931409Y-81004580D01*
X96931409Y-81004580D02*
X96979028Y-81052200D01*
X96979028Y-81052200D02*
X97074266Y-81099819D01*
X97074266Y-81099819D02*
X97359980Y-81099819D01*
X97359980Y-81099819D02*
X97455218Y-81052200D01*
X97455218Y-81052200D02*
X97502837Y-81004580D01*
X113502839Y-82662200D02*
X113407601Y-82709819D01*
X113407601Y-82709819D02*
X113217125Y-82709819D01*
X113217125Y-82709819D02*
X113121887Y-82662200D01*
X113121887Y-82662200D02*
X113074268Y-82566961D01*
X113074268Y-82566961D02*
X113074268Y-82519342D01*
X113074268Y-82519342D02*
X113121887Y-82424104D01*
X113121887Y-82424104D02*
X113217125Y-82376485D01*
X113217125Y-82376485D02*
X113359982Y-82376485D01*
X113359982Y-82376485D02*
X113455220Y-82328866D01*
X113455220Y-82328866D02*
X113502839Y-82233628D01*
X113502839Y-82233628D02*
X113502839Y-82186009D01*
X113502839Y-82186009D02*
X113455220Y-82090771D01*
X113455220Y-82090771D02*
X113359982Y-82043152D01*
X113359982Y-82043152D02*
X113217125Y-82043152D01*
X113217125Y-82043152D02*
X113121887Y-82090771D01*
X112645696Y-82709819D02*
X112645696Y-82043152D01*
X112645696Y-82138390D02*
X112598077Y-82090771D01*
X112598077Y-82090771D02*
X112502839Y-82043152D01*
X112502839Y-82043152D02*
X112359982Y-82043152D01*
X112359982Y-82043152D02*
X112264744Y-82090771D01*
X112264744Y-82090771D02*
X112217125Y-82186009D01*
X112217125Y-82186009D02*
X112217125Y-82709819D01*
X112217125Y-82186009D02*
X112169506Y-82090771D01*
X112169506Y-82090771D02*
X112074268Y-82043152D01*
X112074268Y-82043152D02*
X111931411Y-82043152D01*
X111931411Y-82043152D02*
X111836172Y-82090771D01*
X111836172Y-82090771D02*
X111788553Y-82186009D01*
X111788553Y-82186009D02*
X111788553Y-82709819D01*
X110883792Y-82709819D02*
X110883792Y-82186009D01*
X110883792Y-82186009D02*
X110931411Y-82090771D01*
X110931411Y-82090771D02*
X111026649Y-82043152D01*
X111026649Y-82043152D02*
X111217125Y-82043152D01*
X111217125Y-82043152D02*
X111312363Y-82090771D01*
X110883792Y-82662200D02*
X110979030Y-82709819D01*
X110979030Y-82709819D02*
X111217125Y-82709819D01*
X111217125Y-82709819D02*
X111312363Y-82662200D01*
X111312363Y-82662200D02*
X111359982Y-82566961D01*
X111359982Y-82566961D02*
X111359982Y-82471723D01*
X111359982Y-82471723D02*
X111312363Y-82376485D01*
X111312363Y-82376485D02*
X111217125Y-82328866D01*
X111217125Y-82328866D02*
X110979030Y-82328866D01*
X110979030Y-82328866D02*
X110883792Y-82281247D01*
X110264744Y-82709819D02*
X110359982Y-82662200D01*
X110359982Y-82662200D02*
X110407601Y-82566961D01*
X110407601Y-82566961D02*
X110407601Y-81709819D01*
X109455220Y-82709819D02*
X109455220Y-81709819D01*
X109455220Y-82662200D02*
X109550458Y-82709819D01*
X109550458Y-82709819D02*
X109740934Y-82709819D01*
X109740934Y-82709819D02*
X109836172Y-82662200D01*
X109836172Y-82662200D02*
X109883791Y-82614580D01*
X109883791Y-82614580D02*
X109931410Y-82519342D01*
X109931410Y-82519342D02*
X109931410Y-82233628D01*
X109931410Y-82233628D02*
X109883791Y-82138390D01*
X109883791Y-82138390D02*
X109836172Y-82090771D01*
X109836172Y-82090771D02*
X109740934Y-82043152D01*
X109740934Y-82043152D02*
X109550458Y-82043152D01*
X109550458Y-82043152D02*
X109455220Y-82090771D01*
X108979029Y-82709819D02*
X108979029Y-82043152D01*
X108979029Y-82233628D02*
X108931410Y-82138390D01*
X108931410Y-82138390D02*
X108883791Y-82090771D01*
X108883791Y-82090771D02*
X108788553Y-82043152D01*
X108788553Y-82043152D02*
X108693315Y-82043152D01*
X107931410Y-82709819D02*
X107931410Y-82186009D01*
X107931410Y-82186009D02*
X107979029Y-82090771D01*
X107979029Y-82090771D02*
X108074267Y-82043152D01*
X108074267Y-82043152D02*
X108264743Y-82043152D01*
X108264743Y-82043152D02*
X108359981Y-82090771D01*
X107931410Y-82662200D02*
X108026648Y-82709819D01*
X108026648Y-82709819D02*
X108264743Y-82709819D01*
X108264743Y-82709819D02*
X108359981Y-82662200D01*
X108359981Y-82662200D02*
X108407600Y-82566961D01*
X108407600Y-82566961D02*
X108407600Y-82471723D01*
X108407600Y-82471723D02*
X108359981Y-82376485D01*
X108359981Y-82376485D02*
X108264743Y-82328866D01*
X108264743Y-82328866D02*
X108026648Y-82328866D01*
X108026648Y-82328866D02*
X107931410Y-82281247D01*
X107026648Y-82043152D02*
X107026648Y-82852676D01*
X107026648Y-82852676D02*
X107074267Y-82947914D01*
X107074267Y-82947914D02*
X107121886Y-82995533D01*
X107121886Y-82995533D02*
X107217124Y-83043152D01*
X107217124Y-83043152D02*
X107359981Y-83043152D01*
X107359981Y-83043152D02*
X107455219Y-82995533D01*
X107026648Y-82662200D02*
X107121886Y-82709819D01*
X107121886Y-82709819D02*
X107312362Y-82709819D01*
X107312362Y-82709819D02*
X107407600Y-82662200D01*
X107407600Y-82662200D02*
X107455219Y-82614580D01*
X107455219Y-82614580D02*
X107502838Y-82519342D01*
X107502838Y-82519342D02*
X107502838Y-82233628D01*
X107502838Y-82233628D02*
X107455219Y-82138390D01*
X107455219Y-82138390D02*
X107407600Y-82090771D01*
X107407600Y-82090771D02*
X107312362Y-82043152D01*
X107312362Y-82043152D02*
X107121886Y-82043152D01*
X107121886Y-82043152D02*
X107026648Y-82090771D01*
X106407600Y-82709819D02*
X106502838Y-82662200D01*
X106502838Y-82662200D02*
X106550457Y-82614580D01*
X106550457Y-82614580D02*
X106598076Y-82519342D01*
X106598076Y-82519342D02*
X106598076Y-82233628D01*
X106598076Y-82233628D02*
X106550457Y-82138390D01*
X106550457Y-82138390D02*
X106502838Y-82090771D01*
X106502838Y-82090771D02*
X106407600Y-82043152D01*
X106407600Y-82043152D02*
X106264743Y-82043152D01*
X106264743Y-82043152D02*
X106169505Y-82090771D01*
X106169505Y-82090771D02*
X106121886Y-82138390D01*
X106121886Y-82138390D02*
X106074267Y-82233628D01*
X106074267Y-82233628D02*
X106074267Y-82519342D01*
X106074267Y-82519342D02*
X106121886Y-82614580D01*
X106121886Y-82614580D02*
X106169505Y-82662200D01*
X106169505Y-82662200D02*
X106264743Y-82709819D01*
X106264743Y-82709819D02*
X106407600Y-82709819D01*
X105645695Y-82043152D02*
X105645695Y-82709819D01*
X105645695Y-82138390D02*
X105598076Y-82090771D01*
X105598076Y-82090771D02*
X105502838Y-82043152D01*
X105502838Y-82043152D02*
X105359981Y-82043152D01*
X105359981Y-82043152D02*
X105264743Y-82090771D01*
X105264743Y-82090771D02*
X105217124Y-82186009D01*
X105217124Y-82186009D02*
X105217124Y-82709819D01*
X104740933Y-82614580D02*
X104693314Y-82662200D01*
X104693314Y-82662200D02*
X104740933Y-82709819D01*
X104740933Y-82709819D02*
X104788552Y-82662200D01*
X104788552Y-82662200D02*
X104740933Y-82614580D01*
X104740933Y-82614580D02*
X104740933Y-82709819D01*
X103836172Y-82043152D02*
X103836172Y-82852676D01*
X103836172Y-82852676D02*
X103883791Y-82947914D01*
X103883791Y-82947914D02*
X103931410Y-82995533D01*
X103931410Y-82995533D02*
X104026648Y-83043152D01*
X104026648Y-83043152D02*
X104169505Y-83043152D01*
X104169505Y-83043152D02*
X104264743Y-82995533D01*
X103836172Y-82662200D02*
X103931410Y-82709819D01*
X103931410Y-82709819D02*
X104121886Y-82709819D01*
X104121886Y-82709819D02*
X104217124Y-82662200D01*
X104217124Y-82662200D02*
X104264743Y-82614580D01*
X104264743Y-82614580D02*
X104312362Y-82519342D01*
X104312362Y-82519342D02*
X104312362Y-82233628D01*
X104312362Y-82233628D02*
X104264743Y-82138390D01*
X104264743Y-82138390D02*
X104217124Y-82090771D01*
X104217124Y-82090771D02*
X104121886Y-82043152D01*
X104121886Y-82043152D02*
X103931410Y-82043152D01*
X103931410Y-82043152D02*
X103836172Y-82090771D01*
X103359981Y-82709819D02*
X103359981Y-82043152D01*
X103359981Y-81709819D02*
X103407600Y-81757438D01*
X103407600Y-81757438D02*
X103359981Y-81805057D01*
X103359981Y-81805057D02*
X103312362Y-81757438D01*
X103312362Y-81757438D02*
X103359981Y-81709819D01*
X103359981Y-81709819D02*
X103359981Y-81805057D01*
X103026648Y-82043152D02*
X102645696Y-82043152D01*
X102883791Y-81709819D02*
X102883791Y-82566961D01*
X102883791Y-82566961D02*
X102836172Y-82662200D01*
X102836172Y-82662200D02*
X102740934Y-82709819D01*
X102740934Y-82709819D02*
X102645696Y-82709819D01*
X102312362Y-82709819D02*
X102312362Y-81709819D01*
X101883791Y-82709819D02*
X101883791Y-82186009D01*
X101883791Y-82186009D02*
X101931410Y-82090771D01*
X101931410Y-82090771D02*
X102026648Y-82043152D01*
X102026648Y-82043152D02*
X102169505Y-82043152D01*
X102169505Y-82043152D02*
X102264743Y-82090771D01*
X102264743Y-82090771D02*
X102312362Y-82138390D01*
X100979029Y-82043152D02*
X100979029Y-82709819D01*
X101407600Y-82043152D02*
X101407600Y-82566961D01*
X101407600Y-82566961D02*
X101359981Y-82662200D01*
X101359981Y-82662200D02*
X101264743Y-82709819D01*
X101264743Y-82709819D02*
X101121886Y-82709819D01*
X101121886Y-82709819D02*
X101026648Y-82662200D01*
X101026648Y-82662200D02*
X100979029Y-82614580D01*
X100502838Y-82709819D02*
X100502838Y-81709819D01*
X100502838Y-82090771D02*
X100407600Y-82043152D01*
X100407600Y-82043152D02*
X100217124Y-82043152D01*
X100217124Y-82043152D02*
X100121886Y-82090771D01*
X100121886Y-82090771D02*
X100074267Y-82138390D01*
X100074267Y-82138390D02*
X100026648Y-82233628D01*
X100026648Y-82233628D02*
X100026648Y-82519342D01*
X100026648Y-82519342D02*
X100074267Y-82614580D01*
X100074267Y-82614580D02*
X100121886Y-82662200D01*
X100121886Y-82662200D02*
X100217124Y-82709819D01*
X100217124Y-82709819D02*
X100407600Y-82709819D01*
X100407600Y-82709819D02*
X100502838Y-82662200D01*
X99598076Y-82614580D02*
X99550457Y-82662200D01*
X99550457Y-82662200D02*
X99598076Y-82709819D01*
X99598076Y-82709819D02*
X99645695Y-82662200D01*
X99645695Y-82662200D02*
X99598076Y-82614580D01*
X99598076Y-82614580D02*
X99598076Y-82709819D01*
X99121886Y-82709819D02*
X99121886Y-82043152D01*
X99121886Y-81709819D02*
X99169505Y-81757438D01*
X99169505Y-81757438D02*
X99121886Y-81805057D01*
X99121886Y-81805057D02*
X99074267Y-81757438D01*
X99074267Y-81757438D02*
X99121886Y-81709819D01*
X99121886Y-81709819D02*
X99121886Y-81805057D01*
X98502839Y-82709819D02*
X98598077Y-82662200D01*
X98598077Y-82662200D02*
X98645696Y-82614580D01*
X98645696Y-82614580D02*
X98693315Y-82519342D01*
X98693315Y-82519342D02*
X98693315Y-82233628D01*
X98693315Y-82233628D02*
X98645696Y-82138390D01*
X98645696Y-82138390D02*
X98598077Y-82090771D01*
X98598077Y-82090771D02*
X98502839Y-82043152D01*
X98502839Y-82043152D02*
X98359982Y-82043152D01*
X98359982Y-82043152D02*
X98264744Y-82090771D01*
X98264744Y-82090771D02*
X98217125Y-82138390D01*
X98217125Y-82138390D02*
X98169506Y-82233628D01*
X98169506Y-82233628D02*
X98169506Y-82519342D01*
X98169506Y-82519342D02*
X98217125Y-82614580D01*
X98217125Y-82614580D02*
X98264744Y-82662200D01*
X98264744Y-82662200D02*
X98359982Y-82709819D01*
X98359982Y-82709819D02*
X98502839Y-82709819D01*
X78050999Y-71880057D02*
X78017666Y-71832438D01*
X78017666Y-71832438D02*
X77950999Y-71784819D01*
X77950999Y-71784819D02*
X77784333Y-71784819D01*
X77784333Y-71784819D02*
X77717666Y-71832438D01*
X77717666Y-71832438D02*
X77684333Y-71880057D01*
X77684333Y-71880057D02*
X77650999Y-71975295D01*
X77650999Y-71975295D02*
X77650999Y-72070533D01*
X77650999Y-72070533D02*
X77684333Y-72213390D01*
X77684333Y-72213390D02*
X78084333Y-72784819D01*
X78084333Y-72784819D02*
X77650999Y-72784819D01*
X81649999Y-79354819D02*
X82049999Y-79354819D01*
X81849999Y-79354819D02*
X81849999Y-78354819D01*
X81849999Y-78354819D02*
X81916666Y-78497676D01*
X81916666Y-78497676D02*
X81983333Y-78592914D01*
X81983333Y-78592914D02*
X82049999Y-78640533D01*
X81349999Y-79354819D02*
X81349999Y-78688152D01*
X81349999Y-78783390D02*
X81316666Y-78735771D01*
X81316666Y-78735771D02*
X81249999Y-78688152D01*
X81249999Y-78688152D02*
X81149999Y-78688152D01*
X81149999Y-78688152D02*
X81083332Y-78735771D01*
X81083332Y-78735771D02*
X81049999Y-78831009D01*
X81049999Y-78831009D02*
X81049999Y-79354819D01*
X81049999Y-78831009D02*
X81016666Y-78735771D01*
X81016666Y-78735771D02*
X80949999Y-78688152D01*
X80949999Y-78688152D02*
X80849999Y-78688152D01*
X80849999Y-78688152D02*
X80783332Y-78735771D01*
X80783332Y-78735771D02*
X80749999Y-78831009D01*
X80749999Y-78831009D02*
X80749999Y-79354819D01*
X79883333Y-79354819D02*
X79883333Y-78688152D01*
X79883333Y-78878628D02*
X79850000Y-78783390D01*
X79850000Y-78783390D02*
X79816666Y-78735771D01*
X79816666Y-78735771D02*
X79750000Y-78688152D01*
X79750000Y-78688152D02*
X79683333Y-78688152D01*
X79450000Y-79259580D02*
X79416667Y-79307200D01*
X79416667Y-79307200D02*
X79450000Y-79354819D01*
X79450000Y-79354819D02*
X79483333Y-79307200D01*
X79483333Y-79307200D02*
X79450000Y-79259580D01*
X79450000Y-79259580D02*
X79450000Y-79354819D01*
X78783334Y-78354819D02*
X79116667Y-78354819D01*
X79116667Y-78354819D02*
X79150000Y-78831009D01*
X79150000Y-78831009D02*
X79116667Y-78783390D01*
X79116667Y-78783390D02*
X79050000Y-78735771D01*
X79050000Y-78735771D02*
X78883334Y-78735771D01*
X78883334Y-78735771D02*
X78816667Y-78783390D01*
X78816667Y-78783390D02*
X78783334Y-78831009D01*
X78783334Y-78831009D02*
X78750000Y-78926247D01*
X78750000Y-78926247D02*
X78750000Y-79164342D01*
X78750000Y-79164342D02*
X78783334Y-79259580D01*
X78783334Y-79259580D02*
X78816667Y-79307200D01*
X78816667Y-79307200D02*
X78883334Y-79354819D01*
X78883334Y-79354819D02*
X79050000Y-79354819D01*
X79050000Y-79354819D02*
X79116667Y-79307200D01*
X79116667Y-79307200D02*
X79150000Y-79259580D01*
X77950000Y-78307200D02*
X78550000Y-79592914D01*
X77416667Y-78354819D02*
X77550000Y-78354819D01*
X77550000Y-78354819D02*
X77616667Y-78402438D01*
X77616667Y-78402438D02*
X77650000Y-78450057D01*
X77650000Y-78450057D02*
X77716667Y-78592914D01*
X77716667Y-78592914D02*
X77750000Y-78783390D01*
X77750000Y-78783390D02*
X77750000Y-79164342D01*
X77750000Y-79164342D02*
X77716667Y-79259580D01*
X77716667Y-79259580D02*
X77683334Y-79307200D01*
X77683334Y-79307200D02*
X77616667Y-79354819D01*
X77616667Y-79354819D02*
X77483334Y-79354819D01*
X77483334Y-79354819D02*
X77416667Y-79307200D01*
X77416667Y-79307200D02*
X77383334Y-79259580D01*
X77383334Y-79259580D02*
X77350000Y-79164342D01*
X77350000Y-79164342D02*
X77350000Y-78926247D01*
X77350000Y-78926247D02*
X77383334Y-78831009D01*
X77383334Y-78831009D02*
X77416667Y-78783390D01*
X77416667Y-78783390D02*
X77483334Y-78735771D01*
X77483334Y-78735771D02*
X77616667Y-78735771D01*
X77616667Y-78735771D02*
X77683334Y-78783390D01*
X77683334Y-78783390D02*
X77716667Y-78831009D01*
X77716667Y-78831009D02*
X77750000Y-78926247D01*
X81079180Y-74249599D02*
X81079180Y-74649599D01*
X81079180Y-74449599D02*
X82079180Y-74449599D01*
X82079180Y-74449599D02*
X81936323Y-74516266D01*
X81936323Y-74516266D02*
X81841085Y-74582933D01*
X81841085Y-74582933D02*
X81793466Y-74649599D01*
X81079180Y-73949599D02*
X81745847Y-73949599D01*
X81650609Y-73949599D02*
X81698228Y-73916266D01*
X81698228Y-73916266D02*
X81745847Y-73849599D01*
X81745847Y-73849599D02*
X81745847Y-73749599D01*
X81745847Y-73749599D02*
X81698228Y-73682932D01*
X81698228Y-73682932D02*
X81602990Y-73649599D01*
X81602990Y-73649599D02*
X81079180Y-73649599D01*
X81602990Y-73649599D02*
X81698228Y-73616266D01*
X81698228Y-73616266D02*
X81745847Y-73549599D01*
X81745847Y-73549599D02*
X81745847Y-73449599D01*
X81745847Y-73449599D02*
X81698228Y-73382932D01*
X81698228Y-73382932D02*
X81602990Y-73349599D01*
X81602990Y-73349599D02*
X81079180Y-73349599D01*
X81079180Y-72482933D02*
X81745847Y-72482933D01*
X81555371Y-72482933D02*
X81650609Y-72449600D01*
X81650609Y-72449600D02*
X81698228Y-72416266D01*
X81698228Y-72416266D02*
X81745847Y-72349600D01*
X81745847Y-72349600D02*
X81745847Y-72282933D01*
X81174419Y-72049600D02*
X81126800Y-72016267D01*
X81126800Y-72016267D02*
X81079180Y-72049600D01*
X81079180Y-72049600D02*
X81126800Y-72082933D01*
X81126800Y-72082933D02*
X81174419Y-72049600D01*
X81174419Y-72049600D02*
X81079180Y-72049600D01*
X81745847Y-71416267D02*
X81079180Y-71416267D01*
X82126800Y-71582934D02*
X81412514Y-71749600D01*
X81412514Y-71749600D02*
X81412514Y-71316267D01*
X87795180Y-74649999D02*
X88461847Y-74649999D01*
X88795180Y-74649999D02*
X88747561Y-74683332D01*
X88747561Y-74683332D02*
X88699942Y-74649999D01*
X88699942Y-74649999D02*
X88747561Y-74616666D01*
X88747561Y-74616666D02*
X88795180Y-74649999D01*
X88795180Y-74649999D02*
X88699942Y-74649999D01*
X88795180Y-74383333D02*
X88795180Y-73949999D01*
X88795180Y-73949999D02*
X88414228Y-74183333D01*
X88414228Y-74183333D02*
X88414228Y-74083333D01*
X88414228Y-74083333D02*
X88366609Y-74016666D01*
X88366609Y-74016666D02*
X88318990Y-73983333D01*
X88318990Y-73983333D02*
X88223752Y-73949999D01*
X88223752Y-73949999D02*
X87985657Y-73949999D01*
X87985657Y-73949999D02*
X87890419Y-73983333D01*
X87890419Y-73983333D02*
X87842800Y-74016666D01*
X87842800Y-74016666D02*
X87795180Y-74083333D01*
X87795180Y-74083333D02*
X87795180Y-74283333D01*
X87795180Y-74283333D02*
X87842800Y-74349999D01*
X87842800Y-74349999D02*
X87890419Y-74383333D01*
X88795180Y-73516666D02*
X88795180Y-73449999D01*
X88795180Y-73449999D02*
X88747561Y-73383332D01*
X88747561Y-73383332D02*
X88699942Y-73349999D01*
X88699942Y-73349999D02*
X88604704Y-73316666D01*
X88604704Y-73316666D02*
X88414228Y-73283332D01*
X88414228Y-73283332D02*
X88176133Y-73283332D01*
X88176133Y-73283332D02*
X87985657Y-73316666D01*
X87985657Y-73316666D02*
X87890419Y-73349999D01*
X87890419Y-73349999D02*
X87842800Y-73383332D01*
X87842800Y-73383332D02*
X87795180Y-73449999D01*
X87795180Y-73449999D02*
X87795180Y-73516666D01*
X87795180Y-73516666D02*
X87842800Y-73583332D01*
X87842800Y-73583332D02*
X87890419Y-73616666D01*
X87890419Y-73616666D02*
X87985657Y-73649999D01*
X87985657Y-73649999D02*
X88176133Y-73683332D01*
X88176133Y-73683332D02*
X88414228Y-73683332D01*
X88414228Y-73683332D02*
X88604704Y-73649999D01*
X88604704Y-73649999D02*
X88699942Y-73616666D01*
X88699942Y-73616666D02*
X88747561Y-73583332D01*
X88747561Y-73583332D02*
X88795180Y-73516666D01*
X88842800Y-72483332D02*
X87557085Y-73083332D01*
X87795180Y-72249999D02*
X88795180Y-72249999D01*
X88795180Y-72249999D02*
X87795180Y-71849999D01*
X87795180Y-71849999D02*
X88795180Y-71849999D01*
D11*
X57668519Y-67281797D02*
X56668519Y-67281797D01*
X56668519Y-67281797D02*
X56668519Y-67548464D01*
X56668519Y-67548464D02*
X56716138Y-67615131D01*
X56716138Y-67615131D02*
X56763757Y-67648464D01*
X56763757Y-67648464D02*
X56858995Y-67681797D01*
X56858995Y-67681797D02*
X57001852Y-67681797D01*
X57001852Y-67681797D02*
X57097090Y-67648464D01*
X57097090Y-67648464D02*
X57144709Y-67615131D01*
X57144709Y-67615131D02*
X57192328Y-67548464D01*
X57192328Y-67548464D02*
X57192328Y-67281797D01*
X57668519Y-68381797D02*
X57192328Y-68148464D01*
X57668519Y-67981797D02*
X56668519Y-67981797D01*
X56668519Y-67981797D02*
X56668519Y-68248464D01*
X56668519Y-68248464D02*
X56716138Y-68315131D01*
X56716138Y-68315131D02*
X56763757Y-68348464D01*
X56763757Y-68348464D02*
X56858995Y-68381797D01*
X56858995Y-68381797D02*
X57001852Y-68381797D01*
X57001852Y-68381797D02*
X57097090Y-68348464D01*
X57097090Y-68348464D02*
X57144709Y-68315131D01*
X57144709Y-68315131D02*
X57192328Y-68248464D01*
X57192328Y-68248464D02*
X57192328Y-67981797D01*
X56716138Y-69048464D02*
X56668519Y-68981797D01*
X56668519Y-68981797D02*
X56668519Y-68881797D01*
X56668519Y-68881797D02*
X56716138Y-68781797D01*
X56716138Y-68781797D02*
X56811376Y-68715131D01*
X56811376Y-68715131D02*
X56906614Y-68681797D01*
X56906614Y-68681797D02*
X57097090Y-68648464D01*
X57097090Y-68648464D02*
X57239947Y-68648464D01*
X57239947Y-68648464D02*
X57430423Y-68681797D01*
X57430423Y-68681797D02*
X57525661Y-68715131D01*
X57525661Y-68715131D02*
X57620900Y-68781797D01*
X57620900Y-68781797D02*
X57668519Y-68881797D01*
X57668519Y-68881797D02*
X57668519Y-68948464D01*
X57668519Y-68948464D02*
X57620900Y-69048464D01*
X57620900Y-69048464D02*
X57573280Y-69081797D01*
X57573280Y-69081797D02*
X57239947Y-69081797D01*
X57239947Y-69081797D02*
X57239947Y-68948464D01*
X57144709Y-70148464D02*
X57192328Y-70248464D01*
X57192328Y-70248464D02*
X57239947Y-70281797D01*
X57239947Y-70281797D02*
X57335185Y-70315130D01*
X57335185Y-70315130D02*
X57478042Y-70315130D01*
X57478042Y-70315130D02*
X57573280Y-70281797D01*
X57573280Y-70281797D02*
X57620900Y-70248464D01*
X57620900Y-70248464D02*
X57668519Y-70181797D01*
X57668519Y-70181797D02*
X57668519Y-69915130D01*
X57668519Y-69915130D02*
X56668519Y-69915130D01*
X56668519Y-69915130D02*
X56668519Y-70148464D01*
X56668519Y-70148464D02*
X56716138Y-70215130D01*
X56716138Y-70215130D02*
X56763757Y-70248464D01*
X56763757Y-70248464D02*
X56858995Y-70281797D01*
X56858995Y-70281797D02*
X56954233Y-70281797D01*
X56954233Y-70281797D02*
X57049471Y-70248464D01*
X57049471Y-70248464D02*
X57097090Y-70215130D01*
X57097090Y-70215130D02*
X57144709Y-70148464D01*
X57144709Y-70148464D02*
X57144709Y-69915130D01*
X57001852Y-70581797D02*
X57001852Y-71081797D01*
X56573280Y-70781797D02*
X57858995Y-70581797D01*
X57430423Y-71015130D02*
X57430423Y-70515130D01*
X57858995Y-70815130D02*
X56573280Y-71015130D01*
D10*
X41389999Y-69114819D02*
X41389999Y-68448152D01*
X41389999Y-68114819D02*
X41423332Y-68162438D01*
X41423332Y-68162438D02*
X41389999Y-68210057D01*
X41389999Y-68210057D02*
X41356666Y-68162438D01*
X41356666Y-68162438D02*
X41389999Y-68114819D01*
X41389999Y-68114819D02*
X41389999Y-68210057D01*
X41123333Y-68114819D02*
X40689999Y-68114819D01*
X40689999Y-68114819D02*
X40923333Y-68495771D01*
X40923333Y-68495771D02*
X40823333Y-68495771D01*
X40823333Y-68495771D02*
X40756666Y-68543390D01*
X40756666Y-68543390D02*
X40723333Y-68591009D01*
X40723333Y-68591009D02*
X40689999Y-68686247D01*
X40689999Y-68686247D02*
X40689999Y-68924342D01*
X40689999Y-68924342D02*
X40723333Y-69019580D01*
X40723333Y-69019580D02*
X40756666Y-69067200D01*
X40756666Y-69067200D02*
X40823333Y-69114819D01*
X40823333Y-69114819D02*
X41023333Y-69114819D01*
X41023333Y-69114819D02*
X41089999Y-69067200D01*
X41089999Y-69067200D02*
X41123333Y-69019580D01*
X40256666Y-68114819D02*
X40189999Y-68114819D01*
X40189999Y-68114819D02*
X40123332Y-68162438D01*
X40123332Y-68162438D02*
X40089999Y-68210057D01*
X40089999Y-68210057D02*
X40056666Y-68305295D01*
X40056666Y-68305295D02*
X40023332Y-68495771D01*
X40023332Y-68495771D02*
X40023332Y-68733866D01*
X40023332Y-68733866D02*
X40056666Y-68924342D01*
X40056666Y-68924342D02*
X40089999Y-69019580D01*
X40089999Y-69019580D02*
X40123332Y-69067200D01*
X40123332Y-69067200D02*
X40189999Y-69114819D01*
X40189999Y-69114819D02*
X40256666Y-69114819D01*
X40256666Y-69114819D02*
X40323332Y-69067200D01*
X40323332Y-69067200D02*
X40356666Y-69019580D01*
X40356666Y-69019580D02*
X40389999Y-68924342D01*
X40389999Y-68924342D02*
X40423332Y-68733866D01*
X40423332Y-68733866D02*
X40423332Y-68495771D01*
X40423332Y-68495771D02*
X40389999Y-68305295D01*
X40389999Y-68305295D02*
X40356666Y-68210057D01*
X40356666Y-68210057D02*
X40323332Y-68162438D01*
X40323332Y-68162438D02*
X40256666Y-68114819D01*
X39223332Y-68067200D02*
X39823332Y-69352914D01*
X38989999Y-69114819D02*
X38989999Y-68114819D01*
X38989999Y-68114819D02*
X38589999Y-69114819D01*
X38589999Y-69114819D02*
X38589999Y-68114819D01*
X73751316Y-80621009D02*
X73651316Y-80668628D01*
X73651316Y-80668628D02*
X73617982Y-80716247D01*
X73617982Y-80716247D02*
X73584649Y-80811485D01*
X73584649Y-80811485D02*
X73584649Y-80954342D01*
X73584649Y-80954342D02*
X73617982Y-81049580D01*
X73617982Y-81049580D02*
X73651316Y-81097200D01*
X73651316Y-81097200D02*
X73717982Y-81144819D01*
X73717982Y-81144819D02*
X73984649Y-81144819D01*
X73984649Y-81144819D02*
X73984649Y-80144819D01*
X73984649Y-80144819D02*
X73751316Y-80144819D01*
X73751316Y-80144819D02*
X73684649Y-80192438D01*
X73684649Y-80192438D02*
X73651316Y-80240057D01*
X73651316Y-80240057D02*
X73617982Y-80335295D01*
X73617982Y-80335295D02*
X73617982Y-80430533D01*
X73617982Y-80430533D02*
X73651316Y-80525771D01*
X73651316Y-80525771D02*
X73684649Y-80573390D01*
X73684649Y-80573390D02*
X73751316Y-80621009D01*
X73751316Y-80621009D02*
X73984649Y-80621009D01*
X73284649Y-81144819D02*
X73284649Y-80478152D01*
X73284649Y-80668628D02*
X73251316Y-80573390D01*
X73251316Y-80573390D02*
X73217982Y-80525771D01*
X73217982Y-80525771D02*
X73151316Y-80478152D01*
X73151316Y-80478152D02*
X73084649Y-80478152D01*
X72851316Y-81049580D02*
X72817983Y-81097200D01*
X72817983Y-81097200D02*
X72851316Y-81144819D01*
X72851316Y-81144819D02*
X72884649Y-81097200D01*
X72884649Y-81097200D02*
X72851316Y-81049580D01*
X72851316Y-81049580D02*
X72851316Y-81144819D01*
X72584650Y-80144819D02*
X72117983Y-80144819D01*
X72117983Y-80144819D02*
X72417983Y-81144819D01*
X89867982Y-78759819D02*
X90267982Y-78759819D01*
X90067982Y-78759819D02*
X90067982Y-77759819D01*
X90067982Y-77759819D02*
X90134649Y-77902676D01*
X90134649Y-77902676D02*
X90201316Y-77997914D01*
X90201316Y-77997914D02*
X90267982Y-78045533D01*
X89567982Y-78759819D02*
X89567982Y-78093152D01*
X89567982Y-78188390D02*
X89534649Y-78140771D01*
X89534649Y-78140771D02*
X89467982Y-78093152D01*
X89467982Y-78093152D02*
X89367982Y-78093152D01*
X89367982Y-78093152D02*
X89301315Y-78140771D01*
X89301315Y-78140771D02*
X89267982Y-78236009D01*
X89267982Y-78236009D02*
X89267982Y-78759819D01*
X89267982Y-78236009D02*
X89234649Y-78140771D01*
X89234649Y-78140771D02*
X89167982Y-78093152D01*
X89167982Y-78093152D02*
X89067982Y-78093152D01*
X89067982Y-78093152D02*
X89001315Y-78140771D01*
X89001315Y-78140771D02*
X88967982Y-78236009D01*
X88967982Y-78236009D02*
X88967982Y-78759819D01*
X87867983Y-78236009D02*
X88101316Y-78236009D01*
X88101316Y-78759819D02*
X88101316Y-77759819D01*
X88101316Y-77759819D02*
X87767983Y-77759819D01*
X87001316Y-77712200D02*
X87601316Y-78997914D01*
X89867982Y-80369819D02*
X90267982Y-80369819D01*
X90067982Y-80369819D02*
X90067982Y-79369819D01*
X90067982Y-79369819D02*
X90134649Y-79512676D01*
X90134649Y-79512676D02*
X90201316Y-79607914D01*
X90201316Y-79607914D02*
X90267982Y-79655533D01*
X89567982Y-80369819D02*
X89567982Y-79703152D01*
X89567982Y-79798390D02*
X89534649Y-79750771D01*
X89534649Y-79750771D02*
X89467982Y-79703152D01*
X89467982Y-79703152D02*
X89367982Y-79703152D01*
X89367982Y-79703152D02*
X89301315Y-79750771D01*
X89301315Y-79750771D02*
X89267982Y-79846009D01*
X89267982Y-79846009D02*
X89267982Y-80369819D01*
X89267982Y-79846009D02*
X89234649Y-79750771D01*
X89234649Y-79750771D02*
X89167982Y-79703152D01*
X89167982Y-79703152D02*
X89067982Y-79703152D01*
X89067982Y-79703152D02*
X89001315Y-79750771D01*
X89001315Y-79750771D02*
X88967982Y-79846009D01*
X88967982Y-79846009D02*
X88967982Y-80369819D01*
X88101316Y-80369819D02*
X88101316Y-79703152D01*
X88101316Y-79893628D02*
X88067983Y-79798390D01*
X88067983Y-79798390D02*
X88034649Y-79750771D01*
X88034649Y-79750771D02*
X87967983Y-79703152D01*
X87967983Y-79703152D02*
X87901316Y-79703152D01*
X87667983Y-80274580D02*
X87634650Y-80322200D01*
X87634650Y-80322200D02*
X87667983Y-80369819D01*
X87667983Y-80369819D02*
X87701316Y-80322200D01*
X87701316Y-80322200D02*
X87667983Y-80274580D01*
X87667983Y-80274580D02*
X87667983Y-80369819D01*
X87401317Y-79369819D02*
X86934650Y-79369819D01*
X86934650Y-79369819D02*
X87234650Y-80369819D01*
X55070285Y-67854819D02*
X55641713Y-67854819D01*
X55355999Y-67854819D02*
X55355999Y-66854819D01*
X55355999Y-66854819D02*
X55451237Y-66997676D01*
X55451237Y-66997676D02*
X55546475Y-67092914D01*
X55546475Y-67092914D02*
X55641713Y-67140533D01*
X53927428Y-66807200D02*
X54784570Y-68092914D01*
X53641713Y-66950057D02*
X53594094Y-66902438D01*
X53594094Y-66902438D02*
X53498856Y-66854819D01*
X53498856Y-66854819D02*
X53260761Y-66854819D01*
X53260761Y-66854819D02*
X53165523Y-66902438D01*
X53165523Y-66902438D02*
X53117904Y-66950057D01*
X53117904Y-66950057D02*
X53070285Y-67045295D01*
X53070285Y-67045295D02*
X53070285Y-67140533D01*
X53070285Y-67140533D02*
X53117904Y-67283390D01*
X53117904Y-67283390D02*
X53689332Y-67854819D01*
X53689332Y-67854819D02*
X53070285Y-67854819D01*
X67359580Y-76509523D02*
X67407200Y-76461904D01*
X67407200Y-76461904D02*
X67454819Y-76319047D01*
X67454819Y-76319047D02*
X67454819Y-76223809D01*
X67454819Y-76223809D02*
X67407200Y-76080952D01*
X67407200Y-76080952D02*
X67311961Y-75985714D01*
X67311961Y-75985714D02*
X67216723Y-75938095D01*
X67216723Y-75938095D02*
X67026247Y-75890476D01*
X67026247Y-75890476D02*
X66883390Y-75890476D01*
X66883390Y-75890476D02*
X66692914Y-75938095D01*
X66692914Y-75938095D02*
X66597676Y-75985714D01*
X66597676Y-75985714D02*
X66502438Y-76080952D01*
X66502438Y-76080952D02*
X66454819Y-76223809D01*
X66454819Y-76223809D02*
X66454819Y-76319047D01*
X66454819Y-76319047D02*
X66502438Y-76461904D01*
X66502438Y-76461904D02*
X66550057Y-76509523D01*
X56011980Y-75878423D02*
X56059600Y-75830804D01*
X56059600Y-75830804D02*
X56107219Y-75687947D01*
X56107219Y-75687947D02*
X56107219Y-75592709D01*
X56107219Y-75592709D02*
X56059600Y-75449852D01*
X56059600Y-75449852D02*
X55964361Y-75354614D01*
X55964361Y-75354614D02*
X55869123Y-75306995D01*
X55869123Y-75306995D02*
X55678647Y-75259376D01*
X55678647Y-75259376D02*
X55535790Y-75259376D01*
X55535790Y-75259376D02*
X55345314Y-75306995D01*
X55345314Y-75306995D02*
X55250076Y-75354614D01*
X55250076Y-75354614D02*
X55154838Y-75449852D01*
X55154838Y-75449852D02*
X55107219Y-75592709D01*
X55107219Y-75592709D02*
X55107219Y-75687947D01*
X55107219Y-75687947D02*
X55154838Y-75830804D01*
X55154838Y-75830804D02*
X55202457Y-75878423D01*
X87690476Y-59359580D02*
X87738095Y-59407200D01*
X87738095Y-59407200D02*
X87880952Y-59454819D01*
X87880952Y-59454819D02*
X87976190Y-59454819D01*
X87976190Y-59454819D02*
X88119047Y-59407200D01*
X88119047Y-59407200D02*
X88214285Y-59311961D01*
X88214285Y-59311961D02*
X88261904Y-59216723D01*
X88261904Y-59216723D02*
X88309523Y-59026247D01*
X88309523Y-59026247D02*
X88309523Y-58883390D01*
X88309523Y-58883390D02*
X88261904Y-58692914D01*
X88261904Y-58692914D02*
X88214285Y-58597676D01*
X88214285Y-58597676D02*
X88119047Y-58502438D01*
X88119047Y-58502438D02*
X87976190Y-58454819D01*
X87976190Y-58454819D02*
X87880952Y-58454819D01*
X87880952Y-58454819D02*
X87738095Y-58502438D01*
X87738095Y-58502438D02*
X87690476Y-58550057D01*
X49889580Y-64419123D02*
X49937200Y-64371504D01*
X49937200Y-64371504D02*
X49984819Y-64228647D01*
X49984819Y-64228647D02*
X49984819Y-64133409D01*
X49984819Y-64133409D02*
X49937200Y-63990552D01*
X49937200Y-63990552D02*
X49841961Y-63895314D01*
X49841961Y-63895314D02*
X49746723Y-63847695D01*
X49746723Y-63847695D02*
X49556247Y-63800076D01*
X49556247Y-63800076D02*
X49413390Y-63800076D01*
X49413390Y-63800076D02*
X49222914Y-63847695D01*
X49222914Y-63847695D02*
X49127676Y-63895314D01*
X49127676Y-63895314D02*
X49032438Y-63990552D01*
X49032438Y-63990552D02*
X48984819Y-64133409D01*
X48984819Y-64133409D02*
X48984819Y-64228647D01*
X48984819Y-64228647D02*
X49032438Y-64371504D01*
X49032438Y-64371504D02*
X49080057Y-64419123D01*
X95257580Y-69274423D02*
X95305200Y-69226804D01*
X95305200Y-69226804D02*
X95352819Y-69083947D01*
X95352819Y-69083947D02*
X95352819Y-68988709D01*
X95352819Y-68988709D02*
X95305200Y-68845852D01*
X95305200Y-68845852D02*
X95209961Y-68750614D01*
X95209961Y-68750614D02*
X95114723Y-68702995D01*
X95114723Y-68702995D02*
X94924247Y-68655376D01*
X94924247Y-68655376D02*
X94781390Y-68655376D01*
X94781390Y-68655376D02*
X94590914Y-68702995D01*
X94590914Y-68702995D02*
X94495676Y-68750614D01*
X94495676Y-68750614D02*
X94400438Y-68845852D01*
X94400438Y-68845852D02*
X94352819Y-68988709D01*
X94352819Y-68988709D02*
X94352819Y-69083947D01*
X94352819Y-69083947D02*
X94400438Y-69226804D01*
X94400438Y-69226804D02*
X94448057Y-69274423D01*
D12*
%TO.C,J53*%
X74250000Y-79862400D02*
X74250000Y-80462400D01*
X74950000Y-81162400D02*
X76350000Y-81162400D01*
X76350000Y-79162400D02*
X74950000Y-79162400D01*
X77050000Y-80462400D02*
X77050000Y-79862400D01*
X74950000Y-79162400D02*
G75*
G03*
X74250000Y-79862400I-1J-699999D01*
G01*
X74250000Y-80462400D02*
G75*
G03*
X74950000Y-81162400I699999J-1D01*
G01*
X77050000Y-79862400D02*
G75*
G03*
X76350000Y-79162400I-700000J0D01*
G01*
X76350000Y-81162400D02*
G75*
G03*
X77050000Y-80462400I0J700000D01*
G01*
%TO.C,C3*%
X64238200Y-76461252D02*
X64238200Y-75938748D01*
X65708200Y-76461252D02*
X65708200Y-75938748D01*
%TO.C,JP7*%
X105956800Y-70658000D02*
X105956800Y-70058000D01*
X105406800Y-71858000D02*
X104806800Y-71858000D01*
X105306800Y-69358000D02*
X102506800Y-69358000D01*
X105106800Y-71558000D02*
X105406800Y-71858000D01*
X105106800Y-71558000D02*
X104806800Y-71858000D01*
X102506800Y-71358000D02*
X105306800Y-71358000D01*
X101856800Y-70058000D02*
X101856800Y-70658000D01*
X105256800Y-71358000D02*
G75*
G03*
X105956800Y-70658000I1J699999D01*
G01*
X105956800Y-70058000D02*
G75*
G03*
X105256800Y-69358000I-699999J1D01*
G01*
X101856800Y-70658000D02*
G75*
G03*
X102556800Y-71358000I700000J0D01*
G01*
X102556800Y-69358000D02*
G75*
G03*
X101856800Y-70058000I0J-700000D01*
G01*
%TO.C,C2*%
X52960600Y-75830152D02*
X52960600Y-75307648D01*
X54430600Y-75830152D02*
X54430600Y-75307648D01*
%TO.C,C4*%
X84393048Y-58345400D02*
X84915552Y-58345400D01*
X84393048Y-59815400D02*
X84915552Y-59815400D01*
%TO.C,JP2*%
X42080400Y-66451500D02*
X42080400Y-65851500D01*
X41530400Y-67651500D02*
X40930400Y-67651500D01*
X41430400Y-65151500D02*
X38630400Y-65151500D01*
X41230400Y-67351500D02*
X41530400Y-67651500D01*
X41230400Y-67351500D02*
X40930400Y-67651500D01*
X38630400Y-67151500D02*
X41430400Y-67151500D01*
X37980400Y-65851500D02*
X37980400Y-66451500D01*
X41380400Y-67151500D02*
G75*
G03*
X42080400Y-66451500I1J699999D01*
G01*
X42080400Y-65851500D02*
G75*
G03*
X41380400Y-65151500I-699999J1D01*
G01*
X37980400Y-66451500D02*
G75*
G03*
X38680400Y-67151500I700000J0D01*
G01*
X38680400Y-65151500D02*
G75*
G03*
X37980400Y-65851500I0J-700000D01*
G01*
%TO.C,JP1*%
X81000000Y-82550000D02*
X81000000Y-83150000D01*
X81700000Y-83850000D02*
X83100000Y-83850000D01*
X83100000Y-81850000D02*
X81700000Y-81850000D01*
X83800000Y-83150000D02*
X83800000Y-82550000D01*
X81700000Y-81850000D02*
G75*
G03*
X81000000Y-82550000I-1J-699999D01*
G01*
X81000000Y-83150000D02*
G75*
G03*
X81700000Y-83850000I699999J-1D01*
G01*
X83800000Y-82550000D02*
G75*
G03*
X83100000Y-81850000I-700000J0D01*
G01*
X83100000Y-83850000D02*
G75*
G03*
X83800000Y-83150000I0J700000D01*
G01*
%TO.C,JP12*%
X75550000Y-75300000D02*
X75550000Y-74700000D01*
X75000000Y-76500000D02*
X74400000Y-76500000D01*
X74900000Y-74000000D02*
X72100000Y-74000000D01*
X74700000Y-76200000D02*
X75000000Y-76500000D01*
X74700000Y-76200000D02*
X74400000Y-76500000D01*
X72100000Y-76000000D02*
X74900000Y-76000000D01*
X71450000Y-74700000D02*
X71450000Y-75300000D01*
X74850000Y-76000000D02*
G75*
G03*
X75550000Y-75300000I1J699999D01*
G01*
X75550000Y-74700000D02*
G75*
G03*
X74850000Y-74000000I-699999J1D01*
G01*
X71450000Y-75300000D02*
G75*
G03*
X72150000Y-76000000I700000J0D01*
G01*
X72150000Y-74000000D02*
G75*
G03*
X71450000Y-74700000I0J-700000D01*
G01*
%TO.C,JP8*%
X56355200Y-72598300D02*
X56355200Y-71998300D01*
X55805200Y-73798300D02*
X55205200Y-73798300D01*
X55705200Y-71298300D02*
X52905200Y-71298300D01*
X55505200Y-73498300D02*
X55805200Y-73798300D01*
X55505200Y-73498300D02*
X55205200Y-73798300D01*
X52905200Y-73298300D02*
X55705200Y-73298300D01*
X52255200Y-71998300D02*
X52255200Y-72598300D01*
X55655200Y-73298300D02*
G75*
G03*
X56355200Y-72598300I1J699999D01*
G01*
X56355200Y-71998300D02*
G75*
G03*
X55655200Y-71298300I-699999J1D01*
G01*
X52255200Y-72598300D02*
G75*
G03*
X52955200Y-73298300I700000J0D01*
G01*
X52955200Y-71298300D02*
G75*
G03*
X52255200Y-71998300I0J-700000D01*
G01*
%TO.C,JP5*%
X86415900Y-71254400D02*
X85815900Y-71254400D01*
X87615900Y-71804400D02*
X87615900Y-72404400D01*
X85115900Y-71904400D02*
X85115900Y-74704400D01*
X87315900Y-72104400D02*
X87615900Y-71804400D01*
X87315900Y-72104400D02*
X87615900Y-72404400D01*
X87115900Y-74704400D02*
X87115900Y-71904400D01*
X85815900Y-75354400D02*
X86415900Y-75354400D01*
X87115900Y-71954400D02*
G75*
G03*
X86415900Y-71254400I-699999J1D01*
G01*
X85815900Y-71254400D02*
G75*
G03*
X85115900Y-71954400I-1J-699999D01*
G01*
X86415900Y-75354400D02*
G75*
G03*
X87115900Y-74654400I0J700000D01*
G01*
X85115900Y-74654400D02*
G75*
G03*
X85815900Y-75354400I700000J0D01*
G01*
%TO.C,JP6*%
X73050000Y-72000000D02*
X73050000Y-72600000D01*
X73600000Y-70800000D02*
X74200000Y-70800000D01*
X73700000Y-73300000D02*
X76500000Y-73300000D01*
X73900000Y-71100000D02*
X73600000Y-70800000D01*
X73900000Y-71100000D02*
X74200000Y-70800000D01*
X76500000Y-71300000D02*
X73700000Y-71300000D01*
X77150000Y-72600000D02*
X77150000Y-72000000D01*
X73750000Y-71300000D02*
G75*
G03*
X73050000Y-72000000I-1J-699999D01*
G01*
X73050000Y-72600000D02*
G75*
G03*
X73750000Y-73300000I699999J-1D01*
G01*
X77150000Y-72000000D02*
G75*
G03*
X76450000Y-71300000I-700000J0D01*
G01*
X76450000Y-73300000D02*
G75*
G03*
X77150000Y-72600000I0J700000D01*
G01*
%TO.C,C1*%
X48385400Y-63848348D02*
X48385400Y-64370852D01*
X46915400Y-63848348D02*
X46915400Y-64370852D01*
%TO.C,JP10*%
X86550000Y-80550000D02*
X86550000Y-79950000D01*
X86000000Y-81750000D02*
X85400000Y-81750000D01*
X85900000Y-79250000D02*
X83100000Y-79250000D01*
X85700000Y-81450000D02*
X86000000Y-81750000D01*
X85700000Y-81450000D02*
X85400000Y-81750000D01*
X83100000Y-81250000D02*
X85900000Y-81250000D01*
X82450000Y-79950000D02*
X82450000Y-80550000D01*
X85850000Y-81250000D02*
G75*
G03*
X86550000Y-80550000I1J699999D01*
G01*
X86550000Y-79950000D02*
G75*
G03*
X85850000Y-79250000I-699999J1D01*
G01*
X82450000Y-80550000D02*
G75*
G03*
X83150000Y-81250000I700000J0D01*
G01*
X83150000Y-79250000D02*
G75*
G03*
X82450000Y-79950000I0J-700000D01*
G01*
%TO.C,C5*%
X93953000Y-68703648D02*
X93953000Y-69226152D01*
X92483000Y-68703648D02*
X92483000Y-69226152D01*
%TO.C,J1*%
X82950000Y-74704400D02*
X83550000Y-74704400D01*
X84250000Y-74004400D02*
X84250000Y-72604400D01*
X82250000Y-72604400D02*
X82250000Y-74004400D01*
X83550000Y-71904400D02*
X82950000Y-71904400D01*
X82250000Y-74004400D02*
G75*
G03*
X82950000Y-74704400I699999J-1D01*
G01*
X83550000Y-74704400D02*
G75*
G03*
X84250000Y-74004400I1J699999D01*
G01*
X82950000Y-71904400D02*
G75*
G03*
X82250000Y-72604400I0J-700000D01*
G01*
X84250000Y-72604400D02*
G75*
G03*
X83550000Y-71904400I-700000J0D01*
G01*
%TO.C,J52*%
X71750000Y-77322400D02*
X71750000Y-77922400D01*
X72450000Y-78622400D02*
X73850000Y-78622400D01*
X73850000Y-76622400D02*
X72450000Y-76622400D01*
X74550000Y-77922400D02*
X74550000Y-77322400D01*
X72450000Y-76622400D02*
G75*
G03*
X71750000Y-77322400I-1J-699999D01*
G01*
X71750000Y-77922400D02*
G75*
G03*
X72450000Y-78622400I699999J-1D01*
G01*
X74550000Y-77322400D02*
G75*
G03*
X73850000Y-76622400I-700000J0D01*
G01*
X73850000Y-78622400D02*
G75*
G03*
X74550000Y-77922400I0J700000D01*
G01*
%TO.C,JP3*%
X52255200Y-69448400D02*
X52255200Y-70048400D01*
X52805200Y-68248400D02*
X53405200Y-68248400D01*
X52905200Y-70748400D02*
X55705200Y-70748400D01*
X53105200Y-68548400D02*
X52805200Y-68248400D01*
X53105200Y-68548400D02*
X53405200Y-68248400D01*
X55705200Y-68748400D02*
X52905200Y-68748400D01*
X56355200Y-70048400D02*
X56355200Y-69448400D01*
X52955200Y-68748400D02*
G75*
G03*
X52255200Y-69448400I-1J-699999D01*
G01*
X52255200Y-70048400D02*
G75*
G03*
X52955200Y-70748400I699999J-1D01*
G01*
X56355200Y-69448400D02*
G75*
G03*
X55655200Y-68748400I-700000J0D01*
G01*
X55655200Y-70748400D02*
G75*
G03*
X56355200Y-70048400I0J700000D01*
G01*
%TO.C,JP11*%
X77550000Y-74200000D02*
X76950000Y-74200000D01*
X78750000Y-74750000D02*
X78750000Y-75350000D01*
X76250000Y-74850000D02*
X76250000Y-77650000D01*
X78450000Y-75050000D02*
X78750000Y-74750000D01*
X78450000Y-75050000D02*
X78750000Y-75350000D01*
X78250000Y-77650000D02*
X78250000Y-74850000D01*
X76950000Y-78300000D02*
X77550000Y-78300000D01*
X78250000Y-74900000D02*
G75*
G03*
X77550000Y-74200000I-699999J1D01*
G01*
X76950000Y-74200000D02*
G75*
G03*
X76250000Y-74900000I-1J-699999D01*
G01*
X77550000Y-78300000D02*
G75*
G03*
X78250000Y-77600000I0J700000D01*
G01*
X76250000Y-77600000D02*
G75*
G03*
X76950000Y-78300000I700000J0D01*
G01*
%TO.C,JP9*%
X105936000Y-68118000D02*
X105936000Y-67518000D01*
X105386000Y-69318000D02*
X104786000Y-69318000D01*
X105286000Y-66818000D02*
X102486000Y-66818000D01*
X105086000Y-69018000D02*
X105386000Y-69318000D01*
X105086000Y-69018000D02*
X104786000Y-69318000D01*
X102486000Y-68818000D02*
X105286000Y-68818000D01*
X101836000Y-67518000D02*
X101836000Y-68118000D01*
X105236000Y-68818000D02*
G75*
G03*
X105936000Y-68118000I1J699999D01*
G01*
X105936000Y-67518000D02*
G75*
G03*
X105236000Y-66818000I-699999J1D01*
G01*
X101836000Y-68118000D02*
G75*
G03*
X102536000Y-68818000I700000J0D01*
G01*
X102536000Y-66818000D02*
G75*
G03*
X101836000Y-67518000I0J-700000D01*
G01*
%TO.C,JP4*%
X97177600Y-82900800D02*
X97177600Y-82300800D01*
X96627600Y-84100800D02*
X96027600Y-84100800D01*
X96527600Y-81600800D02*
X93727600Y-81600800D01*
X96327600Y-83800800D02*
X96627600Y-84100800D01*
X96327600Y-83800800D02*
X96027600Y-84100800D01*
X93727600Y-83600800D02*
X96527600Y-83600800D01*
X93077600Y-82300800D02*
X93077600Y-82900800D01*
X96477600Y-83600800D02*
G75*
G03*
X97177600Y-82900800I1J699999D01*
G01*
X97177600Y-82300800D02*
G75*
G03*
X96477600Y-81600800I-699999J1D01*
G01*
X93077600Y-82900800D02*
G75*
G03*
X93777600Y-83600800I700000J0D01*
G01*
X93777600Y-81600800D02*
G75*
G03*
X93077600Y-82300800I0J-700000D01*
G01*
%TD*%
M02*
