%TF.GenerationSoftware,KiCad,Pcbnew,7.0.7*%
%TF.CreationDate,2023-09-07T16:09:01+01:00*%
%TF.ProjectId,FamiFlex,46616d69-466c-4657-982e-6b696361645f,rev?*%
%TF.SameCoordinates,Original*%
%TF.FileFunction,Legend,Top*%
%TF.FilePolarity,Positive*%
%FSLAX46Y46*%
G04 Gerber Fmt 4.6, Leading zero omitted, Abs format (unit mm)*
G04 Created by KiCad (PCBNEW 7.0.7) date 2023-09-07 16:09:01*
%MOMM*%
%LPD*%
G01*
G04 APERTURE LIST*
%ADD10C,0.150000*%
%ADD11C,0.240000*%
%ADD12C,0.400000*%
%ADD13C,0.200000*%
%ADD14C,0.175000*%
%ADD15C,0.120000*%
%ADD16C,0.300000*%
G04 APERTURE END LIST*
D10*
X75867846Y-78994000D02*
X74343846Y-78994000D01*
X75105846Y-77851000D01*
X75867846Y-78994000D01*
G36*
X75867846Y-78994000D02*
G01*
X74343846Y-78994000D01*
X75105846Y-77851000D01*
X75867846Y-78994000D01*
G37*
D11*
X54242662Y-72042856D02*
X54242662Y-71242856D01*
X54242662Y-71242856D02*
X55442662Y-71757142D01*
X54642662Y-70271428D02*
X55442662Y-70271428D01*
X54185520Y-70557142D02*
X55042662Y-70842856D01*
X55042662Y-70842856D02*
X55042662Y-70099999D01*
X55442662Y-69642856D02*
X54242662Y-69642856D01*
X55442662Y-69128571D02*
X54814091Y-69128571D01*
X54814091Y-69128571D02*
X54699805Y-69185713D01*
X54699805Y-69185713D02*
X54642662Y-69299999D01*
X54642662Y-69299999D02*
X54642662Y-69471428D01*
X54642662Y-69471428D02*
X54699805Y-69585713D01*
X54699805Y-69585713D02*
X54756948Y-69642856D01*
X55385520Y-68042857D02*
X55442662Y-68157142D01*
X55442662Y-68157142D02*
X55442662Y-68385714D01*
X55442662Y-68385714D02*
X55385520Y-68499999D01*
X55385520Y-68499999D02*
X55328377Y-68557142D01*
X55328377Y-68557142D02*
X55214091Y-68614285D01*
X55214091Y-68614285D02*
X54871234Y-68614285D01*
X54871234Y-68614285D02*
X54756948Y-68557142D01*
X54756948Y-68557142D02*
X54699805Y-68499999D01*
X54699805Y-68499999D02*
X54642662Y-68385714D01*
X54642662Y-68385714D02*
X54642662Y-68157142D01*
X54642662Y-68157142D02*
X54699805Y-68042857D01*
X54242662Y-67014286D02*
X54242662Y-67242857D01*
X54242662Y-67242857D02*
X54299805Y-67357143D01*
X54299805Y-67357143D02*
X54356948Y-67414286D01*
X54356948Y-67414286D02*
X54528377Y-67528571D01*
X54528377Y-67528571D02*
X54756948Y-67585714D01*
X54756948Y-67585714D02*
X55214091Y-67585714D01*
X55214091Y-67585714D02*
X55328377Y-67528571D01*
X55328377Y-67528571D02*
X55385520Y-67471428D01*
X55385520Y-67471428D02*
X55442662Y-67357143D01*
X55442662Y-67357143D02*
X55442662Y-67128571D01*
X55442662Y-67128571D02*
X55385520Y-67014286D01*
X55385520Y-67014286D02*
X55328377Y-66957143D01*
X55328377Y-66957143D02*
X55214091Y-66900000D01*
X55214091Y-66900000D02*
X54928377Y-66900000D01*
X54928377Y-66900000D02*
X54814091Y-66957143D01*
X54814091Y-66957143D02*
X54756948Y-67014286D01*
X54756948Y-67014286D02*
X54699805Y-67128571D01*
X54699805Y-67128571D02*
X54699805Y-67357143D01*
X54699805Y-67357143D02*
X54756948Y-67471428D01*
X54756948Y-67471428D02*
X54814091Y-67528571D01*
X54814091Y-67528571D02*
X54928377Y-67585714D01*
X54242662Y-66500000D02*
X54242662Y-65700000D01*
X54242662Y-65700000D02*
X55442662Y-66214286D01*
X54242662Y-65014286D02*
X54242662Y-64900000D01*
X54242662Y-64900000D02*
X54299805Y-64785714D01*
X54299805Y-64785714D02*
X54356948Y-64728572D01*
X54356948Y-64728572D02*
X54471234Y-64671429D01*
X54471234Y-64671429D02*
X54699805Y-64614286D01*
X54699805Y-64614286D02*
X54985520Y-64614286D01*
X54985520Y-64614286D02*
X55214091Y-64671429D01*
X55214091Y-64671429D02*
X55328377Y-64728572D01*
X55328377Y-64728572D02*
X55385520Y-64785714D01*
X55385520Y-64785714D02*
X55442662Y-64900000D01*
X55442662Y-64900000D02*
X55442662Y-65014286D01*
X55442662Y-65014286D02*
X55385520Y-65128572D01*
X55385520Y-65128572D02*
X55328377Y-65185714D01*
X55328377Y-65185714D02*
X55214091Y-65242857D01*
X55214091Y-65242857D02*
X54985520Y-65300000D01*
X54985520Y-65300000D02*
X54699805Y-65300000D01*
X54699805Y-65300000D02*
X54471234Y-65242857D01*
X54471234Y-65242857D02*
X54356948Y-65185714D01*
X54356948Y-65185714D02*
X54299805Y-65128572D01*
X54299805Y-65128572D02*
X54242662Y-65014286D01*
X100682857Y-67456662D02*
X101425714Y-67456662D01*
X101425714Y-67456662D02*
X101025714Y-67913805D01*
X101025714Y-67913805D02*
X101197143Y-67913805D01*
X101197143Y-67913805D02*
X101311429Y-67970948D01*
X101311429Y-67970948D02*
X101368571Y-68028091D01*
X101368571Y-68028091D02*
X101425714Y-68142377D01*
X101425714Y-68142377D02*
X101425714Y-68428091D01*
X101425714Y-68428091D02*
X101368571Y-68542377D01*
X101368571Y-68542377D02*
X101311429Y-68599520D01*
X101311429Y-68599520D02*
X101197143Y-68656662D01*
X101197143Y-68656662D02*
X100854286Y-68656662D01*
X100854286Y-68656662D02*
X100740000Y-68599520D01*
X100740000Y-68599520D02*
X100682857Y-68542377D01*
X101997143Y-68656662D02*
X102225714Y-68656662D01*
X102225714Y-68656662D02*
X102340000Y-68599520D01*
X102340000Y-68599520D02*
X102397143Y-68542377D01*
X102397143Y-68542377D02*
X102511428Y-68370948D01*
X102511428Y-68370948D02*
X102568571Y-68142377D01*
X102568571Y-68142377D02*
X102568571Y-67685234D01*
X102568571Y-67685234D02*
X102511428Y-67570948D01*
X102511428Y-67570948D02*
X102454286Y-67513805D01*
X102454286Y-67513805D02*
X102340000Y-67456662D01*
X102340000Y-67456662D02*
X102111428Y-67456662D01*
X102111428Y-67456662D02*
X101997143Y-67513805D01*
X101997143Y-67513805D02*
X101940000Y-67570948D01*
X101940000Y-67570948D02*
X101882857Y-67685234D01*
X101882857Y-67685234D02*
X101882857Y-67970948D01*
X101882857Y-67970948D02*
X101940000Y-68085234D01*
X101940000Y-68085234D02*
X101997143Y-68142377D01*
X101997143Y-68142377D02*
X102111428Y-68199520D01*
X102111428Y-68199520D02*
X102340000Y-68199520D01*
X102340000Y-68199520D02*
X102454286Y-68142377D01*
X102454286Y-68142377D02*
X102511428Y-68085234D01*
X102511428Y-68085234D02*
X102568571Y-67970948D01*
X103025714Y-68599520D02*
X103197143Y-68656662D01*
X103197143Y-68656662D02*
X103482857Y-68656662D01*
X103482857Y-68656662D02*
X103597143Y-68599520D01*
X103597143Y-68599520D02*
X103654285Y-68542377D01*
X103654285Y-68542377D02*
X103711428Y-68428091D01*
X103711428Y-68428091D02*
X103711428Y-68313805D01*
X103711428Y-68313805D02*
X103654285Y-68199520D01*
X103654285Y-68199520D02*
X103597143Y-68142377D01*
X103597143Y-68142377D02*
X103482857Y-68085234D01*
X103482857Y-68085234D02*
X103254285Y-68028091D01*
X103254285Y-68028091D02*
X103140000Y-67970948D01*
X103140000Y-67970948D02*
X103082857Y-67913805D01*
X103082857Y-67913805D02*
X103025714Y-67799520D01*
X103025714Y-67799520D02*
X103025714Y-67685234D01*
X103025714Y-67685234D02*
X103082857Y-67570948D01*
X103082857Y-67570948D02*
X103140000Y-67513805D01*
X103140000Y-67513805D02*
X103254285Y-67456662D01*
X103254285Y-67456662D02*
X103540000Y-67456662D01*
X103540000Y-67456662D02*
X103711428Y-67513805D01*
X104625714Y-68028091D02*
X104225714Y-68028091D01*
X104225714Y-68656662D02*
X104225714Y-67456662D01*
X104225714Y-67456662D02*
X104797142Y-67456662D01*
X101025715Y-69960091D02*
X100625715Y-69960091D01*
X100625715Y-70588662D02*
X100625715Y-69388662D01*
X100625715Y-69388662D02*
X101197143Y-69388662D01*
X101825714Y-70588662D02*
X101711429Y-70531520D01*
X101711429Y-70531520D02*
X101654286Y-70417234D01*
X101654286Y-70417234D02*
X101654286Y-69388662D01*
X102797143Y-70588662D02*
X102797143Y-69960091D01*
X102797143Y-69960091D02*
X102740000Y-69845805D01*
X102740000Y-69845805D02*
X102625714Y-69788662D01*
X102625714Y-69788662D02*
X102397143Y-69788662D01*
X102397143Y-69788662D02*
X102282857Y-69845805D01*
X102797143Y-70531520D02*
X102682857Y-70588662D01*
X102682857Y-70588662D02*
X102397143Y-70588662D01*
X102397143Y-70588662D02*
X102282857Y-70531520D01*
X102282857Y-70531520D02*
X102225714Y-70417234D01*
X102225714Y-70417234D02*
X102225714Y-70302948D01*
X102225714Y-70302948D02*
X102282857Y-70188662D01*
X102282857Y-70188662D02*
X102397143Y-70131520D01*
X102397143Y-70131520D02*
X102682857Y-70131520D01*
X102682857Y-70131520D02*
X102797143Y-70074377D01*
X103311428Y-70531520D02*
X103425714Y-70588662D01*
X103425714Y-70588662D02*
X103654285Y-70588662D01*
X103654285Y-70588662D02*
X103768571Y-70531520D01*
X103768571Y-70531520D02*
X103825714Y-70417234D01*
X103825714Y-70417234D02*
X103825714Y-70360091D01*
X103825714Y-70360091D02*
X103768571Y-70245805D01*
X103768571Y-70245805D02*
X103654285Y-70188662D01*
X103654285Y-70188662D02*
X103482857Y-70188662D01*
X103482857Y-70188662D02*
X103368571Y-70131520D01*
X103368571Y-70131520D02*
X103311428Y-70017234D01*
X103311428Y-70017234D02*
X103311428Y-69960091D01*
X103311428Y-69960091D02*
X103368571Y-69845805D01*
X103368571Y-69845805D02*
X103482857Y-69788662D01*
X103482857Y-69788662D02*
X103654285Y-69788662D01*
X103654285Y-69788662D02*
X103768571Y-69845805D01*
X104340000Y-70588662D02*
X104340000Y-69388662D01*
X104854286Y-70588662D02*
X104854286Y-69960091D01*
X104854286Y-69960091D02*
X104797143Y-69845805D01*
X104797143Y-69845805D02*
X104682857Y-69788662D01*
X104682857Y-69788662D02*
X104511428Y-69788662D01*
X104511428Y-69788662D02*
X104397143Y-69845805D01*
X104397143Y-69845805D02*
X104340000Y-69902948D01*
X37822857Y-67036662D02*
X38565714Y-67036662D01*
X38565714Y-67036662D02*
X38165714Y-67493805D01*
X38165714Y-67493805D02*
X38337143Y-67493805D01*
X38337143Y-67493805D02*
X38451429Y-67550948D01*
X38451429Y-67550948D02*
X38508571Y-67608091D01*
X38508571Y-67608091D02*
X38565714Y-67722377D01*
X38565714Y-67722377D02*
X38565714Y-68008091D01*
X38565714Y-68008091D02*
X38508571Y-68122377D01*
X38508571Y-68122377D02*
X38451429Y-68179520D01*
X38451429Y-68179520D02*
X38337143Y-68236662D01*
X38337143Y-68236662D02*
X37994286Y-68236662D01*
X37994286Y-68236662D02*
X37880000Y-68179520D01*
X37880000Y-68179520D02*
X37822857Y-68122377D01*
X39137143Y-68236662D02*
X39365714Y-68236662D01*
X39365714Y-68236662D02*
X39480000Y-68179520D01*
X39480000Y-68179520D02*
X39537143Y-68122377D01*
X39537143Y-68122377D02*
X39651428Y-67950948D01*
X39651428Y-67950948D02*
X39708571Y-67722377D01*
X39708571Y-67722377D02*
X39708571Y-67265234D01*
X39708571Y-67265234D02*
X39651428Y-67150948D01*
X39651428Y-67150948D02*
X39594286Y-67093805D01*
X39594286Y-67093805D02*
X39480000Y-67036662D01*
X39480000Y-67036662D02*
X39251428Y-67036662D01*
X39251428Y-67036662D02*
X39137143Y-67093805D01*
X39137143Y-67093805D02*
X39080000Y-67150948D01*
X39080000Y-67150948D02*
X39022857Y-67265234D01*
X39022857Y-67265234D02*
X39022857Y-67550948D01*
X39022857Y-67550948D02*
X39080000Y-67665234D01*
X39080000Y-67665234D02*
X39137143Y-67722377D01*
X39137143Y-67722377D02*
X39251428Y-67779520D01*
X39251428Y-67779520D02*
X39480000Y-67779520D01*
X39480000Y-67779520D02*
X39594286Y-67722377D01*
X39594286Y-67722377D02*
X39651428Y-67665234D01*
X39651428Y-67665234D02*
X39708571Y-67550948D01*
X40165714Y-68179520D02*
X40337143Y-68236662D01*
X40337143Y-68236662D02*
X40622857Y-68236662D01*
X40622857Y-68236662D02*
X40737143Y-68179520D01*
X40737143Y-68179520D02*
X40794285Y-68122377D01*
X40794285Y-68122377D02*
X40851428Y-68008091D01*
X40851428Y-68008091D02*
X40851428Y-67893805D01*
X40851428Y-67893805D02*
X40794285Y-67779520D01*
X40794285Y-67779520D02*
X40737143Y-67722377D01*
X40737143Y-67722377D02*
X40622857Y-67665234D01*
X40622857Y-67665234D02*
X40394285Y-67608091D01*
X40394285Y-67608091D02*
X40280000Y-67550948D01*
X40280000Y-67550948D02*
X40222857Y-67493805D01*
X40222857Y-67493805D02*
X40165714Y-67379520D01*
X40165714Y-67379520D02*
X40165714Y-67265234D01*
X40165714Y-67265234D02*
X40222857Y-67150948D01*
X40222857Y-67150948D02*
X40280000Y-67093805D01*
X40280000Y-67093805D02*
X40394285Y-67036662D01*
X40394285Y-67036662D02*
X40680000Y-67036662D01*
X40680000Y-67036662D02*
X40851428Y-67093805D01*
X41765714Y-67608091D02*
X41365714Y-67608091D01*
X41365714Y-68236662D02*
X41365714Y-67036662D01*
X41365714Y-67036662D02*
X41937142Y-67036662D01*
X38165715Y-69540091D02*
X37765715Y-69540091D01*
X37765715Y-70168662D02*
X37765715Y-68968662D01*
X37765715Y-68968662D02*
X38337143Y-68968662D01*
X38965714Y-70168662D02*
X38851429Y-70111520D01*
X38851429Y-70111520D02*
X38794286Y-69997234D01*
X38794286Y-69997234D02*
X38794286Y-68968662D01*
X39937143Y-70168662D02*
X39937143Y-69540091D01*
X39937143Y-69540091D02*
X39880000Y-69425805D01*
X39880000Y-69425805D02*
X39765714Y-69368662D01*
X39765714Y-69368662D02*
X39537143Y-69368662D01*
X39537143Y-69368662D02*
X39422857Y-69425805D01*
X39937143Y-70111520D02*
X39822857Y-70168662D01*
X39822857Y-70168662D02*
X39537143Y-70168662D01*
X39537143Y-70168662D02*
X39422857Y-70111520D01*
X39422857Y-70111520D02*
X39365714Y-69997234D01*
X39365714Y-69997234D02*
X39365714Y-69882948D01*
X39365714Y-69882948D02*
X39422857Y-69768662D01*
X39422857Y-69768662D02*
X39537143Y-69711520D01*
X39537143Y-69711520D02*
X39822857Y-69711520D01*
X39822857Y-69711520D02*
X39937143Y-69654377D01*
X40451428Y-70111520D02*
X40565714Y-70168662D01*
X40565714Y-70168662D02*
X40794285Y-70168662D01*
X40794285Y-70168662D02*
X40908571Y-70111520D01*
X40908571Y-70111520D02*
X40965714Y-69997234D01*
X40965714Y-69997234D02*
X40965714Y-69940091D01*
X40965714Y-69940091D02*
X40908571Y-69825805D01*
X40908571Y-69825805D02*
X40794285Y-69768662D01*
X40794285Y-69768662D02*
X40622857Y-69768662D01*
X40622857Y-69768662D02*
X40508571Y-69711520D01*
X40508571Y-69711520D02*
X40451428Y-69597234D01*
X40451428Y-69597234D02*
X40451428Y-69540091D01*
X40451428Y-69540091D02*
X40508571Y-69425805D01*
X40508571Y-69425805D02*
X40622857Y-69368662D01*
X40622857Y-69368662D02*
X40794285Y-69368662D01*
X40794285Y-69368662D02*
X40908571Y-69425805D01*
X41480000Y-70168662D02*
X41480000Y-68968662D01*
X41994286Y-70168662D02*
X41994286Y-69540091D01*
X41994286Y-69540091D02*
X41937143Y-69425805D01*
X41937143Y-69425805D02*
X41822857Y-69368662D01*
X41822857Y-69368662D02*
X41651428Y-69368662D01*
X41651428Y-69368662D02*
X41537143Y-69425805D01*
X41537143Y-69425805D02*
X41480000Y-69482948D01*
D10*
G36*
X84759667Y-78227077D02*
G01*
X84790075Y-78257484D01*
X84824333Y-78326000D01*
X84824333Y-78433446D01*
X84790074Y-78501963D01*
X84759668Y-78532369D01*
X84691152Y-78566628D01*
X84402905Y-78566628D01*
X84402905Y-78192819D01*
X84691152Y-78192819D01*
X84759667Y-78227077D01*
G37*
G36*
X85117190Y-79335676D02*
G01*
X82014810Y-79335676D01*
X82014810Y-78689247D01*
X82157667Y-78689247D01*
X82158852Y-78692504D01*
X82159906Y-78707437D01*
X82207525Y-78897913D01*
X82209513Y-78900857D01*
X82213204Y-78913264D01*
X82260823Y-79008502D01*
X82262009Y-79009625D01*
X82274872Y-79027994D01*
X82370110Y-79123233D01*
X82374174Y-79125128D01*
X82376521Y-79128948D01*
X82399426Y-79141351D01*
X82542282Y-79188970D01*
X82543917Y-79188925D01*
X82566000Y-79192819D01*
X82661238Y-79192819D01*
X82662776Y-79192258D01*
X82684955Y-79188970D01*
X82827812Y-79141351D01*
X82831323Y-79138563D01*
X82835792Y-79138173D01*
X82857129Y-79123232D01*
X82862542Y-79117819D01*
X83205286Y-79117819D01*
X83222833Y-79166028D01*
X83267262Y-79191680D01*
X83317786Y-79182771D01*
X83350763Y-79143471D01*
X83355286Y-79117819D01*
X83355286Y-78669009D01*
X83776714Y-78669009D01*
X83776714Y-79117819D01*
X83794261Y-79166028D01*
X83838690Y-79191680D01*
X83889214Y-79182771D01*
X83922191Y-79143471D01*
X83926714Y-79117819D01*
X84252905Y-79117819D01*
X84270452Y-79166028D01*
X84314881Y-79191680D01*
X84365405Y-79182771D01*
X84398382Y-79143471D01*
X84402905Y-79117819D01*
X84402905Y-78716628D01*
X84526951Y-78716628D01*
X84837891Y-79160829D01*
X84879912Y-79190261D01*
X84931020Y-79185797D01*
X84967302Y-79149525D01*
X84971781Y-79098418D01*
X84960776Y-79074810D01*
X84709806Y-78716282D01*
X84713070Y-78715094D01*
X84717431Y-78716136D01*
X84742398Y-78708710D01*
X84837636Y-78661091D01*
X84838761Y-78659901D01*
X84857128Y-78647042D01*
X84904747Y-78599423D01*
X84905438Y-78597941D01*
X84918796Y-78579931D01*
X84966415Y-78484693D01*
X84966927Y-78480239D01*
X84969810Y-78476804D01*
X84974333Y-78451152D01*
X84974333Y-78308295D01*
X84972799Y-78304081D01*
X84973841Y-78299720D01*
X84966415Y-78274754D01*
X84918796Y-78179516D01*
X84917606Y-78178390D01*
X84904747Y-78160024D01*
X84857128Y-78112405D01*
X84855646Y-78111714D01*
X84837636Y-78098356D01*
X84742398Y-78050737D01*
X84737944Y-78050224D01*
X84734509Y-78047342D01*
X84708857Y-78042819D01*
X84327905Y-78042819D01*
X84309596Y-78049482D01*
X84290405Y-78052867D01*
X84286054Y-78058051D01*
X84279696Y-78060366D01*
X84269953Y-78077239D01*
X84257428Y-78092167D01*
X84255710Y-78101909D01*
X84254044Y-78104795D01*
X84254622Y-78108077D01*
X84252905Y-78117819D01*
X84252905Y-79117819D01*
X83926714Y-79117819D01*
X83926714Y-78117819D01*
X83909167Y-78069610D01*
X83864738Y-78043958D01*
X83814214Y-78052867D01*
X83781237Y-78092167D01*
X83776714Y-78117819D01*
X83776714Y-78519009D01*
X83355286Y-78519009D01*
X83355286Y-78117819D01*
X83337739Y-78069610D01*
X83293310Y-78043958D01*
X83242786Y-78052867D01*
X83209809Y-78092167D01*
X83205286Y-78117819D01*
X83205286Y-79117819D01*
X82862542Y-79117819D01*
X82904747Y-79075613D01*
X82926428Y-79029116D01*
X82913150Y-78979561D01*
X82871125Y-78950135D01*
X82820017Y-78954607D01*
X82798680Y-78969548D01*
X82763581Y-79004647D01*
X82649068Y-79042819D01*
X82578170Y-79042819D01*
X82463657Y-79004648D01*
X82389544Y-78930534D01*
X82351050Y-78853547D01*
X82307667Y-78680013D01*
X82307667Y-78555623D01*
X82351050Y-78382089D01*
X82389543Y-78305103D01*
X82463657Y-78230989D01*
X82578170Y-78192819D01*
X82649068Y-78192819D01*
X82763581Y-78230990D01*
X82798681Y-78266090D01*
X82845177Y-78287771D01*
X82894732Y-78274494D01*
X82924158Y-78232468D01*
X82919687Y-78181361D01*
X82904747Y-78160024D01*
X82857128Y-78112405D01*
X82853064Y-78110510D01*
X82850717Y-78106689D01*
X82827812Y-78094287D01*
X82684955Y-78046668D01*
X82683320Y-78046712D01*
X82661238Y-78042819D01*
X82566000Y-78042819D01*
X82564462Y-78043378D01*
X82542282Y-78046668D01*
X82399426Y-78094287D01*
X82395915Y-78097073D01*
X82391447Y-78097464D01*
X82370110Y-78112405D01*
X82274872Y-78207643D01*
X82274181Y-78209124D01*
X82260823Y-78227135D01*
X82213204Y-78322373D01*
X82212797Y-78325901D01*
X82207525Y-78337724D01*
X82159906Y-78528200D01*
X82160266Y-78531648D01*
X82157667Y-78546390D01*
X82157667Y-78689247D01*
X82014810Y-78689247D01*
X82014810Y-77899962D01*
X85117190Y-77899962D01*
X85117190Y-79335676D01*
G37*
G36*
X39454258Y-79497077D02*
G01*
X39484665Y-79527484D01*
X39518923Y-79596000D01*
X39518923Y-79703447D01*
X39484664Y-79771963D01*
X39454258Y-79802370D01*
X39385742Y-79836628D01*
X39097495Y-79836628D01*
X39097495Y-79462819D01*
X39385742Y-79462819D01*
X39454258Y-79497077D01*
G37*
G36*
X40454258Y-79497077D02*
G01*
X40484665Y-79527484D01*
X40518923Y-79596000D01*
X40518923Y-79703447D01*
X40484664Y-79771963D01*
X40454258Y-79802370D01*
X40385742Y-79836628D01*
X40097495Y-79836628D01*
X40097495Y-79462819D01*
X40385742Y-79462819D01*
X40454258Y-79497077D01*
G37*
G36*
X41811780Y-80605676D02*
G01*
X38804638Y-80605676D01*
X38804638Y-80387819D01*
X38947495Y-80387819D01*
X38965042Y-80436028D01*
X39009471Y-80461680D01*
X39059995Y-80452771D01*
X39092972Y-80413471D01*
X39097495Y-80387819D01*
X39947495Y-80387819D01*
X39965042Y-80436028D01*
X40009471Y-80461680D01*
X40059995Y-80452771D01*
X40092972Y-80413471D01*
X40097495Y-80387819D01*
X40097495Y-79986628D01*
X40221541Y-79986628D01*
X40532481Y-80430829D01*
X40574502Y-80460261D01*
X40625610Y-80455797D01*
X40661892Y-80419525D01*
X40666371Y-80368418D01*
X40655366Y-80344810D01*
X40404396Y-79986282D01*
X40407660Y-79985094D01*
X40412021Y-79986136D01*
X40436988Y-79978710D01*
X40475914Y-79959247D01*
X40899876Y-79959247D01*
X40901061Y-79962504D01*
X40902115Y-79977437D01*
X40949734Y-80167913D01*
X40951722Y-80170857D01*
X40955413Y-80183264D01*
X41003032Y-80278502D01*
X41004218Y-80279625D01*
X41017081Y-80297994D01*
X41112319Y-80393233D01*
X41116383Y-80395128D01*
X41118730Y-80398948D01*
X41141635Y-80411351D01*
X41284491Y-80458970D01*
X41286126Y-80458925D01*
X41308209Y-80462819D01*
X41403447Y-80462819D01*
X41404985Y-80462258D01*
X41427164Y-80458970D01*
X41570021Y-80411351D01*
X41573532Y-80408563D01*
X41578001Y-80408173D01*
X41599338Y-80393232D01*
X41646956Y-80345613D01*
X41653874Y-80330775D01*
X41664400Y-80318232D01*
X41667243Y-80302104D01*
X41668637Y-80299116D01*
X41668114Y-80297165D01*
X41668923Y-80292580D01*
X41668923Y-79959247D01*
X41662259Y-79940938D01*
X41658875Y-79921747D01*
X41653690Y-79917396D01*
X41651376Y-79911038D01*
X41634502Y-79901295D01*
X41619575Y-79888770D01*
X41609832Y-79887052D01*
X41606947Y-79885386D01*
X41603664Y-79885964D01*
X41593923Y-79884247D01*
X41403447Y-79884247D01*
X41355238Y-79901794D01*
X41329586Y-79946223D01*
X41338495Y-79996747D01*
X41377795Y-80029724D01*
X41403447Y-80034247D01*
X41518923Y-80034247D01*
X41518923Y-80261514D01*
X41505790Y-80274647D01*
X41391277Y-80312819D01*
X41320379Y-80312819D01*
X41205866Y-80274648D01*
X41131753Y-80200534D01*
X41093259Y-80123546D01*
X41049876Y-79950013D01*
X41049876Y-79825623D01*
X41093259Y-79652089D01*
X41131752Y-79575103D01*
X41205865Y-79500990D01*
X41320379Y-79462819D01*
X41433361Y-79462819D01*
X41512763Y-79502520D01*
X41563729Y-79508385D01*
X41606542Y-79480119D01*
X41621169Y-79430944D01*
X41600766Y-79383873D01*
X41579845Y-79368356D01*
X41484607Y-79320737D01*
X41480153Y-79320224D01*
X41476718Y-79317342D01*
X41451066Y-79312819D01*
X41308209Y-79312819D01*
X41306671Y-79313378D01*
X41284491Y-79316668D01*
X41141635Y-79364287D01*
X41138124Y-79367073D01*
X41133656Y-79367464D01*
X41112319Y-79382405D01*
X41017081Y-79477643D01*
X41016390Y-79479124D01*
X41003032Y-79497135D01*
X40955413Y-79592373D01*
X40955006Y-79595901D01*
X40949734Y-79607724D01*
X40902115Y-79798200D01*
X40902475Y-79801648D01*
X40899876Y-79816390D01*
X40899876Y-79959247D01*
X40475914Y-79959247D01*
X40532226Y-79931091D01*
X40533351Y-79929901D01*
X40551718Y-79917042D01*
X40599337Y-79869423D01*
X40600028Y-79867941D01*
X40613386Y-79849931D01*
X40661005Y-79754693D01*
X40661517Y-79750239D01*
X40664400Y-79746804D01*
X40668923Y-79721152D01*
X40668923Y-79578295D01*
X40667389Y-79574081D01*
X40668431Y-79569720D01*
X40661005Y-79544754D01*
X40613386Y-79449516D01*
X40612196Y-79448390D01*
X40599337Y-79430024D01*
X40551718Y-79382405D01*
X40550236Y-79381714D01*
X40532226Y-79368356D01*
X40436988Y-79320737D01*
X40432534Y-79320224D01*
X40429099Y-79317342D01*
X40403447Y-79312819D01*
X40022495Y-79312819D01*
X40004186Y-79319482D01*
X39984995Y-79322867D01*
X39980644Y-79328051D01*
X39974286Y-79330366D01*
X39964543Y-79347239D01*
X39952018Y-79362167D01*
X39950300Y-79371909D01*
X39948634Y-79374795D01*
X39949212Y-79378077D01*
X39947495Y-79387819D01*
X39947495Y-80387819D01*
X39097495Y-80387819D01*
X39097495Y-79986628D01*
X39403447Y-79986628D01*
X39407660Y-79985094D01*
X39412021Y-79986136D01*
X39436988Y-79978710D01*
X39532226Y-79931091D01*
X39533351Y-79929901D01*
X39551718Y-79917042D01*
X39599337Y-79869423D01*
X39600028Y-79867941D01*
X39613386Y-79849931D01*
X39661005Y-79754693D01*
X39661517Y-79750239D01*
X39664400Y-79746804D01*
X39668923Y-79721152D01*
X39668923Y-79578295D01*
X39667389Y-79574081D01*
X39668431Y-79569720D01*
X39661005Y-79544754D01*
X39613386Y-79449516D01*
X39612196Y-79448390D01*
X39599337Y-79430024D01*
X39551718Y-79382405D01*
X39550236Y-79381714D01*
X39532226Y-79368356D01*
X39436988Y-79320737D01*
X39432534Y-79320224D01*
X39429099Y-79317342D01*
X39403447Y-79312819D01*
X39022495Y-79312819D01*
X39004186Y-79319482D01*
X38984995Y-79322867D01*
X38980644Y-79328051D01*
X38974286Y-79330366D01*
X38964543Y-79347239D01*
X38952018Y-79362167D01*
X38950300Y-79371909D01*
X38948634Y-79374795D01*
X38949212Y-79378077D01*
X38947495Y-79387819D01*
X38947495Y-80387819D01*
X38804638Y-80387819D01*
X38804638Y-79169962D01*
X41811780Y-79169962D01*
X41811780Y-80605676D01*
G37*
D12*
G36*
X38855311Y-82822009D02*
G01*
X38853126Y-82832062D01*
X38848279Y-82851849D01*
X38842799Y-82871213D01*
X38836685Y-82890154D01*
X38829938Y-82908670D01*
X38818629Y-82935651D01*
X38805895Y-82961678D01*
X38791736Y-82986753D01*
X38776151Y-83010874D01*
X38759141Y-83034043D01*
X38740705Y-83056258D01*
X38720844Y-83077520D01*
X38706812Y-83091165D01*
X38692380Y-83104178D01*
X38670426Y-83122125D01*
X38648102Y-83138182D01*
X38625409Y-83152350D01*
X38602346Y-83164629D01*
X38578915Y-83175018D01*
X38555114Y-83183519D01*
X38530944Y-83190131D01*
X38506405Y-83194854D01*
X38481496Y-83197687D01*
X38456219Y-83198632D01*
X38442833Y-83198408D01*
X38417447Y-83196622D01*
X38393908Y-83193050D01*
X38372216Y-83187692D01*
X38352372Y-83180548D01*
X38334374Y-83171618D01*
X38314474Y-83157944D01*
X38297461Y-83141479D01*
X38291568Y-83134165D01*
X38279242Y-83114394D01*
X38270350Y-83092501D01*
X38265709Y-83073457D01*
X38263267Y-83053055D01*
X38263023Y-83031295D01*
X38264976Y-83008176D01*
X38269129Y-82983698D01*
X38272250Y-82970169D01*
X38277877Y-82950663D01*
X38284638Y-82932102D01*
X38295415Y-82908822D01*
X38308207Y-82887222D01*
X38323015Y-82867301D01*
X38339837Y-82849059D01*
X38358674Y-82832496D01*
X38379526Y-82817613D01*
X38390763Y-82810751D01*
X38408542Y-82801289D01*
X38427428Y-82792822D01*
X38447423Y-82785352D01*
X38468524Y-82778878D01*
X38490734Y-82773399D01*
X38514051Y-82768917D01*
X38538476Y-82765431D01*
X38564008Y-82762941D01*
X38590648Y-82761447D01*
X38618396Y-82760949D01*
X38868012Y-82760949D01*
X38855311Y-82822009D01*
G37*
G36*
X47426997Y-82229812D02*
G01*
X47449805Y-82231575D01*
X47471436Y-82234849D01*
X47491891Y-82239635D01*
X47511169Y-82245932D01*
X47529271Y-82253740D01*
X47551578Y-82266502D01*
X47571792Y-82281950D01*
X47589916Y-82300085D01*
X47602136Y-82315450D01*
X47609534Y-82326410D01*
X47619293Y-82343652D01*
X47627446Y-82361856D01*
X47633993Y-82381021D01*
X47638935Y-82401148D01*
X47642271Y-82422237D01*
X47644001Y-82444288D01*
X47644126Y-82467300D01*
X47642644Y-82491274D01*
X47639557Y-82516210D01*
X47634865Y-82542107D01*
X47010092Y-82542107D01*
X47016946Y-82523455D01*
X47027971Y-82496514D01*
X47039889Y-82470819D01*
X47052701Y-82446368D01*
X47066405Y-82423163D01*
X47081002Y-82401202D01*
X47096493Y-82380487D01*
X47112876Y-82361017D01*
X47130152Y-82342791D01*
X47148322Y-82325811D01*
X47167384Y-82310076D01*
X47180529Y-82300316D01*
X47200769Y-82286856D01*
X47221636Y-82274814D01*
X47243130Y-82264188D01*
X47265251Y-82254979D01*
X47287998Y-82247186D01*
X47311373Y-82240811D01*
X47335374Y-82235852D01*
X47360002Y-82232310D01*
X47385257Y-82230185D01*
X47411138Y-82229476D01*
X47426997Y-82229812D01*
G37*
G36*
X56795875Y-83796977D02*
G01*
X35780833Y-83796977D01*
X35780833Y-83480000D01*
X36066547Y-83480000D01*
X36584341Y-83480000D01*
X36655449Y-83138376D01*
X37766547Y-83138376D01*
X37767736Y-83162774D01*
X37770196Y-83186523D01*
X37773926Y-83209623D01*
X37778927Y-83232074D01*
X37785200Y-83253876D01*
X37792742Y-83275030D01*
X37801556Y-83295535D01*
X37811641Y-83315391D01*
X37822996Y-83334599D01*
X37835622Y-83353157D01*
X37849519Y-83371067D01*
X37864573Y-83388044D01*
X37880546Y-83403925D01*
X37897439Y-83418712D01*
X37915251Y-83432403D01*
X37933984Y-83444998D01*
X37953636Y-83456499D01*
X37974207Y-83466904D01*
X37995699Y-83476214D01*
X38018110Y-83484428D01*
X38041441Y-83491548D01*
X38065691Y-83497572D01*
X38090862Y-83502500D01*
X38116952Y-83506334D01*
X38143962Y-83509072D01*
X38171891Y-83510715D01*
X38200741Y-83511263D01*
X38211511Y-83511197D01*
X38232829Y-83510674D01*
X38253849Y-83509629D01*
X38274572Y-83508060D01*
X38294996Y-83505969D01*
X38315124Y-83503355D01*
X38334953Y-83500218D01*
X38354485Y-83496558D01*
X38373719Y-83492375D01*
X38402012Y-83485121D01*
X38429635Y-83476690D01*
X38456589Y-83467083D01*
X38482873Y-83456300D01*
X38508487Y-83444340D01*
X38533780Y-83431001D01*
X38558919Y-83416262D01*
X38575592Y-83405658D01*
X38592197Y-83394432D01*
X38608733Y-83382585D01*
X38625200Y-83370115D01*
X38641599Y-83357023D01*
X38657929Y-83343309D01*
X38674190Y-83328973D01*
X38690383Y-83314015D01*
X38706506Y-83298435D01*
X38722562Y-83282233D01*
X38738548Y-83265409D01*
X38754466Y-83247963D01*
X38770315Y-83229895D01*
X38718535Y-83480000D01*
X39203602Y-83480000D01*
X39680852Y-83480000D01*
X40164453Y-83480000D01*
X40319792Y-82733593D01*
X40322593Y-82720409D01*
X40328520Y-82694614D01*
X40334878Y-82669587D01*
X40341667Y-82645327D01*
X40348887Y-82621834D01*
X40356539Y-82599108D01*
X40364622Y-82577149D01*
X40373136Y-82555957D01*
X40382082Y-82535532D01*
X40391458Y-82515874D01*
X40401266Y-82496984D01*
X40411505Y-82478860D01*
X40422176Y-82461503D01*
X40433277Y-82444914D01*
X40444810Y-82429092D01*
X40462918Y-82406796D01*
X40475525Y-82392896D01*
X40495001Y-82373726D01*
X40515155Y-82356574D01*
X40535988Y-82341440D01*
X40557499Y-82328324D01*
X40579688Y-82317226D01*
X40602556Y-82308145D01*
X40626102Y-82301083D01*
X40650327Y-82296038D01*
X40675229Y-82293011D01*
X40700810Y-82292002D01*
X40707600Y-82292073D01*
X40733153Y-82293779D01*
X40756143Y-82297760D01*
X40776568Y-82304015D01*
X40794428Y-82312544D01*
X40813147Y-82326404D01*
X40827859Y-82343819D01*
X40838563Y-82364787D01*
X40840225Y-82369481D01*
X40845309Y-82391768D01*
X40847478Y-82412170D01*
X40848240Y-82435732D01*
X40847593Y-82462453D01*
X40846379Y-82482023D01*
X40844540Y-82502998D01*
X40842074Y-82525376D01*
X40838983Y-82549159D01*
X40835266Y-82574347D01*
X40830923Y-82600939D01*
X40825954Y-82628935D01*
X40820360Y-82658336D01*
X40814139Y-82689141D01*
X40649519Y-83480000D01*
X41133120Y-83480000D01*
X41287970Y-82735059D01*
X41291011Y-82721694D01*
X41297388Y-82695560D01*
X41304158Y-82670220D01*
X41311322Y-82645674D01*
X41318878Y-82621921D01*
X41326827Y-82598962D01*
X41335170Y-82576797D01*
X41343905Y-82555426D01*
X41353034Y-82534848D01*
X41362555Y-82515065D01*
X41372470Y-82496075D01*
X41382778Y-82477879D01*
X41393479Y-82460476D01*
X41404573Y-82443868D01*
X41416060Y-82428053D01*
X41434027Y-82405819D01*
X41446453Y-82392037D01*
X41465664Y-82373030D01*
X41485563Y-82356024D01*
X41506148Y-82341019D01*
X41527420Y-82328015D01*
X41549379Y-82317011D01*
X41572025Y-82308008D01*
X41595357Y-82301005D01*
X41619377Y-82296004D01*
X41644084Y-82293003D01*
X41669478Y-82292002D01*
X41675940Y-82292073D01*
X41700368Y-82293779D01*
X41722522Y-82297760D01*
X41742401Y-82304015D01*
X41760005Y-82312544D01*
X41778812Y-82326404D01*
X41794066Y-82343819D01*
X41805765Y-82364787D01*
X41812795Y-82384250D01*
X41817763Y-82406491D01*
X41820671Y-82431511D01*
X41821500Y-82452099D01*
X41821169Y-82474249D01*
X41819680Y-82497963D01*
X41817031Y-82523239D01*
X41813223Y-82550078D01*
X41808255Y-82578480D01*
X41804300Y-82598283D01*
X41801234Y-82612899D01*
X41796984Y-82632750D01*
X41792576Y-82652505D01*
X41788347Y-82670043D01*
X41783295Y-82689141D01*
X41618675Y-83480000D01*
X42102276Y-83480000D01*
X42600531Y-83480000D01*
X43081690Y-83480000D01*
X43581411Y-83480000D01*
X44099205Y-83480000D01*
X45472827Y-83480000D01*
X45953986Y-83480000D01*
X46067547Y-82933901D01*
X46455475Y-82933901D01*
X46455919Y-82954075D01*
X46456874Y-82973921D01*
X46460314Y-83012624D01*
X46465796Y-83050010D01*
X46473320Y-83086080D01*
X46482886Y-83120833D01*
X46494493Y-83154269D01*
X46508142Y-83186389D01*
X46523833Y-83217192D01*
X46541565Y-83246679D01*
X46561339Y-83274849D01*
X46583155Y-83301702D01*
X46606931Y-83327079D01*
X46632462Y-83350818D01*
X46659748Y-83372920D01*
X46688790Y-83393385D01*
X46719588Y-83412213D01*
X46752141Y-83429403D01*
X46786449Y-83444956D01*
X46822513Y-83458872D01*
X46841203Y-83465217D01*
X46860333Y-83471151D01*
X46879901Y-83476677D01*
X46899908Y-83481793D01*
X46920353Y-83486500D01*
X46941238Y-83490798D01*
X46962562Y-83494686D01*
X46984324Y-83498165D01*
X47006525Y-83501235D01*
X47029165Y-83503895D01*
X47052244Y-83506146D01*
X47075762Y-83507988D01*
X47099719Y-83509421D01*
X47124115Y-83510444D01*
X47148949Y-83511058D01*
X47174223Y-83511263D01*
X47195619Y-83511140D01*
X47217065Y-83510774D01*
X47238560Y-83510163D01*
X47260105Y-83509309D01*
X47281699Y-83508210D01*
X47303343Y-83506866D01*
X47325037Y-83505279D01*
X47346780Y-83503447D01*
X47368573Y-83501371D01*
X47390416Y-83499050D01*
X47412308Y-83496486D01*
X47434250Y-83493677D01*
X47456241Y-83490624D01*
X47478282Y-83487327D01*
X47500373Y-83483785D01*
X47522513Y-83480000D01*
X48141913Y-83480000D01*
X48651404Y-83480000D01*
X49086156Y-82995910D01*
X49324537Y-83480000D01*
X49834027Y-83480000D01*
X51133399Y-83480000D01*
X51651194Y-83480000D01*
X53046309Y-83480000D01*
X53564104Y-83480000D01*
X55029073Y-83480000D01*
X56432004Y-83480000D01*
X56510161Y-83104842D01*
X56053427Y-83104842D01*
X56404160Y-81416636D01*
X55912255Y-81416636D01*
X55426700Y-81510425D01*
X55349031Y-81885582D01*
X55837028Y-81791793D01*
X55563965Y-83104842D01*
X55107230Y-83104842D01*
X55029073Y-83480000D01*
X53564104Y-83480000D01*
X53746309Y-82604633D01*
X54572339Y-82604633D01*
X54656847Y-82198213D01*
X53830817Y-82198213D01*
X53908487Y-81823056D01*
X54787272Y-81823056D01*
X54871780Y-81416636D01*
X53475200Y-81416636D01*
X53046309Y-83480000D01*
X51651194Y-83480000D01*
X51833399Y-82604633D01*
X52659429Y-82604633D01*
X52743937Y-82198213D01*
X51917907Y-82198213D01*
X51995577Y-81823056D01*
X52874362Y-81823056D01*
X52958870Y-81416636D01*
X51562290Y-81416636D01*
X51133399Y-83480000D01*
X49834027Y-83480000D01*
X49428096Y-82693538D01*
X50125653Y-81948108D01*
X49616163Y-81948108D01*
X49209743Y-82402400D01*
X48996763Y-81948108D01*
X48487272Y-81948108D01*
X48874642Y-82696468D01*
X48141913Y-83480000D01*
X47522513Y-83480000D01*
X47544701Y-83475912D01*
X47566935Y-83471588D01*
X47589214Y-83467028D01*
X47611540Y-83462231D01*
X47633911Y-83457197D01*
X47656328Y-83451927D01*
X47678790Y-83446420D01*
X47701299Y-83440676D01*
X47723853Y-83434696D01*
X47746453Y-83428480D01*
X47769099Y-83422026D01*
X47791791Y-83415336D01*
X47814528Y-83408410D01*
X47837312Y-83401246D01*
X47860141Y-83393847D01*
X47883016Y-83386210D01*
X47961173Y-83011053D01*
X47937739Y-83022653D01*
X47914454Y-83033882D01*
X47891318Y-83044742D01*
X47868330Y-83055231D01*
X47845492Y-83065350D01*
X47822802Y-83075098D01*
X47800261Y-83084477D01*
X47777869Y-83093485D01*
X47755626Y-83102123D01*
X47733531Y-83110391D01*
X47711586Y-83118289D01*
X47689789Y-83125817D01*
X47668141Y-83132974D01*
X47646642Y-83139762D01*
X47625292Y-83146179D01*
X47604090Y-83152226D01*
X47593573Y-83155081D01*
X47572637Y-83160519D01*
X47551831Y-83165595D01*
X47531154Y-83170308D01*
X47510607Y-83174658D01*
X47490190Y-83178646D01*
X47469903Y-83182272D01*
X47449745Y-83185535D01*
X47429717Y-83188435D01*
X47409819Y-83190973D01*
X47390050Y-83193148D01*
X47370412Y-83194961D01*
X47341197Y-83197000D01*
X47312274Y-83198224D01*
X47283644Y-83198632D01*
X47271988Y-83198548D01*
X47249270Y-83197876D01*
X47227341Y-83196533D01*
X47206203Y-83194518D01*
X47185854Y-83191831D01*
X47166296Y-83188473D01*
X47138439Y-83182176D01*
X47112360Y-83174368D01*
X47088059Y-83165048D01*
X47065534Y-83154218D01*
X47044787Y-83141876D01*
X47025818Y-83128023D01*
X47008626Y-83112658D01*
X46998168Y-83101576D01*
X46984018Y-83083693D01*
X46971715Y-83064298D01*
X46961258Y-83043393D01*
X46952647Y-83020976D01*
X46945882Y-82997047D01*
X46940963Y-82971608D01*
X46937891Y-82944657D01*
X46936664Y-82916195D01*
X46936872Y-82896381D01*
X46937901Y-82875895D01*
X46939750Y-82854738D01*
X48064732Y-82854738D01*
X48094530Y-82710635D01*
X48098994Y-82688184D01*
X48102983Y-82666018D01*
X48106497Y-82644137D01*
X48109536Y-82622539D01*
X48112099Y-82601226D01*
X48114188Y-82580197D01*
X48115801Y-82559453D01*
X48116939Y-82538993D01*
X48117602Y-82518817D01*
X48117790Y-82498926D01*
X48116741Y-82459996D01*
X48113791Y-82422203D01*
X48108940Y-82385547D01*
X48102189Y-82350029D01*
X48093538Y-82315648D01*
X48082986Y-82282404D01*
X48070533Y-82250298D01*
X48056180Y-82219329D01*
X48039926Y-82189497D01*
X48021772Y-82160802D01*
X48001718Y-82133244D01*
X47979982Y-82107040D01*
X47956785Y-82082526D01*
X47932126Y-82059703D01*
X47906005Y-82038570D01*
X47878423Y-82019128D01*
X47849379Y-82001376D01*
X47818873Y-81985315D01*
X47786906Y-81970945D01*
X47753477Y-81958265D01*
X47718587Y-81947276D01*
X47682235Y-81937978D01*
X47644421Y-81930370D01*
X47624966Y-81927200D01*
X47605145Y-81924453D01*
X47584960Y-81922128D01*
X47564408Y-81920227D01*
X47543492Y-81918747D01*
X47522210Y-81917691D01*
X47500562Y-81917057D01*
X47478549Y-81916845D01*
X47454336Y-81917053D01*
X47430363Y-81917677D01*
X47406629Y-81918717D01*
X47383134Y-81920173D01*
X47359879Y-81922045D01*
X47336864Y-81924333D01*
X47314088Y-81927037D01*
X47291551Y-81930157D01*
X47269254Y-81933692D01*
X47247196Y-81937644D01*
X47225378Y-81942012D01*
X47203799Y-81946796D01*
X47182460Y-81951995D01*
X47161360Y-81957611D01*
X47140500Y-81963643D01*
X47119879Y-81970090D01*
X47099497Y-81976954D01*
X47079355Y-81984233D01*
X47059453Y-81991929D01*
X47039790Y-82000040D01*
X47020367Y-82008568D01*
X47001182Y-82017511D01*
X46982238Y-82026871D01*
X46963533Y-82036646D01*
X46945067Y-82046838D01*
X46926841Y-82057445D01*
X46908854Y-82068469D01*
X46891107Y-82079908D01*
X46873599Y-82091763D01*
X46856331Y-82104035D01*
X46839302Y-82116722D01*
X46822513Y-82129825D01*
X46806059Y-82143291D01*
X46789973Y-82157066D01*
X46774257Y-82171150D01*
X46758911Y-82185543D01*
X46743933Y-82200245D01*
X46729325Y-82215257D01*
X46715086Y-82230577D01*
X46701216Y-82246207D01*
X46687715Y-82262146D01*
X46674584Y-82278393D01*
X46661822Y-82294950D01*
X46649429Y-82311816D01*
X46637405Y-82328992D01*
X46625751Y-82346476D01*
X46614465Y-82364270D01*
X46603549Y-82382372D01*
X46593003Y-82400784D01*
X46582825Y-82419505D01*
X46573017Y-82438535D01*
X46563578Y-82457874D01*
X46554508Y-82477522D01*
X46545807Y-82497479D01*
X46537476Y-82517746D01*
X46529513Y-82538321D01*
X46528137Y-82542107D01*
X46521920Y-82559206D01*
X46514697Y-82580400D01*
X46507842Y-82601903D01*
X46501357Y-82623715D01*
X46495241Y-82645836D01*
X46489494Y-82668266D01*
X46484116Y-82691005D01*
X46479108Y-82714054D01*
X46474447Y-82737520D01*
X46470298Y-82760657D01*
X46466658Y-82783464D01*
X46463530Y-82805943D01*
X46460911Y-82828092D01*
X46458803Y-82849912D01*
X46457205Y-82871403D01*
X46456118Y-82892565D01*
X46455542Y-82913398D01*
X46455475Y-82933901D01*
X46067547Y-82933901D01*
X46396065Y-81354110D01*
X45914907Y-81354110D01*
X45472827Y-83480000D01*
X44099205Y-83480000D01*
X44281411Y-82604633D01*
X45107440Y-82604633D01*
X45191948Y-82198213D01*
X44365919Y-82198213D01*
X44443588Y-81823056D01*
X45322374Y-81823056D01*
X45406882Y-81416636D01*
X44010301Y-81416636D01*
X43581411Y-83480000D01*
X43081690Y-83480000D01*
X43400182Y-81948108D01*
X42919024Y-81948108D01*
X42600531Y-83480000D01*
X42102276Y-83480000D01*
X42294251Y-82556273D01*
X42301719Y-82517835D01*
X42307883Y-82480558D01*
X42312741Y-82444440D01*
X42316294Y-82409483D01*
X42318541Y-82375686D01*
X42319484Y-82343049D01*
X42319122Y-82311572D01*
X42317454Y-82281256D01*
X42314481Y-82252099D01*
X42310203Y-82224103D01*
X42304620Y-82197267D01*
X42297731Y-82171591D01*
X42289538Y-82147075D01*
X42280039Y-82123719D01*
X42269235Y-82101523D01*
X42257126Y-82080488D01*
X42243809Y-82060672D01*
X42229259Y-82042134D01*
X42213477Y-82024875D01*
X42196462Y-82008894D01*
X42178214Y-81994192D01*
X42158734Y-81980768D01*
X42138021Y-81968623D01*
X42116076Y-81957756D01*
X42092897Y-81948168D01*
X42068486Y-81939858D01*
X42042843Y-81932826D01*
X42015967Y-81927073D01*
X41987858Y-81922598D01*
X41958516Y-81919402D01*
X41927942Y-81917485D01*
X41896135Y-81916845D01*
X41886741Y-81916916D01*
X41858667Y-81917983D01*
X41830756Y-81920328D01*
X41803008Y-81923953D01*
X41775423Y-81928858D01*
X41748002Y-81935041D01*
X41720743Y-81942505D01*
X41693648Y-81951247D01*
X41666716Y-81961269D01*
X41639947Y-81972571D01*
X41622192Y-81980816D01*
X41604509Y-81989630D01*
X41587005Y-81998987D01*
X41569666Y-82008864D01*
X41552491Y-82019259D01*
X41535480Y-82030174D01*
X41518633Y-82041608D01*
X41501950Y-82053560D01*
X41485431Y-82066032D01*
X41469076Y-82079023D01*
X41452886Y-82092532D01*
X41436859Y-82106561D01*
X41420997Y-82121109D01*
X41405298Y-82136175D01*
X41389764Y-82151761D01*
X41374394Y-82167866D01*
X41359188Y-82184490D01*
X41344146Y-82201632D01*
X41339599Y-82185014D01*
X41331755Y-82160967D01*
X41322683Y-82137977D01*
X41312384Y-82116042D01*
X41300856Y-82095164D01*
X41288100Y-82075341D01*
X41274117Y-82056575D01*
X41258906Y-82038865D01*
X41242467Y-82022211D01*
X41224800Y-82006614D01*
X41205905Y-81992072D01*
X41192696Y-81982963D01*
X41172126Y-81970400D01*
X41150645Y-81959160D01*
X41128253Y-81949243D01*
X41104952Y-81940648D01*
X41080741Y-81933375D01*
X41055619Y-81927424D01*
X41029587Y-81922796D01*
X41002645Y-81919490D01*
X40974793Y-81917506D01*
X40946030Y-81916845D01*
X40928790Y-81917091D01*
X40903080Y-81918384D01*
X40877551Y-81920784D01*
X40852201Y-81924291D01*
X40827032Y-81928907D01*
X40802044Y-81934630D01*
X40777235Y-81941460D01*
X40752608Y-81949399D01*
X40728160Y-81958445D01*
X40703893Y-81968599D01*
X40679806Y-81979860D01*
X40663918Y-81987918D01*
X40640273Y-82000914D01*
X40616852Y-82015000D01*
X40593654Y-82030177D01*
X40570679Y-82046445D01*
X40547927Y-82063803D01*
X40525398Y-82082251D01*
X40510503Y-82095156D01*
X40495707Y-82108545D01*
X40481011Y-82122420D01*
X40466414Y-82136778D01*
X40451915Y-82151622D01*
X40437517Y-82166950D01*
X40482946Y-81948108D01*
X39999345Y-81948108D01*
X39680852Y-83480000D01*
X39203602Y-83480000D01*
X39390203Y-82582651D01*
X39394566Y-82560800D01*
X39398496Y-82539333D01*
X39401993Y-82518248D01*
X39405056Y-82497548D01*
X39407687Y-82477231D01*
X39409884Y-82457297D01*
X39412979Y-82418581D01*
X39414341Y-82381399D01*
X39413971Y-82345751D01*
X39411868Y-82311637D01*
X39408033Y-82279057D01*
X39402465Y-82248012D01*
X39395164Y-82218500D01*
X39386131Y-82190523D01*
X39375366Y-82164080D01*
X39362867Y-82139171D01*
X39348636Y-82115796D01*
X39332673Y-82093956D01*
X39314976Y-82073649D01*
X39295405Y-82054661D01*
X39273814Y-82036898D01*
X39250204Y-82020360D01*
X39224576Y-82005047D01*
X39196929Y-81990960D01*
X39167263Y-81978097D01*
X39135578Y-81966459D01*
X39101875Y-81956046D01*
X39066152Y-81946859D01*
X39028411Y-81938896D01*
X39008783Y-81935374D01*
X38988651Y-81932158D01*
X38968014Y-81929249D01*
X38946872Y-81926646D01*
X38925225Y-81924349D01*
X38903074Y-81922358D01*
X38880418Y-81920673D01*
X38857258Y-81919295D01*
X38833592Y-81918223D01*
X38809422Y-81917458D01*
X38784748Y-81916998D01*
X38759568Y-81916845D01*
X38749826Y-81916861D01*
X38720558Y-81917097D01*
X38701013Y-81917412D01*
X38681441Y-81917853D01*
X38661842Y-81918419D01*
X38642217Y-81919112D01*
X38622565Y-81919931D01*
X38602886Y-81920875D01*
X38583181Y-81921946D01*
X38563449Y-81923142D01*
X38543690Y-81924465D01*
X38523904Y-81925913D01*
X38504092Y-81927487D01*
X38484253Y-81929187D01*
X38464387Y-81931013D01*
X38444495Y-81932965D01*
X38424643Y-81934978D01*
X38404775Y-81937110D01*
X38384892Y-81939360D01*
X38364994Y-81941728D01*
X38345080Y-81944214D01*
X38325152Y-81946818D01*
X38305208Y-81949541D01*
X38285249Y-81952383D01*
X38265274Y-81955342D01*
X38245284Y-81958420D01*
X38225279Y-81961616D01*
X38205259Y-81964931D01*
X38185224Y-81968363D01*
X38165173Y-81971914D01*
X38145107Y-81975584D01*
X38125025Y-81979371D01*
X38046868Y-82354528D01*
X38062791Y-82346835D01*
X38086855Y-82335752D01*
X38111134Y-82325219D01*
X38135627Y-82315236D01*
X38160336Y-82305802D01*
X38185258Y-82296918D01*
X38210396Y-82288583D01*
X38235748Y-82280798D01*
X38261315Y-82273562D01*
X38287096Y-82266876D01*
X38313092Y-82260739D01*
X38330615Y-82256953D01*
X38357120Y-82251733D01*
X38383892Y-82247062D01*
X38410930Y-82242940D01*
X38438234Y-82239368D01*
X38465805Y-82236345D01*
X38493641Y-82233872D01*
X38521744Y-82231949D01*
X38550113Y-82230575D01*
X38578748Y-82229751D01*
X38607649Y-82229476D01*
X38631028Y-82229678D01*
X38653536Y-82230285D01*
X38675175Y-82231296D01*
X38695943Y-82232712D01*
X38715841Y-82234533D01*
X38744057Y-82238022D01*
X38770315Y-82242421D01*
X38794615Y-82247730D01*
X38816958Y-82253950D01*
X38837342Y-82261080D01*
X38855769Y-82269120D01*
X38877293Y-82281256D01*
X38882170Y-82284550D01*
X38899671Y-82298892D01*
X38913967Y-82315096D01*
X38925057Y-82333162D01*
X38932942Y-82353091D01*
X38937620Y-82374882D01*
X38939093Y-82398535D01*
X38937361Y-82424051D01*
X38933958Y-82444410D01*
X38926630Y-82479581D01*
X38642820Y-82479581D01*
X38618664Y-82479705D01*
X38594861Y-82480079D01*
X38571411Y-82480701D01*
X38548313Y-82481573D01*
X38525569Y-82482693D01*
X38503178Y-82484063D01*
X38481140Y-82485682D01*
X38459455Y-82487549D01*
X38438123Y-82489666D01*
X38417144Y-82492031D01*
X38396517Y-82494646D01*
X38376244Y-82497510D01*
X38356324Y-82500622D01*
X38336757Y-82503984D01*
X38298682Y-82511454D01*
X38262019Y-82519921D01*
X38226768Y-82529383D01*
X38192929Y-82539842D01*
X38160502Y-82551297D01*
X38129487Y-82563747D01*
X38099884Y-82577194D01*
X38071693Y-82591637D01*
X38044914Y-82607076D01*
X38019434Y-82623520D01*
X37995142Y-82641102D01*
X37972036Y-82659821D01*
X37950117Y-82679677D01*
X37929385Y-82700670D01*
X37909840Y-82722801D01*
X37891481Y-82746069D01*
X37874310Y-82770474D01*
X37858325Y-82796016D01*
X37843528Y-82822696D01*
X37829917Y-82850513D01*
X37817493Y-82879467D01*
X37806256Y-82909559D01*
X37796206Y-82940788D01*
X37787342Y-82973154D01*
X37779666Y-83006657D01*
X37775062Y-83031295D01*
X37774501Y-83034298D01*
X37770606Y-83061291D01*
X37767982Y-83087635D01*
X37766629Y-83113330D01*
X37766547Y-83138376D01*
X36655449Y-83138376D01*
X36766547Y-82604633D01*
X37592576Y-82604633D01*
X37677084Y-82198213D01*
X36851055Y-82198213D01*
X36928724Y-81823056D01*
X37807510Y-81823056D01*
X37820511Y-81760530D01*
X42958103Y-81760530D01*
X43439261Y-81760530D01*
X43523769Y-81354110D01*
X43042611Y-81354110D01*
X42958103Y-81760530D01*
X37820511Y-81760530D01*
X37892018Y-81416636D01*
X36495437Y-81416636D01*
X36066547Y-83480000D01*
X35780833Y-83480000D01*
X35780833Y-81068396D01*
X56795875Y-81068396D01*
X56795875Y-83796977D01*
G37*
D13*
X66323247Y-71832856D02*
X66323247Y-71032856D01*
X66323247Y-71032856D02*
X67563247Y-71547142D01*
X66736580Y-70061428D02*
X67563247Y-70061428D01*
X66264200Y-70347142D02*
X67149914Y-70632856D01*
X67149914Y-70632856D02*
X67149914Y-69889999D01*
X67563247Y-69432856D02*
X66323247Y-69432856D01*
X67563247Y-68918571D02*
X66913723Y-68918571D01*
X66913723Y-68918571D02*
X66795628Y-68975713D01*
X66795628Y-68975713D02*
X66736580Y-69089999D01*
X66736580Y-69089999D02*
X66736580Y-69261428D01*
X66736580Y-69261428D02*
X66795628Y-69375713D01*
X66795628Y-69375713D02*
X66854676Y-69432856D01*
X67504200Y-67832857D02*
X67563247Y-67947142D01*
X67563247Y-67947142D02*
X67563247Y-68175714D01*
X67563247Y-68175714D02*
X67504200Y-68289999D01*
X67504200Y-68289999D02*
X67445152Y-68347142D01*
X67445152Y-68347142D02*
X67327057Y-68404285D01*
X67327057Y-68404285D02*
X66972771Y-68404285D01*
X66972771Y-68404285D02*
X66854676Y-68347142D01*
X66854676Y-68347142D02*
X66795628Y-68289999D01*
X66795628Y-68289999D02*
X66736580Y-68175714D01*
X66736580Y-68175714D02*
X66736580Y-67947142D01*
X66736580Y-67947142D02*
X66795628Y-67832857D01*
X66323247Y-66804286D02*
X66323247Y-67032857D01*
X66323247Y-67032857D02*
X66382295Y-67147143D01*
X66382295Y-67147143D02*
X66441342Y-67204286D01*
X66441342Y-67204286D02*
X66618485Y-67318571D01*
X66618485Y-67318571D02*
X66854676Y-67375714D01*
X66854676Y-67375714D02*
X67327057Y-67375714D01*
X67327057Y-67375714D02*
X67445152Y-67318571D01*
X67445152Y-67318571D02*
X67504200Y-67261428D01*
X67504200Y-67261428D02*
X67563247Y-67147143D01*
X67563247Y-67147143D02*
X67563247Y-66918571D01*
X67563247Y-66918571D02*
X67504200Y-66804286D01*
X67504200Y-66804286D02*
X67445152Y-66747143D01*
X67445152Y-66747143D02*
X67327057Y-66690000D01*
X67327057Y-66690000D02*
X67031819Y-66690000D01*
X67031819Y-66690000D02*
X66913723Y-66747143D01*
X66913723Y-66747143D02*
X66854676Y-66804286D01*
X66854676Y-66804286D02*
X66795628Y-66918571D01*
X66795628Y-66918571D02*
X66795628Y-67147143D01*
X66795628Y-67147143D02*
X66854676Y-67261428D01*
X66854676Y-67261428D02*
X66913723Y-67318571D01*
X66913723Y-67318571D02*
X67031819Y-67375714D01*
X66323247Y-66290000D02*
X66323247Y-65490000D01*
X66323247Y-65490000D02*
X67563247Y-66004286D01*
X66323247Y-64804286D02*
X66323247Y-64690000D01*
X66323247Y-64690000D02*
X66382295Y-64575714D01*
X66382295Y-64575714D02*
X66441342Y-64518572D01*
X66441342Y-64518572D02*
X66559438Y-64461429D01*
X66559438Y-64461429D02*
X66795628Y-64404286D01*
X66795628Y-64404286D02*
X67090866Y-64404286D01*
X67090866Y-64404286D02*
X67327057Y-64461429D01*
X67327057Y-64461429D02*
X67445152Y-64518572D01*
X67445152Y-64518572D02*
X67504200Y-64575714D01*
X67504200Y-64575714D02*
X67563247Y-64690000D01*
X67563247Y-64690000D02*
X67563247Y-64804286D01*
X67563247Y-64804286D02*
X67504200Y-64918572D01*
X67504200Y-64918572D02*
X67445152Y-64975714D01*
X67445152Y-64975714D02*
X67327057Y-65032857D01*
X67327057Y-65032857D02*
X67090866Y-65090000D01*
X67090866Y-65090000D02*
X66795628Y-65090000D01*
X66795628Y-65090000D02*
X66559438Y-65032857D01*
X66559438Y-65032857D02*
X66441342Y-64975714D01*
X66441342Y-64975714D02*
X66382295Y-64918572D01*
X66382295Y-64918572D02*
X66323247Y-64804286D01*
D10*
X71765239Y-83573604D02*
X71765239Y-82273604D01*
X71765239Y-82273604D02*
X72508096Y-83573604D01*
X72508096Y-83573604D02*
X72508096Y-82273604D01*
X73870001Y-83573604D02*
X73436668Y-82954557D01*
X73127144Y-83573604D02*
X73127144Y-82273604D01*
X73127144Y-82273604D02*
X73622382Y-82273604D01*
X73622382Y-82273604D02*
X73746192Y-82335509D01*
X73746192Y-82335509D02*
X73808097Y-82397414D01*
X73808097Y-82397414D02*
X73870001Y-82521223D01*
X73870001Y-82521223D02*
X73870001Y-82706938D01*
X73870001Y-82706938D02*
X73808097Y-82830747D01*
X73808097Y-82830747D02*
X73746192Y-82892652D01*
X73746192Y-82892652D02*
X73622382Y-82954557D01*
X73622382Y-82954557D02*
X73127144Y-82954557D01*
X74674763Y-82273604D02*
X74922382Y-82273604D01*
X74922382Y-82273604D02*
X75046192Y-82335509D01*
X75046192Y-82335509D02*
X75170001Y-82459319D01*
X75170001Y-82459319D02*
X75231906Y-82706938D01*
X75231906Y-82706938D02*
X75231906Y-83140271D01*
X75231906Y-83140271D02*
X75170001Y-83387890D01*
X75170001Y-83387890D02*
X75046192Y-83511700D01*
X75046192Y-83511700D02*
X74922382Y-83573604D01*
X74922382Y-83573604D02*
X74674763Y-83573604D01*
X74674763Y-83573604D02*
X74550954Y-83511700D01*
X74550954Y-83511700D02*
X74427144Y-83387890D01*
X74427144Y-83387890D02*
X74365240Y-83140271D01*
X74365240Y-83140271D02*
X74365240Y-82706938D01*
X74365240Y-82706938D02*
X74427144Y-82459319D01*
X74427144Y-82459319D02*
X74550954Y-82335509D01*
X74550954Y-82335509D02*
X74674763Y-82273604D01*
X75789049Y-83573604D02*
X75789049Y-82273604D01*
X75789049Y-82273604D02*
X76222383Y-83202176D01*
X76222383Y-83202176D02*
X76655716Y-82273604D01*
X76655716Y-82273604D02*
X76655716Y-83573604D01*
X79193811Y-82211700D02*
X78079525Y-83883128D01*
X80617620Y-82273604D02*
X80617620Y-83325985D01*
X80617620Y-83325985D02*
X80679525Y-83449795D01*
X80679525Y-83449795D02*
X80741430Y-83511700D01*
X80741430Y-83511700D02*
X80865239Y-83573604D01*
X80865239Y-83573604D02*
X81112858Y-83573604D01*
X81112858Y-83573604D02*
X81236668Y-83511700D01*
X81236668Y-83511700D02*
X81298573Y-83449795D01*
X81298573Y-83449795D02*
X81360477Y-83325985D01*
X81360477Y-83325985D02*
X81360477Y-82273604D01*
X81979525Y-83573604D02*
X81979525Y-82273604D01*
X81979525Y-82273604D02*
X82722382Y-83573604D01*
X82722382Y-83573604D02*
X82722382Y-82273604D01*
X84084287Y-83573604D02*
X83650954Y-82954557D01*
X83341430Y-83573604D02*
X83341430Y-82273604D01*
X83341430Y-82273604D02*
X83836668Y-82273604D01*
X83836668Y-82273604D02*
X83960478Y-82335509D01*
X83960478Y-82335509D02*
X84022383Y-82397414D01*
X84022383Y-82397414D02*
X84084287Y-82521223D01*
X84084287Y-82521223D02*
X84084287Y-82706938D01*
X84084287Y-82706938D02*
X84022383Y-82830747D01*
X84022383Y-82830747D02*
X83960478Y-82892652D01*
X83960478Y-82892652D02*
X83836668Y-82954557D01*
X83836668Y-82954557D02*
X83341430Y-82954557D01*
X84889049Y-82273604D02*
X85136668Y-82273604D01*
X85136668Y-82273604D02*
X85260478Y-82335509D01*
X85260478Y-82335509D02*
X85384287Y-82459319D01*
X85384287Y-82459319D02*
X85446192Y-82706938D01*
X85446192Y-82706938D02*
X85446192Y-83140271D01*
X85446192Y-83140271D02*
X85384287Y-83387890D01*
X85384287Y-83387890D02*
X85260478Y-83511700D01*
X85260478Y-83511700D02*
X85136668Y-83573604D01*
X85136668Y-83573604D02*
X84889049Y-83573604D01*
X84889049Y-83573604D02*
X84765240Y-83511700D01*
X84765240Y-83511700D02*
X84641430Y-83387890D01*
X84641430Y-83387890D02*
X84579526Y-83140271D01*
X84579526Y-83140271D02*
X84579526Y-82706938D01*
X84579526Y-82706938D02*
X84641430Y-82459319D01*
X84641430Y-82459319D02*
X84765240Y-82335509D01*
X84765240Y-82335509D02*
X84889049Y-82273604D01*
X86003335Y-83573604D02*
X86003335Y-82273604D01*
X86003335Y-82273604D02*
X86436669Y-83202176D01*
X86436669Y-83202176D02*
X86870002Y-82273604D01*
X86870002Y-82273604D02*
X86870002Y-83573604D01*
X89408097Y-82211700D02*
X88293811Y-83883128D01*
X90831906Y-82273604D02*
X90831906Y-83325985D01*
X90831906Y-83325985D02*
X90893811Y-83449795D01*
X90893811Y-83449795D02*
X90955716Y-83511700D01*
X90955716Y-83511700D02*
X91079525Y-83573604D01*
X91079525Y-83573604D02*
X91327144Y-83573604D01*
X91327144Y-83573604D02*
X91450954Y-83511700D01*
X91450954Y-83511700D02*
X91512859Y-83449795D01*
X91512859Y-83449795D02*
X91574763Y-83325985D01*
X91574763Y-83325985D02*
X91574763Y-82273604D01*
X92193811Y-83573604D02*
X92193811Y-82273604D01*
X92193811Y-82273604D02*
X92936668Y-83573604D01*
X92936668Y-83573604D02*
X92936668Y-82273604D01*
X94298573Y-83573604D02*
X93865240Y-82954557D01*
X93555716Y-83573604D02*
X93555716Y-82273604D01*
X93555716Y-82273604D02*
X94050954Y-82273604D01*
X94050954Y-82273604D02*
X94174764Y-82335509D01*
X94174764Y-82335509D02*
X94236669Y-82397414D01*
X94236669Y-82397414D02*
X94298573Y-82521223D01*
X94298573Y-82521223D02*
X94298573Y-82706938D01*
X94298573Y-82706938D02*
X94236669Y-82830747D01*
X94236669Y-82830747D02*
X94174764Y-82892652D01*
X94174764Y-82892652D02*
X94050954Y-82954557D01*
X94050954Y-82954557D02*
X93555716Y-82954557D01*
X95103335Y-82273604D02*
X95350954Y-82273604D01*
X95350954Y-82273604D02*
X95474764Y-82335509D01*
X95474764Y-82335509D02*
X95598573Y-82459319D01*
X95598573Y-82459319D02*
X95660478Y-82706938D01*
X95660478Y-82706938D02*
X95660478Y-83140271D01*
X95660478Y-83140271D02*
X95598573Y-83387890D01*
X95598573Y-83387890D02*
X95474764Y-83511700D01*
X95474764Y-83511700D02*
X95350954Y-83573604D01*
X95350954Y-83573604D02*
X95103335Y-83573604D01*
X95103335Y-83573604D02*
X94979526Y-83511700D01*
X94979526Y-83511700D02*
X94855716Y-83387890D01*
X94855716Y-83387890D02*
X94793812Y-83140271D01*
X94793812Y-83140271D02*
X94793812Y-82706938D01*
X94793812Y-82706938D02*
X94855716Y-82459319D01*
X94855716Y-82459319D02*
X94979526Y-82335509D01*
X94979526Y-82335509D02*
X95103335Y-82273604D01*
X96217621Y-83573604D02*
X96217621Y-82273604D01*
X96217621Y-82273604D02*
X96650955Y-83202176D01*
X96650955Y-83202176D02*
X97084288Y-82273604D01*
X97084288Y-82273604D02*
X97084288Y-83573604D01*
X99312859Y-82273604D02*
X98693811Y-82273604D01*
X98693811Y-82273604D02*
X98631907Y-82892652D01*
X98631907Y-82892652D02*
X98693811Y-82830747D01*
X98693811Y-82830747D02*
X98817621Y-82768842D01*
X98817621Y-82768842D02*
X99127145Y-82768842D01*
X99127145Y-82768842D02*
X99250954Y-82830747D01*
X99250954Y-82830747D02*
X99312859Y-82892652D01*
X99312859Y-82892652D02*
X99374764Y-83016461D01*
X99374764Y-83016461D02*
X99374764Y-83325985D01*
X99374764Y-83325985D02*
X99312859Y-83449795D01*
X99312859Y-83449795D02*
X99250954Y-83511700D01*
X99250954Y-83511700D02*
X99127145Y-83573604D01*
X99127145Y-83573604D02*
X98817621Y-83573604D01*
X98817621Y-83573604D02*
X98693811Y-83511700D01*
X98693811Y-83511700D02*
X98631907Y-83449795D01*
X100612859Y-83573604D02*
X99870002Y-83573604D01*
X100241430Y-83573604D02*
X100241430Y-82273604D01*
X100241430Y-82273604D02*
X100117621Y-82459319D01*
X100117621Y-82459319D02*
X99993811Y-82583128D01*
X99993811Y-82583128D02*
X99870002Y-82645033D01*
X101108097Y-82397414D02*
X101170001Y-82335509D01*
X101170001Y-82335509D02*
X101293811Y-82273604D01*
X101293811Y-82273604D02*
X101603335Y-82273604D01*
X101603335Y-82273604D02*
X101727144Y-82335509D01*
X101727144Y-82335509D02*
X101789049Y-82397414D01*
X101789049Y-82397414D02*
X101850954Y-82521223D01*
X101850954Y-82521223D02*
X101850954Y-82645033D01*
X101850954Y-82645033D02*
X101789049Y-82830747D01*
X101789049Y-82830747D02*
X101046192Y-83573604D01*
X101046192Y-83573604D02*
X101850954Y-83573604D01*
X104141429Y-83449795D02*
X104079525Y-83511700D01*
X104079525Y-83511700D02*
X103893810Y-83573604D01*
X103893810Y-83573604D02*
X103770001Y-83573604D01*
X103770001Y-83573604D02*
X103584287Y-83511700D01*
X103584287Y-83511700D02*
X103460477Y-83387890D01*
X103460477Y-83387890D02*
X103398572Y-83264080D01*
X103398572Y-83264080D02*
X103336668Y-83016461D01*
X103336668Y-83016461D02*
X103336668Y-82830747D01*
X103336668Y-82830747D02*
X103398572Y-82583128D01*
X103398572Y-82583128D02*
X103460477Y-82459319D01*
X103460477Y-82459319D02*
X103584287Y-82335509D01*
X103584287Y-82335509D02*
X103770001Y-82273604D01*
X103770001Y-82273604D02*
X103893810Y-82273604D01*
X103893810Y-82273604D02*
X104079525Y-82335509D01*
X104079525Y-82335509D02*
X104141429Y-82397414D01*
X104884287Y-83573604D02*
X104760477Y-83511700D01*
X104760477Y-83511700D02*
X104698572Y-83449795D01*
X104698572Y-83449795D02*
X104636668Y-83325985D01*
X104636668Y-83325985D02*
X104636668Y-82954557D01*
X104636668Y-82954557D02*
X104698572Y-82830747D01*
X104698572Y-82830747D02*
X104760477Y-82768842D01*
X104760477Y-82768842D02*
X104884287Y-82706938D01*
X104884287Y-82706938D02*
X105070001Y-82706938D01*
X105070001Y-82706938D02*
X105193810Y-82768842D01*
X105193810Y-82768842D02*
X105255715Y-82830747D01*
X105255715Y-82830747D02*
X105317620Y-82954557D01*
X105317620Y-82954557D02*
X105317620Y-83325985D01*
X105317620Y-83325985D02*
X105255715Y-83449795D01*
X105255715Y-83449795D02*
X105193810Y-83511700D01*
X105193810Y-83511700D02*
X105070001Y-83573604D01*
X105070001Y-83573604D02*
X104884287Y-83573604D01*
X105874762Y-83573604D02*
X105874762Y-82706938D01*
X105874762Y-82830747D02*
X105936667Y-82768842D01*
X105936667Y-82768842D02*
X106060477Y-82706938D01*
X106060477Y-82706938D02*
X106246191Y-82706938D01*
X106246191Y-82706938D02*
X106370000Y-82768842D01*
X106370000Y-82768842D02*
X106431905Y-82892652D01*
X106431905Y-82892652D02*
X106431905Y-83573604D01*
X106431905Y-82892652D02*
X106493810Y-82768842D01*
X106493810Y-82768842D02*
X106617619Y-82706938D01*
X106617619Y-82706938D02*
X106803334Y-82706938D01*
X106803334Y-82706938D02*
X106927143Y-82768842D01*
X106927143Y-82768842D02*
X106989048Y-82892652D01*
X106989048Y-82892652D02*
X106989048Y-83573604D01*
X107608095Y-82706938D02*
X107608095Y-84006938D01*
X107608095Y-82768842D02*
X107731905Y-82706938D01*
X107731905Y-82706938D02*
X107979524Y-82706938D01*
X107979524Y-82706938D02*
X108103333Y-82768842D01*
X108103333Y-82768842D02*
X108165238Y-82830747D01*
X108165238Y-82830747D02*
X108227143Y-82954557D01*
X108227143Y-82954557D02*
X108227143Y-83325985D01*
X108227143Y-83325985D02*
X108165238Y-83449795D01*
X108165238Y-83449795D02*
X108103333Y-83511700D01*
X108103333Y-83511700D02*
X107979524Y-83573604D01*
X107979524Y-83573604D02*
X107731905Y-83573604D01*
X107731905Y-83573604D02*
X107608095Y-83511700D01*
X109341428Y-83573604D02*
X109341428Y-82892652D01*
X109341428Y-82892652D02*
X109279523Y-82768842D01*
X109279523Y-82768842D02*
X109155714Y-82706938D01*
X109155714Y-82706938D02*
X108908095Y-82706938D01*
X108908095Y-82706938D02*
X108784285Y-82768842D01*
X109341428Y-83511700D02*
X109217619Y-83573604D01*
X109217619Y-83573604D02*
X108908095Y-83573604D01*
X108908095Y-83573604D02*
X108784285Y-83511700D01*
X108784285Y-83511700D02*
X108722381Y-83387890D01*
X108722381Y-83387890D02*
X108722381Y-83264080D01*
X108722381Y-83264080D02*
X108784285Y-83140271D01*
X108784285Y-83140271D02*
X108908095Y-83078366D01*
X108908095Y-83078366D02*
X109217619Y-83078366D01*
X109217619Y-83078366D02*
X109341428Y-83016461D01*
X109774761Y-82706938D02*
X110269999Y-82706938D01*
X109960475Y-82273604D02*
X109960475Y-83387890D01*
X109960475Y-83387890D02*
X110022380Y-83511700D01*
X110022380Y-83511700D02*
X110146190Y-83573604D01*
X110146190Y-83573604D02*
X110269999Y-83573604D01*
X110703332Y-83573604D02*
X110703332Y-82706938D01*
X110703332Y-82273604D02*
X110641428Y-82335509D01*
X110641428Y-82335509D02*
X110703332Y-82397414D01*
X110703332Y-82397414D02*
X110765237Y-82335509D01*
X110765237Y-82335509D02*
X110703332Y-82273604D01*
X110703332Y-82273604D02*
X110703332Y-82397414D01*
X111322380Y-83573604D02*
X111322380Y-82273604D01*
X111322380Y-82768842D02*
X111446190Y-82706938D01*
X111446190Y-82706938D02*
X111693809Y-82706938D01*
X111693809Y-82706938D02*
X111817618Y-82768842D01*
X111817618Y-82768842D02*
X111879523Y-82830747D01*
X111879523Y-82830747D02*
X111941428Y-82954557D01*
X111941428Y-82954557D02*
X111941428Y-83325985D01*
X111941428Y-83325985D02*
X111879523Y-83449795D01*
X111879523Y-83449795D02*
X111817618Y-83511700D01*
X111817618Y-83511700D02*
X111693809Y-83573604D01*
X111693809Y-83573604D02*
X111446190Y-83573604D01*
X111446190Y-83573604D02*
X111322380Y-83511700D01*
X112684285Y-83573604D02*
X112560475Y-83511700D01*
X112560475Y-83511700D02*
X112498570Y-83387890D01*
X112498570Y-83387890D02*
X112498570Y-82273604D01*
X113674760Y-83511700D02*
X113550951Y-83573604D01*
X113550951Y-83573604D02*
X113303332Y-83573604D01*
X113303332Y-83573604D02*
X113179522Y-83511700D01*
X113179522Y-83511700D02*
X113117618Y-83387890D01*
X113117618Y-83387890D02*
X113117618Y-82892652D01*
X113117618Y-82892652D02*
X113179522Y-82768842D01*
X113179522Y-82768842D02*
X113303332Y-82706938D01*
X113303332Y-82706938D02*
X113550951Y-82706938D01*
X113550951Y-82706938D02*
X113674760Y-82768842D01*
X113674760Y-82768842D02*
X113736665Y-82892652D01*
X113736665Y-82892652D02*
X113736665Y-83016461D01*
X113736665Y-83016461D02*
X113117618Y-83140271D01*
G36*
X55090618Y-79561123D02*
G01*
X55090618Y-80039847D01*
X55052675Y-80058819D01*
X54897609Y-80058819D01*
X54829093Y-80024561D01*
X54798686Y-79994153D01*
X54764428Y-79925637D01*
X54764428Y-79675332D01*
X54798685Y-79606817D01*
X54829092Y-79576410D01*
X54897609Y-79542152D01*
X55052675Y-79542152D01*
X55090618Y-79561123D01*
G37*
G36*
X54204954Y-79570672D02*
G01*
X54233475Y-79627714D01*
X54233475Y-79643762D01*
X53907285Y-79708999D01*
X53907285Y-79627713D01*
X53935805Y-79570672D01*
X53992847Y-79542152D01*
X54147913Y-79542152D01*
X54204954Y-79570672D01*
G37*
G36*
X57264049Y-79576410D02*
G01*
X57294456Y-79606817D01*
X57328714Y-79675332D01*
X57328714Y-79925637D01*
X57294455Y-79994153D01*
X57264048Y-80024561D01*
X57195533Y-80058819D01*
X57088086Y-80058819D01*
X57019570Y-80024561D01*
X56989163Y-79994153D01*
X56954905Y-79925637D01*
X56954905Y-79675332D01*
X56989163Y-79606817D01*
X57019570Y-79576409D01*
X57088086Y-79542152D01*
X57195533Y-79542152D01*
X57264049Y-79576410D01*
G37*
G36*
X53311666Y-79243077D02*
G01*
X53342073Y-79273484D01*
X53376332Y-79342000D01*
X53376332Y-79449447D01*
X53342073Y-79517963D01*
X53311667Y-79548369D01*
X53243151Y-79582628D01*
X52954904Y-79582628D01*
X52954904Y-79208819D01*
X53243151Y-79208819D01*
X53311666Y-79243077D01*
G37*
G36*
X57621571Y-80685009D02*
G01*
X52662047Y-80685009D01*
X52662047Y-80133819D01*
X52804904Y-80133819D01*
X52822451Y-80182028D01*
X52866880Y-80207680D01*
X52917404Y-80198771D01*
X52950381Y-80159471D01*
X52954904Y-80133819D01*
X52954904Y-79732628D01*
X53078950Y-79732628D01*
X53389890Y-80176829D01*
X53431911Y-80206261D01*
X53483019Y-80201797D01*
X53519301Y-80165525D01*
X53523780Y-80114418D01*
X53512775Y-80090810D01*
X53442881Y-79990961D01*
X53757285Y-79990961D01*
X53758818Y-79995173D01*
X53757776Y-79999535D01*
X53765203Y-80024502D01*
X53812822Y-80119741D01*
X53820975Y-80127460D01*
X53825442Y-80137765D01*
X53846363Y-80153282D01*
X53941601Y-80200901D01*
X53946054Y-80201413D01*
X53949490Y-80204296D01*
X53975142Y-80208819D01*
X54165618Y-80208819D01*
X54169831Y-80207285D01*
X54174192Y-80208327D01*
X54199159Y-80200901D01*
X54294397Y-80153282D01*
X54329669Y-80116028D01*
X54332744Y-80064818D01*
X54302180Y-80023612D01*
X54252281Y-80011692D01*
X54227315Y-80019118D01*
X54147913Y-80058819D01*
X53992847Y-80058819D01*
X53935805Y-80030298D01*
X53907285Y-79973256D01*
X53907285Y-79943342D01*
X54614428Y-79943342D01*
X54615961Y-79947555D01*
X54614920Y-79951916D01*
X54622346Y-79976883D01*
X54669965Y-80072121D01*
X54671153Y-80073246D01*
X54684013Y-80091612D01*
X54731632Y-80139232D01*
X54733113Y-80139922D01*
X54751125Y-80153282D01*
X54846363Y-80200901D01*
X54850816Y-80201413D01*
X54854252Y-80204296D01*
X54879904Y-80208819D01*
X55070380Y-80208819D01*
X55074593Y-80207285D01*
X55078954Y-80208327D01*
X55090618Y-80204857D01*
X55090618Y-80258971D01*
X55056360Y-80327486D01*
X55025952Y-80357894D01*
X54957437Y-80392152D01*
X54849990Y-80392152D01*
X54770588Y-80352451D01*
X54719621Y-80346586D01*
X54676808Y-80374852D01*
X54662182Y-80424027D01*
X54682585Y-80471098D01*
X54703506Y-80486615D01*
X54798744Y-80534234D01*
X54803197Y-80534746D01*
X54806633Y-80537629D01*
X54832285Y-80542152D01*
X54975142Y-80542152D01*
X54979355Y-80540618D01*
X54983716Y-80541660D01*
X55008683Y-80534234D01*
X55103921Y-80486615D01*
X55105046Y-80485425D01*
X55123413Y-80472566D01*
X55171032Y-80424947D01*
X55171723Y-80423465D01*
X55185081Y-80405455D01*
X55232700Y-80310217D01*
X55233212Y-80305763D01*
X55236095Y-80302328D01*
X55240618Y-80276676D01*
X55240618Y-79990961D01*
X56328714Y-79990961D01*
X56330247Y-79995173D01*
X56329205Y-79999535D01*
X56336632Y-80024502D01*
X56384251Y-80119741D01*
X56392404Y-80127460D01*
X56396871Y-80137765D01*
X56417792Y-80153282D01*
X56513030Y-80200901D01*
X56563996Y-80206766D01*
X56606809Y-80178500D01*
X56621436Y-80129325D01*
X56601033Y-80082254D01*
X56580112Y-80066737D01*
X56507234Y-80030298D01*
X56478714Y-79973256D01*
X56478714Y-79943342D01*
X56804905Y-79943342D01*
X56806438Y-79947555D01*
X56805397Y-79951916D01*
X56812823Y-79976883D01*
X56860442Y-80072121D01*
X56861630Y-80073246D01*
X56874490Y-80091612D01*
X56922109Y-80139232D01*
X56923590Y-80139922D01*
X56941602Y-80153282D01*
X57036840Y-80200901D01*
X57041293Y-80201413D01*
X57044729Y-80204296D01*
X57070381Y-80208819D01*
X57213238Y-80208819D01*
X57217451Y-80207285D01*
X57221812Y-80208327D01*
X57246779Y-80200901D01*
X57342017Y-80153282D01*
X57343141Y-80152094D01*
X57361510Y-80139232D01*
X57409128Y-80091613D01*
X57409818Y-80090131D01*
X57423177Y-80072121D01*
X57470796Y-79976883D01*
X57471308Y-79972429D01*
X57474191Y-79968994D01*
X57478714Y-79943342D01*
X57478714Y-79657628D01*
X57477180Y-79653414D01*
X57478222Y-79649053D01*
X57470796Y-79624087D01*
X57423177Y-79528849D01*
X57421987Y-79527723D01*
X57409128Y-79509357D01*
X57361509Y-79461738D01*
X57360027Y-79461047D01*
X57342017Y-79447689D01*
X57246779Y-79400070D01*
X57242325Y-79399557D01*
X57238890Y-79396675D01*
X57213238Y-79392152D01*
X57070381Y-79392152D01*
X57066167Y-79393685D01*
X57061806Y-79392644D01*
X57036840Y-79400070D01*
X56941602Y-79447689D01*
X56940476Y-79448878D01*
X56922110Y-79461738D01*
X56874491Y-79509357D01*
X56873800Y-79510838D01*
X56860442Y-79528849D01*
X56812823Y-79624087D01*
X56812310Y-79628540D01*
X56809428Y-79631976D01*
X56804905Y-79657628D01*
X56804905Y-79943342D01*
X56478714Y-79943342D01*
X56478714Y-79133819D01*
X56461167Y-79085610D01*
X56416738Y-79059958D01*
X56366214Y-79068867D01*
X56333237Y-79108167D01*
X56328714Y-79133819D01*
X56328714Y-79990961D01*
X55240618Y-79990961D01*
X55240618Y-79467152D01*
X55223071Y-79418943D01*
X55178642Y-79393291D01*
X55128118Y-79402200D01*
X55122225Y-79409222D01*
X55103921Y-79400070D01*
X55099467Y-79399557D01*
X55096032Y-79396675D01*
X55070380Y-79392152D01*
X54879904Y-79392152D01*
X54875690Y-79393685D01*
X54871329Y-79392644D01*
X54846363Y-79400070D01*
X54751125Y-79447689D01*
X54749999Y-79448878D01*
X54731633Y-79461738D01*
X54684014Y-79509357D01*
X54683323Y-79510838D01*
X54669965Y-79528849D01*
X54622346Y-79624087D01*
X54621833Y-79628540D01*
X54618951Y-79631976D01*
X54614428Y-79657628D01*
X54614428Y-79943342D01*
X53907285Y-79943342D01*
X53907285Y-79861970D01*
X54323183Y-79778791D01*
X54333770Y-79772351D01*
X54345975Y-79770199D01*
X54355009Y-79759432D01*
X54367015Y-79752130D01*
X54370985Y-79740392D01*
X54378952Y-79730899D01*
X54383475Y-79705247D01*
X54383475Y-79610009D01*
X54381941Y-79605795D01*
X54382983Y-79601434D01*
X54375557Y-79576468D01*
X54327938Y-79481230D01*
X54319784Y-79473510D01*
X54315318Y-79463206D01*
X54294397Y-79447689D01*
X54199159Y-79400070D01*
X54194705Y-79399557D01*
X54191270Y-79396675D01*
X54165618Y-79392152D01*
X53975142Y-79392152D01*
X53970928Y-79393685D01*
X53966567Y-79392644D01*
X53941601Y-79400070D01*
X53846363Y-79447689D01*
X53838643Y-79455842D01*
X53828339Y-79460309D01*
X53812822Y-79481230D01*
X53765203Y-79576468D01*
X53764690Y-79580921D01*
X53761808Y-79584357D01*
X53757285Y-79610009D01*
X53757285Y-79990961D01*
X53442881Y-79990961D01*
X53261805Y-79732282D01*
X53265069Y-79731094D01*
X53269430Y-79732136D01*
X53294397Y-79724710D01*
X53389635Y-79677091D01*
X53390760Y-79675901D01*
X53409127Y-79663042D01*
X53456746Y-79615423D01*
X53457437Y-79613941D01*
X53470795Y-79595931D01*
X53518414Y-79500693D01*
X53518926Y-79496239D01*
X53521809Y-79492804D01*
X53526332Y-79467152D01*
X53526332Y-79324295D01*
X53524798Y-79320081D01*
X53525840Y-79315720D01*
X53518414Y-79290754D01*
X53470795Y-79195516D01*
X53469605Y-79194390D01*
X53456746Y-79176024D01*
X53409127Y-79128405D01*
X53407645Y-79127714D01*
X53389635Y-79114356D01*
X53294397Y-79066737D01*
X53289943Y-79066224D01*
X53286508Y-79063342D01*
X53260856Y-79058819D01*
X52879904Y-79058819D01*
X52861595Y-79065482D01*
X52842404Y-79068867D01*
X52838053Y-79074051D01*
X52831695Y-79076366D01*
X52821952Y-79093239D01*
X52809427Y-79108167D01*
X52807709Y-79117909D01*
X52806043Y-79120795D01*
X52806621Y-79124077D01*
X52804904Y-79133819D01*
X52804904Y-80133819D01*
X52662047Y-80133819D01*
X52662047Y-78915962D01*
X57621571Y-78915962D01*
X57621571Y-80685009D01*
G37*
D14*
X72950667Y-75181852D02*
X73217334Y-75181852D01*
X73050667Y-74848519D02*
X73050667Y-75705661D01*
X73050667Y-75705661D02*
X73084001Y-75800900D01*
X73084001Y-75800900D02*
X73150667Y-75848519D01*
X73150667Y-75848519D02*
X73217334Y-75848519D01*
X73450667Y-75848519D02*
X73450667Y-74848519D01*
X73750667Y-75848519D02*
X73750667Y-75324709D01*
X73750667Y-75324709D02*
X73717334Y-75229471D01*
X73717334Y-75229471D02*
X73650667Y-75181852D01*
X73650667Y-75181852D02*
X73550667Y-75181852D01*
X73550667Y-75181852D02*
X73484001Y-75229471D01*
X73484001Y-75229471D02*
X73450667Y-75277090D01*
X74084000Y-75848519D02*
X74084000Y-75181852D01*
X74084000Y-74848519D02*
X74050667Y-74896138D01*
X74050667Y-74896138D02*
X74084000Y-74943757D01*
X74084000Y-74943757D02*
X74117334Y-74896138D01*
X74117334Y-74896138D02*
X74084000Y-74848519D01*
X74084000Y-74848519D02*
X74084000Y-74943757D01*
X74384000Y-75800900D02*
X74450667Y-75848519D01*
X74450667Y-75848519D02*
X74584000Y-75848519D01*
X74584000Y-75848519D02*
X74650667Y-75800900D01*
X74650667Y-75800900D02*
X74684000Y-75705661D01*
X74684000Y-75705661D02*
X74684000Y-75658042D01*
X74684000Y-75658042D02*
X74650667Y-75562804D01*
X74650667Y-75562804D02*
X74584000Y-75515185D01*
X74584000Y-75515185D02*
X74484000Y-75515185D01*
X74484000Y-75515185D02*
X74417333Y-75467566D01*
X74417333Y-75467566D02*
X74384000Y-75372328D01*
X74384000Y-75372328D02*
X74384000Y-75324709D01*
X74384000Y-75324709D02*
X74417333Y-75229471D01*
X74417333Y-75229471D02*
X74484000Y-75181852D01*
X74484000Y-75181852D02*
X74584000Y-75181852D01*
X74584000Y-75181852D02*
X74650667Y-75229471D01*
X75484000Y-75800900D02*
X75550667Y-75848519D01*
X75550667Y-75848519D02*
X75684000Y-75848519D01*
X75684000Y-75848519D02*
X75750667Y-75800900D01*
X75750667Y-75800900D02*
X75784000Y-75705661D01*
X75784000Y-75705661D02*
X75784000Y-75658042D01*
X75784000Y-75658042D02*
X75750667Y-75562804D01*
X75750667Y-75562804D02*
X75684000Y-75515185D01*
X75684000Y-75515185D02*
X75584000Y-75515185D01*
X75584000Y-75515185D02*
X75517333Y-75467566D01*
X75517333Y-75467566D02*
X75484000Y-75372328D01*
X75484000Y-75372328D02*
X75484000Y-75324709D01*
X75484000Y-75324709D02*
X75517333Y-75229471D01*
X75517333Y-75229471D02*
X75584000Y-75181852D01*
X75584000Y-75181852D02*
X75684000Y-75181852D01*
X75684000Y-75181852D02*
X75750667Y-75229471D01*
X76084000Y-75848519D02*
X76084000Y-75181852D01*
X76084000Y-74848519D02*
X76050667Y-74896138D01*
X76050667Y-74896138D02*
X76084000Y-74943757D01*
X76084000Y-74943757D02*
X76117334Y-74896138D01*
X76117334Y-74896138D02*
X76084000Y-74848519D01*
X76084000Y-74848519D02*
X76084000Y-74943757D01*
X76717333Y-75848519D02*
X76717333Y-74848519D01*
X76717333Y-75800900D02*
X76650667Y-75848519D01*
X76650667Y-75848519D02*
X76517333Y-75848519D01*
X76517333Y-75848519D02*
X76450667Y-75800900D01*
X76450667Y-75800900D02*
X76417333Y-75753280D01*
X76417333Y-75753280D02*
X76384000Y-75658042D01*
X76384000Y-75658042D02*
X76384000Y-75372328D01*
X76384000Y-75372328D02*
X76417333Y-75277090D01*
X76417333Y-75277090D02*
X76450667Y-75229471D01*
X76450667Y-75229471D02*
X76517333Y-75181852D01*
X76517333Y-75181852D02*
X76650667Y-75181852D01*
X76650667Y-75181852D02*
X76717333Y-75229471D01*
X77317333Y-75800900D02*
X77250666Y-75848519D01*
X77250666Y-75848519D02*
X77117333Y-75848519D01*
X77117333Y-75848519D02*
X77050666Y-75800900D01*
X77050666Y-75800900D02*
X77017333Y-75705661D01*
X77017333Y-75705661D02*
X77017333Y-75324709D01*
X77017333Y-75324709D02*
X77050666Y-75229471D01*
X77050666Y-75229471D02*
X77117333Y-75181852D01*
X77117333Y-75181852D02*
X77250666Y-75181852D01*
X77250666Y-75181852D02*
X77317333Y-75229471D01*
X77317333Y-75229471D02*
X77350666Y-75324709D01*
X77350666Y-75324709D02*
X77350666Y-75419947D01*
X77350666Y-75419947D02*
X77017333Y-75515185D01*
X74000667Y-76791852D02*
X74267334Y-76791852D01*
X74100667Y-77458519D02*
X74100667Y-76601376D01*
X74100667Y-76601376D02*
X74134001Y-76506138D01*
X74134001Y-76506138D02*
X74200667Y-76458519D01*
X74200667Y-76458519D02*
X74267334Y-76458519D01*
X74500667Y-77458519D02*
X74500667Y-76791852D01*
X74500667Y-76982328D02*
X74534001Y-76887090D01*
X74534001Y-76887090D02*
X74567334Y-76839471D01*
X74567334Y-76839471D02*
X74634001Y-76791852D01*
X74634001Y-76791852D02*
X74700667Y-76791852D01*
X75034000Y-77458519D02*
X74967334Y-77410900D01*
X74967334Y-77410900D02*
X74934000Y-77363280D01*
X74934000Y-77363280D02*
X74900667Y-77268042D01*
X74900667Y-77268042D02*
X74900667Y-76982328D01*
X74900667Y-76982328D02*
X74934000Y-76887090D01*
X74934000Y-76887090D02*
X74967334Y-76839471D01*
X74967334Y-76839471D02*
X75034000Y-76791852D01*
X75034000Y-76791852D02*
X75134000Y-76791852D01*
X75134000Y-76791852D02*
X75200667Y-76839471D01*
X75200667Y-76839471D02*
X75234000Y-76887090D01*
X75234000Y-76887090D02*
X75267334Y-76982328D01*
X75267334Y-76982328D02*
X75267334Y-77268042D01*
X75267334Y-77268042D02*
X75234000Y-77363280D01*
X75234000Y-77363280D02*
X75200667Y-77410900D01*
X75200667Y-77410900D02*
X75134000Y-77458519D01*
X75134000Y-77458519D02*
X75034000Y-77458519D01*
X75567333Y-76791852D02*
X75567333Y-77458519D01*
X75567333Y-76887090D02*
X75600667Y-76839471D01*
X75600667Y-76839471D02*
X75667333Y-76791852D01*
X75667333Y-76791852D02*
X75767333Y-76791852D01*
X75767333Y-76791852D02*
X75834000Y-76839471D01*
X75834000Y-76839471D02*
X75867333Y-76934709D01*
X75867333Y-76934709D02*
X75867333Y-77458519D01*
X76100666Y-76791852D02*
X76367333Y-76791852D01*
X76200666Y-76458519D02*
X76200666Y-77315661D01*
X76200666Y-77315661D02*
X76234000Y-77410900D01*
X76234000Y-77410900D02*
X76300666Y-77458519D01*
X76300666Y-77458519D02*
X76367333Y-77458519D01*
D11*
X85508571Y-67596662D02*
X86251428Y-67596662D01*
X86251428Y-67596662D02*
X85851428Y-68053805D01*
X85851428Y-68053805D02*
X86022857Y-68053805D01*
X86022857Y-68053805D02*
X86137143Y-68110948D01*
X86137143Y-68110948D02*
X86194285Y-68168091D01*
X86194285Y-68168091D02*
X86251428Y-68282377D01*
X86251428Y-68282377D02*
X86251428Y-68568091D01*
X86251428Y-68568091D02*
X86194285Y-68682377D01*
X86194285Y-68682377D02*
X86137143Y-68739520D01*
X86137143Y-68739520D02*
X86022857Y-68796662D01*
X86022857Y-68796662D02*
X85680000Y-68796662D01*
X85680000Y-68796662D02*
X85565714Y-68739520D01*
X85565714Y-68739520D02*
X85508571Y-68682377D01*
X86708571Y-67710948D02*
X86765714Y-67653805D01*
X86765714Y-67653805D02*
X86880000Y-67596662D01*
X86880000Y-67596662D02*
X87165714Y-67596662D01*
X87165714Y-67596662D02*
X87280000Y-67653805D01*
X87280000Y-67653805D02*
X87337142Y-67710948D01*
X87337142Y-67710948D02*
X87394285Y-67825234D01*
X87394285Y-67825234D02*
X87394285Y-67939520D01*
X87394285Y-67939520D02*
X87337142Y-68110948D01*
X87337142Y-68110948D02*
X86651428Y-68796662D01*
X86651428Y-68796662D02*
X87394285Y-68796662D01*
X87908571Y-68796662D02*
X87908571Y-67596662D01*
X88594285Y-68796662D02*
X88079999Y-68110948D01*
X88594285Y-67596662D02*
X87908571Y-68282377D01*
X84937143Y-70671520D02*
X85108572Y-70728662D01*
X85108572Y-70728662D02*
X85394286Y-70728662D01*
X85394286Y-70728662D02*
X85508572Y-70671520D01*
X85508572Y-70671520D02*
X85565714Y-70614377D01*
X85565714Y-70614377D02*
X85622857Y-70500091D01*
X85622857Y-70500091D02*
X85622857Y-70385805D01*
X85622857Y-70385805D02*
X85565714Y-70271520D01*
X85565714Y-70271520D02*
X85508572Y-70214377D01*
X85508572Y-70214377D02*
X85394286Y-70157234D01*
X85394286Y-70157234D02*
X85165714Y-70100091D01*
X85165714Y-70100091D02*
X85051429Y-70042948D01*
X85051429Y-70042948D02*
X84994286Y-69985805D01*
X84994286Y-69985805D02*
X84937143Y-69871520D01*
X84937143Y-69871520D02*
X84937143Y-69757234D01*
X84937143Y-69757234D02*
X84994286Y-69642948D01*
X84994286Y-69642948D02*
X85051429Y-69585805D01*
X85051429Y-69585805D02*
X85165714Y-69528662D01*
X85165714Y-69528662D02*
X85451429Y-69528662D01*
X85451429Y-69528662D02*
X85622857Y-69585805D01*
X86822857Y-70728662D02*
X86422857Y-70157234D01*
X86137143Y-70728662D02*
X86137143Y-69528662D01*
X86137143Y-69528662D02*
X86594286Y-69528662D01*
X86594286Y-69528662D02*
X86708571Y-69585805D01*
X86708571Y-69585805D02*
X86765714Y-69642948D01*
X86765714Y-69642948D02*
X86822857Y-69757234D01*
X86822857Y-69757234D02*
X86822857Y-69928662D01*
X86822857Y-69928662D02*
X86765714Y-70042948D01*
X86765714Y-70042948D02*
X86708571Y-70100091D01*
X86708571Y-70100091D02*
X86594286Y-70157234D01*
X86594286Y-70157234D02*
X86137143Y-70157234D01*
X87280000Y-70385805D02*
X87851429Y-70385805D01*
X87165714Y-70728662D02*
X87565714Y-69528662D01*
X87565714Y-69528662D02*
X87965714Y-70728662D01*
X88365714Y-70728662D02*
X88365714Y-69528662D01*
X88365714Y-69528662D02*
X88765714Y-70385805D01*
X88765714Y-70385805D02*
X89165714Y-69528662D01*
X89165714Y-69528662D02*
X89165714Y-70728662D01*
D10*
X57221684Y-83023152D02*
X57388350Y-83689819D01*
X57388350Y-83689819D02*
X57555017Y-83023152D01*
X57955017Y-82689819D02*
X58021683Y-82689819D01*
X58021683Y-82689819D02*
X58088350Y-82737438D01*
X58088350Y-82737438D02*
X58121683Y-82785057D01*
X58121683Y-82785057D02*
X58155017Y-82880295D01*
X58155017Y-82880295D02*
X58188350Y-83070771D01*
X58188350Y-83070771D02*
X58188350Y-83308866D01*
X58188350Y-83308866D02*
X58155017Y-83499342D01*
X58155017Y-83499342D02*
X58121683Y-83594580D01*
X58121683Y-83594580D02*
X58088350Y-83642200D01*
X58088350Y-83642200D02*
X58021683Y-83689819D01*
X58021683Y-83689819D02*
X57955017Y-83689819D01*
X57955017Y-83689819D02*
X57888350Y-83642200D01*
X57888350Y-83642200D02*
X57855017Y-83594580D01*
X57855017Y-83594580D02*
X57821683Y-83499342D01*
X57821683Y-83499342D02*
X57788350Y-83308866D01*
X57788350Y-83308866D02*
X57788350Y-83070771D01*
X57788350Y-83070771D02*
X57821683Y-82880295D01*
X57821683Y-82880295D02*
X57855017Y-82785057D01*
X57855017Y-82785057D02*
X57888350Y-82737438D01*
X57888350Y-82737438D02*
X57955017Y-82689819D01*
X58488350Y-83689819D02*
X58488350Y-82689819D01*
X58488350Y-83070771D02*
X58555017Y-83023152D01*
X58555017Y-83023152D02*
X58688350Y-83023152D01*
X58688350Y-83023152D02*
X58755017Y-83070771D01*
X58755017Y-83070771D02*
X58788350Y-83118390D01*
X58788350Y-83118390D02*
X58821684Y-83213628D01*
X58821684Y-83213628D02*
X58821684Y-83499342D01*
X58821684Y-83499342D02*
X58788350Y-83594580D01*
X58788350Y-83594580D02*
X58755017Y-83642200D01*
X58755017Y-83642200D02*
X58688350Y-83689819D01*
X58688350Y-83689819D02*
X58555017Y-83689819D01*
X58555017Y-83689819D02*
X58488350Y-83642200D01*
G36*
X66544427Y-79561123D02*
G01*
X66544427Y-80039847D01*
X66506485Y-80058819D01*
X66351419Y-80058819D01*
X66282903Y-80024561D01*
X66252496Y-79994153D01*
X66218238Y-79925637D01*
X66218238Y-79675332D01*
X66252495Y-79606817D01*
X66282902Y-79576410D01*
X66351419Y-79542152D01*
X66506485Y-79542152D01*
X66544427Y-79561123D01*
G37*
G36*
X65658764Y-79570672D02*
G01*
X65687285Y-79627714D01*
X65687285Y-79643762D01*
X65361095Y-79708999D01*
X65361095Y-79627713D01*
X65389615Y-79570672D01*
X65446657Y-79542152D01*
X65601723Y-79542152D01*
X65658764Y-79570672D01*
G37*
G36*
X64765476Y-79243077D02*
G01*
X64795883Y-79273484D01*
X64830142Y-79342000D01*
X64830142Y-79449447D01*
X64795883Y-79517963D01*
X64765477Y-79548369D01*
X64696961Y-79582628D01*
X64408714Y-79582628D01*
X64408714Y-79208819D01*
X64696961Y-79208819D01*
X64765476Y-79243077D01*
G37*
G36*
X69027476Y-80685009D02*
G01*
X64115857Y-80685009D01*
X64115857Y-80133819D01*
X64258714Y-80133819D01*
X64276261Y-80182028D01*
X64320690Y-80207680D01*
X64371214Y-80198771D01*
X64404191Y-80159471D01*
X64408714Y-80133819D01*
X64408714Y-79732628D01*
X64532760Y-79732628D01*
X64843700Y-80176829D01*
X64885721Y-80206261D01*
X64936829Y-80201797D01*
X64973111Y-80165525D01*
X64977590Y-80114418D01*
X64966585Y-80090810D01*
X64896691Y-79990961D01*
X65211095Y-79990961D01*
X65212628Y-79995173D01*
X65211586Y-79999535D01*
X65219013Y-80024502D01*
X65266632Y-80119741D01*
X65274785Y-80127460D01*
X65279252Y-80137765D01*
X65300173Y-80153282D01*
X65395411Y-80200901D01*
X65399864Y-80201413D01*
X65403300Y-80204296D01*
X65428952Y-80208819D01*
X65619428Y-80208819D01*
X65623641Y-80207285D01*
X65628002Y-80208327D01*
X65652969Y-80200901D01*
X65748207Y-80153282D01*
X65783479Y-80116028D01*
X65786554Y-80064818D01*
X65755990Y-80023612D01*
X65706091Y-80011692D01*
X65681125Y-80019118D01*
X65601723Y-80058819D01*
X65446657Y-80058819D01*
X65389615Y-80030298D01*
X65361095Y-79973256D01*
X65361095Y-79943342D01*
X66068238Y-79943342D01*
X66069771Y-79947555D01*
X66068730Y-79951916D01*
X66076156Y-79976883D01*
X66123775Y-80072121D01*
X66124963Y-80073246D01*
X66137823Y-80091612D01*
X66185442Y-80139232D01*
X66186923Y-80139922D01*
X66204935Y-80153282D01*
X66300173Y-80200901D01*
X66304626Y-80201413D01*
X66308062Y-80204296D01*
X66333714Y-80208819D01*
X66524190Y-80208819D01*
X66528403Y-80207285D01*
X66532764Y-80208327D01*
X66544428Y-80204857D01*
X66544427Y-80258971D01*
X66510169Y-80327487D01*
X66479763Y-80357893D01*
X66411247Y-80392152D01*
X66303800Y-80392152D01*
X66224398Y-80352451D01*
X66173431Y-80346586D01*
X66130618Y-80374852D01*
X66115992Y-80424027D01*
X66136395Y-80471098D01*
X66157316Y-80486615D01*
X66252554Y-80534234D01*
X66257007Y-80534746D01*
X66260443Y-80537629D01*
X66286095Y-80542152D01*
X66428952Y-80542152D01*
X66433165Y-80540618D01*
X66437526Y-80541660D01*
X66462493Y-80534234D01*
X66557731Y-80486615D01*
X66558856Y-80485425D01*
X66577223Y-80472566D01*
X66624842Y-80424947D01*
X66625533Y-80423465D01*
X66638891Y-80405455D01*
X66686510Y-80310217D01*
X66687022Y-80305763D01*
X66689905Y-80302328D01*
X66694428Y-80276676D01*
X66694428Y-80133819D01*
X67782524Y-80133819D01*
X67800071Y-80182028D01*
X67844500Y-80207680D01*
X67895024Y-80198771D01*
X67928001Y-80159471D01*
X67932524Y-80133819D01*
X67932524Y-79593456D01*
X67949569Y-79576410D01*
X68018086Y-79542152D01*
X68125533Y-79542152D01*
X68182574Y-79570672D01*
X68211095Y-79627714D01*
X68211095Y-80133819D01*
X68228642Y-80182028D01*
X68273071Y-80207680D01*
X68323595Y-80198771D01*
X68356572Y-80159471D01*
X68361095Y-80133819D01*
X68687286Y-80133819D01*
X68704833Y-80182028D01*
X68749262Y-80207680D01*
X68799786Y-80198771D01*
X68832763Y-80159471D01*
X68837286Y-80133819D01*
X68837286Y-79467152D01*
X68819739Y-79418943D01*
X68775310Y-79393291D01*
X68724786Y-79402200D01*
X68691809Y-79441500D01*
X68687286Y-79467152D01*
X68687286Y-80133819D01*
X68361095Y-80133819D01*
X68361095Y-79610009D01*
X68359561Y-79605795D01*
X68360603Y-79601434D01*
X68353177Y-79576468D01*
X68305558Y-79481230D01*
X68297404Y-79473510D01*
X68292938Y-79463206D01*
X68272017Y-79447689D01*
X68176779Y-79400070D01*
X68172325Y-79399557D01*
X68168890Y-79396675D01*
X68143238Y-79392152D01*
X68000381Y-79392152D01*
X67996167Y-79393685D01*
X67991806Y-79392644D01*
X67966840Y-79400070D01*
X67932524Y-79417228D01*
X67932524Y-79174902D01*
X68639953Y-79174902D01*
X68644995Y-79193721D01*
X68646694Y-79213134D01*
X68652367Y-79221236D01*
X68653230Y-79224456D01*
X68655960Y-79226367D01*
X68661634Y-79234471D01*
X68709253Y-79282090D01*
X68726911Y-79290323D01*
X68742875Y-79301502D01*
X68746291Y-79301203D01*
X68749262Y-79302918D01*
X68752641Y-79302322D01*
X68755749Y-79303771D01*
X68774568Y-79298728D01*
X68793982Y-79297030D01*
X68797795Y-79294360D01*
X68799786Y-79294009D01*
X68801907Y-79291480D01*
X68802084Y-79291356D01*
X68805304Y-79290494D01*
X68807215Y-79287764D01*
X68815319Y-79282090D01*
X68862938Y-79234471D01*
X68871173Y-79216810D01*
X68882349Y-79200849D01*
X68881759Y-79194107D01*
X68884619Y-79187975D01*
X68879576Y-79169153D01*
X68877878Y-79149742D01*
X68872204Y-79141639D01*
X68871342Y-79138420D01*
X68868612Y-79136508D01*
X68862938Y-79128405D01*
X68815319Y-79080786D01*
X68797658Y-79072551D01*
X68781697Y-79061375D01*
X68778281Y-79061673D01*
X68775310Y-79059958D01*
X68771929Y-79060554D01*
X68768822Y-79059105D01*
X68750000Y-79064147D01*
X68730590Y-79065846D01*
X68726776Y-79068515D01*
X68724786Y-79068867D01*
X68722664Y-79071395D01*
X68722487Y-79071519D01*
X68719268Y-79072382D01*
X68717356Y-79075112D01*
X68709253Y-79080786D01*
X68661634Y-79128405D01*
X68653400Y-79146062D01*
X68642222Y-79162027D01*
X68642812Y-79168770D01*
X68639953Y-79174902D01*
X67932524Y-79174902D01*
X67932524Y-79133819D01*
X67914977Y-79085610D01*
X67870548Y-79059958D01*
X67820024Y-79068867D01*
X67787047Y-79108167D01*
X67782524Y-79133819D01*
X67782524Y-80133819D01*
X66694428Y-80133819D01*
X66694428Y-79467152D01*
X66676881Y-79418943D01*
X66632452Y-79393291D01*
X66581928Y-79402200D01*
X66576035Y-79409222D01*
X66557731Y-79400070D01*
X66553277Y-79399557D01*
X66549842Y-79396675D01*
X66524190Y-79392152D01*
X66333714Y-79392152D01*
X66329500Y-79393685D01*
X66325139Y-79392644D01*
X66300173Y-79400070D01*
X66204935Y-79447689D01*
X66203809Y-79448878D01*
X66185443Y-79461738D01*
X66137824Y-79509357D01*
X66137133Y-79510838D01*
X66123775Y-79528849D01*
X66076156Y-79624087D01*
X66075643Y-79628540D01*
X66072761Y-79631976D01*
X66068238Y-79657628D01*
X66068238Y-79943342D01*
X65361095Y-79943342D01*
X65361095Y-79861970D01*
X65776993Y-79778791D01*
X65787580Y-79772351D01*
X65799785Y-79770199D01*
X65808819Y-79759432D01*
X65820825Y-79752130D01*
X65824795Y-79740392D01*
X65832762Y-79730899D01*
X65837285Y-79705247D01*
X65837285Y-79610009D01*
X65835751Y-79605795D01*
X65836793Y-79601434D01*
X65829367Y-79576468D01*
X65781748Y-79481230D01*
X65773594Y-79473510D01*
X65769128Y-79463206D01*
X65748207Y-79447689D01*
X65652969Y-79400070D01*
X65648515Y-79399557D01*
X65645080Y-79396675D01*
X65619428Y-79392152D01*
X65428952Y-79392152D01*
X65424738Y-79393685D01*
X65420377Y-79392644D01*
X65395411Y-79400070D01*
X65300173Y-79447689D01*
X65292453Y-79455842D01*
X65282149Y-79460309D01*
X65266632Y-79481230D01*
X65219013Y-79576468D01*
X65218500Y-79580921D01*
X65215618Y-79584357D01*
X65211095Y-79610009D01*
X65211095Y-79990961D01*
X64896691Y-79990961D01*
X64715615Y-79732282D01*
X64718879Y-79731094D01*
X64723240Y-79732136D01*
X64748207Y-79724710D01*
X64843445Y-79677091D01*
X64844570Y-79675901D01*
X64862937Y-79663042D01*
X64910556Y-79615423D01*
X64911247Y-79613941D01*
X64924605Y-79595931D01*
X64972224Y-79500693D01*
X64972736Y-79496239D01*
X64975619Y-79492804D01*
X64980142Y-79467152D01*
X64980142Y-79324295D01*
X64978608Y-79320081D01*
X64979650Y-79315720D01*
X64972224Y-79290754D01*
X64924605Y-79195516D01*
X64923415Y-79194390D01*
X64910556Y-79176024D01*
X64862937Y-79128405D01*
X64861455Y-79127714D01*
X64843445Y-79114356D01*
X64748207Y-79066737D01*
X64743753Y-79066224D01*
X64740318Y-79063342D01*
X64714666Y-79058819D01*
X64333714Y-79058819D01*
X64315405Y-79065482D01*
X64296214Y-79068867D01*
X64291863Y-79074051D01*
X64285505Y-79076366D01*
X64275762Y-79093239D01*
X64263237Y-79108167D01*
X64261519Y-79117909D01*
X64259853Y-79120795D01*
X64260431Y-79124077D01*
X64258714Y-79133819D01*
X64258714Y-80133819D01*
X64115857Y-80133819D01*
X64115857Y-78915962D01*
X69027476Y-78915962D01*
X69027476Y-80685009D01*
G37*
X72819048Y-63294819D02*
X72819048Y-62294819D01*
X73390476Y-63294819D02*
X72961905Y-62723390D01*
X73390476Y-62294819D02*
X72819048Y-62866247D01*
X73819048Y-62913866D02*
X74580953Y-62913866D01*
X39853214Y-60374819D02*
X39281786Y-60374819D01*
X39567500Y-60374819D02*
X39567500Y-59374819D01*
X39567500Y-59374819D02*
X39472262Y-59517676D01*
X39472262Y-59517676D02*
X39377024Y-59612914D01*
X39377024Y-59612914D02*
X39281786Y-59660533D01*
X31884023Y-77900819D02*
X31312595Y-77900819D01*
X31598309Y-77900819D02*
X31598309Y-76900819D01*
X31598309Y-76900819D02*
X31503071Y-77043676D01*
X31503071Y-77043676D02*
X31407833Y-77138914D01*
X31407833Y-77138914D02*
X31312595Y-77186533D01*
X32217357Y-76900819D02*
X32836404Y-76900819D01*
X32836404Y-76900819D02*
X32503071Y-77281771D01*
X32503071Y-77281771D02*
X32645928Y-77281771D01*
X32645928Y-77281771D02*
X32741166Y-77329390D01*
X32741166Y-77329390D02*
X32788785Y-77377009D01*
X32788785Y-77377009D02*
X32836404Y-77472247D01*
X32836404Y-77472247D02*
X32836404Y-77710342D01*
X32836404Y-77710342D02*
X32788785Y-77805580D01*
X32788785Y-77805580D02*
X32741166Y-77853200D01*
X32741166Y-77853200D02*
X32645928Y-77900819D01*
X32645928Y-77900819D02*
X32360214Y-77900819D01*
X32360214Y-77900819D02*
X32264976Y-77853200D01*
X32264976Y-77853200D02*
X32217357Y-77805580D01*
X32645976Y-60089152D02*
X32645976Y-60755819D01*
X32407881Y-59708200D02*
X32169786Y-60422485D01*
X32169786Y-60422485D02*
X32788833Y-60422485D01*
X46425595Y-76996057D02*
X46473214Y-76948438D01*
X46473214Y-76948438D02*
X46568452Y-76900819D01*
X46568452Y-76900819D02*
X46806547Y-76900819D01*
X46806547Y-76900819D02*
X46901785Y-76948438D01*
X46901785Y-76948438D02*
X46949404Y-76996057D01*
X46949404Y-76996057D02*
X46997023Y-77091295D01*
X46997023Y-77091295D02*
X46997023Y-77186533D01*
X46997023Y-77186533D02*
X46949404Y-77329390D01*
X46949404Y-77329390D02*
X46377976Y-77900819D01*
X46377976Y-77900819D02*
X46997023Y-77900819D01*
X47616071Y-76900819D02*
X47711309Y-76900819D01*
X47711309Y-76900819D02*
X47806547Y-76948438D01*
X47806547Y-76948438D02*
X47854166Y-76996057D01*
X47854166Y-76996057D02*
X47901785Y-77091295D01*
X47901785Y-77091295D02*
X47949404Y-77281771D01*
X47949404Y-77281771D02*
X47949404Y-77519866D01*
X47949404Y-77519866D02*
X47901785Y-77710342D01*
X47901785Y-77710342D02*
X47854166Y-77805580D01*
X47854166Y-77805580D02*
X47806547Y-77853200D01*
X47806547Y-77853200D02*
X47711309Y-77900819D01*
X47711309Y-77900819D02*
X47616071Y-77900819D01*
X47616071Y-77900819D02*
X47520833Y-77853200D01*
X47520833Y-77853200D02*
X47473214Y-77805580D01*
X47473214Y-77805580D02*
X47425595Y-77710342D01*
X47425595Y-77710342D02*
X47377976Y-77519866D01*
X47377976Y-77519866D02*
X47377976Y-77281771D01*
X47377976Y-77281771D02*
X47425595Y-77091295D01*
X47425595Y-77091295D02*
X47473214Y-76996057D01*
X47473214Y-76996057D02*
X47520833Y-76948438D01*
X47520833Y-76948438D02*
X47616071Y-76900819D01*
X46425595Y-59851057D02*
X46473214Y-59803438D01*
X46473214Y-59803438D02*
X46568452Y-59755819D01*
X46568452Y-59755819D02*
X46806547Y-59755819D01*
X46806547Y-59755819D02*
X46901785Y-59803438D01*
X46901785Y-59803438D02*
X46949404Y-59851057D01*
X46949404Y-59851057D02*
X46997023Y-59946295D01*
X46997023Y-59946295D02*
X46997023Y-60041533D01*
X46997023Y-60041533D02*
X46949404Y-60184390D01*
X46949404Y-60184390D02*
X46377976Y-60755819D01*
X46377976Y-60755819D02*
X46997023Y-60755819D01*
X47473214Y-60755819D02*
X47663690Y-60755819D01*
X47663690Y-60755819D02*
X47758928Y-60708200D01*
X47758928Y-60708200D02*
X47806547Y-60660580D01*
X47806547Y-60660580D02*
X47901785Y-60517723D01*
X47901785Y-60517723D02*
X47949404Y-60327247D01*
X47949404Y-60327247D02*
X47949404Y-59946295D01*
X47949404Y-59946295D02*
X47901785Y-59851057D01*
X47901785Y-59851057D02*
X47854166Y-59803438D01*
X47854166Y-59803438D02*
X47758928Y-59755819D01*
X47758928Y-59755819D02*
X47568452Y-59755819D01*
X47568452Y-59755819D02*
X47473214Y-59803438D01*
X47473214Y-59803438D02*
X47425595Y-59851057D01*
X47425595Y-59851057D02*
X47377976Y-59946295D01*
X47377976Y-59946295D02*
X47377976Y-60184390D01*
X47377976Y-60184390D02*
X47425595Y-60279628D01*
X47425595Y-60279628D02*
X47473214Y-60327247D01*
X47473214Y-60327247D02*
X47568452Y-60374866D01*
X47568452Y-60374866D02*
X47758928Y-60374866D01*
X47758928Y-60374866D02*
X47854166Y-60327247D01*
X47854166Y-60327247D02*
X47901785Y-60279628D01*
X47901785Y-60279628D02*
X47949404Y-60184390D01*
X111346057Y-62109404D02*
X111298438Y-62061785D01*
X111298438Y-62061785D02*
X111250819Y-61966547D01*
X111250819Y-61966547D02*
X111250819Y-61728452D01*
X111250819Y-61728452D02*
X111298438Y-61633214D01*
X111298438Y-61633214D02*
X111346057Y-61585595D01*
X111346057Y-61585595D02*
X111441295Y-61537976D01*
X111441295Y-61537976D02*
X111536533Y-61537976D01*
X111536533Y-61537976D02*
X111679390Y-61585595D01*
X111679390Y-61585595D02*
X112250819Y-62157023D01*
X112250819Y-62157023D02*
X112250819Y-61537976D01*
X111250819Y-60918928D02*
X111250819Y-60823690D01*
X111250819Y-60823690D02*
X111298438Y-60728452D01*
X111298438Y-60728452D02*
X111346057Y-60680833D01*
X111346057Y-60680833D02*
X111441295Y-60633214D01*
X111441295Y-60633214D02*
X111631771Y-60585595D01*
X111631771Y-60585595D02*
X111869866Y-60585595D01*
X111869866Y-60585595D02*
X112060342Y-60633214D01*
X112060342Y-60633214D02*
X112155580Y-60680833D01*
X112155580Y-60680833D02*
X112203200Y-60728452D01*
X112203200Y-60728452D02*
X112250819Y-60823690D01*
X112250819Y-60823690D02*
X112250819Y-60918928D01*
X112250819Y-60918928D02*
X112203200Y-61014166D01*
X112203200Y-61014166D02*
X112155580Y-61061785D01*
X112155580Y-61061785D02*
X112060342Y-61109404D01*
X112060342Y-61109404D02*
X111869866Y-61157023D01*
X111869866Y-61157023D02*
X111631771Y-61157023D01*
X111631771Y-61157023D02*
X111441295Y-61109404D01*
X111441295Y-61109404D02*
X111346057Y-61061785D01*
X111346057Y-61061785D02*
X111298438Y-61014166D01*
X111298438Y-61014166D02*
X111250819Y-60918928D01*
X94724819Y-68681785D02*
X94724819Y-69253213D01*
X94724819Y-68967499D02*
X93724819Y-68967499D01*
X93724819Y-68967499D02*
X93867676Y-69062737D01*
X93867676Y-69062737D02*
X93962914Y-69157975D01*
X93962914Y-69157975D02*
X94010533Y-69253213D01*
X94201057Y-62109404D02*
X94153438Y-62061785D01*
X94153438Y-62061785D02*
X94105819Y-61966547D01*
X94105819Y-61966547D02*
X94105819Y-61728452D01*
X94105819Y-61728452D02*
X94153438Y-61633214D01*
X94153438Y-61633214D02*
X94201057Y-61585595D01*
X94201057Y-61585595D02*
X94296295Y-61537976D01*
X94296295Y-61537976D02*
X94391533Y-61537976D01*
X94391533Y-61537976D02*
X94534390Y-61585595D01*
X94534390Y-61585595D02*
X95105819Y-62157023D01*
X95105819Y-62157023D02*
X95105819Y-61537976D01*
X95105819Y-61061785D02*
X95105819Y-60871309D01*
X95105819Y-60871309D02*
X95058200Y-60776071D01*
X95058200Y-60776071D02*
X95010580Y-60728452D01*
X95010580Y-60728452D02*
X94867723Y-60633214D01*
X94867723Y-60633214D02*
X94677247Y-60585595D01*
X94677247Y-60585595D02*
X94296295Y-60585595D01*
X94296295Y-60585595D02*
X94201057Y-60633214D01*
X94201057Y-60633214D02*
X94153438Y-60680833D01*
X94153438Y-60680833D02*
X94105819Y-60776071D01*
X94105819Y-60776071D02*
X94105819Y-60966547D01*
X94105819Y-60966547D02*
X94153438Y-61061785D01*
X94153438Y-61061785D02*
X94201057Y-61109404D01*
X94201057Y-61109404D02*
X94296295Y-61157023D01*
X94296295Y-61157023D02*
X94534390Y-61157023D01*
X94534390Y-61157023D02*
X94629628Y-61109404D01*
X94629628Y-61109404D02*
X94677247Y-61061785D01*
X94677247Y-61061785D02*
X94724866Y-60966547D01*
X94724866Y-60966547D02*
X94724866Y-60776071D01*
X94724866Y-60776071D02*
X94677247Y-60680833D01*
X94677247Y-60680833D02*
X94629628Y-60633214D01*
X94629628Y-60633214D02*
X94534390Y-60585595D01*
X112250819Y-76650976D02*
X112250819Y-77222404D01*
X112250819Y-76936690D02*
X111250819Y-76936690D01*
X111250819Y-76936690D02*
X111393676Y-77031928D01*
X111393676Y-77031928D02*
X111488914Y-77127166D01*
X111488914Y-77127166D02*
X111536533Y-77222404D01*
X111250819Y-76317642D02*
X111250819Y-75698595D01*
X111250819Y-75698595D02*
X111631771Y-76031928D01*
X111631771Y-76031928D02*
X111631771Y-75889071D01*
X111631771Y-75889071D02*
X111679390Y-75793833D01*
X111679390Y-75793833D02*
X111727009Y-75746214D01*
X111727009Y-75746214D02*
X111822247Y-75698595D01*
X111822247Y-75698595D02*
X112060342Y-75698595D01*
X112060342Y-75698595D02*
X112155580Y-75746214D01*
X112155580Y-75746214D02*
X112203200Y-75793833D01*
X112203200Y-75793833D02*
X112250819Y-75889071D01*
X112250819Y-75889071D02*
X112250819Y-76174785D01*
X112250819Y-76174785D02*
X112203200Y-76270023D01*
X112203200Y-76270023D02*
X112155580Y-76317642D01*
X94439152Y-75889023D02*
X95105819Y-75889023D01*
X94058200Y-76127118D02*
X94772485Y-76365213D01*
X94772485Y-76365213D02*
X94772485Y-75746166D01*
D15*
%TO.C,R1*%
X76841500Y-65052500D02*
X76841500Y-63147500D01*
X76841500Y-63147500D02*
X73158500Y-63147500D01*
X73158500Y-65052500D02*
X76841500Y-65052500D01*
X73158500Y-63147500D02*
X73158500Y-65052500D01*
%TO.C,D1*%
X74838450Y-62117365D02*
G75*
G03*
X74778848Y-59850001I1251550J1167365D01*
G01*
%TO.C,U4*%
X71980000Y-78790000D02*
X71980000Y-58230000D01*
X71980000Y-58230000D02*
X61700000Y-58230000D01*
X69490000Y-78730000D02*
X69490000Y-58290000D01*
X69490000Y-58290000D02*
X64190000Y-58290000D01*
X67840000Y-78730000D02*
X69490000Y-78730000D01*
X64190000Y-78730000D02*
X65840000Y-78730000D01*
X64190000Y-58290000D02*
X64190000Y-78730000D01*
X61700000Y-78790000D02*
X71980000Y-78790000D01*
X61700000Y-58230000D02*
X61700000Y-78790000D01*
X67840000Y-78730000D02*
G75*
G03*
X65840000Y-78730000I-1000000J0D01*
G01*
%TO.C,U5*%
X82180000Y-77970000D02*
X117980000Y-77970000D01*
X117980000Y-77970000D02*
X117980000Y-60070000D01*
X82240000Y-75480000D02*
X117920000Y-75480000D01*
X117920000Y-75480000D02*
X117920000Y-62560000D01*
X82240000Y-70020000D02*
X82240000Y-75480000D01*
X82240000Y-62560000D02*
X82240000Y-68020000D01*
X117920000Y-62560000D02*
X82240000Y-62560000D01*
X82180000Y-60070000D02*
X82180000Y-77970000D01*
X117980000Y-60070000D02*
X82180000Y-60070000D01*
X82240000Y-70020000D02*
G75*
G03*
X82240000Y-68020000I0J1000000D01*
G01*
%TO.C,U1*%
X30677500Y-59666000D02*
X30677500Y-78970000D01*
X30677500Y-78970000D02*
X48457500Y-78970000D01*
X31693500Y-58650000D02*
X30677500Y-59666000D01*
X32963500Y-61698000D02*
X32963500Y-76684000D01*
X32963500Y-63730000D02*
X32582500Y-63730000D01*
X32963500Y-70080000D02*
X32328500Y-70080000D01*
X32963500Y-76684000D02*
X46171500Y-76684000D01*
X33725500Y-60936000D02*
X32963500Y-61698000D01*
X37027500Y-76684000D02*
X37027500Y-77065000D01*
X38551500Y-59920000D02*
X38678500Y-59793000D01*
X38551500Y-59920000D02*
X38678500Y-60047000D01*
X39059500Y-58650000D02*
X31693500Y-58650000D01*
X39059500Y-59920000D02*
X38551500Y-59920000D01*
X39059500Y-60936000D02*
X33725500Y-60936000D01*
X43377500Y-60936000D02*
X43377500Y-60301000D01*
X43377500Y-76684000D02*
X43377500Y-77319000D01*
X46171500Y-60936000D02*
X40075500Y-60936000D01*
X46171500Y-68810000D02*
X46552500Y-68810000D01*
X46171500Y-76684000D02*
X46171500Y-60936000D01*
X48457500Y-58650000D02*
X40075500Y-58650000D01*
X48457500Y-78970000D02*
X48457500Y-58650000D01*
D16*
X39631000Y-58650000D02*
G75*
G03*
X39631000Y-58650000I-63500J0D01*
G01*
X39631000Y-60809000D02*
G75*
G03*
X39631000Y-60809000I-63500J0D01*
G01*
D15*
%TO.C,RN1*%
X80850000Y-58410000D02*
X78050000Y-58410000D01*
X78050000Y-58410000D02*
X78050000Y-81610000D01*
X80850000Y-61120000D02*
X78050000Y-61120000D01*
X80850000Y-81610000D02*
X80850000Y-58410000D01*
X78050000Y-81610000D02*
X80850000Y-81610000D01*
%TO.C,U2*%
X94016000Y-77857500D02*
X113320000Y-77857500D01*
X113320000Y-77857500D02*
X113320000Y-60077500D01*
X93000000Y-76841500D02*
X94016000Y-77857500D01*
X96048000Y-75571500D02*
X111034000Y-75571500D01*
X98080000Y-75571500D02*
X98080000Y-75952500D01*
X104430000Y-75571500D02*
X104430000Y-76206500D01*
X111034000Y-75571500D02*
X111034000Y-62363500D01*
X95286000Y-74809500D02*
X96048000Y-75571500D01*
X111034000Y-71507500D02*
X111415000Y-71507500D01*
X94270000Y-69983500D02*
X94143000Y-69856500D01*
X94270000Y-69983500D02*
X94397000Y-69856500D01*
X93000000Y-69475500D02*
X93000000Y-76841500D01*
X94270000Y-69475500D02*
X94270000Y-69983500D01*
X95286000Y-69475500D02*
X95286000Y-74809500D01*
X95286000Y-65157500D02*
X94651000Y-65157500D01*
X111034000Y-65157500D02*
X111669000Y-65157500D01*
X95286000Y-62363500D02*
X95286000Y-68459500D01*
X103160000Y-62363500D02*
X103160000Y-61982500D01*
X111034000Y-62363500D02*
X95286000Y-62363500D01*
X93000000Y-60077500D02*
X93000000Y-68459500D01*
X113320000Y-60077500D02*
X93000000Y-60077500D01*
D16*
X93063500Y-68967500D02*
G75*
G03*
X93063500Y-68967500I-63500J0D01*
G01*
X95222500Y-68967500D02*
G75*
G03*
X95222500Y-68967500I-63500J0D01*
G01*
D15*
%TO.C,U3*%
X60180000Y-78890000D02*
X60180000Y-58330000D01*
X60180000Y-58330000D02*
X49900000Y-58330000D01*
X57690000Y-78830000D02*
X57690000Y-58390000D01*
X57690000Y-58390000D02*
X52390000Y-58390000D01*
X56040000Y-78830000D02*
X57690000Y-78830000D01*
X52390000Y-78830000D02*
X54040000Y-78830000D01*
X52390000Y-58390000D02*
X52390000Y-78830000D01*
X49900000Y-78890000D02*
X60180000Y-78890000D01*
X49900000Y-58330000D02*
X49900000Y-78890000D01*
X56040000Y-78830000D02*
G75*
G03*
X54040000Y-78830000I-1000000J0D01*
G01*
%TD*%
M02*
