%TF.GenerationSoftware,KiCad,Pcbnew,7.0.7*%
%TF.CreationDate,2023-09-07T16:09:01+01:00*%
%TF.ProjectId,FamiFlex,46616d69-466c-4657-982e-6b696361645f,rev?*%
%TF.SameCoordinates,Original*%
%TF.FileFunction,Copper,L1,Top*%
%TF.FilePolarity,Positive*%
%FSLAX46Y46*%
G04 Gerber Fmt 4.6, Leading zero omitted, Abs format (unit mm)*
G04 Created by KiCad (PCBNEW 7.0.7) date 2023-09-07 16:09:01*
%MOMM*%
%LPD*%
G01*
G04 APERTURE LIST*
G04 Aperture macros list*
%AMRoundRect*
0 Rectangle with rounded corners*
0 $1 Rounding radius*
0 $2 $3 $4 $5 $6 $7 $8 $9 X,Y pos of 4 corners*
0 Add a 4 corners polygon primitive as box body*
4,1,4,$2,$3,$4,$5,$6,$7,$8,$9,$2,$3,0*
0 Add four circle primitives for the rounded corners*
1,1,$1+$1,$2,$3*
1,1,$1+$1,$4,$5*
1,1,$1+$1,$6,$7*
1,1,$1+$1,$8,$9*
0 Add four rect primitives between the rounded corners*
20,1,$1+$1,$2,$3,$4,$5,0*
20,1,$1+$1,$4,$5,$6,$7,0*
20,1,$1+$1,$6,$7,$8,$9,0*
20,1,$1+$1,$8,$9,$2,$3,0*%
G04 Aperture macros list end*
%TA.AperFunction,SMDPad,CuDef*%
%ADD10RoundRect,0.250000X0.325000X0.450000X-0.325000X0.450000X-0.325000X-0.450000X0.325000X-0.450000X0*%
%TD*%
%TA.AperFunction,ComponentPad*%
%ADD11R,2.200000X2.200000*%
%TD*%
%TA.AperFunction,ComponentPad*%
%ADD12O,2.200000X2.200000*%
%TD*%
%TA.AperFunction,ComponentPad*%
%ADD13R,1.600000X1.600000*%
%TD*%
%TA.AperFunction,ComponentPad*%
%ADD14O,1.600000X1.600000*%
%TD*%
%TA.AperFunction,SMDPad,CuDef*%
%ADD15RoundRect,0.150000X-0.150000X-0.587500X0.150000X-0.587500X0.150000X0.587500X-0.150000X0.587500X0*%
%TD*%
%TA.AperFunction,SMDPad,CuDef*%
%ADD16RoundRect,0.150000X-0.587500X-0.150000X0.587500X-0.150000X0.587500X0.150000X-0.587500X0.150000X0*%
%TD*%
%TA.AperFunction,SMDPad,CuDef*%
%ADD17R,2.600000X6.810000*%
%TD*%
%TA.AperFunction,SMDPad,CuDef*%
%ADD18R,1.600000X6.820000*%
%TD*%
%TA.AperFunction,SMDPad,CuDef*%
%ADD19R,1.620000X6.820000*%
%TD*%
%TA.AperFunction,SMDPad,CuDef*%
%ADD20R,1.560000X6.820000*%
%TD*%
%TA.AperFunction,SMDPad,CuDef*%
%ADD21R,1.580000X6.820000*%
%TD*%
%TA.AperFunction,SMDPad,CuDef*%
%ADD22R,2.600000X6.820000*%
%TD*%
%TA.AperFunction,SMDPad,CuDef*%
%ADD23RoundRect,0.150000X0.587500X-0.150000X0.587500X0.150000X-0.587500X0.150000X-0.587500X-0.150000X0*%
%TD*%
%TA.AperFunction,SMDPad,CuDef*%
%ADD24RoundRect,0.150000X0.150000X-0.587500X0.150000X0.587500X-0.150000X0.587500X-0.150000X-0.587500X0*%
%TD*%
%TA.AperFunction,ViaPad*%
%ADD25C,0.800000*%
%TD*%
%TA.AperFunction,Conductor*%
%ADD26C,0.250000*%
%TD*%
%TA.AperFunction,Conductor*%
%ADD27C,0.500000*%
%TD*%
%TA.AperFunction,Conductor*%
%ADD28C,0.700000*%
%TD*%
%TA.AperFunction,Conductor*%
%ADD29C,0.600000*%
%TD*%
G04 APERTURE END LIST*
D10*
%TO.P,R1,1*%
%TO.N,/r.4*%
X76025000Y-64100000D03*
%TO.P,R1,2*%
%TO.N,/bA4*%
X73975000Y-64100000D03*
%TD*%
D11*
%TO.P,D1,1,K*%
%TO.N,/bA4*%
X73550000Y-60950000D03*
D12*
%TO.P,D1,2,A*%
%TO.N,/cA14*%
X76090000Y-60950000D03*
%TD*%
D13*
%TO.P,U4,1,D2*%
%TO.N,/cD5*%
X70650000Y-77400000D03*
D14*
%TO.P,U4,2,D3*%
%TO.N,/cD6*%
X70650000Y-74860000D03*
%TO.P,U4,3,D4*%
%TO.N,/cD7*%
X70650000Y-72320000D03*
%TO.P,U4,4,Rb*%
%TO.N,GND*%
X70650000Y-69780000D03*
%TO.P,U4,5,Ra*%
%TO.N,Net-(JP6-C)*%
X70650000Y-67240000D03*
%TO.P,U4,6,Q4*%
%TO.N,/r.7*%
X70650000Y-64700000D03*
%TO.P,U4,7,Q3*%
%TO.N,/r.6*%
X70650000Y-62160000D03*
%TO.P,U4,8,GND*%
%TO.N,GND*%
X70650000Y-59620000D03*
%TO.P,U4,9,Q2*%
%TO.N,/r.5*%
X63030000Y-59620000D03*
%TO.P,U4,10,Q1*%
%TO.N,/r.4*%
X63030000Y-62160000D03*
%TO.P,U4,11,~{Er}*%
%TO.N,Net-(JP7-C)*%
X63030000Y-64700000D03*
%TO.P,U4,12,~{Ew}*%
%TO.N,/~{ROMSEL}*%
X63030000Y-67240000D03*
%TO.P,U4,13,Wb*%
%TO.N,/R~{W}*%
X63030000Y-69780000D03*
%TO.P,U4,14,Wa*%
%TO.N,Net-(JP8-C)*%
X63030000Y-72320000D03*
%TO.P,U4,15,D1*%
%TO.N,/cD4*%
X63030000Y-74860000D03*
%TO.P,U4,16,VCC*%
%TO.N,VCC*%
X63030000Y-77400000D03*
%TD*%
D13*
%TO.P,U5,1,A14*%
%TO.N,/bA6*%
X83570000Y-76640000D03*
D14*
%TO.P,U5,2,A12*%
%TO.N,/chr12*%
X86110000Y-76640000D03*
%TO.P,U5,3,A7*%
%TO.N,/pA7*%
X88650000Y-76640000D03*
%TO.P,U5,4,A6*%
%TO.N,/pA6*%
X91190000Y-76640000D03*
%TO.P,U5,5,A5*%
%TO.N,/pA5*%
X93730000Y-76640000D03*
%TO.P,U5,6,A4*%
%TO.N,/pA4*%
X96270000Y-76640000D03*
%TO.P,U5,7,A3*%
%TO.N,/pA3*%
X98810000Y-76640000D03*
%TO.P,U5,8,A2*%
%TO.N,/pA2*%
X101350000Y-76640000D03*
%TO.P,U5,9,A1*%
%TO.N,/pA1*%
X103890000Y-76640000D03*
%TO.P,U5,10,A0*%
%TO.N,/pA0*%
X106430000Y-76640000D03*
%TO.P,U5,11,Q0*%
%TO.N,/pD0*%
X108970000Y-76640000D03*
%TO.P,U5,12,Q1*%
%TO.N,/pD1*%
X111510000Y-76640000D03*
%TO.P,U5,13,Q2*%
%TO.N,/pD2*%
X114050000Y-76640000D03*
%TO.P,U5,14,GND*%
%TO.N,GND*%
X116590000Y-76640000D03*
%TO.P,U5,15,Q3*%
%TO.N,/pD3*%
X116590000Y-61400000D03*
%TO.P,U5,16,Q4*%
%TO.N,/pD4*%
X114050000Y-61400000D03*
%TO.P,U5,17,Q5*%
%TO.N,/pD5*%
X111510000Y-61400000D03*
%TO.P,U5,18,Q6*%
%TO.N,/pD6*%
X108970000Y-61400000D03*
%TO.P,U5,19,Q7*%
%TO.N,/pD7*%
X106430000Y-61400000D03*
%TO.P,U5,20,~{CS}*%
%TO.N,Net-(JP9-C)*%
X103890000Y-61400000D03*
%TO.P,U5,21,A10*%
%TO.N,/pA10*%
X101350000Y-61400000D03*
%TO.P,U5,22,~{OE}*%
%TO.N,/~{pRD}*%
X98810000Y-61400000D03*
%TO.P,U5,23,A11*%
%TO.N,/pA11*%
X96270000Y-61400000D03*
%TO.P,U5,24,A9*%
%TO.N,/pA9*%
X93730000Y-61400000D03*
%TO.P,U5,25,A8*%
%TO.N,/pA8*%
X91190000Y-61400000D03*
%TO.P,U5,26,A13*%
%TO.N,/bA5*%
X88650000Y-61400000D03*
%TO.P,U5,27,~{WE}*%
%TO.N,/~{pWR}*%
X86110000Y-61400000D03*
%TO.P,U5,28,VCC*%
%TO.N,VCC*%
X83570000Y-61400000D03*
%TD*%
D15*
%TO.P,U1,1,A18*%
%TO.N,Net-(JP2-C)*%
X39567500Y-61972500D03*
%TO.P,U1,2,A16*%
%TO.N,/bA2*%
X38297500Y-61972500D03*
%TO.P,U1,3,A15*%
%TO.N,/bA1*%
X37027500Y-61972500D03*
%TO.P,U1,4,A12*%
%TO.N,Net-(H1-cA12)*%
X35757500Y-61972500D03*
D16*
%TO.P,U1,5,A7*%
%TO.N,Net-(H1-cA7)*%
X34005000Y-63730000D03*
%TO.P,U1,6,A6*%
%TO.N,Net-(H1-cA6)*%
X34005000Y-65000000D03*
%TO.P,U1,7,A5*%
%TO.N,Net-(H1-cA5)*%
X34005000Y-66270000D03*
%TO.P,U1,8,A4*%
%TO.N,Net-(H1-cA4)*%
X34005000Y-67540000D03*
%TO.P,U1,9,A3*%
%TO.N,Net-(H1-cA3)*%
X34005000Y-68810000D03*
%TO.P,U1,10,A2*%
%TO.N,Net-(H1-cA2)*%
X34005000Y-70080000D03*
%TO.P,U1,11,A1*%
%TO.N,Net-(H1-cA1)*%
X34005000Y-71350000D03*
%TO.P,U1,12,A0*%
%TO.N,Net-(H1-cA0)*%
X34005000Y-72620000D03*
%TO.P,U1,13,D0*%
%TO.N,/cD0*%
X34005000Y-73890000D03*
D15*
%TO.P,U1,14,D1*%
%TO.N,/cD1*%
X35757500Y-75647500D03*
%TO.P,U1,15,D2*%
%TO.N,/cD2*%
X37027500Y-75647500D03*
%TO.P,U1,16,VSS*%
%TO.N,GND*%
X38297500Y-75647500D03*
%TO.P,U1,17,D3*%
%TO.N,/cD3*%
X39567500Y-75647500D03*
%TO.P,U1,18,D4*%
%TO.N,/cD4*%
X40837500Y-75647500D03*
%TO.P,U1,19,D5*%
%TO.N,/cD5*%
X42107500Y-75647500D03*
%TO.P,U1,20,D6*%
%TO.N,/cD6*%
X43377500Y-75647500D03*
D16*
%TO.P,U1,21,D7*%
%TO.N,/cD7*%
X45130000Y-73890000D03*
%TO.P,U1,22,~{CE}*%
%TO.N,/~{ROMSEL}*%
X45130000Y-72620000D03*
%TO.P,U1,23,A10*%
%TO.N,Net-(H1-cA10)*%
X45130000Y-71350000D03*
%TO.P,U1,24,~{OE}*%
%TO.N,/~{ROMSEL}*%
X45130000Y-70080000D03*
%TO.P,U1,25,A11*%
%TO.N,Net-(H1-cA11)*%
X45130000Y-68810000D03*
%TO.P,U1,26,A9*%
%TO.N,Net-(H1-cA9)*%
X45130000Y-67540000D03*
%TO.P,U1,27,A8*%
%TO.N,Net-(H1-cA8)*%
X45130000Y-66270000D03*
%TO.P,U1,28,A13*%
%TO.N,Net-(H1-cA13)*%
X45130000Y-65000000D03*
%TO.P,U1,29,A14*%
%TO.N,/bA0*%
X45130000Y-63730000D03*
D15*
%TO.P,U1,30,A17*%
%TO.N,/bA3*%
X43377500Y-61972500D03*
%TO.P,U1,31,~{WE}*%
%TO.N,VCC*%
X42107500Y-61972500D03*
%TO.P,U1,32,VDD*%
X40837500Y-61972500D03*
%TD*%
D17*
%TO.P,H1,1,GND*%
%TO.N,GND*%
X37670000Y-87495000D03*
D18*
%TO.P,H1,2,cA11*%
%TO.N,Net-(H1-cA11)*%
X40500000Y-87490000D03*
%TO.P,H1,3,cA10*%
%TO.N,Net-(H1-cA10)*%
X43040000Y-87490000D03*
D19*
%TO.P,H1,4,cA9*%
%TO.N,Net-(H1-cA9)*%
X45590000Y-87490000D03*
D18*
%TO.P,H1,5,cA8*%
%TO.N,Net-(H1-cA8)*%
X48120000Y-87490000D03*
%TO.P,H1,6,cA7*%
%TO.N,Net-(H1-cA7)*%
X50660000Y-87490000D03*
%TO.P,H1,7,cA6*%
%TO.N,Net-(H1-cA6)*%
X53200000Y-87490000D03*
%TO.P,H1,8,cA5*%
%TO.N,Net-(H1-cA5)*%
X55740000Y-87490000D03*
%TO.P,H1,9,cA4*%
%TO.N,Net-(H1-cA4)*%
X58280000Y-87490000D03*
%TO.P,H1,10,cA3*%
%TO.N,Net-(H1-cA3)*%
X60820000Y-87490000D03*
%TO.P,H1,11,cA2*%
%TO.N,Net-(H1-cA2)*%
X63360000Y-87490000D03*
%TO.P,H1,12,cA1*%
%TO.N,Net-(H1-cA1)*%
X65900000Y-87490000D03*
D20*
%TO.P,H1,13,cA0*%
%TO.N,Net-(H1-cA0)*%
X68420000Y-87490000D03*
D19*
%TO.P,H1,14,cR~{W}*%
%TO.N,/R~{W}*%
X70990000Y-87490000D03*
D18*
%TO.P,H1,15,~{IRQ}*%
%TO.N,VCC*%
X73520000Y-87490000D03*
%TO.P,H1,16,GND*%
%TO.N,GND*%
X76060000Y-87490000D03*
%TO.P,H1,17,p~{RD}*%
%TO.N,/~{pRD}*%
X78600000Y-87490000D03*
%TO.P,H1,18,vramA10*%
%TO.N,Net-(H1-vramA10)*%
X81140000Y-87490000D03*
%TO.P,H1,19,pA6*%
%TO.N,/pA6*%
X83680000Y-87490000D03*
D21*
%TO.P,H1,20,pA5*%
%TO.N,/pA5*%
X86210000Y-87490000D03*
D18*
%TO.P,H1,21,pA4*%
%TO.N,/pA4*%
X88760000Y-87490000D03*
%TO.P,H1,22,pA3*%
%TO.N,/pA3*%
X91300000Y-87490000D03*
%TO.P,H1,23,pA2*%
%TO.N,/pA2*%
X93840000Y-87490000D03*
%TO.P,H1,24,pA1*%
%TO.N,/pA1*%
X96380000Y-87490000D03*
%TO.P,H1,25,pA0*%
%TO.N,/pA0*%
X98920000Y-87490000D03*
%TO.P,H1,26,pD0*%
%TO.N,/pD0*%
X101460000Y-87490000D03*
%TO.P,H1,27,pD1*%
%TO.N,/pD1*%
X104000000Y-87490000D03*
%TO.P,H1,28,pD2*%
%TO.N,/pD2*%
X106540000Y-87490000D03*
%TO.P,H1,29,pD3*%
%TO.N,/pD3*%
X109080000Y-87490000D03*
D22*
%TO.P,H1,30,VCC*%
%TO.N,VCC*%
X112340000Y-87490000D03*
%TD*%
D13*
%TO.P,RN1,1,common*%
%TO.N,VCC*%
X79450000Y-59850000D03*
D14*
%TO.P,RN1,2,R1*%
%TO.N,/bA0*%
X79450000Y-62390000D03*
%TO.P,RN1,3,R2*%
%TO.N,/bA1*%
X79450000Y-64930000D03*
%TO.P,RN1,4,R3*%
%TO.N,/bA2*%
X79450000Y-67470000D03*
%TO.P,RN1,5,R4*%
%TO.N,/bA3*%
X79450000Y-70010000D03*
%TO.P,RN1,6,R5*%
%TO.N,/bA4*%
X79450000Y-72550000D03*
%TO.P,RN1,7,R6*%
%TO.N,/bA5*%
X79450000Y-75090000D03*
%TO.P,RN1,8,R7*%
%TO.N,/bA6*%
X79450000Y-77630000D03*
%TO.P,RN1,9,R8*%
%TO.N,/bA7*%
X79450000Y-80170000D03*
%TD*%
D23*
%TO.P,U2,1,A18*%
%TO.N,GND*%
X96322500Y-68967500D03*
%TO.P,U2,2,A16*%
%TO.N,/bA7*%
X96322500Y-70237500D03*
%TO.P,U2,3,A15*%
%TO.N,/bA6*%
X96322500Y-71507500D03*
%TO.P,U2,4,A12*%
%TO.N,/pA12*%
X96322500Y-72777500D03*
D24*
%TO.P,U2,5,A7*%
%TO.N,/pA7*%
X98080000Y-74530000D03*
%TO.P,U2,6,A6*%
%TO.N,/pA6*%
X99350000Y-74530000D03*
%TO.P,U2,7,A5*%
%TO.N,/pA5*%
X100620000Y-74530000D03*
%TO.P,U2,8,A4*%
%TO.N,/pA4*%
X101890000Y-74530000D03*
%TO.P,U2,9,A3*%
%TO.N,/pA3*%
X103160000Y-74530000D03*
%TO.P,U2,10,A2*%
%TO.N,/pA2*%
X104430000Y-74530000D03*
%TO.P,U2,11,A1*%
%TO.N,/pA1*%
X105700000Y-74530000D03*
%TO.P,U2,12,A0*%
%TO.N,/pA0*%
X106970000Y-74530000D03*
%TO.P,U2,13,D0*%
%TO.N,/pD0*%
X108240000Y-74530000D03*
D23*
%TO.P,U2,14,D1*%
%TO.N,/pD1*%
X109997500Y-72777500D03*
%TO.P,U2,15,D2*%
%TO.N,/pD2*%
X109997500Y-71507500D03*
%TO.P,U2,16,VSS*%
%TO.N,GND*%
X109997500Y-70237500D03*
%TO.P,U2,17,D3*%
%TO.N,/pD3*%
X109997500Y-68967500D03*
%TO.P,U2,18,D4*%
%TO.N,/pD4*%
X109997500Y-67697500D03*
%TO.P,U2,19,D5*%
%TO.N,/pD5*%
X109997500Y-66427500D03*
%TO.P,U2,20,D6*%
%TO.N,/pD6*%
X109997500Y-65157500D03*
D24*
%TO.P,U2,21,D7*%
%TO.N,/pD7*%
X108240000Y-63405000D03*
%TO.P,U2,22,~{CE}*%
%TO.N,/pA13*%
X106970000Y-63405000D03*
%TO.P,U2,23,A10*%
%TO.N,/pA10*%
X105700000Y-63405000D03*
%TO.P,U2,24,~{OE}*%
%TO.N,/~{pRD}*%
X104430000Y-63405000D03*
%TO.P,U2,25,A11*%
%TO.N,/pA11*%
X103160000Y-63405000D03*
%TO.P,U2,26,A9*%
%TO.N,/pA9*%
X101890000Y-63405000D03*
%TO.P,U2,27,A8*%
%TO.N,/pA8*%
X100620000Y-63405000D03*
%TO.P,U2,28,A13*%
%TO.N,/chr12*%
X99350000Y-63405000D03*
%TO.P,U2,29,A14*%
%TO.N,/bA5*%
X98080000Y-63405000D03*
D23*
%TO.P,U2,30,A17*%
%TO.N,GND*%
X96322500Y-65157500D03*
%TO.P,U2,31,~{WE}*%
%TO.N,/~{pWR}*%
X96322500Y-66427500D03*
%TO.P,U2,32,VDD*%
%TO.N,VCC*%
X96322500Y-67697500D03*
%TD*%
D13*
%TO.P,U3,1,D2*%
%TO.N,/cD1*%
X58850000Y-77500000D03*
D14*
%TO.P,U3,2,D3*%
%TO.N,/cD2*%
X58850000Y-74960000D03*
%TO.P,U3,3,D4*%
%TO.N,/cD3*%
X58850000Y-72420000D03*
%TO.P,U3,4,Rb*%
%TO.N,GND*%
X58850000Y-69880000D03*
%TO.P,U3,5,Ra*%
%TO.N,Net-(JP8-C)*%
X58850000Y-67340000D03*
%TO.P,U3,6,Q4*%
%TO.N,/bA3*%
X58850000Y-64800000D03*
%TO.P,U3,7,Q3*%
%TO.N,/bA2*%
X58850000Y-62260000D03*
%TO.P,U3,8,GND*%
%TO.N,GND*%
X58850000Y-59720000D03*
%TO.P,U3,9,Q2*%
%TO.N,/bA1*%
X51230000Y-59720000D03*
%TO.P,U3,10,Q1*%
%TO.N,/bA0*%
X51230000Y-62260000D03*
%TO.P,U3,11,~{Er}*%
%TO.N,Net-(JP3-C)*%
X51230000Y-64800000D03*
%TO.P,U3,12,~{Ew}*%
%TO.N,/~{ROMSEL}*%
X51230000Y-67340000D03*
%TO.P,U3,13,Wb*%
%TO.N,/R~{W}*%
X51230000Y-69880000D03*
%TO.P,U3,14,Wa*%
%TO.N,Net-(JP8-C)*%
X51230000Y-72420000D03*
%TO.P,U3,15,D1*%
%TO.N,/cD0*%
X51230000Y-74960000D03*
%TO.P,U3,16,VCC*%
%TO.N,VCC*%
X51230000Y-77500000D03*
%TD*%
D25*
%TO.N,GND*%
X49754493Y-62497300D03*
%TO.N,Net-(H1-cA11)*%
X40500000Y-83480498D03*
X40182800Y-70104000D03*
%TO.N,/~{pWR}*%
X84707300Y-64465200D03*
X86156800Y-65735200D03*
%TO.N,GND*%
X67700000Y-76800000D03*
X67056000Y-69799200D03*
X56600000Y-73100000D03*
X37338000Y-67056000D03*
X66548000Y-59669500D03*
X90400000Y-83019400D03*
X114434500Y-70515000D03*
X112877600Y-77921100D03*
X92679000Y-66579000D03*
X40700000Y-63600000D03*
X94960541Y-68868000D03*
X42988121Y-63270246D03*
X81549139Y-79207051D03*
X97895000Y-68395000D03*
X66497200Y-64516000D03*
X100000000Y-78700000D03*
X87172800Y-68477300D03*
X87675500Y-79925796D03*
X38201600Y-71120000D03*
X114500000Y-65800000D03*
X108890000Y-70390000D03*
X31115000Y-63754000D03*
X38455600Y-76811700D03*
X72525000Y-64525000D03*
X67462400Y-71882000D03*
X112600000Y-58600000D03*
X119176800Y-73355200D03*
X68732400Y-64465200D03*
X85800000Y-80250000D03*
X73771712Y-72699500D03*
X64922400Y-72796400D03*
X105400000Y-79400000D03*
X92800000Y-64000000D03*
X91910500Y-70270000D03*
X85385500Y-63283000D03*
X43790000Y-70000000D03*
X81549500Y-80674500D03*
X43730000Y-66365500D03*
X56946800Y-69088000D03*
X89500000Y-79449500D03*
X98530000Y-67005200D03*
X37342452Y-83432950D03*
%TO.N,Net-(H1-cA10)*%
X43600000Y-83479998D03*
X42480000Y-71650000D03*
%TO.N,Net-(H1-cA9)*%
X45512299Y-83480498D03*
X43273075Y-68065500D03*
%TO.N,Net-(H1-cA8)*%
X46502451Y-66387049D03*
X46600000Y-83479998D03*
%TO.N,Net-(H1-cA7)*%
X32700000Y-63450000D03*
X31104949Y-80246562D03*
%TO.N,Net-(H1-cA6)*%
X32582295Y-65492295D03*
X31217399Y-78967801D03*
%TO.N,Net-(H1-cA5)*%
X32380850Y-78718750D03*
X32740000Y-66800000D03*
%TO.N,Net-(H1-cA4)*%
X33578800Y-78227000D03*
X35480000Y-67160000D03*
%TO.N,Net-(H1-cA3)*%
X59757213Y-83541163D03*
X59786811Y-82028700D03*
X48024599Y-80923429D03*
X48368805Y-67384395D03*
%TO.N,Net-(H1-cA2)*%
X48113700Y-68478400D03*
X48792698Y-81607301D03*
%TO.N,Net-(H1-cA1)*%
X34798000Y-77502500D03*
X32720000Y-71360000D03*
%TO.N,Net-(H1-cA0)*%
X38201600Y-78536800D03*
X37033200Y-72339200D03*
%TO.N,Net-(H1-vramA10)*%
X78500000Y-76300000D03*
X84000000Y-78039502D03*
X84087701Y-82087701D03*
X83250000Y-75240498D03*
X95046800Y-79654400D03*
%TO.N,VCC*%
X44964100Y-78790800D03*
X83596586Y-68160500D03*
X81788000Y-58978800D03*
X95050000Y-67577800D03*
X71983600Y-81635600D03*
X64312800Y-81127600D03*
X60553600Y-77978000D03*
X45570700Y-76811700D03*
X75294000Y-82159300D03*
X49580800Y-65417100D03*
X45415200Y-61061600D03*
X39661500Y-78972786D03*
%TO.N,/~{pRD}*%
X77200000Y-79224500D03*
X100330000Y-60000900D03*
X82245200Y-59944000D03*
X104470000Y-64690000D03*
%TO.N,/pD0*%
X109372400Y-80873600D03*
%TO.N,/pD1*%
X110821900Y-80724500D03*
%TO.N,/pD2*%
X111700000Y-71500000D03*
X114510000Y-72430000D03*
%TO.N,/pD3*%
X111334595Y-69265405D03*
X117124500Y-78496353D03*
%TO.N,Net-(H1-cA12)*%
X42540000Y-64500000D03*
%TO.N,/bA0*%
X46736000Y-61772800D03*
%TO.N,/cD7*%
X49375702Y-73900700D03*
%TO.N,/cD6*%
X54400000Y-79660500D03*
X43030700Y-79778700D03*
X43210000Y-76811700D03*
%TO.N,/cD5*%
X41149452Y-74328206D03*
X41131700Y-79362900D03*
X55336148Y-78928252D03*
%TO.N,/cD4*%
X56576355Y-77894865D03*
%TO.N,/cD3*%
X39410000Y-71990000D03*
X38926100Y-74427448D03*
%TO.N,/cD2*%
X61544500Y-75082400D03*
%TO.N,/cD1*%
X65938400Y-78892400D03*
X52623895Y-78760500D03*
X49380500Y-77511368D03*
%TO.N,/cD0*%
X49034666Y-74871200D03*
X69138800Y-80791900D03*
X47917700Y-79024429D03*
%TO.N,/~{ROMSEL}*%
X50052406Y-70982005D03*
%TO.N,Net-(H1-cA13)*%
X43650000Y-64900500D03*
%TO.N,/pA10*%
X104992121Y-60537482D03*
%TO.N,/pA11*%
X102620000Y-62170000D03*
%TO.N,/pD7*%
X104952800Y-78435200D03*
%TO.N,/pD6*%
X111607600Y-75082400D03*
X111740401Y-73409750D03*
X107797600Y-78536800D03*
%TO.N,/pD5*%
X111080000Y-74160000D03*
%TO.N,/pD4*%
X111402701Y-67527299D03*
X112690000Y-72830000D03*
%TO.N,/bA1*%
X77900000Y-58850000D03*
%TO.N,/bA3*%
X71689396Y-66276195D03*
X77600500Y-70010000D03*
%TO.N,/bA4*%
X77600500Y-72494828D03*
X65074800Y-67818000D03*
X53543200Y-64414400D03*
X74764000Y-63963599D03*
X61468000Y-64668400D03*
X69138800Y-68681600D03*
%TO.N,/bA5*%
X95800000Y-62770000D03*
X97520000Y-62430000D03*
X89445500Y-74340500D03*
X89231847Y-64793754D03*
%TO.N,/bA6*%
X84156974Y-71286947D03*
%TO.N,/bA7*%
X85000000Y-70750000D03*
X85272747Y-78848247D03*
%TO.N,/pA13*%
X81749500Y-78161459D03*
X106270000Y-70280000D03*
X75750000Y-74750000D03*
X102250000Y-77875500D03*
X106453000Y-66285000D03*
X81450500Y-73557064D03*
%TO.N,/pA12*%
X81490000Y-66760000D03*
X93459995Y-71859996D03*
X95000000Y-72810000D03*
X88087200Y-66598800D03*
X88000000Y-71700000D03*
X97100000Y-78000500D03*
%TO.N,/pA7*%
X87420706Y-78026296D03*
%TO.N,/pA6*%
X91190000Y-81000000D03*
%TO.N,/pA5*%
X98200000Y-72400000D03*
X92724500Y-80378900D03*
X100037701Y-72162299D03*
%TO.N,/pA4*%
X100000000Y-71100000D03*
X96750000Y-80000000D03*
%TO.N,/pA3*%
X105050000Y-73020000D03*
X98704400Y-80721200D03*
%TO.N,/pA2*%
X104836339Y-75608957D03*
X101549200Y-80924400D03*
%TO.N,/pA1*%
X103378000Y-80352300D03*
%TO.N,/pA0*%
X106527600Y-81076800D03*
%TO.N,/pA9*%
X93950000Y-63710000D03*
X101850000Y-65420000D03*
%TO.N,/cA14*%
X53136800Y-68173600D03*
X55676800Y-68034500D03*
X39296535Y-64849495D03*
X47580000Y-66440000D03*
%TO.N,Net-(JP2-C)*%
X38800000Y-63245500D03*
%TO.N,Net-(JP6-C)*%
X75250500Y-71714696D03*
%TO.N,Net-(JP8-C)*%
X56896000Y-72019500D03*
%TO.N,Net-(JP9-C)*%
X103830000Y-66450000D03*
%TO.N,Net-(JP7-C)*%
X65518700Y-66764500D03*
X103936800Y-69189600D03*
%TO.N,/r.4*%
X85500000Y-69159500D03*
X71750496Y-63675094D03*
X69037200Y-62850500D03*
%TO.N,/r.7*%
X71433200Y-73566800D03*
X83245764Y-81518065D03*
X76836846Y-81648777D03*
X76966992Y-83348277D03*
X78987701Y-82987701D03*
X72390000Y-79500000D03*
%TO.N,/chr12*%
X86800744Y-75614260D03*
X93819503Y-73919503D03*
X92427042Y-72808500D03*
X87475500Y-73304400D03*
X99240000Y-66260000D03*
%TO.N,/r.5*%
X68600000Y-67100000D03*
X65140000Y-65660000D03*
%TD*%
D26*
%TO.N,/bA2*%
X38280000Y-61260000D02*
X39440000Y-60100000D01*
X49400000Y-63600000D02*
X57510000Y-63600000D01*
X57510000Y-63600000D02*
X58850000Y-62260000D01*
X39440000Y-60100000D02*
X47230900Y-60100000D01*
X47230900Y-60100000D02*
X48666400Y-61535500D01*
X48666400Y-61535500D02*
X48666400Y-62866400D01*
X48666400Y-62866400D02*
X49400000Y-63600000D01*
%TO.N,/bA1*%
X51230000Y-59720000D02*
X51160000Y-59650000D01*
X51160000Y-59650000D02*
X39253604Y-59650000D01*
X39253604Y-59650000D02*
X37993604Y-60910000D01*
X37993604Y-60910000D02*
X37938404Y-60910000D01*
X37938404Y-60910000D02*
X37058198Y-61790206D01*
X37058198Y-61790206D02*
X37058198Y-61941802D01*
%TO.N,GND*%
X49657193Y-62400000D02*
X49754493Y-62497300D01*
X49657193Y-62241816D02*
X49657193Y-62400000D01*
X50764009Y-61135000D02*
X49657193Y-62241816D01*
X51405991Y-61135000D02*
X50764009Y-61135000D01*
X52820991Y-59720000D02*
X51405991Y-61135000D01*
X58850000Y-59720000D02*
X52820991Y-59720000D01*
%TO.N,/bA1*%
X77900000Y-58850000D02*
X77850000Y-58900000D01*
X77850000Y-58900000D02*
X71520991Y-58900000D01*
X71520991Y-58900000D02*
X71115991Y-58495000D01*
X71115991Y-58495000D02*
X58484009Y-58495000D01*
X58484009Y-58495000D02*
X58179009Y-58800000D01*
X58179009Y-58800000D02*
X52150000Y-58800000D01*
X52150000Y-58800000D02*
X51230000Y-59720000D01*
D27*
%TO.N,VCC*%
X45415200Y-61061600D02*
X45053600Y-60700000D01*
X45053600Y-60700000D02*
X41380000Y-60700000D01*
X41380000Y-60700000D02*
X40820000Y-61260000D01*
D26*
%TO.N,/pD0*%
X101460000Y-86930000D02*
X101460000Y-83940000D01*
X101460000Y-83940000D02*
X103598200Y-81801800D01*
X103598200Y-81801800D02*
X108444200Y-81801800D01*
X108444200Y-81801800D02*
X109372400Y-80873600D01*
%TO.N,/pA0*%
X98920000Y-86930000D02*
X98920000Y-83680000D01*
X98920000Y-83680000D02*
X99491200Y-83108800D01*
X99491200Y-83108800D02*
X101491200Y-83108800D01*
X101491200Y-83108800D02*
X103523200Y-81076800D01*
X103523200Y-81076800D02*
X106527600Y-81076800D01*
%TO.N,/R~{W}*%
X70980000Y-86930000D02*
X70980000Y-83220000D01*
X71775000Y-72883295D02*
X71775000Y-71854009D01*
X70980000Y-83220000D02*
X71541800Y-82658200D01*
X58237196Y-71170800D02*
X56946396Y-69880000D01*
X74385000Y-75493295D02*
X71775000Y-72883295D01*
X71775000Y-71854009D02*
X70963513Y-71042522D01*
X63030000Y-69780000D02*
X61639200Y-71170800D01*
X74385000Y-81021505D02*
X74385000Y-75493295D01*
X56946396Y-69880000D02*
X51230000Y-69880000D01*
X61639200Y-71170800D02*
X58237196Y-71170800D01*
X64292522Y-71042522D02*
X63030000Y-69780000D01*
X71541800Y-82658200D02*
X72748305Y-82658200D01*
X70963513Y-71042522D02*
X64292522Y-71042522D01*
X72748305Y-82658200D02*
X74385000Y-81021505D01*
%TO.N,Net-(H1-cA11)*%
X40462600Y-70383800D02*
X41666200Y-70383800D01*
X41666200Y-70383800D02*
X42810000Y-69240000D01*
X43927145Y-69240000D02*
X44357145Y-68810000D01*
X40182800Y-70104000D02*
X40462600Y-70383800D01*
X42810000Y-69240000D02*
X43927145Y-69240000D01*
X40500000Y-83480498D02*
X40500000Y-86930000D01*
%TO.N,/~{pWR}*%
X84707300Y-64465200D02*
X85977300Y-65735200D01*
X96355000Y-66545000D02*
X96321000Y-66579000D01*
X85977300Y-65735200D02*
X86156800Y-65735200D01*
X93099596Y-65524800D02*
X93357296Y-65782500D01*
X95677500Y-65782500D02*
X96322500Y-66427500D01*
X86367200Y-65524800D02*
X93099596Y-65524800D01*
X86156800Y-65735200D02*
X86367200Y-65524800D01*
X93357296Y-65782500D02*
X95677500Y-65782500D01*
%TO.N,GND*%
X96322500Y-68967500D02*
X95060041Y-68967500D01*
X43790000Y-70000000D02*
X42956200Y-70833800D01*
X109042500Y-70237500D02*
X108890000Y-70390000D01*
X103287401Y-78600000D02*
X100100000Y-78600000D01*
X114434500Y-70515000D02*
X114434500Y-70534500D01*
X76060000Y-79000000D02*
X76060000Y-87434000D01*
X81549139Y-79207051D02*
X81442088Y-79100000D01*
X96322500Y-68967500D02*
X96895000Y-68395000D01*
X90469400Y-82950000D02*
X90400000Y-83019400D01*
X87675500Y-79925796D02*
X87701296Y-79900000D01*
X38487800Y-70833800D02*
X38201600Y-71120000D01*
X73256887Y-72699500D02*
X73771712Y-72699500D01*
X111365590Y-79400000D02*
X105400000Y-79400000D01*
X66852800Y-69799200D02*
X65684400Y-68630800D01*
X41065000Y-63235000D02*
X40700000Y-63600000D01*
X79810991Y-81400000D02*
X80536491Y-80674500D01*
X31115000Y-63754000D02*
X31741000Y-64380000D01*
X112603100Y-78195600D02*
X112569990Y-78195600D01*
X73771712Y-74243611D02*
X76060000Y-76531899D01*
X38455600Y-75805600D02*
X38297500Y-75647500D01*
X38028500Y-66365500D02*
X37338000Y-67056000D01*
X96322500Y-65157500D02*
X96903896Y-65157500D01*
X116590000Y-72690000D02*
X116590000Y-76640000D01*
X65684400Y-68630800D02*
X62588209Y-68630800D01*
X79625991Y-78755000D02*
X78945000Y-78755000D01*
X33215749Y-64380000D02*
X33220749Y-64375000D01*
X77800000Y-78100000D02*
X76960000Y-78100000D01*
X61339009Y-69880000D02*
X58850000Y-69880000D01*
X90067300Y-68477300D02*
X91860000Y-70270000D01*
X58058000Y-69088000D02*
X56997600Y-69088000D01*
X100000000Y-78700000D02*
X99900000Y-78600000D01*
X58850000Y-69880000D02*
X58058000Y-69088000D01*
X91886396Y-82950000D02*
X90469400Y-82950000D01*
X112877600Y-77921100D02*
X112603100Y-78195600D01*
X70792522Y-70592522D02*
X71149909Y-70592522D01*
X42988121Y-63270246D02*
X42952875Y-63235000D01*
X43730000Y-66365500D02*
X38028500Y-66365500D01*
X70650000Y-69780000D02*
X70650000Y-70450000D01*
X85375500Y-80674500D02*
X85800000Y-80250000D01*
X100100000Y-78600000D02*
X100000000Y-78700000D01*
X73771712Y-72699500D02*
X73771712Y-74243611D01*
X76060000Y-76531899D02*
X76060000Y-79000000D01*
X87701296Y-79900000D02*
X89049500Y-79900000D01*
X62588209Y-68630800D02*
X61339009Y-69880000D01*
X37338000Y-66338000D02*
X37338000Y-67056000D01*
X112569990Y-78195600D02*
X111365590Y-79400000D01*
X42952875Y-63235000D02*
X41065000Y-63235000D01*
X86124204Y-79925796D02*
X85800000Y-80250000D01*
X67056000Y-69799200D02*
X66852800Y-69799200D01*
X78945000Y-78755000D02*
X78325000Y-79375000D01*
X31741000Y-64380000D02*
X33215749Y-64380000D01*
X96895000Y-68395000D02*
X97895000Y-68395000D01*
X97316000Y-80829400D02*
X94006996Y-80829400D01*
X96903896Y-65157500D02*
X98530000Y-66783604D01*
X66597500Y-59620000D02*
X66548000Y-59669500D01*
X87172800Y-68477300D02*
X87130500Y-68435000D01*
X80536491Y-80674500D02*
X85375500Y-80674500D01*
X37670000Y-83760498D02*
X37670000Y-87439000D01*
X79970991Y-79100000D02*
X79625991Y-78755000D01*
X33220749Y-64375000D02*
X35375000Y-64375000D01*
X67462400Y-71882000D02*
X65836800Y-71882000D01*
X71149909Y-70592522D02*
X73256887Y-72699500D01*
X99900000Y-78600000D02*
X99545400Y-78600000D01*
X38455600Y-76811700D02*
X38455600Y-75805600D01*
X35375000Y-64375000D02*
X37338000Y-66338000D01*
X76960000Y-78100000D02*
X76060000Y-79000000D01*
X87675500Y-79925796D02*
X86124204Y-79925796D01*
X78325000Y-80725000D02*
X79000000Y-81400000D01*
X67075200Y-69780000D02*
X70650000Y-69780000D01*
X87172800Y-68477300D02*
X90067300Y-68477300D01*
X94006996Y-80829400D02*
X91886396Y-82950000D01*
X66548000Y-64465200D02*
X66497200Y-64516000D01*
X67056000Y-69799200D02*
X67075200Y-69780000D01*
X98530000Y-66783604D02*
X98530000Y-67005200D01*
X65836800Y-71882000D02*
X64922400Y-72796400D01*
X56997600Y-69088000D02*
X56946800Y-69088000D01*
X99545400Y-78600000D02*
X97316000Y-80829400D01*
X78650000Y-78950000D02*
X77800000Y-78100000D01*
X37342452Y-83432950D02*
X37670000Y-83760498D01*
X105400000Y-79400000D02*
X104087401Y-79400000D01*
X114434500Y-70534500D02*
X116590000Y-72690000D01*
X104087401Y-79400000D02*
X103287401Y-78600000D01*
X70650000Y-59620000D02*
X66597500Y-59620000D01*
X70650000Y-70450000D02*
X70792522Y-70592522D01*
X68732400Y-64465200D02*
X66548000Y-64465200D01*
X42956200Y-70833800D02*
X38487800Y-70833800D01*
X78325000Y-79375000D02*
X78325000Y-80725000D01*
X81442088Y-79100000D02*
X79970991Y-79100000D01*
X92800000Y-64000000D02*
X92083000Y-63283000D01*
X92083000Y-63283000D02*
X85385500Y-63283000D01*
X95060041Y-68967500D02*
X94960541Y-68868000D01*
X109997500Y-70237500D02*
X109042500Y-70237500D01*
X79000000Y-81400000D02*
X79810991Y-81400000D01*
X89049500Y-79900000D02*
X89500000Y-79449500D01*
%TO.N,Net-(H1-cA10)*%
X43600000Y-83479998D02*
X43520002Y-83479998D01*
X44830000Y-71650000D02*
X45130000Y-71350000D01*
X43040000Y-83960000D02*
X43040000Y-86930000D01*
X42480000Y-71650000D02*
X44830000Y-71650000D01*
X43520002Y-83479998D02*
X43040000Y-83960000D01*
%TO.N,Net-(H1-cA9)*%
X45512299Y-86862299D02*
X45580000Y-86930000D01*
X45512299Y-83480498D02*
X45512299Y-86862299D01*
X43273075Y-68065500D02*
X43273075Y-67816925D01*
X43273075Y-67816925D02*
X43550000Y-67540000D01*
X43550000Y-67540000D02*
X45130000Y-67540000D01*
%TO.N,Net-(H1-cA8)*%
X46600000Y-83479998D02*
X48120000Y-84999998D01*
X45247049Y-66387049D02*
X45130000Y-66270000D01*
X48120000Y-84999998D02*
X48120000Y-86930000D01*
X46502451Y-66387049D02*
X45247049Y-66387049D01*
%TO.N,Net-(H1-cA7)*%
X38382706Y-82755498D02*
X46922881Y-82755498D01*
X31258887Y-80400500D02*
X36027708Y-80400500D01*
X34005000Y-63730000D02*
X32980000Y-63730000D01*
X50660000Y-85170000D02*
X50660000Y-86930000D01*
X32980000Y-63730000D02*
X32700000Y-63450000D01*
X46922881Y-82755498D02*
X47922383Y-83755000D01*
X31104949Y-80246562D02*
X31258887Y-80400500D01*
X49245000Y-83755000D02*
X50660000Y-85170000D01*
X47922383Y-83755000D02*
X49245000Y-83755000D01*
X36027708Y-80400500D02*
X38382706Y-82755498D01*
%TO.N,Net-(H1-cA6)*%
X33074590Y-65000000D02*
X32582295Y-65492295D01*
X34005000Y-65000000D02*
X33074590Y-65000000D01*
X48119601Y-83232301D02*
X49648697Y-83232301D01*
X35939604Y-79676000D02*
X38566804Y-82303200D01*
X38566804Y-82303200D02*
X42849091Y-82303200D01*
X47351502Y-82548429D02*
X47435729Y-82548429D01*
X42851389Y-82305498D02*
X47108571Y-82305498D01*
X50171396Y-83755000D02*
X52815000Y-83755000D01*
X47108571Y-82305498D02*
X47351502Y-82548429D01*
X31925598Y-79676000D02*
X35939604Y-79676000D01*
X47435729Y-82548429D02*
X48119601Y-83232301D01*
X49648697Y-83232301D02*
X50171396Y-83755000D01*
X52815000Y-83755000D02*
X53200000Y-84140000D01*
X53200000Y-84140000D02*
X53200000Y-86930000D01*
X42849091Y-82303200D02*
X42851389Y-82305498D01*
X31217399Y-78967801D02*
X31925598Y-79676000D01*
%TO.N,Net-(H1-cA5)*%
X32614100Y-78952000D02*
X35852000Y-78952000D01*
X47537898Y-82098429D02*
X47622125Y-82098429D01*
X34005000Y-66270000D02*
X33475000Y-66800000D01*
X49279399Y-82782301D02*
X49344900Y-82716800D01*
X47294967Y-81855498D02*
X47537898Y-82098429D01*
X38753200Y-81853200D02*
X43035487Y-81853200D01*
X32380850Y-78718750D02*
X32614100Y-78952000D01*
X33475000Y-66800000D02*
X32740000Y-66800000D01*
X43035487Y-81853200D02*
X43037785Y-81855498D01*
X43037785Y-81855498D02*
X47294967Y-81855498D01*
X55305000Y-83305000D02*
X55740000Y-83740000D01*
X35852000Y-78952000D02*
X38753200Y-81853200D01*
X47622125Y-82098429D02*
X48305997Y-82782301D01*
X50357792Y-83305000D02*
X55305000Y-83305000D01*
X48305997Y-82782301D02*
X49279399Y-82782301D01*
X55740000Y-83740000D02*
X55740000Y-86930000D01*
X49769592Y-82716800D02*
X50357792Y-83305000D01*
X49344900Y-82716800D02*
X49769592Y-82716800D01*
%TO.N,Net-(H1-cA4)*%
X49955988Y-82266800D02*
X49158504Y-82266800D01*
X34005000Y-67540000D02*
X35100000Y-67540000D01*
X50544188Y-82855000D02*
X49955988Y-82266800D01*
X58280000Y-83680000D02*
X57455000Y-82855000D01*
X57455000Y-82855000D02*
X50544188Y-82855000D01*
X43221883Y-81403200D02*
X39089592Y-81403200D01*
X35913392Y-78227000D02*
X33578800Y-78227000D01*
X58280000Y-86930000D02*
X58280000Y-83680000D01*
X49158504Y-82266800D02*
X49093003Y-82332301D01*
X47808521Y-81648429D02*
X47724294Y-81648429D01*
X39089592Y-81403200D02*
X35913392Y-78227000D01*
X48492393Y-82332301D02*
X47808521Y-81648429D01*
X35100000Y-67540000D02*
X35480000Y-67160000D01*
X43224181Y-81405498D02*
X43221883Y-81403200D01*
X47481363Y-81405498D02*
X43224181Y-81405498D01*
X49093003Y-82332301D02*
X48492393Y-82332301D01*
X47724294Y-81648429D02*
X47481363Y-81405498D01*
%TO.N,Net-(H1-cA3)*%
X50328780Y-81366800D02*
X50916980Y-81955000D01*
X48130728Y-80817300D02*
X49027295Y-80817300D01*
X49576795Y-81366800D02*
X50328780Y-81366800D01*
X44345749Y-66915000D02*
X45914251Y-66915000D01*
X46383646Y-67384395D02*
X48368805Y-67384395D01*
X34005000Y-68810000D02*
X34963800Y-68810000D01*
X42216200Y-67843800D02*
X42970000Y-67090000D01*
X42970000Y-67090000D02*
X44170749Y-67090000D01*
X45914251Y-66915000D02*
X46383646Y-67384395D01*
X49027295Y-80817300D02*
X49576795Y-81366800D01*
X48024599Y-80923429D02*
X48130728Y-80817300D01*
X59757213Y-83541163D02*
X60341163Y-83541163D01*
X34963800Y-68810000D02*
X35930000Y-67843800D01*
X59713111Y-81955000D02*
X59786811Y-82028700D01*
X60341163Y-83541163D02*
X60820000Y-84020000D01*
X50916980Y-81955000D02*
X59713111Y-81955000D01*
X44170749Y-67090000D02*
X44345749Y-66915000D01*
X60820000Y-84020000D02*
X60820000Y-86930000D01*
X35930000Y-67843800D02*
X42216200Y-67843800D01*
%TO.N,Net-(H1-cA2)*%
X34005000Y-70080000D02*
X34540000Y-70080000D01*
X39539604Y-68790000D02*
X43740749Y-68790000D01*
X48792698Y-81607301D02*
X49002197Y-81816800D01*
X63360000Y-83760000D02*
X63360000Y-86930000D01*
X47865300Y-68230000D02*
X48113700Y-68478400D01*
X39289604Y-69040000D02*
X39539604Y-68790000D01*
X58824495Y-82405000D02*
X59172695Y-82753200D01*
X49002197Y-81816800D02*
X50142384Y-81816800D01*
X43740749Y-68790000D02*
X44345749Y-68185000D01*
X34540000Y-70080000D02*
X35580000Y-69040000D01*
X44345749Y-68185000D02*
X45914251Y-68185000D01*
X50142384Y-81816800D02*
X50730584Y-82405000D01*
X50730584Y-82405000D02*
X58824495Y-82405000D01*
X35580000Y-69040000D02*
X39289604Y-69040000D01*
X45914251Y-68185000D02*
X45959251Y-68230000D01*
X59172695Y-82753200D02*
X62353200Y-82753200D01*
X45959251Y-68230000D02*
X47865300Y-68230000D01*
X62353200Y-82753200D02*
X63360000Y-83760000D01*
%TO.N,Net-(H1-cA1)*%
X50515176Y-80916800D02*
X49763191Y-80916800D01*
X32730000Y-71350000D02*
X32720000Y-71360000D01*
X59172695Y-81303700D02*
X58971395Y-81505000D01*
X48493775Y-80367300D02*
X48324904Y-80198429D01*
X34005000Y-71350000D02*
X32730000Y-71350000D01*
X65900000Y-83700000D02*
X64539600Y-82339600D01*
X34831700Y-77536200D02*
X34798000Y-77502500D01*
X58971395Y-81505000D02*
X51103376Y-81505000D01*
X46852782Y-80955498D02*
X43410577Y-80955498D01*
X43410577Y-80955498D02*
X43408279Y-80953200D01*
X64539600Y-82339600D02*
X63774799Y-82339600D01*
X51103376Y-81505000D02*
X50515176Y-80916800D01*
X65900000Y-86930000D02*
X65900000Y-83700000D01*
X63774799Y-82339600D02*
X63087000Y-81651801D01*
X62771904Y-81303700D02*
X59172695Y-81303700D01*
X47609851Y-80198429D02*
X46852782Y-80955498D01*
X63087000Y-81618796D02*
X62771904Y-81303700D01*
X49213691Y-80367300D02*
X48493775Y-80367300D01*
X43408279Y-80953200D02*
X39551200Y-80953200D01*
X48324904Y-80198429D02*
X47609851Y-80198429D01*
X39551200Y-80953200D02*
X36134200Y-77536200D01*
X36134200Y-77536200D02*
X34831700Y-77536200D01*
X63087000Y-81651801D02*
X63087000Y-81618796D01*
X49763191Y-80916800D02*
X49213691Y-80367300D01*
%TO.N,Net-(H1-cA0)*%
X48511800Y-79748929D02*
X47081573Y-79748929D01*
X48680171Y-79917300D02*
X48511800Y-79748929D01*
X51289772Y-81055000D02*
X50701572Y-80466800D01*
X36752400Y-72620000D02*
X34005000Y-72620000D01*
X63537000Y-81465405D02*
X63537000Y-81432400D01*
X68440000Y-86930000D02*
X68440000Y-83640000D01*
X63537000Y-81432400D02*
X62927400Y-80822800D01*
X58697200Y-81055000D02*
X51289772Y-81055000D01*
X63961195Y-81889600D02*
X63537000Y-81465405D01*
X68440000Y-83640000D02*
X66689600Y-81889600D01*
X50701572Y-80466800D02*
X49949587Y-80466800D01*
X38201600Y-78967204D02*
X38201600Y-78536800D01*
X37033200Y-72339200D02*
X36752400Y-72620000D01*
X49949587Y-80466800D02*
X49400087Y-79917300D01*
X49400087Y-79917300D02*
X48680171Y-79917300D01*
X47081573Y-79748929D02*
X46327302Y-80503200D01*
X62927400Y-80822800D02*
X58929400Y-80822800D01*
X58929400Y-80822800D02*
X58697200Y-81055000D01*
X66689600Y-81889600D02*
X63961195Y-81889600D01*
X39737596Y-80503200D02*
X38201600Y-78967204D01*
X46327302Y-80503200D02*
X39737596Y-80503200D01*
%TO.N,Net-(H1-vramA10)*%
X84087701Y-82087701D02*
X86239507Y-82087701D01*
X90320405Y-79654400D02*
X95046800Y-79654400D01*
X82900000Y-82400000D02*
X81140000Y-84160000D01*
X86239507Y-82087701D02*
X86727208Y-81600000D01*
X88374805Y-81600000D02*
X90320405Y-79654400D01*
X81259502Y-75240498D02*
X84695000Y-75240498D01*
X84420498Y-78039502D02*
X84000000Y-78039502D01*
X80147331Y-76352669D02*
X78552669Y-76352669D01*
X80147331Y-76352669D02*
X81259502Y-75240498D01*
X81140000Y-84160000D02*
X81140000Y-86930000D01*
X84695000Y-75240498D02*
X84695000Y-77765000D01*
X84695000Y-77765000D02*
X84420498Y-78039502D01*
X78552669Y-76352669D02*
X78500000Y-76300000D01*
X84087701Y-82087701D02*
X83775402Y-82400000D01*
X86727208Y-81600000D02*
X88374805Y-81600000D01*
X83775402Y-82400000D02*
X82900000Y-82400000D01*
D28*
%TO.N,VCC*%
X112340000Y-82040761D02*
X113930761Y-80450000D01*
D27*
X73520000Y-87490000D02*
X73520000Y-83680000D01*
X73520000Y-83680000D02*
X75109500Y-82090500D01*
D29*
X84179286Y-67577800D02*
X96202800Y-67577800D01*
D28*
X112206497Y-59550000D02*
X111826497Y-59170000D01*
D27*
X60730500Y-77801100D02*
X60553600Y-77978000D01*
D28*
X112340000Y-87490000D02*
X112340000Y-82040761D01*
X116269189Y-59170000D02*
X113373503Y-59170000D01*
D26*
X39661500Y-78972786D02*
X40030586Y-78603700D01*
D27*
X60730500Y-77724000D02*
X60730500Y-77801100D01*
X48091400Y-61909000D02*
X47105200Y-60922800D01*
X50036537Y-76170700D02*
X51230000Y-77364163D01*
X75109500Y-82090500D02*
X75225200Y-82090500D01*
X66778273Y-81165100D02*
X64262000Y-81165100D01*
X40837500Y-61972500D02*
X42107500Y-61972500D01*
X71983600Y-81635600D02*
X71977300Y-81641900D01*
X63030000Y-77400000D02*
X61054500Y-77400000D01*
D28*
X101029200Y-59170000D02*
X100838000Y-58978800D01*
D26*
X44777000Y-78603700D02*
X44964100Y-78790800D01*
D27*
X51230000Y-77364163D02*
X51230000Y-77500000D01*
X48091400Y-63927700D02*
X48091400Y-61909000D01*
D28*
X113930761Y-80450000D02*
X116514356Y-80450000D01*
D27*
X64275300Y-81165100D02*
X64312800Y-81127600D01*
D29*
X83596586Y-68160500D02*
X84179286Y-67577800D01*
D28*
X118110000Y-61010811D02*
X116269189Y-59170000D01*
D27*
X71977300Y-81641900D02*
X67255073Y-81641900D01*
X75225200Y-82090500D02*
X75294000Y-82159300D01*
X46211700Y-76170700D02*
X50036537Y-76170700D01*
D28*
X118110000Y-78854356D02*
X118110000Y-61010811D01*
D27*
X67255073Y-81641900D02*
X66778273Y-81165100D01*
X40837500Y-61242500D02*
X40837500Y-61972500D01*
D26*
X40030586Y-78603700D02*
X44777000Y-78603700D01*
D27*
X47105200Y-60922800D02*
X45554000Y-60922800D01*
X64262000Y-81165100D02*
X64275300Y-81165100D01*
X45554000Y-60922800D02*
X45415200Y-61061600D01*
D29*
X96202800Y-67577800D02*
X96322500Y-67697500D01*
D28*
X112993503Y-59550000D02*
X112206497Y-59550000D01*
X113373503Y-59170000D02*
X112993503Y-59550000D01*
D27*
X61054500Y-77400000D02*
X60730500Y-77724000D01*
D28*
X100838000Y-58978800D02*
X81788000Y-58978800D01*
D27*
X45570700Y-76811700D02*
X46211700Y-76170700D01*
D28*
X111826497Y-59170000D02*
X101029200Y-59170000D01*
X116514356Y-80450000D02*
X118110000Y-78854356D01*
D27*
X49580800Y-65417100D02*
X48091400Y-63927700D01*
D26*
%TO.N,/~{pRD}*%
X100330000Y-60000900D02*
X100079100Y-59750000D01*
X77200000Y-79224500D02*
X77700000Y-79724500D01*
X104430000Y-63405000D02*
X104430000Y-64650000D01*
X77700000Y-82674695D02*
X77725000Y-82699695D01*
X104430000Y-64650000D02*
X104470000Y-64690000D01*
X77700000Y-79724500D02*
X77700000Y-82674695D01*
X77725000Y-83300305D02*
X78600000Y-84175305D01*
X77725000Y-82699695D02*
X77725000Y-83300305D01*
X100079100Y-59750000D02*
X82439200Y-59750000D01*
X78600000Y-84175305D02*
X78600000Y-86930000D01*
X82439200Y-59750000D02*
X82245200Y-59944000D01*
%TO.N,/pD0*%
X108240000Y-75910000D02*
X108970000Y-76640000D01*
X108240000Y-74530000D02*
X108240000Y-75910000D01*
%TO.N,/pD1*%
X110821900Y-80724500D02*
X109294600Y-82251800D01*
X111510000Y-76640000D02*
X109997500Y-75127500D01*
X109997500Y-75127500D02*
X109997500Y-72810000D01*
X105148200Y-82251800D02*
X104000000Y-83400000D01*
X104000000Y-83400000D02*
X104000000Y-86930000D01*
X109294600Y-82251800D02*
X105148200Y-82251800D01*
%TO.N,/pD2*%
X107446800Y-82753200D02*
X106540000Y-83660000D01*
X114050000Y-76640000D02*
X115112800Y-77702800D01*
X115112800Y-78865604D02*
X114672404Y-79306000D01*
X109997500Y-71507500D02*
X111692500Y-71507500D01*
X114510000Y-76180000D02*
X114510000Y-72430000D01*
X113378400Y-79306000D02*
X109931200Y-82753200D01*
X114050000Y-76640000D02*
X114510000Y-76180000D01*
X111692500Y-71507500D02*
X111700000Y-71500000D01*
X115112800Y-77702800D02*
X115112800Y-78865604D01*
X109997500Y-71507500D02*
X110181800Y-71323200D01*
X106540000Y-83660000D02*
X106540000Y-86930000D01*
X114672404Y-79306000D02*
X113378400Y-79306000D01*
X109931200Y-82753200D02*
X107446800Y-82753200D01*
%TO.N,/pD3*%
X114858800Y-79756000D02*
X113564796Y-79756000D01*
X109080000Y-83920000D02*
X109080000Y-86930000D01*
X109796800Y-83203200D02*
X109080000Y-83920000D01*
X117124500Y-78496353D02*
X116423653Y-79197200D01*
X109997500Y-68967500D02*
X111036690Y-68967500D01*
X113564796Y-79756000D02*
X110117596Y-83203200D01*
X111036690Y-68967500D02*
X111334595Y-69265405D01*
X116423653Y-79197200D02*
X115417600Y-79197200D01*
X115417600Y-79197200D02*
X114858800Y-79756000D01*
X110117596Y-83203200D02*
X109796800Y-83203200D01*
%TO.N,Net-(H1-cA12)*%
X39871840Y-64399495D02*
X39596840Y-64124495D01*
X38620725Y-64500000D02*
X38145749Y-64500000D01*
X35757500Y-62111751D02*
X35757500Y-61972500D01*
X39596840Y-64124495D02*
X38996230Y-64124495D01*
X38996230Y-64124495D02*
X38620725Y-64500000D01*
X42439495Y-64399495D02*
X39871840Y-64399495D01*
X42540000Y-64500000D02*
X42439495Y-64399495D01*
X38145749Y-64500000D02*
X35757500Y-62111751D01*
%TO.N,/bA0*%
X76600000Y-59400000D02*
X72300000Y-59400000D01*
X71455000Y-60845000D02*
X58384009Y-60845000D01*
X79450000Y-62390000D02*
X79450000Y-62250000D01*
X58384009Y-60845000D02*
X58346609Y-60807600D01*
X72000000Y-60300000D02*
X71455000Y-60845000D01*
X58346609Y-60807600D02*
X52682400Y-60807600D01*
X52682400Y-60807600D02*
X51230000Y-62260000D01*
X72300000Y-59400000D02*
X72000000Y-59700000D01*
X46736000Y-62124000D02*
X45130000Y-63730000D01*
X46736000Y-61772800D02*
X46736000Y-62124000D01*
X79450000Y-62250000D02*
X76600000Y-59400000D01*
X72000000Y-59700000D02*
X72000000Y-60300000D01*
%TO.N,/cD7*%
X49375702Y-73900700D02*
X45140700Y-73900700D01*
X49650202Y-74175200D02*
X50423809Y-74175200D01*
X49375702Y-73900700D02*
X49650202Y-74175200D01*
X50764009Y-73835000D02*
X58384009Y-73835000D01*
X50423809Y-74175200D02*
X50764009Y-73835000D01*
X58484009Y-73735000D02*
X69235000Y-73735000D01*
X69235000Y-73735000D02*
X70650000Y-72320000D01*
X45140700Y-73900700D02*
X45130000Y-73890000D01*
X58384009Y-73835000D02*
X58484009Y-73735000D01*
%TO.N,/cD6*%
X49149778Y-79017300D02*
X49772879Y-79017300D01*
X49772879Y-79017300D02*
X50322379Y-79566800D01*
X43210000Y-76811700D02*
X43210000Y-75896200D01*
X71775000Y-79050200D02*
X71775000Y-75985000D01*
X50322379Y-79566800D02*
X51074364Y-79566800D01*
X48670505Y-78742800D02*
X48875278Y-78742800D01*
X47606700Y-78193300D02*
X48121005Y-78193300D01*
X43030700Y-79778700D02*
X43305200Y-80053200D01*
X65451699Y-80067400D02*
X70757800Y-80067400D01*
X70757800Y-80067400D02*
X71775000Y-79050200D01*
X53905500Y-80155000D02*
X54400000Y-79660500D01*
X43210000Y-75896200D02*
X43377500Y-75896200D01*
X43305200Y-80053200D02*
X45746800Y-80053200D01*
X54531900Y-79792400D02*
X65176699Y-79792400D01*
X51662564Y-80155000D02*
X53905500Y-80155000D01*
X71775000Y-75985000D02*
X70650000Y-74860000D01*
X48875278Y-78742800D02*
X49149778Y-79017300D01*
X65176699Y-79792400D02*
X65451699Y-80067400D01*
X51074364Y-79566800D02*
X51662564Y-80155000D01*
X45746800Y-80053200D02*
X47606700Y-78193300D01*
X48121005Y-78193300D02*
X48670505Y-78742800D01*
X54400000Y-79660500D02*
X54531900Y-79792400D01*
%TO.N,/cD5*%
X49061674Y-78292800D02*
X48856901Y-78292800D01*
X42730395Y-79053700D02*
X42384095Y-79400000D01*
X45264905Y-79603200D02*
X43890800Y-79603200D01*
X47124805Y-77743300D02*
X45264905Y-79603200D01*
X70650000Y-77400000D02*
X68432600Y-79617400D01*
X53150595Y-79705000D02*
X51848960Y-79705000D01*
X50508775Y-79116800D02*
X49959275Y-78567300D01*
X51848960Y-79705000D02*
X51260760Y-79116800D01*
X42384095Y-79400000D02*
X41168800Y-79400000D01*
X65363095Y-79342400D02*
X56362896Y-79342400D01*
X43890800Y-79603200D02*
X43341300Y-79053700D01*
X49336174Y-78567300D02*
X49061674Y-78292800D01*
X56095496Y-79075000D02*
X55482895Y-79075000D01*
X48307401Y-77743300D02*
X47124805Y-77743300D01*
X56362896Y-79342400D02*
X56095496Y-79075000D01*
X49959275Y-78567300D02*
X49336174Y-78567300D01*
X55208795Y-78800900D02*
X55073695Y-78936000D01*
X51260760Y-79116800D02*
X50508775Y-79116800D01*
X41149452Y-74328206D02*
X42107500Y-75286254D01*
X43341300Y-79053700D02*
X42730395Y-79053700D01*
X65638095Y-79617400D02*
X65363095Y-79342400D01*
X48856901Y-78292800D02*
X48307401Y-77743300D01*
X55073695Y-78936000D02*
X53919595Y-78936000D01*
X68432600Y-79617400D02*
X65638095Y-79617400D01*
X42107500Y-75286254D02*
X42107500Y-75647500D01*
X55482895Y-79075000D02*
X55208795Y-78800900D01*
X41168800Y-79400000D02*
X41131700Y-79362900D01*
X53919595Y-78936000D02*
X53150595Y-79705000D01*
%TO.N,/cD4*%
X40837500Y-76482500D02*
X40820000Y-76500000D01*
X50764009Y-78625000D02*
X50105000Y-77965991D01*
X49798365Y-76745700D02*
X46849613Y-76745700D01*
X50105000Y-77965991D02*
X50105000Y-77052335D01*
X57725000Y-76746220D02*
X57725000Y-76535000D01*
X46849613Y-76745700D02*
X46059113Y-77536200D01*
X61515000Y-76375000D02*
X63030000Y-74860000D01*
X50105000Y-77052335D02*
X49798365Y-76745700D01*
X57885000Y-76375000D02*
X61515000Y-76375000D01*
X40837500Y-75647500D02*
X40837500Y-76482500D01*
X57725000Y-76535000D02*
X57885000Y-76375000D01*
X52284991Y-78036000D02*
X51695991Y-78625000D01*
X56307390Y-77625900D02*
X54722094Y-77625900D01*
X51695991Y-78625000D02*
X50764009Y-78625000D01*
X54311994Y-78036000D02*
X52284991Y-78036000D01*
X54722094Y-77625900D02*
X54311994Y-78036000D01*
X41856200Y-77536200D02*
X40820000Y-76500000D01*
X56576355Y-77894865D02*
X57725000Y-76746220D01*
X56576355Y-77894865D02*
X56307390Y-77625900D01*
X46059113Y-77536200D02*
X41856200Y-77536200D01*
%TO.N,/cD3*%
X50859009Y-71200000D02*
X50329409Y-71729600D01*
X57630000Y-71200000D02*
X50859009Y-71200000D01*
X38926100Y-74427448D02*
X38926100Y-75006100D01*
X43590749Y-72490000D02*
X39910000Y-72490000D01*
X38926100Y-75006100D02*
X39567500Y-75647500D01*
X44345749Y-73245000D02*
X43590749Y-72490000D01*
X47429651Y-71729600D02*
X45914251Y-73245000D01*
X39910000Y-72490000D02*
X39410000Y-71990000D01*
X58850000Y-72420000D02*
X57630000Y-71200000D01*
X50329409Y-71729600D02*
X47429651Y-71729600D01*
X45914251Y-73245000D02*
X44345749Y-73245000D01*
%TO.N,/cD2*%
X50274710Y-75595700D02*
X50764009Y-76085000D01*
X38725037Y-73603206D02*
X42742457Y-73603206D01*
X50764009Y-76085000D02*
X56615000Y-76085000D01*
X61544500Y-75082400D02*
X61422100Y-74960000D01*
X44104251Y-74965000D02*
X47991205Y-74965000D01*
X56615000Y-76085000D02*
X57740000Y-74960000D01*
X61422100Y-74960000D02*
X58850000Y-74960000D01*
X42742457Y-73603206D02*
X44104251Y-74965000D01*
X47991205Y-74965000D02*
X48621905Y-75595700D01*
X37027500Y-75300743D02*
X38725037Y-73603206D01*
X48621905Y-75595700D02*
X50274710Y-75595700D01*
X37027500Y-75647500D02*
X37027500Y-75300743D01*
X57740000Y-74960000D02*
X58850000Y-74960000D01*
%TO.N,/cD1*%
X54498390Y-78486000D02*
X53733199Y-78486000D01*
X53458699Y-78760500D02*
X52745887Y-78760500D01*
X54908490Y-78075900D02*
X54498390Y-78486000D01*
X41219804Y-77536200D02*
X36776200Y-77536200D01*
X53733199Y-78486000D02*
X53458699Y-78760500D01*
X65938400Y-78892400D02*
X60242400Y-78892400D01*
X49162432Y-77293300D02*
X46938409Y-77293300D01*
X35740000Y-76500000D02*
X35740000Y-75665000D01*
X46938409Y-77293300D02*
X46245509Y-77986200D01*
X57610200Y-78739800D02*
X56396692Y-78739800D01*
X58850000Y-77500000D02*
X57610200Y-78739800D01*
X41669804Y-77986200D02*
X41219804Y-77536200D01*
X55732792Y-78075900D02*
X54908490Y-78075900D01*
X56396692Y-78739800D02*
X55732792Y-78075900D01*
X60242400Y-78892400D02*
X58850000Y-77500000D01*
X49380500Y-77511368D02*
X49162432Y-77293300D01*
X36776200Y-77536200D02*
X35740000Y-76500000D01*
X46245509Y-77986200D02*
X41669804Y-77986200D01*
X35740000Y-75665000D02*
X35757500Y-75647500D01*
%TO.N,/cD0*%
X47917700Y-79024429D02*
X48086071Y-79192800D01*
X55982512Y-80242400D02*
X64990303Y-80242400D01*
X42983955Y-73153206D02*
X35646794Y-73153206D01*
X65265303Y-80517400D02*
X68864300Y-80517400D01*
X50895200Y-74625200D02*
X51230000Y-74960000D01*
X49280666Y-74625200D02*
X50895200Y-74625200D01*
X50887968Y-80016800D02*
X51476168Y-80605000D01*
X50135983Y-80016800D02*
X50887968Y-80016800D01*
X48086071Y-79192800D02*
X48688882Y-79192800D01*
X55619912Y-80605000D02*
X55982512Y-80242400D01*
X64990303Y-80242400D02*
X65265303Y-80517400D01*
X49034666Y-74871200D02*
X48678466Y-74515000D01*
X34910000Y-73890000D02*
X34005000Y-73890000D01*
X49586483Y-79467300D02*
X50135983Y-80016800D01*
X44345749Y-74515000D02*
X42983955Y-73153206D01*
X48678466Y-74515000D02*
X44345749Y-74515000D01*
X48963382Y-79467300D02*
X49586483Y-79467300D01*
X51476168Y-80605000D02*
X55619912Y-80605000D01*
X68864300Y-80517400D02*
X69138800Y-80791900D01*
X48688882Y-79192800D02*
X48963382Y-79467300D01*
X49034666Y-74871200D02*
X49280666Y-74625200D01*
X35646794Y-73153206D02*
X34910000Y-73890000D01*
%TO.N,/~{ROMSEL}*%
X61805000Y-68465000D02*
X58384009Y-68465000D01*
X45130000Y-70080000D02*
X46380000Y-70080000D01*
X45130000Y-72620000D02*
X45644010Y-72620000D01*
X57229009Y-67310000D02*
X51260000Y-67310000D01*
X44740000Y-70080000D02*
X45130000Y-70080000D01*
X58384009Y-68465000D02*
X57229009Y-67310000D01*
X46380000Y-70080000D02*
X47282005Y-70982005D01*
X63030000Y-67240000D02*
X61805000Y-68465000D01*
X51260000Y-67310000D02*
X51230000Y-67340000D01*
X47282005Y-70982005D02*
X50052406Y-70982005D01*
X45644010Y-72620000D02*
X47282005Y-70982005D01*
%TO.N,Net-(H1-cA13)*%
X43650000Y-64900500D02*
X45030500Y-64900500D01*
X45030500Y-64900500D02*
X45130000Y-65000000D01*
%TO.N,/pA10*%
X105700000Y-63405000D02*
X105700000Y-63190000D01*
X102475000Y-60275000D02*
X101350000Y-61400000D01*
X105160000Y-62650000D02*
X105160000Y-60705361D01*
X105700000Y-63190000D02*
X105160000Y-62650000D01*
X104729639Y-60275000D02*
X102475000Y-60275000D01*
X105160000Y-60705361D02*
X104729639Y-60275000D01*
%TO.N,/pA11*%
X103160000Y-62710000D02*
X103160000Y-63405000D01*
X102620000Y-62170000D02*
X103160000Y-62710000D01*
%TO.N,/pD7*%
X110127200Y-76091200D02*
X110127200Y-77073791D01*
X108240000Y-63544251D02*
X107177500Y-64606751D01*
X107845000Y-62815000D02*
X106430000Y-61400000D01*
X105576200Y-77811800D02*
X104952800Y-78435200D01*
X107177500Y-64606751D02*
X107177500Y-72058249D01*
X108865000Y-74829000D02*
X110127200Y-76091200D01*
X108240000Y-63405000D02*
X107845000Y-63010000D01*
X108865000Y-73745749D02*
X108865000Y-74829000D01*
X107845000Y-63010000D02*
X107845000Y-62815000D01*
X109389191Y-77811800D02*
X105576200Y-77811800D01*
X107177500Y-72058249D02*
X108865000Y-73745749D01*
X110127200Y-77073791D02*
X109389191Y-77811800D01*
X108240000Y-63405000D02*
X108240000Y-63544251D01*
%TO.N,/pD6*%
X109997500Y-65157500D02*
X108970000Y-64130000D01*
X107627500Y-67388249D02*
X107627500Y-70566751D01*
X111740401Y-72950401D02*
X111740401Y-73409750D01*
X108970000Y-64130000D02*
X108970000Y-61400000D01*
X109213249Y-72152500D02*
X110942500Y-72152500D01*
X107797600Y-78536800D02*
X111204191Y-78536800D01*
X112268000Y-75285600D02*
X111810800Y-75285600D01*
X111204191Y-78536800D02*
X112635000Y-77105991D01*
X112635000Y-77105991D02*
X112635000Y-75652600D01*
X110942500Y-72152500D02*
X111740401Y-72950401D01*
X107627500Y-70566751D02*
X109213249Y-72152500D01*
X112635000Y-75652600D02*
X112268000Y-75285600D01*
X109858249Y-65157500D02*
X107627500Y-67388249D01*
X109997500Y-65157500D02*
X109858249Y-65157500D01*
X111810800Y-75285600D02*
X111607600Y-75082400D01*
%TO.N,/pD5*%
X111510000Y-65054251D02*
X110136751Y-66427500D01*
X113710000Y-68810000D02*
X113710000Y-73610000D01*
X109997500Y-66427500D02*
X110136751Y-66427500D01*
X110136751Y-66427500D02*
X111327500Y-66427500D01*
X113710000Y-73610000D02*
X113160000Y-74160000D01*
X111510000Y-61400000D02*
X111510000Y-65054251D01*
X111327500Y-66427500D02*
X113710000Y-68810000D01*
X113160000Y-74160000D02*
X111080000Y-74160000D01*
%TO.N,/pD4*%
X112640000Y-68764598D02*
X112640000Y-71880000D01*
X111232500Y-67697500D02*
X109997500Y-67697500D01*
X111402701Y-67527299D02*
X112640000Y-68764598D01*
X112640000Y-71880000D02*
X112520000Y-72000000D01*
X112520000Y-72000000D02*
X112520000Y-72660000D01*
X111402701Y-67527299D02*
X111232500Y-67697500D01*
X112520000Y-72660000D02*
X112690000Y-72830000D01*
%TO.N,/bA2*%
X80700000Y-64589009D02*
X80700000Y-66220000D01*
X80700000Y-66220000D02*
X79450000Y-67470000D01*
X72050991Y-62350000D02*
X72075991Y-62375000D01*
X58850000Y-62260000D02*
X60165500Y-63575500D01*
X78340000Y-63690000D02*
X79800991Y-63690000D01*
X60165500Y-63575500D02*
X70825491Y-63575500D01*
X77025000Y-62375000D02*
X78340000Y-63690000D01*
X72075991Y-62375000D02*
X77025000Y-62375000D01*
X79800991Y-63690000D02*
X80700000Y-64589009D01*
X70825491Y-63575500D02*
X72050991Y-62350000D01*
%TO.N,/bA3*%
X65845005Y-64935000D02*
X64839695Y-64935000D01*
X58850000Y-64800000D02*
X57508400Y-66141600D01*
X44067500Y-62662500D02*
X43377500Y-61972500D01*
X48821600Y-66141600D02*
X47055000Y-64375000D01*
X47055000Y-64375000D02*
X44365749Y-64375000D01*
X71238201Y-65825000D02*
X66735005Y-65825000D01*
X71689396Y-66276195D02*
X71238201Y-65825000D01*
X57508400Y-66141600D02*
X48821600Y-66141600D01*
X79450000Y-70010000D02*
X77600500Y-70010000D01*
X44067500Y-64076751D02*
X44067500Y-62662500D01*
X44365749Y-64375000D02*
X44067500Y-64076751D01*
X59875000Y-65825000D02*
X58850000Y-64800000D01*
X63949695Y-65825000D02*
X59875000Y-65825000D01*
X64839695Y-64935000D02*
X63949695Y-65825000D01*
X66735005Y-65825000D02*
X65845005Y-64935000D01*
%TO.N,/bA4*%
X74764000Y-63963599D02*
X74627599Y-64100000D01*
X79450000Y-72550000D02*
X77655672Y-72550000D01*
X60604400Y-64668400D02*
X61468000Y-64668400D01*
X58384009Y-63675000D02*
X59611000Y-63675000D01*
X77655672Y-72550000D02*
X77600500Y-72494828D01*
X53543200Y-64414400D02*
X53848000Y-64109600D01*
X66799404Y-68681600D02*
X65935804Y-67818000D01*
X69138800Y-68681600D02*
X66799404Y-68681600D01*
X59611000Y-63675000D02*
X60604400Y-64668400D01*
X57949409Y-64109600D02*
X58384009Y-63675000D01*
X74627599Y-64100000D02*
X73875000Y-64100000D01*
X53848000Y-64109600D02*
X57949409Y-64109600D01*
X65935804Y-67818000D02*
X65074800Y-67818000D01*
%TO.N,/bA5*%
X80060600Y-74479400D02*
X79450000Y-75090000D01*
X89445500Y-74340500D02*
X89306600Y-74479400D01*
X95800000Y-62770000D02*
X95800000Y-63180000D01*
X97928800Y-63253800D02*
X98080000Y-63253800D01*
X93905200Y-65074800D02*
X89512893Y-65074800D01*
X97520000Y-62430000D02*
X97520000Y-62845000D01*
X97520000Y-62845000D02*
X97928800Y-63253800D01*
X89512893Y-65074800D02*
X89231847Y-64793754D01*
X95800000Y-63180000D02*
X93905200Y-65074800D01*
X89306600Y-74479400D02*
X80060600Y-74479400D01*
%TO.N,/bA6*%
X79506396Y-77630000D02*
X80536396Y-76600000D01*
X91814237Y-73221000D02*
X92126737Y-73533500D01*
X87775805Y-74029400D02*
X88584205Y-73221000D01*
X88584205Y-73221000D02*
X91814237Y-73221000D01*
X80536396Y-76600000D02*
X83530000Y-76600000D01*
X84156974Y-71714682D02*
X86471692Y-74029400D01*
X92811091Y-73533500D02*
X94644591Y-71700000D01*
X92126737Y-73533500D02*
X92811091Y-73533500D01*
X94644591Y-71700000D02*
X96110000Y-71700000D01*
X84156974Y-71286947D02*
X84156974Y-71714682D01*
X86471692Y-74029400D02*
X87775805Y-74029400D01*
X83530000Y-76600000D02*
X83570000Y-76640000D01*
%TO.N,/bA7*%
X85272747Y-78848247D02*
X85272747Y-79200162D01*
X79670500Y-79949500D02*
X79450000Y-80170000D01*
X96322500Y-70237500D02*
X95032500Y-70237500D01*
X93730000Y-70270000D02*
X95000000Y-70270000D01*
X85000000Y-70750000D02*
X85300000Y-70450000D01*
X89608604Y-71445000D02*
X92555000Y-71445000D01*
X92555000Y-71445000D02*
X93730000Y-70270000D01*
X84372909Y-80100000D02*
X82000305Y-80100000D01*
X85300000Y-70450000D02*
X88613604Y-70450000D01*
X81849805Y-79949500D02*
X79670500Y-79949500D01*
X95032500Y-70237500D02*
X95000000Y-70270000D01*
X85272747Y-79200162D02*
X84372909Y-80100000D01*
X82000305Y-80100000D02*
X81849805Y-79949500D01*
X88613604Y-70450000D02*
X89608604Y-71445000D01*
%TO.N,/pA13*%
X99315301Y-77934699D02*
X102190801Y-77934699D01*
X102250000Y-77875500D02*
X102535000Y-77590500D01*
X106970000Y-63405000D02*
X106453000Y-63922000D01*
X88775000Y-78725000D02*
X98525000Y-78725000D01*
X85834486Y-78100000D02*
X86250000Y-78515514D01*
X81450500Y-73557064D02*
X81332564Y-73675000D01*
X86250000Y-78515514D02*
X86250000Y-79000000D01*
X75750000Y-74500000D02*
X75750000Y-74750000D01*
X102535000Y-77590500D02*
X102535000Y-73730800D01*
X102190801Y-77934699D02*
X102250000Y-77875500D01*
X86250000Y-79000000D02*
X86451296Y-79201296D01*
X88298704Y-79201296D02*
X88775000Y-78725000D01*
X81332564Y-73675000D02*
X76575000Y-73675000D01*
X83096652Y-78161459D02*
X83699695Y-78764502D01*
X102535000Y-73730800D02*
X105985800Y-70280000D01*
X86451296Y-79201296D02*
X88298704Y-79201296D01*
X106453000Y-63922000D02*
X106453000Y-66285000D01*
X83699695Y-78764502D02*
X84331894Y-78764502D01*
X84331894Y-78764502D02*
X84996396Y-78100000D01*
X98525000Y-78725000D02*
X99315301Y-77934699D01*
X105985800Y-70280000D02*
X106270000Y-70280000D01*
X84996396Y-78100000D02*
X85834486Y-78100000D01*
X81749500Y-78161459D02*
X83096652Y-78161459D01*
X76575000Y-73675000D02*
X75750000Y-74500000D01*
%TO.N,/pA12*%
X92627613Y-75515000D02*
X93077613Y-75065000D01*
X87985600Y-66700400D02*
X88087200Y-66598800D01*
X87720304Y-78751296D02*
X87120401Y-78751296D01*
X88521000Y-72321000D02*
X88000000Y-71800000D01*
X93459995Y-71859996D02*
X93424991Y-71895000D01*
X88000000Y-71800000D02*
X88000000Y-71700000D01*
X87120401Y-78751296D02*
X86695706Y-78326601D01*
X96290000Y-72810000D02*
X95000000Y-72810000D01*
X93424991Y-71895000D02*
X90626000Y-71895000D01*
X96322500Y-72777500D02*
X96290000Y-72810000D01*
X90626000Y-71895000D02*
X90200000Y-72321000D01*
X86695706Y-77645285D02*
X87525000Y-76815991D01*
X97100000Y-78000500D02*
X96868500Y-78232000D01*
X88239600Y-78232000D02*
X87720304Y-78751296D01*
X81549600Y-66700400D02*
X87985600Y-66700400D01*
X87525000Y-76815991D02*
X87525000Y-76174009D01*
X86695706Y-78326601D02*
X86695706Y-77645285D01*
X81490000Y-66760000D02*
X81549600Y-66700400D01*
X90200000Y-72321000D02*
X88521000Y-72321000D01*
X88184009Y-75515000D02*
X92627613Y-75515000D01*
X95000000Y-73763604D02*
X95000000Y-72810000D01*
X96868500Y-78232000D02*
X88239600Y-78232000D01*
X93077613Y-75065000D02*
X93698604Y-75065000D01*
X93698604Y-75065000D02*
X95000000Y-73763604D01*
X87525000Y-76174009D02*
X88184009Y-75515000D01*
%TO.N,/pA7*%
X94855000Y-77153800D02*
X94855000Y-76464009D01*
X89784800Y-77774800D02*
X94234000Y-77774800D01*
X88650000Y-76640000D02*
X89784800Y-77774800D01*
X95969009Y-75350000D02*
X97540000Y-75350000D01*
X87420706Y-77869294D02*
X88650000Y-76640000D01*
X87420706Y-78026296D02*
X87420706Y-77869294D01*
X97540000Y-75350000D02*
X97540000Y-75320000D01*
X94234000Y-77774800D02*
X94855000Y-77153800D01*
X94855000Y-76464009D02*
X95969009Y-75350000D01*
X98080000Y-74780000D02*
X98080000Y-74530000D01*
X97540000Y-75320000D02*
X98080000Y-74780000D01*
%TO.N,/pA6*%
X86913604Y-82050000D02*
X86425903Y-82537701D01*
X88877208Y-82050000D02*
X86913604Y-82050000D01*
X97385000Y-71915000D02*
X97385000Y-73124251D01*
X99350000Y-74530000D02*
X99350000Y-72886973D01*
X92605000Y-76640000D02*
X91190000Y-76640000D01*
X97800000Y-71500000D02*
X97385000Y-71915000D01*
X95553800Y-73846200D02*
X93885000Y-75515000D01*
X93885000Y-75515000D02*
X93264009Y-75515000D01*
X90795100Y-81394900D02*
X89532308Y-81394900D01*
X99332642Y-72869615D02*
X99332642Y-72332642D01*
X99332642Y-72332642D02*
X98500000Y-71500000D01*
X89532308Y-81394900D02*
X88877208Y-82050000D01*
X98500000Y-71500000D02*
X97800000Y-71500000D01*
X96663051Y-73846200D02*
X95553800Y-73846200D01*
X83680000Y-83920000D02*
X83680000Y-86930000D01*
X97385000Y-73124251D02*
X96663051Y-73846200D01*
X92605000Y-76174009D02*
X92605000Y-76640000D01*
X91190000Y-81000000D02*
X90795100Y-81394900D01*
X85062299Y-82537701D02*
X83680000Y-83920000D01*
X99350000Y-72886973D02*
X99332642Y-72869615D01*
X86425903Y-82537701D02*
X85062299Y-82537701D01*
X93264009Y-75515000D02*
X92605000Y-76174009D01*
%TO.N,/pA5*%
X89718704Y-81844900D02*
X89063604Y-82500000D01*
X92724500Y-80503203D02*
X91382803Y-81844900D01*
X100620000Y-72744598D02*
X100620000Y-74530000D01*
X91382803Y-81844900D02*
X89718704Y-81844900D01*
X96886949Y-74313800D02*
X96056200Y-74313800D01*
X87100000Y-82500000D02*
X86220000Y-83380000D01*
X86220000Y-83380000D02*
X86220000Y-86930000D01*
X89063604Y-82500000D02*
X87100000Y-82500000D01*
X92724500Y-80378900D02*
X92724500Y-80503203D01*
X96056200Y-74313800D02*
X93730000Y-76640000D01*
X98200000Y-72400000D02*
X98200000Y-73000749D01*
X98200000Y-73000749D02*
X96886949Y-74313800D01*
X100037701Y-72162299D02*
X100620000Y-72744598D01*
%TO.N,/pA4*%
X93820600Y-80379400D02*
X96370600Y-80379400D01*
X96370600Y-80379400D02*
X96750000Y-80000000D01*
X89905100Y-82294900D02*
X91905100Y-82294900D01*
X100000000Y-71100000D02*
X101890000Y-72990000D01*
X101890000Y-72990000D02*
X101890000Y-74530000D01*
X88760000Y-83440000D02*
X89905100Y-82294900D01*
X91905100Y-82294900D02*
X93820600Y-80379400D01*
X88760000Y-86930000D02*
X88760000Y-83440000D01*
%TO.N,/pA3*%
X92801196Y-83400000D02*
X92000000Y-83400000D01*
X98704400Y-80721200D02*
X98146200Y-81279400D01*
X98146200Y-81279400D02*
X94921796Y-81279400D01*
X104083249Y-73467500D02*
X103160000Y-74390749D01*
X92000000Y-83400000D02*
X91300000Y-84100000D01*
X103160000Y-74390749D02*
X103160000Y-74530000D01*
X105050000Y-73020000D02*
X104602500Y-73467500D01*
X94921796Y-81279400D02*
X92801196Y-83400000D01*
X104602500Y-73467500D02*
X104083249Y-73467500D01*
X91300000Y-84100000D02*
X91300000Y-86930000D01*
%TO.N,/pA2*%
X93840000Y-83560000D02*
X95670600Y-81729400D01*
X100744200Y-81729400D02*
X101549200Y-80924400D01*
X104430000Y-74530000D02*
X104430000Y-75202618D01*
X95670600Y-81729400D02*
X100744200Y-81729400D01*
X93840000Y-86930000D02*
X93840000Y-83560000D01*
X104430000Y-75202618D02*
X104836339Y-75608957D01*
%TO.N,/pA1*%
X105700000Y-74530000D02*
X105700000Y-75770000D01*
X103378000Y-80352300D02*
X101071500Y-82658800D01*
X96380000Y-83820000D02*
X96380000Y-86930000D01*
X105700000Y-75770000D02*
X104830000Y-76640000D01*
X101071500Y-82658800D02*
X97541200Y-82658800D01*
X104830000Y-76640000D02*
X103890000Y-76640000D01*
X97541200Y-82658800D02*
X96380000Y-83820000D01*
%TO.N,/pA0*%
X106430000Y-75070000D02*
X106970000Y-74530000D01*
X106430000Y-76640000D02*
X106430000Y-75070000D01*
%TO.N,/pA9*%
X101850000Y-63445000D02*
X101890000Y-63405000D01*
X101850000Y-65420000D02*
X101850000Y-63445000D01*
X93730000Y-61400000D02*
X93730000Y-63490000D01*
X93730000Y-63490000D02*
X93950000Y-63710000D01*
%TO.N,/pA8*%
X100620000Y-63405000D02*
X100620000Y-63190000D01*
X100080000Y-60913200D02*
X99366800Y-60200000D01*
X99366800Y-60200000D02*
X92390000Y-60200000D01*
X100620000Y-63190000D02*
X100080000Y-62650000D01*
X92390000Y-60200000D02*
X91190000Y-61400000D01*
X100080000Y-62650000D02*
X100080000Y-60913200D01*
%TO.N,/cA14*%
X47580000Y-66440000D02*
X46765000Y-65625000D01*
X39825000Y-65625000D02*
X39700000Y-65500000D01*
X53275900Y-68034500D02*
X53136800Y-68173600D01*
X39700000Y-65252960D02*
X39296535Y-64849495D01*
X46765000Y-65625000D02*
X39825000Y-65625000D01*
X55676800Y-68034500D02*
X53275900Y-68034500D01*
X52845400Y-68465000D02*
X53136800Y-68173600D01*
X39700000Y-65500000D02*
X39700000Y-65252960D01*
X50474009Y-68465000D02*
X52845400Y-68465000D01*
X48449009Y-66440000D02*
X50474009Y-68465000D01*
X47580000Y-66440000D02*
X48449009Y-66440000D01*
%TO.N,Net-(JP2-C)*%
X38800000Y-63245500D02*
X39567500Y-62478000D01*
X39567500Y-62478000D02*
X39567500Y-61972500D01*
%TO.N,Net-(JP6-C)*%
X70650000Y-67552613D02*
X70650000Y-67240000D01*
X75250500Y-71714696D02*
X74750287Y-71714696D01*
X72225000Y-70394821D02*
X72225000Y-69127613D01*
X72225000Y-69127613D02*
X70650000Y-67552613D01*
X74750287Y-71714696D02*
X74560591Y-71525000D01*
X73355179Y-71525000D02*
X72225000Y-70394821D01*
X74560591Y-71525000D02*
X73355179Y-71525000D01*
%TO.N,Net-(JP8-C)*%
X56896000Y-72019500D02*
X56540500Y-72375000D01*
X56274695Y-72400000D02*
X51250000Y-72400000D01*
X51250000Y-72400000D02*
X51230000Y-72420000D01*
X56540500Y-72375000D02*
X56299695Y-72375000D01*
X56299695Y-72375000D02*
X56274695Y-72400000D01*
%TO.N,Net-(JP9-C)*%
X103805000Y-64329695D02*
X103745000Y-64389695D01*
X103890000Y-61400000D02*
X103805000Y-61485000D01*
X103745000Y-66365000D02*
X103830000Y-66450000D01*
X103745000Y-64389695D02*
X103745000Y-66365000D01*
X103805000Y-61485000D02*
X103805000Y-64329695D01*
%TO.N,Net-(JP7-C)*%
X88800000Y-70000000D02*
X81390000Y-70000000D01*
X97385000Y-69189600D02*
X97385000Y-69314251D01*
X97106751Y-69592500D02*
X93613305Y-69592500D01*
X71060991Y-68600000D02*
X70419009Y-68600000D01*
X73168283Y-71974500D02*
X71775000Y-70581217D01*
X74800000Y-72600000D02*
X74174500Y-71974500D01*
X89795000Y-70995000D02*
X88800000Y-70000000D01*
X81390000Y-70000000D02*
X79965000Y-71425000D01*
X74174500Y-71974500D02*
X73168283Y-71974500D01*
X77645023Y-71425000D02*
X76470023Y-72600000D01*
X71775000Y-69314009D02*
X71060991Y-68600000D01*
X92210805Y-70995000D02*
X89795000Y-70995000D01*
X70419009Y-68600000D02*
X69687809Y-67868800D01*
X66623000Y-67868800D02*
X65518700Y-66764500D01*
X69687809Y-67868800D02*
X66623000Y-67868800D01*
X71775000Y-70581217D02*
X71775000Y-69314009D01*
X79965000Y-71425000D02*
X77645023Y-71425000D01*
X93613305Y-69592500D02*
X92210805Y-70995000D01*
X103936800Y-69189600D02*
X97385000Y-69189600D01*
X76470023Y-72600000D02*
X74800000Y-72600000D01*
X97385000Y-69314251D02*
X97106751Y-69592500D01*
%TO.N,/r.4*%
X76025000Y-63325000D02*
X75525000Y-62825000D01*
X80190491Y-69159500D02*
X85500000Y-69159500D01*
X76025000Y-64100000D02*
X76025000Y-63325000D01*
X76800000Y-64100000D02*
X78300000Y-65600000D01*
X79085000Y-68885000D02*
X79915991Y-68885000D01*
X78300000Y-68100000D02*
X79085000Y-68885000D01*
X68346700Y-62160000D02*
X63030000Y-62160000D01*
X78300000Y-65600000D02*
X78300000Y-68100000D01*
X71750496Y-63675094D02*
X72600590Y-62825000D01*
X69037200Y-62850500D02*
X68346700Y-62160000D01*
X76025000Y-64100000D02*
X76800000Y-64100000D01*
X79915991Y-68885000D02*
X80190491Y-69159500D01*
X72600590Y-62825000D02*
X75525000Y-62825000D01*
%TO.N,/r.7*%
X72390000Y-74523600D02*
X71433200Y-73566800D01*
X79012299Y-82987701D02*
X78987701Y-82987701D01*
X83245764Y-81518065D02*
X80481935Y-81518065D01*
X80481935Y-81518065D02*
X79012299Y-82987701D01*
X76836846Y-81648777D02*
X76966992Y-81778923D01*
X72390000Y-79500000D02*
X72390000Y-74523600D01*
X76966992Y-81778923D02*
X76966992Y-83348277D01*
%TO.N,/chr12*%
X99350000Y-66150000D02*
X99350000Y-63405000D01*
X92427042Y-72808500D02*
X92389542Y-72771000D01*
X92389542Y-72771000D02*
X88008900Y-72771000D01*
X93586714Y-73919503D02*
X92441217Y-75065000D01*
X93819503Y-73919503D02*
X93586714Y-73919503D01*
X88008900Y-72771000D02*
X87475500Y-73304400D01*
X92441217Y-75065000D02*
X87350004Y-75065000D01*
X99240000Y-66260000D02*
X99350000Y-66150000D01*
X87350004Y-75065000D02*
X86800744Y-75614260D01*
%TO.N,/r.5*%
X67373609Y-67100000D02*
X65933609Y-65660000D01*
X65933609Y-65660000D02*
X65140000Y-65660000D01*
X68600000Y-67100000D02*
X67373609Y-67100000D01*
%TD*%
%TA.AperFunction,Conductor*%
%TO.N,GND*%
G36*
X76146386Y-82666735D02*
G01*
X76204435Y-82705622D01*
X76232245Y-82769718D01*
X76220986Y-82838675D01*
X76216581Y-82847025D01*
X76162361Y-82940938D01*
X76145527Y-82970097D01*
X76139812Y-82979995D01*
X76139810Y-82979999D01*
X76081319Y-83160017D01*
X76081318Y-83160021D01*
X76061532Y-83348277D01*
X76071209Y-83440354D01*
X76071492Y-83443039D01*
X76058922Y-83511768D01*
X76011190Y-83562792D01*
X75948171Y-83580000D01*
X75212155Y-83580000D01*
X75152627Y-83586401D01*
X75152620Y-83586403D01*
X75017913Y-83636645D01*
X75017906Y-83636649D01*
X74902814Y-83722808D01*
X74902807Y-83722814D01*
X74889575Y-83740490D01*
X74833640Y-83782359D01*
X74763948Y-83787340D01*
X74702626Y-83753852D01*
X74691047Y-83740489D01*
X74686414Y-83734300D01*
X74682587Y-83729188D01*
X74658168Y-83663727D01*
X74673018Y-83595453D01*
X74694168Y-83567198D01*
X75165247Y-83096118D01*
X75226571Y-83062634D01*
X75252929Y-83059800D01*
X75388644Y-83059800D01*
X75388646Y-83059800D01*
X75573803Y-83020444D01*
X75746730Y-82943451D01*
X75899871Y-82832188D01*
X76017046Y-82702051D01*
X76076529Y-82665405D01*
X76146386Y-82666735D01*
G37*
%TD.AperFunction*%
%TA.AperFunction,Conductor*%
G36*
X91362685Y-82940085D02*
G01*
X91408440Y-82992889D01*
X91418384Y-83062047D01*
X91389359Y-83125603D01*
X91383327Y-83132081D01*
X90972226Y-83543181D01*
X90910903Y-83576666D01*
X90884545Y-83579500D01*
X90452129Y-83579500D01*
X90452123Y-83579501D01*
X90392516Y-83585908D01*
X90257671Y-83636202D01*
X90257664Y-83636206D01*
X90142455Y-83722452D01*
X90129266Y-83740071D01*
X90073332Y-83781941D01*
X90003640Y-83786925D01*
X89942317Y-83753439D01*
X89930734Y-83740071D01*
X89926414Y-83734300D01*
X89917546Y-83722454D01*
X89917544Y-83722453D01*
X89917544Y-83722452D01*
X89802335Y-83636206D01*
X89802328Y-83636202D01*
X89725320Y-83607480D01*
X89669386Y-83565609D01*
X89644969Y-83500144D01*
X89659821Y-83431871D01*
X89680968Y-83403622D01*
X90127871Y-82956719D01*
X90189195Y-82923234D01*
X90215553Y-82920400D01*
X91295646Y-82920400D01*
X91362685Y-82940085D01*
G37*
%TD.AperFunction*%
%TA.AperFunction,Conductor*%
G36*
X36305703Y-81563531D02*
G01*
X36312179Y-81569561D01*
X37097517Y-82354900D01*
X37881903Y-83139286D01*
X37891728Y-83151549D01*
X37891949Y-83151367D01*
X37896920Y-83157376D01*
X37919642Y-83178713D01*
X37947341Y-83204724D01*
X37968235Y-83225618D01*
X37973717Y-83229871D01*
X37978149Y-83233655D01*
X38012124Y-83265560D01*
X38029682Y-83275212D01*
X38045941Y-83285893D01*
X38061770Y-83298171D01*
X38104544Y-83316680D01*
X38109762Y-83319236D01*
X38150614Y-83341695D01*
X38162006Y-83344620D01*
X38166975Y-83345896D01*
X38227013Y-83381634D01*
X38258199Y-83444157D01*
X38250631Y-83513616D01*
X38206713Y-83567957D01*
X38140387Y-83589927D01*
X38136138Y-83590000D01*
X36322155Y-83590000D01*
X36262627Y-83596401D01*
X36255070Y-83598187D01*
X36254417Y-83595426D01*
X36198092Y-83599431D01*
X36136783Y-83565921D01*
X36103323Y-83504584D01*
X36100500Y-83478276D01*
X36100500Y-81657244D01*
X36120185Y-81590205D01*
X36172989Y-81544450D01*
X36242147Y-81534506D01*
X36305703Y-81563531D01*
G37*
%TD.AperFunction*%
%TA.AperFunction,Conductor*%
G36*
X78530703Y-81090336D02*
G01*
X78537181Y-81096368D01*
X78610858Y-81170045D01*
X78630858Y-81184049D01*
X78797266Y-81300568D01*
X79003504Y-81396739D01*
X79223308Y-81455635D01*
X79359753Y-81467572D01*
X79424821Y-81493024D01*
X79465800Y-81549615D01*
X79469678Y-81619377D01*
X79436626Y-81678781D01*
X79064527Y-82050882D01*
X79003204Y-82084367D01*
X78976846Y-82087201D01*
X78893055Y-82087201D01*
X78860598Y-82094099D01*
X78707898Y-82126556D01*
X78707893Y-82126558D01*
X78534971Y-82203549D01*
X78534968Y-82203551D01*
X78522383Y-82212695D01*
X78456576Y-82236173D01*
X78388522Y-82220346D01*
X78339829Y-82170239D01*
X78325500Y-82112375D01*
X78325500Y-81184049D01*
X78345185Y-81117010D01*
X78397989Y-81071255D01*
X78467147Y-81061311D01*
X78530703Y-81090336D01*
G37*
%TD.AperFunction*%
%TA.AperFunction,Conductor*%
G36*
X89507392Y-79370185D02*
G01*
X89553147Y-79422989D01*
X89563091Y-79492147D01*
X89534066Y-79555703D01*
X89528035Y-79562179D01*
X88838703Y-80251511D01*
X88152033Y-80938181D01*
X88090710Y-80971666D01*
X88064352Y-80974500D01*
X86809945Y-80974500D01*
X86794328Y-80972776D01*
X86794301Y-80973062D01*
X86786539Y-80972327D01*
X86717411Y-80974500D01*
X86687858Y-80974500D01*
X86687137Y-80974590D01*
X86680965Y-80975369D01*
X86675153Y-80975826D01*
X86628580Y-80977290D01*
X86628577Y-80977291D01*
X86609334Y-80982881D01*
X86590291Y-80986825D01*
X86570412Y-80989336D01*
X86570411Y-80989337D01*
X86527086Y-81006490D01*
X86521560Y-81008382D01*
X86476816Y-81021383D01*
X86476812Y-81021385D01*
X86459573Y-81031580D01*
X86442106Y-81040137D01*
X86423477Y-81047512D01*
X86423475Y-81047513D01*
X86385772Y-81074906D01*
X86380890Y-81078112D01*
X86340788Y-81101828D01*
X86326616Y-81116000D01*
X86311831Y-81128628D01*
X86295620Y-81140407D01*
X86265917Y-81176310D01*
X86261985Y-81180630D01*
X86217876Y-81224740D01*
X86016733Y-81425883D01*
X85955413Y-81459367D01*
X85929054Y-81462201D01*
X84791449Y-81462201D01*
X84724410Y-81442516D01*
X84699301Y-81421175D01*
X84693574Y-81414815D01*
X84693570Y-81414811D01*
X84540435Y-81303552D01*
X84540430Y-81303549D01*
X84367508Y-81226558D01*
X84367503Y-81226556D01*
X84221701Y-81195566D01*
X84182347Y-81187201D01*
X84182346Y-81187201D01*
X84166139Y-81187201D01*
X84099100Y-81167516D01*
X84058752Y-81125201D01*
X84021865Y-81061311D01*
X83978297Y-80985849D01*
X83930236Y-80932472D01*
X83900006Y-80869481D01*
X83908631Y-80800145D01*
X83953373Y-80746480D01*
X84020025Y-80725522D01*
X84022386Y-80725500D01*
X84290166Y-80725500D01*
X84305786Y-80727224D01*
X84305813Y-80726939D01*
X84313569Y-80727671D01*
X84313576Y-80727673D01*
X84382723Y-80725500D01*
X84412259Y-80725500D01*
X84419137Y-80724630D01*
X84424950Y-80724172D01*
X84471536Y-80722709D01*
X84490778Y-80717117D01*
X84509821Y-80713174D01*
X84529701Y-80710664D01*
X84573031Y-80693507D01*
X84578555Y-80691617D01*
X84582305Y-80690527D01*
X84623299Y-80678618D01*
X84640538Y-80668422D01*
X84658012Y-80659862D01*
X84676636Y-80652488D01*
X84676636Y-80652487D01*
X84676641Y-80652486D01*
X84714358Y-80625082D01*
X84719214Y-80621892D01*
X84759329Y-80598170D01*
X84773498Y-80583999D01*
X84788288Y-80571368D01*
X84804496Y-80559594D01*
X84834208Y-80523676D01*
X84838121Y-80519376D01*
X85656534Y-79700964D01*
X85668789Y-79691148D01*
X85668606Y-79690926D01*
X85674618Y-79685951D01*
X85674624Y-79685948D01*
X85715671Y-79642236D01*
X85733179Y-79626802D01*
X85769409Y-79600480D01*
X85796294Y-79580946D01*
X85862102Y-79557466D01*
X85930155Y-79573292D01*
X85959670Y-79597993D01*
X85959822Y-79597832D01*
X85962641Y-79600480D01*
X85964721Y-79602220D01*
X85965508Y-79603171D01*
X85965509Y-79603172D01*
X85965510Y-79603173D01*
X86015947Y-79650537D01*
X86036826Y-79671416D01*
X86042300Y-79675662D01*
X86046738Y-79679452D01*
X86080714Y-79711358D01*
X86080718Y-79711360D01*
X86098269Y-79721009D01*
X86114527Y-79731688D01*
X86130360Y-79743970D01*
X86152311Y-79753468D01*
X86173133Y-79762479D01*
X86178377Y-79765048D01*
X86219204Y-79787493D01*
X86238608Y-79792475D01*
X86257006Y-79798774D01*
X86275401Y-79806734D01*
X86321425Y-79814022D01*
X86327128Y-79815203D01*
X86372277Y-79826796D01*
X86392312Y-79826796D01*
X86411709Y-79828322D01*
X86431492Y-79831456D01*
X86477879Y-79827071D01*
X86483718Y-79826796D01*
X88215961Y-79826796D01*
X88231581Y-79828520D01*
X88231608Y-79828235D01*
X88239364Y-79828967D01*
X88239371Y-79828969D01*
X88308518Y-79826796D01*
X88338054Y-79826796D01*
X88344932Y-79825926D01*
X88350745Y-79825468D01*
X88397331Y-79824005D01*
X88416573Y-79818413D01*
X88435616Y-79814470D01*
X88455496Y-79811960D01*
X88498826Y-79794803D01*
X88504350Y-79792913D01*
X88508100Y-79791823D01*
X88549094Y-79779914D01*
X88566333Y-79769718D01*
X88583807Y-79761158D01*
X88602431Y-79753784D01*
X88602431Y-79753783D01*
X88602436Y-79753782D01*
X88640153Y-79726378D01*
X88645009Y-79723188D01*
X88685124Y-79699466D01*
X88699293Y-79685295D01*
X88714083Y-79672664D01*
X88730291Y-79660890D01*
X88759999Y-79624977D01*
X88763911Y-79620677D01*
X88954802Y-79429788D01*
X88997773Y-79386818D01*
X89059097Y-79353334D01*
X89085454Y-79350500D01*
X89440353Y-79350500D01*
X89507392Y-79370185D01*
G37*
%TD.AperFunction*%
%TA.AperFunction,Conductor*%
G36*
X78255605Y-74320185D02*
G01*
X78301360Y-74372989D01*
X78311304Y-74442147D01*
X78300948Y-74476904D01*
X78234410Y-74619595D01*
X78223262Y-74643502D01*
X78223258Y-74643511D01*
X78164366Y-74863302D01*
X78164364Y-74863313D01*
X78144532Y-75089998D01*
X78144532Y-75090001D01*
X78164364Y-75316686D01*
X78164367Y-75316700D01*
X78172150Y-75345748D01*
X78170487Y-75415598D01*
X78131324Y-75473460D01*
X78102812Y-75491119D01*
X78047267Y-75515849D01*
X77894129Y-75627111D01*
X77767466Y-75767785D01*
X77672821Y-75931715D01*
X77672818Y-75931722D01*
X77618304Y-76099500D01*
X77614326Y-76111744D01*
X77594540Y-76300000D01*
X77614326Y-76488256D01*
X77614327Y-76488259D01*
X77672818Y-76668277D01*
X77672821Y-76668284D01*
X77767467Y-76832216D01*
X77820410Y-76891015D01*
X77894129Y-76972888D01*
X78047265Y-77084148D01*
X78047270Y-77084151D01*
X78131538Y-77121670D01*
X78184775Y-77166920D01*
X78205096Y-77233769D01*
X78200877Y-77267042D01*
X78164366Y-77403302D01*
X78164364Y-77403313D01*
X78144532Y-77629998D01*
X78144532Y-77630001D01*
X78164364Y-77856686D01*
X78164366Y-77856697D01*
X78223258Y-78076488D01*
X78223261Y-78076497D01*
X78319431Y-78282732D01*
X78319432Y-78282734D01*
X78449954Y-78469141D01*
X78610858Y-78630045D01*
X78610861Y-78630047D01*
X78797266Y-78760568D01*
X78855275Y-78787618D01*
X78907714Y-78833791D01*
X78926866Y-78900984D01*
X78906650Y-78967865D01*
X78855275Y-79012381D01*
X78838272Y-79020310D01*
X78797267Y-79039431D01*
X78797265Y-79039432D01*
X78610858Y-79169954D01*
X78449954Y-79330858D01*
X78421502Y-79371492D01*
X78366925Y-79415116D01*
X78297426Y-79422308D01*
X78235072Y-79390785D01*
X78213197Y-79363489D01*
X78198170Y-79338080D01*
X78198167Y-79338077D01*
X78198165Y-79338074D01*
X78184006Y-79323915D01*
X78171368Y-79309119D01*
X78169956Y-79307176D01*
X78162085Y-79296342D01*
X78159592Y-79292910D01*
X78147170Y-79282634D01*
X78108063Y-79224734D01*
X78102890Y-79200052D01*
X78085674Y-79036244D01*
X78027179Y-78856216D01*
X77932533Y-78692284D01*
X77805871Y-78551612D01*
X77775771Y-78529743D01*
X77652734Y-78440351D01*
X77652729Y-78440348D01*
X77479807Y-78363357D01*
X77479802Y-78363355D01*
X77334001Y-78332365D01*
X77294646Y-78324000D01*
X77105354Y-78324000D01*
X77072897Y-78330898D01*
X76920197Y-78363355D01*
X76920192Y-78363357D01*
X76747270Y-78440348D01*
X76747265Y-78440351D01*
X76594129Y-78551611D01*
X76467466Y-78692285D01*
X76372821Y-78856215D01*
X76372818Y-78856222D01*
X76323449Y-79008165D01*
X76314326Y-79036244D01*
X76294540Y-79224500D01*
X76314326Y-79412756D01*
X76314327Y-79412759D01*
X76372818Y-79592777D01*
X76372821Y-79592784D01*
X76467467Y-79756716D01*
X76563487Y-79863357D01*
X76594129Y-79897388D01*
X76747265Y-80008648D01*
X76747270Y-80008651D01*
X76920191Y-80085642D01*
X76920193Y-80085642D01*
X76920197Y-80085644D01*
X76976282Y-80097564D01*
X77037761Y-80130755D01*
X77071539Y-80191918D01*
X77074500Y-80218854D01*
X77074500Y-80625592D01*
X77054815Y-80692631D01*
X77002011Y-80738386D01*
X76937536Y-80748912D01*
X76931496Y-80748277D01*
X76931492Y-80748277D01*
X76742200Y-80748277D01*
X76709743Y-80755175D01*
X76557043Y-80787632D01*
X76557038Y-80787634D01*
X76384116Y-80864625D01*
X76384111Y-80864628D01*
X76230975Y-80975888D01*
X76104312Y-81116562D01*
X76009667Y-81280492D01*
X76009665Y-81280496D01*
X75987308Y-81349304D01*
X75947869Y-81406979D01*
X75883511Y-81434177D01*
X75814664Y-81422262D01*
X75796496Y-81411306D01*
X75746730Y-81375149D01*
X75746729Y-81375148D01*
X75573807Y-81298157D01*
X75573802Y-81298155D01*
X75428001Y-81267165D01*
X75388646Y-81258800D01*
X75199354Y-81258800D01*
X75152232Y-81268816D01*
X75082565Y-81263498D01*
X75026832Y-81221360D01*
X75002728Y-81155780D01*
X75006349Y-81116688D01*
X75010500Y-81100524D01*
X75010500Y-81080488D01*
X75012027Y-81061087D01*
X75012503Y-81058082D01*
X75015160Y-81041309D01*
X75010775Y-80994920D01*
X75010500Y-80989082D01*
X75010500Y-75576032D01*
X75012219Y-75560459D01*
X75011934Y-75560433D01*
X75012133Y-75558321D01*
X75012579Y-75557201D01*
X75013488Y-75548974D01*
X75014375Y-75545007D01*
X75017192Y-75545636D01*
X75038019Y-75493424D01*
X75094883Y-75452824D01*
X75164669Y-75449412D01*
X75208469Y-75469633D01*
X75279732Y-75521409D01*
X75297270Y-75534151D01*
X75470192Y-75611142D01*
X75470197Y-75611144D01*
X75655354Y-75650500D01*
X75655355Y-75650500D01*
X75844644Y-75650500D01*
X75844646Y-75650500D01*
X76029803Y-75611144D01*
X76202730Y-75534151D01*
X76355871Y-75422888D01*
X76482533Y-75282216D01*
X76577179Y-75118284D01*
X76635674Y-74938256D01*
X76655460Y-74750000D01*
X76635880Y-74563709D01*
X76648449Y-74494983D01*
X76671516Y-74463073D01*
X76797773Y-74336817D01*
X76859095Y-74303334D01*
X76885453Y-74300500D01*
X78188566Y-74300500D01*
X78255605Y-74320185D01*
G37*
%TD.AperFunction*%
%TA.AperFunction,Conductor*%
G36*
X113141531Y-77586563D02*
G01*
X113185877Y-77615063D01*
X113200056Y-77629242D01*
X113210862Y-77640048D01*
X113286491Y-77693003D01*
X113397266Y-77770568D01*
X113603504Y-77866739D01*
X113603509Y-77866740D01*
X113603511Y-77866741D01*
X113637992Y-77875980D01*
X113823308Y-77925635D01*
X113985230Y-77939801D01*
X114049998Y-77945468D01*
X114050000Y-77945468D01*
X114050002Y-77945468D01*
X114106672Y-77940509D01*
X114276692Y-77925635D01*
X114331205Y-77911028D01*
X114401055Y-77912690D01*
X114458918Y-77951851D01*
X114486423Y-78016080D01*
X114487300Y-78030802D01*
X114487300Y-78555150D01*
X114467615Y-78622189D01*
X114451014Y-78642799D01*
X114449662Y-78644150D01*
X114388354Y-78677656D01*
X114361951Y-78680500D01*
X113461143Y-78680500D01*
X113445522Y-78678775D01*
X113445496Y-78679061D01*
X113437734Y-78678327D01*
X113437733Y-78678327D01*
X113368586Y-78680500D01*
X113339049Y-78680500D01*
X113332166Y-78681369D01*
X113326349Y-78681826D01*
X113279773Y-78683290D01*
X113260529Y-78688881D01*
X113241479Y-78692825D01*
X113221611Y-78695334D01*
X113178284Y-78712488D01*
X113172758Y-78714379D01*
X113128014Y-78727379D01*
X113128010Y-78727381D01*
X113110766Y-78737579D01*
X113093305Y-78746133D01*
X113074674Y-78753510D01*
X113074662Y-78753517D01*
X113036970Y-78780902D01*
X113032087Y-78784109D01*
X112991980Y-78807829D01*
X112977814Y-78821995D01*
X112963024Y-78834627D01*
X112946814Y-78846404D01*
X112946811Y-78846407D01*
X112917110Y-78882309D01*
X112913177Y-78886631D01*
X111671984Y-80127824D01*
X111610661Y-80161309D01*
X111540969Y-80156325D01*
X111492154Y-80123117D01*
X111427771Y-80051612D01*
X111373879Y-80012457D01*
X111274634Y-79940351D01*
X111274629Y-79940348D01*
X111101707Y-79863357D01*
X111101702Y-79863355D01*
X110946430Y-79830352D01*
X110916546Y-79824000D01*
X110727254Y-79824000D01*
X110697370Y-79830352D01*
X110542097Y-79863355D01*
X110542092Y-79863357D01*
X110369170Y-79940348D01*
X110369165Y-79940351D01*
X110216029Y-80051611D01*
X110216028Y-80051612D01*
X110115551Y-80163202D01*
X110056064Y-80199850D01*
X109986207Y-80198519D01*
X109950517Y-80180547D01*
X109825134Y-80089451D01*
X109825129Y-80089448D01*
X109652207Y-80012457D01*
X109652202Y-80012455D01*
X109506400Y-79981465D01*
X109467046Y-79973100D01*
X109277754Y-79973100D01*
X109245297Y-79979998D01*
X109092597Y-80012455D01*
X109092592Y-80012457D01*
X108919670Y-80089448D01*
X108919665Y-80089451D01*
X108766529Y-80200711D01*
X108639866Y-80341385D01*
X108545221Y-80505315D01*
X108545218Y-80505322D01*
X108488911Y-80678618D01*
X108486726Y-80685344D01*
X108469268Y-80851448D01*
X108469079Y-80853250D01*
X108442494Y-80917864D01*
X108433439Y-80927969D01*
X108221428Y-81139981D01*
X108160105Y-81173466D01*
X108133747Y-81176300D01*
X107555168Y-81176300D01*
X107488129Y-81156615D01*
X107442374Y-81103811D01*
X107431847Y-81065262D01*
X107431432Y-81061311D01*
X107413274Y-80888544D01*
X107354779Y-80708516D01*
X107260133Y-80544584D01*
X107133471Y-80403912D01*
X107133470Y-80403911D01*
X106980334Y-80292651D01*
X106980329Y-80292648D01*
X106807407Y-80215657D01*
X106807402Y-80215655D01*
X106661601Y-80184665D01*
X106622246Y-80176300D01*
X106432954Y-80176300D01*
X106400497Y-80183198D01*
X106247797Y-80215655D01*
X106247792Y-80215657D01*
X106074870Y-80292648D01*
X106074865Y-80292651D01*
X105921730Y-80403910D01*
X105921726Y-80403914D01*
X105916000Y-80410274D01*
X105856513Y-80446921D01*
X105823852Y-80451300D01*
X104405515Y-80451300D01*
X104338476Y-80431615D01*
X104292721Y-80378811D01*
X104282195Y-80340265D01*
X104263674Y-80164044D01*
X104205179Y-79984016D01*
X104110533Y-79820084D01*
X103983871Y-79679412D01*
X103983870Y-79679411D01*
X103830734Y-79568151D01*
X103830729Y-79568148D01*
X103657807Y-79491157D01*
X103657802Y-79491155D01*
X103512000Y-79460165D01*
X103472646Y-79451800D01*
X103283354Y-79451800D01*
X103250897Y-79458698D01*
X103098197Y-79491155D01*
X103098192Y-79491157D01*
X102925270Y-79568148D01*
X102925265Y-79568151D01*
X102772129Y-79679411D01*
X102645466Y-79820085D01*
X102550821Y-79984015D01*
X102550818Y-79984022D01*
X102492327Y-80164040D01*
X102492326Y-80164044D01*
X102485820Y-80225943D01*
X102477953Y-80300794D01*
X102451368Y-80365409D01*
X102394070Y-80405393D01*
X102324251Y-80408053D01*
X102264078Y-80372543D01*
X102262482Y-80370804D01*
X102257624Y-80365409D01*
X102155071Y-80251512D01*
X102148258Y-80246562D01*
X102001934Y-80140251D01*
X102001929Y-80140248D01*
X101829007Y-80063257D01*
X101829002Y-80063255D01*
X101682961Y-80032214D01*
X101643846Y-80023900D01*
X101454554Y-80023900D01*
X101422097Y-80030798D01*
X101269397Y-80063255D01*
X101269392Y-80063257D01*
X101096470Y-80140248D01*
X101096465Y-80140251D01*
X100943329Y-80251511D01*
X100816666Y-80392185D01*
X100722021Y-80556115D01*
X100722018Y-80556122D01*
X100663865Y-80735100D01*
X100663526Y-80736144D01*
X100647086Y-80892565D01*
X100645879Y-80904049D01*
X100619294Y-80968663D01*
X100610240Y-80978768D01*
X100521428Y-81067581D01*
X100460105Y-81101066D01*
X100433746Y-81103900D01*
X99697567Y-81103900D01*
X99630528Y-81084215D01*
X99584773Y-81031411D01*
X99574829Y-80962253D01*
X99579636Y-80941583D01*
X99587342Y-80917864D01*
X99590074Y-80909456D01*
X99609860Y-80721200D01*
X99590074Y-80532944D01*
X99531579Y-80352916D01*
X99436933Y-80188984D01*
X99310271Y-80048312D01*
X99260921Y-80012457D01*
X99157134Y-79937051D01*
X99157129Y-79937048D01*
X98984207Y-79860057D01*
X98984202Y-79860055D01*
X98837944Y-79828968D01*
X98799046Y-79820700D01*
X98609754Y-79820700D01*
X98585158Y-79825928D01*
X98424597Y-79860055D01*
X98424592Y-79860057D01*
X98251670Y-79937048D01*
X98251665Y-79937051D01*
X98098529Y-80048311D01*
X97971866Y-80188985D01*
X97877221Y-80352915D01*
X97877218Y-80352922D01*
X97818727Y-80532939D01*
X97818725Y-80532950D01*
X97817683Y-80542864D01*
X97791098Y-80607478D01*
X97733800Y-80647462D01*
X97694363Y-80653900D01*
X97627053Y-80653900D01*
X97560014Y-80634215D01*
X97514259Y-80581411D01*
X97504315Y-80512253D01*
X97519666Y-80467900D01*
X97538764Y-80434821D01*
X97577179Y-80368284D01*
X97635674Y-80188256D01*
X97655460Y-80000000D01*
X97635674Y-79811744D01*
X97577179Y-79631716D01*
X97522205Y-79536499D01*
X97505733Y-79468600D01*
X97528586Y-79402573D01*
X97583507Y-79359382D01*
X97629593Y-79350500D01*
X98442257Y-79350500D01*
X98457877Y-79352224D01*
X98457904Y-79351939D01*
X98465660Y-79352671D01*
X98465667Y-79352673D01*
X98534814Y-79350500D01*
X98564350Y-79350500D01*
X98571228Y-79349630D01*
X98577041Y-79349172D01*
X98623627Y-79347709D01*
X98642869Y-79342117D01*
X98661912Y-79338174D01*
X98681792Y-79335664D01*
X98725122Y-79318507D01*
X98730646Y-79316617D01*
X98735833Y-79315110D01*
X98775390Y-79303618D01*
X98792629Y-79293422D01*
X98810103Y-79284862D01*
X98828727Y-79277488D01*
X98828727Y-79277487D01*
X98828732Y-79277486D01*
X98866449Y-79250082D01*
X98871305Y-79246892D01*
X98911420Y-79223170D01*
X98925589Y-79208999D01*
X98940379Y-79196368D01*
X98956587Y-79184594D01*
X98986299Y-79148676D01*
X98990212Y-79144376D01*
X99538072Y-78596518D01*
X99599396Y-78563033D01*
X99625754Y-78560199D01*
X101620096Y-78560199D01*
X101687135Y-78579884D01*
X101692981Y-78583881D01*
X101797265Y-78659648D01*
X101797270Y-78659651D01*
X101970192Y-78736642D01*
X101970197Y-78736644D01*
X102155354Y-78776000D01*
X102155355Y-78776000D01*
X102344644Y-78776000D01*
X102344646Y-78776000D01*
X102529803Y-78736644D01*
X102702730Y-78659651D01*
X102855871Y-78548388D01*
X102982533Y-78407716D01*
X103077179Y-78243784D01*
X103135674Y-78063756D01*
X103151624Y-77911992D01*
X103178207Y-77847381D01*
X103235504Y-77807396D01*
X103305323Y-77804736D01*
X103327349Y-77812575D01*
X103350703Y-77823465D01*
X103443504Y-77866739D01*
X103443510Y-77866740D01*
X103443511Y-77866741D01*
X103477992Y-77875980D01*
X103663308Y-77925635D01*
X103825230Y-77939801D01*
X103889998Y-77945468D01*
X103890000Y-77945468D01*
X103890001Y-77945468D01*
X103904119Y-77944232D01*
X103986499Y-77937025D01*
X104054998Y-77950791D01*
X104105181Y-77999406D01*
X104121115Y-78067435D01*
X104115237Y-78098871D01*
X104068077Y-78244017D01*
X104067126Y-78246944D01*
X104047340Y-78435200D01*
X104067126Y-78623456D01*
X104067127Y-78623459D01*
X104125618Y-78803477D01*
X104125621Y-78803484D01*
X104220267Y-78967416D01*
X104330000Y-79089286D01*
X104346929Y-79108088D01*
X104500065Y-79219348D01*
X104500070Y-79219351D01*
X104672992Y-79296342D01*
X104672997Y-79296344D01*
X104858154Y-79335700D01*
X104858155Y-79335700D01*
X105047444Y-79335700D01*
X105047446Y-79335700D01*
X105232603Y-79296344D01*
X105405530Y-79219351D01*
X105558671Y-79108088D01*
X105685333Y-78967416D01*
X105779979Y-78803484D01*
X105838474Y-78623456D01*
X105846369Y-78548336D01*
X105872952Y-78483724D01*
X105930249Y-78443739D01*
X105969689Y-78437300D01*
X106770032Y-78437300D01*
X106837071Y-78456985D01*
X106882826Y-78509789D01*
X106893352Y-78548335D01*
X106911926Y-78725056D01*
X106911927Y-78725059D01*
X106970418Y-78905077D01*
X106970421Y-78905084D01*
X107065067Y-79069016D01*
X107155952Y-79169954D01*
X107191729Y-79209688D01*
X107344865Y-79320948D01*
X107344870Y-79320951D01*
X107517792Y-79397942D01*
X107517797Y-79397944D01*
X107702954Y-79437300D01*
X107702955Y-79437300D01*
X107892244Y-79437300D01*
X107892246Y-79437300D01*
X108077403Y-79397944D01*
X108250330Y-79320951D01*
X108403471Y-79209688D01*
X108406388Y-79206447D01*
X108409200Y-79203326D01*
X108468687Y-79166679D01*
X108501348Y-79162300D01*
X111121448Y-79162300D01*
X111137068Y-79164024D01*
X111137095Y-79163739D01*
X111144851Y-79164471D01*
X111144858Y-79164473D01*
X111214005Y-79162300D01*
X111243541Y-79162300D01*
X111250419Y-79161430D01*
X111256232Y-79160972D01*
X111302818Y-79159509D01*
X111322060Y-79153917D01*
X111341103Y-79149974D01*
X111360983Y-79147464D01*
X111404313Y-79130307D01*
X111409837Y-79128417D01*
X111413587Y-79127327D01*
X111454581Y-79115418D01*
X111471820Y-79105222D01*
X111489294Y-79096662D01*
X111507918Y-79089288D01*
X111507918Y-79089287D01*
X111507923Y-79089286D01*
X111545640Y-79061882D01*
X111550496Y-79058692D01*
X111590611Y-79034970D01*
X111604780Y-79020799D01*
X111619570Y-79008168D01*
X111635778Y-78996394D01*
X111665490Y-78960476D01*
X111669403Y-78956176D01*
X113010518Y-77615062D01*
X113071839Y-77581579D01*
X113141531Y-77586563D01*
G37*
%TD.AperFunction*%
%TA.AperFunction,Conductor*%
G36*
X81610330Y-80594685D02*
G01*
X81628174Y-80608608D01*
X81629716Y-80610056D01*
X81629718Y-80610057D01*
X81629723Y-80610062D01*
X81647281Y-80619714D01*
X81663542Y-80630396D01*
X81679369Y-80642673D01*
X81679372Y-80642675D01*
X81707307Y-80654763D01*
X81761016Y-80699452D01*
X81782038Y-80766084D01*
X81763699Y-80833504D01*
X81711821Y-80880306D01*
X81658063Y-80892565D01*
X80742647Y-80892565D01*
X80675608Y-80872880D01*
X80629853Y-80820076D01*
X80619909Y-80750918D01*
X80630264Y-80716161D01*
X80633829Y-80708516D01*
X80662704Y-80646593D01*
X80708874Y-80594157D01*
X80775085Y-80575000D01*
X81543291Y-80575000D01*
X81610330Y-80594685D01*
G37*
%TD.AperFunction*%
%TA.AperFunction,Conductor*%
G36*
X51001269Y-58220185D02*
G01*
X51047024Y-58272989D01*
X51056968Y-58342147D01*
X51027943Y-58405703D01*
X50969165Y-58443477D01*
X50966323Y-58444275D01*
X50783511Y-58493258D01*
X50783502Y-58493261D01*
X50577267Y-58589431D01*
X50577265Y-58589432D01*
X50390858Y-58719954D01*
X50229954Y-58880858D01*
X50166401Y-58971623D01*
X50111824Y-59015248D01*
X50064826Y-59024500D01*
X39336342Y-59024500D01*
X39320725Y-59022776D01*
X39320698Y-59023062D01*
X39312936Y-59022327D01*
X39243808Y-59024500D01*
X39214254Y-59024500D01*
X39213533Y-59024590D01*
X39207361Y-59025369D01*
X39201549Y-59025826D01*
X39154977Y-59027290D01*
X39154976Y-59027290D01*
X39135733Y-59032881D01*
X39116683Y-59036825D01*
X39096815Y-59039334D01*
X39053488Y-59056488D01*
X39047962Y-59058379D01*
X39003218Y-59071379D01*
X39003214Y-59071381D01*
X38985970Y-59081579D01*
X38968509Y-59090133D01*
X38949878Y-59097510D01*
X38949866Y-59097517D01*
X38912174Y-59124902D01*
X38907291Y-59128109D01*
X38867184Y-59151829D01*
X38853018Y-59165995D01*
X38838228Y-59178627D01*
X38822018Y-59190404D01*
X38822015Y-59190407D01*
X38792314Y-59226309D01*
X38788381Y-59230631D01*
X37698153Y-60320858D01*
X37673602Y-60339904D01*
X37670777Y-60341575D01*
X37653298Y-60350139D01*
X37634673Y-60357513D01*
X37634671Y-60357514D01*
X37596980Y-60384898D01*
X37592098Y-60388105D01*
X37551983Y-60411830D01*
X37537812Y-60426000D01*
X37523027Y-60438628D01*
X37506816Y-60450407D01*
X37477113Y-60486310D01*
X37473181Y-60490630D01*
X37434396Y-60529416D01*
X37265630Y-60698182D01*
X37204310Y-60731666D01*
X37177951Y-60734500D01*
X36811804Y-60734500D01*
X36774932Y-60737401D01*
X36774926Y-60737402D01*
X36617106Y-60783254D01*
X36617103Y-60783255D01*
X36475640Y-60866915D01*
X36469474Y-60871699D01*
X36467584Y-60869262D01*
X36418796Y-60895871D01*
X36349107Y-60890850D01*
X36316794Y-60870072D01*
X36315531Y-60871702D01*
X36309362Y-60866917D01*
X36205130Y-60805275D01*
X36167898Y-60783256D01*
X36167897Y-60783255D01*
X36167896Y-60783255D01*
X36167893Y-60783254D01*
X36010073Y-60737402D01*
X36010067Y-60737401D01*
X35973196Y-60734500D01*
X35973194Y-60734500D01*
X35541806Y-60734500D01*
X35541804Y-60734500D01*
X35504932Y-60737401D01*
X35504926Y-60737402D01*
X35347106Y-60783254D01*
X35347103Y-60783255D01*
X35205637Y-60866917D01*
X35205629Y-60866923D01*
X35089423Y-60983129D01*
X35089417Y-60983137D01*
X35005755Y-61124603D01*
X35005754Y-61124606D01*
X34959902Y-61282426D01*
X34959901Y-61282432D01*
X34957000Y-61319304D01*
X34957000Y-62625696D01*
X34959901Y-62662565D01*
X35007009Y-62824712D01*
X35006809Y-62894582D01*
X34968867Y-62953252D01*
X34905228Y-62982095D01*
X34853337Y-62978383D01*
X34695073Y-62932402D01*
X34695067Y-62932401D01*
X34658196Y-62929500D01*
X34658194Y-62929500D01*
X33498291Y-62929500D01*
X33431252Y-62909815D01*
X33406141Y-62888473D01*
X33392516Y-62873341D01*
X33305871Y-62777112D01*
X33261999Y-62745237D01*
X33152734Y-62665851D01*
X33152729Y-62665848D01*
X32979807Y-62588857D01*
X32979802Y-62588855D01*
X32824977Y-62555947D01*
X32794646Y-62549500D01*
X32605354Y-62549500D01*
X32575023Y-62555947D01*
X32420197Y-62588855D01*
X32420192Y-62588857D01*
X32247270Y-62665848D01*
X32247265Y-62665851D01*
X32094129Y-62777111D01*
X31967466Y-62917785D01*
X31872821Y-63081715D01*
X31872818Y-63081722D01*
X31816736Y-63254327D01*
X31814326Y-63261744D01*
X31794540Y-63450000D01*
X31814326Y-63638256D01*
X31814327Y-63638259D01*
X31872818Y-63818277D01*
X31872821Y-63818284D01*
X31967467Y-63982216D01*
X32069079Y-64095067D01*
X32094129Y-64122888D01*
X32247265Y-64234148D01*
X32247270Y-64234151D01*
X32420191Y-64311142D01*
X32420193Y-64311142D01*
X32420197Y-64311144D01*
X32570711Y-64343136D01*
X32632189Y-64376327D01*
X32665966Y-64437489D01*
X32661314Y-64507204D01*
X32640483Y-64543450D01*
X32637696Y-64546820D01*
X32579803Y-64585937D01*
X32542140Y-64591795D01*
X32487649Y-64591795D01*
X32455192Y-64598693D01*
X32302492Y-64631150D01*
X32302487Y-64631152D01*
X32129565Y-64708143D01*
X32129560Y-64708146D01*
X31976424Y-64819406D01*
X31849761Y-64960080D01*
X31755116Y-65124010D01*
X31755113Y-65124017D01*
X31701183Y-65289999D01*
X31696621Y-65304039D01*
X31676835Y-65492295D01*
X31696621Y-65680551D01*
X31696622Y-65680554D01*
X31755113Y-65860572D01*
X31755116Y-65860579D01*
X31849762Y-66024511D01*
X31967612Y-66155396D01*
X31971149Y-66159324D01*
X32001379Y-66222315D01*
X31992754Y-66291650D01*
X31986387Y-66304295D01*
X31912820Y-66431718D01*
X31912818Y-66431722D01*
X31856192Y-66606000D01*
X31854326Y-66611744D01*
X31841717Y-66731716D01*
X31834547Y-66799938D01*
X31834540Y-66800000D01*
X31854326Y-66988256D01*
X31854327Y-66988259D01*
X31912818Y-67168277D01*
X31912821Y-67168284D01*
X32007467Y-67332216D01*
X32047205Y-67376349D01*
X32134129Y-67472888D01*
X32287265Y-67584148D01*
X32287270Y-67584151D01*
X32460192Y-67661142D01*
X32460197Y-67661144D01*
X32645354Y-67700500D01*
X32650052Y-67700500D01*
X32717091Y-67720185D01*
X32762846Y-67772989D01*
X32769128Y-67789905D01*
X32815754Y-67950393D01*
X32815755Y-67950396D01*
X32898430Y-68090194D01*
X32899419Y-68091865D01*
X32899421Y-68091867D01*
X32904199Y-68098026D01*
X32901754Y-68099922D01*
X32928357Y-68148641D01*
X32923373Y-68218333D01*
X32902582Y-68250719D01*
X32904199Y-68251974D01*
X32899415Y-68258140D01*
X32815755Y-68399603D01*
X32815754Y-68399606D01*
X32769902Y-68557426D01*
X32769901Y-68557432D01*
X32767000Y-68594304D01*
X32767000Y-69025696D01*
X32769901Y-69062567D01*
X32769902Y-69062573D01*
X32815754Y-69220393D01*
X32815755Y-69220396D01*
X32815756Y-69220398D01*
X32824282Y-69234815D01*
X32895249Y-69354815D01*
X32899419Y-69361865D01*
X32899421Y-69361867D01*
X32904199Y-69368026D01*
X32901754Y-69369922D01*
X32928357Y-69418641D01*
X32923373Y-69488333D01*
X32902582Y-69520719D01*
X32904199Y-69521974D01*
X32899415Y-69528140D01*
X32815755Y-69669603D01*
X32815754Y-69669606D01*
X32769902Y-69827426D01*
X32769901Y-69827432D01*
X32767000Y-69864304D01*
X32767000Y-70295696D01*
X32769367Y-70325772D01*
X32755002Y-70394149D01*
X32705951Y-70443905D01*
X32645749Y-70459500D01*
X32625354Y-70459500D01*
X32592897Y-70466398D01*
X32440197Y-70498855D01*
X32440192Y-70498857D01*
X32267270Y-70575848D01*
X32267265Y-70575851D01*
X32114129Y-70687111D01*
X31987466Y-70827785D01*
X31892821Y-70991715D01*
X31892818Y-70991722D01*
X31834327Y-71171740D01*
X31834326Y-71171744D01*
X31814540Y-71360000D01*
X31834326Y-71548256D01*
X31834327Y-71548259D01*
X31892818Y-71728277D01*
X31892821Y-71728284D01*
X31987467Y-71892216D01*
X32094941Y-72011578D01*
X32114129Y-72032888D01*
X32267265Y-72144148D01*
X32267270Y-72144151D01*
X32440192Y-72221142D01*
X32440197Y-72221144D01*
X32625354Y-72260500D01*
X32644175Y-72260500D01*
X32711214Y-72280185D01*
X32756969Y-72332989D01*
X32767793Y-72394227D01*
X32767000Y-72404303D01*
X32767000Y-72835696D01*
X32769901Y-72872567D01*
X32769902Y-72872573D01*
X32815754Y-73030393D01*
X32815755Y-73030396D01*
X32815756Y-73030398D01*
X32826899Y-73049240D01*
X32894622Y-73163755D01*
X32899419Y-73171865D01*
X32899421Y-73171867D01*
X32904199Y-73178026D01*
X32901754Y-73179922D01*
X32928357Y-73228641D01*
X32923373Y-73298333D01*
X32902582Y-73330719D01*
X32904199Y-73331974D01*
X32899415Y-73338140D01*
X32815755Y-73479603D01*
X32815754Y-73479606D01*
X32769902Y-73637426D01*
X32769901Y-73637432D01*
X32767000Y-73674304D01*
X32767000Y-74105696D01*
X32769901Y-74142567D01*
X32769902Y-74142573D01*
X32815754Y-74300393D01*
X32815755Y-74300396D01*
X32815756Y-74300398D01*
X32850569Y-74359264D01*
X32899417Y-74441862D01*
X32899423Y-74441870D01*
X33015629Y-74558076D01*
X33015633Y-74558079D01*
X33015635Y-74558081D01*
X33157102Y-74641744D01*
X33163153Y-74643502D01*
X33314926Y-74687597D01*
X33314929Y-74687597D01*
X33314931Y-74687598D01*
X33327222Y-74688565D01*
X33351804Y-74690500D01*
X33351806Y-74690500D01*
X34658196Y-74690500D01*
X34676631Y-74689049D01*
X34695069Y-74687598D01*
X34852898Y-74641744D01*
X34852900Y-74641742D01*
X34853336Y-74641616D01*
X34923206Y-74641815D01*
X34981876Y-74679757D01*
X35010720Y-74743395D01*
X35007009Y-74795286D01*
X34959901Y-74957432D01*
X34957000Y-74994304D01*
X34957000Y-76300696D01*
X34959901Y-76337567D01*
X34959902Y-76337573D01*
X34990650Y-76443405D01*
X34990451Y-76513274D01*
X34952509Y-76571944D01*
X34888871Y-76600788D01*
X34871574Y-76602000D01*
X34703354Y-76602000D01*
X34673352Y-76608377D01*
X34518197Y-76641355D01*
X34518192Y-76641357D01*
X34345270Y-76718348D01*
X34345265Y-76718351D01*
X34192129Y-76829611D01*
X34065466Y-76970285D01*
X33970821Y-77134215D01*
X33970819Y-77134219D01*
X33927670Y-77267019D01*
X33888232Y-77324694D01*
X33823873Y-77351892D01*
X33783958Y-77349990D01*
X33673446Y-77326500D01*
X33484154Y-77326500D01*
X33451697Y-77333398D01*
X33298997Y-77365855D01*
X33298992Y-77365857D01*
X33126070Y-77442848D01*
X33126065Y-77442851D01*
X32972929Y-77554111D01*
X32846267Y-77694783D01*
X32787293Y-77796929D01*
X32736725Y-77845144D01*
X32668118Y-77858366D01*
X32654126Y-77856218D01*
X32475496Y-77818250D01*
X32286204Y-77818250D01*
X32261669Y-77823465D01*
X32101047Y-77857605D01*
X32101042Y-77857607D01*
X31928120Y-77934598D01*
X31928115Y-77934601D01*
X31774982Y-78045859D01*
X31774979Y-78045861D01*
X31774979Y-78045862D01*
X31758867Y-78063756D01*
X31716694Y-78110593D01*
X31657207Y-78147240D01*
X31587350Y-78145909D01*
X31574109Y-78140898D01*
X31497207Y-78106658D01*
X31497201Y-78106656D01*
X31351399Y-78075666D01*
X31312045Y-78067301D01*
X31122753Y-78067301D01*
X31090296Y-78074199D01*
X30937596Y-78106656D01*
X30937591Y-78106658D01*
X30764669Y-78183649D01*
X30764664Y-78183652D01*
X30611528Y-78294912D01*
X30484865Y-78435586D01*
X30390220Y-78599516D01*
X30390217Y-78599523D01*
X30332877Y-78776000D01*
X30331725Y-78779545D01*
X30311939Y-78967801D01*
X30331725Y-79156057D01*
X30331726Y-79156060D01*
X30390217Y-79336078D01*
X30390219Y-79336082D01*
X30390220Y-79336085D01*
X30438151Y-79419104D01*
X30471284Y-79476493D01*
X30487756Y-79544393D01*
X30464903Y-79610420D01*
X30456047Y-79621463D01*
X30372415Y-79714347D01*
X30277770Y-79878277D01*
X30277767Y-79878284D01*
X30222522Y-80048312D01*
X30219275Y-80058306D01*
X30199489Y-80246562D01*
X30219275Y-80434818D01*
X30219276Y-80434821D01*
X30277767Y-80614839D01*
X30280411Y-80620776D01*
X30278919Y-80621439D01*
X30293465Y-80681405D01*
X30270611Y-80747431D01*
X30215688Y-80790619D01*
X30169606Y-80799500D01*
X29124000Y-80799500D01*
X29056961Y-80779815D01*
X29011206Y-80727011D01*
X29000000Y-80675500D01*
X29000000Y-58324500D01*
X29019685Y-58257461D01*
X29072489Y-58211706D01*
X29124000Y-58200500D01*
X40943827Y-58200500D01*
X50934230Y-58200500D01*
X51001269Y-58220185D01*
G37*
%TD.AperFunction*%
%TA.AperFunction,Conductor*%
G36*
X121142539Y-58220185D02*
G01*
X121188294Y-58272989D01*
X121199500Y-58324500D01*
X121199500Y-80675500D01*
X121179815Y-80742539D01*
X121127011Y-80788294D01*
X121075500Y-80799500D01*
X117667007Y-80799500D01*
X117599968Y-80779815D01*
X117554213Y-80727011D01*
X117544269Y-80657853D01*
X117573294Y-80594297D01*
X117579326Y-80587819D01*
X117763235Y-80403910D01*
X118685192Y-79481951D01*
X118688859Y-79478571D01*
X118731100Y-79442693D01*
X118780097Y-79378237D01*
X118830841Y-79315110D01*
X118830842Y-79315107D01*
X118831480Y-79314109D01*
X118842406Y-79296494D01*
X118843043Y-79295433D01*
X118843054Y-79295420D01*
X118877066Y-79221903D01*
X118913036Y-79149377D01*
X118913039Y-79149364D01*
X118913452Y-79148242D01*
X118920389Y-79128539D01*
X118920727Y-79127533D01*
X118920732Y-79127523D01*
X118938141Y-79048429D01*
X118957684Y-78969851D01*
X118957683Y-78969851D01*
X118957685Y-78969847D01*
X118957830Y-78968782D01*
X118960371Y-78948033D01*
X118960500Y-78946853D01*
X118960500Y-78865887D01*
X118961708Y-78821292D01*
X118962693Y-78784924D01*
X118962692Y-78784923D01*
X118962693Y-78784920D01*
X118962608Y-78783876D01*
X118960500Y-78761708D01*
X118960500Y-61047898D01*
X118960705Y-61042863D01*
X118965201Y-60987647D01*
X118964586Y-60983135D01*
X118954270Y-60907418D01*
X118945514Y-60826901D01*
X118945513Y-60826899D01*
X118945513Y-60826895D01*
X118945280Y-60825837D01*
X118940497Y-60805432D01*
X118940227Y-60804343D01*
X118912299Y-60728324D01*
X118909509Y-60720045D01*
X118886444Y-60651590D01*
X118886441Y-60651586D01*
X118886441Y-60651584D01*
X118886006Y-60650642D01*
X118876895Y-60631629D01*
X118876433Y-60630698D01*
X118876432Y-60630695D01*
X118832815Y-60562457D01*
X118791070Y-60493075D01*
X118791069Y-60493074D01*
X118791068Y-60493072D01*
X118790457Y-60492269D01*
X118777493Y-60475685D01*
X118776804Y-60474829D01*
X118776800Y-60474822D01*
X118719539Y-60417561D01*
X118663849Y-60358770D01*
X118663088Y-60358123D01*
X118645881Y-60343903D01*
X117771977Y-59469999D01*
X116896796Y-58594818D01*
X116893393Y-58591126D01*
X116891390Y-58588769D01*
X116857526Y-58548900D01*
X116832420Y-58529815D01*
X116793080Y-58499909D01*
X116729948Y-58449162D01*
X116729947Y-58449161D01*
X116729943Y-58449158D01*
X116729937Y-58449155D01*
X116729043Y-58448583D01*
X116711208Y-58437520D01*
X116704495Y-58433482D01*
X116705148Y-58432395D01*
X116657877Y-58391026D01*
X116638521Y-58323891D01*
X116658535Y-58256949D01*
X116711563Y-58211454D01*
X116762520Y-58200500D01*
X121075500Y-58200500D01*
X121142539Y-58220185D01*
G37*
%TD.AperFunction*%
%TA.AperFunction,Conductor*%
G36*
X80797261Y-78153198D02*
G01*
X80842595Y-78206364D01*
X80852716Y-78244016D01*
X80863826Y-78349715D01*
X80863827Y-78349718D01*
X80922318Y-78529736D01*
X80922321Y-78529743D01*
X81016967Y-78693675D01*
X81115840Y-78803484D01*
X81143629Y-78834347D01*
X81296765Y-78945607D01*
X81296770Y-78945610D01*
X81469692Y-79022601D01*
X81469697Y-79022603D01*
X81654854Y-79061959D01*
X81654855Y-79061959D01*
X81844144Y-79061959D01*
X81844146Y-79061959D01*
X82029303Y-79022603D01*
X82202230Y-78945610D01*
X82355371Y-78834347D01*
X82360281Y-78828894D01*
X82361100Y-78827985D01*
X82420587Y-78791338D01*
X82453248Y-78786959D01*
X82786200Y-78786959D01*
X82853239Y-78806644D01*
X82873881Y-78823278D01*
X83198889Y-79148286D01*
X83208714Y-79160550D01*
X83208935Y-79160368D01*
X83213905Y-79166375D01*
X83213908Y-79166378D01*
X83213909Y-79166379D01*
X83264346Y-79213743D01*
X83285225Y-79234622D01*
X83290699Y-79238868D01*
X83295127Y-79242649D01*
X83313713Y-79260103D01*
X83313720Y-79260109D01*
X83349114Y-79320350D01*
X83346320Y-79390164D01*
X83306226Y-79447385D01*
X83241561Y-79473845D01*
X83228835Y-79474500D01*
X82306820Y-79474500D01*
X82239781Y-79454815D01*
X82221937Y-79440892D01*
X82220394Y-79439443D01*
X82220388Y-79439439D01*
X82220387Y-79439438D01*
X82219710Y-79439066D01*
X82202834Y-79429788D01*
X82186568Y-79419104D01*
X82178388Y-79412759D01*
X82170741Y-79406827D01*
X82170740Y-79406826D01*
X82170738Y-79406825D01*
X82127973Y-79388318D01*
X82122727Y-79385748D01*
X82081898Y-79363303D01*
X82081897Y-79363302D01*
X82062498Y-79358322D01*
X82044086Y-79352018D01*
X82025703Y-79344062D01*
X82025697Y-79344060D01*
X81979679Y-79336772D01*
X81973957Y-79335587D01*
X81928826Y-79324000D01*
X81928824Y-79324000D01*
X81908789Y-79324000D01*
X81889391Y-79322473D01*
X81879762Y-79320948D01*
X81869610Y-79319340D01*
X81869609Y-79319340D01*
X81823221Y-79323725D01*
X81817383Y-79324000D01*
X80494548Y-79324000D01*
X80427509Y-79304315D01*
X80406871Y-79287685D01*
X80289139Y-79169953D01*
X80289138Y-79169952D01*
X80289137Y-79169951D01*
X80102734Y-79039432D01*
X80102728Y-79039429D01*
X80062806Y-79020813D01*
X80044724Y-79012381D01*
X79992285Y-78966210D01*
X79973133Y-78899017D01*
X79993348Y-78832135D01*
X80044725Y-78787618D01*
X80102734Y-78760568D01*
X80289139Y-78630047D01*
X80450047Y-78469139D01*
X80580568Y-78282734D01*
X80617014Y-78204574D01*
X80663186Y-78152135D01*
X80730379Y-78132983D01*
X80797261Y-78153198D01*
G37*
%TD.AperFunction*%
%TA.AperFunction,Conductor*%
G36*
X69167877Y-74362224D02*
G01*
X69167904Y-74361939D01*
X69175660Y-74362671D01*
X69175667Y-74362673D01*
X69244814Y-74360500D01*
X69274350Y-74360500D01*
X69275863Y-74360500D01*
X69342902Y-74380185D01*
X69388657Y-74432989D01*
X69398601Y-74502147D01*
X69395638Y-74516593D01*
X69364366Y-74633302D01*
X69364364Y-74633313D01*
X69344532Y-74859998D01*
X69344532Y-74860001D01*
X69364364Y-75086686D01*
X69364366Y-75086697D01*
X69423258Y-75306488D01*
X69423261Y-75306497D01*
X69519431Y-75512732D01*
X69519432Y-75512734D01*
X69649954Y-75699141D01*
X69810858Y-75860045D01*
X69835462Y-75877273D01*
X69879087Y-75931849D01*
X69886281Y-76001348D01*
X69854758Y-76063703D01*
X69794529Y-76099117D01*
X69777593Y-76102138D01*
X69742516Y-76105908D01*
X69607671Y-76156202D01*
X69607664Y-76156206D01*
X69492455Y-76242452D01*
X69492452Y-76242455D01*
X69406206Y-76357664D01*
X69406202Y-76357671D01*
X69355908Y-76492517D01*
X69349501Y-76552116D01*
X69349500Y-76552135D01*
X69349500Y-77764546D01*
X69329815Y-77831585D01*
X69313181Y-77852227D01*
X68209828Y-78955581D01*
X68148505Y-78989066D01*
X68122147Y-78991900D01*
X66965968Y-78991900D01*
X66898929Y-78972215D01*
X66853174Y-78919411D01*
X66842647Y-78880862D01*
X66841073Y-78865887D01*
X66824074Y-78704144D01*
X66765579Y-78524116D01*
X66670933Y-78360184D01*
X66544271Y-78219512D01*
X66544270Y-78219511D01*
X66391134Y-78108251D01*
X66391129Y-78108248D01*
X66218207Y-78031257D01*
X66218202Y-78031255D01*
X66068359Y-77999406D01*
X66033046Y-77991900D01*
X65843754Y-77991900D01*
X65811297Y-77998798D01*
X65658597Y-78031255D01*
X65658592Y-78031257D01*
X65485670Y-78108248D01*
X65485665Y-78108251D01*
X65332530Y-78219510D01*
X65332526Y-78219514D01*
X65326800Y-78225874D01*
X65267313Y-78262521D01*
X65234652Y-78266900D01*
X64248809Y-78266900D01*
X64181770Y-78247215D01*
X64136015Y-78194411D01*
X64126071Y-78125253D01*
X64147233Y-78071778D01*
X64150368Y-78067301D01*
X64160568Y-78052734D01*
X64256739Y-77846496D01*
X64315635Y-77626692D01*
X64335179Y-77403302D01*
X64335468Y-77400001D01*
X64335468Y-77399998D01*
X64324383Y-77273302D01*
X64315635Y-77173308D01*
X64261933Y-76972888D01*
X64256741Y-76953511D01*
X64256738Y-76953502D01*
X64223675Y-76882598D01*
X64160568Y-76747266D01*
X64030047Y-76560861D01*
X64030045Y-76560858D01*
X63869141Y-76399954D01*
X63682734Y-76269432D01*
X63682728Y-76269429D01*
X63649203Y-76253796D01*
X63624724Y-76242381D01*
X63572285Y-76196210D01*
X63553133Y-76129017D01*
X63573348Y-76062135D01*
X63624725Y-76017618D01*
X63682734Y-75990568D01*
X63869139Y-75860047D01*
X64030047Y-75699139D01*
X64160568Y-75512734D01*
X64256739Y-75306496D01*
X64315635Y-75086692D01*
X64335468Y-74860000D01*
X64315635Y-74633308D01*
X64296459Y-74561740D01*
X64284362Y-74516593D01*
X64286025Y-74446743D01*
X64325188Y-74388881D01*
X64389417Y-74361377D01*
X64404137Y-74360500D01*
X69152257Y-74360500D01*
X69167877Y-74362224D01*
G37*
%TD.AperFunction*%
%TA.AperFunction,Conductor*%
G36*
X115387862Y-61943348D02*
G01*
X115432380Y-61994722D01*
X115459432Y-62052734D01*
X115481925Y-62084857D01*
X115589954Y-62239141D01*
X115750858Y-62400045D01*
X115753253Y-62401722D01*
X115937266Y-62530568D01*
X116143504Y-62626739D01*
X116363308Y-62685635D01*
X116525230Y-62699801D01*
X116589998Y-62705468D01*
X116590000Y-62705468D01*
X116590002Y-62705468D01*
X116646672Y-62700509D01*
X116816692Y-62685635D01*
X117036496Y-62626739D01*
X117083096Y-62605008D01*
X117152172Y-62594517D01*
X117215956Y-62623036D01*
X117254196Y-62681513D01*
X117259500Y-62717391D01*
X117259500Y-75323160D01*
X117239815Y-75390199D01*
X117187011Y-75435954D01*
X117117853Y-75445898D01*
X117083096Y-75435542D01*
X117036330Y-75413735D01*
X116840000Y-75361127D01*
X116840000Y-76129424D01*
X116820315Y-76196463D01*
X116767511Y-76242218D01*
X116698353Y-76252162D01*
X116696602Y-76251897D01*
X116621486Y-76240000D01*
X116621481Y-76240000D01*
X116558519Y-76240000D01*
X116558514Y-76240000D01*
X116483398Y-76251897D01*
X116414104Y-76242942D01*
X116360652Y-76197946D01*
X116340013Y-76131194D01*
X116340000Y-76129424D01*
X116340000Y-75361127D01*
X116143671Y-75413734D01*
X115937517Y-75509865D01*
X115751179Y-75640342D01*
X115590342Y-75801179D01*
X115459867Y-75987515D01*
X115432657Y-76045867D01*
X115386484Y-76098306D01*
X115319290Y-76117457D01*
X115252409Y-76097241D01*
X115207893Y-76045865D01*
X115194721Y-76017618D01*
X115180568Y-75987266D01*
X115180566Y-75987264D01*
X115180566Y-75987262D01*
X115157925Y-75954927D01*
X115135598Y-75888720D01*
X115135500Y-75883804D01*
X115135500Y-73128687D01*
X115155185Y-73061648D01*
X115167350Y-73045715D01*
X115188064Y-73022709D01*
X115242533Y-72962216D01*
X115337179Y-72798284D01*
X115395674Y-72618256D01*
X115415460Y-72430000D01*
X115395674Y-72241744D01*
X115337179Y-72061716D01*
X115242533Y-71897784D01*
X115115871Y-71757112D01*
X115093022Y-71740511D01*
X114962734Y-71645851D01*
X114962729Y-71645848D01*
X114789807Y-71568857D01*
X114789802Y-71568855D01*
X114626513Y-71534148D01*
X114604646Y-71529500D01*
X114459500Y-71529500D01*
X114392461Y-71509815D01*
X114346706Y-71457011D01*
X114335500Y-71405500D01*
X114335499Y-68892750D01*
X114337224Y-68877128D01*
X114336938Y-68877101D01*
X114337671Y-68869341D01*
X114337673Y-68869333D01*
X114335500Y-68800185D01*
X114335500Y-68770650D01*
X114334631Y-68763772D01*
X114334172Y-68757943D01*
X114332709Y-68711372D01*
X114327122Y-68692144D01*
X114323174Y-68673084D01*
X114320664Y-68653208D01*
X114320663Y-68653206D01*
X114320663Y-68653204D01*
X114303512Y-68609887D01*
X114301619Y-68604358D01*
X114288618Y-68559609D01*
X114288616Y-68559606D01*
X114278423Y-68542371D01*
X114269861Y-68524894D01*
X114262487Y-68506270D01*
X114258917Y-68501356D01*
X114235079Y-68468545D01*
X114231888Y-68463686D01*
X114223347Y-68449244D01*
X114208170Y-68423580D01*
X114208168Y-68423578D01*
X114208165Y-68423574D01*
X114194006Y-68409415D01*
X114181368Y-68394619D01*
X114177301Y-68389021D01*
X114169594Y-68378413D01*
X114169457Y-68378300D01*
X114133688Y-68348709D01*
X114129376Y-68344786D01*
X111828303Y-66043712D01*
X111818480Y-66031450D01*
X111818259Y-66031634D01*
X111813286Y-66025623D01*
X111805665Y-66018466D01*
X111762864Y-65978273D01*
X111747743Y-65963152D01*
X111741975Y-65957383D01*
X111736486Y-65953125D01*
X111732061Y-65949347D01*
X111705399Y-65924309D01*
X111670005Y-65864067D01*
X111672799Y-65794253D01*
X111702601Y-65746239D01*
X111893788Y-65555052D01*
X111906042Y-65545237D01*
X111905859Y-65545015D01*
X111911866Y-65540043D01*
X111911877Y-65540037D01*
X111951081Y-65498289D01*
X111959227Y-65489615D01*
X111969671Y-65479169D01*
X111980120Y-65468722D01*
X111984379Y-65463229D01*
X111988152Y-65458812D01*
X112020062Y-65424833D01*
X112029713Y-65407275D01*
X112040396Y-65391012D01*
X112052673Y-65375187D01*
X112071185Y-65332404D01*
X112073738Y-65327192D01*
X112096197Y-65286343D01*
X112101180Y-65266931D01*
X112107481Y-65248531D01*
X112115437Y-65230147D01*
X112122729Y-65184103D01*
X112123906Y-65178422D01*
X112135500Y-65133270D01*
X112135500Y-65113233D01*
X112137027Y-65093833D01*
X112137448Y-65091177D01*
X112140160Y-65074055D01*
X112135775Y-65027666D01*
X112135500Y-65021828D01*
X112135500Y-62614188D01*
X112155185Y-62547149D01*
X112188377Y-62512613D01*
X112295984Y-62437266D01*
X112349139Y-62400047D01*
X112510047Y-62239139D01*
X112640568Y-62052734D01*
X112667619Y-61994721D01*
X112713788Y-61942286D01*
X112780981Y-61923133D01*
X112847862Y-61943348D01*
X112892380Y-61994722D01*
X112919432Y-62052734D01*
X112941925Y-62084857D01*
X113049954Y-62239141D01*
X113210858Y-62400045D01*
X113213253Y-62401722D01*
X113397266Y-62530568D01*
X113603504Y-62626739D01*
X113823308Y-62685635D01*
X113985230Y-62699801D01*
X114049998Y-62705468D01*
X114050000Y-62705468D01*
X114050002Y-62705468D01*
X114106672Y-62700509D01*
X114276692Y-62685635D01*
X114496496Y-62626739D01*
X114702734Y-62530568D01*
X114889139Y-62400047D01*
X115050047Y-62239139D01*
X115180568Y-62052734D01*
X115207619Y-61994721D01*
X115253788Y-61942286D01*
X115320981Y-61923133D01*
X115387862Y-61943348D01*
G37*
%TD.AperFunction*%
%TA.AperFunction,Conductor*%
G36*
X72605703Y-72296955D02*
G01*
X72612167Y-72302974D01*
X72642182Y-72332989D01*
X72667478Y-72358285D01*
X72677303Y-72370547D01*
X72677523Y-72370366D01*
X72682493Y-72376373D01*
X72682496Y-72376376D01*
X72682497Y-72376377D01*
X72732934Y-72423741D01*
X72753813Y-72444620D01*
X72759287Y-72448866D01*
X72763725Y-72452656D01*
X72797701Y-72484562D01*
X72807294Y-72489836D01*
X72815256Y-72494213D01*
X72831514Y-72504892D01*
X72847347Y-72517174D01*
X72860832Y-72523009D01*
X72890120Y-72535683D01*
X72895364Y-72538252D01*
X72936191Y-72560697D01*
X72955595Y-72565679D01*
X72973993Y-72571978D01*
X72992388Y-72579938D01*
X73038412Y-72587226D01*
X73044115Y-72588407D01*
X73089264Y-72600000D01*
X73109299Y-72600000D01*
X73128696Y-72601526D01*
X73148479Y-72604660D01*
X73194866Y-72600275D01*
X73200705Y-72600000D01*
X73864048Y-72600000D01*
X73931087Y-72619685D01*
X73951729Y-72636319D01*
X74299194Y-72983784D01*
X74309019Y-72996048D01*
X74309240Y-72995866D01*
X74314210Y-73001873D01*
X74314213Y-73001876D01*
X74314214Y-73001877D01*
X74364651Y-73049241D01*
X74385530Y-73070120D01*
X74391004Y-73074366D01*
X74395442Y-73078156D01*
X74429418Y-73110062D01*
X74429422Y-73110064D01*
X74446973Y-73119713D01*
X74463231Y-73130392D01*
X74479064Y-73142674D01*
X74501015Y-73152172D01*
X74521837Y-73161183D01*
X74527081Y-73163752D01*
X74567908Y-73186197D01*
X74587312Y-73191179D01*
X74605710Y-73197478D01*
X74624105Y-73205438D01*
X74670129Y-73212726D01*
X74675832Y-73213907D01*
X74720981Y-73225500D01*
X74741016Y-73225500D01*
X74760413Y-73227026D01*
X74780196Y-73230160D01*
X74826583Y-73225775D01*
X74832422Y-73225500D01*
X75840546Y-73225500D01*
X75907585Y-73245185D01*
X75953340Y-73297989D01*
X75963284Y-73367147D01*
X75934259Y-73430703D01*
X75928227Y-73437181D01*
X75497903Y-73867504D01*
X75460659Y-73893102D01*
X75297267Y-73965850D01*
X75297265Y-73965851D01*
X75144129Y-74077111D01*
X75017466Y-74217785D01*
X74922821Y-74381715D01*
X74922818Y-74381722D01*
X74865516Y-74558081D01*
X74864326Y-74561744D01*
X74845736Y-74738618D01*
X74844540Y-74750002D01*
X74845315Y-74757378D01*
X74832744Y-74826108D01*
X74785010Y-74877130D01*
X74717269Y-74894246D01*
X74651029Y-74872021D01*
X74634313Y-74858017D01*
X72436819Y-72660523D01*
X72403334Y-72599200D01*
X72400500Y-72572842D01*
X72400500Y-72390668D01*
X72420185Y-72323629D01*
X72472989Y-72277874D01*
X72542147Y-72267930D01*
X72605703Y-72296955D01*
G37*
%TD.AperFunction*%
%TA.AperFunction,Conductor*%
G36*
X57552326Y-72745330D02*
G01*
X57601020Y-72795436D01*
X57611126Y-72821209D01*
X57623259Y-72866490D01*
X57623261Y-72866496D01*
X57686762Y-73002673D01*
X57700948Y-73033095D01*
X57711440Y-73102173D01*
X57682920Y-73165957D01*
X57624444Y-73204196D01*
X57588566Y-73209500D01*
X56781977Y-73209500D01*
X56714938Y-73189815D01*
X56669183Y-73137011D01*
X56659239Y-73067853D01*
X56688264Y-73004297D01*
X56736305Y-72970218D01*
X56738942Y-72969172D01*
X56740606Y-72968513D01*
X56746126Y-72966622D01*
X56790890Y-72953618D01*
X56808129Y-72943422D01*
X56825601Y-72934862D01*
X56841150Y-72928706D01*
X56886794Y-72920000D01*
X56990644Y-72920000D01*
X56990646Y-72920000D01*
X57175803Y-72880644D01*
X57348730Y-72803651D01*
X57418467Y-72752984D01*
X57484272Y-72729505D01*
X57552326Y-72745330D01*
G37*
%TD.AperFunction*%
%TA.AperFunction,Conductor*%
G36*
X69391477Y-71687707D02*
G01*
X69437232Y-71740511D01*
X69447176Y-71809669D01*
X69436820Y-71844427D01*
X69423262Y-71873502D01*
X69423258Y-71873511D01*
X69364366Y-72093302D01*
X69364364Y-72093313D01*
X69348015Y-72280185D01*
X69344532Y-72320000D01*
X69364364Y-72546686D01*
X69364365Y-72546691D01*
X69364366Y-72546697D01*
X69382680Y-72615048D01*
X69381017Y-72684897D01*
X69350586Y-72734821D01*
X69012226Y-73073182D01*
X68950905Y-73106666D01*
X68924547Y-73109500D01*
X64291434Y-73109500D01*
X64224395Y-73089815D01*
X64178640Y-73037011D01*
X64168696Y-72967853D01*
X64179052Y-72933095D01*
X64181099Y-72928706D01*
X64256739Y-72766496D01*
X64315635Y-72546692D01*
X64335468Y-72320000D01*
X64331782Y-72277874D01*
X64326285Y-72215040D01*
X64315635Y-72093308D01*
X64256739Y-71873504D01*
X64243179Y-71844426D01*
X64232688Y-71775349D01*
X64261208Y-71711565D01*
X64319684Y-71673326D01*
X64355562Y-71668022D01*
X69324438Y-71668022D01*
X69391477Y-71687707D01*
G37*
%TD.AperFunction*%
%TA.AperFunction,Conductor*%
G36*
X96817994Y-63009393D02*
G01*
X96855431Y-63037697D01*
X96889694Y-63075750D01*
X96914129Y-63102888D01*
X96914133Y-63102891D01*
X96940762Y-63122238D01*
X96968196Y-63149671D01*
X96994897Y-63186422D01*
X96998106Y-63191306D01*
X97021828Y-63231417D01*
X97021833Y-63231424D01*
X97035990Y-63245580D01*
X97048627Y-63260375D01*
X97060406Y-63276587D01*
X97096323Y-63306299D01*
X97100610Y-63310200D01*
X97191951Y-63401540D01*
X97243181Y-63452770D01*
X97276666Y-63514093D01*
X97279500Y-63540451D01*
X97279500Y-64058196D01*
X97282401Y-64095067D01*
X97282402Y-64095073D01*
X97328548Y-64253905D01*
X97328349Y-64323774D01*
X97290407Y-64382444D01*
X97226769Y-64411288D01*
X97174878Y-64407577D01*
X97012489Y-64360399D01*
X96975644Y-64357500D01*
X96572500Y-64357500D01*
X96572500Y-64907500D01*
X97557295Y-64907500D01*
X97557295Y-64907498D01*
X97557100Y-64905011D01*
X97557099Y-64905005D01*
X97511048Y-64746497D01*
X97511247Y-64676628D01*
X97549189Y-64617958D01*
X97612827Y-64589114D01*
X97664719Y-64592826D01*
X97827426Y-64640097D01*
X97827429Y-64640097D01*
X97827431Y-64640098D01*
X97839722Y-64641065D01*
X97864304Y-64643000D01*
X97864306Y-64643000D01*
X98295696Y-64643000D01*
X98314131Y-64641549D01*
X98332569Y-64640098D01*
X98332571Y-64640097D01*
X98332573Y-64640097D01*
X98490393Y-64594246D01*
X98490394Y-64594244D01*
X98490398Y-64594244D01*
X98537381Y-64566458D01*
X98605102Y-64549276D01*
X98671365Y-64571436D01*
X98715129Y-64625901D01*
X98724500Y-64673191D01*
X98724500Y-65458272D01*
X98704815Y-65525311D01*
X98673386Y-65558589D01*
X98634132Y-65587109D01*
X98634123Y-65587116D01*
X98507466Y-65727785D01*
X98412821Y-65891715D01*
X98412818Y-65891722D01*
X98354327Y-66071740D01*
X98354326Y-66071744D01*
X98339605Y-66211806D01*
X98334593Y-66259500D01*
X98334540Y-66260000D01*
X98354326Y-66448256D01*
X98354327Y-66448259D01*
X98412818Y-66628277D01*
X98412821Y-66628284D01*
X98507467Y-66792216D01*
X98598674Y-66893511D01*
X98634129Y-66932888D01*
X98787265Y-67044148D01*
X98787270Y-67044151D01*
X98960192Y-67121142D01*
X98960197Y-67121144D01*
X99145354Y-67160500D01*
X99145355Y-67160500D01*
X99334644Y-67160500D01*
X99334646Y-67160500D01*
X99519803Y-67121144D01*
X99692730Y-67044151D01*
X99845871Y-66932888D01*
X99972533Y-66792216D01*
X100067179Y-66628284D01*
X100125674Y-66448256D01*
X100145460Y-66260000D01*
X100125674Y-66071744D01*
X100067179Y-65891716D01*
X100012391Y-65796820D01*
X99992113Y-65761697D01*
X99975500Y-65699697D01*
X99975500Y-64673191D01*
X99995185Y-64606152D01*
X100047989Y-64560397D01*
X100117147Y-64550453D01*
X100162616Y-64566457D01*
X100209602Y-64594244D01*
X100209603Y-64594244D01*
X100209606Y-64594246D01*
X100367426Y-64640097D01*
X100367429Y-64640097D01*
X100367431Y-64640098D01*
X100379722Y-64641065D01*
X100404304Y-64643000D01*
X100404306Y-64643000D01*
X100835696Y-64643000D01*
X100854131Y-64641549D01*
X100872569Y-64640098D01*
X100872571Y-64640097D01*
X100872573Y-64640097D01*
X100921435Y-64625901D01*
X101030398Y-64594244D01*
X101037378Y-64590115D01*
X101105101Y-64572932D01*
X101171364Y-64595091D01*
X101215128Y-64649557D01*
X101224500Y-64696847D01*
X101224500Y-64721312D01*
X101204815Y-64788351D01*
X101192650Y-64804284D01*
X101117466Y-64887784D01*
X101022821Y-65051715D01*
X101022818Y-65051722D01*
X100964351Y-65231667D01*
X100964326Y-65231744D01*
X100944540Y-65420000D01*
X100964326Y-65608256D01*
X100964327Y-65608259D01*
X101022818Y-65788277D01*
X101022821Y-65788284D01*
X101117467Y-65952216D01*
X101234069Y-66081715D01*
X101244129Y-66092888D01*
X101397265Y-66204148D01*
X101397270Y-66204151D01*
X101570192Y-66281142D01*
X101570197Y-66281144D01*
X101755354Y-66320500D01*
X101755355Y-66320500D01*
X101944644Y-66320500D01*
X101944646Y-66320500D01*
X102129803Y-66281144D01*
X102302730Y-66204151D01*
X102455871Y-66092888D01*
X102582533Y-65952216D01*
X102677179Y-65788284D01*
X102735674Y-65608256D01*
X102755460Y-65420000D01*
X102735674Y-65231744D01*
X102677179Y-65051716D01*
X102582533Y-64887784D01*
X102570171Y-64874055D01*
X102507350Y-64804284D01*
X102477120Y-64741292D01*
X102475500Y-64721314D01*
X102475500Y-64689424D01*
X102475500Y-64649533D01*
X102495183Y-64582497D01*
X102547986Y-64536741D01*
X102617144Y-64526797D01*
X102662619Y-64542802D01*
X102749602Y-64594244D01*
X102778556Y-64602656D01*
X102907426Y-64640097D01*
X102907429Y-64640097D01*
X102907431Y-64640098D01*
X102919722Y-64641065D01*
X102944304Y-64643000D01*
X102944306Y-64643000D01*
X102995500Y-64643000D01*
X103062539Y-64662685D01*
X103108294Y-64715489D01*
X103119500Y-64767000D01*
X103119500Y-65847168D01*
X103100460Y-65912009D01*
X103100716Y-65912157D01*
X103100107Y-65913211D01*
X103099815Y-65914207D01*
X103097997Y-65916865D01*
X103002821Y-66081715D01*
X103002818Y-66081722D01*
X102944871Y-66260067D01*
X102944326Y-66261744D01*
X102924540Y-66450000D01*
X102944326Y-66638256D01*
X102944327Y-66638259D01*
X103002818Y-66818277D01*
X103002821Y-66818284D01*
X103097467Y-66982216D01*
X103171089Y-67063981D01*
X103224129Y-67122888D01*
X103377265Y-67234148D01*
X103377270Y-67234151D01*
X103550192Y-67311142D01*
X103550197Y-67311144D01*
X103735354Y-67350500D01*
X103735355Y-67350500D01*
X103924644Y-67350500D01*
X103924646Y-67350500D01*
X104109803Y-67311144D01*
X104282730Y-67234151D01*
X104435871Y-67122888D01*
X104562533Y-66982216D01*
X104657179Y-66818284D01*
X104715674Y-66638256D01*
X104735460Y-66450000D01*
X104715674Y-66261744D01*
X104657179Y-66081716D01*
X104562533Y-65917784D01*
X104459840Y-65803732D01*
X104454204Y-65797472D01*
X104423974Y-65734480D01*
X104432599Y-65665145D01*
X104477341Y-65611480D01*
X104543993Y-65590522D01*
X104546354Y-65590500D01*
X104564644Y-65590500D01*
X104564646Y-65590500D01*
X104749803Y-65551144D01*
X104922730Y-65474151D01*
X105075871Y-65362888D01*
X105202533Y-65222216D01*
X105297179Y-65058284D01*
X105355674Y-64878256D01*
X105368729Y-64754036D01*
X105395314Y-64689424D01*
X105452611Y-64649439D01*
X105492050Y-64643000D01*
X105703500Y-64643000D01*
X105770539Y-64662685D01*
X105816294Y-64715489D01*
X105827500Y-64767000D01*
X105827500Y-65586312D01*
X105807815Y-65653351D01*
X105795650Y-65669284D01*
X105720466Y-65752784D01*
X105625821Y-65916715D01*
X105625818Y-65916722D01*
X105567327Y-66096740D01*
X105567326Y-66096744D01*
X105547540Y-66285000D01*
X105567326Y-66473256D01*
X105567327Y-66473259D01*
X105625818Y-66653277D01*
X105625821Y-66653284D01*
X105720467Y-66817216D01*
X105789164Y-66893511D01*
X105847129Y-66957888D01*
X106000265Y-67069148D01*
X106000270Y-67069151D01*
X106173192Y-67146142D01*
X106173197Y-67146144D01*
X106358354Y-67185500D01*
X106358355Y-67185500D01*
X106428000Y-67185500D01*
X106495039Y-67205185D01*
X106540794Y-67257989D01*
X106552000Y-67309500D01*
X106552000Y-69266196D01*
X106532315Y-69333235D01*
X106479511Y-69378990D01*
X106410353Y-69388934D01*
X106402228Y-69387488D01*
X106364646Y-69379500D01*
X106175354Y-69379500D01*
X106151831Y-69384500D01*
X105990197Y-69418855D01*
X105990192Y-69418857D01*
X105817270Y-69495848D01*
X105817265Y-69495851D01*
X105664129Y-69607111D01*
X105537466Y-69747785D01*
X105442821Y-69911714D01*
X105442818Y-69911722D01*
X105439181Y-69922916D01*
X105408933Y-69972274D01*
X102647571Y-72733636D01*
X102586248Y-72767121D01*
X102516556Y-72762137D01*
X102460623Y-72720265D01*
X102444597Y-72691600D01*
X102442486Y-72686268D01*
X102440983Y-72684199D01*
X102415079Y-72648545D01*
X102411888Y-72643686D01*
X102407531Y-72636319D01*
X102388170Y-72603580D01*
X102388168Y-72603578D01*
X102388165Y-72603574D01*
X102374006Y-72589415D01*
X102361368Y-72574619D01*
X102359450Y-72571979D01*
X102349594Y-72558413D01*
X102344715Y-72554377D01*
X102313688Y-72528709D01*
X102309376Y-72524786D01*
X100938960Y-71154369D01*
X100905475Y-71093046D01*
X100903323Y-71079668D01*
X100885674Y-70911744D01*
X100827179Y-70731716D01*
X100732533Y-70567784D01*
X100605871Y-70427112D01*
X100605870Y-70427111D01*
X100452734Y-70315851D01*
X100452729Y-70315848D01*
X100279807Y-70238857D01*
X100279802Y-70238855D01*
X100132947Y-70207641D01*
X100094646Y-70199500D01*
X99905354Y-70199500D01*
X99872897Y-70206398D01*
X99720197Y-70238855D01*
X99720192Y-70238857D01*
X99547270Y-70315848D01*
X99547265Y-70315851D01*
X99394129Y-70427111D01*
X99267466Y-70567785D01*
X99172821Y-70731715D01*
X99172818Y-70731722D01*
X99116788Y-70904167D01*
X99114326Y-70911744D01*
X99111067Y-70942751D01*
X99084483Y-71007363D01*
X99027186Y-71047348D01*
X98957367Y-71050008D01*
X98911785Y-71027796D01*
X98911402Y-71027499D01*
X98908992Y-71025630D01*
X98904567Y-71021852D01*
X98870582Y-70989938D01*
X98866127Y-70987489D01*
X98853029Y-70980288D01*
X98836763Y-70969604D01*
X98831351Y-70965406D01*
X98820936Y-70957327D01*
X98820935Y-70957326D01*
X98820933Y-70957325D01*
X98778168Y-70938818D01*
X98772922Y-70936248D01*
X98732093Y-70913803D01*
X98732092Y-70913802D01*
X98712693Y-70908822D01*
X98694281Y-70902518D01*
X98675898Y-70894562D01*
X98675892Y-70894560D01*
X98629874Y-70887272D01*
X98624152Y-70886087D01*
X98579021Y-70874500D01*
X98579019Y-70874500D01*
X98558984Y-70874500D01*
X98539586Y-70872973D01*
X98532162Y-70871797D01*
X98519805Y-70869840D01*
X98519804Y-70869840D01*
X98473416Y-70874225D01*
X98467578Y-70874500D01*
X97882743Y-70874500D01*
X97867122Y-70872775D01*
X97867095Y-70873061D01*
X97859333Y-70872326D01*
X97790172Y-70874500D01*
X97760649Y-70874500D01*
X97753778Y-70875367D01*
X97747959Y-70875825D01*
X97701374Y-70877289D01*
X97701368Y-70877290D01*
X97682126Y-70882880D01*
X97663087Y-70886823D01*
X97643217Y-70889334D01*
X97643207Y-70889336D01*
X97621844Y-70897794D01*
X97552265Y-70904167D01*
X97490287Y-70871911D01*
X97455585Y-70811268D01*
X97459179Y-70741491D01*
X97469464Y-70719389D01*
X97511744Y-70647898D01*
X97514062Y-70639922D01*
X97557597Y-70490073D01*
X97557598Y-70490067D01*
X97560500Y-70453196D01*
X97560500Y-70074702D01*
X97580185Y-70007663D01*
X97596814Y-69987025D01*
X97732423Y-69851417D01*
X97793745Y-69817934D01*
X97820103Y-69815100D01*
X103233052Y-69815100D01*
X103300091Y-69834785D01*
X103325200Y-69856126D01*
X103330926Y-69862485D01*
X103330930Y-69862489D01*
X103484065Y-69973748D01*
X103484070Y-69973751D01*
X103656992Y-70050742D01*
X103656997Y-70050744D01*
X103842154Y-70090100D01*
X103842155Y-70090100D01*
X104031444Y-70090100D01*
X104031446Y-70090100D01*
X104216603Y-70050744D01*
X104389530Y-69973751D01*
X104542671Y-69862488D01*
X104669333Y-69721816D01*
X104763979Y-69557884D01*
X104822474Y-69377856D01*
X104842260Y-69189600D01*
X104822474Y-69001344D01*
X104763979Y-68821316D01*
X104669333Y-68657384D01*
X104542671Y-68516712D01*
X104542670Y-68516711D01*
X104389534Y-68405451D01*
X104389529Y-68405448D01*
X104216607Y-68328457D01*
X104216602Y-68328455D01*
X104070800Y-68297465D01*
X104031446Y-68289100D01*
X103842154Y-68289100D01*
X103809697Y-68295998D01*
X103656997Y-68328455D01*
X103656992Y-68328457D01*
X103484070Y-68405448D01*
X103484065Y-68405451D01*
X103330930Y-68516710D01*
X103330926Y-68516714D01*
X103325200Y-68523074D01*
X103265713Y-68559721D01*
X103233052Y-68564100D01*
X97586030Y-68564100D01*
X97518991Y-68544415D01*
X97479298Y-68503221D01*
X97427684Y-68415946D01*
X97422900Y-68409778D01*
X97425366Y-68407864D01*
X97398802Y-68359276D01*
X97403749Y-68289582D01*
X97424856Y-68256732D01*
X97423301Y-68255526D01*
X97428077Y-68249368D01*
X97428081Y-68249365D01*
X97511744Y-68107898D01*
X97556112Y-67955185D01*
X97557597Y-67950073D01*
X97557598Y-67950067D01*
X97560500Y-67913196D01*
X97560500Y-67481804D01*
X97557598Y-67444932D01*
X97557597Y-67444926D01*
X97511745Y-67287106D01*
X97511744Y-67287103D01*
X97511744Y-67287102D01*
X97428081Y-67145635D01*
X97428078Y-67145632D01*
X97423298Y-67139469D01*
X97425750Y-67137566D01*
X97399155Y-67088921D01*
X97404104Y-67019226D01*
X97424940Y-66986804D01*
X97423298Y-66985531D01*
X97428075Y-66979370D01*
X97428081Y-66979365D01*
X97511744Y-66837898D01*
X97557598Y-66680069D01*
X97559706Y-66653284D01*
X97560500Y-66643196D01*
X97560500Y-66211804D01*
X97557598Y-66174932D01*
X97557597Y-66174926D01*
X97515966Y-66031634D01*
X97511744Y-66017102D01*
X97428081Y-65875635D01*
X97428078Y-65875632D01*
X97423298Y-65869469D01*
X97425635Y-65867655D01*
X97398798Y-65818550D01*
X97403756Y-65748856D01*
X97424554Y-65716498D01*
X97422903Y-65715217D01*
X97427686Y-65709050D01*
X97511281Y-65567698D01*
X97557100Y-65409986D01*
X97557295Y-65407501D01*
X97557295Y-65407500D01*
X96241003Y-65407500D01*
X96173964Y-65387815D01*
X96156120Y-65373893D01*
X96128313Y-65347781D01*
X96112864Y-65333273D01*
X96108801Y-65329210D01*
X96075329Y-65267881D01*
X96072500Y-65241546D01*
X96072500Y-64357500D01*
X95806451Y-64357500D01*
X95739412Y-64337815D01*
X95693657Y-64285011D01*
X95683713Y-64215853D01*
X95712738Y-64152297D01*
X95718756Y-64145833D01*
X96183788Y-63680801D01*
X96196042Y-63670986D01*
X96195859Y-63670764D01*
X96201866Y-63665792D01*
X96201877Y-63665786D01*
X96239708Y-63625500D01*
X96249227Y-63615364D01*
X96259671Y-63604918D01*
X96270120Y-63594471D01*
X96274379Y-63588978D01*
X96278152Y-63584561D01*
X96310062Y-63550582D01*
X96319715Y-63533020D01*
X96330392Y-63516767D01*
X96342673Y-63500936D01*
X96342673Y-63500934D01*
X96347459Y-63494766D01*
X96348100Y-63495263D01*
X96376029Y-63464568D01*
X96405871Y-63442888D01*
X96532533Y-63302216D01*
X96627179Y-63138284D01*
X96645351Y-63082354D01*
X96684789Y-63024678D01*
X96749147Y-62997479D01*
X96817994Y-63009393D01*
G37*
%TD.AperFunction*%
%TA.AperFunction,Conductor*%
G36*
X39233913Y-69668487D02*
G01*
X39234754Y-69668675D01*
X39295884Y-69702510D01*
X39329017Y-69764024D01*
X39325633Y-69828005D01*
X39297127Y-69915739D01*
X39297126Y-69915741D01*
X39297126Y-69915744D01*
X39277340Y-70104000D01*
X39297126Y-70292256D01*
X39297127Y-70292259D01*
X39355618Y-70472277D01*
X39355621Y-70472284D01*
X39450265Y-70636213D01*
X39450265Y-70636214D01*
X39576929Y-70776888D01*
X39730068Y-70888150D01*
X39735351Y-70891200D01*
X39783570Y-70941764D01*
X39796796Y-71010370D01*
X39770832Y-71075237D01*
X39713920Y-71115768D01*
X39647577Y-71119880D01*
X39504647Y-71089500D01*
X39504646Y-71089500D01*
X39315354Y-71089500D01*
X39293308Y-71094186D01*
X39130197Y-71128855D01*
X39130192Y-71128857D01*
X38957270Y-71205848D01*
X38957265Y-71205851D01*
X38804129Y-71317111D01*
X38677466Y-71457785D01*
X38582821Y-71621715D01*
X38582818Y-71621722D01*
X38524371Y-71801605D01*
X38524326Y-71801744D01*
X38510011Y-71937947D01*
X38505066Y-71985000D01*
X38504540Y-71990000D01*
X38524326Y-72178256D01*
X38524327Y-72178259D01*
X38584829Y-72364465D01*
X38582202Y-72365318D01*
X38589874Y-72422515D01*
X38560249Y-72485793D01*
X38501115Y-72523009D01*
X38467309Y-72527706D01*
X38056563Y-72527706D01*
X37989524Y-72508021D01*
X37943769Y-72455217D01*
X37933242Y-72390746D01*
X37938660Y-72339200D01*
X37918874Y-72150944D01*
X37860379Y-71970916D01*
X37765733Y-71806984D01*
X37639071Y-71666312D01*
X37624473Y-71655706D01*
X37485934Y-71555051D01*
X37485929Y-71555048D01*
X37313007Y-71478057D01*
X37313002Y-71478055D01*
X37167200Y-71447065D01*
X37127846Y-71438700D01*
X36938554Y-71438700D01*
X36906097Y-71445598D01*
X36753397Y-71478055D01*
X36753392Y-71478057D01*
X36580470Y-71555048D01*
X36580465Y-71555051D01*
X36427329Y-71666311D01*
X36300667Y-71806983D01*
X36279049Y-71844427D01*
X36228199Y-71932501D01*
X36177635Y-71980715D01*
X36120814Y-71994500D01*
X35273192Y-71994500D01*
X35206153Y-71974815D01*
X35160398Y-71922011D01*
X35150454Y-71852853D01*
X35166459Y-71807380D01*
X35169792Y-71801744D01*
X35194244Y-71760398D01*
X35233996Y-71623572D01*
X35240097Y-71602573D01*
X35240098Y-71602567D01*
X35243000Y-71565696D01*
X35243000Y-71134304D01*
X35240814Y-71106530D01*
X35240098Y-71097431D01*
X35239445Y-71095185D01*
X35198902Y-70955635D01*
X35194244Y-70939602D01*
X35110581Y-70798135D01*
X35110578Y-70798132D01*
X35105798Y-70791969D01*
X35108250Y-70790066D01*
X35081655Y-70741421D01*
X35086604Y-70671726D01*
X35107440Y-70639304D01*
X35105798Y-70638031D01*
X35110575Y-70631870D01*
X35110581Y-70631865D01*
X35194244Y-70490398D01*
X35240098Y-70332569D01*
X35242324Y-70304281D01*
X35267207Y-70238993D01*
X35278253Y-70226336D01*
X35802771Y-69701819D01*
X35864095Y-69668334D01*
X35890453Y-69665500D01*
X39206861Y-69665500D01*
X39233913Y-69668487D01*
G37*
%TD.AperFunction*%
%TA.AperFunction,Conductor*%
G36*
X43835039Y-69885185D02*
G01*
X43880794Y-69937989D01*
X43892000Y-69989500D01*
X43892000Y-70295696D01*
X43894901Y-70332567D01*
X43894902Y-70332573D01*
X43940754Y-70490393D01*
X43940755Y-70490396D01*
X43940756Y-70490398D01*
X43945758Y-70498856D01*
X44022330Y-70628334D01*
X44024419Y-70631865D01*
X44024421Y-70631867D01*
X44029199Y-70638026D01*
X44026754Y-70639922D01*
X44053357Y-70688641D01*
X44048373Y-70758333D01*
X44027582Y-70790719D01*
X44029199Y-70791974D01*
X44024415Y-70798140D01*
X43940756Y-70939600D01*
X43937657Y-70946764D01*
X43935272Y-70945732D01*
X43904457Y-70993982D01*
X43840984Y-71023187D01*
X43822989Y-71024500D01*
X43183748Y-71024500D01*
X43116709Y-71004815D01*
X43091600Y-70983474D01*
X43085873Y-70977114D01*
X43085869Y-70977110D01*
X42932734Y-70865851D01*
X42932729Y-70865848D01*
X42759807Y-70788857D01*
X42759802Y-70788855D01*
X42599256Y-70754731D01*
X42574646Y-70749500D01*
X42484452Y-70749500D01*
X42417413Y-70729815D01*
X42371658Y-70677011D01*
X42361714Y-70607853D01*
X42390739Y-70544297D01*
X42396771Y-70537819D01*
X43032772Y-69901819D01*
X43094095Y-69868334D01*
X43120453Y-69865500D01*
X43768000Y-69865500D01*
X43835039Y-69885185D01*
G37*
%TD.AperFunction*%
%TA.AperFunction,Conductor*%
G36*
X108681971Y-67320881D02*
G01*
X108737904Y-67362753D01*
X108762321Y-67428217D01*
X108762255Y-67446789D01*
X108759500Y-67481803D01*
X108759500Y-67913196D01*
X108762401Y-67950067D01*
X108762402Y-67950073D01*
X108808254Y-68107893D01*
X108808255Y-68107896D01*
X108876182Y-68222756D01*
X108891919Y-68249365D01*
X108891921Y-68249367D01*
X108896699Y-68255526D01*
X108894262Y-68257415D01*
X108920871Y-68306204D01*
X108915850Y-68375893D01*
X108895077Y-68408216D01*
X108896699Y-68409474D01*
X108891915Y-68415640D01*
X108808255Y-68557103D01*
X108808254Y-68557106D01*
X108762402Y-68714926D01*
X108762401Y-68714932D01*
X108759500Y-68751804D01*
X108759500Y-69183196D01*
X108762401Y-69220067D01*
X108762402Y-69220073D01*
X108808254Y-69377893D01*
X108808255Y-69377896D01*
X108808256Y-69377898D01*
X108829490Y-69413803D01*
X108891917Y-69519362D01*
X108896702Y-69525531D01*
X108894369Y-69527340D01*
X108921210Y-69576495D01*
X108916226Y-69646187D01*
X108895470Y-69678521D01*
X108897097Y-69679783D01*
X108892313Y-69685949D01*
X108808718Y-69827301D01*
X108762899Y-69985013D01*
X108762704Y-69987498D01*
X108762705Y-69987500D01*
X110756162Y-69987500D01*
X110823201Y-70007185D01*
X110829047Y-70011182D01*
X110881860Y-70049553D01*
X110881865Y-70049556D01*
X111054787Y-70126547D01*
X111054792Y-70126549D01*
X111239949Y-70165905D01*
X111239950Y-70165905D01*
X111429239Y-70165905D01*
X111429241Y-70165905D01*
X111614398Y-70126549D01*
X111787325Y-70049556D01*
X111817613Y-70027550D01*
X111883420Y-70004069D01*
X111951474Y-70019894D01*
X112000169Y-70069999D01*
X112014500Y-70127867D01*
X112014500Y-70493104D01*
X111994815Y-70560143D01*
X111942011Y-70605898D01*
X111872853Y-70615842D01*
X111864732Y-70614397D01*
X111794646Y-70599500D01*
X111605354Y-70599500D01*
X111575254Y-70605898D01*
X111420197Y-70638855D01*
X111420188Y-70638858D01*
X111398517Y-70648507D01*
X111329267Y-70657791D01*
X111265991Y-70628161D01*
X111228779Y-70569026D01*
X111229009Y-70500628D01*
X111232099Y-70489990D01*
X111232100Y-70489988D01*
X111232295Y-70487501D01*
X111232295Y-70487500D01*
X108762705Y-70487500D01*
X108762704Y-70487501D01*
X108762899Y-70489988D01*
X108764038Y-70496220D01*
X108762276Y-70496541D01*
X108762099Y-70557802D01*
X108724154Y-70616470D01*
X108660515Y-70645311D01*
X108591385Y-70635166D01*
X108555543Y-70610203D01*
X108289319Y-70343979D01*
X108255834Y-70282656D01*
X108253000Y-70256298D01*
X108253000Y-67698700D01*
X108272685Y-67631661D01*
X108289315Y-67611023D01*
X108550957Y-67349381D01*
X108612279Y-67315897D01*
X108681971Y-67320881D01*
G37*
%TD.AperFunction*%
%TA.AperFunction,Conductor*%
G36*
X61788974Y-69110185D02*
G01*
X61834729Y-69162989D01*
X61844673Y-69232147D01*
X61834317Y-69266903D01*
X61803262Y-69333502D01*
X61803258Y-69333511D01*
X61744366Y-69553302D01*
X61744364Y-69553313D01*
X61725930Y-69764024D01*
X61724532Y-69780000D01*
X61744364Y-70006686D01*
X61744365Y-70006691D01*
X61744366Y-70006697D01*
X61762680Y-70075048D01*
X61761017Y-70144897D01*
X61730586Y-70194821D01*
X61416426Y-70508982D01*
X61355105Y-70542466D01*
X61328747Y-70545300D01*
X60168798Y-70545300D01*
X60101759Y-70525615D01*
X60056004Y-70472811D01*
X60046060Y-70403653D01*
X60056416Y-70368895D01*
X60076265Y-70326326D01*
X60076269Y-70326317D01*
X60128872Y-70130000D01*
X59360576Y-70130000D01*
X59293537Y-70110315D01*
X59247782Y-70057511D01*
X59237838Y-69988353D01*
X59238103Y-69986603D01*
X59254986Y-69880003D01*
X59254986Y-69879996D01*
X59238103Y-69773397D01*
X59247058Y-69704104D01*
X59292054Y-69650652D01*
X59358806Y-69630013D01*
X59360576Y-69630000D01*
X60128872Y-69630000D01*
X60128872Y-69629999D01*
X60076269Y-69433682D01*
X60076265Y-69433673D01*
X59998501Y-69266905D01*
X59988009Y-69197827D01*
X60016529Y-69134043D01*
X60075006Y-69095804D01*
X60110883Y-69090500D01*
X61721935Y-69090500D01*
X61788974Y-69110185D01*
G37*
%TD.AperFunction*%
%TA.AperFunction,Conductor*%
G36*
X64155919Y-68055780D02*
G01*
X64211853Y-68097651D01*
X64230517Y-68133644D01*
X64247618Y-68186278D01*
X64247621Y-68186284D01*
X64342267Y-68350216D01*
X64457595Y-68478300D01*
X64468929Y-68490888D01*
X64622065Y-68602148D01*
X64622070Y-68602151D01*
X64794992Y-68679142D01*
X64794997Y-68679144D01*
X64980154Y-68718500D01*
X64980155Y-68718500D01*
X65169444Y-68718500D01*
X65169446Y-68718500D01*
X65354603Y-68679144D01*
X65527530Y-68602151D01*
X65620149Y-68534859D01*
X65685951Y-68511381D01*
X65754005Y-68527206D01*
X65780711Y-68547497D01*
X66051861Y-68818648D01*
X66298601Y-69065388D01*
X66308426Y-69077651D01*
X66308647Y-69077469D01*
X66313618Y-69083478D01*
X66339621Y-69107895D01*
X66364039Y-69130826D01*
X66384933Y-69151720D01*
X66390415Y-69155973D01*
X66394847Y-69159757D01*
X66428822Y-69191662D01*
X66446380Y-69201314D01*
X66462637Y-69211993D01*
X66478468Y-69224273D01*
X66496664Y-69232147D01*
X66521237Y-69242782D01*
X66526481Y-69245350D01*
X66567312Y-69267797D01*
X66579927Y-69271035D01*
X66586709Y-69272777D01*
X66605123Y-69279081D01*
X66623508Y-69287038D01*
X66669561Y-69294332D01*
X66675230Y-69295506D01*
X66720385Y-69307100D01*
X66740420Y-69307100D01*
X66759817Y-69308626D01*
X66779600Y-69311760D01*
X66825987Y-69307375D01*
X66831826Y-69307100D01*
X68435052Y-69307100D01*
X68502091Y-69326785D01*
X68527200Y-69348126D01*
X68532926Y-69354485D01*
X68532930Y-69354489D01*
X68686065Y-69465748D01*
X68686070Y-69465751D01*
X68858992Y-69542742D01*
X68858997Y-69542744D01*
X69044154Y-69582100D01*
X69044155Y-69582100D01*
X69233444Y-69582100D01*
X69233446Y-69582100D01*
X69418603Y-69542744D01*
X69421013Y-69541670D01*
X69423148Y-69540721D01*
X69473584Y-69530000D01*
X70139424Y-69530000D01*
X70206463Y-69549685D01*
X70252218Y-69602489D01*
X70262162Y-69671647D01*
X70261897Y-69673397D01*
X70245014Y-69779996D01*
X70245014Y-69780003D01*
X70261897Y-69886603D01*
X70252942Y-69955896D01*
X70207946Y-70009348D01*
X70141194Y-70029987D01*
X70139424Y-70030000D01*
X69371128Y-70030000D01*
X69423730Y-70226317D01*
X69423734Y-70226328D01*
X69430397Y-70240616D01*
X69440890Y-70309693D01*
X69412371Y-70373477D01*
X69353895Y-70411718D01*
X69318016Y-70417022D01*
X64602974Y-70417022D01*
X64535935Y-70397337D01*
X64515293Y-70380703D01*
X64329413Y-70194822D01*
X64295928Y-70133499D01*
X64297319Y-70075048D01*
X64303831Y-70050744D01*
X64315635Y-70006692D01*
X64335468Y-69780000D01*
X64333569Y-69758300D01*
X64325810Y-69669606D01*
X64315635Y-69553308D01*
X64270916Y-69386415D01*
X64256741Y-69333511D01*
X64256738Y-69333502D01*
X64160568Y-69127266D01*
X64053995Y-68975062D01*
X64030045Y-68940858D01*
X63869141Y-68779954D01*
X63682734Y-68649432D01*
X63682728Y-68649429D01*
X63635240Y-68627285D01*
X63624724Y-68622381D01*
X63572285Y-68576210D01*
X63553133Y-68509017D01*
X63573348Y-68442135D01*
X63624725Y-68397618D01*
X63682734Y-68370568D01*
X63869139Y-68240047D01*
X64024906Y-68084279D01*
X64086228Y-68050796D01*
X64155919Y-68055780D01*
G37*
%TD.AperFunction*%
%TA.AperFunction,Conductor*%
G36*
X94658069Y-68389021D02*
G01*
X94770192Y-68438942D01*
X94770197Y-68438944D01*
X94955354Y-68478300D01*
X94955355Y-68478300D01*
X94991518Y-68478300D01*
X95058557Y-68497985D01*
X95104312Y-68550789D01*
X95114256Y-68619947D01*
X95110594Y-68636895D01*
X95087900Y-68715004D01*
X95087899Y-68715010D01*
X95085000Y-68751856D01*
X95085000Y-68843000D01*
X95065315Y-68910039D01*
X95012511Y-68955794D01*
X94961000Y-68967000D01*
X93696048Y-68967000D01*
X93680427Y-68965275D01*
X93680400Y-68965561D01*
X93672638Y-68964826D01*
X93603477Y-68967000D01*
X93573954Y-68967000D01*
X93567083Y-68967867D01*
X93561264Y-68968325D01*
X93514679Y-68969789D01*
X93514673Y-68969790D01*
X93495431Y-68975380D01*
X93476392Y-68979323D01*
X93456522Y-68981834D01*
X93456505Y-68981838D01*
X93413187Y-68998988D01*
X93407663Y-69000879D01*
X93362912Y-69013883D01*
X93362909Y-69013884D01*
X93345663Y-69024083D01*
X93328198Y-69032639D01*
X93322883Y-69034744D01*
X93309571Y-69040014D01*
X93271877Y-69067399D01*
X93266996Y-69070605D01*
X93226885Y-69094328D01*
X93212713Y-69108500D01*
X93197928Y-69121128D01*
X93181717Y-69132907D01*
X93152014Y-69168810D01*
X93148081Y-69173131D01*
X92553214Y-69768000D01*
X91988033Y-70333181D01*
X91926710Y-70366666D01*
X91900352Y-70369500D01*
X90105453Y-70369500D01*
X90038414Y-70349815D01*
X90017772Y-70333181D01*
X89300803Y-69616212D01*
X89290980Y-69603950D01*
X89290759Y-69604134D01*
X89285786Y-69598123D01*
X89268723Y-69582100D01*
X89235364Y-69550773D01*
X89221916Y-69537325D01*
X89214475Y-69529883D01*
X89208986Y-69525625D01*
X89204561Y-69521847D01*
X89170582Y-69489938D01*
X89170580Y-69489936D01*
X89170577Y-69489935D01*
X89153029Y-69480288D01*
X89136763Y-69469604D01*
X89120936Y-69457327D01*
X89120935Y-69457326D01*
X89120933Y-69457325D01*
X89078168Y-69438818D01*
X89072922Y-69436248D01*
X89032093Y-69413803D01*
X89032092Y-69413802D01*
X89012693Y-69408822D01*
X88994281Y-69402518D01*
X88975898Y-69394562D01*
X88975892Y-69394560D01*
X88929874Y-69387272D01*
X88924152Y-69386087D01*
X88879021Y-69374500D01*
X88879019Y-69374500D01*
X88858984Y-69374500D01*
X88839586Y-69372973D01*
X88832162Y-69371797D01*
X88819805Y-69369840D01*
X88819804Y-69369840D01*
X88773416Y-69374225D01*
X88767578Y-69374500D01*
X86520579Y-69374500D01*
X86453540Y-69354815D01*
X86407785Y-69302011D01*
X86397258Y-69237539D01*
X86397825Y-69232147D01*
X86405460Y-69159500D01*
X86385674Y-68971244D01*
X86327179Y-68791216D01*
X86232533Y-68627284D01*
X86194704Y-68585271D01*
X86164475Y-68522281D01*
X86173100Y-68452946D01*
X86217841Y-68399280D01*
X86284494Y-68378322D01*
X86286855Y-68378300D01*
X94607633Y-68378300D01*
X94658069Y-68389021D01*
G37*
%TD.AperFunction*%
%TA.AperFunction,Conductor*%
G36*
X56985596Y-67955185D02*
G01*
X57006238Y-67971819D01*
X57875288Y-68840869D01*
X57908773Y-68902192D01*
X57903789Y-68971884D01*
X57875291Y-69016228D01*
X57850341Y-69041178D01*
X57719865Y-69227517D01*
X57623378Y-69434435D01*
X57577205Y-69486874D01*
X57510012Y-69506026D01*
X57443131Y-69485810D01*
X57426113Y-69472423D01*
X57381760Y-69430773D01*
X57360872Y-69409884D01*
X57355382Y-69405625D01*
X57350957Y-69401847D01*
X57316978Y-69369938D01*
X57316976Y-69369936D01*
X57316973Y-69369935D01*
X57299425Y-69360288D01*
X57283159Y-69349604D01*
X57280777Y-69347756D01*
X57267332Y-69337327D01*
X57267331Y-69337326D01*
X57267329Y-69337325D01*
X57224564Y-69318818D01*
X57219318Y-69316248D01*
X57178489Y-69293803D01*
X57178488Y-69293802D01*
X57159089Y-69288822D01*
X57140677Y-69282518D01*
X57122294Y-69274562D01*
X57122288Y-69274560D01*
X57076270Y-69267272D01*
X57070548Y-69266087D01*
X57025417Y-69254500D01*
X57025415Y-69254500D01*
X57005380Y-69254500D01*
X56985982Y-69252973D01*
X56978558Y-69251797D01*
X56966201Y-69249840D01*
X56966200Y-69249840D01*
X56919812Y-69254225D01*
X56913974Y-69254500D01*
X53506397Y-69254500D01*
X53439358Y-69234815D01*
X53393603Y-69182011D01*
X53383659Y-69112853D01*
X53412684Y-69049297D01*
X53455961Y-69017221D01*
X53540351Y-68979647D01*
X53589530Y-68957751D01*
X53742671Y-68846488D01*
X53869333Y-68705816D01*
X53869333Y-68705815D01*
X53873644Y-68701028D01*
X53933131Y-68664379D01*
X53965794Y-68660000D01*
X54973052Y-68660000D01*
X55040091Y-68679685D01*
X55065200Y-68701026D01*
X55070926Y-68707385D01*
X55070930Y-68707389D01*
X55224065Y-68818648D01*
X55224070Y-68818651D01*
X55396992Y-68895642D01*
X55396997Y-68895644D01*
X55582154Y-68935000D01*
X55582155Y-68935000D01*
X55771444Y-68935000D01*
X55771446Y-68935000D01*
X55956603Y-68895644D01*
X56129530Y-68818651D01*
X56282671Y-68707388D01*
X56409333Y-68566716D01*
X56503979Y-68402784D01*
X56562474Y-68222756D01*
X56580994Y-68046536D01*
X56607578Y-67981924D01*
X56664876Y-67941939D01*
X56704315Y-67935500D01*
X56918557Y-67935500D01*
X56985596Y-67955185D01*
G37*
%TD.AperFunction*%
%TA.AperFunction,Conductor*%
G36*
X35346663Y-63161616D02*
G01*
X35347100Y-63161743D01*
X35347102Y-63161744D01*
X35504931Y-63207598D01*
X35513661Y-63208285D01*
X35541804Y-63210500D01*
X35541806Y-63210500D01*
X35920297Y-63210500D01*
X35987336Y-63230185D01*
X36007977Y-63246818D01*
X36839435Y-64078277D01*
X37644946Y-64883788D01*
X37654771Y-64896051D01*
X37654992Y-64895869D01*
X37659963Y-64901878D01*
X37676283Y-64917203D01*
X37710384Y-64949226D01*
X37731278Y-64970120D01*
X37736760Y-64974373D01*
X37741192Y-64978157D01*
X37775167Y-65010062D01*
X37792725Y-65019714D01*
X37808984Y-65030395D01*
X37824813Y-65042673D01*
X37867587Y-65061182D01*
X37872805Y-65063738D01*
X37913657Y-65086197D01*
X37933065Y-65091180D01*
X37951466Y-65097480D01*
X37969853Y-65105437D01*
X38013237Y-65112308D01*
X38015868Y-65112725D01*
X38021588Y-65113909D01*
X38066730Y-65125500D01*
X38086765Y-65125500D01*
X38106163Y-65127026D01*
X38125943Y-65130159D01*
X38125944Y-65130160D01*
X38125944Y-65130159D01*
X38125945Y-65130160D01*
X38172332Y-65125775D01*
X38178171Y-65125500D01*
X38349282Y-65125500D01*
X38416321Y-65145185D01*
X38462076Y-65197989D01*
X38467214Y-65211186D01*
X38469356Y-65217780D01*
X38469357Y-65217782D01*
X38564000Y-65381709D01*
X38690664Y-65522383D01*
X38843800Y-65633643D01*
X38843805Y-65633646D01*
X39016726Y-65710637D01*
X39016728Y-65710637D01*
X39016732Y-65710639D01*
X39054252Y-65718614D01*
X39115731Y-65751804D01*
X39143761Y-65794254D01*
X39147512Y-65803728D01*
X39147513Y-65803731D01*
X39174898Y-65841423D01*
X39178106Y-65846307D01*
X39201827Y-65886416D01*
X39201833Y-65886424D01*
X39215990Y-65900580D01*
X39228627Y-65915375D01*
X39240406Y-65931587D01*
X39271588Y-65957383D01*
X39276309Y-65961288D01*
X39280620Y-65965210D01*
X39309644Y-65994234D01*
X39324194Y-66008784D01*
X39334019Y-66021048D01*
X39334240Y-66020866D01*
X39339210Y-66026873D01*
X39339213Y-66026876D01*
X39339214Y-66026877D01*
X39389651Y-66074241D01*
X39410530Y-66095120D01*
X39416004Y-66099366D01*
X39420442Y-66103156D01*
X39454418Y-66135062D01*
X39454422Y-66135064D01*
X39471973Y-66144713D01*
X39488231Y-66155392D01*
X39504064Y-66167674D01*
X39526015Y-66177172D01*
X39546837Y-66186183D01*
X39552081Y-66188752D01*
X39592908Y-66211197D01*
X39612312Y-66216179D01*
X39630710Y-66222478D01*
X39649105Y-66230438D01*
X39695129Y-66237726D01*
X39700832Y-66238907D01*
X39745981Y-66250500D01*
X39766016Y-66250500D01*
X39785413Y-66252026D01*
X39805196Y-66255160D01*
X39851583Y-66250775D01*
X39857422Y-66250500D01*
X42741150Y-66250500D01*
X42808189Y-66270185D01*
X42853944Y-66322989D01*
X42863888Y-66392147D01*
X42834863Y-66455703D01*
X42786793Y-66489794D01*
X42769882Y-66496489D01*
X42764357Y-66498381D01*
X42719609Y-66511382D01*
X42702367Y-66521579D01*
X42684899Y-66530137D01*
X42666269Y-66537513D01*
X42666267Y-66537514D01*
X42628576Y-66564898D01*
X42623694Y-66568105D01*
X42583579Y-66591830D01*
X42569408Y-66606000D01*
X42554623Y-66618628D01*
X42542021Y-66627785D01*
X42538412Y-66630407D01*
X42508709Y-66666310D01*
X42504776Y-66670631D01*
X42242521Y-66932888D01*
X41993428Y-67181981D01*
X41932105Y-67215466D01*
X41905747Y-67218300D01*
X36503238Y-67218300D01*
X36436199Y-67198615D01*
X36390444Y-67145811D01*
X36379917Y-67107262D01*
X36377989Y-67088921D01*
X36365674Y-66971744D01*
X36307759Y-66793502D01*
X36307181Y-66791722D01*
X36307180Y-66791721D01*
X36307179Y-66791716D01*
X36212533Y-66627784D01*
X36085871Y-66487112D01*
X36085870Y-66487111D01*
X35932734Y-66375851D01*
X35932729Y-66375848D01*
X35759807Y-66298857D01*
X35759802Y-66298855D01*
X35581839Y-66261029D01*
X35574646Y-66259500D01*
X35385354Y-66259500D01*
X35385352Y-66259500D01*
X35379961Y-66260067D01*
X35311232Y-66247497D01*
X35260208Y-66199765D01*
X35243000Y-66136746D01*
X35243000Y-66054304D01*
X35240098Y-66017432D01*
X35240097Y-66017426D01*
X35194245Y-65859606D01*
X35194244Y-65859603D01*
X35194244Y-65859602D01*
X35110581Y-65718135D01*
X35110578Y-65718132D01*
X35105798Y-65711969D01*
X35108250Y-65710066D01*
X35081655Y-65661421D01*
X35086604Y-65591726D01*
X35107440Y-65559304D01*
X35105798Y-65558031D01*
X35110575Y-65551870D01*
X35110581Y-65551865D01*
X35194244Y-65410398D01*
X35233423Y-65275544D01*
X35240097Y-65252573D01*
X35240098Y-65252567D01*
X35240577Y-65246488D01*
X35241743Y-65231667D01*
X35243000Y-65215696D01*
X35243000Y-64784304D01*
X35240098Y-64747432D01*
X35240097Y-64747426D01*
X35198861Y-64605494D01*
X35194244Y-64589602D01*
X35110581Y-64448135D01*
X35110578Y-64448132D01*
X35105798Y-64441969D01*
X35108242Y-64440072D01*
X35081642Y-64391357D01*
X35086626Y-64321665D01*
X35107444Y-64289307D01*
X35105798Y-64288031D01*
X35110575Y-64281870D01*
X35110581Y-64281865D01*
X35194244Y-64140398D01*
X35240098Y-63982569D01*
X35243000Y-63945694D01*
X35243000Y-63514306D01*
X35240098Y-63477431D01*
X35236361Y-63464567D01*
X35192991Y-63315287D01*
X35193190Y-63245418D01*
X35231132Y-63186748D01*
X35294770Y-63157904D01*
X35346663Y-63161616D01*
G37*
%TD.AperFunction*%
%TA.AperFunction,Conductor*%
G36*
X92853166Y-66169985D02*
G01*
X92871011Y-66183908D01*
X92871509Y-66184376D01*
X92871510Y-66184377D01*
X92900719Y-66211806D01*
X92921933Y-66231728D01*
X92942819Y-66252615D01*
X92942823Y-66252618D01*
X92942825Y-66252620D01*
X92948307Y-66256873D01*
X92952739Y-66260657D01*
X92986714Y-66292562D01*
X93004272Y-66302214D01*
X93020529Y-66312893D01*
X93036360Y-66325173D01*
X93056033Y-66333686D01*
X93079129Y-66343682D01*
X93084373Y-66346250D01*
X93125204Y-66368697D01*
X93137819Y-66371935D01*
X93144601Y-66373677D01*
X93163015Y-66379981D01*
X93181400Y-66387938D01*
X93227453Y-66395232D01*
X93233122Y-66396406D01*
X93278277Y-66408000D01*
X93298312Y-66408000D01*
X93317709Y-66409526D01*
X93337492Y-66412660D01*
X93383879Y-66408275D01*
X93389718Y-66408000D01*
X94960500Y-66408000D01*
X95027539Y-66427685D01*
X95073294Y-66480489D01*
X95084500Y-66532000D01*
X95084500Y-66553300D01*
X95064815Y-66620339D01*
X95012011Y-66666094D01*
X94960500Y-66677300D01*
X94955354Y-66677300D01*
X94922897Y-66684198D01*
X94770197Y-66716655D01*
X94770192Y-66716657D01*
X94658069Y-66766579D01*
X94607633Y-66777300D01*
X89111615Y-66777300D01*
X89044576Y-66757615D01*
X88998821Y-66704811D01*
X88988294Y-66640339D01*
X88989561Y-66628284D01*
X88992660Y-66598800D01*
X88972874Y-66410544D01*
X88944484Y-66323170D01*
X88941056Y-66312618D01*
X88939061Y-66242777D01*
X88975141Y-66182944D01*
X89037842Y-66152116D01*
X89058987Y-66150300D01*
X92786127Y-66150300D01*
X92853166Y-66169985D01*
G37*
%TD.AperFunction*%
%TA.AperFunction,Conductor*%
G36*
X72866053Y-63639274D02*
G01*
X72897477Y-63701679D01*
X72899500Y-63723986D01*
X72899500Y-64600001D01*
X72899501Y-64600019D01*
X72910000Y-64702796D01*
X72910001Y-64702799D01*
X72965185Y-64869331D01*
X72965187Y-64869336D01*
X72985259Y-64901878D01*
X73057288Y-65018656D01*
X73181344Y-65142712D01*
X73317789Y-65226872D01*
X73364513Y-65278819D01*
X73375736Y-65347781D01*
X73347892Y-65411864D01*
X73332398Y-65427399D01*
X73174931Y-65559530D01*
X73174930Y-65559531D01*
X73174924Y-65559536D01*
X73174923Y-65559538D01*
X72951057Y-65796823D01*
X72951054Y-65796826D01*
X72951052Y-65796829D01*
X72951045Y-65796837D01*
X72766718Y-66044431D01*
X72710895Y-66086450D01*
X72641217Y-66091618D01*
X72579806Y-66058296D01*
X72549324Y-66008701D01*
X72516577Y-65907917D01*
X72516576Y-65907916D01*
X72516575Y-65907911D01*
X72421929Y-65743979D01*
X72295267Y-65603307D01*
X72295266Y-65603306D01*
X72142130Y-65492046D01*
X72142125Y-65492043D01*
X71969203Y-65415052D01*
X71969198Y-65415050D01*
X71923622Y-65405363D01*
X71862140Y-65372170D01*
X71828364Y-65311007D01*
X71833016Y-65241293D01*
X71837014Y-65231683D01*
X71876739Y-65146496D01*
X71935635Y-64926692D01*
X71954755Y-64708146D01*
X71955468Y-64700001D01*
X71955468Y-64699999D01*
X71952192Y-64662558D01*
X71965958Y-64594058D01*
X72014573Y-64543875D01*
X72025284Y-64538471D01*
X72070328Y-64518415D01*
X72203226Y-64459245D01*
X72356367Y-64347982D01*
X72483029Y-64207310D01*
X72577675Y-64043378D01*
X72636170Y-63863350D01*
X72652179Y-63711023D01*
X72678763Y-63646410D01*
X72736061Y-63606425D01*
X72805880Y-63603765D01*
X72866053Y-63639274D01*
G37*
%TD.AperFunction*%
%TA.AperFunction,Conductor*%
G36*
X80955702Y-59351856D02*
G01*
X80981886Y-59383570D01*
X81055463Y-59511011D01*
X81055465Y-59511014D01*
X81153599Y-59620003D01*
X81182129Y-59651688D01*
X81299184Y-59736733D01*
X81341848Y-59792060D01*
X81349618Y-59850009D01*
X81344626Y-59897511D01*
X81339740Y-59944000D01*
X81359526Y-60132256D01*
X81359527Y-60132259D01*
X81418018Y-60312277D01*
X81418021Y-60312284D01*
X81512667Y-60476216D01*
X81588882Y-60560861D01*
X81639329Y-60616888D01*
X81792465Y-60728148D01*
X81792470Y-60728151D01*
X81965392Y-60805142D01*
X81965397Y-60805144D01*
X82150554Y-60844500D01*
X82150555Y-60844500D01*
X82210868Y-60844500D01*
X82277907Y-60864185D01*
X82323662Y-60916989D01*
X82333606Y-60986147D01*
X82330643Y-61000593D01*
X82284366Y-61173302D01*
X82284364Y-61173313D01*
X82264532Y-61399998D01*
X82264532Y-61400001D01*
X82284364Y-61626686D01*
X82284366Y-61626697D01*
X82343258Y-61846488D01*
X82343261Y-61846497D01*
X82439431Y-62052732D01*
X82439432Y-62052734D01*
X82569954Y-62239141D01*
X82730858Y-62400045D01*
X82733253Y-62401722D01*
X82917266Y-62530568D01*
X83123504Y-62626739D01*
X83343308Y-62685635D01*
X83505230Y-62699801D01*
X83569998Y-62705468D01*
X83570000Y-62705468D01*
X83570002Y-62705468D01*
X83626673Y-62700509D01*
X83796692Y-62685635D01*
X84016496Y-62626739D01*
X84222734Y-62530568D01*
X84409139Y-62400047D01*
X84570047Y-62239139D01*
X84700568Y-62052734D01*
X84727618Y-61994724D01*
X84773790Y-61942285D01*
X84840983Y-61923133D01*
X84907865Y-61943348D01*
X84952382Y-61994725D01*
X84979429Y-62052728D01*
X84979432Y-62052734D01*
X85109954Y-62239141D01*
X85270858Y-62400045D01*
X85273253Y-62401722D01*
X85457266Y-62530568D01*
X85663504Y-62626739D01*
X85883308Y-62685635D01*
X86045230Y-62699801D01*
X86109998Y-62705468D01*
X86110000Y-62705468D01*
X86110002Y-62705468D01*
X86166672Y-62700509D01*
X86336692Y-62685635D01*
X86556496Y-62626739D01*
X86762734Y-62530568D01*
X86949139Y-62400047D01*
X87110047Y-62239139D01*
X87240568Y-62052734D01*
X87267618Y-61994724D01*
X87313790Y-61942285D01*
X87380983Y-61923133D01*
X87447865Y-61943348D01*
X87492382Y-61994725D01*
X87519429Y-62052728D01*
X87519432Y-62052734D01*
X87649954Y-62239141D01*
X87810858Y-62400045D01*
X87813253Y-62401722D01*
X87997266Y-62530568D01*
X88203504Y-62626739D01*
X88423308Y-62685635D01*
X88585230Y-62699801D01*
X88649998Y-62705468D01*
X88650000Y-62705468D01*
X88650002Y-62705468D01*
X88706673Y-62700509D01*
X88876692Y-62685635D01*
X89096496Y-62626739D01*
X89302734Y-62530568D01*
X89489139Y-62400047D01*
X89650047Y-62239139D01*
X89780568Y-62052734D01*
X89807618Y-61994724D01*
X89853790Y-61942285D01*
X89920983Y-61923133D01*
X89987865Y-61943348D01*
X90032382Y-61994725D01*
X90059429Y-62052728D01*
X90059432Y-62052734D01*
X90189954Y-62239141D01*
X90350858Y-62400045D01*
X90353253Y-62401722D01*
X90537266Y-62530568D01*
X90743504Y-62626739D01*
X90963308Y-62685635D01*
X91125230Y-62699801D01*
X91189998Y-62705468D01*
X91190000Y-62705468D01*
X91190002Y-62705468D01*
X91246672Y-62700509D01*
X91416692Y-62685635D01*
X91636496Y-62626739D01*
X91842734Y-62530568D01*
X92029139Y-62400047D01*
X92190047Y-62239139D01*
X92320568Y-62052734D01*
X92347618Y-61994724D01*
X92393790Y-61942285D01*
X92460983Y-61923133D01*
X92527865Y-61943348D01*
X92572382Y-61994725D01*
X92599429Y-62052728D01*
X92599432Y-62052734D01*
X92729954Y-62239141D01*
X92890858Y-62400045D01*
X93051623Y-62512613D01*
X93095248Y-62567189D01*
X93104500Y-62614188D01*
X93104500Y-63378461D01*
X93098431Y-63416779D01*
X93064327Y-63521740D01*
X93064326Y-63521743D01*
X93049187Y-63665784D01*
X93044540Y-63710000D01*
X93064326Y-63898256D01*
X93064327Y-63898259D01*
X93122818Y-64078277D01*
X93122821Y-64078284D01*
X93217467Y-64242216D01*
X93217567Y-64242327D01*
X93217605Y-64242406D01*
X93221285Y-64247471D01*
X93220358Y-64248144D01*
X93247797Y-64305318D01*
X93239173Y-64374653D01*
X93194433Y-64428319D01*
X93127780Y-64449277D01*
X93125418Y-64449300D01*
X90144375Y-64449300D01*
X90077336Y-64429615D01*
X90036989Y-64387301D01*
X89964380Y-64261538D01*
X89837718Y-64120866D01*
X89804754Y-64096916D01*
X89684581Y-64009605D01*
X89684576Y-64009602D01*
X89511654Y-63932611D01*
X89511649Y-63932609D01*
X89365848Y-63901619D01*
X89326493Y-63893254D01*
X89137201Y-63893254D01*
X89113654Y-63898259D01*
X88952044Y-63932609D01*
X88952039Y-63932611D01*
X88779117Y-64009602D01*
X88779112Y-64009605D01*
X88625976Y-64120865D01*
X88499313Y-64261539D01*
X88404668Y-64425469D01*
X88404665Y-64425476D01*
X88347953Y-64600019D01*
X88346173Y-64605498D01*
X88326964Y-64788263D01*
X88300381Y-64852876D01*
X88243083Y-64892861D01*
X88203644Y-64899300D01*
X86519658Y-64899300D01*
X86469222Y-64888579D01*
X86458104Y-64883629D01*
X86436602Y-64874055D01*
X86268693Y-64838366D01*
X86251446Y-64834700D01*
X86062154Y-64834700D01*
X86054926Y-64836236D01*
X86044905Y-64838366D01*
X85975238Y-64833048D01*
X85931447Y-64804756D01*
X85646260Y-64519569D01*
X85612775Y-64458246D01*
X85610623Y-64444868D01*
X85592974Y-64276944D01*
X85534479Y-64096916D01*
X85439833Y-63932984D01*
X85313171Y-63792312D01*
X85313170Y-63792311D01*
X85160034Y-63681051D01*
X85160029Y-63681048D01*
X84987107Y-63604057D01*
X84987102Y-63604055D01*
X84841301Y-63573065D01*
X84801946Y-63564700D01*
X84612654Y-63564700D01*
X84580197Y-63571598D01*
X84427497Y-63604055D01*
X84427492Y-63604057D01*
X84254570Y-63681048D01*
X84254565Y-63681051D01*
X84101429Y-63792311D01*
X83974766Y-63932985D01*
X83880121Y-64096915D01*
X83880118Y-64096922D01*
X83821627Y-64276940D01*
X83821626Y-64276944D01*
X83801840Y-64465200D01*
X83821626Y-64653456D01*
X83821627Y-64653459D01*
X83880118Y-64833477D01*
X83880121Y-64833484D01*
X83974767Y-64997416D01*
X84087427Y-65122537D01*
X84101429Y-65138088D01*
X84254565Y-65249348D01*
X84254570Y-65249351D01*
X84427492Y-65326342D01*
X84427497Y-65326344D01*
X84612654Y-65365700D01*
X84671848Y-65365700D01*
X84738887Y-65385385D01*
X84759529Y-65402019D01*
X85220728Y-65863219D01*
X85254213Y-65924542D01*
X85249229Y-65994234D01*
X85207357Y-66050167D01*
X85141893Y-66074584D01*
X85133047Y-66074900D01*
X82119352Y-66074900D01*
X82052313Y-66055215D01*
X82046487Y-66051232D01*
X81966222Y-65992916D01*
X81942729Y-65975848D01*
X81769807Y-65898857D01*
X81769802Y-65898855D01*
X81606132Y-65864067D01*
X81584646Y-65859500D01*
X81449500Y-65859500D01*
X81382461Y-65839815D01*
X81336706Y-65787011D01*
X81325500Y-65735500D01*
X81325500Y-64671751D01*
X81327224Y-64656131D01*
X81326939Y-64656104D01*
X81327673Y-64648342D01*
X81325500Y-64579181D01*
X81325500Y-64549665D01*
X81325500Y-64549659D01*
X81324631Y-64542788D01*
X81324173Y-64536961D01*
X81324095Y-64534475D01*
X81322710Y-64490382D01*
X81317119Y-64471139D01*
X81313173Y-64452087D01*
X81310664Y-64432217D01*
X81293504Y-64388876D01*
X81291624Y-64383388D01*
X81278618Y-64338619D01*
X81268422Y-64321379D01*
X81259861Y-64303903D01*
X81252487Y-64285279D01*
X81252486Y-64285277D01*
X81225079Y-64247554D01*
X81221888Y-64242695D01*
X81221717Y-64242406D01*
X81200961Y-64207308D01*
X81198172Y-64202592D01*
X81198165Y-64202583D01*
X81184006Y-64188424D01*
X81171368Y-64173628D01*
X81159594Y-64157422D01*
X81145568Y-64145819D01*
X81123688Y-64127718D01*
X81119376Y-64123795D01*
X80425064Y-63429483D01*
X80391579Y-63368160D01*
X80396563Y-63298468D01*
X80425061Y-63254123D01*
X80450047Y-63229139D01*
X80580568Y-63042734D01*
X80676739Y-62836496D01*
X80735635Y-62616692D01*
X80754224Y-62404214D01*
X80755468Y-62390001D01*
X80755468Y-62389998D01*
X80744262Y-62261913D01*
X80735635Y-62163308D01*
X80676739Y-61943504D01*
X80580568Y-61737266D01*
X80460924Y-61566395D01*
X80450045Y-61550858D01*
X80289143Y-61389956D01*
X80264536Y-61372726D01*
X80220912Y-61318149D01*
X80213719Y-61248650D01*
X80245241Y-61186296D01*
X80305471Y-61150882D01*
X80322404Y-61147861D01*
X80357483Y-61144091D01*
X80492331Y-61093796D01*
X80607546Y-61007546D01*
X80693796Y-60892331D01*
X80744091Y-60757483D01*
X80750500Y-60697873D01*
X80750499Y-59445568D01*
X80770184Y-59378530D01*
X80822987Y-59332775D01*
X80892146Y-59322831D01*
X80955702Y-59351856D01*
G37*
%TD.AperFunction*%
%TA.AperFunction,Conductor*%
G36*
X69342768Y-64220685D02*
G01*
X69388523Y-64273489D01*
X69398467Y-64342647D01*
X69395504Y-64357093D01*
X69364366Y-64473302D01*
X69364364Y-64473313D01*
X69344532Y-64699998D01*
X69344532Y-64700001D01*
X69364364Y-64926686D01*
X69364366Y-64926697D01*
X69395638Y-65043407D01*
X69393975Y-65113257D01*
X69354812Y-65171119D01*
X69290583Y-65198623D01*
X69275863Y-65199500D01*
X67045457Y-65199500D01*
X66978418Y-65179815D01*
X66957776Y-65163181D01*
X66663931Y-64869336D01*
X66345808Y-64551212D01*
X66335985Y-64538950D01*
X66335764Y-64539134D01*
X66330791Y-64533123D01*
X66280369Y-64485773D01*
X66265739Y-64471143D01*
X66259480Y-64464883D01*
X66253991Y-64460625D01*
X66249566Y-64456847D01*
X66215587Y-64424938D01*
X66215585Y-64424937D01*
X66209898Y-64419596D01*
X66210886Y-64418542D01*
X66173446Y-64369991D01*
X66167465Y-64300378D01*
X66200069Y-64238582D01*
X66260907Y-64204223D01*
X66288996Y-64201000D01*
X69275729Y-64201000D01*
X69342768Y-64220685D01*
G37*
%TD.AperFunction*%
%TA.AperFunction,Conductor*%
G36*
X42785774Y-63054104D02*
G01*
X42818195Y-63074940D01*
X42819469Y-63073298D01*
X42825632Y-63078078D01*
X42825635Y-63078081D01*
X42967102Y-63161744D01*
X43008724Y-63173836D01*
X43124926Y-63207597D01*
X43124929Y-63207597D01*
X43124931Y-63207598D01*
X43133661Y-63208285D01*
X43161804Y-63210500D01*
X43161806Y-63210500D01*
X43318000Y-63210500D01*
X43385039Y-63230185D01*
X43430794Y-63282989D01*
X43442000Y-63334500D01*
X43442000Y-63832965D01*
X43422315Y-63900004D01*
X43369511Y-63945759D01*
X43300353Y-63955703D01*
X43236797Y-63926678D01*
X43225854Y-63915942D01*
X43145871Y-63827112D01*
X43097973Y-63792312D01*
X42992734Y-63715851D01*
X42992729Y-63715848D01*
X42819807Y-63638857D01*
X42819802Y-63638855D01*
X42667226Y-63606425D01*
X42634646Y-63599500D01*
X42445354Y-63599500D01*
X42423920Y-63604056D01*
X42260197Y-63638855D01*
X42260192Y-63638857D01*
X42087270Y-63715848D01*
X42053646Y-63740277D01*
X42039833Y-63750313D01*
X41974028Y-63773793D01*
X41966949Y-63773995D01*
X40183400Y-63773995D01*
X40116361Y-63754310D01*
X40089378Y-63727158D01*
X40087600Y-63728630D01*
X40082628Y-63722620D01*
X40060328Y-63701679D01*
X40032203Y-63675267D01*
X40022720Y-63665784D01*
X40011316Y-63654379D01*
X40005826Y-63650120D01*
X40001401Y-63646342D01*
X39967422Y-63614433D01*
X39967420Y-63614431D01*
X39967417Y-63614430D01*
X39949869Y-63604783D01*
X39933603Y-63594099D01*
X39927031Y-63589001D01*
X39917776Y-63581822D01*
X39917775Y-63581821D01*
X39917773Y-63581820D01*
X39875008Y-63563313D01*
X39869762Y-63560743D01*
X39828933Y-63538298D01*
X39828932Y-63538297D01*
X39809533Y-63533317D01*
X39791121Y-63527013D01*
X39765574Y-63515957D01*
X39766827Y-63513060D01*
X39720235Y-63483309D01*
X39691025Y-63419838D01*
X39690390Y-63388883D01*
X39697741Y-63318938D01*
X39724324Y-63254327D01*
X39781622Y-63214342D01*
X39811337Y-63208285D01*
X39820069Y-63207598D01*
X39820071Y-63207597D01*
X39820073Y-63207597D01*
X39891834Y-63186748D01*
X39977898Y-63161744D01*
X40119365Y-63078081D01*
X40119370Y-63078075D01*
X40125531Y-63073298D01*
X40127433Y-63075750D01*
X40176079Y-63049155D01*
X40245774Y-63054104D01*
X40278195Y-63074940D01*
X40279469Y-63073298D01*
X40285632Y-63078078D01*
X40285635Y-63078081D01*
X40427102Y-63161744D01*
X40468724Y-63173836D01*
X40584926Y-63207597D01*
X40584929Y-63207597D01*
X40584931Y-63207598D01*
X40593661Y-63208285D01*
X40621804Y-63210500D01*
X40621806Y-63210500D01*
X41053196Y-63210500D01*
X41071631Y-63209049D01*
X41090069Y-63207598D01*
X41090071Y-63207597D01*
X41090073Y-63207597D01*
X41161834Y-63186748D01*
X41247898Y-63161744D01*
X41389365Y-63078081D01*
X41389370Y-63078075D01*
X41395531Y-63073298D01*
X41397433Y-63075750D01*
X41446079Y-63049155D01*
X41515774Y-63054104D01*
X41548195Y-63074940D01*
X41549469Y-63073298D01*
X41555632Y-63078078D01*
X41555635Y-63078081D01*
X41697102Y-63161744D01*
X41738724Y-63173836D01*
X41854926Y-63207597D01*
X41854929Y-63207597D01*
X41854931Y-63207598D01*
X41863661Y-63208285D01*
X41891804Y-63210500D01*
X41891806Y-63210500D01*
X42323196Y-63210500D01*
X42341631Y-63209049D01*
X42360069Y-63207598D01*
X42360071Y-63207597D01*
X42360073Y-63207597D01*
X42431834Y-63186748D01*
X42517898Y-63161744D01*
X42659365Y-63078081D01*
X42659370Y-63078075D01*
X42665531Y-63073298D01*
X42667433Y-63075750D01*
X42716079Y-63049155D01*
X42785774Y-63054104D01*
G37*
%TD.AperFunction*%
%TA.AperFunction,Conductor*%
G36*
X50042134Y-60295185D02*
G01*
X50087475Y-60347093D01*
X50099432Y-60372734D01*
X50099433Y-60372736D01*
X50229954Y-60559141D01*
X50390858Y-60720045D01*
X50402435Y-60728151D01*
X50577266Y-60850568D01*
X50622588Y-60871702D01*
X50635275Y-60877618D01*
X50687714Y-60923791D01*
X50706866Y-60990984D01*
X50686650Y-61057865D01*
X50635275Y-61102381D01*
X50618272Y-61110310D01*
X50577267Y-61129431D01*
X50577265Y-61129432D01*
X50390858Y-61259954D01*
X50229954Y-61420858D01*
X50099432Y-61607265D01*
X50099431Y-61607267D01*
X50003261Y-61813502D01*
X50003258Y-61813511D01*
X49944366Y-62033302D01*
X49944364Y-62033313D01*
X49924532Y-62259998D01*
X49924532Y-62260001D01*
X49944364Y-62486686D01*
X49944366Y-62486697D01*
X50003258Y-62706488D01*
X50003261Y-62706497D01*
X50014033Y-62729597D01*
X50040101Y-62785500D01*
X50045975Y-62798095D01*
X50056467Y-62867172D01*
X50027948Y-62930956D01*
X49969471Y-62969196D01*
X49933593Y-62974500D01*
X49710452Y-62974500D01*
X49643413Y-62954815D01*
X49622771Y-62938181D01*
X49328219Y-62643628D01*
X49294734Y-62582305D01*
X49291900Y-62555947D01*
X49291900Y-61618242D01*
X49293624Y-61602622D01*
X49293339Y-61602595D01*
X49294073Y-61594833D01*
X49293412Y-61573803D01*
X49291900Y-61525671D01*
X49291900Y-61496150D01*
X49291031Y-61489279D01*
X49290573Y-61483452D01*
X49289864Y-61460878D01*
X49289110Y-61436873D01*
X49283519Y-61417630D01*
X49279573Y-61398578D01*
X49277064Y-61378708D01*
X49259904Y-61335367D01*
X49258024Y-61329879D01*
X49245018Y-61285110D01*
X49243434Y-61282432D01*
X49234823Y-61267871D01*
X49226261Y-61250394D01*
X49218887Y-61231770D01*
X49218886Y-61231768D01*
X49191479Y-61194045D01*
X49188288Y-61189186D01*
X49164572Y-61149083D01*
X49164565Y-61149074D01*
X49150406Y-61134915D01*
X49137768Y-61120119D01*
X49134018Y-61114957D01*
X49125994Y-61103913D01*
X49124143Y-61102382D01*
X49090088Y-61074209D01*
X49085776Y-61070286D01*
X48502672Y-60487181D01*
X48469187Y-60425858D01*
X48474171Y-60356166D01*
X48516043Y-60300233D01*
X48581507Y-60275816D01*
X48590353Y-60275500D01*
X49975095Y-60275500D01*
X50042134Y-60295185D01*
G37*
%TD.AperFunction*%
%TA.AperFunction,Conductor*%
G36*
X61722902Y-59140185D02*
G01*
X61768657Y-59192989D01*
X61778601Y-59262147D01*
X61775638Y-59276593D01*
X61744366Y-59393302D01*
X61744364Y-59393313D01*
X61724532Y-59619998D01*
X61724532Y-59620001D01*
X61744364Y-59846686D01*
X61744366Y-59846697D01*
X61802433Y-60063407D01*
X61800770Y-60133257D01*
X61761607Y-60191119D01*
X61697379Y-60218623D01*
X61682658Y-60219500D01*
X60223619Y-60219500D01*
X60156580Y-60199815D01*
X60110825Y-60147011D01*
X60100881Y-60077853D01*
X60103844Y-60063406D01*
X60128872Y-59970000D01*
X59360576Y-59970000D01*
X59293537Y-59950315D01*
X59247782Y-59897511D01*
X59237838Y-59828353D01*
X59238103Y-59826603D01*
X59254986Y-59720003D01*
X59254986Y-59719996D01*
X59238103Y-59613397D01*
X59247058Y-59544104D01*
X59292054Y-59490652D01*
X59358806Y-59470013D01*
X59360576Y-59470000D01*
X60128872Y-59470000D01*
X60128871Y-59469999D01*
X60077049Y-59276594D01*
X60078712Y-59206744D01*
X60117874Y-59148881D01*
X60182103Y-59121377D01*
X60196824Y-59120500D01*
X61655863Y-59120500D01*
X61722902Y-59140185D01*
G37*
%TD.AperFunction*%
%TA.AperFunction,Conductor*%
G36*
X69343420Y-59140185D02*
G01*
X69389175Y-59192989D01*
X69399119Y-59262147D01*
X69396156Y-59276594D01*
X69371128Y-59369999D01*
X69371128Y-59370000D01*
X70139424Y-59370000D01*
X70206463Y-59389685D01*
X70252218Y-59442489D01*
X70262162Y-59511647D01*
X70261897Y-59513397D01*
X70245014Y-59619996D01*
X70245014Y-59620003D01*
X70261897Y-59726603D01*
X70252942Y-59795896D01*
X70207946Y-59849348D01*
X70141194Y-59869987D01*
X70139424Y-59870000D01*
X69371128Y-59870000D01*
X69422951Y-60063406D01*
X69421288Y-60133256D01*
X69382126Y-60191119D01*
X69317897Y-60218623D01*
X69303176Y-60219500D01*
X64377342Y-60219500D01*
X64310303Y-60199815D01*
X64264548Y-60147011D01*
X64254604Y-60077853D01*
X64257567Y-60063407D01*
X64287869Y-59950315D01*
X64315635Y-59846692D01*
X64335468Y-59620000D01*
X64315635Y-59393308D01*
X64295992Y-59320000D01*
X64284362Y-59276593D01*
X64286025Y-59206743D01*
X64325188Y-59148881D01*
X64389417Y-59121377D01*
X64404137Y-59120500D01*
X69276381Y-59120500D01*
X69343420Y-59140185D01*
G37*
%TD.AperFunction*%
%TA.AperFunction,Conductor*%
G36*
X57542871Y-59445185D02*
G01*
X57569846Y-59470000D01*
X58339424Y-59470000D01*
X58406463Y-59489685D01*
X58452218Y-59542489D01*
X58462162Y-59611647D01*
X58461897Y-59613397D01*
X58445014Y-59719996D01*
X58445014Y-59720003D01*
X58461897Y-59826603D01*
X58452942Y-59895896D01*
X58407946Y-59949348D01*
X58341194Y-59969987D01*
X58339424Y-59970000D01*
X57571128Y-59970000D01*
X57586135Y-60026006D01*
X57584472Y-60095856D01*
X57545310Y-60153719D01*
X57481081Y-60181223D01*
X57466360Y-60182100D01*
X52765143Y-60182100D01*
X52749522Y-60180375D01*
X52749495Y-60180661D01*
X52741733Y-60179926D01*
X52672572Y-60182100D01*
X52643050Y-60182100D01*
X52636171Y-60182968D01*
X52630357Y-60183425D01*
X52617571Y-60183827D01*
X52549947Y-60166257D01*
X52502557Y-60114916D01*
X52490447Y-60046104D01*
X52493900Y-60027805D01*
X52515635Y-59946692D01*
X52535468Y-59720000D01*
X52531986Y-59680196D01*
X52521497Y-59560307D01*
X52535264Y-59491807D01*
X52583879Y-59441624D01*
X52645025Y-59425500D01*
X57475832Y-59425500D01*
X57542871Y-59445185D01*
G37*
%TD.AperFunction*%
%TA.AperFunction,Conductor*%
G36*
X112953886Y-58220185D02*
G01*
X112999641Y-58272989D01*
X113009585Y-58342147D01*
X112980560Y-58405703D01*
X112953630Y-58428980D01*
X112925162Y-58447176D01*
X112855771Y-58488927D01*
X112854992Y-58489519D01*
X112838267Y-58502595D01*
X112837517Y-58503198D01*
X112780270Y-58560444D01*
X112721458Y-58616154D01*
X112720825Y-58616899D01*
X112706596Y-58634116D01*
X112687680Y-58653032D01*
X112626357Y-58686517D01*
X112556665Y-58681533D01*
X112512318Y-58653032D01*
X112485070Y-58625784D01*
X112454104Y-58594818D01*
X112450701Y-58591126D01*
X112449261Y-58589431D01*
X112414834Y-58548900D01*
X112389728Y-58529815D01*
X112350388Y-58499909D01*
X112287256Y-58449162D01*
X112287255Y-58449161D01*
X112287251Y-58449158D01*
X112287245Y-58449155D01*
X112286351Y-58448583D01*
X112268516Y-58437520D01*
X112261803Y-58433482D01*
X112262456Y-58432395D01*
X112215185Y-58391026D01*
X112195829Y-58323891D01*
X112215843Y-58256949D01*
X112268871Y-58211454D01*
X112319828Y-58200500D01*
X112886847Y-58200500D01*
X112953886Y-58220185D01*
G37*
%TD.AperFunction*%
%TD*%
M02*
