M48
; DRILL file {KiCad 7.0.7} date qui 07 set 2023 16:08:59
; FORMAT={-:-/ absolute / inch / decimal}
; #@! TF.CreationDate,2023-09-07T16:08:59+01:00
; #@! TF.GenerationSoftware,Kicad,Pcbnew,7.0.7
; #@! TF.FileFunction,Plated,1,2,PTH
FMAT,2
INCH
; #@! TA.AperFunction,Plated,PTH,ViaDrill
T1C0.0157
; #@! TA.AperFunction,Plated,PTH,ComponentDrill
T2C0.0315
; #@! TA.AperFunction,Plated,PTH,ComponentDrill
T3C0.0433
%
G90
G05
T1
X1.2246Y-3.1593
X1.225Y-2.51
X1.229Y-3.109
X1.2748Y-3.0992
X1.2828Y-2.5784
X1.2874Y-2.498
X1.2882Y-2.8094
X1.289Y-2.6299
X1.322Y-3.0798
X1.37Y-3.0513
X1.3969Y-2.6441
X1.458Y-2.848
X1.47Y-2.64
X1.4702Y-3.2848
X1.504Y-2.8
X1.504Y-3.092
X1.514Y-3.0241
X1.5276Y-2.49
X1.5325Y-2.9302
X1.5471Y-2.5531
X1.5516Y-2.8343
X1.5615Y-3.1092
X1.582Y-2.76
X1.5945Y-3.2866
X1.6024Y-2.5039
X1.6194Y-3.1245
X1.6201Y-2.9263
X1.6724Y-2.8209
X1.6748Y-2.5394
X1.6924Y-2.491
X1.6941Y-3.1409
X1.7012Y-3.0241
X1.7037Y-2.6797
X1.7165Y-3.2866
X1.7185Y-2.5551
X1.7217Y-2.6128
X1.724Y-2.7559
X1.7702Y-3.102
X1.788Y-2.404
X1.7918Y-3.2866
X1.7941Y-3.0241
X1.8308Y-2.6137
X1.8346Y-3.2866
X1.84Y-2.432
X1.8732Y-2.6157
X1.8865Y-3.1112
X1.8907Y-3.186
X1.8942Y-2.696
X1.9043Y-2.6529
X1.921Y-3.2129
X1.9305Y-2.9477
X1.9439Y-2.9095
X1.9441Y-3.0516
X1.952Y-2.5755
X1.9588Y-2.4605
X1.9706Y-2.7946
X2.0718Y-3.1008
X2.092Y-2.684
X2.108Y-2.536
X2.1417Y-3.1362
X2.1786Y-3.1074
X2.192Y-2.6785
X2.2274Y-3.0667
X2.2283Y-2.878
X2.24Y-2.8354
X2.242Y-2.72
X2.3526Y-3.289
X2.3538Y-3.2295
X2.384Y-3.07
X2.42Y-2.546
X2.423Y-2.956
X2.532Y-3.194
X2.556Y-2.866
X2.562Y-2.67
X2.5646Y-2.585
X2.5795Y-2.6285
X2.596Y-3.106
X2.618Y-2.54
X2.62Y-2.3492
X2.64Y-2.748
X2.656Y-2.83
X2.6654Y-3.0236
X2.7008Y-2.6417
X2.706Y-2.538
X2.718Y-2.4744
X2.722Y-2.704
X2.722Y-3.1808
X2.8123Y-2.8963
X2.8224Y-2.6093
X2.8248Y-2.5069
X2.834Y-3.214
X2.85Y-3.1299
X2.8553Y-2.5404
X2.9044Y-2.8622
X2.9435Y-2.5183
X2.9626Y-2.8234
X2.9643Y-3.2346
X2.9823Y-2.9429
X3.0251Y-3.2145
X3.0302Y-3.2814
X3.0394Y-3.1191
X3.0551Y-2.7563
X3.0551Y-2.8541
X3.0669Y-2.3169
X3.0906Y-3.0039
X3.1098Y-3.2672
X3.2067Y-2.8959
X3.2083Y-2.6283
X3.2106Y-3.1184
X3.2106Y-3.1762
X3.2185Y-3.0772
X3.22Y-2.322
X3.238Y-2.36
X3.2774Y-3.2094
X3.2776Y-2.9622
X3.2912Y-2.6835
X3.3071Y-3.0724
X3.3105Y-3.2318
X3.3133Y-2.8066
X3.3349Y-2.538
X3.3465Y-2.7854
X3.3572Y-3.1043
X3.3616Y-2.4915
X3.3661Y-2.7228
X3.378Y-3.1594
X3.392Y-2.588
X3.4174Y-2.9769
X3.432Y-2.696
X3.4418Y-3.0719
X3.4439Y-2.886
X3.4518Y-3.1467
X3.4646Y-2.8228
X3.468Y-2.622
X3.5131Y-2.5509
X3.5215Y-2.9268
X3.5236Y-3.1279
X3.5591Y-3.2685
X3.5902Y-3.189
X3.6185Y-2.7665
X3.6389Y-2.8665
X3.6488Y-2.6212
X3.6506Y-3.1645
X3.6535Y-2.5197
X3.6795Y-2.8291
X3.6937Y-2.9102
X3.6988Y-2.5083
X3.7386Y-2.7113
X3.7402Y-2.8665
X3.742Y-3.136
X3.7421Y-2.6605
X3.7717Y-2.4713
X3.8091Y-3.1496
X3.8228Y-3.0709
X3.8394Y-2.4579
X3.8541Y-2.6927
X3.8661Y-2.8504
X3.8791Y-2.638
X3.886Y-3.178
X3.9071Y-2.6087
X3.937Y-2.7992
X3.937Y-3.0984
X3.9385Y-2.841
X3.95Y-2.3622
X3.998Y-3.186
X4.0098Y-2.5756
X4.0256Y-3.066
X4.0402Y-2.4476
X4.07Y-3.1635
X4.0878Y-2.6161
X4.092Y-2.724
X4.113Y-2.5469
X4.1274Y-2.9767
X4.132Y-3.088
X4.1335Y-2.3834
X4.1358Y-2.8748
X4.1496Y-3.126
X4.1839Y-2.7669
X4.1911Y-2.6096
X4.194Y-3.192
X4.244Y-3.092
X4.287Y-2.7713
X4.306Y-3.184
X4.3631Y-3.1781
X4.3732Y-2.9197
X4.3833Y-2.727
X4.3859Y-2.6586
X4.394Y-2.956
X4.3976Y-2.815
X4.3992Y-2.8901
X4.4331Y-2.3071
X4.4366Y-2.8673
X4.444Y-3.0678
X4.5053Y-2.7762
X4.5079Y-2.5906
X4.5083Y-2.8516
X4.6112Y-3.0904
X4.692Y-2.888
T2
X2.0169Y-2.3512
X2.0169Y-2.4512
X2.0169Y-2.5512
X2.0169Y-2.6512
X2.0169Y-2.7512
X2.0169Y-2.8512
X2.0169Y-2.9512
X2.0169Y-3.0512
X2.3169Y-2.3512
X2.3169Y-2.4512
X2.3169Y-2.5512
X2.3169Y-2.6512
X2.3169Y-2.7512
X2.3169Y-2.8512
X2.3169Y-2.9512
X2.3169Y-3.0512
X2.4815Y-2.3472
X2.4815Y-2.4472
X2.4815Y-2.5472
X2.4815Y-2.6472
X2.4815Y-2.7472
X2.4815Y-2.8472
X2.4815Y-2.9472
X2.4815Y-3.0472
X2.7815Y-2.3472
X2.7815Y-2.4472
X2.7815Y-2.5472
X2.7815Y-2.6472
X2.7815Y-2.7472
X2.7815Y-2.8472
X2.7815Y-2.9472
X2.7815Y-3.0472
X3.128Y-2.3563
X3.128Y-2.4563
X3.128Y-2.5563
X3.128Y-2.6563
X3.128Y-2.7563
X3.128Y-2.8563
X3.128Y-2.9563
X3.128Y-3.0563
X3.128Y-3.1563
X3.2902Y-2.4173
X3.2902Y-3.0173
X3.3902Y-2.4173
X3.3902Y-3.0173
X3.4902Y-2.4173
X3.4902Y-3.0173
X3.5902Y-2.4173
X3.5902Y-3.0173
X3.6902Y-2.4173
X3.6902Y-3.0173
X3.7902Y-2.4173
X3.7902Y-3.0173
X3.8902Y-2.4173
X3.8902Y-3.0173
X3.9902Y-2.4173
X3.9902Y-3.0173
X4.0902Y-2.4173
X4.0902Y-3.0173
X4.1902Y-2.4173
X4.1902Y-3.0173
X4.2902Y-2.4173
X4.2902Y-3.0173
X4.3902Y-2.4173
X4.3902Y-3.0173
X4.4902Y-2.4173
X4.4902Y-3.0173
X4.5902Y-2.4173
X4.5902Y-3.0173
T3
X2.8957Y-2.3996
X2.9957Y-2.3996
T0
M30
