%TF.GenerationSoftware,KiCad,Pcbnew,7.0.6*%
%TF.CreationDate,2023-08-28T12:52:08+01:00*%
%TF.ProjectId,FamiCartFlex,46616d69-4361-4727-9446-6c65782e6b69,rev?*%
%TF.SameCoordinates,Original*%
%TF.FileFunction,Soldermask,Bot*%
%TF.FilePolarity,Negative*%
%FSLAX46Y46*%
G04 Gerber Fmt 4.6, Leading zero omitted, Abs format (unit mm)*
G04 Created by KiCad (PCBNEW 7.0.6) date 2023-08-28 12:52:08*
%MOMM*%
%LPD*%
G01*
G04 APERTURE LIST*
G04 Aperture macros list*
%AMRoundRect*
0 Rectangle with rounded corners*
0 $1 Rounding radius*
0 $2 $3 $4 $5 $6 $7 $8 $9 X,Y pos of 4 corners*
0 Add a 4 corners polygon primitive as box body*
4,1,4,$2,$3,$4,$5,$6,$7,$8,$9,$2,$3,0*
0 Add four circle primitives for the rounded corners*
1,1,$1+$1,$2,$3*
1,1,$1+$1,$4,$5*
1,1,$1+$1,$6,$7*
1,1,$1+$1,$8,$9*
0 Add four rect primitives between the rounded corners*
20,1,$1+$1,$2,$3,$4,$5,0*
20,1,$1+$1,$4,$5,$6,$7,0*
20,1,$1+$1,$6,$7,$8,$9,0*
20,1,$1+$1,$8,$9,$2,$3,0*%
%AMFreePoly0*
4,1,19,0.500000,-0.750000,0.000000,-0.750000,0.000000,-0.744911,-0.071157,-0.744911,-0.207708,-0.704816,-0.327430,-0.627875,-0.420627,-0.520320,-0.479746,-0.390866,-0.500000,-0.250000,-0.500000,0.250000,-0.479746,0.390866,-0.420627,0.520320,-0.327430,0.627875,-0.207708,0.704816,-0.071157,0.744911,0.000000,0.744911,0.000000,0.750000,0.500000,0.750000,0.500000,-0.750000,0.500000,-0.750000,
$1*%
%AMFreePoly1*
4,1,19,0.000000,0.744911,0.071157,0.744911,0.207708,0.704816,0.327430,0.627875,0.420627,0.520320,0.479746,0.390866,0.500000,0.250000,0.500000,-0.250000,0.479746,-0.390866,0.420627,-0.520320,0.327430,-0.627875,0.207708,-0.704816,0.071157,-0.744911,0.000000,-0.744911,0.000000,-0.750000,-0.500000,-0.750000,-0.500000,0.750000,0.000000,0.750000,0.000000,0.744911,0.000000,0.744911,
$1*%
%AMFreePoly2*
4,1,19,0.550000,-0.750000,0.000000,-0.750000,0.000000,-0.744911,-0.071157,-0.744911,-0.207708,-0.704816,-0.327430,-0.627875,-0.420627,-0.520320,-0.479746,-0.390866,-0.500000,-0.250000,-0.500000,0.250000,-0.479746,0.390866,-0.420627,0.520320,-0.327430,0.627875,-0.207708,0.704816,-0.071157,0.744911,0.000000,0.744911,0.000000,0.750000,0.550000,0.750000,0.550000,-0.750000,0.550000,-0.750000,
$1*%
%AMFreePoly3*
4,1,19,0.000000,0.744911,0.071157,0.744911,0.207708,0.704816,0.327430,0.627875,0.420627,0.520320,0.479746,0.390866,0.500000,0.250000,0.500000,-0.250000,0.479746,-0.390866,0.420627,-0.520320,0.327430,-0.627875,0.207708,-0.704816,0.071157,-0.744911,0.000000,-0.744911,0.000000,-0.750000,-0.550000,-0.750000,-0.550000,0.750000,0.000000,0.750000,0.000000,0.744911,0.000000,0.744911,
$1*%
G04 Aperture macros list end*
%ADD10C,0.100000*%
%ADD11C,1.400000*%
%ADD12O,1.400000X1.400000*%
%ADD13O,2.200000X2.200000*%
%ADD14R,2.200000X2.200000*%
%ADD15R,1.600000X1.600000*%
%ADD16O,1.600000X1.600000*%
%ADD17R,1.422400X1.422400*%
%ADD18C,1.422400*%
%ADD19FreePoly0,0.000000*%
%ADD20FreePoly1,0.000000*%
%ADD21RoundRect,0.250000X0.475000X-0.337500X0.475000X0.337500X-0.475000X0.337500X-0.475000X-0.337500X0*%
%ADD22FreePoly2,180.000000*%
%ADD23R,1.000000X1.500000*%
%ADD24FreePoly3,180.000000*%
%ADD25RoundRect,0.250000X-0.337500X-0.475000X0.337500X-0.475000X0.337500X0.475000X-0.337500X0.475000X0*%
%ADD26FreePoly2,270.000000*%
%ADD27R,1.500000X1.000000*%
%ADD28FreePoly3,270.000000*%
%ADD29FreePoly2,0.000000*%
%ADD30FreePoly3,0.000000*%
%ADD31RoundRect,0.250000X-0.475000X0.337500X-0.475000X-0.337500X0.475000X-0.337500X0.475000X0.337500X0*%
%ADD32FreePoly0,90.000000*%
%ADD33FreePoly1,90.000000*%
G04 APERTURE END LIST*
D10*
%TO.C,H1*%
X35800000Y-85100000D02*
X114200000Y-85100000D01*
X114200000Y-85100000D02*
X114200000Y-91400000D01*
X114200000Y-91400000D02*
X35800000Y-91400000D01*
X35800000Y-91400000D02*
X35800000Y-85100000D01*
G36*
X35800000Y-85100000D02*
G01*
X114200000Y-85100000D01*
X114200000Y-91400000D01*
X35800000Y-91400000D01*
X35800000Y-85100000D01*
G37*
%TD*%
D11*
%TO.C,R1*%
X76490000Y-70020000D03*
D12*
X73950000Y-70020000D03*
%TD*%
D13*
%TO.C,D1*%
X76090000Y-60950000D03*
D14*
X73550000Y-60950000D03*
%TD*%
D15*
%TO.C,U4*%
X70650000Y-77400000D03*
D16*
X70650000Y-74860000D03*
X70650000Y-72320000D03*
X70650000Y-69780000D03*
X70650000Y-67240000D03*
X70650000Y-64700000D03*
X70650000Y-62160000D03*
X70650000Y-59620000D03*
X63030000Y-59620000D03*
X63030000Y-62160000D03*
X63030000Y-64700000D03*
X63030000Y-67240000D03*
X63030000Y-69780000D03*
X63030000Y-72320000D03*
X63030000Y-74860000D03*
X63030000Y-77400000D03*
%TD*%
D15*
%TO.C,U5*%
X83570000Y-76640000D03*
D16*
X86110000Y-76640000D03*
X88650000Y-76640000D03*
X91190000Y-76640000D03*
X93730000Y-76640000D03*
X96270000Y-76640000D03*
X98810000Y-76640000D03*
X101350000Y-76640000D03*
X103890000Y-76640000D03*
X106430000Y-76640000D03*
X108970000Y-76640000D03*
X111510000Y-76640000D03*
X114050000Y-76640000D03*
X116590000Y-76640000D03*
X116590000Y-61400000D03*
X114050000Y-61400000D03*
X111510000Y-61400000D03*
X108970000Y-61400000D03*
X106430000Y-61400000D03*
X103890000Y-61400000D03*
X101350000Y-61400000D03*
X98810000Y-61400000D03*
X96270000Y-61400000D03*
X93730000Y-61400000D03*
X91190000Y-61400000D03*
X88650000Y-61400000D03*
X86110000Y-61400000D03*
X83570000Y-61400000D03*
%TD*%
D17*
%TO.C,U1*%
X40820000Y-63800000D03*
D18*
X38280000Y-61260000D03*
X38280000Y-63800000D03*
X35740000Y-61260000D03*
X33200000Y-63800000D03*
X35740000Y-63800000D03*
X33200000Y-66340000D03*
X35740000Y-66340000D03*
X33200000Y-68880000D03*
X35740000Y-68880000D03*
X33200000Y-71420000D03*
X35740000Y-71420000D03*
X33200000Y-73960000D03*
X35740000Y-76500000D03*
X35740000Y-73960000D03*
X38280000Y-76500000D03*
X38280000Y-73960000D03*
X40820000Y-76500000D03*
X40820000Y-73960000D03*
X43360000Y-76500000D03*
X45900000Y-73960000D03*
X43360000Y-73960000D03*
X45900000Y-71420000D03*
X43360000Y-71420000D03*
X45900000Y-68880000D03*
X43360000Y-68880000D03*
X45900000Y-66340000D03*
X43360000Y-66340000D03*
X45900000Y-63800000D03*
X43360000Y-61260000D03*
X43360000Y-63800000D03*
X40820000Y-61260000D03*
%TD*%
D15*
%TO.C,RN1*%
X79450000Y-59850000D03*
D16*
X79450000Y-62390000D03*
X79450000Y-64930000D03*
X79450000Y-67470000D03*
X79450000Y-70010000D03*
X79450000Y-72550000D03*
X79450000Y-75090000D03*
X79450000Y-77630000D03*
X79450000Y-80170000D03*
%TD*%
D17*
%TO.C,U2*%
X97540000Y-67730000D03*
D18*
X95000000Y-70270000D03*
X97540000Y-70270000D03*
X95000000Y-72810000D03*
X97540000Y-75350000D03*
X97540000Y-72810000D03*
X100080000Y-75350000D03*
X100080000Y-72810000D03*
X102620000Y-75350000D03*
X102620000Y-72810000D03*
X105160000Y-75350000D03*
X105160000Y-72810000D03*
X107700000Y-75350000D03*
X110240000Y-72810000D03*
X107700000Y-72810000D03*
X110240000Y-70270000D03*
X107700000Y-70270000D03*
X110240000Y-67730000D03*
X107700000Y-67730000D03*
X110240000Y-65190000D03*
X107700000Y-62650000D03*
X107700000Y-65190000D03*
X105160000Y-62650000D03*
X105160000Y-65190000D03*
X102620000Y-62650000D03*
X102620000Y-65190000D03*
X100080000Y-62650000D03*
X100080000Y-65190000D03*
X97540000Y-62650000D03*
X95000000Y-65190000D03*
X97540000Y-65190000D03*
X95000000Y-67730000D03*
%TD*%
D15*
%TO.C,U3*%
X58850000Y-77500000D03*
D16*
X58850000Y-74960000D03*
X58850000Y-72420000D03*
X58850000Y-69880000D03*
X58850000Y-67340000D03*
X58850000Y-64800000D03*
X58850000Y-62260000D03*
X58850000Y-59720000D03*
X51230000Y-59720000D03*
X51230000Y-62260000D03*
X51230000Y-64800000D03*
X51230000Y-67340000D03*
X51230000Y-69880000D03*
X51230000Y-72420000D03*
X51230000Y-74960000D03*
X51230000Y-77500000D03*
%TD*%
D19*
%TO.C,J53*%
X75000000Y-80162400D03*
D20*
X76300000Y-80162400D03*
%TD*%
D21*
%TO.C,C3*%
X64973200Y-77237500D03*
X64973200Y-75162500D03*
%TD*%
D22*
%TO.C,JP7*%
X105206800Y-70358000D03*
D23*
X103906800Y-70358000D03*
D24*
X102606800Y-70358000D03*
%TD*%
D21*
%TO.C,C2*%
X53695600Y-76606400D03*
X53695600Y-74531400D03*
%TD*%
D25*
%TO.C,C4*%
X83616800Y-59080400D03*
X85691800Y-59080400D03*
%TD*%
D22*
%TO.C,JP2*%
X41330400Y-66151500D03*
D23*
X40030400Y-66151500D03*
D24*
X38730400Y-66151500D03*
%TD*%
D19*
%TO.C,JP1*%
X81750000Y-82850000D03*
D20*
X83050000Y-82850000D03*
%TD*%
D22*
%TO.C,JP12*%
X74800000Y-75000000D03*
D23*
X73500000Y-75000000D03*
D24*
X72200000Y-75000000D03*
%TD*%
D22*
%TO.C,JP8*%
X55605200Y-72298300D03*
D23*
X54305200Y-72298300D03*
D24*
X53005200Y-72298300D03*
%TD*%
D26*
%TO.C,JP5*%
X86115900Y-72004400D03*
D27*
X86115900Y-73304400D03*
D28*
X86115900Y-74604400D03*
%TD*%
D29*
%TO.C,JP6*%
X73800000Y-72300000D03*
D23*
X75100000Y-72300000D03*
D30*
X76400000Y-72300000D03*
%TD*%
D31*
%TO.C,C1*%
X47650400Y-63072100D03*
X47650400Y-65147100D03*
%TD*%
D22*
%TO.C,JP10*%
X85800000Y-80250000D03*
D23*
X84500000Y-80250000D03*
D24*
X83200000Y-80250000D03*
%TD*%
D31*
%TO.C,C5*%
X93218000Y-67927400D03*
X93218000Y-70002400D03*
%TD*%
D32*
%TO.C,J1*%
X83250000Y-73954400D03*
D33*
X83250000Y-72654400D03*
%TD*%
D19*
%TO.C,J52*%
X72500000Y-77622400D03*
D20*
X73800000Y-77622400D03*
%TD*%
D29*
%TO.C,JP3*%
X53005200Y-69748400D03*
D23*
X54305200Y-69748400D03*
D30*
X55605200Y-69748400D03*
%TD*%
D26*
%TO.C,JP11*%
X77250000Y-74950000D03*
D27*
X77250000Y-76250000D03*
D28*
X77250000Y-77550000D03*
%TD*%
D22*
%TO.C,JP9*%
X105186000Y-67818000D03*
D23*
X103886000Y-67818000D03*
D24*
X102586000Y-67818000D03*
%TD*%
D22*
%TO.C,JP4*%
X96427600Y-82600800D03*
D23*
X95127600Y-82600800D03*
D24*
X93827600Y-82600800D03*
%TD*%
M02*
