%TF.GenerationSoftware,KiCad,Pcbnew,7.0.6*%
%TF.CreationDate,2023-08-28T12:52:06+01:00*%
%TF.ProjectId,FamiCartFlex,46616d69-4361-4727-9446-6c65782e6b69,rev?*%
%TF.SameCoordinates,Original*%
%TF.FileFunction,Copper,L1,Top*%
%TF.FilePolarity,Positive*%
%FSLAX46Y46*%
G04 Gerber Fmt 4.6, Leading zero omitted, Abs format (unit mm)*
G04 Created by KiCad (PCBNEW 7.0.6) date 2023-08-28 12:52:06*
%MOMM*%
%LPD*%
G01*
G04 APERTURE LIST*
%TA.AperFunction,ComponentPad*%
%ADD10C,1.400000*%
%TD*%
%TA.AperFunction,ComponentPad*%
%ADD11O,1.400000X1.400000*%
%TD*%
%TA.AperFunction,ComponentPad*%
%ADD12O,2.200000X2.200000*%
%TD*%
%TA.AperFunction,ComponentPad*%
%ADD13R,2.200000X2.200000*%
%TD*%
%TA.AperFunction,ComponentPad*%
%ADD14R,1.600000X1.600000*%
%TD*%
%TA.AperFunction,ComponentPad*%
%ADD15O,1.600000X1.600000*%
%TD*%
%TA.AperFunction,ComponentPad*%
%ADD16R,1.422400X1.422400*%
%TD*%
%TA.AperFunction,ComponentPad*%
%ADD17C,1.422400*%
%TD*%
%TA.AperFunction,SMDPad,CuDef*%
%ADD18R,2.600000X6.810000*%
%TD*%
%TA.AperFunction,SMDPad,CuDef*%
%ADD19R,1.600000X6.820000*%
%TD*%
%TA.AperFunction,SMDPad,CuDef*%
%ADD20R,1.620000X6.820000*%
%TD*%
%TA.AperFunction,SMDPad,CuDef*%
%ADD21R,1.560000X6.820000*%
%TD*%
%TA.AperFunction,SMDPad,CuDef*%
%ADD22R,1.580000X6.820000*%
%TD*%
%TA.AperFunction,SMDPad,CuDef*%
%ADD23R,2.600000X6.820000*%
%TD*%
%TA.AperFunction,ViaPad*%
%ADD24C,0.800000*%
%TD*%
%TA.AperFunction,Conductor*%
%ADD25C,0.250000*%
%TD*%
%TA.AperFunction,Conductor*%
%ADD26C,0.500000*%
%TD*%
%TA.AperFunction,Conductor*%
%ADD27C,0.700000*%
%TD*%
%TA.AperFunction,Conductor*%
%ADD28C,0.600000*%
%TD*%
G04 APERTURE END LIST*
D10*
%TO.P,R1,1*%
%TO.N,/r.4*%
X76490000Y-70020000D03*
D11*
%TO.P,R1,2*%
%TO.N,/bA4*%
X73950000Y-70020000D03*
%TD*%
D12*
%TO.P,D1,2,A*%
%TO.N,/cA14*%
X76090000Y-60950000D03*
D13*
%TO.P,D1,1,K*%
%TO.N,/bA4*%
X73550000Y-60950000D03*
%TD*%
D14*
%TO.P,U4,1,D2*%
%TO.N,/cD5*%
X70650000Y-77400000D03*
D15*
%TO.P,U4,2,D3*%
%TO.N,/cD6*%
X70650000Y-74860000D03*
%TO.P,U4,3,D4*%
%TO.N,/cD7*%
X70650000Y-72320000D03*
%TO.P,U4,4,Rb*%
%TO.N,GND*%
X70650000Y-69780000D03*
%TO.P,U4,5,Ra*%
%TO.N,Net-(JP6-C)*%
X70650000Y-67240000D03*
%TO.P,U4,6,Q4*%
%TO.N,/r.7*%
X70650000Y-64700000D03*
%TO.P,U4,7,Q3*%
%TO.N,/r.6*%
X70650000Y-62160000D03*
%TO.P,U4,8,GND*%
%TO.N,GND*%
X70650000Y-59620000D03*
%TO.P,U4,9,Q2*%
%TO.N,/r.5*%
X63030000Y-59620000D03*
%TO.P,U4,10,Q1*%
%TO.N,/r.4*%
X63030000Y-62160000D03*
%TO.P,U4,11,~{Er}*%
%TO.N,Net-(JP7-C)*%
X63030000Y-64700000D03*
%TO.P,U4,12,~{Ew}*%
%TO.N,/~{ROMSEL}*%
X63030000Y-67240000D03*
%TO.P,U4,13,Wb*%
%TO.N,/R~{W}*%
X63030000Y-69780000D03*
%TO.P,U4,14,Wa*%
%TO.N,Net-(JP8-C)*%
X63030000Y-72320000D03*
%TO.P,U4,15,D1*%
%TO.N,/cD4*%
X63030000Y-74860000D03*
%TO.P,U4,16,VCC*%
%TO.N,VCC*%
X63030000Y-77400000D03*
%TD*%
D14*
%TO.P,U5,1,A14*%
%TO.N,/bA6*%
X83570000Y-76640000D03*
D15*
%TO.P,U5,2,A12*%
%TO.N,/chr12*%
X86110000Y-76640000D03*
%TO.P,U5,3,A7*%
%TO.N,/pA7*%
X88650000Y-76640000D03*
%TO.P,U5,4,A6*%
%TO.N,/pA6*%
X91190000Y-76640000D03*
%TO.P,U5,5,A5*%
%TO.N,/pA5*%
X93730000Y-76640000D03*
%TO.P,U5,6,A4*%
%TO.N,/pA4*%
X96270000Y-76640000D03*
%TO.P,U5,7,A3*%
%TO.N,/pA3*%
X98810000Y-76640000D03*
%TO.P,U5,8,A2*%
%TO.N,/pA2*%
X101350000Y-76640000D03*
%TO.P,U5,9,A1*%
%TO.N,/pA1*%
X103890000Y-76640000D03*
%TO.P,U5,10,A0*%
%TO.N,/pA0*%
X106430000Y-76640000D03*
%TO.P,U5,11,Q0*%
%TO.N,/pD0*%
X108970000Y-76640000D03*
%TO.P,U5,12,Q1*%
%TO.N,/pD1*%
X111510000Y-76640000D03*
%TO.P,U5,13,Q2*%
%TO.N,/pD2*%
X114050000Y-76640000D03*
%TO.P,U5,14,GND*%
%TO.N,GND*%
X116590000Y-76640000D03*
%TO.P,U5,15,Q3*%
%TO.N,/pD3*%
X116590000Y-61400000D03*
%TO.P,U5,16,Q4*%
%TO.N,/pD4*%
X114050000Y-61400000D03*
%TO.P,U5,17,Q5*%
%TO.N,/pD5*%
X111510000Y-61400000D03*
%TO.P,U5,18,Q6*%
%TO.N,/pD6*%
X108970000Y-61400000D03*
%TO.P,U5,19,Q7*%
%TO.N,/pD7*%
X106430000Y-61400000D03*
%TO.P,U5,20,~{CS}*%
%TO.N,Net-(JP9-C)*%
X103890000Y-61400000D03*
%TO.P,U5,21,A10*%
%TO.N,/pA10*%
X101350000Y-61400000D03*
%TO.P,U5,22,~{OE}*%
%TO.N,/~{pRD}*%
X98810000Y-61400000D03*
%TO.P,U5,23,A11*%
%TO.N,/pA11*%
X96270000Y-61400000D03*
%TO.P,U5,24,A9*%
%TO.N,/pA9*%
X93730000Y-61400000D03*
%TO.P,U5,25,A8*%
%TO.N,/pA8*%
X91190000Y-61400000D03*
%TO.P,U5,26,A13*%
%TO.N,/bA5*%
X88650000Y-61400000D03*
%TO.P,U5,27,~{WE}*%
%TO.N,/~{pWR}*%
X86110000Y-61400000D03*
%TO.P,U5,28,VCC*%
%TO.N,VCC*%
X83570000Y-61400000D03*
%TD*%
D16*
%TO.P,U1,1,A18*%
%TO.N,Net-(JP2-C)*%
X40820000Y-63800000D03*
D17*
%TO.P,U1,2,A16*%
%TO.N,/bA2*%
X38280000Y-61260000D03*
%TO.P,U1,3,A15*%
%TO.N,/bA1*%
X38280000Y-63800000D03*
%TO.P,U1,4,A12*%
%TO.N,Net-(H1-cA12)*%
X35740000Y-61260000D03*
%TO.P,U1,5,A7*%
%TO.N,Net-(H1-cA7)*%
X33200000Y-63800000D03*
%TO.P,U1,6,A6*%
%TO.N,Net-(H1-cA6)*%
X35740000Y-63800000D03*
%TO.P,U1,7,A5*%
%TO.N,Net-(H1-cA5)*%
X33200000Y-66340000D03*
%TO.P,U1,8,A4*%
%TO.N,Net-(H1-cA4)*%
X35740000Y-66340000D03*
%TO.P,U1,9,A3*%
%TO.N,Net-(H1-cA3)*%
X33200000Y-68880000D03*
%TO.P,U1,10,A2*%
%TO.N,Net-(H1-cA2)*%
X35740000Y-68880000D03*
%TO.P,U1,11,A1*%
%TO.N,Net-(H1-cA1)*%
X33200000Y-71420000D03*
%TO.P,U1,12,A0*%
%TO.N,Net-(H1-cA0)*%
X35740000Y-71420000D03*
%TO.P,U1,13,D0*%
%TO.N,/cD0*%
X33200000Y-73960000D03*
%TO.P,U1,14,D1*%
%TO.N,/cD1*%
X35740000Y-76500000D03*
%TO.P,U1,15,D2*%
%TO.N,/cD2*%
X35740000Y-73960000D03*
%TO.P,U1,16,VSS*%
%TO.N,GND*%
X38280000Y-76500000D03*
%TO.P,U1,17,D3*%
%TO.N,/cD3*%
X38280000Y-73960000D03*
%TO.P,U1,18,D4*%
%TO.N,/cD4*%
X40820000Y-76500000D03*
%TO.P,U1,19,D5*%
%TO.N,/cD5*%
X40820000Y-73960000D03*
%TO.P,U1,20,D6*%
%TO.N,/cD6*%
X43360000Y-76500000D03*
%TO.P,U1,21,D7*%
%TO.N,/cD7*%
X45900000Y-73960000D03*
%TO.P,U1,22,~{CE}*%
%TO.N,/~{ROMSEL}*%
X43360000Y-73960000D03*
%TO.P,U1,23,A10*%
%TO.N,Net-(H1-cA10)*%
X45900000Y-71420000D03*
%TO.P,U1,24,~{OE}*%
%TO.N,/~{ROMSEL}*%
X43360000Y-71420000D03*
%TO.P,U1,25,A11*%
%TO.N,Net-(H1-cA11)*%
X45900000Y-68880000D03*
%TO.P,U1,26,A9*%
%TO.N,Net-(H1-cA9)*%
X43360000Y-68880000D03*
%TO.P,U1,27,A8*%
%TO.N,Net-(H1-cA8)*%
X45900000Y-66340000D03*
%TO.P,U1,28,A13*%
%TO.N,Net-(H1-cA13)*%
X43360000Y-66340000D03*
%TO.P,U1,29,A14*%
%TO.N,/bA0*%
X45900000Y-63800000D03*
%TO.P,U1,30,A17*%
%TO.N,/bA3*%
X43360000Y-61260000D03*
%TO.P,U1,31,~{WE}*%
%TO.N,VCC*%
X43360000Y-63800000D03*
%TO.P,U1,32,VDD*%
X40820000Y-61260000D03*
%TD*%
D18*
%TO.P,H1,1,GND*%
%TO.N,GND*%
X37670000Y-87495000D03*
D19*
%TO.P,H1,2,cA11*%
%TO.N,Net-(H1-cA11)*%
X40500000Y-87490000D03*
%TO.P,H1,3,cA10*%
%TO.N,Net-(H1-cA10)*%
X43040000Y-87490000D03*
D20*
%TO.P,H1,4,cA9*%
%TO.N,Net-(H1-cA9)*%
X45590000Y-87490000D03*
D19*
%TO.P,H1,5,cA8*%
%TO.N,Net-(H1-cA8)*%
X48120000Y-87490000D03*
%TO.P,H1,6,cA7*%
%TO.N,Net-(H1-cA7)*%
X50660000Y-87490000D03*
%TO.P,H1,7,cA6*%
%TO.N,Net-(H1-cA6)*%
X53200000Y-87490000D03*
%TO.P,H1,8,cA5*%
%TO.N,Net-(H1-cA5)*%
X55740000Y-87490000D03*
%TO.P,H1,9,cA4*%
%TO.N,Net-(H1-cA4)*%
X58280000Y-87490000D03*
%TO.P,H1,10,cA3*%
%TO.N,Net-(H1-cA3)*%
X60820000Y-87490000D03*
%TO.P,H1,11,cA2*%
%TO.N,Net-(H1-cA2)*%
X63360000Y-87490000D03*
%TO.P,H1,12,cA1*%
%TO.N,Net-(H1-cA1)*%
X65900000Y-87490000D03*
D21*
%TO.P,H1,13,cA0*%
%TO.N,Net-(H1-cA0)*%
X68420000Y-87490000D03*
D20*
%TO.P,H1,14,cR~{W}*%
%TO.N,/R~{W}*%
X70990000Y-87490000D03*
D19*
%TO.P,H1,15,~{IRQ}*%
%TO.N,VCC*%
X73520000Y-87490000D03*
%TO.P,H1,16,GND*%
%TO.N,GND*%
X76060000Y-87490000D03*
%TO.P,H1,17,p~{RD}*%
%TO.N,/~{pRD}*%
X78600000Y-87490000D03*
%TO.P,H1,18,vramA10*%
%TO.N,Net-(H1-vramA10)*%
X81140000Y-87490000D03*
%TO.P,H1,19,pA6*%
%TO.N,/pA6*%
X83680000Y-87490000D03*
D22*
%TO.P,H1,20,pA5*%
%TO.N,/pA5*%
X86210000Y-87490000D03*
D19*
%TO.P,H1,21,pA4*%
%TO.N,/pA4*%
X88760000Y-87490000D03*
%TO.P,H1,22,pA3*%
%TO.N,/pA3*%
X91300000Y-87490000D03*
%TO.P,H1,23,pA2*%
%TO.N,/pA2*%
X93840000Y-87490000D03*
%TO.P,H1,24,pA1*%
%TO.N,/pA1*%
X96380000Y-87490000D03*
%TO.P,H1,25,pA0*%
%TO.N,/pA0*%
X98920000Y-87490000D03*
%TO.P,H1,26,pD0*%
%TO.N,/pD0*%
X101460000Y-87490000D03*
%TO.P,H1,27,pD1*%
%TO.N,/pD1*%
X104000000Y-87490000D03*
%TO.P,H1,28,pD2*%
%TO.N,/pD2*%
X106540000Y-87490000D03*
%TO.P,H1,29,pD3*%
%TO.N,/pD3*%
X109080000Y-87490000D03*
D23*
%TO.P,H1,30,VCC*%
%TO.N,VCC*%
X112340000Y-87490000D03*
%TD*%
D14*
%TO.P,RN1,1,common*%
%TO.N,VCC*%
X79450000Y-59850000D03*
D15*
%TO.P,RN1,2,R1*%
%TO.N,/bA0*%
X79450000Y-62390000D03*
%TO.P,RN1,3,R2*%
%TO.N,/bA1*%
X79450000Y-64930000D03*
%TO.P,RN1,4,R3*%
%TO.N,/bA2*%
X79450000Y-67470000D03*
%TO.P,RN1,5,R4*%
%TO.N,/bA3*%
X79450000Y-70010000D03*
%TO.P,RN1,6,R5*%
%TO.N,/bA4*%
X79450000Y-72550000D03*
%TO.P,RN1,7,R6*%
%TO.N,/bA5*%
X79450000Y-75090000D03*
%TO.P,RN1,8,R7*%
%TO.N,/bA6*%
X79450000Y-77630000D03*
%TO.P,RN1,9,R8*%
%TO.N,/bA7*%
X79450000Y-80170000D03*
%TD*%
D16*
%TO.P,U2,1,A18*%
%TO.N,GND*%
X97540000Y-67730000D03*
D17*
%TO.P,U2,2,A16*%
%TO.N,/bA7*%
X95000000Y-70270000D03*
%TO.P,U2,3,A15*%
%TO.N,/bA6*%
X97540000Y-70270000D03*
%TO.P,U2,4,A12*%
%TO.N,/pA12*%
X95000000Y-72810000D03*
%TO.P,U2,5,A7*%
%TO.N,/pA7*%
X97540000Y-75350000D03*
%TO.P,U2,6,A6*%
%TO.N,/pA6*%
X97540000Y-72810000D03*
%TO.P,U2,7,A5*%
%TO.N,/pA5*%
X100080000Y-75350000D03*
%TO.P,U2,8,A4*%
%TO.N,/pA4*%
X100080000Y-72810000D03*
%TO.P,U2,9,A3*%
%TO.N,/pA3*%
X102620000Y-75350000D03*
%TO.P,U2,10,A2*%
%TO.N,/pA2*%
X102620000Y-72810000D03*
%TO.P,U2,11,A1*%
%TO.N,/pA1*%
X105160000Y-75350000D03*
%TO.P,U2,12,A0*%
%TO.N,/pA0*%
X105160000Y-72810000D03*
%TO.P,U2,13,D0*%
%TO.N,/pD0*%
X107700000Y-75350000D03*
%TO.P,U2,14,D1*%
%TO.N,/pD1*%
X110240000Y-72810000D03*
%TO.P,U2,15,D2*%
%TO.N,/pD2*%
X107700000Y-72810000D03*
%TO.P,U2,16,VSS*%
%TO.N,GND*%
X110240000Y-70270000D03*
%TO.P,U2,17,D3*%
%TO.N,/pD3*%
X107700000Y-70270000D03*
%TO.P,U2,18,D4*%
%TO.N,/pD4*%
X110240000Y-67730000D03*
%TO.P,U2,19,D5*%
%TO.N,/pD5*%
X107700000Y-67730000D03*
%TO.P,U2,20,D6*%
%TO.N,/pD6*%
X110240000Y-65190000D03*
%TO.P,U2,21,D7*%
%TO.N,/pD7*%
X107700000Y-62650000D03*
%TO.P,U2,22,~{CE}*%
%TO.N,/pA13*%
X107700000Y-65190000D03*
%TO.P,U2,23,A10*%
%TO.N,/pA10*%
X105160000Y-62650000D03*
%TO.P,U2,24,~{OE}*%
%TO.N,/~{pRD}*%
X105160000Y-65190000D03*
%TO.P,U2,25,A11*%
%TO.N,/pA11*%
X102620000Y-62650000D03*
%TO.P,U2,26,A9*%
%TO.N,/pA9*%
X102620000Y-65190000D03*
%TO.P,U2,27,A8*%
%TO.N,/pA8*%
X100080000Y-62650000D03*
%TO.P,U2,28,A13*%
%TO.N,/chr12*%
X100080000Y-65190000D03*
%TO.P,U2,29,A14*%
%TO.N,/bA5*%
X97540000Y-62650000D03*
%TO.P,U2,30,A17*%
%TO.N,GND*%
X95000000Y-65190000D03*
%TO.P,U2,31,~{WE}*%
%TO.N,/~{pWR}*%
X97540000Y-65190000D03*
%TO.P,U2,32,VDD*%
%TO.N,VCC*%
X95000000Y-67730000D03*
%TD*%
D14*
%TO.P,U3,1,D2*%
%TO.N,/cD1*%
X58850000Y-77500000D03*
D15*
%TO.P,U3,2,D3*%
%TO.N,/cD2*%
X58850000Y-74960000D03*
%TO.P,U3,3,D4*%
%TO.N,/cD3*%
X58850000Y-72420000D03*
%TO.P,U3,4,Rb*%
%TO.N,GND*%
X58850000Y-69880000D03*
%TO.P,U3,5,Ra*%
%TO.N,Net-(JP8-C)*%
X58850000Y-67340000D03*
%TO.P,U3,6,Q4*%
%TO.N,/bA3*%
X58850000Y-64800000D03*
%TO.P,U3,7,Q3*%
%TO.N,/bA2*%
X58850000Y-62260000D03*
%TO.P,U3,8,GND*%
%TO.N,GND*%
X58850000Y-59720000D03*
%TO.P,U3,9,Q2*%
%TO.N,/bA1*%
X51230000Y-59720000D03*
%TO.P,U3,10,Q1*%
%TO.N,/bA0*%
X51230000Y-62260000D03*
%TO.P,U3,11,~{Er}*%
%TO.N,Net-(JP3-C)*%
X51230000Y-64800000D03*
%TO.P,U3,12,~{Ew}*%
%TO.N,/~{ROMSEL}*%
X51230000Y-67340000D03*
%TO.P,U3,13,Wb*%
%TO.N,/R~{W}*%
X51230000Y-69880000D03*
%TO.P,U3,14,Wa*%
%TO.N,Net-(JP8-C)*%
X51230000Y-72420000D03*
%TO.P,U3,15,D1*%
%TO.N,/cD0*%
X51230000Y-74960000D03*
%TO.P,U3,16,VCC*%
%TO.N,VCC*%
X51230000Y-77500000D03*
%TD*%
D24*
%TO.N,GND*%
X73771712Y-72699500D03*
%TO.N,Net-(JP6-C)*%
X75250500Y-71714696D03*
%TO.N,/bA1*%
X77900000Y-58850000D03*
%TO.N,/bA4*%
X77600500Y-72494828D03*
%TO.N,/r.4*%
X71949750Y-64024250D03*
%TO.N,Net-(H1-cA11)*%
X40500000Y-83480498D03*
X40182800Y-70104000D03*
%TO.N,/~{pWR}*%
X84707300Y-64465200D03*
X86156800Y-65735200D03*
%TO.N,GND*%
X67700000Y-76800000D03*
X67056000Y-69799200D03*
X56600000Y-73100000D03*
X37338000Y-67056000D03*
X66548000Y-59669500D03*
X90400000Y-83019400D03*
X101500000Y-71100000D03*
X112877600Y-77921100D03*
X92679000Y-66579000D03*
X81549139Y-79207051D03*
X66497200Y-64516000D03*
X87172800Y-68477300D03*
X87675500Y-79925796D03*
X31115000Y-63754000D03*
X67462400Y-71882000D03*
X44677348Y-69352295D03*
X112600000Y-58600000D03*
X119176800Y-73355200D03*
X68732400Y-64465200D03*
X85800000Y-80250000D03*
X64922400Y-72796400D03*
X92800000Y-64000000D03*
X91910500Y-70270000D03*
X85385500Y-63283000D03*
X81549500Y-80674500D03*
X38354000Y-70612000D03*
X56946800Y-69088000D03*
X89500000Y-79449500D03*
X37342452Y-83432950D03*
%TO.N,Net-(H1-cA10)*%
X43600000Y-83479998D03*
X42228100Y-72199300D03*
%TO.N,Net-(H1-cA9)*%
X45512299Y-83480498D03*
%TO.N,Net-(H1-cA8)*%
X46600000Y-83479998D03*
%TO.N,Net-(H1-cA7)*%
X31104949Y-80246562D03*
%TO.N,Net-(H1-cA6)*%
X31217399Y-78967801D03*
%TO.N,Net-(H1-cA5)*%
X32380850Y-78718750D03*
%TO.N,Net-(H1-cA4)*%
X33578800Y-78227000D03*
%TO.N,Net-(H1-cA3)*%
X59757213Y-83541163D03*
X59786811Y-82028700D03*
X48024599Y-80923429D03*
X48368805Y-67384395D03*
%TO.N,Net-(H1-cA2)*%
X48113700Y-68478400D03*
X48792698Y-81607301D03*
%TO.N,Net-(H1-cA1)*%
X34798000Y-77502500D03*
%TO.N,Net-(H1-cA0)*%
X38201600Y-78536800D03*
X37033200Y-72339200D03*
%TO.N,Net-(H1-vramA10)*%
X78500000Y-76300000D03*
X84000000Y-78039502D03*
X84087701Y-82087701D03*
X83250000Y-75240498D03*
X95046800Y-79654400D03*
%TO.N,VCC*%
X44964100Y-78790800D03*
X83596586Y-68160500D03*
X81788000Y-58978800D03*
X71983600Y-81635600D03*
X64312800Y-81127600D03*
X60553600Y-77978000D03*
X45570700Y-76170700D03*
X75294000Y-82159300D03*
X49580800Y-65417100D03*
X45415200Y-61061600D03*
X39661500Y-78972786D03*
%TO.N,/~{pRD}*%
X100330000Y-60000900D03*
X77200000Y-79224500D03*
X82245200Y-59944000D03*
%TO.N,/pD0*%
X109372400Y-80873600D03*
%TO.N,/pD1*%
X110821900Y-80724500D03*
%TO.N,/pD2*%
X114096800Y-71323200D03*
%TO.N,/pD3*%
X115465000Y-69342000D03*
X117124500Y-78496353D03*
%TO.N,Net-(H1-cA12)*%
X42655072Y-62364996D03*
%TO.N,/bA0*%
X46736000Y-61772800D03*
%TO.N,/cD7*%
X49375702Y-73900700D03*
%TO.N,/cD6*%
X54400000Y-79660500D03*
X43030700Y-79778700D03*
%TO.N,/cD5*%
X41131700Y-79362900D03*
X55336148Y-78928252D03*
%TO.N,/cD4*%
X56576355Y-77894865D03*
%TO.N,/cD2*%
X61544500Y-75082400D03*
%TO.N,/cD1*%
X65938400Y-78892400D03*
X52623895Y-78760500D03*
X49380500Y-77511368D03*
%TO.N,/cD0*%
X49034666Y-74871200D03*
X69138800Y-80791900D03*
X47917700Y-79024429D03*
%TO.N,/~{ROMSEL}*%
X50052406Y-70982005D03*
%TO.N,/pD7*%
X104952800Y-78435200D03*
%TO.N,/pD6*%
X111607600Y-75082400D03*
X107797600Y-78536800D03*
%TO.N,/bA1*%
X36982400Y-59499300D03*
%TO.N,/bA4*%
X65074800Y-67818000D03*
X53543200Y-64414400D03*
X61468000Y-64668400D03*
X69138800Y-68681600D03*
%TO.N,/bA5*%
X95326898Y-63204496D03*
X89445500Y-74340500D03*
X89231847Y-64793754D03*
%TO.N,/bA6*%
X84156974Y-71286947D03*
%TO.N,/bA7*%
X85000000Y-70750000D03*
X85272747Y-78848247D03*
%TO.N,/pA13*%
X114249200Y-78435200D03*
X102074500Y-79502000D03*
X81749500Y-78161459D03*
X75750000Y-74750000D03*
X112623600Y-67360800D03*
X102250000Y-77875500D03*
X81450500Y-73557064D03*
%TO.N,/pA12*%
X81490000Y-66760000D03*
X93459995Y-71859996D03*
X88087200Y-66598800D03*
X88000000Y-71700000D03*
X97586800Y-78000000D03*
%TO.N,/pA7*%
X87420706Y-78026296D03*
%TO.N,/pA6*%
X91190000Y-81000000D03*
%TO.N,/pA5*%
X92724500Y-80378900D03*
%TO.N,/pA4*%
X96750000Y-80000000D03*
%TO.N,/pA3*%
X98704400Y-80721200D03*
%TO.N,/pA2*%
X101549200Y-80924400D03*
%TO.N,/pA1*%
X103378000Y-80352300D03*
%TO.N,/pA0*%
X106527600Y-81076800D03*
%TO.N,/cA14*%
X53136800Y-68173600D03*
X55676800Y-68034500D03*
X39296535Y-64849495D03*
X47218874Y-66634276D03*
%TO.N,Net-(JP8-C)*%
X56896000Y-72019500D03*
%TO.N,Net-(JP7-C)*%
X65518700Y-66764500D03*
X103936800Y-69189600D03*
%TO.N,/r.4*%
X85500000Y-69159500D03*
X69037200Y-62850500D03*
%TO.N,/r.7*%
X71433200Y-73566800D03*
X83245764Y-81518065D03*
X76836846Y-81648777D03*
X76966992Y-83348277D03*
X78987701Y-82987701D03*
X72390000Y-79500000D03*
%TO.N,/chr12*%
X86800744Y-75614260D03*
X93819503Y-73919503D03*
X92427042Y-72808500D03*
X87475500Y-73304400D03*
%TD*%
D25*
%TO.N,GND*%
X70650000Y-69780000D02*
X70650000Y-70450000D01*
X70650000Y-70450000D02*
X70792522Y-70592522D01*
X70792522Y-70592522D02*
X71149909Y-70592522D01*
X71149909Y-70592522D02*
X73256887Y-72699500D01*
X73256887Y-72699500D02*
X73771712Y-72699500D01*
X73771712Y-72699500D02*
X73771712Y-74243611D01*
X76060000Y-76531899D02*
X76060000Y-79000000D01*
X73771712Y-74243611D02*
X76060000Y-76531899D01*
%TO.N,Net-(JP7-C)*%
X71775000Y-70581217D02*
X71775000Y-69314009D01*
X79965000Y-71425000D02*
X77645023Y-71425000D01*
X73168783Y-71975000D02*
X71775000Y-70581217D01*
X74175000Y-71975000D02*
X73168783Y-71975000D01*
X75080000Y-72880000D02*
X74175000Y-71975000D01*
X92210805Y-70995000D02*
X89795000Y-70995000D01*
X76190023Y-72880000D02*
X75080000Y-72880000D01*
X69687809Y-67868800D02*
X66623000Y-67868800D01*
X77645023Y-71425000D02*
X76190023Y-72880000D01*
X70419009Y-68600000D02*
X69687809Y-67868800D01*
X88800000Y-70000000D02*
X81390000Y-70000000D01*
X94016205Y-69189600D02*
X92210805Y-70995000D01*
X71775000Y-69314009D02*
X71060991Y-68600000D01*
X81390000Y-70000000D02*
X79965000Y-71425000D01*
X89795000Y-70995000D02*
X88800000Y-70000000D01*
X103936800Y-69189600D02*
X94016205Y-69189600D01*
X71060991Y-68600000D02*
X70419009Y-68600000D01*
X66623000Y-67868800D02*
X65518700Y-66764500D01*
%TO.N,Net-(JP6-C)*%
X72225000Y-70394821D02*
X72225000Y-68815000D01*
X75250500Y-71714696D02*
X74750287Y-71714696D01*
X74750287Y-71714696D02*
X74560591Y-71525000D01*
X74560591Y-71525000D02*
X73355179Y-71525000D01*
X72225000Y-68815000D02*
X70650000Y-67240000D01*
X73355179Y-71525000D02*
X72225000Y-70394821D01*
%TO.N,/bA3*%
X79450000Y-70010000D02*
X78310000Y-70010000D01*
X78310000Y-70010000D02*
X76970000Y-71350000D01*
X76970000Y-71350000D02*
X76100000Y-71350000D01*
X76100000Y-71350000D02*
X75570000Y-70820000D01*
X75570000Y-70820000D02*
X74599569Y-70820000D01*
X74599569Y-70820000D02*
X74344569Y-71075000D01*
X74344569Y-71075000D02*
X73541575Y-71075000D01*
%TO.N,/bA1*%
X77900000Y-58850000D02*
X77400000Y-58350000D01*
X77400000Y-58350000D02*
X52600000Y-58350000D01*
X52600000Y-58350000D02*
X51230000Y-59720000D01*
%TO.N,/bA2*%
X58850000Y-62260000D02*
X60165500Y-63575500D01*
X60165500Y-63575500D02*
X70825491Y-63575500D01*
X80700000Y-66220000D02*
X79450000Y-67470000D01*
X70825491Y-63575500D02*
X71342138Y-63058853D01*
X71342138Y-63058853D02*
X76241546Y-63058853D01*
X76241546Y-63058853D02*
X76872693Y-63690000D01*
X76872693Y-63690000D02*
X79800991Y-63690000D01*
X79800991Y-63690000D02*
X80700000Y-64589009D01*
X80700000Y-64589009D02*
X80700000Y-66220000D01*
%TO.N,/r.4*%
X76490000Y-70020000D02*
X77150000Y-70020000D01*
X77150000Y-70020000D02*
X78285000Y-68885000D01*
%TO.N,/pA12*%
X81490000Y-66760000D02*
X81549600Y-66700400D01*
X81549600Y-66700400D02*
X87985600Y-66700400D01*
X87985600Y-66700400D02*
X88087200Y-66598800D01*
%TO.N,/r.4*%
X78285000Y-68885000D02*
X78480000Y-68690000D01*
X83896891Y-68885500D02*
X84092391Y-68690000D01*
X78480000Y-68690000D02*
X83100781Y-68690000D01*
X83100781Y-68690000D02*
X83296281Y-68885500D01*
X83296281Y-68885500D02*
X83896891Y-68885500D01*
X84092391Y-68690000D02*
X85030500Y-68690000D01*
X85030500Y-68690000D02*
X85500000Y-69159500D01*
%TO.N,/bA3*%
X73541575Y-71045000D02*
X73511575Y-71045000D01*
X73511575Y-71045000D02*
X72925000Y-70458425D01*
%TO.N,/r.4*%
X78285000Y-65738703D02*
X78285000Y-68885000D01*
X76312975Y-63766678D02*
X78285000Y-65738703D01*
X71949750Y-64024250D02*
X72207322Y-63766678D01*
X72207322Y-63766678D02*
X76312975Y-63766678D01*
%TO.N,/bA3*%
X72925000Y-70458425D02*
X72925000Y-68660460D01*
X72925000Y-68660460D02*
X72839838Y-68569771D01*
X72839838Y-68569771D02*
X71791364Y-67521297D01*
X71791364Y-67521297D02*
X71775000Y-67521297D01*
%TO.N,/bA0*%
X79450000Y-62390000D02*
X78325000Y-61265000D01*
X78325000Y-61265000D02*
X78325000Y-60775000D01*
X78325000Y-60775000D02*
X77000000Y-59450000D01*
X77000000Y-59450000D02*
X72350000Y-59450000D01*
X71775000Y-60025000D02*
X71775000Y-60325000D01*
X72350000Y-59450000D02*
X71775000Y-60025000D01*
X71775000Y-60325000D02*
X71255000Y-60845000D01*
X71255000Y-60845000D02*
X58384009Y-60845000D01*
%TO.N,/bA4*%
X79450000Y-72550000D02*
X77655672Y-72550000D01*
X77655672Y-72550000D02*
X77600500Y-72494828D01*
%TO.N,/bA3*%
X64164395Y-65825000D02*
X59875000Y-65825000D01*
X64164895Y-65824500D02*
X64164395Y-65825000D01*
X64765505Y-65824500D02*
X64164895Y-65824500D01*
X64981005Y-66040000D02*
X64765505Y-65824500D01*
X71040991Y-66040000D02*
X64981005Y-66040000D01*
X71775000Y-66774009D02*
X71040991Y-66040000D01*
X71775000Y-67521297D02*
X71775000Y-66774009D01*
X59875000Y-65825000D02*
X58850000Y-64800000D01*
%TO.N,/pA13*%
X76575000Y-73675000D02*
X75750000Y-74500000D01*
X81450500Y-73557064D02*
X81332564Y-73675000D01*
X81332564Y-73675000D02*
X76575000Y-73675000D01*
X75750000Y-74500000D02*
X75750000Y-74750000D01*
%TO.N,/R~{W}*%
X70980000Y-86930000D02*
X70980000Y-83220000D01*
X71775000Y-72883295D02*
X71775000Y-71854009D01*
X70980000Y-83220000D02*
X71541800Y-82658200D01*
X58237196Y-71170800D02*
X56946396Y-69880000D01*
X74385000Y-75493295D02*
X71775000Y-72883295D01*
X71775000Y-71854009D02*
X70963513Y-71042522D01*
X63030000Y-69780000D02*
X61639200Y-71170800D01*
X74385000Y-81021505D02*
X74385000Y-75493295D01*
X56946396Y-69880000D02*
X51230000Y-69880000D01*
X61639200Y-71170800D02*
X58237196Y-71170800D01*
X64292522Y-71042522D02*
X63030000Y-69780000D01*
X71541800Y-82658200D02*
X72748305Y-82658200D01*
X70963513Y-71042522D02*
X64292522Y-71042522D01*
X72748305Y-82658200D02*
X74385000Y-81021505D01*
%TO.N,Net-(H1-cA11)*%
X40462600Y-70383800D02*
X44671148Y-70383800D01*
X40182800Y-70104000D02*
X40462600Y-70383800D01*
X44671148Y-70383800D02*
X45900000Y-69154948D01*
X45900000Y-69154948D02*
X45900000Y-68880000D01*
X40500000Y-83480498D02*
X40500000Y-86930000D01*
%TO.N,/~{pWR}*%
X84707300Y-64465200D02*
X85977300Y-65735200D01*
X86156800Y-65735200D02*
X86367200Y-65524800D01*
X93099596Y-65524800D02*
X94694900Y-63929496D01*
X85977300Y-65735200D02*
X86156800Y-65735200D01*
X94694900Y-63929496D02*
X95575104Y-63929496D01*
X96835608Y-65190000D02*
X97540000Y-65190000D01*
X86367200Y-65524800D02*
X93099596Y-65524800D01*
X95575104Y-63929496D02*
X96835608Y-65190000D01*
%TO.N,GND*%
X116590000Y-72690000D02*
X116590000Y-76640000D01*
X114170000Y-70270000D02*
X116590000Y-72690000D01*
X44677348Y-69419452D02*
X44188800Y-69908000D01*
X103287401Y-78600000D02*
X99545400Y-78600000D01*
X37338000Y-66338000D02*
X37338000Y-67056000D01*
X76060000Y-79000000D02*
X76060000Y-87434000D01*
X81549139Y-79207051D02*
X81442088Y-79100000D01*
X39587000Y-69379000D02*
X38354000Y-70612000D01*
X90469400Y-82950000D02*
X90400000Y-83019400D01*
X87675500Y-79925796D02*
X87701296Y-79900000D01*
X103716253Y-67730000D02*
X104900000Y-68913747D01*
X111365590Y-79400000D02*
X104087401Y-79400000D01*
X66852800Y-69799200D02*
X65684400Y-68630800D01*
X79810991Y-81400000D02*
X80536491Y-80674500D01*
X95000000Y-65190000D02*
X96355000Y-66545000D01*
X112603100Y-78195600D02*
X112569990Y-78195600D01*
X44677348Y-69352295D02*
X44677348Y-69419452D01*
X41020305Y-69916200D02*
X40483105Y-69379000D01*
X65684400Y-68630800D02*
X62588209Y-68630800D01*
X79625991Y-78755000D02*
X78945000Y-78755000D01*
X96321000Y-66579000D02*
X92679000Y-66579000D01*
X77800000Y-78100000D02*
X76960000Y-78100000D01*
X61339009Y-69880000D02*
X58850000Y-69880000D01*
X90067300Y-68477300D02*
X91860000Y-70270000D01*
X58058000Y-69088000D02*
X56997600Y-69088000D01*
X96355000Y-66545000D02*
X96321000Y-66579000D01*
X58850000Y-69880000D02*
X58058000Y-69088000D01*
X91886396Y-82950000D02*
X90469400Y-82950000D01*
X112877600Y-77921100D02*
X112603100Y-78195600D01*
X85375500Y-80674500D02*
X85800000Y-80250000D01*
X87701296Y-79900000D02*
X89049500Y-79900000D01*
X62588209Y-68630800D02*
X61339009Y-69880000D01*
X112569990Y-78195600D02*
X111365590Y-79400000D01*
X86124204Y-79925796D02*
X85800000Y-80250000D01*
X67056000Y-69799200D02*
X66852800Y-69799200D01*
X78945000Y-78755000D02*
X78325000Y-79375000D01*
X97316000Y-80829400D02*
X94006996Y-80829400D01*
X110240000Y-70270000D02*
X114170000Y-70270000D01*
X66597500Y-59620000D02*
X66548000Y-59669500D01*
X87172800Y-68477300D02*
X87130500Y-68435000D01*
X80536491Y-80674500D02*
X85375500Y-80674500D01*
X32461000Y-65100000D02*
X36100000Y-65100000D01*
X37670000Y-83760498D02*
X37670000Y-87439000D01*
X79970991Y-79100000D02*
X79625991Y-78755000D01*
X67462400Y-71882000D02*
X65836800Y-71882000D01*
X97540000Y-67730000D02*
X103716253Y-67730000D01*
X104900000Y-69500000D02*
X103300000Y-71100000D01*
X76960000Y-78100000D02*
X76060000Y-79000000D01*
X87675500Y-79925796D02*
X86124204Y-79925796D01*
X78325000Y-80725000D02*
X79000000Y-81400000D01*
X67075200Y-69780000D02*
X70650000Y-69780000D01*
X87172800Y-68477300D02*
X90067300Y-68477300D01*
X103300000Y-71100000D02*
X101500000Y-71100000D01*
X94006996Y-80829400D02*
X91886396Y-82950000D01*
X66548000Y-64465200D02*
X66497200Y-64516000D01*
X67056000Y-69799200D02*
X67075200Y-69780000D01*
X65836800Y-71882000D02*
X64922400Y-72796400D01*
X31115000Y-63754000D02*
X32461000Y-65100000D01*
X56997600Y-69088000D02*
X56946800Y-69088000D01*
X99545400Y-78600000D02*
X97316000Y-80829400D01*
X96355000Y-66545000D02*
X97540000Y-67730000D01*
X78650000Y-78950000D02*
X77800000Y-78100000D01*
X104900000Y-68913747D02*
X104900000Y-69500000D01*
X37342452Y-83432950D02*
X37670000Y-83760498D01*
X104087401Y-79400000D02*
X103287401Y-78600000D01*
X70650000Y-59620000D02*
X66597500Y-59620000D01*
X40483105Y-69379000D02*
X39587000Y-69379000D01*
X68732400Y-64465200D02*
X66548000Y-64465200D01*
X43789209Y-69916200D02*
X41020305Y-69916200D01*
X78325000Y-79375000D02*
X78325000Y-80725000D01*
X43797409Y-69908000D02*
X43789209Y-69916200D01*
X81442088Y-79100000D02*
X79970991Y-79100000D01*
X36100000Y-65100000D02*
X37338000Y-66338000D01*
X92800000Y-64000000D02*
X92083000Y-63283000D01*
X44188800Y-69908000D02*
X43797409Y-69908000D01*
X92083000Y-63283000D02*
X85385500Y-63283000D01*
X79000000Y-81400000D02*
X79810991Y-81400000D01*
X89049500Y-79900000D02*
X89500000Y-79449500D01*
%TO.N,Net-(H1-cA10)*%
X43600000Y-83479998D02*
X43520002Y-83479998D01*
X44863800Y-72456200D02*
X45900000Y-71420000D01*
X43040000Y-83960000D02*
X43040000Y-86930000D01*
X43520002Y-83479998D02*
X43040000Y-83960000D01*
X42485000Y-72456200D02*
X44863800Y-72456200D01*
X42228100Y-72199300D02*
X42485000Y-72456200D01*
%TO.N,Net-(H1-cA9)*%
X45512299Y-86862299D02*
X45580000Y-86930000D01*
X45512299Y-83480498D02*
X45512299Y-86862299D01*
%TO.N,Net-(H1-cA8)*%
X46600000Y-83479998D02*
X48120000Y-84999998D01*
X48120000Y-84999998D02*
X48120000Y-86930000D01*
%TO.N,Net-(H1-cA7)*%
X38382706Y-82755498D02*
X46922881Y-82755498D01*
X31258887Y-80400500D02*
X36027708Y-80400500D01*
X50660000Y-85170000D02*
X50660000Y-86930000D01*
X46922881Y-82755498D02*
X47922383Y-83755000D01*
X31104949Y-80246562D02*
X31258887Y-80400500D01*
X49245000Y-83755000D02*
X50660000Y-85170000D01*
X47922383Y-83755000D02*
X49245000Y-83755000D01*
X36027708Y-80400500D02*
X38382706Y-82755498D01*
%TO.N,Net-(H1-cA6)*%
X48119601Y-83232301D02*
X49648697Y-83232301D01*
X35939604Y-79676000D02*
X38566804Y-82303200D01*
X38566804Y-82303200D02*
X42849091Y-82303200D01*
X47351502Y-82548429D02*
X47435729Y-82548429D01*
X42851389Y-82305498D02*
X47108571Y-82305498D01*
X50171396Y-83755000D02*
X52815000Y-83755000D01*
X47108571Y-82305498D02*
X47351502Y-82548429D01*
X31925598Y-79676000D02*
X35939604Y-79676000D01*
X47435729Y-82548429D02*
X48119601Y-83232301D01*
X49648697Y-83232301D02*
X50171396Y-83755000D01*
X52815000Y-83755000D02*
X53200000Y-84140000D01*
X53200000Y-84140000D02*
X53200000Y-86930000D01*
X42849091Y-82303200D02*
X42851389Y-82305498D01*
X31217399Y-78967801D02*
X31925598Y-79676000D01*
%TO.N,Net-(H1-cA5)*%
X32614100Y-78952000D02*
X35852000Y-78952000D01*
X47537898Y-82098429D02*
X47622125Y-82098429D01*
X49279399Y-82782301D02*
X49344900Y-82716800D01*
X47294967Y-81855498D02*
X47537898Y-82098429D01*
X38753200Y-81853200D02*
X43035487Y-81853200D01*
X32380850Y-78718750D02*
X32614100Y-78952000D01*
X43035487Y-81853200D02*
X43037785Y-81855498D01*
X43037785Y-81855498D02*
X47294967Y-81855498D01*
X55305000Y-83305000D02*
X55740000Y-83740000D01*
X35852000Y-78952000D02*
X38753200Y-81853200D01*
X47622125Y-82098429D02*
X48305997Y-82782301D01*
X50357792Y-83305000D02*
X55305000Y-83305000D01*
X48305997Y-82782301D02*
X49279399Y-82782301D01*
X55740000Y-83740000D02*
X55740000Y-86930000D01*
X49769592Y-82716800D02*
X50357792Y-83305000D01*
X49344900Y-82716800D02*
X49769592Y-82716800D01*
%TO.N,Net-(H1-cA4)*%
X49955988Y-82266800D02*
X49158504Y-82266800D01*
X50544188Y-82855000D02*
X49955988Y-82266800D01*
X58280000Y-83680000D02*
X57455000Y-82855000D01*
X57455000Y-82855000D02*
X50544188Y-82855000D01*
X43221883Y-81403200D02*
X39089592Y-81403200D01*
X35913392Y-78227000D02*
X33578800Y-78227000D01*
X58280000Y-86930000D02*
X58280000Y-83680000D01*
X49158504Y-82266800D02*
X49093003Y-82332301D01*
X47808521Y-81648429D02*
X47724294Y-81648429D01*
X39089592Y-81403200D02*
X35913392Y-78227000D01*
X48492393Y-82332301D02*
X47808521Y-81648429D01*
X43224181Y-81405498D02*
X43221883Y-81403200D01*
X47481363Y-81405498D02*
X43224181Y-81405498D01*
X49093003Y-82332301D02*
X48492393Y-82332301D01*
X47724294Y-81648429D02*
X47481363Y-81405498D01*
%TO.N,Net-(H1-cA3)*%
X48446810Y-67462400D02*
X48368805Y-67384395D01*
X41935801Y-67843800D02*
X42403401Y-67376200D01*
X50328780Y-81366800D02*
X50916980Y-81955000D01*
X48130728Y-80817300D02*
X49027295Y-80817300D01*
X49576795Y-81366800D02*
X50328780Y-81366800D01*
X48463200Y-67462400D02*
X48446810Y-67462400D01*
X34236200Y-67843800D02*
X41935801Y-67843800D01*
X49027295Y-80817300D02*
X49576795Y-81366800D01*
X48377000Y-67376200D02*
X48463200Y-67462400D01*
X33200000Y-68880000D02*
X34236200Y-67843800D01*
X48024599Y-80923429D02*
X48130728Y-80817300D01*
X59757213Y-83541163D02*
X60341163Y-83541163D01*
X59713111Y-81955000D02*
X59786811Y-82028700D01*
X42403401Y-67376200D02*
X48377000Y-67376200D01*
X60341163Y-83541163D02*
X60820000Y-84020000D01*
X50916980Y-81955000D02*
X59713111Y-81955000D01*
X60820000Y-84020000D02*
X60820000Y-86930000D01*
%TO.N,Net-(H1-cA2)*%
X48792698Y-81607301D02*
X49002197Y-81816800D01*
X63360000Y-83760000D02*
X63360000Y-86930000D01*
X58824495Y-82405000D02*
X59172695Y-82753200D01*
X48113700Y-68478400D02*
X47479100Y-67843800D01*
X49002197Y-81816800D02*
X50142384Y-81816800D01*
X47479100Y-67843800D02*
X42930791Y-67843800D01*
X50142384Y-81816800D02*
X50730584Y-82405000D01*
X41894591Y-68880000D02*
X35740000Y-68880000D01*
X50730584Y-82405000D02*
X58824495Y-82405000D01*
X42930791Y-67843800D02*
X41894591Y-68880000D01*
X59172695Y-82753200D02*
X62353200Y-82753200D01*
X62353200Y-82753200D02*
X63360000Y-83760000D01*
%TO.N,Net-(H1-cA1)*%
X50515176Y-80916800D02*
X49763191Y-80916800D01*
X59172695Y-81303700D02*
X58971395Y-81505000D01*
X48493775Y-80367300D02*
X48324904Y-80198429D01*
X65900000Y-83700000D02*
X64539600Y-82339600D01*
X34831700Y-77536200D02*
X34798000Y-77502500D01*
X58971395Y-81505000D02*
X51103376Y-81505000D01*
X46852782Y-80955498D02*
X43410577Y-80955498D01*
X43410577Y-80955498D02*
X43408279Y-80953200D01*
X64539600Y-82339600D02*
X63774799Y-82339600D01*
X51103376Y-81505000D02*
X50515176Y-80916800D01*
X65900000Y-86930000D02*
X65900000Y-83700000D01*
X63774799Y-82339600D02*
X63087000Y-81651801D01*
X62771904Y-81303700D02*
X59172695Y-81303700D01*
X47609851Y-80198429D02*
X46852782Y-80955498D01*
X63087000Y-81618796D02*
X62771904Y-81303700D01*
X49213691Y-80367300D02*
X48493775Y-80367300D01*
X43408279Y-80953200D02*
X39551200Y-80953200D01*
X48324904Y-80198429D02*
X47609851Y-80198429D01*
X39551200Y-80953200D02*
X36134200Y-77536200D01*
X36134200Y-77536200D02*
X34831700Y-77536200D01*
X63087000Y-81651801D02*
X63087000Y-81618796D01*
X49763191Y-80916800D02*
X49213691Y-80367300D01*
%TO.N,Net-(H1-cA0)*%
X48511800Y-79748929D02*
X47081573Y-79748929D01*
X48680171Y-79917300D02*
X48511800Y-79748929D01*
X51289772Y-81055000D02*
X50701572Y-80466800D01*
X63537000Y-81465405D02*
X63537000Y-81432400D01*
X68440000Y-86930000D02*
X68440000Y-83640000D01*
X63537000Y-81432400D02*
X62927400Y-80822800D01*
X58697200Y-81055000D02*
X51289772Y-81055000D01*
X63961195Y-81889600D02*
X63537000Y-81465405D01*
X68440000Y-83640000D02*
X66689600Y-81889600D01*
X50701572Y-80466800D02*
X49949587Y-80466800D01*
X38201600Y-78967204D02*
X38201600Y-78536800D01*
X49949587Y-80466800D02*
X49400087Y-79917300D01*
X35740000Y-71420000D02*
X36114000Y-71420000D01*
X49400087Y-79917300D02*
X48680171Y-79917300D01*
X47081573Y-79748929D02*
X46327302Y-80503200D01*
X36114000Y-71420000D02*
X37033200Y-72339200D01*
X62927400Y-80822800D02*
X58929400Y-80822800D01*
X58929400Y-80822800D02*
X58697200Y-81055000D01*
X66689600Y-81889600D02*
X63961195Y-81889600D01*
X39737596Y-80503200D02*
X38201600Y-78967204D01*
X46327302Y-80503200D02*
X39737596Y-80503200D01*
%TO.N,Net-(H1-vramA10)*%
X84087701Y-82087701D02*
X86239507Y-82087701D01*
X90320405Y-79654400D02*
X95046800Y-79654400D01*
X82900000Y-82400000D02*
X81140000Y-84160000D01*
X86239507Y-82087701D02*
X86727208Y-81600000D01*
X88374805Y-81600000D02*
X90320405Y-79654400D01*
X81259502Y-75240498D02*
X84695000Y-75240498D01*
X84420498Y-78039502D02*
X84000000Y-78039502D01*
X80147331Y-76352669D02*
X78552669Y-76352669D01*
X80147331Y-76352669D02*
X81259502Y-75240498D01*
X81140000Y-84160000D02*
X81140000Y-86930000D01*
X84695000Y-75240498D02*
X84695000Y-77765000D01*
X84695000Y-77765000D02*
X84420498Y-78039502D01*
X78552669Y-76352669D02*
X78500000Y-76300000D01*
X84087701Y-82087701D02*
X83775402Y-82400000D01*
X86727208Y-81600000D02*
X88374805Y-81600000D01*
X83775402Y-82400000D02*
X82900000Y-82400000D01*
D26*
%TO.N,VCC*%
X73520000Y-87490000D02*
X73520000Y-83680000D01*
X73520000Y-83680000D02*
X75109500Y-82090500D01*
X51230000Y-77364163D02*
X50036537Y-76170700D01*
X60730500Y-77801100D02*
X60553600Y-77978000D01*
D27*
X112340000Y-82040761D02*
X113930761Y-80450000D01*
D25*
X39661500Y-78972786D02*
X40030586Y-78603700D01*
D26*
X60730500Y-77724000D02*
X60730500Y-77801100D01*
D25*
X95000000Y-67730000D02*
X94847800Y-67577800D01*
D26*
X48091400Y-61909000D02*
X47105200Y-60922800D01*
D27*
X113930761Y-80450000D02*
X116514356Y-80450000D01*
D26*
X75109500Y-82090500D02*
X75225200Y-82090500D01*
X44452400Y-60098800D02*
X41981200Y-60098800D01*
D27*
X112340000Y-87490000D02*
X112340000Y-82040761D01*
D26*
X66778273Y-81165100D02*
X64262000Y-81165100D01*
D28*
X83596586Y-68160500D02*
X84179286Y-67577800D01*
D27*
X100838000Y-58978800D02*
X81788000Y-58978800D01*
X118110000Y-61010811D02*
X116687589Y-59588400D01*
D26*
X71983600Y-81635600D02*
X71977300Y-81641900D01*
X63030000Y-77400000D02*
X61054500Y-77400000D01*
D25*
X44777000Y-78603700D02*
X44964100Y-78790800D01*
D27*
X116514356Y-80450000D02*
X118110000Y-78854356D01*
D26*
X48091400Y-63927700D02*
X48091400Y-61909000D01*
X64275300Y-81165100D02*
X64312800Y-81127600D01*
X45415200Y-61061600D02*
X44452400Y-60098800D01*
X71977300Y-81641900D02*
X67255073Y-81641900D01*
X75225200Y-82090500D02*
X75294000Y-82159300D01*
D27*
X118110000Y-78854356D02*
X118110000Y-61010811D01*
X116687589Y-59588400D02*
X101447600Y-59588400D01*
D26*
X67255073Y-81641900D02*
X66778273Y-81165100D01*
D25*
X40030586Y-78603700D02*
X44777000Y-78603700D01*
D27*
X101447600Y-59588400D02*
X100838000Y-58978800D01*
D26*
X47105200Y-60922800D02*
X45554000Y-60922800D01*
X64262000Y-81165100D02*
X64275300Y-81165100D01*
X45554000Y-60922800D02*
X45415200Y-61061600D01*
X61054500Y-77400000D02*
X60730500Y-77724000D01*
D28*
X84179286Y-67577800D02*
X94847800Y-67577800D01*
D26*
X50036537Y-76170700D02*
X45570700Y-76170700D01*
X51230000Y-77500000D02*
X51230000Y-77364163D01*
X41981200Y-60098800D02*
X40820000Y-61260000D01*
X49580800Y-65417100D02*
X48091400Y-63927700D01*
D25*
%TO.N,/~{pRD}*%
X100330000Y-60000900D02*
X100079100Y-59750000D01*
X77200000Y-79224500D02*
X77700000Y-79724500D01*
X77700000Y-82674695D02*
X77725000Y-82699695D01*
X77700000Y-79724500D02*
X77700000Y-82674695D01*
X77725000Y-83300305D02*
X78600000Y-84175305D01*
X98810000Y-62845409D02*
X99668391Y-63703800D01*
X77725000Y-82699695D02*
X77725000Y-83300305D01*
X99668391Y-63703800D02*
X103673800Y-63703800D01*
X100079100Y-59750000D02*
X82439200Y-59750000D01*
X98810000Y-61400000D02*
X98810000Y-62845409D01*
X78600000Y-84175305D02*
X78600000Y-86930000D01*
X103673800Y-63703800D02*
X105160000Y-65190000D01*
X82439200Y-59750000D02*
X82245200Y-59944000D01*
%TO.N,/pD0*%
X101460000Y-83940000D02*
X101841200Y-83558800D01*
X103949796Y-81801800D02*
X108444200Y-81801800D01*
X101841200Y-83558800D02*
X102192796Y-83558800D01*
X107700000Y-75350000D02*
X107700000Y-75370000D01*
X102192796Y-83558800D02*
X103949796Y-81801800D01*
X101460000Y-86930000D02*
X101460000Y-83940000D01*
X108444200Y-81801800D02*
X109372400Y-80873600D01*
X107700000Y-75370000D02*
X108970000Y-76640000D01*
%TO.N,/pD1*%
X110821900Y-80724500D02*
X109294600Y-82251800D01*
X105148200Y-82251800D02*
X104000000Y-83400000D01*
X104000000Y-83400000D02*
X104000000Y-86930000D01*
X109294600Y-82251800D02*
X105148200Y-82251800D01*
X111510000Y-76640000D02*
X110240000Y-75370000D01*
X110240000Y-75370000D02*
X110240000Y-72810000D01*
%TO.N,/pD2*%
X107446800Y-82753200D02*
X106540000Y-83660000D01*
X114050000Y-76640000D02*
X115112800Y-77702800D01*
X109186800Y-71323200D02*
X114096800Y-71323200D01*
X107700000Y-72810000D02*
X109186800Y-71323200D01*
X115112800Y-78865604D02*
X114672404Y-79306000D01*
X113378400Y-79306000D02*
X109931200Y-82753200D01*
X115112800Y-77702800D02*
X115112800Y-78865604D01*
X106540000Y-83660000D02*
X106540000Y-86930000D01*
X114672404Y-79306000D02*
X113378400Y-79306000D01*
X109931200Y-82753200D02*
X107446800Y-82753200D01*
%TO.N,/pD3*%
X114858800Y-79756000D02*
X113564796Y-79756000D01*
X109080000Y-83920000D02*
X109080000Y-86930000D01*
X109796800Y-83203200D02*
X109080000Y-83920000D01*
X117124500Y-78496353D02*
X116423653Y-79197200D01*
X113564796Y-79756000D02*
X110117596Y-83203200D01*
X115356800Y-69233800D02*
X115465000Y-69342000D01*
X108736200Y-69233800D02*
X115356800Y-69233800D01*
X107700000Y-70270000D02*
X108736200Y-69233800D01*
X116423653Y-79197200D02*
X115417600Y-79197200D01*
X115417600Y-79197200D02*
X114858800Y-79756000D01*
X110117596Y-83203200D02*
X109796800Y-83203200D01*
%TO.N,Net-(H1-cA12)*%
X42415862Y-62604206D02*
X37084206Y-62604206D01*
X37084206Y-62604206D02*
X35740000Y-61260000D01*
X42655072Y-62364996D02*
X42415862Y-62604206D01*
%TO.N,/bA0*%
X52682400Y-60807600D02*
X51230000Y-62260000D01*
X46736000Y-61772800D02*
X46736000Y-62964000D01*
X58346609Y-60807600D02*
X52682400Y-60807600D01*
X46736000Y-62964000D02*
X45900000Y-63800000D01*
X58384009Y-60845000D02*
X58346609Y-60807600D01*
%TO.N,/cD7*%
X49650202Y-74175200D02*
X50423809Y-74175200D01*
X49375702Y-73900700D02*
X49650202Y-74175200D01*
X50764009Y-73835000D02*
X58384009Y-73835000D01*
X49375702Y-73900700D02*
X48700562Y-73900700D01*
X46446800Y-73413200D02*
X45900000Y-73960000D01*
X50423809Y-74175200D02*
X50764009Y-73835000D01*
X48213062Y-73413200D02*
X46446800Y-73413200D01*
X48700562Y-73900700D02*
X48213062Y-73413200D01*
X58484009Y-73735000D02*
X69235000Y-73735000D01*
X69235000Y-73735000D02*
X70650000Y-72320000D01*
X58384009Y-73835000D02*
X58484009Y-73735000D01*
%TO.N,/cD6*%
X49149778Y-79017300D02*
X49772879Y-79017300D01*
X49772879Y-79017300D02*
X50322379Y-79566800D01*
X71775000Y-79050200D02*
X71775000Y-75985000D01*
X50322379Y-79566800D02*
X51074364Y-79566800D01*
X48670505Y-78742800D02*
X48875278Y-78742800D01*
X47606700Y-78193300D02*
X48121005Y-78193300D01*
X43030700Y-79778700D02*
X43305200Y-80053200D01*
X65451699Y-80067400D02*
X70757800Y-80067400D01*
X70757800Y-80067400D02*
X71775000Y-79050200D01*
X53905500Y-80155000D02*
X54400000Y-79660500D01*
X43305200Y-80053200D02*
X45746800Y-80053200D01*
X54531900Y-79792400D02*
X65176699Y-79792400D01*
X51662564Y-80155000D02*
X53905500Y-80155000D01*
X71775000Y-75985000D02*
X70650000Y-74860000D01*
X48875278Y-78742800D02*
X49149778Y-79017300D01*
X65176699Y-79792400D02*
X65451699Y-80067400D01*
X51074364Y-79566800D02*
X51662564Y-80155000D01*
X45746800Y-80053200D02*
X47606700Y-78193300D01*
X48121005Y-78193300D02*
X48670505Y-78742800D01*
X54400000Y-79660500D02*
X54531900Y-79792400D01*
%TO.N,/cD5*%
X49061674Y-78292800D02*
X48856901Y-78292800D01*
X42730395Y-79053700D02*
X42384095Y-79400000D01*
X45264905Y-79603200D02*
X43890800Y-79603200D01*
X47124805Y-77743300D02*
X45264905Y-79603200D01*
X70650000Y-77400000D02*
X68432600Y-79617400D01*
X53150595Y-79705000D02*
X51848960Y-79705000D01*
X50508775Y-79116800D02*
X49959275Y-78567300D01*
X51848960Y-79705000D02*
X51260760Y-79116800D01*
X42384095Y-79400000D02*
X41168800Y-79400000D01*
X65363095Y-79342400D02*
X56362896Y-79342400D01*
X43890800Y-79603200D02*
X43341300Y-79053700D01*
X49336174Y-78567300D02*
X49061674Y-78292800D01*
X56095496Y-79075000D02*
X55482895Y-79075000D01*
X48307401Y-77743300D02*
X47124805Y-77743300D01*
X56362896Y-79342400D02*
X56095496Y-79075000D01*
X49959275Y-78567300D02*
X49336174Y-78567300D01*
X55208795Y-78800900D02*
X55073695Y-78936000D01*
X51260760Y-79116800D02*
X50508775Y-79116800D01*
X43341300Y-79053700D02*
X42730395Y-79053700D01*
X65638095Y-79617400D02*
X65363095Y-79342400D01*
X48856901Y-78292800D02*
X48307401Y-77743300D01*
X55073695Y-78936000D02*
X53919595Y-78936000D01*
X68432600Y-79617400D02*
X65638095Y-79617400D01*
X55482895Y-79075000D02*
X55208795Y-78800900D01*
X41168800Y-79400000D02*
X41131700Y-79362900D01*
X53919595Y-78936000D02*
X53150595Y-79705000D01*
%TO.N,/cD4*%
X50764009Y-78625000D02*
X50105000Y-77965991D01*
X49798365Y-76745700D02*
X46849613Y-76745700D01*
X50105000Y-77965991D02*
X50105000Y-77052335D01*
X57725000Y-76746220D02*
X57725000Y-76535000D01*
X46849613Y-76745700D02*
X46059113Y-77536200D01*
X61515000Y-76375000D02*
X63030000Y-74860000D01*
X50105000Y-77052335D02*
X49798365Y-76745700D01*
X57885000Y-76375000D02*
X61515000Y-76375000D01*
X57725000Y-76535000D02*
X57885000Y-76375000D01*
X52284991Y-78036000D02*
X51695991Y-78625000D01*
X56307390Y-77625900D02*
X54722094Y-77625900D01*
X51695991Y-78625000D02*
X50764009Y-78625000D01*
X54311994Y-78036000D02*
X52284991Y-78036000D01*
X54722094Y-77625900D02*
X54311994Y-78036000D01*
X41856200Y-77536200D02*
X40820000Y-76500000D01*
X56576355Y-77894865D02*
X57725000Y-76746220D01*
X56576355Y-77894865D02*
X56307390Y-77625900D01*
X46059113Y-77536200D02*
X41856200Y-77536200D01*
%TO.N,/cD3*%
X57630000Y-71200000D02*
X50859009Y-71200000D01*
X50329409Y-71729600D02*
X47055809Y-71729600D01*
X58850000Y-72420000D02*
X57630000Y-71200000D01*
X47055809Y-71729600D02*
X45861109Y-72924300D01*
X45861109Y-72924300D02*
X39315700Y-72924300D01*
X50859009Y-71200000D02*
X50329409Y-71729600D01*
X39315700Y-72924300D02*
X38280000Y-73960000D01*
%TO.N,/cD2*%
X50764009Y-76085000D02*
X56615000Y-76085000D01*
X48616605Y-75590400D02*
X48621905Y-75595700D01*
X56615000Y-76085000D02*
X57740000Y-74960000D01*
X46746396Y-75590400D02*
X48616605Y-75590400D01*
X57740000Y-74960000D02*
X58850000Y-74960000D01*
X61544500Y-75082400D02*
X61422100Y-74960000D01*
X35740000Y-74440000D02*
X36746200Y-75446200D01*
X46602196Y-75446200D02*
X46746396Y-75590400D01*
X61422100Y-74960000D02*
X58850000Y-74960000D01*
X48621905Y-75595700D02*
X50274710Y-75595700D01*
X50274710Y-75595700D02*
X50764009Y-76085000D01*
X35740000Y-73960000D02*
X35740000Y-74440000D01*
X36746200Y-75446200D02*
X46602196Y-75446200D01*
%TO.N,/cD1*%
X54498390Y-78486000D02*
X53733199Y-78486000D01*
X53458699Y-78760500D02*
X52745887Y-78760500D01*
X54908490Y-78075900D02*
X54498390Y-78486000D01*
X41219804Y-77536200D02*
X36776200Y-77536200D01*
X53733199Y-78486000D02*
X53458699Y-78760500D01*
X65938400Y-78892400D02*
X60242400Y-78892400D01*
X49162432Y-77293300D02*
X46938409Y-77293300D01*
X46938409Y-77293300D02*
X46245509Y-77986200D01*
X57610200Y-78739800D02*
X56396692Y-78739800D01*
X58850000Y-77500000D02*
X57610200Y-78739800D01*
X41669804Y-77986200D02*
X41219804Y-77536200D01*
X55732792Y-78075900D02*
X54908490Y-78075900D01*
X56396692Y-78739800D02*
X55732792Y-78075900D01*
X60242400Y-78892400D02*
X58850000Y-77500000D01*
X49380500Y-77511368D02*
X49162432Y-77293300D01*
X36776200Y-77536200D02*
X35740000Y-76500000D01*
X46245509Y-77986200D02*
X41669804Y-77986200D01*
%TO.N,/cD0*%
X47917700Y-79024429D02*
X48086071Y-79192800D01*
X55982512Y-80242400D02*
X64990303Y-80242400D01*
X36169209Y-72923800D02*
X34236200Y-72923800D01*
X65265303Y-80517400D02*
X68864300Y-80517400D01*
X50895200Y-74625200D02*
X51230000Y-74960000D01*
X49034666Y-74871200D02*
X48026666Y-73863200D01*
X49280666Y-74625200D02*
X50895200Y-74625200D01*
X50887968Y-80016800D02*
X51476168Y-80605000D01*
X50135983Y-80016800D02*
X50887968Y-80016800D01*
X48086071Y-79192800D02*
X48688882Y-79192800D01*
X55619912Y-80605000D02*
X55982512Y-80242400D01*
X64990303Y-80242400D02*
X65265303Y-80517400D01*
X47548800Y-73863200D02*
X46415800Y-74996200D01*
X36776200Y-73921609D02*
X36776200Y-73530791D01*
X36776200Y-73530791D02*
X36169209Y-72923800D01*
X49586483Y-79467300D02*
X50135983Y-80016800D01*
X37850791Y-74996200D02*
X36776200Y-73921609D01*
X34236200Y-72923800D02*
X33200000Y-73960000D01*
X46415800Y-74996200D02*
X37850791Y-74996200D01*
X48963382Y-79467300D02*
X49586483Y-79467300D01*
X51476168Y-80605000D02*
X55619912Y-80605000D01*
X68864300Y-80517400D02*
X69138800Y-80791900D01*
X48688882Y-79192800D02*
X48963382Y-79467300D01*
X49034666Y-74871200D02*
X49280666Y-74625200D01*
X48026666Y-73863200D02*
X47548800Y-73863200D01*
%TO.N,/~{ROMSEL}*%
X46329209Y-70383800D02*
X45470791Y-70383800D01*
X61805000Y-68465000D02*
X58384009Y-68465000D01*
X50038001Y-70967600D02*
X46913009Y-70967600D01*
X57229009Y-67310000D02*
X51260000Y-67310000D01*
X58384009Y-68465000D02*
X57229009Y-67310000D01*
X45470791Y-70383800D02*
X44434591Y-71420000D01*
X44434591Y-71420000D02*
X43360000Y-71420000D01*
X63030000Y-67240000D02*
X61805000Y-68465000D01*
X46913009Y-70967600D02*
X46329209Y-70383800D01*
X51260000Y-67310000D02*
X51230000Y-67340000D01*
X50052406Y-70982005D02*
X50038001Y-70967600D01*
%TO.N,/pA10*%
X105160000Y-61079009D02*
X104355991Y-60275000D01*
X104355991Y-60275000D02*
X102475000Y-60275000D01*
X105160000Y-62650000D02*
X105160000Y-61079009D01*
X102475000Y-60275000D02*
X101350000Y-61400000D01*
%TO.N,/pD7*%
X110127200Y-77073791D02*
X109389191Y-77811800D01*
X107700000Y-62650000D02*
X106663800Y-63686200D01*
X105576200Y-77811800D02*
X104952800Y-78435200D01*
X107537000Y-74313800D02*
X108349800Y-74313800D01*
X110127200Y-76091200D02*
X110127200Y-77073791D01*
X106663800Y-63686200D02*
X106663800Y-73440600D01*
X108349800Y-74313800D02*
X110127200Y-76091200D01*
X106663800Y-73440600D02*
X107537000Y-74313800D01*
X109389191Y-77811800D02*
X105576200Y-77811800D01*
%TO.N,/pD6*%
X107797600Y-78536800D02*
X111204191Y-78536800D01*
X112268000Y-75285600D02*
X111810800Y-75285600D01*
X111204191Y-78536800D02*
X112635000Y-77105991D01*
X112635000Y-77105991D02*
X112635000Y-75652600D01*
X112635000Y-75652600D02*
X112268000Y-75285600D01*
X111810800Y-75285600D02*
X111607600Y-75082400D01*
%TO.N,/bA1*%
X51230000Y-59720000D02*
X50583800Y-59073800D01*
X37407900Y-59073800D02*
X36982400Y-59499300D01*
X50583800Y-59073800D02*
X37407900Y-59073800D01*
%TO.N,/bA2*%
X38280000Y-61260000D02*
X40016200Y-59523800D01*
X48666400Y-61535500D02*
X48666400Y-62433200D01*
X49618200Y-63385000D02*
X57725000Y-63385000D01*
X57725000Y-63385000D02*
X58850000Y-62260000D01*
X40016200Y-59523800D02*
X46654700Y-59523800D01*
X46654700Y-59523800D02*
X48666400Y-61535500D01*
X48666400Y-62433200D02*
X49618200Y-63385000D01*
%TO.N,/bA3*%
X47822800Y-66141600D02*
X46517400Y-64836200D01*
X57508400Y-66141600D02*
X47822800Y-66141600D01*
X44399200Y-62299200D02*
X43360000Y-61260000D01*
X58850000Y-64800000D02*
X57508400Y-66141600D01*
X44399200Y-63764609D02*
X44399200Y-62299200D01*
X46517400Y-64836200D02*
X45470791Y-64836200D01*
X45470791Y-64836200D02*
X44399200Y-63764609D01*
%TO.N,/bA4*%
X60604400Y-64668400D02*
X61468000Y-64668400D01*
X58384009Y-63675000D02*
X59611000Y-63675000D01*
X53543200Y-64414400D02*
X53848000Y-64109600D01*
X66799404Y-68681600D02*
X65935804Y-67818000D01*
X69138800Y-68681600D02*
X66799404Y-68681600D01*
X59611000Y-63675000D02*
X60604400Y-64668400D01*
X57949409Y-64109600D02*
X58384009Y-63675000D01*
X53848000Y-64109600D02*
X57949409Y-64109600D01*
X65935804Y-67818000D02*
X65074800Y-67818000D01*
%TO.N,/bA5*%
X80060600Y-74479400D02*
X79450000Y-75090000D01*
X89445500Y-74340500D02*
X89306600Y-74479400D01*
X94640400Y-63347600D02*
X92913200Y-65074800D01*
X89512893Y-65074800D02*
X89231847Y-64793754D01*
X92913200Y-65074800D02*
X89512893Y-65074800D01*
X95326898Y-63204496D02*
X95183794Y-63347600D01*
X95183794Y-63347600D02*
X94640400Y-63347600D01*
X89306600Y-74479400D02*
X80060600Y-74479400D01*
%TO.N,/bA6*%
X91814237Y-73221000D02*
X92126737Y-73533500D01*
X87775805Y-74029400D02*
X88584205Y-73221000D01*
X88584205Y-73221000D02*
X91814237Y-73221000D01*
X84156974Y-71714682D02*
X86471692Y-74029400D01*
X92811091Y-73533500D02*
X94644591Y-71700000D01*
X92126737Y-73533500D02*
X92811091Y-73533500D01*
X83530000Y-76600000D02*
X83570000Y-76640000D01*
X79450000Y-77630000D02*
X80277331Y-76802669D01*
X94644591Y-71700000D02*
X96110000Y-71700000D01*
X84156974Y-71286947D02*
X84156974Y-71714682D01*
X86471692Y-74029400D02*
X87775805Y-74029400D01*
X80333727Y-76802669D02*
X80536396Y-76600000D01*
X96110000Y-71700000D02*
X97540000Y-70270000D01*
X80277331Y-76802669D02*
X80333727Y-76802669D01*
X80536396Y-76600000D02*
X83530000Y-76600000D01*
%TO.N,/bA7*%
X85272747Y-78848247D02*
X85272747Y-79200162D01*
X79670500Y-79949500D02*
X79450000Y-80170000D01*
X93730000Y-70270000D02*
X95000000Y-70270000D01*
X85000000Y-70750000D02*
X85300000Y-70450000D01*
X89608604Y-71445000D02*
X92555000Y-71445000D01*
X92555000Y-71445000D02*
X93730000Y-70270000D01*
X84372909Y-80100000D02*
X82000305Y-80100000D01*
X85300000Y-70450000D02*
X88613604Y-70450000D01*
X81849805Y-79949500D02*
X79670500Y-79949500D01*
X85272747Y-79200162D02*
X84372909Y-80100000D01*
X82000305Y-80100000D02*
X81849805Y-79949500D01*
X88613604Y-70450000D02*
X89608604Y-71445000D01*
%TO.N,/pA13*%
X111401986Y-80000000D02*
X104051005Y-80000000D01*
X99315301Y-77934699D02*
X102190801Y-77934699D01*
X112756386Y-78645600D02*
X111401986Y-80000000D01*
X114038800Y-78645600D02*
X112756386Y-78645600D01*
X114249200Y-78435200D02*
X114038800Y-78645600D01*
X109203800Y-66693800D02*
X111956600Y-66693800D01*
X88775000Y-78725000D02*
X98525000Y-78725000D01*
X85834486Y-78100000D02*
X86250000Y-78515514D01*
X104051005Y-80000000D02*
X103553005Y-79502000D01*
X86250000Y-78515514D02*
X86250000Y-79000000D01*
X102190801Y-77934699D02*
X102250000Y-77875500D01*
X86250000Y-79000000D02*
X86451296Y-79201296D01*
X88298704Y-79201296D02*
X88775000Y-78725000D01*
X103553005Y-79502000D02*
X102074500Y-79502000D01*
X83096652Y-78161459D02*
X83699695Y-78764502D01*
X86451296Y-79201296D02*
X88298704Y-79201296D01*
X107700000Y-65190000D02*
X109203800Y-66693800D01*
X111956600Y-66693800D02*
X112623600Y-67360800D01*
X83699695Y-78764502D02*
X84331894Y-78764502D01*
X84331894Y-78764502D02*
X84996396Y-78100000D01*
X98525000Y-78725000D02*
X99315301Y-77934699D01*
X84996396Y-78100000D02*
X85834486Y-78100000D01*
X81749500Y-78161459D02*
X83096652Y-78161459D01*
%TO.N,/pA12*%
X93698604Y-75065000D02*
X95000000Y-73763604D01*
X88239600Y-78232000D02*
X87720304Y-78751296D01*
X88521000Y-72321000D02*
X88000000Y-71800000D01*
X93459995Y-71859996D02*
X93424991Y-71895000D01*
X88000000Y-71800000D02*
X88000000Y-71700000D01*
X97586800Y-78000000D02*
X97354800Y-78232000D01*
X87720304Y-78751296D02*
X87120401Y-78751296D01*
X93424991Y-71895000D02*
X90626000Y-71895000D01*
X87525000Y-76174009D02*
X88184009Y-75515000D01*
X92627613Y-75515000D02*
X93077613Y-75065000D01*
X90626000Y-71895000D02*
X90200000Y-72321000D01*
X97354800Y-78232000D02*
X88239600Y-78232000D01*
X87525000Y-76815991D02*
X87525000Y-76174009D01*
X93077613Y-75065000D02*
X93698604Y-75065000D01*
X95000000Y-73763604D02*
X95000000Y-72810000D01*
X87120401Y-78751296D02*
X86695706Y-78326601D01*
X86695706Y-77645285D02*
X87525000Y-76815991D01*
X90200000Y-72321000D02*
X88521000Y-72321000D01*
X86695706Y-78326601D02*
X86695706Y-77645285D01*
X88184009Y-75515000D02*
X92627613Y-75515000D01*
%TO.N,/pA7*%
X95969009Y-75350000D02*
X94855000Y-76464009D01*
X87420706Y-77869294D02*
X88650000Y-76640000D01*
X87420706Y-78026296D02*
X87420706Y-77869294D01*
X94855000Y-77153800D02*
X94234000Y-77774800D01*
X94855000Y-76464009D02*
X94855000Y-77153800D01*
X97540000Y-75350000D02*
X95969009Y-75350000D01*
X94234000Y-77774800D02*
X89784800Y-77774800D01*
X89784800Y-77774800D02*
X88650000Y-76640000D01*
%TO.N,/pA6*%
X86913604Y-82050000D02*
X86425903Y-82537701D01*
X88877208Y-82050000D02*
X86913604Y-82050000D01*
X96503800Y-73846200D02*
X97540000Y-72810000D01*
X91190000Y-76640000D02*
X92605000Y-76640000D01*
X90795100Y-81394900D02*
X89532308Y-81394900D01*
X92605000Y-76174009D02*
X93264009Y-75515000D01*
X89532308Y-81394900D02*
X88877208Y-82050000D01*
X92605000Y-76640000D02*
X92605000Y-76174009D01*
X83680000Y-83920000D02*
X83680000Y-86930000D01*
X93264009Y-75515000D02*
X93885000Y-75515000D01*
X91190000Y-81000000D02*
X90795100Y-81394900D01*
X85062299Y-82537701D02*
X83680000Y-83920000D01*
X95553800Y-73846200D02*
X96503800Y-73846200D01*
X86425903Y-82537701D02*
X85062299Y-82537701D01*
X93885000Y-75515000D02*
X95553800Y-73846200D01*
%TO.N,/pA5*%
X89718704Y-81844900D02*
X89063604Y-82500000D01*
X92724500Y-80503203D02*
X91382803Y-81844900D01*
X91382803Y-81844900D02*
X89718704Y-81844900D01*
X96056200Y-74313800D02*
X99043800Y-74313800D01*
X87100000Y-82500000D02*
X86220000Y-83380000D01*
X86220000Y-83380000D02*
X86220000Y-86930000D01*
X89063604Y-82500000D02*
X87100000Y-82500000D01*
X93730000Y-76640000D02*
X96056200Y-74313800D01*
X99043800Y-74313800D02*
X100080000Y-75350000D01*
X92724500Y-80378900D02*
X92724500Y-80503203D01*
%TO.N,/pA4*%
X93820600Y-80379400D02*
X96370600Y-80379400D01*
X96370600Y-80379400D02*
X96750000Y-80000000D01*
X89905100Y-82294900D02*
X91905100Y-82294900D01*
X88760000Y-83440000D02*
X89905100Y-82294900D01*
X91905100Y-82294900D02*
X93820600Y-80379400D01*
X88760000Y-86930000D02*
X88760000Y-83440000D01*
%TO.N,/pA3*%
X92801196Y-83400000D02*
X92000000Y-83400000D01*
X98704400Y-80721200D02*
X98146200Y-81279400D01*
X98146200Y-81279400D02*
X94921796Y-81279400D01*
X92000000Y-83400000D02*
X91300000Y-84100000D01*
X94921796Y-81279400D02*
X92801196Y-83400000D01*
X91300000Y-84100000D02*
X91300000Y-86930000D01*
%TO.N,/pA2*%
X93840000Y-83560000D02*
X95670600Y-81729400D01*
X101350000Y-76640000D02*
X101350000Y-74080000D01*
X100744200Y-81729400D02*
X101549200Y-80924400D01*
X101350000Y-74080000D02*
X102620000Y-72810000D01*
X95670600Y-81729400D02*
X100744200Y-81729400D01*
X93840000Y-86930000D02*
X93840000Y-83560000D01*
%TO.N,/pA1*%
X103378000Y-80352300D02*
X101071500Y-82658800D01*
X96380000Y-83820000D02*
X96380000Y-86930000D01*
X101071500Y-82658800D02*
X97541200Y-82658800D01*
X97541200Y-82658800D02*
X96380000Y-83820000D01*
%TO.N,/pA0*%
X98920000Y-86930000D02*
X98920000Y-83680000D01*
X102006400Y-83108800D02*
X104038400Y-81076800D01*
X104038400Y-81076800D02*
X106527600Y-81076800D01*
X99491200Y-83108800D02*
X102006400Y-83108800D01*
X98920000Y-83680000D02*
X99491200Y-83108800D01*
%TO.N,/pA9*%
X102620000Y-65190000D02*
X101583800Y-64153800D01*
X101583800Y-64153800D02*
X98724596Y-64153800D01*
X98724596Y-64153800D02*
X98274596Y-63703800D01*
X96850800Y-63703800D02*
X94547000Y-61400000D01*
X98274596Y-63703800D02*
X96850800Y-63703800D01*
X94547000Y-61400000D02*
X93730000Y-61400000D01*
%TO.N,/pA8*%
X100080000Y-60913200D02*
X99366800Y-60200000D01*
X99366800Y-60200000D02*
X92390000Y-60200000D01*
X92390000Y-60200000D02*
X91190000Y-61400000D01*
X100080000Y-62650000D02*
X100080000Y-60913200D01*
%TO.N,/cA14*%
X52845400Y-68465000D02*
X53136800Y-68173600D01*
X48643285Y-66634276D02*
X50474009Y-68465000D01*
X46936200Y-65910791D02*
X46936200Y-66351602D01*
X46936200Y-66351602D02*
X47218874Y-66634276D01*
X44847690Y-64849495D02*
X45284395Y-65286200D01*
X47218874Y-66634276D02*
X48643285Y-66634276D01*
X39296535Y-64849495D02*
X44847690Y-64849495D01*
X53275900Y-68034500D02*
X53136800Y-68173600D01*
X50474009Y-68465000D02*
X52845400Y-68465000D01*
X45284395Y-65286200D02*
X46311609Y-65286200D01*
X46311609Y-65286200D02*
X46936200Y-65910791D01*
X55676800Y-68034500D02*
X53275900Y-68034500D01*
%TO.N,Net-(JP8-C)*%
X56896000Y-72019500D02*
X56540500Y-72375000D01*
X56274695Y-72400000D02*
X51250000Y-72400000D01*
X51250000Y-72400000D02*
X51230000Y-72420000D01*
X56540500Y-72375000D02*
X56299695Y-72375000D01*
X56299695Y-72375000D02*
X56274695Y-72400000D01*
%TO.N,/r.4*%
X68346700Y-62160000D02*
X63030000Y-62160000D01*
X69037200Y-62850500D02*
X68346700Y-62160000D01*
%TO.N,/r.7*%
X72390000Y-74523600D02*
X71433200Y-73566800D01*
X79012299Y-82987701D02*
X78987701Y-82987701D01*
X83245764Y-81518065D02*
X80481935Y-81518065D01*
X80481935Y-81518065D02*
X79012299Y-82987701D01*
X76836846Y-81648777D02*
X76966992Y-81778923D01*
X72390000Y-79500000D02*
X72390000Y-74523600D01*
X76966992Y-81778923D02*
X76966992Y-83348277D01*
%TO.N,/chr12*%
X92427042Y-72808500D02*
X92389542Y-72771000D01*
X92389542Y-72771000D02*
X88008900Y-72771000D01*
X93586714Y-73919503D02*
X92441217Y-75065000D01*
X93819503Y-73919503D02*
X93586714Y-73919503D01*
X88008900Y-72771000D02*
X87475500Y-73304400D01*
X92441217Y-75065000D02*
X87350004Y-75065000D01*
X87350004Y-75065000D02*
X86800744Y-75614260D01*
%TD*%
%TA.AperFunction,Conductor*%
%TO.N,GND*%
G36*
X76146386Y-82666735D02*
G01*
X76204435Y-82705622D01*
X76232245Y-82769718D01*
X76220986Y-82838675D01*
X76216581Y-82847025D01*
X76162361Y-82940938D01*
X76145527Y-82970097D01*
X76139812Y-82979995D01*
X76139810Y-82979999D01*
X76081319Y-83160017D01*
X76081318Y-83160021D01*
X76061532Y-83348277D01*
X76071209Y-83440354D01*
X76071492Y-83443039D01*
X76058922Y-83511768D01*
X76011190Y-83562792D01*
X75948171Y-83580000D01*
X75212155Y-83580000D01*
X75152627Y-83586401D01*
X75152620Y-83586403D01*
X75017913Y-83636645D01*
X75017906Y-83636649D01*
X74902814Y-83722808D01*
X74902807Y-83722814D01*
X74889575Y-83740490D01*
X74833640Y-83782359D01*
X74763948Y-83787340D01*
X74702626Y-83753852D01*
X74691047Y-83740489D01*
X74686414Y-83734300D01*
X74682587Y-83729188D01*
X74658168Y-83663727D01*
X74673018Y-83595453D01*
X74694168Y-83567198D01*
X75165247Y-83096118D01*
X75226571Y-83062634D01*
X75252929Y-83059800D01*
X75388644Y-83059800D01*
X75388646Y-83059800D01*
X75573803Y-83020444D01*
X75746730Y-82943451D01*
X75899871Y-82832188D01*
X76017046Y-82702051D01*
X76076529Y-82665405D01*
X76146386Y-82666735D01*
G37*
%TD.AperFunction*%
%TA.AperFunction,Conductor*%
G36*
X91362685Y-82940085D02*
G01*
X91408440Y-82992889D01*
X91418384Y-83062047D01*
X91389359Y-83125603D01*
X91383327Y-83132081D01*
X90972226Y-83543181D01*
X90910903Y-83576666D01*
X90884545Y-83579500D01*
X90452129Y-83579500D01*
X90452123Y-83579501D01*
X90392516Y-83585908D01*
X90257671Y-83636202D01*
X90257664Y-83636206D01*
X90142455Y-83722452D01*
X90129266Y-83740071D01*
X90073332Y-83781941D01*
X90003640Y-83786925D01*
X89942317Y-83753439D01*
X89930734Y-83740071D01*
X89926414Y-83734300D01*
X89917546Y-83722454D01*
X89917544Y-83722453D01*
X89917544Y-83722452D01*
X89802335Y-83636206D01*
X89802328Y-83636202D01*
X89725320Y-83607480D01*
X89669386Y-83565609D01*
X89644969Y-83500144D01*
X89659821Y-83431871D01*
X89680968Y-83403622D01*
X90127871Y-82956719D01*
X90189195Y-82923234D01*
X90215553Y-82920400D01*
X91295646Y-82920400D01*
X91362685Y-82940085D01*
G37*
%TD.AperFunction*%
%TA.AperFunction,Conductor*%
G36*
X36305703Y-81563531D02*
G01*
X36312179Y-81569561D01*
X37097517Y-82354900D01*
X37881903Y-83139286D01*
X37891728Y-83151549D01*
X37891949Y-83151367D01*
X37896920Y-83157376D01*
X37919642Y-83178713D01*
X37947341Y-83204724D01*
X37968235Y-83225618D01*
X37973717Y-83229871D01*
X37978149Y-83233655D01*
X38012124Y-83265560D01*
X38029682Y-83275212D01*
X38045941Y-83285893D01*
X38061770Y-83298171D01*
X38104544Y-83316680D01*
X38109762Y-83319236D01*
X38150614Y-83341695D01*
X38162006Y-83344620D01*
X38166975Y-83345896D01*
X38227013Y-83381634D01*
X38258199Y-83444157D01*
X38250631Y-83513616D01*
X38206713Y-83567957D01*
X38140387Y-83589927D01*
X38136138Y-83590000D01*
X36322155Y-83590000D01*
X36262627Y-83596401D01*
X36255070Y-83598187D01*
X36254417Y-83595426D01*
X36198092Y-83599431D01*
X36136783Y-83565921D01*
X36103323Y-83504584D01*
X36100500Y-83478276D01*
X36100500Y-81657244D01*
X36120185Y-81590205D01*
X36172989Y-81544450D01*
X36242147Y-81534506D01*
X36305703Y-81563531D01*
G37*
%TD.AperFunction*%
%TA.AperFunction,Conductor*%
G36*
X78530703Y-81090336D02*
G01*
X78537181Y-81096368D01*
X78610858Y-81170045D01*
X78630858Y-81184049D01*
X78797266Y-81300568D01*
X79003504Y-81396739D01*
X79223308Y-81455635D01*
X79359753Y-81467572D01*
X79424821Y-81493024D01*
X79465800Y-81549615D01*
X79469678Y-81619377D01*
X79436626Y-81678781D01*
X79064527Y-82050882D01*
X79003204Y-82084367D01*
X78976846Y-82087201D01*
X78893055Y-82087201D01*
X78860598Y-82094099D01*
X78707898Y-82126556D01*
X78707893Y-82126558D01*
X78534971Y-82203549D01*
X78534968Y-82203551D01*
X78522383Y-82212695D01*
X78456576Y-82236173D01*
X78388522Y-82220346D01*
X78339829Y-82170239D01*
X78325500Y-82112375D01*
X78325500Y-81184049D01*
X78345185Y-81117010D01*
X78397989Y-81071255D01*
X78467147Y-81061311D01*
X78530703Y-81090336D01*
G37*
%TD.AperFunction*%
%TA.AperFunction,Conductor*%
G36*
X89507392Y-79370185D02*
G01*
X89553147Y-79422989D01*
X89563091Y-79492147D01*
X89534066Y-79555703D01*
X89528035Y-79562179D01*
X88838703Y-80251511D01*
X88152033Y-80938181D01*
X88090710Y-80971666D01*
X88064352Y-80974500D01*
X86809945Y-80974500D01*
X86794328Y-80972776D01*
X86794301Y-80973062D01*
X86786539Y-80972327D01*
X86717411Y-80974500D01*
X86687858Y-80974500D01*
X86687137Y-80974590D01*
X86680965Y-80975369D01*
X86675153Y-80975826D01*
X86628580Y-80977290D01*
X86628577Y-80977291D01*
X86609334Y-80982881D01*
X86590291Y-80986825D01*
X86570412Y-80989336D01*
X86570411Y-80989337D01*
X86527086Y-81006490D01*
X86521560Y-81008382D01*
X86476816Y-81021383D01*
X86476812Y-81021385D01*
X86459573Y-81031580D01*
X86442106Y-81040137D01*
X86423477Y-81047512D01*
X86423475Y-81047513D01*
X86385772Y-81074906D01*
X86380890Y-81078112D01*
X86340788Y-81101828D01*
X86326616Y-81116000D01*
X86311831Y-81128628D01*
X86295620Y-81140407D01*
X86265917Y-81176310D01*
X86261985Y-81180630D01*
X86217876Y-81224740D01*
X86016733Y-81425883D01*
X85955413Y-81459367D01*
X85929054Y-81462201D01*
X84791449Y-81462201D01*
X84724410Y-81442516D01*
X84699301Y-81421175D01*
X84693574Y-81414815D01*
X84693570Y-81414811D01*
X84540435Y-81303552D01*
X84540430Y-81303549D01*
X84367508Y-81226558D01*
X84367503Y-81226556D01*
X84221701Y-81195566D01*
X84182347Y-81187201D01*
X84182346Y-81187201D01*
X84166139Y-81187201D01*
X84099100Y-81167516D01*
X84058752Y-81125201D01*
X84021865Y-81061311D01*
X83978297Y-80985849D01*
X83930236Y-80932472D01*
X83900006Y-80869481D01*
X83908631Y-80800145D01*
X83953373Y-80746480D01*
X84020025Y-80725522D01*
X84022386Y-80725500D01*
X84290166Y-80725500D01*
X84305786Y-80727224D01*
X84305813Y-80726939D01*
X84313569Y-80727671D01*
X84313576Y-80727673D01*
X84382723Y-80725500D01*
X84412259Y-80725500D01*
X84419137Y-80724630D01*
X84424950Y-80724172D01*
X84471536Y-80722709D01*
X84490778Y-80717117D01*
X84509821Y-80713174D01*
X84529701Y-80710664D01*
X84573031Y-80693507D01*
X84578555Y-80691617D01*
X84582305Y-80690527D01*
X84623299Y-80678618D01*
X84640538Y-80668422D01*
X84658012Y-80659862D01*
X84676636Y-80652488D01*
X84676636Y-80652487D01*
X84676641Y-80652486D01*
X84714358Y-80625082D01*
X84719214Y-80621892D01*
X84759329Y-80598170D01*
X84773498Y-80583999D01*
X84788288Y-80571368D01*
X84804496Y-80559594D01*
X84834208Y-80523676D01*
X84838121Y-80519376D01*
X85656534Y-79700964D01*
X85668789Y-79691148D01*
X85668606Y-79690926D01*
X85674618Y-79685951D01*
X85674624Y-79685948D01*
X85715671Y-79642236D01*
X85733179Y-79626802D01*
X85769409Y-79600480D01*
X85796294Y-79580946D01*
X85862102Y-79557466D01*
X85930155Y-79573292D01*
X85959670Y-79597993D01*
X85959822Y-79597832D01*
X85962641Y-79600480D01*
X85964721Y-79602220D01*
X85965508Y-79603171D01*
X85965509Y-79603172D01*
X85965510Y-79603173D01*
X86015947Y-79650537D01*
X86036826Y-79671416D01*
X86042300Y-79675662D01*
X86046738Y-79679452D01*
X86080714Y-79711358D01*
X86080718Y-79711360D01*
X86098269Y-79721009D01*
X86114527Y-79731688D01*
X86130360Y-79743970D01*
X86152311Y-79753468D01*
X86173133Y-79762479D01*
X86178377Y-79765048D01*
X86219204Y-79787493D01*
X86238608Y-79792475D01*
X86257006Y-79798774D01*
X86275401Y-79806734D01*
X86321425Y-79814022D01*
X86327128Y-79815203D01*
X86372277Y-79826796D01*
X86392312Y-79826796D01*
X86411709Y-79828322D01*
X86431492Y-79831456D01*
X86477879Y-79827071D01*
X86483718Y-79826796D01*
X88215961Y-79826796D01*
X88231581Y-79828520D01*
X88231608Y-79828235D01*
X88239364Y-79828967D01*
X88239371Y-79828969D01*
X88308518Y-79826796D01*
X88338054Y-79826796D01*
X88344932Y-79825926D01*
X88350745Y-79825468D01*
X88397331Y-79824005D01*
X88416573Y-79818413D01*
X88435616Y-79814470D01*
X88455496Y-79811960D01*
X88498826Y-79794803D01*
X88504350Y-79792913D01*
X88508100Y-79791823D01*
X88549094Y-79779914D01*
X88566333Y-79769718D01*
X88583807Y-79761158D01*
X88602431Y-79753784D01*
X88602431Y-79753783D01*
X88602436Y-79753782D01*
X88640153Y-79726378D01*
X88645009Y-79723188D01*
X88685124Y-79699466D01*
X88699293Y-79685295D01*
X88714083Y-79672664D01*
X88730291Y-79660890D01*
X88759999Y-79624977D01*
X88763911Y-79620677D01*
X88954802Y-79429788D01*
X88997773Y-79386818D01*
X89059097Y-79353334D01*
X89085454Y-79350500D01*
X89440353Y-79350500D01*
X89507392Y-79370185D01*
G37*
%TD.AperFunction*%
%TA.AperFunction,Conductor*%
G36*
X78255605Y-74320185D02*
G01*
X78301360Y-74372989D01*
X78311304Y-74442147D01*
X78300948Y-74476904D01*
X78261387Y-74561744D01*
X78223262Y-74643502D01*
X78223258Y-74643511D01*
X78164366Y-74863302D01*
X78164364Y-74863313D01*
X78144532Y-75089998D01*
X78144532Y-75090001D01*
X78164364Y-75316686D01*
X78164367Y-75316700D01*
X78172150Y-75345748D01*
X78170487Y-75415598D01*
X78131324Y-75473460D01*
X78102812Y-75491119D01*
X78047267Y-75515849D01*
X77894129Y-75627111D01*
X77767466Y-75767785D01*
X77672821Y-75931715D01*
X77672818Y-75931722D01*
X77618304Y-76099500D01*
X77614326Y-76111744D01*
X77600846Y-76240000D01*
X77595719Y-76288787D01*
X77594540Y-76300000D01*
X77614326Y-76488256D01*
X77614327Y-76488259D01*
X77672818Y-76668277D01*
X77672821Y-76668284D01*
X77767467Y-76832216D01*
X77838135Y-76910700D01*
X77894129Y-76972888D01*
X78047265Y-77084148D01*
X78047270Y-77084151D01*
X78131538Y-77121670D01*
X78184775Y-77166920D01*
X78205096Y-77233769D01*
X78200877Y-77267042D01*
X78164366Y-77403302D01*
X78164364Y-77403313D01*
X78144532Y-77629998D01*
X78144532Y-77630001D01*
X78164364Y-77856686D01*
X78164366Y-77856697D01*
X78223258Y-78076488D01*
X78223261Y-78076497D01*
X78319431Y-78282732D01*
X78319432Y-78282734D01*
X78449954Y-78469141D01*
X78610858Y-78630045D01*
X78610861Y-78630047D01*
X78797266Y-78760568D01*
X78855275Y-78787618D01*
X78907714Y-78833791D01*
X78926866Y-78900984D01*
X78906650Y-78967865D01*
X78855275Y-79012382D01*
X78797267Y-79039431D01*
X78797265Y-79039432D01*
X78610858Y-79169954D01*
X78449954Y-79330858D01*
X78421502Y-79371492D01*
X78366925Y-79415116D01*
X78297426Y-79422308D01*
X78235072Y-79390785D01*
X78213197Y-79363489D01*
X78198170Y-79338080D01*
X78198167Y-79338077D01*
X78198165Y-79338074D01*
X78184006Y-79323915D01*
X78171368Y-79309119D01*
X78169956Y-79307176D01*
X78162087Y-79296344D01*
X78159592Y-79292910D01*
X78147170Y-79282634D01*
X78108063Y-79224734D01*
X78102890Y-79200052D01*
X78085674Y-79036244D01*
X78027179Y-78856216D01*
X77932533Y-78692284D01*
X77805871Y-78551612D01*
X77775771Y-78529743D01*
X77652734Y-78440351D01*
X77652729Y-78440348D01*
X77479807Y-78363357D01*
X77479802Y-78363355D01*
X77334001Y-78332365D01*
X77294646Y-78324000D01*
X77105354Y-78324000D01*
X77072897Y-78330898D01*
X76920197Y-78363355D01*
X76920192Y-78363357D01*
X76747270Y-78440348D01*
X76747265Y-78440351D01*
X76594129Y-78551611D01*
X76467466Y-78692285D01*
X76372821Y-78856215D01*
X76372818Y-78856222D01*
X76314338Y-79036206D01*
X76314326Y-79036244D01*
X76294540Y-79224500D01*
X76314326Y-79412756D01*
X76314327Y-79412759D01*
X76372818Y-79592777D01*
X76372821Y-79592784D01*
X76467467Y-79756716D01*
X76576402Y-79877700D01*
X76594129Y-79897388D01*
X76747265Y-80008648D01*
X76747270Y-80008651D01*
X76920191Y-80085642D01*
X76920193Y-80085642D01*
X76920197Y-80085644D01*
X76976282Y-80097564D01*
X77037761Y-80130755D01*
X77071539Y-80191918D01*
X77074500Y-80218854D01*
X77074500Y-80625592D01*
X77054815Y-80692631D01*
X77002011Y-80738386D01*
X76937536Y-80748912D01*
X76931496Y-80748277D01*
X76931492Y-80748277D01*
X76742200Y-80748277D01*
X76709743Y-80755175D01*
X76557043Y-80787632D01*
X76557038Y-80787634D01*
X76384116Y-80864625D01*
X76384111Y-80864628D01*
X76230975Y-80975888D01*
X76104312Y-81116562D01*
X76009667Y-81280492D01*
X76009665Y-81280496D01*
X75987308Y-81349304D01*
X75947869Y-81406979D01*
X75883511Y-81434177D01*
X75814664Y-81422262D01*
X75796496Y-81411306D01*
X75746730Y-81375149D01*
X75746729Y-81375148D01*
X75573807Y-81298157D01*
X75573802Y-81298155D01*
X75428001Y-81267165D01*
X75388646Y-81258800D01*
X75199354Y-81258800D01*
X75152232Y-81268816D01*
X75082565Y-81263498D01*
X75026832Y-81221360D01*
X75002728Y-81155780D01*
X75006349Y-81116688D01*
X75010500Y-81100524D01*
X75010500Y-81080488D01*
X75012027Y-81061087D01*
X75012503Y-81058082D01*
X75015160Y-81041309D01*
X75010775Y-80994920D01*
X75010500Y-80989082D01*
X75010500Y-75576032D01*
X75012219Y-75560459D01*
X75011934Y-75560433D01*
X75012133Y-75558321D01*
X75012579Y-75557201D01*
X75013488Y-75548974D01*
X75014375Y-75545007D01*
X75017192Y-75545636D01*
X75038019Y-75493424D01*
X75094883Y-75452824D01*
X75164669Y-75449412D01*
X75208469Y-75469633D01*
X75279732Y-75521409D01*
X75297270Y-75534151D01*
X75470192Y-75611142D01*
X75470197Y-75611144D01*
X75655354Y-75650500D01*
X75655355Y-75650500D01*
X75844644Y-75650500D01*
X75844646Y-75650500D01*
X76029803Y-75611144D01*
X76202730Y-75534151D01*
X76355871Y-75422888D01*
X76482533Y-75282216D01*
X76577179Y-75118284D01*
X76635674Y-74938256D01*
X76655460Y-74750000D01*
X76635880Y-74563709D01*
X76648449Y-74494983D01*
X76671516Y-74463073D01*
X76797773Y-74336817D01*
X76859095Y-74303334D01*
X76885453Y-74300500D01*
X78188566Y-74300500D01*
X78255605Y-74320185D01*
G37*
%TD.AperFunction*%
%TA.AperFunction,Conductor*%
G36*
X101524163Y-78579884D02*
G01*
X101569918Y-78632688D01*
X101579862Y-78701846D01*
X101550837Y-78765402D01*
X101530009Y-78784517D01*
X101468629Y-78829111D01*
X101341966Y-78969785D01*
X101247321Y-79133715D01*
X101247318Y-79133722D01*
X101189477Y-79311740D01*
X101188826Y-79313744D01*
X101169040Y-79502000D01*
X101188826Y-79690256D01*
X101188827Y-79690259D01*
X101247318Y-79870277D01*
X101247320Y-79870281D01*
X101247321Y-79870284D01*
X101271608Y-79912350D01*
X101288079Y-79980250D01*
X101265227Y-80046277D01*
X101214656Y-80087628D01*
X101096470Y-80140248D01*
X101096465Y-80140251D01*
X100943329Y-80251511D01*
X100816666Y-80392185D01*
X100722021Y-80556115D01*
X100722018Y-80556122D01*
X100663865Y-80735100D01*
X100663526Y-80736144D01*
X100647086Y-80892565D01*
X100645879Y-80904049D01*
X100619294Y-80968663D01*
X100610240Y-80978768D01*
X100521428Y-81067581D01*
X100460105Y-81101066D01*
X100433746Y-81103900D01*
X99697567Y-81103900D01*
X99630528Y-81084215D01*
X99584773Y-81031411D01*
X99574829Y-80962253D01*
X99579636Y-80941583D01*
X99587342Y-80917864D01*
X99590074Y-80909456D01*
X99609860Y-80721200D01*
X99590074Y-80532944D01*
X99531579Y-80352916D01*
X99436933Y-80188984D01*
X99310271Y-80048312D01*
X99307470Y-80046277D01*
X99157134Y-79937051D01*
X99157129Y-79937048D01*
X98984207Y-79860057D01*
X98984202Y-79860055D01*
X98837944Y-79828968D01*
X98799046Y-79820700D01*
X98609754Y-79820700D01*
X98585158Y-79825928D01*
X98424597Y-79860055D01*
X98424592Y-79860057D01*
X98251670Y-79937048D01*
X98251665Y-79937051D01*
X98098529Y-80048311D01*
X97971866Y-80188985D01*
X97877221Y-80352915D01*
X97877218Y-80352922D01*
X97818727Y-80532939D01*
X97818725Y-80532950D01*
X97817683Y-80542864D01*
X97791098Y-80607478D01*
X97733800Y-80647462D01*
X97694363Y-80653900D01*
X97627053Y-80653900D01*
X97560014Y-80634215D01*
X97514259Y-80581411D01*
X97504315Y-80512253D01*
X97519666Y-80467900D01*
X97558579Y-80400500D01*
X97577179Y-80368284D01*
X97635674Y-80188256D01*
X97655460Y-80000000D01*
X97635674Y-79811744D01*
X97577179Y-79631716D01*
X97522205Y-79536499D01*
X97505733Y-79468600D01*
X97528586Y-79402573D01*
X97583507Y-79359382D01*
X97629593Y-79350500D01*
X98442257Y-79350500D01*
X98457877Y-79352224D01*
X98457904Y-79351939D01*
X98465660Y-79352671D01*
X98465667Y-79352673D01*
X98534814Y-79350500D01*
X98564350Y-79350500D01*
X98571228Y-79349630D01*
X98577041Y-79349172D01*
X98623627Y-79347709D01*
X98642869Y-79342117D01*
X98661912Y-79338174D01*
X98681792Y-79335664D01*
X98725122Y-79318507D01*
X98730646Y-79316617D01*
X98735833Y-79315110D01*
X98775390Y-79303618D01*
X98792629Y-79293422D01*
X98810103Y-79284862D01*
X98828727Y-79277488D01*
X98828727Y-79277487D01*
X98828732Y-79277486D01*
X98866449Y-79250082D01*
X98871305Y-79246892D01*
X98911420Y-79223170D01*
X98925589Y-79208999D01*
X98940379Y-79196368D01*
X98956587Y-79184594D01*
X98986299Y-79148676D01*
X98990212Y-79144376D01*
X99538072Y-78596518D01*
X99599396Y-78563033D01*
X99625754Y-78560199D01*
X101457124Y-78560199D01*
X101524163Y-78579884D01*
G37*
%TD.AperFunction*%
%TA.AperFunction,Conductor*%
G36*
X81610330Y-80594685D02*
G01*
X81628174Y-80608608D01*
X81629716Y-80610056D01*
X81629718Y-80610057D01*
X81629723Y-80610062D01*
X81647281Y-80619714D01*
X81663542Y-80630396D01*
X81679369Y-80642673D01*
X81679372Y-80642675D01*
X81707307Y-80654763D01*
X81761016Y-80699452D01*
X81782038Y-80766084D01*
X81763699Y-80833504D01*
X81711821Y-80880306D01*
X81658063Y-80892565D01*
X80742647Y-80892565D01*
X80675608Y-80872880D01*
X80629853Y-80820076D01*
X80619909Y-80750918D01*
X80630264Y-80716161D01*
X80635265Y-80705437D01*
X80662704Y-80646593D01*
X80708874Y-80594157D01*
X80775085Y-80575000D01*
X81543291Y-80575000D01*
X81610330Y-80594685D01*
G37*
%TD.AperFunction*%
%TA.AperFunction,Conductor*%
G36*
X119642539Y-58220185D02*
G01*
X119688294Y-58272989D01*
X119699500Y-58324500D01*
X119699500Y-80675500D01*
X119679815Y-80742539D01*
X119627011Y-80788294D01*
X119575500Y-80799500D01*
X117667007Y-80799500D01*
X117599968Y-80779815D01*
X117554213Y-80727011D01*
X117544269Y-80657853D01*
X117573294Y-80594297D01*
X117579326Y-80587819D01*
X117699361Y-80467784D01*
X118685192Y-79481951D01*
X118688859Y-79478571D01*
X118731100Y-79442693D01*
X118780097Y-79378237D01*
X118830841Y-79315110D01*
X118830842Y-79315107D01*
X118831480Y-79314109D01*
X118842406Y-79296494D01*
X118843043Y-79295433D01*
X118843054Y-79295420D01*
X118877066Y-79221903D01*
X118913036Y-79149377D01*
X118913039Y-79149364D01*
X118913452Y-79148242D01*
X118920389Y-79128539D01*
X118920727Y-79127533D01*
X118920732Y-79127523D01*
X118938141Y-79048429D01*
X118957684Y-78969851D01*
X118957683Y-78969851D01*
X118957685Y-78969847D01*
X118957830Y-78968782D01*
X118960371Y-78948033D01*
X118960500Y-78946853D01*
X118960500Y-78865887D01*
X118962693Y-78784920D01*
X118962608Y-78783876D01*
X118960500Y-78761708D01*
X118960500Y-61047898D01*
X118960705Y-61042863D01*
X118965201Y-60987647D01*
X118959627Y-60946739D01*
X118954270Y-60907418D01*
X118945514Y-60826901D01*
X118945513Y-60826899D01*
X118945513Y-60826895D01*
X118945280Y-60825837D01*
X118940497Y-60805432D01*
X118940227Y-60804343D01*
X118912299Y-60728324D01*
X118902042Y-60697883D01*
X118886444Y-60651590D01*
X118886441Y-60651586D01*
X118886441Y-60651584D01*
X118886006Y-60650642D01*
X118876895Y-60631629D01*
X118876433Y-60630698D01*
X118876432Y-60630695D01*
X118832815Y-60562457D01*
X118791070Y-60493075D01*
X118791069Y-60493074D01*
X118791068Y-60493072D01*
X118790457Y-60492269D01*
X118777493Y-60475685D01*
X118776804Y-60474829D01*
X118776800Y-60474822D01*
X118719539Y-60417561D01*
X118663849Y-60358770D01*
X118663088Y-60358123D01*
X118645881Y-60343903D01*
X117982503Y-59680525D01*
X117315196Y-59013218D01*
X117311793Y-59009526D01*
X117275925Y-58967299D01*
X117211480Y-58918309D01*
X117148348Y-58867562D01*
X117148347Y-58867561D01*
X117148343Y-58867558D01*
X117148337Y-58867555D01*
X117147443Y-58866983D01*
X117129608Y-58855920D01*
X117128653Y-58855346D01*
X117055149Y-58821339D01*
X116982616Y-58785366D01*
X116981570Y-58784982D01*
X116961749Y-58778002D01*
X116960753Y-58777666D01*
X116881662Y-58760258D01*
X116803083Y-58740715D01*
X116802173Y-58740591D01*
X116781095Y-58738010D01*
X116780090Y-58737901D01*
X116780086Y-58737900D01*
X116780081Y-58737900D01*
X116699120Y-58737900D01*
X116618153Y-58735706D01*
X116617109Y-58735791D01*
X116594941Y-58737900D01*
X101851251Y-58737900D01*
X101784212Y-58718215D01*
X101763570Y-58701581D01*
X101474170Y-58412181D01*
X101440685Y-58350858D01*
X101445669Y-58281166D01*
X101487541Y-58225233D01*
X101553005Y-58200816D01*
X101561851Y-58200500D01*
X108943827Y-58200500D01*
X119575500Y-58200500D01*
X119642539Y-58220185D01*
G37*
%TD.AperFunction*%
%TA.AperFunction,Conductor*%
G36*
X80797261Y-78153198D02*
G01*
X80842595Y-78206364D01*
X80852716Y-78244016D01*
X80863826Y-78349715D01*
X80863827Y-78349718D01*
X80922318Y-78529736D01*
X80922321Y-78529743D01*
X81016967Y-78693675D01*
X81138915Y-78829112D01*
X81143629Y-78834347D01*
X81296765Y-78945607D01*
X81296770Y-78945610D01*
X81469692Y-79022601D01*
X81469697Y-79022603D01*
X81654854Y-79061959D01*
X81654855Y-79061959D01*
X81844144Y-79061959D01*
X81844146Y-79061959D01*
X82029303Y-79022603D01*
X82202230Y-78945610D01*
X82355371Y-78834347D01*
X82360085Y-78829112D01*
X82361100Y-78827985D01*
X82420587Y-78791338D01*
X82453248Y-78786959D01*
X82786200Y-78786959D01*
X82853239Y-78806644D01*
X82873881Y-78823278D01*
X83198889Y-79148286D01*
X83208714Y-79160550D01*
X83208935Y-79160368D01*
X83213905Y-79166375D01*
X83213908Y-79166378D01*
X83213909Y-79166379D01*
X83264346Y-79213743D01*
X83285225Y-79234622D01*
X83290699Y-79238868D01*
X83295127Y-79242649D01*
X83313713Y-79260103D01*
X83313720Y-79260109D01*
X83349114Y-79320350D01*
X83346320Y-79390164D01*
X83306226Y-79447385D01*
X83241561Y-79473845D01*
X83228835Y-79474500D01*
X82306820Y-79474500D01*
X82239781Y-79454815D01*
X82221937Y-79440892D01*
X82220394Y-79439443D01*
X82220388Y-79439439D01*
X82220387Y-79439438D01*
X82219710Y-79439066D01*
X82202834Y-79429788D01*
X82186568Y-79419104D01*
X82178388Y-79412759D01*
X82170741Y-79406827D01*
X82170740Y-79406826D01*
X82170738Y-79406825D01*
X82127973Y-79388318D01*
X82122727Y-79385748D01*
X82081898Y-79363303D01*
X82081897Y-79363302D01*
X82062498Y-79358322D01*
X82044086Y-79352018D01*
X82025703Y-79344062D01*
X82025697Y-79344060D01*
X81979679Y-79336772D01*
X81973957Y-79335587D01*
X81928826Y-79324000D01*
X81928824Y-79324000D01*
X81908789Y-79324000D01*
X81889391Y-79322473D01*
X81879781Y-79320951D01*
X81869610Y-79319340D01*
X81869609Y-79319340D01*
X81823221Y-79323725D01*
X81817383Y-79324000D01*
X80494548Y-79324000D01*
X80427509Y-79304315D01*
X80406871Y-79287685D01*
X80289139Y-79169953D01*
X80289138Y-79169952D01*
X80289137Y-79169951D01*
X80102734Y-79039432D01*
X80102728Y-79039429D01*
X80044725Y-79012382D01*
X79992285Y-78966210D01*
X79973133Y-78899017D01*
X79993348Y-78832135D01*
X80044725Y-78787618D01*
X80102734Y-78760568D01*
X80289139Y-78630047D01*
X80450047Y-78469139D01*
X80580568Y-78282734D01*
X80617014Y-78204574D01*
X80663186Y-78152135D01*
X80730379Y-78132983D01*
X80797261Y-78153198D01*
G37*
%TD.AperFunction*%
%TA.AperFunction,Conductor*%
G36*
X106837071Y-78456985D02*
G01*
X106882826Y-78509789D01*
X106893352Y-78548335D01*
X106911926Y-78725056D01*
X106911927Y-78725059D01*
X106970418Y-78905077D01*
X106970421Y-78905084D01*
X107065067Y-79069016D01*
X107147321Y-79160368D01*
X107153768Y-79167528D01*
X107183998Y-79230519D01*
X107175373Y-79299854D01*
X107130632Y-79353520D01*
X107063979Y-79374478D01*
X107061618Y-79374500D01*
X105573619Y-79374500D01*
X105506580Y-79354815D01*
X105460825Y-79302011D01*
X105450881Y-79232853D01*
X105479906Y-79169297D01*
X105500733Y-79150182D01*
X105558671Y-79108088D01*
X105685333Y-78967416D01*
X105779979Y-78803484D01*
X105838474Y-78623456D01*
X105846369Y-78548336D01*
X105872952Y-78483724D01*
X105930249Y-78443739D01*
X105969689Y-78437300D01*
X106770032Y-78437300D01*
X106837071Y-78456985D01*
G37*
%TD.AperFunction*%
%TA.AperFunction,Conductor*%
G36*
X103327342Y-77812571D02*
G01*
X103443504Y-77866739D01*
X103443509Y-77866740D01*
X103443511Y-77866741D01*
X103477992Y-77875980D01*
X103663308Y-77925635D01*
X103825230Y-77939801D01*
X103889998Y-77945468D01*
X103890000Y-77945468D01*
X103890001Y-77945468D01*
X103904119Y-77944232D01*
X103986499Y-77937025D01*
X104054998Y-77950791D01*
X104105181Y-77999406D01*
X104121115Y-78067435D01*
X104115237Y-78098871D01*
X104068077Y-78244017D01*
X104067126Y-78246944D01*
X104047340Y-78435200D01*
X104067126Y-78623456D01*
X104067127Y-78623459D01*
X104125618Y-78803477D01*
X104125620Y-78803481D01*
X104125621Y-78803484D01*
X104151849Y-78848912D01*
X104182660Y-78902279D01*
X104199132Y-78970179D01*
X104176279Y-79036206D01*
X104121357Y-79079396D01*
X104051804Y-79086037D01*
X103990349Y-79054632D01*
X103989709Y-79054031D01*
X103988349Y-79052753D01*
X103967481Y-79031884D01*
X103961991Y-79027625D01*
X103957566Y-79023847D01*
X103923587Y-78991938D01*
X103923585Y-78991936D01*
X103923582Y-78991935D01*
X103906034Y-78982288D01*
X103889768Y-78971604D01*
X103884948Y-78967865D01*
X103873941Y-78959327D01*
X103873940Y-78959326D01*
X103873938Y-78959325D01*
X103831173Y-78940818D01*
X103825927Y-78938248D01*
X103785098Y-78915803D01*
X103785097Y-78915802D01*
X103765698Y-78910822D01*
X103747286Y-78904518D01*
X103728903Y-78896562D01*
X103728897Y-78896560D01*
X103682879Y-78889272D01*
X103677157Y-78888087D01*
X103632026Y-78876500D01*
X103632024Y-78876500D01*
X103611989Y-78876500D01*
X103592591Y-78874973D01*
X103585167Y-78873797D01*
X103572810Y-78871840D01*
X103572809Y-78871840D01*
X103526421Y-78876225D01*
X103520583Y-78876500D01*
X102785896Y-78876500D01*
X102718857Y-78856815D01*
X102673102Y-78804011D01*
X102663158Y-78734853D01*
X102692183Y-78671297D01*
X102713011Y-78652182D01*
X102812520Y-78579884D01*
X102855871Y-78548388D01*
X102982533Y-78407716D01*
X103077179Y-78243784D01*
X103135674Y-78063756D01*
X103151624Y-77911990D01*
X103178207Y-77847380D01*
X103235504Y-77807395D01*
X103305323Y-77804735D01*
X103327342Y-77812571D01*
G37*
%TD.AperFunction*%
%TA.AperFunction,Conductor*%
G36*
X69167877Y-74362224D02*
G01*
X69167904Y-74361939D01*
X69175660Y-74362671D01*
X69175667Y-74362673D01*
X69244814Y-74360500D01*
X69274350Y-74360500D01*
X69275863Y-74360500D01*
X69342902Y-74380185D01*
X69388657Y-74432989D01*
X69398601Y-74502147D01*
X69395638Y-74516593D01*
X69364366Y-74633302D01*
X69364364Y-74633313D01*
X69344532Y-74859998D01*
X69344532Y-74860001D01*
X69364364Y-75086686D01*
X69364366Y-75086697D01*
X69423258Y-75306488D01*
X69423261Y-75306497D01*
X69519431Y-75512732D01*
X69519432Y-75512734D01*
X69649954Y-75699141D01*
X69810858Y-75860045D01*
X69835462Y-75877273D01*
X69879087Y-75931849D01*
X69886281Y-76001348D01*
X69854758Y-76063703D01*
X69794529Y-76099117D01*
X69777593Y-76102138D01*
X69742516Y-76105908D01*
X69607671Y-76156202D01*
X69607664Y-76156206D01*
X69492455Y-76242452D01*
X69492452Y-76242455D01*
X69406206Y-76357664D01*
X69406202Y-76357671D01*
X69355908Y-76492517D01*
X69349501Y-76552116D01*
X69349500Y-76552135D01*
X69349500Y-77764546D01*
X69329815Y-77831585D01*
X69313181Y-77852227D01*
X68209828Y-78955581D01*
X68148505Y-78989066D01*
X68122147Y-78991900D01*
X66965968Y-78991900D01*
X66898929Y-78972215D01*
X66853174Y-78919411D01*
X66842647Y-78880862D01*
X66841073Y-78865887D01*
X66824074Y-78704144D01*
X66765579Y-78524116D01*
X66670933Y-78360184D01*
X66544271Y-78219512D01*
X66544270Y-78219511D01*
X66391134Y-78108251D01*
X66391129Y-78108248D01*
X66218207Y-78031257D01*
X66218202Y-78031255D01*
X66068359Y-77999406D01*
X66033046Y-77991900D01*
X65843754Y-77991900D01*
X65811297Y-77998798D01*
X65658597Y-78031255D01*
X65658592Y-78031257D01*
X65485670Y-78108248D01*
X65485665Y-78108251D01*
X65332530Y-78219510D01*
X65332526Y-78219514D01*
X65326800Y-78225874D01*
X65267313Y-78262521D01*
X65234652Y-78266900D01*
X64248809Y-78266900D01*
X64181770Y-78247215D01*
X64136015Y-78194411D01*
X64126071Y-78125253D01*
X64147233Y-78071778D01*
X64150368Y-78067301D01*
X64160568Y-78052734D01*
X64256739Y-77846496D01*
X64315635Y-77626692D01*
X64335468Y-77400000D01*
X64335386Y-77399068D01*
X64327327Y-77306948D01*
X64315635Y-77173308D01*
X64261933Y-76972888D01*
X64256741Y-76953511D01*
X64256738Y-76953502D01*
X64236779Y-76910700D01*
X64160568Y-76747266D01*
X64030047Y-76560861D01*
X64030045Y-76560858D01*
X63869141Y-76399954D01*
X63682734Y-76269432D01*
X63682728Y-76269429D01*
X63624882Y-76242455D01*
X63624724Y-76242381D01*
X63572285Y-76196210D01*
X63553133Y-76129017D01*
X63573348Y-76062135D01*
X63624725Y-76017618D01*
X63682734Y-75990568D01*
X63869139Y-75860047D01*
X64030047Y-75699139D01*
X64160568Y-75512734D01*
X64256739Y-75306496D01*
X64315635Y-75086692D01*
X64335468Y-74860000D01*
X64315635Y-74633308D01*
X64298180Y-74568163D01*
X64284362Y-74516593D01*
X64286025Y-74446743D01*
X64325188Y-74388881D01*
X64389417Y-74361377D01*
X64404137Y-74360500D01*
X69152257Y-74360500D01*
X69167877Y-74362224D01*
G37*
%TD.AperFunction*%
%TA.AperFunction,Conductor*%
G36*
X37428514Y-58220185D02*
G01*
X37474269Y-58272989D01*
X37484213Y-58342147D01*
X37455188Y-58405703D01*
X37396410Y-58443477D01*
X37372392Y-58447703D01*
X37372406Y-58447813D01*
X37370160Y-58448096D01*
X37369260Y-58448255D01*
X37368552Y-58448299D01*
X37361666Y-58449169D01*
X37355849Y-58449626D01*
X37309273Y-58451090D01*
X37290029Y-58456681D01*
X37270979Y-58460625D01*
X37251111Y-58463134D01*
X37207784Y-58480288D01*
X37202258Y-58482179D01*
X37157514Y-58495179D01*
X37157510Y-58495181D01*
X37140266Y-58505379D01*
X37122805Y-58513933D01*
X37104174Y-58521310D01*
X37104162Y-58521317D01*
X37066470Y-58548702D01*
X37061587Y-58551909D01*
X37014767Y-58579600D01*
X37013450Y-58577374D01*
X36960122Y-58598314D01*
X36949155Y-58598800D01*
X36887754Y-58598800D01*
X36855297Y-58605698D01*
X36702597Y-58638155D01*
X36702592Y-58638157D01*
X36529670Y-58715148D01*
X36529665Y-58715151D01*
X36376529Y-58826411D01*
X36249866Y-58967085D01*
X36155221Y-59131015D01*
X36155218Y-59131022D01*
X36102797Y-59292359D01*
X36096726Y-59311044D01*
X36076940Y-59499300D01*
X36096726Y-59687556D01*
X36096727Y-59687559D01*
X36155218Y-59867577D01*
X36155220Y-59867581D01*
X36155221Y-59867584D01*
X36172792Y-59898018D01*
X36175768Y-59903172D01*
X36192239Y-59971072D01*
X36169387Y-60037099D01*
X36114465Y-60080289D01*
X36044912Y-60086930D01*
X36036287Y-60084946D01*
X35951218Y-60062152D01*
X35951208Y-60062150D01*
X35740001Y-60043672D01*
X35739999Y-60043672D01*
X35528791Y-60062150D01*
X35528781Y-60062152D01*
X35323998Y-60117023D01*
X35323989Y-60117027D01*
X35131835Y-60206629D01*
X35131831Y-60206631D01*
X34958163Y-60328235D01*
X34958157Y-60328240D01*
X34808240Y-60478157D01*
X34808235Y-60478163D01*
X34686631Y-60651831D01*
X34686629Y-60651835D01*
X34597027Y-60843989D01*
X34597023Y-60843998D01*
X34542152Y-61048781D01*
X34542150Y-61048791D01*
X34523672Y-61259999D01*
X34523672Y-61260000D01*
X34542150Y-61471208D01*
X34542152Y-61471218D01*
X34597023Y-61676001D01*
X34597025Y-61676005D01*
X34597026Y-61676009D01*
X34655917Y-61802301D01*
X34686629Y-61868164D01*
X34686631Y-61868168D01*
X34808235Y-62041836D01*
X34808240Y-62041842D01*
X34958157Y-62191759D01*
X34958163Y-62191764D01*
X35131831Y-62313368D01*
X35131833Y-62313369D01*
X35131836Y-62313371D01*
X35323991Y-62402974D01*
X35338717Y-62406919D01*
X35351051Y-62410225D01*
X35410711Y-62446591D01*
X35441240Y-62509438D01*
X35432945Y-62578813D01*
X35388459Y-62632691D01*
X35351051Y-62649775D01*
X35323996Y-62657024D01*
X35323989Y-62657027D01*
X35131835Y-62746629D01*
X35131831Y-62746631D01*
X34958163Y-62868235D01*
X34958157Y-62868240D01*
X34808240Y-63018157D01*
X34808235Y-63018163D01*
X34686631Y-63191831D01*
X34686629Y-63191835D01*
X34620066Y-63334582D01*
X34599601Y-63378470D01*
X34597027Y-63383989D01*
X34597024Y-63383996D01*
X34589775Y-63411051D01*
X34553409Y-63470711D01*
X34490562Y-63501240D01*
X34421187Y-63492945D01*
X34367309Y-63448459D01*
X34350225Y-63411051D01*
X34342975Y-63383996D01*
X34342974Y-63383991D01*
X34253371Y-63191836D01*
X34253369Y-63191833D01*
X34253368Y-63191831D01*
X34131764Y-63018163D01*
X34131759Y-63018157D01*
X33981842Y-62868240D01*
X33981836Y-62868235D01*
X33808168Y-62746631D01*
X33808164Y-62746629D01*
X33787377Y-62736936D01*
X33616009Y-62657026D01*
X33616005Y-62657025D01*
X33616001Y-62657023D01*
X33411218Y-62602152D01*
X33411208Y-62602150D01*
X33200001Y-62583672D01*
X33199999Y-62583672D01*
X32988791Y-62602150D01*
X32988781Y-62602152D01*
X32783998Y-62657023D01*
X32783989Y-62657027D01*
X32591835Y-62746629D01*
X32591831Y-62746631D01*
X32418163Y-62868235D01*
X32418157Y-62868240D01*
X32268240Y-63018157D01*
X32268235Y-63018163D01*
X32146631Y-63191831D01*
X32146629Y-63191835D01*
X32080066Y-63334582D01*
X32059601Y-63378470D01*
X32057027Y-63383989D01*
X32057023Y-63383998D01*
X32002152Y-63588781D01*
X32002150Y-63588791D01*
X31983672Y-63799999D01*
X31983672Y-63800000D01*
X32002150Y-64011208D01*
X32002152Y-64011218D01*
X32057023Y-64216001D01*
X32057025Y-64216005D01*
X32057026Y-64216009D01*
X32122814Y-64357093D01*
X32146629Y-64408164D01*
X32146631Y-64408168D01*
X32268235Y-64581836D01*
X32268240Y-64581842D01*
X32418157Y-64731759D01*
X32418163Y-64731764D01*
X32591831Y-64853368D01*
X32591833Y-64853369D01*
X32591836Y-64853371D01*
X32783991Y-64942974D01*
X32797576Y-64946614D01*
X32811051Y-64950225D01*
X32870711Y-64986591D01*
X32901240Y-65049438D01*
X32892945Y-65118813D01*
X32848459Y-65172691D01*
X32811051Y-65189775D01*
X32783996Y-65197024D01*
X32783991Y-65197025D01*
X32783991Y-65197026D01*
X32759726Y-65208340D01*
X32591835Y-65286629D01*
X32591831Y-65286631D01*
X32418163Y-65408235D01*
X32418157Y-65408240D01*
X32268240Y-65558157D01*
X32268235Y-65558163D01*
X32146631Y-65731831D01*
X32146629Y-65731835D01*
X32085364Y-65863219D01*
X32057276Y-65923456D01*
X32057027Y-65923989D01*
X32057023Y-65923998D01*
X32002152Y-66128781D01*
X32002150Y-66128791D01*
X31983672Y-66339999D01*
X31983672Y-66340000D01*
X32002150Y-66551208D01*
X32002152Y-66551218D01*
X32057023Y-66756001D01*
X32057025Y-66756005D01*
X32057026Y-66756009D01*
X32096136Y-66839880D01*
X32146629Y-66948164D01*
X32146631Y-66948168D01*
X32268235Y-67121836D01*
X32268240Y-67121842D01*
X32418157Y-67271759D01*
X32418163Y-67271764D01*
X32591831Y-67393368D01*
X32591833Y-67393369D01*
X32591836Y-67393371D01*
X32783991Y-67482974D01*
X32798717Y-67486919D01*
X32811051Y-67490225D01*
X32870711Y-67526591D01*
X32901240Y-67589438D01*
X32892945Y-67658813D01*
X32848459Y-67712691D01*
X32811051Y-67729775D01*
X32783996Y-67737024D01*
X32783989Y-67737027D01*
X32591835Y-67826629D01*
X32591831Y-67826631D01*
X32418163Y-67948235D01*
X32418157Y-67948240D01*
X32268240Y-68098157D01*
X32268235Y-68098163D01*
X32146631Y-68271831D01*
X32146629Y-68271835D01*
X32057027Y-68463989D01*
X32057023Y-68463998D01*
X32002152Y-68668781D01*
X32002150Y-68668791D01*
X31983672Y-68879999D01*
X31983672Y-68880000D01*
X32002150Y-69091208D01*
X32002152Y-69091218D01*
X32057023Y-69296001D01*
X32057025Y-69296005D01*
X32057026Y-69296009D01*
X32136176Y-69465748D01*
X32146629Y-69488164D01*
X32146631Y-69488168D01*
X32268235Y-69661836D01*
X32268240Y-69661842D01*
X32418157Y-69811759D01*
X32418163Y-69811764D01*
X32591831Y-69933368D01*
X32591833Y-69933369D01*
X32591836Y-69933371D01*
X32783991Y-70022974D01*
X32798717Y-70026919D01*
X32811051Y-70030225D01*
X32870711Y-70066591D01*
X32901240Y-70129438D01*
X32892945Y-70198813D01*
X32848459Y-70252691D01*
X32811051Y-70269775D01*
X32783996Y-70277024D01*
X32783989Y-70277027D01*
X32591835Y-70366629D01*
X32591831Y-70366631D01*
X32418163Y-70488235D01*
X32418157Y-70488240D01*
X32268240Y-70638157D01*
X32268235Y-70638163D01*
X32146631Y-70811831D01*
X32146629Y-70811835D01*
X32057027Y-71003989D01*
X32057023Y-71003998D01*
X32002152Y-71208781D01*
X32002150Y-71208791D01*
X31983672Y-71419999D01*
X31983672Y-71420000D01*
X32002150Y-71631208D01*
X32002152Y-71631218D01*
X32057023Y-71836001D01*
X32057025Y-71836005D01*
X32057026Y-71836009D01*
X32128705Y-71989726D01*
X32146629Y-72028164D01*
X32146631Y-72028168D01*
X32268235Y-72201836D01*
X32268240Y-72201842D01*
X32418157Y-72351759D01*
X32418163Y-72351764D01*
X32591831Y-72473368D01*
X32591833Y-72473369D01*
X32591836Y-72473371D01*
X32783991Y-72562974D01*
X32811050Y-72570224D01*
X32870709Y-72606587D01*
X32901240Y-72669433D01*
X32892946Y-72738809D01*
X32848462Y-72792688D01*
X32811055Y-72809773D01*
X32783997Y-72817024D01*
X32783993Y-72817025D01*
X32783991Y-72817026D01*
X32773277Y-72822022D01*
X32591835Y-72906629D01*
X32591831Y-72906631D01*
X32418163Y-73028235D01*
X32418157Y-73028240D01*
X32268240Y-73178157D01*
X32268235Y-73178163D01*
X32146631Y-73351831D01*
X32146629Y-73351835D01*
X32057027Y-73543989D01*
X32057023Y-73543998D01*
X32002152Y-73748781D01*
X32002150Y-73748791D01*
X31983672Y-73959999D01*
X31983672Y-73960000D01*
X32002150Y-74171208D01*
X32002152Y-74171218D01*
X32057023Y-74376001D01*
X32057025Y-74376005D01*
X32057026Y-74376009D01*
X32109659Y-74488881D01*
X32146629Y-74568164D01*
X32146631Y-74568168D01*
X32268235Y-74741836D01*
X32268240Y-74741842D01*
X32418157Y-74891759D01*
X32418163Y-74891764D01*
X32591831Y-75013368D01*
X32591833Y-75013369D01*
X32591836Y-75013371D01*
X32783991Y-75102974D01*
X32988787Y-75157849D01*
X33157757Y-75172632D01*
X33199999Y-75176328D01*
X33200000Y-75176328D01*
X33200001Y-75176328D01*
X33235202Y-75173248D01*
X33411213Y-75157849D01*
X33616009Y-75102974D01*
X33808164Y-75013371D01*
X33981841Y-74891761D01*
X34131761Y-74741841D01*
X34253371Y-74568164D01*
X34342974Y-74376009D01*
X34347461Y-74359264D01*
X34350225Y-74348949D01*
X34386590Y-74289288D01*
X34449437Y-74258759D01*
X34518812Y-74267054D01*
X34572690Y-74311539D01*
X34589775Y-74348949D01*
X34597023Y-74376001D01*
X34597025Y-74376005D01*
X34597026Y-74376009D01*
X34649659Y-74488881D01*
X34686629Y-74568164D01*
X34686631Y-74568168D01*
X34808235Y-74741836D01*
X34808240Y-74741842D01*
X34958157Y-74891759D01*
X34958163Y-74891764D01*
X35131831Y-75013368D01*
X35131833Y-75013369D01*
X35131836Y-75013371D01*
X35323991Y-75102974D01*
X35338546Y-75106874D01*
X35351051Y-75110225D01*
X35410711Y-75146591D01*
X35441240Y-75209438D01*
X35432945Y-75278813D01*
X35388459Y-75332691D01*
X35351051Y-75349775D01*
X35323996Y-75357024D01*
X35323989Y-75357027D01*
X35131835Y-75446629D01*
X35131831Y-75446631D01*
X34958163Y-75568235D01*
X34958157Y-75568240D01*
X34808240Y-75718157D01*
X34808235Y-75718163D01*
X34686631Y-75891831D01*
X34686629Y-75891835D01*
X34597027Y-76083989D01*
X34597023Y-76083998D01*
X34542152Y-76288781D01*
X34542150Y-76288791D01*
X34523672Y-76499999D01*
X34523672Y-76500002D01*
X34527661Y-76545599D01*
X34513894Y-76614099D01*
X34465279Y-76664282D01*
X34454569Y-76669685D01*
X34345270Y-76718348D01*
X34345265Y-76718351D01*
X34192129Y-76829611D01*
X34065466Y-76970285D01*
X33970821Y-77134215D01*
X33970819Y-77134219D01*
X33927670Y-77267019D01*
X33888232Y-77324694D01*
X33823873Y-77351892D01*
X33783958Y-77349990D01*
X33673446Y-77326500D01*
X33484154Y-77326500D01*
X33451697Y-77333398D01*
X33298997Y-77365855D01*
X33298992Y-77365857D01*
X33126070Y-77442848D01*
X33126065Y-77442851D01*
X32972929Y-77554111D01*
X32846267Y-77694783D01*
X32787293Y-77796929D01*
X32736725Y-77845144D01*
X32668118Y-77858366D01*
X32654126Y-77856218D01*
X32475496Y-77818250D01*
X32286204Y-77818250D01*
X32261669Y-77823465D01*
X32101047Y-77857605D01*
X32101042Y-77857607D01*
X31928120Y-77934598D01*
X31928115Y-77934601D01*
X31774982Y-78045859D01*
X31774979Y-78045861D01*
X31774979Y-78045862D01*
X31758867Y-78063756D01*
X31716694Y-78110593D01*
X31657207Y-78147240D01*
X31587350Y-78145909D01*
X31574109Y-78140898D01*
X31497207Y-78106658D01*
X31497201Y-78106656D01*
X31351399Y-78075666D01*
X31312045Y-78067301D01*
X31122753Y-78067301D01*
X31090296Y-78074199D01*
X30937596Y-78106656D01*
X30937591Y-78106658D01*
X30764669Y-78183649D01*
X30764664Y-78183652D01*
X30611528Y-78294912D01*
X30611527Y-78294913D01*
X30526148Y-78389735D01*
X30466661Y-78426383D01*
X30396804Y-78425052D01*
X30338756Y-78386165D01*
X30310947Y-78322068D01*
X30310000Y-78306778D01*
X30310000Y-58324500D01*
X30329685Y-58257461D01*
X30382489Y-58211706D01*
X30434000Y-58200500D01*
X37361475Y-58200500D01*
X37428514Y-58220185D01*
G37*
%TD.AperFunction*%
%TA.AperFunction,Conductor*%
G36*
X113141530Y-77586563D02*
G01*
X113185877Y-77615063D01*
X113200056Y-77629242D01*
X113210862Y-77640048D01*
X113286491Y-77693003D01*
X113397266Y-77770568D01*
X113425468Y-77783718D01*
X113477906Y-77829890D01*
X113497058Y-77897084D01*
X113476842Y-77963965D01*
X113423677Y-78009299D01*
X113373062Y-78020100D01*
X112904843Y-78020100D01*
X112837804Y-78000415D01*
X112792049Y-77947611D01*
X112782105Y-77878453D01*
X112811130Y-77814897D01*
X112817162Y-77808419D01*
X112913379Y-77712202D01*
X113010518Y-77615062D01*
X113071839Y-77581579D01*
X113141530Y-77586563D01*
G37*
%TD.AperFunction*%
%TA.AperFunction,Conductor*%
G36*
X115387862Y-61943348D02*
G01*
X115432380Y-61994722D01*
X115459432Y-62052734D01*
X115509638Y-62124436D01*
X115589954Y-62239141D01*
X115750858Y-62400045D01*
X115750861Y-62400047D01*
X115937266Y-62530568D01*
X116143504Y-62626739D01*
X116363308Y-62685635D01*
X116525230Y-62699801D01*
X116589998Y-62705468D01*
X116590000Y-62705468D01*
X116590002Y-62705468D01*
X116648087Y-62700386D01*
X116816692Y-62685635D01*
X117036496Y-62626739D01*
X117083096Y-62605008D01*
X117152172Y-62594517D01*
X117215956Y-62623036D01*
X117254196Y-62681513D01*
X117259500Y-62717391D01*
X117259500Y-75323160D01*
X117239815Y-75390199D01*
X117187011Y-75435954D01*
X117117853Y-75445898D01*
X117083096Y-75435542D01*
X117036330Y-75413735D01*
X116839999Y-75361127D01*
X116839999Y-76324313D01*
X116828045Y-76312359D01*
X116715148Y-76254835D01*
X116621481Y-76240000D01*
X116558519Y-76240000D01*
X116464852Y-76254835D01*
X116351955Y-76312359D01*
X116340000Y-76324314D01*
X116340000Y-75361127D01*
X116143671Y-75413734D01*
X115937517Y-75509865D01*
X115751179Y-75640342D01*
X115590342Y-75801179D01*
X115459867Y-75987515D01*
X115432657Y-76045867D01*
X115386484Y-76098306D01*
X115319290Y-76117457D01*
X115252409Y-76097241D01*
X115207893Y-76045865D01*
X115187134Y-76001348D01*
X115180568Y-75987266D01*
X115050047Y-75800861D01*
X115050045Y-75800858D01*
X114889141Y-75639954D01*
X114702734Y-75509432D01*
X114702732Y-75509431D01*
X114496497Y-75413261D01*
X114496488Y-75413258D01*
X114276697Y-75354366D01*
X114276693Y-75354365D01*
X114276692Y-75354365D01*
X114276691Y-75354364D01*
X114276686Y-75354364D01*
X114050002Y-75334532D01*
X114049998Y-75334532D01*
X113823313Y-75354364D01*
X113823302Y-75354366D01*
X113603511Y-75413258D01*
X113603502Y-75413262D01*
X113394081Y-75510917D01*
X113325003Y-75521409D01*
X113261219Y-75492889D01*
X113222980Y-75434413D01*
X113222634Y-75433248D01*
X113213617Y-75402210D01*
X113206514Y-75390199D01*
X113203421Y-75384969D01*
X113194860Y-75367493D01*
X113193308Y-75363575D01*
X113187486Y-75348868D01*
X113187486Y-75348867D01*
X113164952Y-75317853D01*
X113160083Y-75311150D01*
X113156900Y-75306305D01*
X113133170Y-75266179D01*
X113133165Y-75266173D01*
X113119005Y-75252013D01*
X113106370Y-75237220D01*
X113094593Y-75221012D01*
X113058693Y-75191313D01*
X113054381Y-75187390D01*
X112768803Y-74901812D01*
X112758980Y-74889550D01*
X112758759Y-74889734D01*
X112753786Y-74883723D01*
X112741325Y-74872021D01*
X112703364Y-74836373D01*
X112690244Y-74823253D01*
X112682475Y-74815483D01*
X112676986Y-74811225D01*
X112672561Y-74807447D01*
X112638582Y-74775538D01*
X112638580Y-74775536D01*
X112638577Y-74775535D01*
X112621029Y-74765888D01*
X112604763Y-74755204D01*
X112588933Y-74742925D01*
X112546168Y-74724418D01*
X112540922Y-74721848D01*
X112500093Y-74699403D01*
X112500092Y-74699402D01*
X112480693Y-74694422D01*
X112462281Y-74688118D01*
X112443243Y-74679879D01*
X112389536Y-74635188D01*
X112385118Y-74628101D01*
X112340133Y-74550184D01*
X112213471Y-74409512D01*
X112213470Y-74409511D01*
X112060334Y-74298251D01*
X112060329Y-74298248D01*
X111887407Y-74221257D01*
X111887402Y-74221255D01*
X111741600Y-74190265D01*
X111702246Y-74181900D01*
X111512954Y-74181900D01*
X111509233Y-74182691D01*
X111327797Y-74221255D01*
X111327792Y-74221257D01*
X111154870Y-74298248D01*
X111154865Y-74298251D01*
X111062385Y-74365442D01*
X110996578Y-74388922D01*
X110928525Y-74373096D01*
X110879830Y-74322990D01*
X110865500Y-74265124D01*
X110865500Y-74094683D01*
X110865500Y-73915778D01*
X110885183Y-73848743D01*
X110918373Y-73814209D01*
X111021841Y-73741761D01*
X111171761Y-73591841D01*
X111293371Y-73418164D01*
X111382974Y-73226009D01*
X111437849Y-73021213D01*
X111456328Y-72810000D01*
X111437849Y-72598787D01*
X111391585Y-72426129D01*
X111382976Y-72393998D01*
X111382975Y-72393996D01*
X111382974Y-72393991D01*
X111293371Y-72201836D01*
X111252749Y-72143822D01*
X111230423Y-72077618D01*
X111247433Y-72009850D01*
X111298381Y-71962037D01*
X111354325Y-71948700D01*
X113393052Y-71948700D01*
X113460091Y-71968385D01*
X113485200Y-71989726D01*
X113490926Y-71996085D01*
X113490930Y-71996089D01*
X113644065Y-72107348D01*
X113644070Y-72107351D01*
X113816992Y-72184342D01*
X113816997Y-72184344D01*
X114002154Y-72223700D01*
X114002155Y-72223700D01*
X114191444Y-72223700D01*
X114191446Y-72223700D01*
X114376603Y-72184344D01*
X114549530Y-72107351D01*
X114702671Y-71996088D01*
X114829333Y-71855416D01*
X114923979Y-71691484D01*
X114982474Y-71511456D01*
X115002260Y-71323200D01*
X114982474Y-71134944D01*
X114923979Y-70954916D01*
X114829333Y-70790984D01*
X114702671Y-70650312D01*
X114702670Y-70650311D01*
X114549534Y-70539051D01*
X114549529Y-70539048D01*
X114376607Y-70462057D01*
X114376602Y-70462055D01*
X114222666Y-70429336D01*
X114191446Y-70422700D01*
X114002154Y-70422700D01*
X113970934Y-70429336D01*
X113816997Y-70462055D01*
X113816992Y-70462057D01*
X113644070Y-70539048D01*
X113644065Y-70539051D01*
X113490930Y-70650310D01*
X113490926Y-70650314D01*
X113485200Y-70656674D01*
X113425713Y-70693321D01*
X113393052Y-70697700D01*
X111540925Y-70697700D01*
X111473886Y-70678015D01*
X111428131Y-70625211D01*
X111418187Y-70556053D01*
X111421150Y-70541606D01*
X111437355Y-70481127D01*
X111437356Y-70481120D01*
X111455827Y-70270001D01*
X111455827Y-70269998D01*
X111437356Y-70058879D01*
X111437355Y-70058872D01*
X111425705Y-70015394D01*
X111427368Y-69945544D01*
X111466530Y-69887681D01*
X111530758Y-69860177D01*
X111545480Y-69859300D01*
X114663828Y-69859300D01*
X114730867Y-69878985D01*
X114755975Y-69900325D01*
X114859129Y-70014888D01*
X114870260Y-70022975D01*
X115012265Y-70126148D01*
X115012270Y-70126151D01*
X115185192Y-70203142D01*
X115185197Y-70203144D01*
X115370354Y-70242500D01*
X115370355Y-70242500D01*
X115559644Y-70242500D01*
X115559646Y-70242500D01*
X115744803Y-70203144D01*
X115917730Y-70126151D01*
X116070871Y-70014888D01*
X116197533Y-69874216D01*
X116292179Y-69710284D01*
X116350674Y-69530256D01*
X116370460Y-69342000D01*
X116350674Y-69153744D01*
X116292179Y-68973716D01*
X116197533Y-68809784D01*
X116070871Y-68669112D01*
X116070870Y-68669111D01*
X115917734Y-68557851D01*
X115917729Y-68557848D01*
X115744807Y-68480857D01*
X115744802Y-68480855D01*
X115599000Y-68449865D01*
X115559646Y-68441500D01*
X115370354Y-68441500D01*
X115337897Y-68448398D01*
X115185197Y-68480855D01*
X115185192Y-68480857D01*
X115012270Y-68557848D01*
X114986998Y-68576210D01*
X114976961Y-68583503D01*
X114975426Y-68584618D01*
X114909619Y-68608098D01*
X114902540Y-68608300D01*
X111342422Y-68608300D01*
X111275383Y-68588615D01*
X111229628Y-68535811D01*
X111219684Y-68466653D01*
X111240847Y-68413177D01*
X111293368Y-68338168D01*
X111293367Y-68338168D01*
X111293371Y-68338164D01*
X111382974Y-68146009D01*
X111437849Y-67941213D01*
X111456328Y-67730000D01*
X111437849Y-67518787D01*
X111431953Y-67496785D01*
X111426222Y-67475392D01*
X111427885Y-67405543D01*
X111467048Y-67347680D01*
X111531277Y-67320177D01*
X111545997Y-67319300D01*
X111602128Y-67319300D01*
X111669167Y-67338985D01*
X111714922Y-67391789D01*
X111725448Y-67430335D01*
X111737926Y-67549056D01*
X111737927Y-67549059D01*
X111796418Y-67729077D01*
X111796421Y-67729084D01*
X111891067Y-67893016D01*
X111980203Y-67992011D01*
X112017729Y-68033688D01*
X112170865Y-68144948D01*
X112170870Y-68144951D01*
X112343792Y-68221942D01*
X112343797Y-68221944D01*
X112528954Y-68261300D01*
X112528955Y-68261300D01*
X112718244Y-68261300D01*
X112718246Y-68261300D01*
X112903403Y-68221944D01*
X113076330Y-68144951D01*
X113229471Y-68033688D01*
X113356133Y-67893016D01*
X113450779Y-67729084D01*
X113509274Y-67549056D01*
X113529060Y-67360800D01*
X113509274Y-67172544D01*
X113450779Y-66992516D01*
X113356133Y-66828584D01*
X113229471Y-66687912D01*
X113229470Y-66687911D01*
X113076334Y-66576651D01*
X113076329Y-66576648D01*
X112903407Y-66499657D01*
X112903402Y-66499655D01*
X112734886Y-66463837D01*
X112718246Y-66460300D01*
X112718245Y-66460300D01*
X112659053Y-66460300D01*
X112592014Y-66440615D01*
X112571372Y-66423981D01*
X112457403Y-66310012D01*
X112447580Y-66297750D01*
X112447359Y-66297934D01*
X112442386Y-66291923D01*
X112442385Y-66291922D01*
X112391964Y-66244573D01*
X112377907Y-66230516D01*
X112371075Y-66223683D01*
X112365586Y-66219425D01*
X112361161Y-66215647D01*
X112327182Y-66183738D01*
X112327180Y-66183736D01*
X112327177Y-66183735D01*
X112309629Y-66174088D01*
X112293363Y-66163404D01*
X112277536Y-66151127D01*
X112277535Y-66151126D01*
X112277533Y-66151125D01*
X112234768Y-66132618D01*
X112229522Y-66130048D01*
X112188693Y-66107603D01*
X112188692Y-66107602D01*
X112169293Y-66102622D01*
X112150881Y-66096318D01*
X112132498Y-66088362D01*
X112132492Y-66088360D01*
X112086474Y-66081072D01*
X112080752Y-66079887D01*
X112035621Y-66068300D01*
X112035619Y-66068300D01*
X112015584Y-66068300D01*
X111996186Y-66066773D01*
X111988762Y-66065597D01*
X111976405Y-66063640D01*
X111976404Y-66063640D01*
X111930016Y-66068025D01*
X111924178Y-66068300D01*
X111342422Y-66068300D01*
X111275383Y-66048615D01*
X111229628Y-65995811D01*
X111219684Y-65926653D01*
X111240847Y-65873177D01*
X111293368Y-65798168D01*
X111293367Y-65798168D01*
X111293371Y-65798164D01*
X111382974Y-65606009D01*
X111437849Y-65401213D01*
X111456328Y-65190000D01*
X111437849Y-64978787D01*
X111391239Y-64804835D01*
X111382976Y-64773998D01*
X111382975Y-64773996D01*
X111382974Y-64773991D01*
X111293371Y-64581836D01*
X111293369Y-64581833D01*
X111293368Y-64581831D01*
X111171764Y-64408163D01*
X111171759Y-64408157D01*
X111021842Y-64258240D01*
X111021836Y-64258235D01*
X110848168Y-64136631D01*
X110848164Y-64136629D01*
X110766951Y-64098759D01*
X110656009Y-64047026D01*
X110656005Y-64047025D01*
X110656001Y-64047023D01*
X110451218Y-63992152D01*
X110451208Y-63992150D01*
X110240001Y-63973672D01*
X110239999Y-63973672D01*
X110028791Y-63992150D01*
X110028781Y-63992152D01*
X109823998Y-64047023D01*
X109823989Y-64047027D01*
X109631835Y-64136629D01*
X109631831Y-64136631D01*
X109458163Y-64258235D01*
X109458157Y-64258240D01*
X109308240Y-64408157D01*
X109308235Y-64408163D01*
X109186631Y-64581831D01*
X109186629Y-64581835D01*
X109097027Y-64773989D01*
X109097024Y-64773996D01*
X109089775Y-64801051D01*
X109053409Y-64860711D01*
X108990562Y-64891240D01*
X108921187Y-64882945D01*
X108867309Y-64838459D01*
X108850225Y-64801051D01*
X108844796Y-64780792D01*
X108842974Y-64773991D01*
X108753371Y-64581836D01*
X108753369Y-64581833D01*
X108753368Y-64581831D01*
X108631764Y-64408163D01*
X108631759Y-64408157D01*
X108481842Y-64258240D01*
X108481836Y-64258235D01*
X108308168Y-64136631D01*
X108308164Y-64136629D01*
X108226951Y-64098759D01*
X108116009Y-64047026D01*
X108116005Y-64047025D01*
X108116001Y-64047023D01*
X108088949Y-64039775D01*
X108029288Y-64003410D01*
X107998759Y-63940563D01*
X108007054Y-63871188D01*
X108051539Y-63817310D01*
X108088949Y-63800225D01*
X108106930Y-63795406D01*
X108116009Y-63792974D01*
X108308164Y-63703371D01*
X108481841Y-63581761D01*
X108631761Y-63431841D01*
X108753371Y-63258164D01*
X108842974Y-63066009D01*
X108897849Y-62861213D01*
X108901954Y-62814279D01*
X108927405Y-62749213D01*
X108983995Y-62708233D01*
X109014671Y-62701559D01*
X109196692Y-62685635D01*
X109416496Y-62626739D01*
X109622734Y-62530568D01*
X109809139Y-62400047D01*
X109970047Y-62239139D01*
X110100568Y-62052734D01*
X110127619Y-61994721D01*
X110173788Y-61942286D01*
X110240981Y-61923133D01*
X110307862Y-61943348D01*
X110352380Y-61994722D01*
X110379432Y-62052734D01*
X110429638Y-62124436D01*
X110509954Y-62239141D01*
X110670858Y-62400045D01*
X110670861Y-62400047D01*
X110857266Y-62530568D01*
X111063504Y-62626739D01*
X111283308Y-62685635D01*
X111445230Y-62699801D01*
X111509998Y-62705468D01*
X111510000Y-62705468D01*
X111510002Y-62705468D01*
X111568087Y-62700386D01*
X111736692Y-62685635D01*
X111956496Y-62626739D01*
X112162734Y-62530568D01*
X112349139Y-62400047D01*
X112510047Y-62239139D01*
X112640568Y-62052734D01*
X112667619Y-61994721D01*
X112713788Y-61942286D01*
X112780981Y-61923133D01*
X112847862Y-61943348D01*
X112892380Y-61994722D01*
X112919432Y-62052734D01*
X112969638Y-62124436D01*
X113049954Y-62239141D01*
X113210858Y-62400045D01*
X113210861Y-62400047D01*
X113397266Y-62530568D01*
X113603504Y-62626739D01*
X113823308Y-62685635D01*
X113985230Y-62699801D01*
X114049998Y-62705468D01*
X114050000Y-62705468D01*
X114050002Y-62705468D01*
X114108087Y-62700386D01*
X114276692Y-62685635D01*
X114496496Y-62626739D01*
X114702734Y-62530568D01*
X114889139Y-62400047D01*
X115050047Y-62239139D01*
X115180568Y-62052734D01*
X115207619Y-61994721D01*
X115253788Y-61942286D01*
X115320981Y-61923133D01*
X115387862Y-61943348D01*
G37*
%TD.AperFunction*%
%TA.AperFunction,Conductor*%
G36*
X72605703Y-72296956D02*
G01*
X72612170Y-72302978D01*
X72640558Y-72331366D01*
X72667981Y-72358789D01*
X72677805Y-72371051D01*
X72678026Y-72370869D01*
X72682997Y-72376878D01*
X72706770Y-72399202D01*
X72733418Y-72424226D01*
X72754312Y-72445120D01*
X72759794Y-72449373D01*
X72764226Y-72453157D01*
X72798201Y-72485062D01*
X72815759Y-72494714D01*
X72832016Y-72505393D01*
X72847847Y-72517673D01*
X72867520Y-72526186D01*
X72890616Y-72536182D01*
X72895860Y-72538750D01*
X72936691Y-72561197D01*
X72943605Y-72562972D01*
X72956088Y-72566177D01*
X72974502Y-72572481D01*
X72992887Y-72580438D01*
X73038940Y-72587732D01*
X73044609Y-72588906D01*
X73089764Y-72600500D01*
X73109799Y-72600500D01*
X73129196Y-72602026D01*
X73148979Y-72605160D01*
X73195366Y-72600775D01*
X73201205Y-72600500D01*
X73864548Y-72600500D01*
X73931587Y-72620185D01*
X73952228Y-72636818D01*
X74269025Y-72953616D01*
X74579197Y-73263788D01*
X74589022Y-73276051D01*
X74589243Y-73275869D01*
X74594214Y-73281878D01*
X74620217Y-73306295D01*
X74644635Y-73329226D01*
X74665529Y-73350120D01*
X74671011Y-73354373D01*
X74675443Y-73358157D01*
X74709418Y-73390062D01*
X74726976Y-73399714D01*
X74743235Y-73410395D01*
X74759064Y-73422673D01*
X74801838Y-73441182D01*
X74807056Y-73443738D01*
X74847908Y-73466197D01*
X74867316Y-73471180D01*
X74885717Y-73477480D01*
X74904104Y-73485437D01*
X74947488Y-73492308D01*
X74950119Y-73492725D01*
X74955839Y-73493909D01*
X75000981Y-73505500D01*
X75021016Y-73505500D01*
X75040414Y-73507026D01*
X75060194Y-73510159D01*
X75060195Y-73510160D01*
X75060195Y-73510159D01*
X75060196Y-73510160D01*
X75106583Y-73505775D01*
X75112422Y-73505500D01*
X75560546Y-73505500D01*
X75627585Y-73525185D01*
X75673340Y-73577989D01*
X75683284Y-73647147D01*
X75654259Y-73710703D01*
X75648234Y-73717173D01*
X75571320Y-73794088D01*
X75497903Y-73867505D01*
X75460659Y-73893102D01*
X75297267Y-73965850D01*
X75297265Y-73965851D01*
X75144129Y-74077111D01*
X75017466Y-74217785D01*
X74922821Y-74381715D01*
X74922818Y-74381722D01*
X74869200Y-74546743D01*
X74864326Y-74561744D01*
X74844540Y-74750000D01*
X74844540Y-74750002D01*
X74845315Y-74757378D01*
X74832744Y-74826108D01*
X74785010Y-74877130D01*
X74717269Y-74894246D01*
X74651029Y-74872021D01*
X74634313Y-74858017D01*
X72436819Y-72660523D01*
X72403334Y-72599200D01*
X72400500Y-72572842D01*
X72400500Y-72390669D01*
X72420185Y-72323630D01*
X72472989Y-72277875D01*
X72542147Y-72267931D01*
X72605703Y-72296956D01*
G37*
%TD.AperFunction*%
%TA.AperFunction,Conductor*%
G36*
X57552326Y-72745330D02*
G01*
X57601020Y-72795436D01*
X57611126Y-72821209D01*
X57623259Y-72866490D01*
X57623261Y-72866496D01*
X57700948Y-73033095D01*
X57711440Y-73102173D01*
X57682920Y-73165957D01*
X57624444Y-73204196D01*
X57588566Y-73209500D01*
X56781977Y-73209500D01*
X56714938Y-73189815D01*
X56669183Y-73137011D01*
X56659239Y-73067853D01*
X56688264Y-73004297D01*
X56736305Y-72970218D01*
X56738942Y-72969172D01*
X56740606Y-72968513D01*
X56746126Y-72966622D01*
X56790890Y-72953618D01*
X56808129Y-72943422D01*
X56825601Y-72934862D01*
X56841150Y-72928706D01*
X56886794Y-72920000D01*
X56990644Y-72920000D01*
X56990646Y-72920000D01*
X57175803Y-72880644D01*
X57348730Y-72803651D01*
X57418467Y-72752984D01*
X57484272Y-72729505D01*
X57552326Y-72745330D01*
G37*
%TD.AperFunction*%
%TA.AperFunction,Conductor*%
G36*
X69391477Y-71687707D02*
G01*
X69437232Y-71740511D01*
X69447176Y-71809669D01*
X69436820Y-71844427D01*
X69423262Y-71873502D01*
X69423258Y-71873511D01*
X69364366Y-72093302D01*
X69364364Y-72093313D01*
X69345089Y-72313634D01*
X69344532Y-72320000D01*
X69364364Y-72546686D01*
X69364365Y-72546691D01*
X69364366Y-72546697D01*
X69382680Y-72615048D01*
X69381017Y-72684897D01*
X69350586Y-72734821D01*
X69012226Y-73073182D01*
X68950905Y-73106666D01*
X68924547Y-73109500D01*
X64291434Y-73109500D01*
X64224395Y-73089815D01*
X64178640Y-73037011D01*
X64168696Y-72967853D01*
X64179052Y-72933095D01*
X64181099Y-72928706D01*
X64256739Y-72766496D01*
X64315635Y-72546692D01*
X64335468Y-72320000D01*
X64334867Y-72313136D01*
X64327043Y-72223700D01*
X64315635Y-72093308D01*
X64256739Y-71873504D01*
X64243179Y-71844426D01*
X64232688Y-71775349D01*
X64261208Y-71711565D01*
X64319684Y-71673326D01*
X64355562Y-71668022D01*
X69324438Y-71668022D01*
X69391477Y-71687707D01*
G37*
%TD.AperFunction*%
%TA.AperFunction,Conductor*%
G36*
X39340801Y-69525185D02*
G01*
X39386556Y-69577989D01*
X39396500Y-69647147D01*
X39381150Y-69691497D01*
X39363646Y-69721816D01*
X39355620Y-69735718D01*
X39355618Y-69735722D01*
X39297127Y-69915740D01*
X39297126Y-69915744D01*
X39277340Y-70104000D01*
X39297126Y-70292256D01*
X39297127Y-70292259D01*
X39355618Y-70472277D01*
X39355621Y-70472284D01*
X39450267Y-70636216D01*
X39556979Y-70754731D01*
X39576929Y-70776888D01*
X39730065Y-70888148D01*
X39730070Y-70888151D01*
X39902992Y-70965142D01*
X39902997Y-70965144D01*
X40088154Y-71004500D01*
X40088155Y-71004500D01*
X40277442Y-71004500D01*
X40277446Y-71004500D01*
X40296837Y-71000378D01*
X40353451Y-71001563D01*
X40383581Y-71009300D01*
X40403616Y-71009300D01*
X40423013Y-71010826D01*
X40442796Y-71013960D01*
X40489183Y-71009575D01*
X40495022Y-71009300D01*
X42054003Y-71009300D01*
X42121042Y-71028985D01*
X42166797Y-71081789D01*
X42176741Y-71150947D01*
X42173778Y-71165392D01*
X42162149Y-71208791D01*
X42161301Y-71213603D01*
X42130273Y-71276205D01*
X42070324Y-71312094D01*
X42064967Y-71313357D01*
X41948297Y-71338155D01*
X41948292Y-71338157D01*
X41775370Y-71415148D01*
X41775365Y-71415151D01*
X41622229Y-71526411D01*
X41495566Y-71667085D01*
X41400921Y-71831015D01*
X41400918Y-71831022D01*
X41347285Y-71996089D01*
X41342426Y-72011044D01*
X41325092Y-72175970D01*
X41323853Y-72187762D01*
X41297268Y-72252376D01*
X41239971Y-72292361D01*
X41200532Y-72298800D01*
X39398443Y-72298800D01*
X39382822Y-72297075D01*
X39382796Y-72297361D01*
X39375034Y-72296627D01*
X39375033Y-72296627D01*
X39305886Y-72298800D01*
X39276349Y-72298800D01*
X39269466Y-72299669D01*
X39263649Y-72300126D01*
X39217073Y-72301590D01*
X39197829Y-72307181D01*
X39178779Y-72311125D01*
X39158911Y-72313634D01*
X39115584Y-72330788D01*
X39110058Y-72332679D01*
X39065314Y-72345679D01*
X39065310Y-72345681D01*
X39048066Y-72355879D01*
X39030605Y-72364433D01*
X39011974Y-72371810D01*
X39011962Y-72371817D01*
X38974270Y-72399202D01*
X38969387Y-72402409D01*
X38929280Y-72426129D01*
X38915114Y-72440295D01*
X38900324Y-72452927D01*
X38884114Y-72464704D01*
X38884111Y-72464707D01*
X38854410Y-72500609D01*
X38850477Y-72504931D01*
X38622315Y-72733092D01*
X38560992Y-72766577D01*
X38502543Y-72765187D01*
X38497522Y-72763841D01*
X38491214Y-72762151D01*
X38491208Y-72762150D01*
X38280001Y-72743672D01*
X38279999Y-72743672D01*
X38068791Y-72762150D01*
X38068785Y-72762151D01*
X38041643Y-72769424D01*
X37971793Y-72767759D01*
X37913931Y-72728595D01*
X37886429Y-72664366D01*
X37891620Y-72611332D01*
X37918874Y-72527456D01*
X37938660Y-72339200D01*
X37918874Y-72150944D01*
X37860379Y-71970916D01*
X37765733Y-71806984D01*
X37639071Y-71666312D01*
X37639070Y-71666311D01*
X37485934Y-71555051D01*
X37485929Y-71555048D01*
X37313007Y-71478057D01*
X37313002Y-71478055D01*
X37163526Y-71446284D01*
X37127846Y-71438700D01*
X37127845Y-71438700D01*
X37071588Y-71438700D01*
X37004549Y-71419015D01*
X36958794Y-71366211D01*
X36948060Y-71325507D01*
X36946997Y-71313357D01*
X36937849Y-71208787D01*
X36884396Y-71009299D01*
X36882976Y-71003998D01*
X36882975Y-71003996D01*
X36882974Y-71003991D01*
X36793371Y-70811836D01*
X36793369Y-70811833D01*
X36793368Y-70811831D01*
X36671764Y-70638163D01*
X36671759Y-70638157D01*
X36521842Y-70488240D01*
X36521836Y-70488235D01*
X36348168Y-70366631D01*
X36348164Y-70366629D01*
X36276434Y-70333181D01*
X36156009Y-70277026D01*
X36156005Y-70277025D01*
X36156001Y-70277023D01*
X36128949Y-70269775D01*
X36069288Y-70233410D01*
X36038759Y-70170563D01*
X36047054Y-70101188D01*
X36091539Y-70047310D01*
X36128949Y-70030225D01*
X36146930Y-70025406D01*
X36156009Y-70022974D01*
X36348164Y-69933371D01*
X36521841Y-69811761D01*
X36671761Y-69661841D01*
X36744207Y-69558376D01*
X36798784Y-69514752D01*
X36845782Y-69505500D01*
X39273762Y-69505500D01*
X39340801Y-69525185D01*
G37*
%TD.AperFunction*%
%TA.AperFunction,Conductor*%
G36*
X103938812Y-65497054D02*
G01*
X103992690Y-65541539D01*
X104009775Y-65578949D01*
X104017023Y-65606001D01*
X104017025Y-65606005D01*
X104017026Y-65606009D01*
X104079266Y-65739483D01*
X104106629Y-65798164D01*
X104106631Y-65798168D01*
X104228235Y-65971836D01*
X104228240Y-65971842D01*
X104378157Y-66121759D01*
X104378163Y-66121764D01*
X104551831Y-66243368D01*
X104551833Y-66243369D01*
X104551836Y-66243371D01*
X104743991Y-66332974D01*
X104743997Y-66332975D01*
X104743998Y-66332976D01*
X104770212Y-66340000D01*
X104948787Y-66387849D01*
X105117757Y-66402632D01*
X105159999Y-66406328D01*
X105160000Y-66406328D01*
X105160001Y-66406328D01*
X105195202Y-66403248D01*
X105371213Y-66387849D01*
X105576009Y-66332974D01*
X105768164Y-66243371D01*
X105843176Y-66190846D01*
X105909382Y-66168519D01*
X105977149Y-66185529D01*
X106024963Y-66236476D01*
X106038300Y-66292421D01*
X106038300Y-71707578D01*
X106018615Y-71774617D01*
X105965811Y-71820372D01*
X105896653Y-71830316D01*
X105843177Y-71809153D01*
X105768168Y-71756631D01*
X105768164Y-71756629D01*
X105576009Y-71667026D01*
X105576005Y-71667025D01*
X105576001Y-71667023D01*
X105371218Y-71612152D01*
X105371208Y-71612150D01*
X105160001Y-71593672D01*
X105159999Y-71593672D01*
X104948791Y-71612150D01*
X104948781Y-71612152D01*
X104743998Y-71667023D01*
X104743991Y-71667025D01*
X104743991Y-71667026D01*
X104743476Y-71667266D01*
X104551835Y-71756629D01*
X104551831Y-71756631D01*
X104378163Y-71878235D01*
X104378157Y-71878240D01*
X104228240Y-72028157D01*
X104228235Y-72028163D01*
X104106631Y-72201831D01*
X104106629Y-72201835D01*
X104017027Y-72393989D01*
X104017024Y-72393997D01*
X104009773Y-72421055D01*
X103973406Y-72480714D01*
X103910558Y-72511241D01*
X103841182Y-72502944D01*
X103787306Y-72458456D01*
X103770225Y-72421052D01*
X103762974Y-72393991D01*
X103673371Y-72201836D01*
X103673369Y-72201833D01*
X103673368Y-72201831D01*
X103551764Y-72028163D01*
X103551759Y-72028157D01*
X103401842Y-71878240D01*
X103401836Y-71878235D01*
X103228168Y-71756631D01*
X103228164Y-71756629D01*
X103228163Y-71756629D01*
X103036009Y-71667026D01*
X103036005Y-71667025D01*
X103036001Y-71667023D01*
X102831218Y-71612152D01*
X102831208Y-71612150D01*
X102620001Y-71593672D01*
X102619999Y-71593672D01*
X102408791Y-71612150D01*
X102408781Y-71612152D01*
X102203998Y-71667023D01*
X102203991Y-71667025D01*
X102203991Y-71667026D01*
X102203476Y-71667266D01*
X102011835Y-71756629D01*
X102011831Y-71756631D01*
X101838163Y-71878235D01*
X101838157Y-71878240D01*
X101688240Y-72028157D01*
X101688235Y-72028163D01*
X101566631Y-72201831D01*
X101566629Y-72201835D01*
X101477027Y-72393989D01*
X101477024Y-72393996D01*
X101469775Y-72421051D01*
X101433409Y-72480711D01*
X101370562Y-72511240D01*
X101301187Y-72502945D01*
X101247309Y-72458459D01*
X101230225Y-72421051D01*
X101225629Y-72403900D01*
X101222974Y-72393991D01*
X101133371Y-72201836D01*
X101133369Y-72201833D01*
X101133368Y-72201831D01*
X101011764Y-72028163D01*
X101011759Y-72028157D01*
X100861842Y-71878240D01*
X100861836Y-71878235D01*
X100688168Y-71756631D01*
X100688164Y-71756629D01*
X100496009Y-71667026D01*
X100496005Y-71667025D01*
X100496001Y-71667023D01*
X100291218Y-71612152D01*
X100291208Y-71612150D01*
X100080001Y-71593672D01*
X100079999Y-71593672D01*
X99868791Y-71612150D01*
X99868781Y-71612152D01*
X99663998Y-71667023D01*
X99663991Y-71667025D01*
X99663991Y-71667026D01*
X99663476Y-71667266D01*
X99471835Y-71756629D01*
X99471831Y-71756631D01*
X99298163Y-71878235D01*
X99298157Y-71878240D01*
X99148240Y-72028157D01*
X99148235Y-72028163D01*
X99026631Y-72201831D01*
X99026629Y-72201835D01*
X98937027Y-72393989D01*
X98937024Y-72393996D01*
X98929775Y-72421051D01*
X98893409Y-72480711D01*
X98830562Y-72511240D01*
X98761187Y-72502945D01*
X98707309Y-72458459D01*
X98690225Y-72421051D01*
X98685629Y-72403900D01*
X98682974Y-72393991D01*
X98593371Y-72201836D01*
X98593369Y-72201833D01*
X98593368Y-72201831D01*
X98471764Y-72028163D01*
X98471759Y-72028157D01*
X98321842Y-71878240D01*
X98321836Y-71878235D01*
X98148168Y-71756631D01*
X98148164Y-71756629D01*
X98148163Y-71756629D01*
X97956009Y-71667026D01*
X97956005Y-71667025D01*
X97956001Y-71667023D01*
X97928949Y-71659775D01*
X97869288Y-71623410D01*
X97838759Y-71560563D01*
X97847054Y-71491188D01*
X97891539Y-71437310D01*
X97928949Y-71420225D01*
X97947892Y-71415149D01*
X97956009Y-71412974D01*
X98148164Y-71323371D01*
X98321841Y-71201761D01*
X98471761Y-71051841D01*
X98593371Y-70878164D01*
X98682974Y-70686009D01*
X98737849Y-70481213D01*
X98756328Y-70270000D01*
X98737849Y-70058787D01*
X98714378Y-69971192D01*
X98716041Y-69901344D01*
X98755203Y-69843481D01*
X98819432Y-69815977D01*
X98834153Y-69815100D01*
X103233052Y-69815100D01*
X103300091Y-69834785D01*
X103325200Y-69856126D01*
X103330926Y-69862485D01*
X103330930Y-69862489D01*
X103484065Y-69973748D01*
X103484070Y-69973751D01*
X103656992Y-70050742D01*
X103656997Y-70050744D01*
X103842154Y-70090100D01*
X103842155Y-70090100D01*
X104031444Y-70090100D01*
X104031446Y-70090100D01*
X104216603Y-70050744D01*
X104389530Y-69973751D01*
X104542671Y-69862488D01*
X104669333Y-69721816D01*
X104763979Y-69557884D01*
X104822474Y-69377856D01*
X104842260Y-69189600D01*
X104822474Y-69001344D01*
X104763979Y-68821316D01*
X104669333Y-68657384D01*
X104542671Y-68516712D01*
X104542670Y-68516711D01*
X104389534Y-68405451D01*
X104389529Y-68405448D01*
X104216607Y-68328457D01*
X104216602Y-68328455D01*
X104070800Y-68297465D01*
X104031446Y-68289100D01*
X103842154Y-68289100D01*
X103809697Y-68295998D01*
X103656997Y-68328455D01*
X103656992Y-68328457D01*
X103484070Y-68405448D01*
X103484065Y-68405451D01*
X103330930Y-68516710D01*
X103330926Y-68516714D01*
X103325200Y-68523074D01*
X103265713Y-68559721D01*
X103233052Y-68564100D01*
X98875200Y-68564100D01*
X98808161Y-68544415D01*
X98762406Y-68491611D01*
X98751200Y-68440100D01*
X98751200Y-67980000D01*
X97855686Y-67980000D01*
X97867641Y-67968045D01*
X97925165Y-67855148D01*
X97944986Y-67730000D01*
X97925165Y-67604852D01*
X97867641Y-67491955D01*
X97855686Y-67480000D01*
X98751200Y-67480000D01*
X98751200Y-66970972D01*
X98751199Y-66970955D01*
X98744798Y-66911427D01*
X98744796Y-66911420D01*
X98694554Y-66776713D01*
X98694550Y-66776706D01*
X98608390Y-66661612D01*
X98608387Y-66661609D01*
X98493293Y-66575449D01*
X98493286Y-66575445D01*
X98358579Y-66525203D01*
X98358572Y-66525201D01*
X98299044Y-66518800D01*
X98116832Y-66518800D01*
X98049793Y-66499115D01*
X98004038Y-66446311D01*
X97994094Y-66377153D01*
X98023119Y-66313597D01*
X98064427Y-66282418D01*
X98065821Y-66281768D01*
X98148164Y-66243371D01*
X98321841Y-66121761D01*
X98471761Y-65971841D01*
X98593371Y-65798164D01*
X98682974Y-65606009D01*
X98690224Y-65578949D01*
X98726590Y-65519288D01*
X98789437Y-65488759D01*
X98858812Y-65497054D01*
X98912690Y-65541539D01*
X98929775Y-65578949D01*
X98937023Y-65606001D01*
X98937025Y-65606005D01*
X98937026Y-65606009D01*
X98999266Y-65739483D01*
X99026629Y-65798164D01*
X99026631Y-65798168D01*
X99148235Y-65971836D01*
X99148240Y-65971842D01*
X99298157Y-66121759D01*
X99298163Y-66121764D01*
X99471831Y-66243368D01*
X99471833Y-66243369D01*
X99471836Y-66243371D01*
X99663991Y-66332974D01*
X99663997Y-66332975D01*
X99663998Y-66332976D01*
X99690212Y-66340000D01*
X99868787Y-66387849D01*
X100037757Y-66402632D01*
X100079999Y-66406328D01*
X100080000Y-66406328D01*
X100080001Y-66406328D01*
X100115202Y-66403248D01*
X100291213Y-66387849D01*
X100496009Y-66332974D01*
X100688164Y-66243371D01*
X100861841Y-66121761D01*
X101011761Y-65971841D01*
X101133371Y-65798164D01*
X101222974Y-65606009D01*
X101230224Y-65578949D01*
X101266586Y-65519291D01*
X101329432Y-65488760D01*
X101398808Y-65497052D01*
X101452687Y-65541536D01*
X101469773Y-65578945D01*
X101477023Y-65606000D01*
X101477024Y-65606004D01*
X101477026Y-65606009D01*
X101539266Y-65739483D01*
X101566629Y-65798164D01*
X101566631Y-65798168D01*
X101688235Y-65971836D01*
X101688240Y-65971842D01*
X101838157Y-66121759D01*
X101838163Y-66121764D01*
X102011831Y-66243368D01*
X102011833Y-66243369D01*
X102011836Y-66243371D01*
X102203991Y-66332974D01*
X102203997Y-66332975D01*
X102203998Y-66332976D01*
X102230212Y-66340000D01*
X102408787Y-66387849D01*
X102577757Y-66402632D01*
X102619999Y-66406328D01*
X102620000Y-66406328D01*
X102620001Y-66406328D01*
X102655202Y-66403248D01*
X102831213Y-66387849D01*
X103036009Y-66332974D01*
X103228164Y-66243371D01*
X103401841Y-66121761D01*
X103551761Y-65971841D01*
X103673371Y-65798164D01*
X103762974Y-65606009D01*
X103770224Y-65578949D01*
X103806590Y-65519288D01*
X103869437Y-65488759D01*
X103938812Y-65497054D01*
G37*
%TD.AperFunction*%
%TA.AperFunction,Conductor*%
G36*
X61788974Y-69110185D02*
G01*
X61834729Y-69162989D01*
X61844673Y-69232147D01*
X61834317Y-69266903D01*
X61811308Y-69316248D01*
X61803262Y-69333502D01*
X61803258Y-69333511D01*
X61744366Y-69553302D01*
X61744364Y-69553313D01*
X61725176Y-69772634D01*
X61724532Y-69780000D01*
X61744364Y-70006686D01*
X61744365Y-70006691D01*
X61744366Y-70006697D01*
X61762680Y-70075048D01*
X61761017Y-70144897D01*
X61730586Y-70194821D01*
X61416426Y-70508982D01*
X61355105Y-70542466D01*
X61328747Y-70545300D01*
X60168798Y-70545300D01*
X60101759Y-70525615D01*
X60056004Y-70472811D01*
X60046060Y-70403653D01*
X60056416Y-70368895D01*
X60076265Y-70326326D01*
X60076269Y-70326317D01*
X60128872Y-70130000D01*
X59165686Y-70130000D01*
X59177641Y-70118045D01*
X59235165Y-70005148D01*
X59254986Y-69880000D01*
X59235165Y-69754852D01*
X59177641Y-69641955D01*
X59165686Y-69630000D01*
X60128872Y-69630000D01*
X60128872Y-69629999D01*
X60076269Y-69433682D01*
X60076265Y-69433673D01*
X59998501Y-69266905D01*
X59988009Y-69197827D01*
X60016529Y-69134043D01*
X60075006Y-69095804D01*
X60110883Y-69090500D01*
X61721935Y-69090500D01*
X61788974Y-69110185D01*
G37*
%TD.AperFunction*%
%TA.AperFunction,Conductor*%
G36*
X64155919Y-68055780D02*
G01*
X64211853Y-68097651D01*
X64230517Y-68133644D01*
X64247618Y-68186278D01*
X64247621Y-68186284D01*
X64342267Y-68350216D01*
X64427594Y-68444981D01*
X64468929Y-68490888D01*
X64622065Y-68602148D01*
X64622070Y-68602151D01*
X64794992Y-68679142D01*
X64794997Y-68679144D01*
X64980154Y-68718500D01*
X64980155Y-68718500D01*
X65169444Y-68718500D01*
X65169446Y-68718500D01*
X65354603Y-68679144D01*
X65527530Y-68602151D01*
X65620149Y-68534859D01*
X65685951Y-68511381D01*
X65754005Y-68527206D01*
X65780711Y-68547497D01*
X66042997Y-68809784D01*
X66298601Y-69065388D01*
X66308426Y-69077651D01*
X66308647Y-69077469D01*
X66313618Y-69083478D01*
X66339621Y-69107895D01*
X66364039Y-69130826D01*
X66384933Y-69151720D01*
X66390415Y-69155973D01*
X66394847Y-69159757D01*
X66428822Y-69191662D01*
X66446380Y-69201314D01*
X66462637Y-69211993D01*
X66478468Y-69224273D01*
X66495259Y-69231539D01*
X66521237Y-69242782D01*
X66526481Y-69245350D01*
X66567312Y-69267797D01*
X66579927Y-69271035D01*
X66586709Y-69272777D01*
X66605123Y-69279081D01*
X66623508Y-69287038D01*
X66669561Y-69294332D01*
X66675230Y-69295506D01*
X66720385Y-69307100D01*
X66740420Y-69307100D01*
X66759817Y-69308626D01*
X66779600Y-69311760D01*
X66825987Y-69307375D01*
X66831826Y-69307100D01*
X68435052Y-69307100D01*
X68502091Y-69326785D01*
X68527200Y-69348126D01*
X68532926Y-69354485D01*
X68532930Y-69354489D01*
X68686065Y-69465748D01*
X68686070Y-69465751D01*
X68858992Y-69542742D01*
X68858997Y-69542744D01*
X69044154Y-69582100D01*
X69044155Y-69582100D01*
X69233444Y-69582100D01*
X69233446Y-69582100D01*
X69418603Y-69542744D01*
X69421013Y-69541670D01*
X69423148Y-69540721D01*
X69473584Y-69530000D01*
X70334314Y-69530000D01*
X70322359Y-69541955D01*
X70264835Y-69654852D01*
X70245014Y-69780000D01*
X70264835Y-69905148D01*
X70322359Y-70018045D01*
X70334314Y-70030000D01*
X69371128Y-70030000D01*
X69423730Y-70226317D01*
X69423735Y-70226331D01*
X69430397Y-70240616D01*
X69440890Y-70309693D01*
X69412371Y-70373477D01*
X69353895Y-70411718D01*
X69318016Y-70417022D01*
X64602974Y-70417022D01*
X64535935Y-70397337D01*
X64515293Y-70380703D01*
X64329413Y-70194822D01*
X64295928Y-70133499D01*
X64297319Y-70075048D01*
X64301676Y-70058787D01*
X64315635Y-70006692D01*
X64335468Y-69780000D01*
X64333569Y-69758300D01*
X64327328Y-69686961D01*
X64315635Y-69553308D01*
X64270916Y-69386415D01*
X64256741Y-69333511D01*
X64256738Y-69333502D01*
X64248692Y-69316248D01*
X64160568Y-69127266D01*
X64030047Y-68940861D01*
X64030045Y-68940858D01*
X63869141Y-68779954D01*
X63682734Y-68649432D01*
X63682728Y-68649429D01*
X63635240Y-68627285D01*
X63624724Y-68622381D01*
X63572285Y-68576210D01*
X63553133Y-68509017D01*
X63573348Y-68442135D01*
X63624725Y-68397618D01*
X63682734Y-68370568D01*
X63869139Y-68240047D01*
X64024906Y-68084279D01*
X64086228Y-68050796D01*
X64155919Y-68055780D01*
G37*
%TD.AperFunction*%
%TA.AperFunction,Conductor*%
G36*
X93773031Y-68397985D02*
G01*
X93818786Y-68450789D01*
X93828730Y-68519947D01*
X93799705Y-68583503D01*
X93769110Y-68609034D01*
X93765816Y-68610981D01*
X93765815Y-68610982D01*
X93748571Y-68621180D01*
X93731104Y-68629737D01*
X93712474Y-68637113D01*
X93712472Y-68637114D01*
X93674781Y-68664498D01*
X93669899Y-68667705D01*
X93629784Y-68691430D01*
X93615613Y-68705600D01*
X93600828Y-68718228D01*
X93584617Y-68730007D01*
X93554914Y-68765910D01*
X93550981Y-68770231D01*
X92752616Y-69568598D01*
X91988033Y-70333181D01*
X91926710Y-70366666D01*
X91900352Y-70369500D01*
X90105453Y-70369500D01*
X90038414Y-70349815D01*
X90017772Y-70333181D01*
X89300803Y-69616212D01*
X89290980Y-69603950D01*
X89290759Y-69604134D01*
X89285786Y-69598123D01*
X89267159Y-69580631D01*
X89235364Y-69550773D01*
X89224405Y-69539814D01*
X89214475Y-69529883D01*
X89208986Y-69525625D01*
X89204561Y-69521847D01*
X89170582Y-69489938D01*
X89170580Y-69489936D01*
X89170577Y-69489935D01*
X89153029Y-69480288D01*
X89136763Y-69469604D01*
X89131792Y-69465748D01*
X89120936Y-69457327D01*
X89120935Y-69457326D01*
X89120933Y-69457325D01*
X89078168Y-69438818D01*
X89072922Y-69436248D01*
X89032093Y-69413803D01*
X89032092Y-69413802D01*
X89012693Y-69408822D01*
X88994281Y-69402518D01*
X88975898Y-69394562D01*
X88975892Y-69394560D01*
X88929874Y-69387272D01*
X88924152Y-69386087D01*
X88879021Y-69374500D01*
X88879019Y-69374500D01*
X88858984Y-69374500D01*
X88839586Y-69372973D01*
X88832162Y-69371797D01*
X88819805Y-69369840D01*
X88819804Y-69369840D01*
X88773416Y-69374225D01*
X88767578Y-69374500D01*
X86520579Y-69374500D01*
X86453540Y-69354815D01*
X86407785Y-69302011D01*
X86397258Y-69237539D01*
X86397889Y-69231539D01*
X86405460Y-69159500D01*
X86385674Y-68971244D01*
X86327179Y-68791216D01*
X86232533Y-68627284D01*
X86194704Y-68585271D01*
X86164475Y-68522281D01*
X86173100Y-68452946D01*
X86217841Y-68399280D01*
X86284494Y-68378322D01*
X86286855Y-68378300D01*
X93705992Y-68378300D01*
X93773031Y-68397985D01*
G37*
%TD.AperFunction*%
%TA.AperFunction,Conductor*%
G36*
X56985596Y-67955185D02*
G01*
X57006238Y-67971819D01*
X57875288Y-68840869D01*
X57908773Y-68902192D01*
X57903789Y-68971884D01*
X57875291Y-69016228D01*
X57850341Y-69041178D01*
X57719865Y-69227517D01*
X57623378Y-69434435D01*
X57577205Y-69486874D01*
X57510012Y-69506026D01*
X57443131Y-69485810D01*
X57426113Y-69472423D01*
X57381760Y-69430773D01*
X57360872Y-69409884D01*
X57355382Y-69405625D01*
X57350957Y-69401847D01*
X57316978Y-69369938D01*
X57316976Y-69369936D01*
X57316973Y-69369935D01*
X57299425Y-69360288D01*
X57283159Y-69349604D01*
X57270190Y-69339544D01*
X57267332Y-69337327D01*
X57267331Y-69337326D01*
X57267329Y-69337325D01*
X57224564Y-69318818D01*
X57219318Y-69316248D01*
X57178489Y-69293803D01*
X57178488Y-69293802D01*
X57159089Y-69288822D01*
X57140677Y-69282518D01*
X57122294Y-69274562D01*
X57122288Y-69274560D01*
X57076270Y-69267272D01*
X57070548Y-69266087D01*
X57025417Y-69254500D01*
X57025415Y-69254500D01*
X57005380Y-69254500D01*
X56985982Y-69252973D01*
X56978558Y-69251797D01*
X56966201Y-69249840D01*
X56966200Y-69249840D01*
X56919812Y-69254225D01*
X56913974Y-69254500D01*
X53506397Y-69254500D01*
X53439358Y-69234815D01*
X53393603Y-69182011D01*
X53383659Y-69112853D01*
X53412684Y-69049297D01*
X53455961Y-69017221D01*
X53540151Y-68979736D01*
X53589530Y-68957751D01*
X53742671Y-68846488D01*
X53869333Y-68705816D01*
X53869333Y-68705815D01*
X53873644Y-68701028D01*
X53933131Y-68664379D01*
X53965794Y-68660000D01*
X54973052Y-68660000D01*
X55040091Y-68679685D01*
X55065200Y-68701026D01*
X55070926Y-68707385D01*
X55070930Y-68707389D01*
X55224065Y-68818648D01*
X55224070Y-68818651D01*
X55396992Y-68895642D01*
X55396997Y-68895644D01*
X55582154Y-68935000D01*
X55582155Y-68935000D01*
X55771444Y-68935000D01*
X55771446Y-68935000D01*
X55956603Y-68895644D01*
X56129530Y-68818651D01*
X56282671Y-68707388D01*
X56409333Y-68566716D01*
X56503979Y-68402784D01*
X56562474Y-68222756D01*
X56580994Y-68046536D01*
X56607578Y-67981924D01*
X56664876Y-67941939D01*
X56704315Y-67935500D01*
X56918557Y-67935500D01*
X56985596Y-67955185D01*
G37*
%TD.AperFunction*%
%TA.AperFunction,Conductor*%
G36*
X96015265Y-65851711D02*
G01*
X96052936Y-65797913D01*
X96138503Y-65614413D01*
X96184675Y-65561973D01*
X96251869Y-65542821D01*
X96318750Y-65563036D01*
X96346431Y-65587779D01*
X96349822Y-65591878D01*
X96364872Y-65606010D01*
X96400243Y-65639226D01*
X96407776Y-65646759D01*
X96432477Y-65682035D01*
X96486629Y-65798164D01*
X96486631Y-65798168D01*
X96608235Y-65971836D01*
X96608240Y-65971842D01*
X96758157Y-66121759D01*
X96758163Y-66121764D01*
X96931831Y-66243368D01*
X96931833Y-66243369D01*
X96931836Y-66243371D01*
X97014179Y-66281768D01*
X97015573Y-66282418D01*
X97068012Y-66328590D01*
X97087164Y-66395784D01*
X97066948Y-66462665D01*
X97013783Y-66508000D01*
X96963168Y-66518800D01*
X96780955Y-66518800D01*
X96721427Y-66525201D01*
X96721420Y-66525203D01*
X96586713Y-66575445D01*
X96586706Y-66575449D01*
X96471612Y-66661609D01*
X96471609Y-66661612D01*
X96385449Y-66776706D01*
X96385445Y-66776713D01*
X96335203Y-66911420D01*
X96335201Y-66911427D01*
X96328800Y-66970955D01*
X96328800Y-67153168D01*
X96309115Y-67220207D01*
X96256311Y-67265962D01*
X96187153Y-67275906D01*
X96123597Y-67246881D01*
X96092418Y-67205573D01*
X96077016Y-67172544D01*
X96053371Y-67121836D01*
X96053369Y-67121833D01*
X96053368Y-67121831D01*
X95931764Y-66948163D01*
X95931759Y-66948157D01*
X95781842Y-66798240D01*
X95781836Y-66798235D01*
X95608168Y-66676631D01*
X95608164Y-66676629D01*
X95541671Y-66645623D01*
X95416009Y-66587026D01*
X95416005Y-66587024D01*
X95415998Y-66587022D01*
X95387982Y-66579515D01*
X95328323Y-66543149D01*
X95297795Y-66480302D01*
X95306091Y-66410926D01*
X95350577Y-66357049D01*
X95387989Y-66339965D01*
X95415830Y-66332505D01*
X95415838Y-66332502D01*
X95607911Y-66242938D01*
X95661712Y-66205265D01*
X95044401Y-65587953D01*
X95125148Y-65575165D01*
X95238045Y-65517641D01*
X95327641Y-65428045D01*
X95385165Y-65315148D01*
X95397953Y-65234399D01*
X96015265Y-65851711D01*
G37*
%TD.AperFunction*%
%TA.AperFunction,Conductor*%
G36*
X37058812Y-64107054D02*
G01*
X37112690Y-64151539D01*
X37129775Y-64188949D01*
X37137023Y-64216001D01*
X37137025Y-64216005D01*
X37137026Y-64216009D01*
X37202814Y-64357093D01*
X37226629Y-64408164D01*
X37226631Y-64408168D01*
X37348235Y-64581836D01*
X37348240Y-64581842D01*
X37498157Y-64731759D01*
X37498163Y-64731764D01*
X37671831Y-64853368D01*
X37671833Y-64853369D01*
X37671836Y-64853371D01*
X37863991Y-64942974D01*
X37863997Y-64942975D01*
X37863998Y-64942976D01*
X37908943Y-64955019D01*
X38068787Y-64997849D01*
X38280000Y-65016328D01*
X38302216Y-65014384D01*
X38370715Y-65028150D01*
X38420899Y-65076764D01*
X38430955Y-65099594D01*
X38469353Y-65217772D01*
X38469356Y-65217779D01*
X38564002Y-65381711D01*
X38660004Y-65488332D01*
X38690664Y-65522383D01*
X38843800Y-65633643D01*
X38843805Y-65633646D01*
X39016727Y-65710637D01*
X39016732Y-65710639D01*
X39201889Y-65749995D01*
X39201890Y-65749995D01*
X39391179Y-65749995D01*
X39391181Y-65749995D01*
X39576338Y-65710639D01*
X39749265Y-65633646D01*
X39902406Y-65522383D01*
X39906676Y-65517641D01*
X39908135Y-65516021D01*
X39967622Y-65479374D01*
X40000283Y-65474995D01*
X42248269Y-65474995D01*
X42315308Y-65494680D01*
X42361063Y-65547484D01*
X42371007Y-65616642D01*
X42349844Y-65670118D01*
X42306631Y-65731831D01*
X42306629Y-65731835D01*
X42245364Y-65863219D01*
X42217276Y-65923456D01*
X42217027Y-65923989D01*
X42217023Y-65923998D01*
X42162152Y-66128781D01*
X42162150Y-66128791D01*
X42143672Y-66339999D01*
X42143672Y-66340000D01*
X42162150Y-66551208D01*
X42162151Y-66551215D01*
X42173119Y-66592147D01*
X42191732Y-66661612D01*
X42193525Y-66668301D01*
X42191862Y-66738151D01*
X42152700Y-66796014D01*
X42136867Y-66807128D01*
X42135755Y-66807786D01*
X42118300Y-66816337D01*
X42099670Y-66823713D01*
X42099668Y-66823714D01*
X42061977Y-66851098D01*
X42057095Y-66854305D01*
X42016980Y-66878030D01*
X42002809Y-66892200D01*
X41988024Y-66904828D01*
X41971813Y-66916607D01*
X41942110Y-66952510D01*
X41938178Y-66956830D01*
X41881707Y-67013302D01*
X41713027Y-67181982D01*
X41651707Y-67215466D01*
X41625348Y-67218300D01*
X36842422Y-67218300D01*
X36775383Y-67198615D01*
X36729628Y-67145811D01*
X36719684Y-67076653D01*
X36740847Y-67023177D01*
X36787303Y-66956830D01*
X36793371Y-66948164D01*
X36882974Y-66756009D01*
X36937849Y-66551213D01*
X36956328Y-66340000D01*
X36955713Y-66332976D01*
X36947874Y-66243368D01*
X36937849Y-66128787D01*
X36882974Y-65923991D01*
X36793371Y-65731836D01*
X36793369Y-65731833D01*
X36793368Y-65731831D01*
X36671764Y-65558163D01*
X36671759Y-65558157D01*
X36521842Y-65408240D01*
X36521836Y-65408235D01*
X36348168Y-65286631D01*
X36348164Y-65286629D01*
X36298173Y-65263318D01*
X36156009Y-65197026D01*
X36156005Y-65197025D01*
X36156001Y-65197023D01*
X36128949Y-65189775D01*
X36069288Y-65153410D01*
X36038759Y-65090563D01*
X36047054Y-65021188D01*
X36091539Y-64967310D01*
X36128949Y-64950225D01*
X36146930Y-64945406D01*
X36156009Y-64942974D01*
X36348164Y-64853371D01*
X36521841Y-64731761D01*
X36671761Y-64581841D01*
X36793371Y-64408164D01*
X36882974Y-64216009D01*
X36886570Y-64202589D01*
X36890225Y-64188949D01*
X36926590Y-64129288D01*
X36989437Y-64098759D01*
X37058812Y-64107054D01*
G37*
%TD.AperFunction*%
%TA.AperFunction,Conductor*%
G36*
X94614835Y-65315148D02*
G01*
X94672359Y-65428045D01*
X94761955Y-65517641D01*
X94874852Y-65575165D01*
X94955599Y-65587953D01*
X94338286Y-66205266D01*
X94392082Y-66242935D01*
X94392086Y-66242937D01*
X94584161Y-66332502D01*
X94584166Y-66332505D01*
X94612011Y-66339965D01*
X94671673Y-66376328D01*
X94702204Y-66439175D01*
X94693911Y-66508550D01*
X94649427Y-66562429D01*
X94612018Y-66579515D01*
X94583999Y-66587023D01*
X94583989Y-66587027D01*
X94391835Y-66676629D01*
X94391831Y-66676631D01*
X94280088Y-66754875D01*
X94213882Y-66777202D01*
X94208965Y-66777300D01*
X89111615Y-66777300D01*
X89044576Y-66757615D01*
X88998821Y-66704811D01*
X88988294Y-66640339D01*
X88989706Y-66626905D01*
X88992660Y-66598800D01*
X88972874Y-66410544D01*
X88948132Y-66334396D01*
X88941056Y-66312618D01*
X88939061Y-66242777D01*
X88975141Y-66182944D01*
X89037842Y-66152116D01*
X89058987Y-66150300D01*
X93016853Y-66150300D01*
X93032473Y-66152024D01*
X93032500Y-66151739D01*
X93040256Y-66152471D01*
X93040263Y-66152473D01*
X93109410Y-66150300D01*
X93138946Y-66150300D01*
X93145824Y-66149430D01*
X93151637Y-66148972D01*
X93198223Y-66147509D01*
X93217465Y-66141917D01*
X93236508Y-66137974D01*
X93256388Y-66135464D01*
X93299718Y-66118307D01*
X93305242Y-66116417D01*
X93315730Y-66113370D01*
X93349986Y-66103418D01*
X93367225Y-66093222D01*
X93384699Y-66084662D01*
X93403323Y-66077288D01*
X93403323Y-66077287D01*
X93403328Y-66077286D01*
X93441045Y-66049882D01*
X93445901Y-66046692D01*
X93486016Y-66022970D01*
X93500185Y-66008799D01*
X93514975Y-65996168D01*
X93531183Y-65984394D01*
X93560895Y-65948476D01*
X93564808Y-65944176D01*
X93746794Y-65762190D01*
X93808115Y-65728707D01*
X93877807Y-65733691D01*
X93933740Y-65775563D01*
X93944327Y-65793245D01*
X93944358Y-65793228D01*
X93945455Y-65795128D01*
X93946853Y-65797463D01*
X93947063Y-65797913D01*
X93984733Y-65851712D01*
X94602046Y-65234399D01*
X94614835Y-65315148D01*
G37*
%TD.AperFunction*%
%TA.AperFunction,Conductor*%
G36*
X80955702Y-59351856D02*
G01*
X80981886Y-59383570D01*
X81055463Y-59511011D01*
X81055465Y-59511014D01*
X81080856Y-59539214D01*
X81182129Y-59651688D01*
X81299184Y-59736733D01*
X81341848Y-59792060D01*
X81349618Y-59850009D01*
X81344031Y-59903172D01*
X81339740Y-59944000D01*
X81359526Y-60132256D01*
X81359527Y-60132259D01*
X81418018Y-60312277D01*
X81418021Y-60312284D01*
X81512667Y-60476216D01*
X81615138Y-60590021D01*
X81639329Y-60616888D01*
X81792465Y-60728148D01*
X81792470Y-60728151D01*
X81965392Y-60805142D01*
X81965397Y-60805144D01*
X82150554Y-60844500D01*
X82150555Y-60844500D01*
X82210868Y-60844500D01*
X82277907Y-60864185D01*
X82323662Y-60916989D01*
X82333606Y-60986147D01*
X82330643Y-61000593D01*
X82284366Y-61173302D01*
X82284364Y-61173313D01*
X82264532Y-61399998D01*
X82264532Y-61400001D01*
X82284364Y-61626686D01*
X82284366Y-61626697D01*
X82343258Y-61846488D01*
X82343261Y-61846497D01*
X82439431Y-62052732D01*
X82439432Y-62052734D01*
X82569954Y-62239141D01*
X82730858Y-62400045D01*
X82730861Y-62400047D01*
X82917266Y-62530568D01*
X83123504Y-62626739D01*
X83343308Y-62685635D01*
X83505230Y-62699801D01*
X83569998Y-62705468D01*
X83570000Y-62705468D01*
X83570002Y-62705468D01*
X83628087Y-62700386D01*
X83796692Y-62685635D01*
X84016496Y-62626739D01*
X84222734Y-62530568D01*
X84409139Y-62400047D01*
X84570047Y-62239139D01*
X84700568Y-62052734D01*
X84727618Y-61994724D01*
X84773790Y-61942285D01*
X84840983Y-61923133D01*
X84907865Y-61943348D01*
X84952382Y-61994725D01*
X84979429Y-62052728D01*
X84979432Y-62052734D01*
X85109954Y-62239141D01*
X85270858Y-62400045D01*
X85270861Y-62400047D01*
X85457266Y-62530568D01*
X85663504Y-62626739D01*
X85883308Y-62685635D01*
X86045230Y-62699801D01*
X86109998Y-62705468D01*
X86110000Y-62705468D01*
X86110002Y-62705468D01*
X86168087Y-62700386D01*
X86336692Y-62685635D01*
X86556496Y-62626739D01*
X86762734Y-62530568D01*
X86949139Y-62400047D01*
X87110047Y-62239139D01*
X87240568Y-62052734D01*
X87267618Y-61994724D01*
X87313790Y-61942285D01*
X87380983Y-61923133D01*
X87447865Y-61943348D01*
X87492382Y-61994725D01*
X87519429Y-62052728D01*
X87519432Y-62052734D01*
X87649954Y-62239141D01*
X87810858Y-62400045D01*
X87810861Y-62400047D01*
X87997266Y-62530568D01*
X88203504Y-62626739D01*
X88423308Y-62685635D01*
X88585230Y-62699801D01*
X88649998Y-62705468D01*
X88650000Y-62705468D01*
X88650002Y-62705468D01*
X88708087Y-62700386D01*
X88876692Y-62685635D01*
X89096496Y-62626739D01*
X89302734Y-62530568D01*
X89489139Y-62400047D01*
X89650047Y-62239139D01*
X89780568Y-62052734D01*
X89807618Y-61994724D01*
X89853790Y-61942285D01*
X89920983Y-61923133D01*
X89987865Y-61943348D01*
X90032382Y-61994725D01*
X90059429Y-62052728D01*
X90059432Y-62052734D01*
X90189954Y-62239141D01*
X90350858Y-62400045D01*
X90350861Y-62400047D01*
X90537266Y-62530568D01*
X90743504Y-62626739D01*
X90963308Y-62685635D01*
X91125230Y-62699801D01*
X91189998Y-62705468D01*
X91190000Y-62705468D01*
X91190002Y-62705468D01*
X91248087Y-62700386D01*
X91416692Y-62685635D01*
X91636496Y-62626739D01*
X91842734Y-62530568D01*
X92029139Y-62400047D01*
X92190047Y-62239139D01*
X92320568Y-62052734D01*
X92347618Y-61994724D01*
X92393790Y-61942285D01*
X92460983Y-61923133D01*
X92527865Y-61943348D01*
X92572382Y-61994725D01*
X92599429Y-62052728D01*
X92599432Y-62052734D01*
X92729954Y-62239141D01*
X92890858Y-62400045D01*
X92890861Y-62400047D01*
X93077266Y-62530568D01*
X93283504Y-62626739D01*
X93503308Y-62685635D01*
X93665230Y-62699801D01*
X93729998Y-62705468D01*
X93730000Y-62705468D01*
X93730002Y-62705468D01*
X93788087Y-62700386D01*
X93956692Y-62685635D01*
X94139537Y-62636642D01*
X94209386Y-62638305D01*
X94267249Y-62677468D01*
X94294753Y-62741696D01*
X94283166Y-62810598D01*
X94259311Y-62844098D01*
X94239816Y-62863593D01*
X94225024Y-62876227D01*
X94208814Y-62888004D01*
X94208811Y-62888007D01*
X94179110Y-62923909D01*
X94175177Y-62928231D01*
X92690428Y-64412981D01*
X92629105Y-64446466D01*
X92602747Y-64449300D01*
X90144375Y-64449300D01*
X90077336Y-64429615D01*
X90036989Y-64387301D01*
X89964380Y-64261538D01*
X89837718Y-64120866D01*
X89837717Y-64120865D01*
X89684581Y-64009605D01*
X89684576Y-64009602D01*
X89511654Y-63932611D01*
X89511649Y-63932609D01*
X89365848Y-63901619D01*
X89326493Y-63893254D01*
X89137201Y-63893254D01*
X89104744Y-63900152D01*
X88952044Y-63932609D01*
X88952039Y-63932611D01*
X88779117Y-64009602D01*
X88779112Y-64009605D01*
X88625976Y-64120865D01*
X88499313Y-64261539D01*
X88404668Y-64425469D01*
X88404665Y-64425476D01*
X88350132Y-64593313D01*
X88346173Y-64605498D01*
X88326964Y-64788263D01*
X88300381Y-64852876D01*
X88243083Y-64892861D01*
X88203644Y-64899300D01*
X86519658Y-64899300D01*
X86469222Y-64888579D01*
X86456568Y-64882945D01*
X86436602Y-64874055D01*
X86276856Y-64840101D01*
X86251446Y-64834700D01*
X86062154Y-64834700D01*
X86054926Y-64836236D01*
X86044905Y-64838366D01*
X85975238Y-64833048D01*
X85931447Y-64804756D01*
X85646260Y-64519569D01*
X85612775Y-64458246D01*
X85610623Y-64444868D01*
X85592974Y-64276944D01*
X85534479Y-64096916D01*
X85439833Y-63932984D01*
X85313171Y-63792312D01*
X85313170Y-63792311D01*
X85160034Y-63681051D01*
X85160029Y-63681048D01*
X84987107Y-63604057D01*
X84987102Y-63604055D01*
X84841301Y-63573065D01*
X84801946Y-63564700D01*
X84612654Y-63564700D01*
X84580197Y-63571598D01*
X84427497Y-63604055D01*
X84427492Y-63604057D01*
X84254570Y-63681048D01*
X84254565Y-63681051D01*
X84101429Y-63792311D01*
X83974766Y-63932985D01*
X83880121Y-64096915D01*
X83880118Y-64096922D01*
X83821627Y-64276940D01*
X83821626Y-64276944D01*
X83801840Y-64465200D01*
X83821626Y-64653456D01*
X83821627Y-64653459D01*
X83880118Y-64833477D01*
X83880121Y-64833484D01*
X83974767Y-64997416D01*
X84084074Y-65118813D01*
X84101429Y-65138088D01*
X84254565Y-65249348D01*
X84254570Y-65249351D01*
X84427492Y-65326342D01*
X84427497Y-65326344D01*
X84612654Y-65365700D01*
X84671848Y-65365700D01*
X84738887Y-65385385D01*
X84759529Y-65402019D01*
X85220728Y-65863219D01*
X85254213Y-65924542D01*
X85249229Y-65994234D01*
X85207357Y-66050167D01*
X85141893Y-66074584D01*
X85133047Y-66074900D01*
X82119352Y-66074900D01*
X82052313Y-66055215D01*
X82046487Y-66051232D01*
X81942730Y-65975849D01*
X81942729Y-65975848D01*
X81769807Y-65898857D01*
X81769802Y-65898855D01*
X81624000Y-65867865D01*
X81584646Y-65859500D01*
X81449500Y-65859500D01*
X81382461Y-65839815D01*
X81336706Y-65787011D01*
X81325500Y-65735500D01*
X81325500Y-64671751D01*
X81327224Y-64656131D01*
X81326939Y-64656104D01*
X81327673Y-64648342D01*
X81325500Y-64579181D01*
X81325500Y-64549665D01*
X81325500Y-64549659D01*
X81324631Y-64542788D01*
X81324173Y-64536961D01*
X81324095Y-64534475D01*
X81322710Y-64490382D01*
X81317119Y-64471139D01*
X81313173Y-64452087D01*
X81310664Y-64432217D01*
X81293504Y-64388876D01*
X81291624Y-64383388D01*
X81278618Y-64338619D01*
X81268422Y-64321379D01*
X81259861Y-64303903D01*
X81252487Y-64285279D01*
X81252486Y-64285277D01*
X81225079Y-64247554D01*
X81221888Y-64242695D01*
X81214014Y-64229381D01*
X81198170Y-64202589D01*
X81198168Y-64202587D01*
X81198165Y-64202583D01*
X81184006Y-64188424D01*
X81171368Y-64173628D01*
X81162090Y-64160858D01*
X81159594Y-64157422D01*
X81156203Y-64154617D01*
X81123688Y-64127718D01*
X81119376Y-64123795D01*
X80425064Y-63429483D01*
X80391579Y-63368160D01*
X80396563Y-63298468D01*
X80425061Y-63254123D01*
X80450047Y-63229139D01*
X80580568Y-63042734D01*
X80676739Y-62836496D01*
X80735635Y-62616692D01*
X80755468Y-62390000D01*
X80753565Y-62368254D01*
X80746664Y-62289371D01*
X80735635Y-62163308D01*
X80676739Y-61943504D01*
X80580568Y-61737266D01*
X80455577Y-61558759D01*
X80450045Y-61550858D01*
X80289143Y-61389956D01*
X80264536Y-61372726D01*
X80220912Y-61318149D01*
X80213719Y-61248650D01*
X80245241Y-61186296D01*
X80305471Y-61150882D01*
X80322404Y-61147861D01*
X80357483Y-61144091D01*
X80492331Y-61093796D01*
X80607546Y-61007546D01*
X80693796Y-60892331D01*
X80744091Y-60757483D01*
X80750500Y-60697873D01*
X80750499Y-59445568D01*
X80770184Y-59378530D01*
X80822987Y-59332775D01*
X80892146Y-59322831D01*
X80955702Y-59351856D01*
G37*
%TD.AperFunction*%
%TA.AperFunction,Conductor*%
G36*
X34518812Y-64107054D02*
G01*
X34572690Y-64151539D01*
X34589775Y-64188949D01*
X34597023Y-64216001D01*
X34597025Y-64216005D01*
X34597026Y-64216009D01*
X34662814Y-64357093D01*
X34686629Y-64408164D01*
X34686631Y-64408168D01*
X34808235Y-64581836D01*
X34808240Y-64581842D01*
X34958157Y-64731759D01*
X34958163Y-64731764D01*
X35131831Y-64853368D01*
X35131833Y-64853369D01*
X35131836Y-64853371D01*
X35323991Y-64942974D01*
X35337576Y-64946614D01*
X35351051Y-64950225D01*
X35410711Y-64986591D01*
X35441240Y-65049438D01*
X35432945Y-65118813D01*
X35388459Y-65172691D01*
X35351051Y-65189775D01*
X35323996Y-65197024D01*
X35323991Y-65197025D01*
X35323991Y-65197026D01*
X35299726Y-65208340D01*
X35131835Y-65286629D01*
X35131831Y-65286631D01*
X34958163Y-65408235D01*
X34958157Y-65408240D01*
X34808240Y-65558157D01*
X34808235Y-65558163D01*
X34686631Y-65731831D01*
X34686629Y-65731835D01*
X34625364Y-65863219D01*
X34597276Y-65923456D01*
X34597027Y-65923989D01*
X34597024Y-65923996D01*
X34589775Y-65951051D01*
X34553409Y-66010711D01*
X34490562Y-66041240D01*
X34421187Y-66032945D01*
X34367309Y-65988459D01*
X34350225Y-65951051D01*
X34343687Y-65926653D01*
X34342974Y-65923991D01*
X34253371Y-65731836D01*
X34253369Y-65731833D01*
X34253368Y-65731831D01*
X34131764Y-65558163D01*
X34131759Y-65558157D01*
X33981842Y-65408240D01*
X33981836Y-65408235D01*
X33808168Y-65286631D01*
X33808164Y-65286629D01*
X33758173Y-65263318D01*
X33616009Y-65197026D01*
X33616005Y-65197025D01*
X33616001Y-65197023D01*
X33588949Y-65189775D01*
X33529288Y-65153410D01*
X33498759Y-65090563D01*
X33507054Y-65021188D01*
X33551539Y-64967310D01*
X33588949Y-64950225D01*
X33606930Y-64945406D01*
X33616009Y-64942974D01*
X33808164Y-64853371D01*
X33981841Y-64731761D01*
X34131761Y-64581841D01*
X34253371Y-64408164D01*
X34342974Y-64216009D01*
X34346570Y-64202589D01*
X34350225Y-64188949D01*
X34386590Y-64129288D01*
X34449437Y-64098759D01*
X34518812Y-64107054D01*
G37*
%TD.AperFunction*%
%TA.AperFunction,Conductor*%
G36*
X69342768Y-64220685D02*
G01*
X69388523Y-64273489D01*
X69398467Y-64342647D01*
X69395504Y-64357093D01*
X69364366Y-64473302D01*
X69364364Y-64473313D01*
X69344532Y-64699998D01*
X69344532Y-64700001D01*
X69364364Y-64926686D01*
X69364366Y-64926697D01*
X69423258Y-65146488D01*
X69423261Y-65146497D01*
X69435476Y-65172691D01*
X69460809Y-65227018D01*
X69465975Y-65238095D01*
X69476467Y-65307172D01*
X69447948Y-65370956D01*
X69389471Y-65409196D01*
X69353593Y-65414500D01*
X65291736Y-65414500D01*
X65224697Y-65394815D01*
X65206854Y-65380893D01*
X65200868Y-65375272D01*
X65191296Y-65365700D01*
X65179981Y-65354384D01*
X65174491Y-65350125D01*
X65170066Y-65346347D01*
X65136087Y-65314438D01*
X65136085Y-65314436D01*
X65136082Y-65314435D01*
X65118534Y-65304788D01*
X65102268Y-65294104D01*
X65092634Y-65286631D01*
X65086441Y-65281827D01*
X65086440Y-65281826D01*
X65086438Y-65281825D01*
X65043673Y-65263318D01*
X65038427Y-65260748D01*
X64997598Y-65238303D01*
X64997597Y-65238302D01*
X64978198Y-65233322D01*
X64959786Y-65227018D01*
X64941403Y-65219062D01*
X64941397Y-65219060D01*
X64895379Y-65211772D01*
X64889657Y-65210587D01*
X64844526Y-65199000D01*
X64844524Y-65199000D01*
X64824489Y-65199000D01*
X64805091Y-65197473D01*
X64797667Y-65196297D01*
X64785310Y-65194340D01*
X64785309Y-65194340D01*
X64738921Y-65198725D01*
X64733083Y-65199000D01*
X64404271Y-65199000D01*
X64337232Y-65179315D01*
X64291477Y-65126511D01*
X64281533Y-65057353D01*
X64284496Y-65042907D01*
X64307515Y-64956996D01*
X64315635Y-64926692D01*
X64335468Y-64700000D01*
X64315635Y-64473308D01*
X64298180Y-64408163D01*
X64284496Y-64357093D01*
X64286159Y-64287243D01*
X64325322Y-64229381D01*
X64389551Y-64201877D01*
X64404271Y-64201000D01*
X69275729Y-64201000D01*
X69342768Y-64220685D01*
G37*
%TD.AperFunction*%
%TA.AperFunction,Conductor*%
G36*
X61767990Y-58995185D02*
G01*
X61813745Y-59047989D01*
X61823689Y-59117147D01*
X61813333Y-59151903D01*
X61806268Y-59167056D01*
X61803262Y-59173502D01*
X61803258Y-59173511D01*
X61744366Y-59393302D01*
X61744364Y-59393313D01*
X61724532Y-59619998D01*
X61724532Y-59620001D01*
X61744364Y-59846686D01*
X61744366Y-59846697D01*
X61802433Y-60063407D01*
X61800770Y-60133257D01*
X61761607Y-60191119D01*
X61697379Y-60218623D01*
X61682658Y-60219500D01*
X60223619Y-60219500D01*
X60156580Y-60199815D01*
X60110825Y-60147011D01*
X60100881Y-60077853D01*
X60103844Y-60063406D01*
X60128872Y-59970000D01*
X59165686Y-59970000D01*
X59177641Y-59958045D01*
X59235165Y-59845148D01*
X59254986Y-59720000D01*
X59235165Y-59594852D01*
X59177641Y-59481955D01*
X59165686Y-59470000D01*
X60128872Y-59470000D01*
X60128872Y-59469999D01*
X60076269Y-59273682D01*
X60076264Y-59273668D01*
X60019485Y-59151904D01*
X60008993Y-59082827D01*
X60037513Y-59019043D01*
X60095990Y-58980804D01*
X60131867Y-58975500D01*
X61700951Y-58975500D01*
X61767990Y-58995185D01*
G37*
%TD.AperFunction*%
%TA.AperFunction,Conductor*%
G36*
X69388542Y-58995185D02*
G01*
X69434297Y-59047989D01*
X69444241Y-59117147D01*
X69433885Y-59151906D01*
X69423732Y-59173678D01*
X69423730Y-59173682D01*
X69371127Y-59369999D01*
X69371128Y-59370000D01*
X70334314Y-59370000D01*
X70322359Y-59381955D01*
X70264835Y-59494852D01*
X70245014Y-59620000D01*
X70264835Y-59745148D01*
X70322359Y-59858045D01*
X70334314Y-59870000D01*
X69371128Y-59870000D01*
X69422951Y-60063406D01*
X69421288Y-60133256D01*
X69382126Y-60191119D01*
X69317897Y-60218623D01*
X69303176Y-60219500D01*
X64377342Y-60219500D01*
X64310303Y-60199815D01*
X64264548Y-60147011D01*
X64254604Y-60077853D01*
X64257567Y-60063407D01*
X64289031Y-59945981D01*
X64315635Y-59846692D01*
X64335468Y-59620000D01*
X64334639Y-59610529D01*
X64324384Y-59493306D01*
X64315635Y-59393308D01*
X64256739Y-59173504D01*
X64246666Y-59151904D01*
X64236175Y-59082827D01*
X64264695Y-59019043D01*
X64323171Y-58980804D01*
X64359049Y-58975500D01*
X69321503Y-58975500D01*
X69388542Y-58995185D01*
G37*
%TD.AperFunction*%
%TA.AperFunction,Conductor*%
G36*
X57635172Y-58995185D02*
G01*
X57680927Y-59047989D01*
X57690871Y-59117147D01*
X57680515Y-59151904D01*
X57623735Y-59273668D01*
X57623730Y-59273682D01*
X57571127Y-59469999D01*
X57571128Y-59470000D01*
X58534314Y-59470000D01*
X58522359Y-59481955D01*
X58464835Y-59594852D01*
X58445014Y-59720000D01*
X58464835Y-59845148D01*
X58522359Y-59958045D01*
X58534314Y-59970000D01*
X57571128Y-59970000D01*
X57586135Y-60026006D01*
X57584472Y-60095856D01*
X57545310Y-60153719D01*
X57481081Y-60181223D01*
X57466360Y-60182100D01*
X52765143Y-60182100D01*
X52749522Y-60180375D01*
X52749495Y-60180661D01*
X52741733Y-60179926D01*
X52672572Y-60182100D01*
X52643050Y-60182100D01*
X52636171Y-60182968D01*
X52630357Y-60183425D01*
X52617571Y-60183827D01*
X52549947Y-60166257D01*
X52502557Y-60114916D01*
X52490447Y-60046104D01*
X52493900Y-60027805D01*
X52515635Y-59946692D01*
X52535468Y-59720000D01*
X52515635Y-59493308D01*
X52497318Y-59424947D01*
X52498981Y-59355101D01*
X52529408Y-59305180D01*
X52822772Y-59011816D01*
X52884094Y-58978334D01*
X52910452Y-58975500D01*
X57568133Y-58975500D01*
X57635172Y-58995185D01*
G37*
%TD.AperFunction*%
%TD*%
M02*
