%TF.GenerationSoftware,KiCad,Pcbnew,7.0.6*%
%TF.CreationDate,2023-08-28T12:52:06+01:00*%
%TF.ProjectId,FamiCartFlex,46616d69-4361-4727-9446-6c65782e6b69,rev?*%
%TF.SameCoordinates,Original*%
%TF.FileFunction,Copper,L2,Bot*%
%TF.FilePolarity,Positive*%
%FSLAX46Y46*%
G04 Gerber Fmt 4.6, Leading zero omitted, Abs format (unit mm)*
G04 Created by KiCad (PCBNEW 7.0.6) date 2023-08-28 12:52:06*
%MOMM*%
%LPD*%
G01*
G04 APERTURE LIST*
G04 Aperture macros list*
%AMRoundRect*
0 Rectangle with rounded corners*
0 $1 Rounding radius*
0 $2 $3 $4 $5 $6 $7 $8 $9 X,Y pos of 4 corners*
0 Add a 4 corners polygon primitive as box body*
4,1,4,$2,$3,$4,$5,$6,$7,$8,$9,$2,$3,0*
0 Add four circle primitives for the rounded corners*
1,1,$1+$1,$2,$3*
1,1,$1+$1,$4,$5*
1,1,$1+$1,$6,$7*
1,1,$1+$1,$8,$9*
0 Add four rect primitives between the rounded corners*
20,1,$1+$1,$2,$3,$4,$5,0*
20,1,$1+$1,$4,$5,$6,$7,0*
20,1,$1+$1,$6,$7,$8,$9,0*
20,1,$1+$1,$8,$9,$2,$3,0*%
%AMFreePoly0*
4,1,19,0.500000,-0.750000,0.000000,-0.750000,0.000000,-0.744911,-0.071157,-0.744911,-0.207708,-0.704816,-0.327430,-0.627875,-0.420627,-0.520320,-0.479746,-0.390866,-0.500000,-0.250000,-0.500000,0.250000,-0.479746,0.390866,-0.420627,0.520320,-0.327430,0.627875,-0.207708,0.704816,-0.071157,0.744911,0.000000,0.744911,0.000000,0.750000,0.500000,0.750000,0.500000,-0.750000,0.500000,-0.750000,
$1*%
%AMFreePoly1*
4,1,19,0.000000,0.744911,0.071157,0.744911,0.207708,0.704816,0.327430,0.627875,0.420627,0.520320,0.479746,0.390866,0.500000,0.250000,0.500000,-0.250000,0.479746,-0.390866,0.420627,-0.520320,0.327430,-0.627875,0.207708,-0.704816,0.071157,-0.744911,0.000000,-0.744911,0.000000,-0.750000,-0.500000,-0.750000,-0.500000,0.750000,0.000000,0.750000,0.000000,0.744911,0.000000,0.744911,
$1*%
%AMFreePoly2*
4,1,19,0.550000,-0.750000,0.000000,-0.750000,0.000000,-0.744911,-0.071157,-0.744911,-0.207708,-0.704816,-0.327430,-0.627875,-0.420627,-0.520320,-0.479746,-0.390866,-0.500000,-0.250000,-0.500000,0.250000,-0.479746,0.390866,-0.420627,0.520320,-0.327430,0.627875,-0.207708,0.704816,-0.071157,0.744911,0.000000,0.744911,0.000000,0.750000,0.550000,0.750000,0.550000,-0.750000,0.550000,-0.750000,
$1*%
%AMFreePoly3*
4,1,19,0.000000,0.744911,0.071157,0.744911,0.207708,0.704816,0.327430,0.627875,0.420627,0.520320,0.479746,0.390866,0.500000,0.250000,0.500000,-0.250000,0.479746,-0.390866,0.420627,-0.520320,0.327430,-0.627875,0.207708,-0.704816,0.071157,-0.744911,0.000000,-0.744911,0.000000,-0.750000,-0.550000,-0.750000,-0.550000,0.750000,0.000000,0.750000,0.000000,0.744911,0.000000,0.744911,
$1*%
G04 Aperture macros list end*
%TA.AperFunction,ComponentPad*%
%ADD10C,1.400000*%
%TD*%
%TA.AperFunction,ComponentPad*%
%ADD11O,1.400000X1.400000*%
%TD*%
%TA.AperFunction,ComponentPad*%
%ADD12O,2.200000X2.200000*%
%TD*%
%TA.AperFunction,ComponentPad*%
%ADD13R,2.200000X2.200000*%
%TD*%
%TA.AperFunction,ComponentPad*%
%ADD14R,1.600000X1.600000*%
%TD*%
%TA.AperFunction,ComponentPad*%
%ADD15O,1.600000X1.600000*%
%TD*%
%TA.AperFunction,ComponentPad*%
%ADD16R,1.422400X1.422400*%
%TD*%
%TA.AperFunction,ComponentPad*%
%ADD17C,1.422400*%
%TD*%
%TA.AperFunction,SMDPad,CuDef*%
%ADD18R,2.600000X6.810000*%
%TD*%
%TA.AperFunction,SMDPad,CuDef*%
%ADD19R,1.600000X6.820000*%
%TD*%
%TA.AperFunction,SMDPad,CuDef*%
%ADD20R,1.620000X6.820000*%
%TD*%
%TA.AperFunction,SMDPad,CuDef*%
%ADD21FreePoly0,0.000000*%
%TD*%
%TA.AperFunction,SMDPad,CuDef*%
%ADD22FreePoly1,0.000000*%
%TD*%
%TA.AperFunction,SMDPad,CuDef*%
%ADD23RoundRect,0.250000X0.475000X-0.337500X0.475000X0.337500X-0.475000X0.337500X-0.475000X-0.337500X0*%
%TD*%
%TA.AperFunction,SMDPad,CuDef*%
%ADD24FreePoly2,180.000000*%
%TD*%
%TA.AperFunction,SMDPad,CuDef*%
%ADD25R,1.000000X1.500000*%
%TD*%
%TA.AperFunction,SMDPad,CuDef*%
%ADD26FreePoly3,180.000000*%
%TD*%
%TA.AperFunction,SMDPad,CuDef*%
%ADD27RoundRect,0.250000X-0.337500X-0.475000X0.337500X-0.475000X0.337500X0.475000X-0.337500X0.475000X0*%
%TD*%
%TA.AperFunction,SMDPad,CuDef*%
%ADD28FreePoly2,270.000000*%
%TD*%
%TA.AperFunction,SMDPad,CuDef*%
%ADD29R,1.500000X1.000000*%
%TD*%
%TA.AperFunction,SMDPad,CuDef*%
%ADD30FreePoly3,270.000000*%
%TD*%
%TA.AperFunction,SMDPad,CuDef*%
%ADD31FreePoly2,0.000000*%
%TD*%
%TA.AperFunction,SMDPad,CuDef*%
%ADD32FreePoly3,0.000000*%
%TD*%
%TA.AperFunction,SMDPad,CuDef*%
%ADD33RoundRect,0.250000X-0.475000X0.337500X-0.475000X-0.337500X0.475000X-0.337500X0.475000X0.337500X0*%
%TD*%
%TA.AperFunction,SMDPad,CuDef*%
%ADD34FreePoly0,90.000000*%
%TD*%
%TA.AperFunction,SMDPad,CuDef*%
%ADD35FreePoly1,90.000000*%
%TD*%
%TA.AperFunction,ViaPad*%
%ADD36C,0.800000*%
%TD*%
%TA.AperFunction,Conductor*%
%ADD37C,0.250000*%
%TD*%
%TA.AperFunction,Conductor*%
%ADD38C,0.500000*%
%TD*%
%TA.AperFunction,Conductor*%
%ADD39C,0.700000*%
%TD*%
G04 APERTURE END LIST*
D10*
%TO.P,R1,1*%
%TO.N,/r.4*%
X76490000Y-70020000D03*
D11*
%TO.P,R1,2*%
%TO.N,/bA4*%
X73950000Y-70020000D03*
%TD*%
D12*
%TO.P,D1,2,A*%
%TO.N,/cA14*%
X76090000Y-60950000D03*
D13*
%TO.P,D1,1,K*%
%TO.N,/bA4*%
X73550000Y-60950000D03*
%TD*%
D14*
%TO.P,U4,1,D2*%
%TO.N,/cD5*%
X70650000Y-77400000D03*
D15*
%TO.P,U4,2,D3*%
%TO.N,/cD6*%
X70650000Y-74860000D03*
%TO.P,U4,3,D4*%
%TO.N,/cD7*%
X70650000Y-72320000D03*
%TO.P,U4,4,Rb*%
%TO.N,GND*%
X70650000Y-69780000D03*
%TO.P,U4,5,Ra*%
%TO.N,Net-(JP6-C)*%
X70650000Y-67240000D03*
%TO.P,U4,6,Q4*%
%TO.N,/r.7*%
X70650000Y-64700000D03*
%TO.P,U4,7,Q3*%
%TO.N,/r.6*%
X70650000Y-62160000D03*
%TO.P,U4,8,GND*%
%TO.N,GND*%
X70650000Y-59620000D03*
%TO.P,U4,9,Q2*%
%TO.N,/r.5*%
X63030000Y-59620000D03*
%TO.P,U4,10,Q1*%
%TO.N,/r.4*%
X63030000Y-62160000D03*
%TO.P,U4,11,~{Er}*%
%TO.N,Net-(JP7-C)*%
X63030000Y-64700000D03*
%TO.P,U4,12,~{Ew}*%
%TO.N,/~{ROMSEL}*%
X63030000Y-67240000D03*
%TO.P,U4,13,Wb*%
%TO.N,/R~{W}*%
X63030000Y-69780000D03*
%TO.P,U4,14,Wa*%
%TO.N,Net-(JP8-C)*%
X63030000Y-72320000D03*
%TO.P,U4,15,D1*%
%TO.N,/cD4*%
X63030000Y-74860000D03*
%TO.P,U4,16,VCC*%
%TO.N,VCC*%
X63030000Y-77400000D03*
%TD*%
D14*
%TO.P,U5,1,A14*%
%TO.N,/bA6*%
X83570000Y-76640000D03*
D15*
%TO.P,U5,2,A12*%
%TO.N,/chr12*%
X86110000Y-76640000D03*
%TO.P,U5,3,A7*%
%TO.N,/pA7*%
X88650000Y-76640000D03*
%TO.P,U5,4,A6*%
%TO.N,/pA6*%
X91190000Y-76640000D03*
%TO.P,U5,5,A5*%
%TO.N,/pA5*%
X93730000Y-76640000D03*
%TO.P,U5,6,A4*%
%TO.N,/pA4*%
X96270000Y-76640000D03*
%TO.P,U5,7,A3*%
%TO.N,/pA3*%
X98810000Y-76640000D03*
%TO.P,U5,8,A2*%
%TO.N,/pA2*%
X101350000Y-76640000D03*
%TO.P,U5,9,A1*%
%TO.N,/pA1*%
X103890000Y-76640000D03*
%TO.P,U5,10,A0*%
%TO.N,/pA0*%
X106430000Y-76640000D03*
%TO.P,U5,11,Q0*%
%TO.N,/pD0*%
X108970000Y-76640000D03*
%TO.P,U5,12,Q1*%
%TO.N,/pD1*%
X111510000Y-76640000D03*
%TO.P,U5,13,Q2*%
%TO.N,/pD2*%
X114050000Y-76640000D03*
%TO.P,U5,14,GND*%
%TO.N,GND*%
X116590000Y-76640000D03*
%TO.P,U5,15,Q3*%
%TO.N,/pD3*%
X116590000Y-61400000D03*
%TO.P,U5,16,Q4*%
%TO.N,/pD4*%
X114050000Y-61400000D03*
%TO.P,U5,17,Q5*%
%TO.N,/pD5*%
X111510000Y-61400000D03*
%TO.P,U5,18,Q6*%
%TO.N,/pD6*%
X108970000Y-61400000D03*
%TO.P,U5,19,Q7*%
%TO.N,/pD7*%
X106430000Y-61400000D03*
%TO.P,U5,20,~{CS}*%
%TO.N,Net-(JP9-C)*%
X103890000Y-61400000D03*
%TO.P,U5,21,A10*%
%TO.N,/pA10*%
X101350000Y-61400000D03*
%TO.P,U5,22,~{OE}*%
%TO.N,/~{pRD}*%
X98810000Y-61400000D03*
%TO.P,U5,23,A11*%
%TO.N,/pA11*%
X96270000Y-61400000D03*
%TO.P,U5,24,A9*%
%TO.N,/pA9*%
X93730000Y-61400000D03*
%TO.P,U5,25,A8*%
%TO.N,/pA8*%
X91190000Y-61400000D03*
%TO.P,U5,26,A13*%
%TO.N,/bA5*%
X88650000Y-61400000D03*
%TO.P,U5,27,~{WE}*%
%TO.N,/~{pWR}*%
X86110000Y-61400000D03*
%TO.P,U5,28,VCC*%
%TO.N,VCC*%
X83570000Y-61400000D03*
%TD*%
D16*
%TO.P,U1,1,A18*%
%TO.N,Net-(JP2-C)*%
X40820000Y-63800000D03*
D17*
%TO.P,U1,2,A16*%
%TO.N,/bA2*%
X38280000Y-61260000D03*
%TO.P,U1,3,A15*%
%TO.N,/bA1*%
X38280000Y-63800000D03*
%TO.P,U1,4,A12*%
%TO.N,Net-(H1-cA12)*%
X35740000Y-61260000D03*
%TO.P,U1,5,A7*%
%TO.N,Net-(H1-cA7)*%
X33200000Y-63800000D03*
%TO.P,U1,6,A6*%
%TO.N,Net-(H1-cA6)*%
X35740000Y-63800000D03*
%TO.P,U1,7,A5*%
%TO.N,Net-(H1-cA5)*%
X33200000Y-66340000D03*
%TO.P,U1,8,A4*%
%TO.N,Net-(H1-cA4)*%
X35740000Y-66340000D03*
%TO.P,U1,9,A3*%
%TO.N,Net-(H1-cA3)*%
X33200000Y-68880000D03*
%TO.P,U1,10,A2*%
%TO.N,Net-(H1-cA2)*%
X35740000Y-68880000D03*
%TO.P,U1,11,A1*%
%TO.N,Net-(H1-cA1)*%
X33200000Y-71420000D03*
%TO.P,U1,12,A0*%
%TO.N,Net-(H1-cA0)*%
X35740000Y-71420000D03*
%TO.P,U1,13,D0*%
%TO.N,/cD0*%
X33200000Y-73960000D03*
%TO.P,U1,14,D1*%
%TO.N,/cD1*%
X35740000Y-76500000D03*
%TO.P,U1,15,D2*%
%TO.N,/cD2*%
X35740000Y-73960000D03*
%TO.P,U1,16,VSS*%
%TO.N,GND*%
X38280000Y-76500000D03*
%TO.P,U1,17,D3*%
%TO.N,/cD3*%
X38280000Y-73960000D03*
%TO.P,U1,18,D4*%
%TO.N,/cD4*%
X40820000Y-76500000D03*
%TO.P,U1,19,D5*%
%TO.N,/cD5*%
X40820000Y-73960000D03*
%TO.P,U1,20,D6*%
%TO.N,/cD6*%
X43360000Y-76500000D03*
%TO.P,U1,21,D7*%
%TO.N,/cD7*%
X45900000Y-73960000D03*
%TO.P,U1,22,~{CE}*%
%TO.N,/~{ROMSEL}*%
X43360000Y-73960000D03*
%TO.P,U1,23,A10*%
%TO.N,Net-(H1-cA10)*%
X45900000Y-71420000D03*
%TO.P,U1,24,~{OE}*%
%TO.N,/~{ROMSEL}*%
X43360000Y-71420000D03*
%TO.P,U1,25,A11*%
%TO.N,Net-(H1-cA11)*%
X45900000Y-68880000D03*
%TO.P,U1,26,A9*%
%TO.N,Net-(H1-cA9)*%
X43360000Y-68880000D03*
%TO.P,U1,27,A8*%
%TO.N,Net-(H1-cA8)*%
X45900000Y-66340000D03*
%TO.P,U1,28,A13*%
%TO.N,Net-(H1-cA13)*%
X43360000Y-66340000D03*
%TO.P,U1,29,A14*%
%TO.N,/bA0*%
X45900000Y-63800000D03*
%TO.P,U1,30,A17*%
%TO.N,/bA3*%
X43360000Y-61260000D03*
%TO.P,U1,31,~{WE}*%
%TO.N,VCC*%
X43360000Y-63800000D03*
%TO.P,U1,32,VDD*%
X40820000Y-61260000D03*
%TD*%
D18*
%TO.P,H1,31,VCC*%
%TO.N,VCC*%
X37670000Y-87495000D03*
D19*
%TO.P,H1,32,M2*%
%TO.N,unconnected-(H1-M2-Pad32)*%
X40500000Y-87490000D03*
%TO.P,H1,33,cA12*%
%TO.N,Net-(H1-cA12)*%
X43040000Y-87490000D03*
D20*
%TO.P,H1,34,cA13*%
%TO.N,Net-(H1-cA13)*%
X45590000Y-87490000D03*
D19*
%TO.P,H1,35,cA14*%
%TO.N,/cA14*%
X48120000Y-87490000D03*
%TO.P,H1,36,cD7*%
%TO.N,/cD7*%
X50660000Y-87490000D03*
%TO.P,H1,37,cD6*%
%TO.N,/cD6*%
X53200000Y-87490000D03*
%TO.P,H1,38,cD5*%
%TO.N,/cD5*%
X55740000Y-87490000D03*
%TO.P,H1,39,cD4*%
%TO.N,/cD4*%
X58280000Y-87490000D03*
%TO.P,H1,40,cD3*%
%TO.N,/cD3*%
X60820000Y-87490000D03*
%TO.P,H1,41,cD2*%
%TO.N,/cD2*%
X63360000Y-87490000D03*
%TO.P,H1,42,cD1*%
%TO.N,/cD1*%
X65900000Y-87490000D03*
%TO.P,H1,43,cD0*%
%TO.N,/cD0*%
X68440000Y-87490000D03*
D20*
%TO.P,H1,44,~{ROMSEL}*%
%TO.N,/~{ROMSEL}*%
X70990000Y-87490000D03*
D19*
%TO.P,H1,45,cAUDIO*%
%TO.N,Net-(H1-cAUDIO)*%
X73520000Y-87490000D03*
%TO.P,H1,46,rfAUDIO*%
X76060000Y-87490000D03*
%TO.P,H1,47,p~{WR}*%
%TO.N,/~{pWR}*%
X78600000Y-87490000D03*
%TO.P,H1,48,vram~{CE}*%
%TO.N,Net-(H1-vram~{CE})*%
X81140000Y-87490000D03*
%TO.P,H1,49,p~{A13}*%
%TO.N,Net-(H1-p~{A13})*%
X83680000Y-87490000D03*
%TO.P,H1,50,pA7*%
%TO.N,/pA7*%
X86220000Y-87490000D03*
%TO.P,H1,51,pA8*%
%TO.N,/pA8*%
X88760000Y-87490000D03*
%TO.P,H1,52,pA9*%
%TO.N,/pA9*%
X91300000Y-87490000D03*
%TO.P,H1,53,pA10*%
%TO.N,/pA10*%
X93840000Y-87490000D03*
%TO.P,H1,54,pA11*%
%TO.N,/pA11*%
X96380000Y-87490000D03*
%TO.P,H1,55,pA12*%
%TO.N,/pA12*%
X98920000Y-87490000D03*
%TO.P,H1,56,pD13*%
%TO.N,/pA13*%
X101460000Y-87490000D03*
%TO.P,H1,57,pD7*%
%TO.N,/pD7*%
X104000000Y-87490000D03*
%TO.P,H1,58,pD6*%
%TO.N,/pD6*%
X106540000Y-87490000D03*
%TO.P,H1,59,pD5*%
%TO.N,/pD5*%
X109080000Y-87490000D03*
%TO.P,H1,60,pD4*%
%TO.N,/pD4*%
X111840000Y-87490000D03*
%TD*%
D14*
%TO.P,RN1,1,common*%
%TO.N,VCC*%
X79450000Y-59850000D03*
D15*
%TO.P,RN1,2,R1*%
%TO.N,/bA0*%
X79450000Y-62390000D03*
%TO.P,RN1,3,R2*%
%TO.N,/bA1*%
X79450000Y-64930000D03*
%TO.P,RN1,4,R3*%
%TO.N,/bA2*%
X79450000Y-67470000D03*
%TO.P,RN1,5,R4*%
%TO.N,/bA3*%
X79450000Y-70010000D03*
%TO.P,RN1,6,R5*%
%TO.N,/bA4*%
X79450000Y-72550000D03*
%TO.P,RN1,7,R6*%
%TO.N,/bA5*%
X79450000Y-75090000D03*
%TO.P,RN1,8,R7*%
%TO.N,/bA6*%
X79450000Y-77630000D03*
%TO.P,RN1,9,R8*%
%TO.N,/bA7*%
X79450000Y-80170000D03*
%TD*%
D16*
%TO.P,U2,1,A18*%
%TO.N,GND*%
X97540000Y-67730000D03*
D17*
%TO.P,U2,2,A16*%
%TO.N,/bA7*%
X95000000Y-70270000D03*
%TO.P,U2,3,A15*%
%TO.N,/bA6*%
X97540000Y-70270000D03*
%TO.P,U2,4,A12*%
%TO.N,/pA12*%
X95000000Y-72810000D03*
%TO.P,U2,5,A7*%
%TO.N,/pA7*%
X97540000Y-75350000D03*
%TO.P,U2,6,A6*%
%TO.N,/pA6*%
X97540000Y-72810000D03*
%TO.P,U2,7,A5*%
%TO.N,/pA5*%
X100080000Y-75350000D03*
%TO.P,U2,8,A4*%
%TO.N,/pA4*%
X100080000Y-72810000D03*
%TO.P,U2,9,A3*%
%TO.N,/pA3*%
X102620000Y-75350000D03*
%TO.P,U2,10,A2*%
%TO.N,/pA2*%
X102620000Y-72810000D03*
%TO.P,U2,11,A1*%
%TO.N,/pA1*%
X105160000Y-75350000D03*
%TO.P,U2,12,A0*%
%TO.N,/pA0*%
X105160000Y-72810000D03*
%TO.P,U2,13,D0*%
%TO.N,/pD0*%
X107700000Y-75350000D03*
%TO.P,U2,14,D1*%
%TO.N,/pD1*%
X110240000Y-72810000D03*
%TO.P,U2,15,D2*%
%TO.N,/pD2*%
X107700000Y-72810000D03*
%TO.P,U2,16,VSS*%
%TO.N,GND*%
X110240000Y-70270000D03*
%TO.P,U2,17,D3*%
%TO.N,/pD3*%
X107700000Y-70270000D03*
%TO.P,U2,18,D4*%
%TO.N,/pD4*%
X110240000Y-67730000D03*
%TO.P,U2,19,D5*%
%TO.N,/pD5*%
X107700000Y-67730000D03*
%TO.P,U2,20,D6*%
%TO.N,/pD6*%
X110240000Y-65190000D03*
%TO.P,U2,21,D7*%
%TO.N,/pD7*%
X107700000Y-62650000D03*
%TO.P,U2,22,~{CE}*%
%TO.N,/pA13*%
X107700000Y-65190000D03*
%TO.P,U2,23,A10*%
%TO.N,/pA10*%
X105160000Y-62650000D03*
%TO.P,U2,24,~{OE}*%
%TO.N,/~{pRD}*%
X105160000Y-65190000D03*
%TO.P,U2,25,A11*%
%TO.N,/pA11*%
X102620000Y-62650000D03*
%TO.P,U2,26,A9*%
%TO.N,/pA9*%
X102620000Y-65190000D03*
%TO.P,U2,27,A8*%
%TO.N,/pA8*%
X100080000Y-62650000D03*
%TO.P,U2,28,A13*%
%TO.N,/chr12*%
X100080000Y-65190000D03*
%TO.P,U2,29,A14*%
%TO.N,/bA5*%
X97540000Y-62650000D03*
%TO.P,U2,30,A17*%
%TO.N,GND*%
X95000000Y-65190000D03*
%TO.P,U2,31,~{WE}*%
%TO.N,/~{pWR}*%
X97540000Y-65190000D03*
%TO.P,U2,32,VDD*%
%TO.N,VCC*%
X95000000Y-67730000D03*
%TD*%
D14*
%TO.P,U3,1,D2*%
%TO.N,/cD1*%
X58850000Y-77500000D03*
D15*
%TO.P,U3,2,D3*%
%TO.N,/cD2*%
X58850000Y-74960000D03*
%TO.P,U3,3,D4*%
%TO.N,/cD3*%
X58850000Y-72420000D03*
%TO.P,U3,4,Rb*%
%TO.N,GND*%
X58850000Y-69880000D03*
%TO.P,U3,5,Ra*%
%TO.N,Net-(JP8-C)*%
X58850000Y-67340000D03*
%TO.P,U3,6,Q4*%
%TO.N,/bA3*%
X58850000Y-64800000D03*
%TO.P,U3,7,Q3*%
%TO.N,/bA2*%
X58850000Y-62260000D03*
%TO.P,U3,8,GND*%
%TO.N,GND*%
X58850000Y-59720000D03*
%TO.P,U3,9,Q2*%
%TO.N,/bA1*%
X51230000Y-59720000D03*
%TO.P,U3,10,Q1*%
%TO.N,/bA0*%
X51230000Y-62260000D03*
%TO.P,U3,11,~{Er}*%
%TO.N,Net-(JP3-C)*%
X51230000Y-64800000D03*
%TO.P,U3,12,~{Ew}*%
%TO.N,/~{ROMSEL}*%
X51230000Y-67340000D03*
%TO.P,U3,13,Wb*%
%TO.N,/R~{W}*%
X51230000Y-69880000D03*
%TO.P,U3,14,Wa*%
%TO.N,Net-(JP8-C)*%
X51230000Y-72420000D03*
%TO.P,U3,15,D1*%
%TO.N,/cD0*%
X51230000Y-74960000D03*
%TO.P,U3,16,VCC*%
%TO.N,VCC*%
X51230000Y-77500000D03*
%TD*%
D21*
%TO.P,J53,1,A*%
%TO.N,/r.7*%
X75000000Y-80162400D03*
D22*
%TO.P,J53,2,B*%
%TO.N,/bA7*%
X76300000Y-80162400D03*
%TD*%
D23*
%TO.P,C3,1*%
%TO.N,VCC*%
X64973200Y-77237500D03*
%TO.P,C3,2*%
%TO.N,GND*%
X64973200Y-75162500D03*
%TD*%
D24*
%TO.P,JP7,1,A*%
%TO.N,/pA13*%
X105206800Y-70358000D03*
D25*
%TO.P,JP7,2,C*%
%TO.N,Net-(JP7-C)*%
X103906800Y-70358000D03*
D26*
%TO.P,JP7,3,B*%
%TO.N,GND*%
X102606800Y-70358000D03*
%TD*%
D23*
%TO.P,C2,1*%
%TO.N,VCC*%
X53695600Y-76606400D03*
%TO.P,C2,2*%
%TO.N,GND*%
X53695600Y-74531400D03*
%TD*%
D27*
%TO.P,C4,1*%
%TO.N,VCC*%
X83616800Y-59080400D03*
%TO.P,C4,2*%
%TO.N,GND*%
X85691800Y-59080400D03*
%TD*%
D24*
%TO.P,JP2,1,A*%
%TO.N,/bA4*%
X41330400Y-66151500D03*
D25*
%TO.P,JP2,2,C*%
%TO.N,Net-(JP2-C)*%
X40030400Y-66151500D03*
D26*
%TO.P,JP2,3,B*%
%TO.N,/cA14*%
X38730400Y-66151500D03*
%TD*%
D21*
%TO.P,JP1,1,A*%
%TO.N,Net-(H1-vram~{CE})*%
X81750000Y-82850000D03*
D22*
%TO.P,JP1,2,B*%
%TO.N,Net-(H1-p~{A13})*%
X83050000Y-82850000D03*
%TD*%
D24*
%TO.P,JP12,1,A*%
%TO.N,/pA13*%
X74800000Y-75000000D03*
D25*
%TO.P,JP12,2,C*%
%TO.N,/bA5*%
X73500000Y-75000000D03*
D26*
%TO.P,JP12,3,B*%
%TO.N,/r.5*%
X72200000Y-75000000D03*
%TD*%
D24*
%TO.P,JP8,1,A*%
%TO.N,GND*%
X55605200Y-72298300D03*
D25*
%TO.P,JP8,2,C*%
%TO.N,Net-(JP8-C)*%
X54305200Y-72298300D03*
D26*
%TO.P,JP8,3,B*%
%TO.N,/cA14*%
X53005200Y-72298300D03*
%TD*%
D28*
%TO.P,JP5,1,A*%
%TO.N,/r.4*%
X86115900Y-72004400D03*
D29*
%TO.P,JP5,2,C*%
%TO.N,/chr12*%
X86115900Y-73304400D03*
D30*
%TO.P,JP5,3,B*%
%TO.N,/pA12*%
X86115900Y-74604400D03*
%TD*%
D31*
%TO.P,JP6,1,A*%
%TO.N,GND*%
X73800000Y-72300000D03*
D25*
%TO.P,JP6,2,C*%
%TO.N,Net-(JP6-C)*%
X75100000Y-72300000D03*
D32*
%TO.P,JP6,3,B*%
%TO.N,/pA12*%
X76400000Y-72300000D03*
%TD*%
D33*
%TO.P,C1,1*%
%TO.N,VCC*%
X47650400Y-63072100D03*
%TO.P,C1,2*%
%TO.N,GND*%
X47650400Y-65147100D03*
%TD*%
D24*
%TO.P,JP10,1,A*%
%TO.N,GND*%
X85800000Y-80250000D03*
D25*
%TO.P,JP10,2,C*%
%TO.N,Net-(H1-vramA10)*%
X84500000Y-80250000D03*
D26*
%TO.P,JP10,3,B*%
%TO.N,/r.7*%
X83200000Y-80250000D03*
%TD*%
D33*
%TO.P,C5,1*%
%TO.N,VCC*%
X93218000Y-67927400D03*
%TO.P,C5,2*%
%TO.N,GND*%
X93218000Y-70002400D03*
%TD*%
D34*
%TO.P,J1,1,A*%
%TO.N,Net-(H1-vramA10)*%
X83250000Y-73954400D03*
D35*
%TO.P,J1,2,B*%
%TO.N,/r.4*%
X83250000Y-72654400D03*
%TD*%
D21*
%TO.P,J52,1,A*%
%TO.N,/r.6*%
X72500000Y-77622400D03*
D22*
%TO.P,J52,2,B*%
%TO.N,/bA6*%
X73800000Y-77622400D03*
%TD*%
D31*
%TO.P,JP3,1,A*%
%TO.N,/cA14*%
X53005200Y-69748400D03*
D25*
%TO.P,JP3,2,C*%
%TO.N,Net-(JP3-C)*%
X54305200Y-69748400D03*
D32*
%TO.P,JP3,3,B*%
%TO.N,GND*%
X55605200Y-69748400D03*
%TD*%
D28*
%TO.P,JP11,1,A*%
%TO.N,/r.5*%
X77250000Y-74950000D03*
D29*
%TO.P,JP11,2,C*%
%TO.N,Net-(H1-vramA10)*%
X77250000Y-76250000D03*
D30*
%TO.P,JP11,3,B*%
%TO.N,/r.6*%
X77250000Y-77550000D03*
%TD*%
D24*
%TO.P,JP9,1,A*%
%TO.N,/pA13*%
X105186000Y-67818000D03*
D25*
%TO.P,JP9,2,C*%
%TO.N,Net-(JP9-C)*%
X103886000Y-67818000D03*
D26*
%TO.P,JP9,3,B*%
%TO.N,GND*%
X102586000Y-67818000D03*
%TD*%
D24*
%TO.P,JP4,1,A*%
%TO.N,/pA11*%
X96427600Y-82600800D03*
D25*
%TO.P,JP4,2,C*%
%TO.N,Net-(H1-vramA10)*%
X95127600Y-82600800D03*
D26*
%TO.P,JP4,3,B*%
%TO.N,/pA10*%
X93827600Y-82600800D03*
%TD*%
D36*
%TO.N,GND*%
X73771712Y-72699500D03*
%TO.N,Net-(JP6-C)*%
X75250500Y-71714696D03*
%TO.N,/bA1*%
X77900000Y-58850000D03*
%TO.N,/bA4*%
X77600500Y-72494828D03*
%TO.N,/r.4*%
X71949750Y-64024250D03*
%TO.N,Net-(H1-cA11)*%
X40500000Y-83480498D03*
X40182800Y-70104000D03*
%TO.N,/~{pWR}*%
X84707300Y-64465200D03*
X86156800Y-65735200D03*
%TO.N,GND*%
X67700000Y-76800000D03*
X67056000Y-69799200D03*
X56600000Y-73100000D03*
X37338000Y-67056000D03*
X66548000Y-59669500D03*
X90400000Y-83019400D03*
X101500000Y-71100000D03*
X112877600Y-77921100D03*
X92679000Y-66579000D03*
X81549139Y-79207051D03*
X66497200Y-64516000D03*
X87172800Y-68477300D03*
X87675500Y-79925796D03*
X31115000Y-63754000D03*
X67462400Y-71882000D03*
X44677348Y-69352295D03*
X112600000Y-58600000D03*
X119176800Y-73355200D03*
X68732400Y-64465200D03*
X85800000Y-80250000D03*
X64922400Y-72796400D03*
X92800000Y-64000000D03*
X91910500Y-70270000D03*
X85385500Y-63283000D03*
X81549500Y-80674500D03*
X38354000Y-70612000D03*
X56946800Y-69088000D03*
X89500000Y-79449500D03*
X37342452Y-83432950D03*
%TO.N,Net-(H1-cA10)*%
X43600000Y-83479998D03*
X42228100Y-72199300D03*
%TO.N,Net-(H1-cA9)*%
X45512299Y-83480498D03*
%TO.N,Net-(H1-cA8)*%
X46600000Y-83479998D03*
%TO.N,Net-(H1-cA7)*%
X31104949Y-80246562D03*
%TO.N,Net-(H1-cA6)*%
X31217399Y-78967801D03*
%TO.N,Net-(H1-cA5)*%
X32380850Y-78718750D03*
%TO.N,Net-(H1-cA4)*%
X33578800Y-78227000D03*
%TO.N,Net-(H1-cA3)*%
X59757213Y-83541163D03*
X59786811Y-82028700D03*
X48024599Y-80923429D03*
X48368805Y-67384395D03*
%TO.N,Net-(H1-cA2)*%
X48113700Y-68478400D03*
X48792698Y-81607301D03*
%TO.N,Net-(H1-cA1)*%
X34798000Y-77502500D03*
%TO.N,Net-(H1-cA0)*%
X38201600Y-78536800D03*
X37033200Y-72339200D03*
%TO.N,Net-(H1-vramA10)*%
X78500000Y-76300000D03*
X84000000Y-78039502D03*
X84087701Y-82087701D03*
X83250000Y-75240498D03*
X95046800Y-79654400D03*
%TO.N,VCC*%
X44964100Y-78790800D03*
X83596586Y-68160500D03*
X81788000Y-58978800D03*
X71983600Y-81635600D03*
X64312800Y-81127600D03*
X60553600Y-77978000D03*
X45570700Y-76170700D03*
X75294000Y-82159300D03*
X49580800Y-65417100D03*
X45415200Y-61061600D03*
X39661500Y-78972786D03*
%TO.N,/~{pRD}*%
X100330000Y-60000900D03*
X77200000Y-79224500D03*
X82245200Y-59944000D03*
%TO.N,/pD0*%
X109372400Y-80873600D03*
%TO.N,/pD1*%
X110821900Y-80724500D03*
%TO.N,/pD2*%
X114096800Y-71323200D03*
%TO.N,/pD3*%
X115465000Y-69342000D03*
X117124500Y-78496353D03*
%TO.N,Net-(H1-cA12)*%
X42655072Y-62364996D03*
%TO.N,/bA0*%
X46736000Y-61772800D03*
%TO.N,/cD7*%
X49375702Y-73900700D03*
%TO.N,/cD6*%
X54400000Y-79660500D03*
X43030700Y-79778700D03*
%TO.N,/cD5*%
X41131700Y-79362900D03*
X55336148Y-78928252D03*
%TO.N,/cD4*%
X56576355Y-77894865D03*
%TO.N,/cD2*%
X61544500Y-75082400D03*
%TO.N,/cD1*%
X65938400Y-78892400D03*
X52623895Y-78760500D03*
X49380500Y-77511368D03*
%TO.N,/cD0*%
X49034666Y-74871200D03*
X69138800Y-80791900D03*
X47917700Y-79024429D03*
%TO.N,/~{ROMSEL}*%
X50052406Y-70982005D03*
%TO.N,/pD7*%
X104952800Y-78435200D03*
%TO.N,/pD6*%
X111607600Y-75082400D03*
X107797600Y-78536800D03*
%TO.N,/bA1*%
X36982400Y-59499300D03*
%TO.N,/bA4*%
X65074800Y-67818000D03*
X53543200Y-64414400D03*
X61468000Y-64668400D03*
X69138800Y-68681600D03*
%TO.N,/bA5*%
X95326898Y-63204496D03*
X89445500Y-74340500D03*
X89231847Y-64793754D03*
%TO.N,/bA6*%
X84156974Y-71286947D03*
%TO.N,/bA7*%
X85000000Y-70750000D03*
X85272747Y-78848247D03*
%TO.N,/pA13*%
X114249200Y-78435200D03*
X102074500Y-79502000D03*
X81749500Y-78161459D03*
X75750000Y-74750000D03*
X112623600Y-67360800D03*
X102250000Y-77875500D03*
X81450500Y-73557064D03*
%TO.N,/pA12*%
X81490000Y-66760000D03*
X93459995Y-71859996D03*
X88087200Y-66598800D03*
X88000000Y-71700000D03*
X97586800Y-78000000D03*
%TO.N,/pA7*%
X87420706Y-78026296D03*
%TO.N,/pA6*%
X91190000Y-81000000D03*
%TO.N,/pA5*%
X92724500Y-80378900D03*
%TO.N,/pA4*%
X96750000Y-80000000D03*
%TO.N,/pA3*%
X98704400Y-80721200D03*
%TO.N,/pA2*%
X101549200Y-80924400D03*
%TO.N,/pA1*%
X103378000Y-80352300D03*
%TO.N,/pA0*%
X106527600Y-81076800D03*
%TO.N,/cA14*%
X53136800Y-68173600D03*
X55676800Y-68034500D03*
X39296535Y-64849495D03*
X47218874Y-66634276D03*
%TO.N,Net-(JP8-C)*%
X56896000Y-72019500D03*
%TO.N,Net-(JP7-C)*%
X65518700Y-66764500D03*
X103936800Y-69189600D03*
%TO.N,/r.4*%
X85500000Y-69159500D03*
X69037200Y-62850500D03*
%TO.N,/r.7*%
X71433200Y-73566800D03*
X83245764Y-81518065D03*
X76836846Y-81648777D03*
X76966992Y-83348277D03*
X78987701Y-82987701D03*
X72390000Y-79500000D03*
%TO.N,/chr12*%
X86800744Y-75614260D03*
X93819503Y-73919503D03*
X92427042Y-72808500D03*
X87475500Y-73304400D03*
%TD*%
D37*
%TO.N,/pA11*%
X91185500Y-63487292D02*
X91247792Y-63425000D01*
X91128000Y-70627805D02*
X91185500Y-70570305D01*
X92028783Y-63425000D02*
X92478783Y-62975000D01*
X94855000Y-76174009D02*
X94195991Y-75515000D01*
X94195991Y-75515000D02*
X92292387Y-75515000D01*
X91185500Y-70570305D02*
X91185500Y-63487292D01*
X91128000Y-74350613D02*
X91128000Y-70627805D01*
X92292387Y-75515000D02*
X91128000Y-74350613D01*
X94855000Y-77105991D02*
X94855000Y-76174009D01*
X91247792Y-63425000D02*
X92028783Y-63425000D01*
X95771800Y-78022791D02*
X94855000Y-77105991D01*
X95771800Y-80047105D02*
X95771800Y-78022791D01*
X96427600Y-80702905D02*
X95771800Y-80047105D01*
X96427600Y-82600800D02*
X96427600Y-80702905D01*
X92478783Y-62975000D02*
X94531796Y-62975000D01*
X94531796Y-62975000D02*
X95595000Y-61911796D01*
%TO.N,Net-(JP6-C)*%
X75250500Y-71714696D02*
X75100000Y-71865196D01*
X75100000Y-71865196D02*
X75100000Y-72300000D01*
%TO.N,/pA12*%
X81490000Y-66760000D02*
X80785000Y-66055000D01*
X80785000Y-66055000D02*
X79045000Y-66055000D01*
X79045000Y-66055000D02*
X78325000Y-66775000D01*
X78325000Y-66775000D02*
X78325000Y-70475000D01*
X78325000Y-70475000D02*
X76350000Y-72450000D01*
%TO.N,/r.4*%
X71949750Y-64024250D02*
X71443696Y-63518196D01*
X71443696Y-63518196D02*
X69704896Y-63518196D01*
X69704896Y-63518196D02*
X69037200Y-62850500D01*
%TO.N,/r.5*%
X71775000Y-61694009D02*
X70837791Y-60756800D01*
X72750000Y-63650000D02*
X71775000Y-62675000D01*
X72750000Y-64248600D02*
X72750000Y-63650000D01*
X70837791Y-60756800D02*
X70053200Y-60756800D01*
X69923598Y-66062798D02*
X70935802Y-66062798D01*
X68224400Y-67761996D02*
X69923598Y-66062798D01*
X68224400Y-69305899D02*
X68224400Y-67761996D01*
X70935802Y-66062798D02*
X72750000Y-64248600D01*
X69987701Y-71069200D02*
X68224400Y-69305899D01*
X71122903Y-71069200D02*
X69987701Y-71069200D01*
X72200000Y-72146297D02*
X71122903Y-71069200D01*
X71775000Y-62675000D02*
X71775000Y-61694009D01*
X72200000Y-75000000D02*
X72200000Y-72146297D01*
X70053200Y-60756800D02*
X68241400Y-58945000D01*
X68241400Y-58945000D02*
X63705000Y-58945000D01*
X63705000Y-58945000D02*
X63030000Y-59620000D01*
%TO.N,/bA1*%
X77900000Y-58850000D02*
X78250000Y-59200000D01*
X78250000Y-59200000D02*
X78250000Y-63730000D01*
X78250000Y-63730000D02*
X79450000Y-64930000D01*
%TO.N,/bA4*%
X73960000Y-70250000D02*
X72500000Y-71710000D01*
X72500000Y-71710000D02*
X72500000Y-71809901D01*
X72500000Y-71809901D02*
X72650000Y-71959901D01*
X72650000Y-71959901D02*
X72650000Y-73500001D01*
X73563604Y-73475000D02*
X76641727Y-73475000D01*
X72650000Y-73500001D02*
X73074999Y-73925000D01*
X73074999Y-73925000D02*
X73113605Y-73925000D01*
X73113605Y-73925000D02*
X73563604Y-73475000D01*
X76641727Y-73475000D02*
X77225000Y-72891727D01*
X77225000Y-72891727D02*
X77225000Y-72870328D01*
X77225000Y-72870328D02*
X77545328Y-72550000D01*
X71775000Y-67772600D02*
X71438800Y-68108800D01*
X71438800Y-68108800D02*
X73980000Y-70650000D01*
X73550000Y-60950000D02*
X73550000Y-64103703D01*
X73550000Y-64103703D02*
X71775000Y-65878703D01*
X71775000Y-65878703D02*
X71775000Y-67772600D01*
%TO.N,/cA14*%
X76090000Y-60950000D02*
X76090000Y-60342000D01*
X76090000Y-60342000D02*
X74073000Y-58325000D01*
%TO.N,/~{pRD}*%
X82272300Y-67752700D02*
X81025000Y-69000000D01*
X81025000Y-69000000D02*
X81025000Y-70175000D01*
X81025000Y-70175000D02*
X79775000Y-71425000D01*
X79775000Y-71425000D02*
X78400000Y-71425000D01*
X78400000Y-71425000D02*
X78325000Y-71500000D01*
X78325000Y-73015991D02*
X78325000Y-71500000D01*
X77200000Y-79224500D02*
X77424500Y-79000000D01*
X77424500Y-79000000D02*
X79670991Y-79000000D01*
X79670991Y-79000000D02*
X80575000Y-78095991D01*
X80575000Y-78095991D02*
X80575000Y-74575000D01*
X80575000Y-74575000D02*
X79965000Y-73965000D01*
X79965000Y-73965000D02*
X79274009Y-73965000D01*
X79274009Y-73965000D02*
X78325000Y-73015991D01*
D38*
%TO.N,VCC*%
X83596586Y-68160500D02*
X83596586Y-68346586D01*
X81600000Y-70343172D02*
X81600000Y-72550000D01*
X83596586Y-68346586D02*
X81600000Y-70343172D01*
X81600000Y-72550000D02*
X81442936Y-72707064D01*
X81442936Y-72707064D02*
X81098418Y-72707064D01*
X81098418Y-72707064D02*
X80600000Y-73205482D01*
X80600000Y-73205482D02*
X80600000Y-73700000D01*
D37*
%TO.N,/pA13*%
X81450500Y-73557064D02*
X81725000Y-73831564D01*
X81725000Y-73831564D02*
X81725000Y-74482523D01*
X81725000Y-74482523D02*
X81800000Y-74557523D01*
X81800000Y-74557523D02*
X81800000Y-78110959D01*
%TO.N,Net-(H1-cA11)*%
X39316200Y-77602181D02*
X39316200Y-75061396D01*
X40500000Y-72814591D02*
X40500000Y-70421200D01*
X40500000Y-83480498D02*
X40386000Y-83366498D01*
X39783800Y-73530791D02*
X40500000Y-72814591D01*
X40386000Y-83366498D02*
X40386000Y-78671981D01*
X39783800Y-74593796D02*
X39783800Y-73530791D01*
X39316200Y-75061396D02*
X39783800Y-74593796D01*
X40500000Y-70421200D02*
X40182800Y-70104000D01*
X40386000Y-78671981D02*
X39316200Y-77602181D01*
%TO.N,/~{pWR}*%
X81225000Y-81775000D02*
X78600000Y-84400000D01*
X82375000Y-81575000D02*
X82175000Y-81775000D01*
X86110000Y-65688400D02*
X86156800Y-65735200D01*
X82175000Y-81775000D02*
X81225000Y-81775000D01*
X82665000Y-79368273D02*
X82375000Y-79658273D01*
X82175000Y-74296127D02*
X82397600Y-74518727D01*
X84707300Y-68701888D02*
X82702400Y-70706788D01*
X82397600Y-77717600D02*
X82665000Y-77985000D01*
X82175000Y-72206200D02*
X82175000Y-74296127D01*
X82702400Y-71678800D02*
X82175000Y-72206200D01*
X82702400Y-70706788D02*
X82702400Y-71678800D01*
X82665000Y-77985000D02*
X82665000Y-79368273D01*
X86110000Y-61400000D02*
X86110000Y-65688400D01*
X82397600Y-74518727D02*
X82397600Y-77717600D01*
X78600000Y-84400000D02*
X78600000Y-86930000D01*
X82375000Y-79658273D02*
X82375000Y-81575000D01*
X84707300Y-64465200D02*
X84707300Y-68701888D01*
%TO.N,GND*%
X116400000Y-78400000D02*
X116400000Y-76830000D01*
X55605200Y-72298300D02*
X56051400Y-72744500D01*
X44653200Y-69088000D02*
X44653200Y-69328147D01*
X103081800Y-71433000D02*
X102606800Y-70958000D01*
X38926600Y-78236495D02*
X38501905Y-77811800D01*
X54268200Y-66247208D02*
X54716496Y-66695504D01*
X67056000Y-71475600D02*
X67462400Y-71882000D01*
X116400000Y-76830000D02*
X116590000Y-76640000D01*
X109077000Y-71433000D02*
X103081800Y-71433000D01*
X95000000Y-64900000D02*
X94100000Y-64000000D01*
X85431800Y-63283000D02*
X84985000Y-62836200D01*
X55321200Y-72582300D02*
X55605200Y-72298300D01*
X38201600Y-75539600D02*
X38201600Y-76421600D01*
X102586000Y-67818000D02*
X101773200Y-67005200D01*
X91578000Y-74164217D02*
X91578000Y-72410216D01*
X100976809Y-64153800D02*
X101583800Y-64760791D01*
X66548000Y-59669500D02*
X66497200Y-59720300D01*
X84985000Y-62836200D02*
X84985000Y-59787200D01*
X57319700Y-72744500D02*
X57725000Y-72339200D01*
X56946800Y-69088000D02*
X55704995Y-69088000D01*
X38455600Y-77811800D02*
X38455600Y-76675600D01*
X56946800Y-69088000D02*
X56265600Y-69088000D01*
X67056000Y-69799200D02*
X67106800Y-69748400D01*
X37338000Y-69596000D02*
X38354000Y-70612000D01*
X66497200Y-59720300D02*
X66497200Y-64516000D01*
X54268200Y-64301800D02*
X54268200Y-66247208D01*
X119400000Y-73578400D02*
X119400000Y-79000000D01*
X98264800Y-67005200D02*
X97540000Y-67730000D01*
X86395800Y-58376400D02*
X112376400Y-58376400D01*
X93218000Y-70002400D02*
X91694000Y-68478400D01*
X119400000Y-62619009D02*
X115157391Y-58376400D01*
X91910500Y-72077716D02*
X91910500Y-70270000D01*
X67056000Y-69799200D02*
X67056000Y-71475600D01*
X81549139Y-80674139D02*
X81549500Y-80674500D01*
X85431800Y-66736300D02*
X85431800Y-63283000D01*
X112410000Y-79109805D02*
X112903173Y-79602978D01*
X84985000Y-59787200D02*
X85691800Y-59080400D01*
X115197022Y-79602978D02*
X116400000Y-78400000D01*
X118600000Y-79800000D02*
X117382695Y-79800000D01*
X92178100Y-70002400D02*
X91910500Y-70270000D01*
X92413783Y-75000000D02*
X91578000Y-74164217D01*
X101773200Y-67005200D02*
X98264800Y-67005200D01*
X95000000Y-65190000D02*
X95000000Y-64900000D01*
X97540000Y-68040000D02*
X99858000Y-70358000D01*
X119400000Y-73132000D02*
X119400000Y-62619009D01*
X55321200Y-74117200D02*
X55321200Y-72582300D01*
X112410000Y-78388700D02*
X112410000Y-79109805D01*
X37342452Y-83432950D02*
X37342452Y-83357548D01*
X96486200Y-72813800D02*
X94300000Y-75000000D01*
X92679000Y-66579000D02*
X94068000Y-65190000D01*
X56051400Y-72744500D02*
X56244500Y-72744500D01*
X38501905Y-77811800D02*
X38455600Y-77811800D01*
X87172800Y-68477300D02*
X85431800Y-66736300D01*
X56955500Y-72744500D02*
X57319700Y-72744500D01*
X102606800Y-70358000D02*
X102606800Y-67838800D01*
X112877600Y-77921100D02*
X112410000Y-78388700D01*
X85431800Y-63283000D02*
X85385500Y-63283000D01*
X36274000Y-58595000D02*
X31115000Y-63754000D01*
X115157391Y-58376400D02*
X112823600Y-58376400D01*
X58850000Y-59720000D02*
X54268200Y-64301800D01*
X91694000Y-68478400D02*
X91694000Y-67564000D01*
X91578000Y-72410216D02*
X91910500Y-72077716D01*
X112823600Y-58376400D02*
X112600000Y-58600000D01*
X101583800Y-66815800D02*
X102586000Y-67818000D01*
X116400000Y-78817305D02*
X116400000Y-78400000D01*
X64973200Y-75162500D02*
X64973200Y-72847200D01*
X110240000Y-70270000D02*
X109077000Y-71433000D01*
X97540000Y-67730000D02*
X97540000Y-68040000D01*
X96036200Y-64153800D02*
X100976809Y-64153800D01*
X101583800Y-64760791D02*
X101583800Y-66815800D01*
X44677348Y-69063852D02*
X44653200Y-69088000D01*
X94068000Y-65190000D02*
X95000000Y-65190000D01*
X38926600Y-81773400D02*
X38926600Y-78236495D01*
X57725000Y-58595000D02*
X36274000Y-58595000D01*
X38455600Y-76675600D02*
X38280000Y-76500000D01*
X56265600Y-69088000D02*
X55605200Y-69748400D01*
X94300000Y-75000000D02*
X92413783Y-75000000D01*
X97540000Y-67730000D02*
X96486200Y-68783800D01*
X55704995Y-69088000D02*
X54813200Y-68196205D01*
X58850000Y-59720000D02*
X57725000Y-58595000D01*
X39316200Y-74425000D02*
X38201600Y-75539600D01*
X56244500Y-72744500D02*
X56600000Y-73100000D01*
X102606800Y-67838800D02*
X102586000Y-67818000D01*
X45470791Y-65303800D02*
X44677348Y-66097243D01*
X64973200Y-72847200D02*
X64922400Y-72796400D01*
X53543200Y-74531400D02*
X54907000Y-74531400D01*
X54813200Y-66792209D02*
X54716496Y-66695504D01*
X57725000Y-71005000D02*
X58850000Y-69880000D01*
X54813200Y-68196205D02*
X54813200Y-66792209D01*
X50066200Y-63675000D02*
X48437400Y-65303800D01*
X94100000Y-64000000D02*
X92800000Y-64000000D01*
X44653200Y-69328147D02*
X44677348Y-69352295D01*
X39316200Y-71574200D02*
X39316200Y-74425000D01*
X85691800Y-59080400D02*
X86395800Y-58376400D01*
X119176800Y-73355200D02*
X119400000Y-73132000D01*
X102606800Y-70958000D02*
X102606800Y-70358000D01*
X112903173Y-79602978D02*
X115197022Y-79602978D01*
X117382695Y-79800000D02*
X116400000Y-78817305D01*
X89500000Y-79449500D02*
X89500000Y-82119400D01*
X89500000Y-82119400D02*
X90400000Y-83019400D01*
X54716496Y-66695504D02*
X51695991Y-63675000D01*
X54907000Y-74531400D02*
X55321200Y-74117200D01*
X99858000Y-70358000D02*
X102606800Y-70358000D01*
X48437400Y-65303800D02*
X45470791Y-65303800D01*
X81549139Y-79207051D02*
X81549139Y-80674139D01*
X67106800Y-66090800D02*
X68732400Y-64465200D01*
X57725000Y-72339200D02*
X57725000Y-71005000D01*
X37342452Y-83357548D02*
X38926600Y-81773400D01*
X67106800Y-69748400D02*
X67106800Y-66090800D01*
X56600000Y-73100000D02*
X56955500Y-72744500D01*
X112376400Y-58376400D02*
X112600000Y-58600000D01*
X38201600Y-76421600D02*
X38280000Y-76500000D01*
X44677348Y-66097243D02*
X44677348Y-69063852D01*
X96486200Y-68783800D02*
X96486200Y-72813800D01*
X93218000Y-70002400D02*
X92178100Y-70002400D01*
X95000000Y-65190000D02*
X96036200Y-64153800D01*
X38354000Y-70612000D02*
X39316200Y-71574200D01*
X51695991Y-63675000D02*
X50066200Y-63675000D01*
X91694000Y-67564000D02*
X92679000Y-66579000D01*
X37338000Y-67056000D02*
X37338000Y-69596000D01*
X119400000Y-79000000D02*
X118600000Y-79800000D01*
X119176800Y-73355200D02*
X119400000Y-73578400D01*
%TO.N,Net-(H1-cA10)*%
X42306200Y-77291800D02*
X42323800Y-77274200D01*
X43600000Y-83479998D02*
X42306200Y-82186198D01*
X42323800Y-77274200D02*
X42323800Y-72295000D01*
X42323800Y-72295000D02*
X42228100Y-72199300D01*
X42306200Y-82186198D02*
X42306200Y-77291800D01*
%TO.N,Net-(H1-cA9)*%
X45512299Y-83480498D02*
X44800000Y-82768199D01*
X44239600Y-77722205D02*
X44846200Y-77115605D01*
X44846200Y-70804395D02*
X43360000Y-69318195D01*
X44239600Y-80026804D02*
X44239600Y-77722205D01*
X43360000Y-69318195D02*
X43360000Y-68880000D01*
X44800000Y-80587204D02*
X44239600Y-80026804D01*
X44800000Y-82768199D02*
X44800000Y-80587204D01*
X44846200Y-77115605D02*
X44846200Y-70804395D01*
%TO.N,Net-(H1-cA8)*%
X46938700Y-68965101D02*
X46938700Y-67378700D01*
X46295700Y-77474312D02*
X46295700Y-75493112D01*
X47277406Y-69303807D02*
X46938700Y-68965101D01*
X46938700Y-67378700D02*
X45900000Y-66340000D01*
X47277406Y-73693967D02*
X47277406Y-69303807D01*
X46959666Y-74829146D02*
X46959666Y-74011707D01*
X46600000Y-83479998D02*
X46600000Y-82569322D01*
X45843200Y-77926812D02*
X46295700Y-77474312D01*
X46600000Y-82569322D02*
X45843200Y-81812522D01*
X46959666Y-74011707D02*
X47277406Y-73693967D01*
X45843200Y-81812522D02*
X45843200Y-77926812D01*
X46295700Y-75493112D02*
X46959666Y-74829146D01*
%TO.N,Net-(H1-cA7)*%
X30425000Y-66575000D02*
X33200000Y-63800000D01*
X30425000Y-79566613D02*
X30425000Y-66575000D01*
X31104949Y-80246562D02*
X30425000Y-79566613D01*
%TO.N,Net-(H1-cA6)*%
X30875000Y-67199591D02*
X33238391Y-64836200D01*
X31217399Y-78967801D02*
X30875000Y-78625402D01*
X30875000Y-78625402D02*
X30875000Y-67199591D01*
X34703800Y-64836200D02*
X35740000Y-63800000D01*
X33238391Y-64836200D02*
X34703800Y-64836200D01*
%TO.N,Net-(H1-cA5)*%
X31325000Y-77662900D02*
X31325000Y-68215000D01*
X31325000Y-68215000D02*
X33200000Y-66340000D01*
X32380850Y-78718750D02*
X31325000Y-77662900D01*
%TO.N,Net-(H1-cA4)*%
X31775000Y-76423200D02*
X31775000Y-68839591D01*
X31775000Y-68839591D02*
X33202991Y-67411600D01*
X33202991Y-67411600D02*
X34668400Y-67411600D01*
X33578800Y-78227000D02*
X31775000Y-76423200D01*
X34668400Y-67411600D02*
X35740000Y-66340000D01*
%TO.N,Net-(H1-cA3)*%
X48368805Y-67384395D02*
X48838700Y-67854290D01*
X47193200Y-80092030D02*
X48024599Y-80923429D01*
X59786811Y-82028700D02*
X59757213Y-82058298D01*
X59757213Y-82058298D02*
X59757213Y-83541163D01*
X47645700Y-76052300D02*
X47645700Y-78033500D01*
X48838700Y-67854290D02*
X48838700Y-68778704D01*
X48627406Y-68989998D02*
X48627406Y-74253155D01*
X48627406Y-74253155D02*
X48309666Y-74570895D01*
X47645700Y-78033500D02*
X47193200Y-78486000D01*
X48838700Y-68778704D02*
X48627406Y-68989998D01*
X48309666Y-74570895D02*
X48309666Y-75388334D01*
X48309666Y-75388334D02*
X47645700Y-76052300D01*
X47193200Y-78486000D02*
X47193200Y-80092030D01*
%TO.N,Net-(H1-cA2)*%
X48177406Y-68542106D02*
X48113700Y-68478400D01*
X46743200Y-78299604D02*
X47195700Y-77847104D01*
X47195700Y-77847104D02*
X47195700Y-75865904D01*
X48792698Y-81607301D02*
X48480503Y-81607301D01*
X47195700Y-75865904D02*
X47859666Y-75201938D01*
X48299804Y-81788000D02*
X47431601Y-81788000D01*
X47431601Y-81788000D02*
X46743200Y-81099599D01*
X48480503Y-81607301D02*
X48299804Y-81788000D01*
X47859666Y-74384499D02*
X48177406Y-74066759D01*
X46743200Y-81099599D02*
X46743200Y-78299604D01*
X47859666Y-75201938D02*
X47859666Y-74384499D01*
X48177406Y-74066759D02*
X48177406Y-68542106D01*
%TO.N,Net-(H1-cA1)*%
X34303800Y-76618115D02*
X34303800Y-77008300D01*
X34303800Y-77008300D02*
X34798000Y-77502500D01*
X34303800Y-72523800D02*
X34303800Y-76618115D01*
X33200000Y-71420000D02*
X34303800Y-72523800D01*
%TO.N,Net-(H1-cA0)*%
X37033200Y-77368400D02*
X38201600Y-78536800D01*
X37033200Y-72339200D02*
X37033200Y-77368400D01*
%TO.N,Net-(H1-vramA10)*%
X78500000Y-76300000D02*
X77300000Y-76300000D01*
X84087701Y-82087701D02*
X84500000Y-81675402D01*
X77300000Y-76300000D02*
X77250000Y-76250000D01*
X84500000Y-78539502D02*
X84000000Y-78039502D01*
X95046800Y-79654400D02*
X95127600Y-79735200D01*
X84500000Y-81675402D02*
X84500000Y-78539502D01*
X95127600Y-79735200D02*
X95127600Y-82600800D01*
X83250000Y-75240498D02*
X83250000Y-73800000D01*
D38*
%TO.N,VCC*%
X49936400Y-67820428D02*
X49936400Y-65772700D01*
X52480000Y-74442233D02*
X51747767Y-73710000D01*
X72226631Y-81933700D02*
X71983600Y-81690669D01*
X38192452Y-83396122D02*
X39661500Y-81927074D01*
D37*
X47342100Y-62763800D02*
X47650400Y-63072100D01*
D38*
X45415200Y-61061600D02*
X45415200Y-62638800D01*
D39*
X80321200Y-58978800D02*
X79450000Y-59850000D01*
D38*
X52425600Y-76606400D02*
X52480000Y-76552000D01*
X49202406Y-72160173D02*
X49202406Y-70629923D01*
X64810700Y-77400000D02*
X64973200Y-77237500D01*
D39*
X83570000Y-68133914D02*
X83570000Y-61400000D01*
X81788000Y-58978800D02*
X80321200Y-58978800D01*
X82623503Y-58978800D02*
X83570000Y-59925297D01*
D38*
X71983600Y-81690669D02*
X71983600Y-81635600D01*
D37*
X93218000Y-67927400D02*
X94802600Y-67927400D01*
D38*
X77319074Y-82498277D02*
X76098277Y-82498277D01*
X57426355Y-78457183D02*
X57426355Y-77492355D01*
D39*
X83570000Y-59925297D02*
X83570000Y-61400000D01*
D38*
X52425600Y-76606400D02*
X52123600Y-76606400D01*
D37*
X81025000Y-78459163D02*
X80575000Y-78909163D01*
D38*
X64312800Y-78682800D02*
X63030000Y-77400000D01*
X75759300Y-82159300D02*
X75294000Y-82159300D01*
X75294000Y-82159300D02*
X72452231Y-82159300D01*
X52480000Y-76552000D02*
X52480000Y-74442233D01*
X57426355Y-77492355D02*
X56540400Y-76606400D01*
D39*
X83515200Y-58978800D02*
X83616800Y-59080400D01*
D37*
X94802600Y-67927400D02*
X95000000Y-67730000D01*
D38*
X59856000Y-78994000D02*
X57963172Y-78994000D01*
X44521200Y-62638800D02*
X45415200Y-62638800D01*
X52123600Y-76606400D02*
X51230000Y-77500000D01*
X45570700Y-76170700D02*
X45570700Y-77386139D01*
X49477406Y-70354923D02*
X49477406Y-68279422D01*
X38192452Y-86972548D02*
X38192452Y-83396122D01*
X80593884Y-80793884D02*
X79250066Y-82137701D01*
X49936400Y-65772700D02*
X49580800Y-65417100D01*
X77420797Y-82600000D02*
X77319074Y-82498277D01*
D39*
X82499200Y-58978800D02*
X83515200Y-58978800D01*
D38*
X45570700Y-77386139D02*
X44964100Y-77992739D01*
X49202406Y-70629923D02*
X49477406Y-70354923D01*
X63030000Y-77400000D02*
X64810700Y-77400000D01*
X39661500Y-81927074D02*
X39661500Y-78972786D01*
X37670000Y-87495000D02*
X38192452Y-86972548D01*
X49477406Y-68279422D02*
X49936400Y-67820428D01*
X64312800Y-81127600D02*
X64312800Y-78682800D01*
X56540400Y-76606400D02*
X53543200Y-76606400D01*
X51747767Y-73710000D02*
X50752233Y-73710000D01*
D39*
X81788000Y-58978800D02*
X82499200Y-58978800D01*
D38*
X79250066Y-82137701D02*
X78635619Y-82137701D01*
D37*
X80600000Y-73700000D02*
X80600000Y-73929705D01*
D38*
X53543200Y-76606400D02*
X52425600Y-76606400D01*
X43360000Y-63800000D02*
X44521200Y-62638800D01*
D37*
X80600000Y-73929705D02*
X81025000Y-74354705D01*
D38*
X50752233Y-73710000D02*
X49202406Y-72160173D01*
D39*
X83596586Y-68160500D02*
X83570000Y-68133914D01*
D38*
X44964100Y-77992739D02*
X44964100Y-78790800D01*
X78635619Y-82137701D02*
X78173320Y-82600000D01*
D37*
X80575000Y-78909163D02*
X80575000Y-80775000D01*
D38*
X72452231Y-82159300D02*
X72226631Y-81933700D01*
D37*
X81025000Y-74354705D02*
X81025000Y-78459163D01*
D38*
X60553600Y-78296400D02*
X59856000Y-78994000D01*
X78173320Y-82600000D02*
X77420797Y-82600000D01*
X60553600Y-77978000D02*
X60553600Y-78296400D01*
X76098277Y-82498277D02*
X75759300Y-82159300D01*
X57963172Y-78994000D02*
X57426355Y-78457183D01*
D39*
X82499200Y-58978800D02*
X82623503Y-58978800D01*
D38*
X45415200Y-62638800D02*
X47217100Y-62638800D01*
D37*
%TO.N,/~{pRD}*%
X100209100Y-60000900D02*
X98810000Y-61400000D01*
X82272300Y-59971100D02*
X82245200Y-59944000D01*
X100330000Y-60000900D02*
X100209100Y-60000900D01*
X82272300Y-67752700D02*
X82272300Y-59971100D01*
%TO.N,/pD0*%
X108970000Y-80471200D02*
X109372400Y-80873600D01*
X108970000Y-76640000D02*
X108970000Y-80471200D01*
%TO.N,/pD1*%
X111510000Y-80036400D02*
X111510000Y-76640000D01*
X110821900Y-80724500D02*
X111510000Y-80036400D01*
%TO.N,/pD2*%
X114050000Y-76640000D02*
X114050000Y-71370000D01*
X114050000Y-71370000D02*
X114096800Y-71323200D01*
%TO.N,/pD3*%
X115465000Y-62525000D02*
X116590000Y-61400000D01*
X118000000Y-77620853D02*
X118000000Y-71877000D01*
X115465000Y-69342000D02*
X115465000Y-62525000D01*
X118000000Y-71877000D02*
X115465000Y-69342000D01*
X117124500Y-78496353D02*
X118000000Y-77620853D01*
%TO.N,Net-(H1-cA12)*%
X41873800Y-77087804D02*
X41873800Y-73548391D01*
X41856200Y-77105404D02*
X41873800Y-77087804D01*
X42323800Y-62696268D02*
X42655072Y-62364996D01*
X42800000Y-86690000D02*
X42800000Y-83400000D01*
X41873800Y-73548391D02*
X41503600Y-73178191D01*
X41503600Y-73178191D02*
X41503600Y-67395027D01*
X41503600Y-67395027D02*
X42323800Y-66574827D01*
X41856200Y-82456200D02*
X41856200Y-77105404D01*
X42323800Y-66574827D02*
X42323800Y-62696268D01*
X43040000Y-86930000D02*
X42800000Y-86690000D01*
X42800000Y-83400000D02*
X41856200Y-82456200D01*
%TO.N,/bA0*%
X46736000Y-61772800D02*
X50742800Y-61772800D01*
X50742800Y-61772800D02*
X51230000Y-62260000D01*
%TO.N,/cD7*%
X50038000Y-74320400D02*
X50038000Y-75031600D01*
X49375702Y-73900700D02*
X49618300Y-73900700D01*
X50038000Y-75031600D02*
X48615600Y-76454000D01*
X48615600Y-76454000D02*
X48615600Y-78511324D01*
X48615600Y-78511324D02*
X48768000Y-78663724D01*
X48768000Y-78663724D02*
X48768000Y-80010000D01*
X48768000Y-80010000D02*
X50660000Y-81902000D01*
X50660000Y-81902000D02*
X50660000Y-86930000D01*
X49618300Y-73900700D02*
X50038000Y-74320400D01*
%TO.N,/cD6*%
X42824400Y-79572400D02*
X42824400Y-77035600D01*
X54400000Y-79660500D02*
X53200000Y-80860500D01*
X42824400Y-77035600D02*
X43360000Y-76500000D01*
X53200000Y-80860500D02*
X53200000Y-86930000D01*
X43030700Y-79778700D02*
X42824400Y-79572400D01*
%TO.N,/cD5*%
X40820000Y-73960000D02*
X40820000Y-75034591D01*
X55336148Y-78928252D02*
X55740000Y-79332105D01*
X39783800Y-76929209D02*
X41131700Y-78277109D01*
X41131700Y-78277109D02*
X41131700Y-79362900D01*
X40820000Y-75034591D02*
X39783800Y-76070791D01*
X39783800Y-76731008D02*
X39783800Y-76929209D01*
X39783800Y-76070791D02*
X39783800Y-76731008D01*
X55740000Y-79332105D02*
X55740000Y-86930000D01*
%TO.N,/cD4*%
X56576355Y-78420355D02*
X58280000Y-80124000D01*
X56576355Y-77894865D02*
X56576355Y-78420355D01*
X58280000Y-80124000D02*
X58280000Y-86930000D01*
%TO.N,/cD3*%
X60820000Y-86930000D02*
X60800000Y-86910000D01*
X60800000Y-86910000D02*
X60800000Y-79127208D01*
X60819500Y-75382705D02*
X60819500Y-74782095D01*
X61015797Y-74585797D02*
X58850000Y-72420000D01*
X60800000Y-79127208D02*
X61455000Y-78472208D01*
X60819500Y-74782095D02*
X61015797Y-74585797D01*
X61455000Y-76018205D02*
X60819500Y-75382705D01*
X61455000Y-78472208D02*
X61455000Y-76018205D01*
%TO.N,/cD2*%
X61700000Y-78863604D02*
X61905000Y-78658604D01*
X61905000Y-78658604D02*
X61905000Y-75442900D01*
X63360000Y-83527600D02*
X61700000Y-81867600D01*
X61700000Y-81867600D02*
X61700000Y-78863604D01*
X63360000Y-86930000D02*
X63360000Y-83527600D01*
X61905000Y-75442900D02*
X61544500Y-75082400D01*
%TO.N,/cD1*%
X49380500Y-77511368D02*
X50629632Y-78760500D01*
X50629632Y-78760500D02*
X52623895Y-78760500D01*
X65900000Y-78930800D02*
X65938400Y-78892400D01*
X65900000Y-86930000D02*
X65900000Y-78930800D01*
%TO.N,/cD0*%
X49034666Y-75299730D02*
X48165600Y-76168796D01*
X48165600Y-78776529D02*
X47917700Y-79024429D01*
X69138800Y-80791900D02*
X68440000Y-81490700D01*
X49034666Y-74871200D02*
X49034666Y-75299730D01*
X68440000Y-81490700D02*
X68440000Y-86930000D01*
X48165600Y-76168796D02*
X48165600Y-78776529D01*
%TO.N,/~{ROMSEL}*%
X64516000Y-68726000D02*
X63030000Y-67240000D01*
X43360000Y-71420000D02*
X43360000Y-73960000D01*
X50052406Y-68517594D02*
X51230000Y-67340000D01*
X70980000Y-86930000D02*
X70980000Y-79260400D01*
X50052406Y-70982005D02*
X50052406Y-68517594D01*
X69525000Y-76003396D02*
X64516000Y-70994396D01*
X70244600Y-78525000D02*
X69525000Y-78525000D01*
X64516000Y-70994396D02*
X64516000Y-68726000D01*
X70980000Y-79260400D02*
X70244600Y-78525000D01*
X69525000Y-78525000D02*
X69525000Y-76003396D01*
%TO.N,Net-(H1-cA13)*%
X45580000Y-84205498D02*
X45211994Y-84205498D01*
X45211994Y-84205498D02*
X44350000Y-83343504D01*
X43789209Y-70383800D02*
X42901000Y-70383800D01*
X43789600Y-80213200D02*
X43789600Y-77535809D01*
X44350000Y-80773600D02*
X43789600Y-80213200D01*
X45580000Y-86930000D02*
X45580000Y-84205498D01*
X42323800Y-69806600D02*
X42323800Y-67376200D01*
X42323800Y-67376200D02*
X43360000Y-66340000D01*
X42901000Y-70383800D02*
X42323800Y-69806600D01*
X44396200Y-76929209D02*
X44396200Y-70990791D01*
X44350000Y-83343504D02*
X44350000Y-80773600D01*
X44396200Y-70990791D02*
X43789209Y-70383800D01*
X43789600Y-77535809D02*
X44396200Y-76929209D01*
D39*
%TO.N,Net-(H1-cAUDIO)*%
X73520000Y-83604400D02*
X74015600Y-83108800D01*
X76060000Y-83629200D02*
X76060000Y-86930000D01*
X73520000Y-86930000D02*
X73520000Y-83604400D01*
X74015600Y-83108800D02*
X75539600Y-83108800D01*
X75539600Y-83108800D02*
X76060000Y-83629200D01*
D37*
%TO.N,/pA10*%
X94900000Y-61179009D02*
X94900000Y-61820991D01*
X92289800Y-81359195D02*
X92289800Y-83399800D01*
X92000000Y-81069395D02*
X92289800Y-81359195D01*
X102907391Y-58826400D02*
X97252609Y-58826400D01*
X92289800Y-83399800D02*
X93840000Y-84950000D01*
X94900000Y-61820991D02*
X94195991Y-62525000D01*
X105160000Y-62650000D02*
X105160000Y-61079009D01*
X105160000Y-61079009D02*
X102907391Y-58826400D01*
X92292387Y-62525000D02*
X91842387Y-62975000D01*
X92315000Y-76174009D02*
X92315000Y-77685000D01*
X91842387Y-62975000D02*
X91061396Y-62975000D01*
X94195991Y-62525000D02*
X92292387Y-62525000D01*
X91061396Y-62975000D02*
X90678000Y-63358396D01*
X97252609Y-58826400D02*
X94900000Y-61179009D01*
X92315000Y-77685000D02*
X92000000Y-78000000D01*
X92000000Y-78000000D02*
X92000000Y-81069395D01*
X90678000Y-63358396D02*
X90678000Y-74537009D01*
X90678000Y-74537009D02*
X92315000Y-76174009D01*
X93840000Y-82613200D02*
X93827600Y-82600800D01*
X93840000Y-84950000D02*
X93840000Y-82613200D01*
%TO.N,/pA11*%
X102620000Y-61079009D02*
X102620000Y-62650000D01*
X96380000Y-86930000D02*
X96380000Y-82648400D01*
X98393600Y-59276400D02*
X100817391Y-59276400D01*
X96270000Y-61400000D02*
X98393600Y-59276400D01*
X96380000Y-82648400D02*
X96427600Y-82600800D01*
X100817391Y-59276400D02*
X102620000Y-61079009D01*
%TO.N,Net-(H1-p~{A13})*%
X83680000Y-86930000D02*
X83680000Y-83480000D01*
X83680000Y-83480000D02*
X83050000Y-82850000D01*
%TO.N,/pD7*%
X104340000Y-80415605D02*
X104000000Y-80755605D01*
X106450000Y-61400000D02*
X107700000Y-62650000D01*
X106430000Y-61400000D02*
X106450000Y-61400000D01*
X104952800Y-78435200D02*
X104340000Y-79048000D01*
X104000000Y-80755605D02*
X104000000Y-86930000D01*
X104340000Y-79048000D02*
X104340000Y-80415605D01*
%TO.N,/pD6*%
X110095000Y-60275000D02*
X108970000Y-61400000D01*
X109203800Y-66226200D02*
X110240000Y-65190000D01*
X107797600Y-82602400D02*
X107797600Y-78536800D01*
X110240000Y-65190000D02*
X112635000Y-62795000D01*
X106540000Y-83860000D02*
X107797600Y-82602400D01*
X111055804Y-68766200D02*
X109810791Y-68766200D01*
X111956000Y-74734000D02*
X111956000Y-69666396D01*
X109203800Y-68159209D02*
X109203800Y-66226200D01*
X111975991Y-60275000D02*
X110095000Y-60275000D01*
X111956000Y-69666396D02*
X111055804Y-68766200D01*
X111607600Y-75082400D02*
X111956000Y-74734000D01*
X106540000Y-86930000D02*
X106540000Y-83860000D01*
X109810791Y-68766200D02*
X109203800Y-68159209D01*
X112635000Y-60934009D02*
X111975991Y-60275000D01*
X112635000Y-62795000D02*
X112635000Y-60934009D01*
%TO.N,/pD5*%
X107700000Y-67730000D02*
X108736200Y-66693800D01*
X110097400Y-74967000D02*
X111506000Y-73558400D01*
X109203800Y-69233800D02*
X107700000Y-67730000D01*
X110686600Y-69233800D02*
X109203800Y-69233800D01*
X108736200Y-64173800D02*
X111510000Y-61400000D01*
X108736200Y-66693800D02*
X108736200Y-64173800D01*
X109080000Y-86930000D02*
X109080000Y-82191305D01*
X111506000Y-70053200D02*
X110686600Y-69233800D01*
X109080000Y-82191305D02*
X110097400Y-81173905D01*
X110097400Y-81173905D02*
X110097400Y-74967000D01*
X111506000Y-73558400D02*
X111506000Y-70053200D01*
%TO.N,/pD4*%
X110656000Y-67730000D02*
X110240000Y-67730000D01*
X111800000Y-80758796D02*
X111960000Y-80598796D01*
X112406000Y-75945009D02*
X112406000Y-69480000D01*
X114050000Y-61400000D02*
X114050000Y-63920000D01*
X112635000Y-76174009D02*
X112406000Y-75945009D01*
X112635000Y-77105991D02*
X112635000Y-76174009D01*
X111960000Y-80598796D02*
X111960000Y-77780991D01*
X112406000Y-69480000D02*
X110656000Y-67730000D01*
X111960000Y-77780991D02*
X112635000Y-77105991D01*
X114050000Y-63920000D02*
X110240000Y-67730000D01*
X111840000Y-86930000D02*
X111800000Y-86890000D01*
X111800000Y-86890000D02*
X111800000Y-80758796D01*
%TO.N,/bA1*%
X38280000Y-63800000D02*
X36982400Y-62502400D01*
X36982400Y-62502400D02*
X36982400Y-59499300D01*
%TO.N,/bA4*%
X62575809Y-65836800D02*
X61468000Y-64728991D01*
X53543200Y-62788800D02*
X53543200Y-64414400D01*
X42930791Y-60223800D02*
X49852809Y-60223800D01*
X41856200Y-65625700D02*
X41856200Y-61298391D01*
X50764009Y-61135000D02*
X51889400Y-61135000D01*
X69165400Y-68655000D02*
X69138800Y-68681600D01*
X65074800Y-67693809D02*
X63217791Y-65836800D01*
X51889400Y-61135000D02*
X53543200Y-62788800D01*
X41330400Y-66151500D02*
X41856200Y-65625700D01*
X71775000Y-67772600D02*
X70892600Y-68655000D01*
X49852809Y-60223800D02*
X50764009Y-61135000D01*
X61468000Y-64728991D02*
X61468000Y-64668400D01*
X41856200Y-61298391D02*
X42930791Y-60223800D01*
X63217791Y-65836800D02*
X62575809Y-65836800D01*
X70892600Y-68655000D02*
X69165400Y-68655000D01*
X65074800Y-67818000D02*
X65074800Y-67693809D01*
%TO.N,/bA5*%
X89231847Y-64793754D02*
X88650000Y-64211907D01*
X89720000Y-65281907D02*
X89231847Y-64793754D01*
X89720000Y-74066000D02*
X89720000Y-65281907D01*
X73500000Y-74175000D02*
X73500000Y-75000000D01*
X79450000Y-75090000D02*
X78285000Y-73925000D01*
X95326898Y-63204496D02*
X96985504Y-63204496D01*
X73750000Y-73925000D02*
X73500000Y-74175000D01*
X96985504Y-63204496D02*
X97540000Y-62650000D01*
X88650000Y-64211907D02*
X88650000Y-61400000D01*
X89445500Y-74340500D02*
X89720000Y-74066000D01*
X78285000Y-73925000D02*
X73750000Y-73925000D01*
%TO.N,/bA6*%
X84325000Y-75885000D02*
X83570000Y-76640000D01*
X84325000Y-71454973D02*
X84325000Y-75885000D01*
X78139203Y-78500000D02*
X79009203Y-77630000D01*
X73800000Y-77622400D02*
X74677600Y-78500000D01*
X84156974Y-71286947D02*
X84325000Y-71454973D01*
X74677600Y-78500000D02*
X78139203Y-78500000D01*
%TO.N,/bA7*%
X84775000Y-75964009D02*
X84775000Y-71694226D01*
X84775000Y-71694226D02*
X85000000Y-71469226D01*
X84985000Y-76174009D02*
X84775000Y-75964009D01*
X84985000Y-77455290D02*
X84985000Y-76174009D01*
X76300000Y-80162400D02*
X76637600Y-80500000D01*
X76637600Y-80500000D02*
X79120000Y-80500000D01*
X85272747Y-77743037D02*
X84985000Y-77455290D01*
X85000000Y-71469226D02*
X85000000Y-70750000D01*
X79120000Y-80500000D02*
X79450000Y-80170000D01*
X85272747Y-78848247D02*
X85272747Y-77743037D01*
%TO.N,/pA13*%
X105206800Y-70358000D02*
X105206800Y-67838800D01*
X114249200Y-78079600D02*
X115175000Y-77153800D01*
X75750000Y-74750000D02*
X75050000Y-74750000D01*
X114249200Y-78435200D02*
X114249200Y-78079600D01*
X102074500Y-79502000D02*
X102274200Y-79701700D01*
X102274200Y-81224705D02*
X101498400Y-82000505D01*
X101498400Y-86891600D02*
X101460000Y-86930000D01*
X101498400Y-82000505D02*
X101498400Y-86891600D01*
X112623600Y-68824695D02*
X112623600Y-67360800D01*
X102074500Y-78051000D02*
X102250000Y-77875500D01*
X105206800Y-67838800D02*
X105186000Y-67818000D01*
X115175000Y-77153800D02*
X115175000Y-71376095D01*
X105186000Y-67704000D02*
X107700000Y-65190000D01*
X115175000Y-71376095D02*
X112623600Y-68824695D01*
X102074500Y-79502000D02*
X102074500Y-78051000D01*
X105186000Y-67818000D02*
X105186000Y-67704000D01*
X102274200Y-79701700D02*
X102274200Y-81224705D01*
%TO.N,/pA12*%
X88800000Y-71100000D02*
X88600000Y-71100000D01*
X88087200Y-66598800D02*
X88800000Y-67311600D01*
X88200500Y-73599500D02*
X88200500Y-73604705D01*
X94049996Y-71859996D02*
X95000000Y-72810000D01*
X97979400Y-78392600D02*
X97979400Y-82735873D01*
X97979400Y-82735873D02*
X98920000Y-83676473D01*
X87200805Y-74604400D02*
X86115900Y-74604400D01*
X88200500Y-73604705D02*
X87200805Y-74604400D01*
X88800000Y-71100000D02*
X88800000Y-73000000D01*
X88800000Y-73000000D02*
X88200500Y-73599500D01*
X93459995Y-71859996D02*
X94049996Y-71859996D01*
X97586800Y-78000000D02*
X97979400Y-78392600D01*
X98920000Y-83676473D02*
X98920000Y-86930000D01*
X88800000Y-67311600D02*
X88800000Y-71100000D01*
X88600000Y-71100000D02*
X88000000Y-71700000D01*
%TO.N,/pA7*%
X86625000Y-86525000D02*
X86220000Y-86930000D01*
X86625000Y-79658273D02*
X86625000Y-86525000D01*
X86600000Y-78847002D02*
X86600000Y-79633273D01*
X87420706Y-78026296D02*
X86600000Y-78847002D01*
X86600000Y-79633273D02*
X86625000Y-79658273D01*
%TO.N,/pA6*%
X91190000Y-81000000D02*
X91190000Y-76640000D01*
%TO.N,/pA5*%
X92724500Y-80378900D02*
X93730000Y-79373400D01*
X93730000Y-79373400D02*
X93730000Y-76640000D01*
%TO.N,/pA4*%
X99026800Y-73863200D02*
X100080000Y-72810000D01*
X96270000Y-76640000D02*
X96270000Y-79520000D01*
X97561391Y-73863200D02*
X99026800Y-73863200D01*
X96270000Y-79520000D02*
X96750000Y-80000000D01*
X96270000Y-76640000D02*
X96270000Y-75154591D01*
X96270000Y-75154591D02*
X97561391Y-73863200D01*
%TO.N,/pA3*%
X101583800Y-74313800D02*
X99650791Y-74313800D01*
X98810000Y-75154591D02*
X98810000Y-76640000D01*
X98810000Y-80615600D02*
X98810000Y-76640000D01*
X98704400Y-80721200D02*
X98810000Y-80615600D01*
X102620000Y-75350000D02*
X101583800Y-74313800D01*
X99650791Y-74313800D02*
X98810000Y-75154591D01*
%TO.N,/pA2*%
X101350000Y-80725200D02*
X101350000Y-76640000D01*
X101549200Y-80924400D02*
X101350000Y-80725200D01*
%TO.N,/pA1*%
X105160000Y-75350000D02*
X105160000Y-75370000D01*
X105160000Y-75370000D02*
X103890000Y-76640000D01*
X103890000Y-76640000D02*
X103890000Y-79840300D01*
X103890000Y-79840300D02*
X103378000Y-80352300D01*
%TO.N,/pA0*%
X106430000Y-74080000D02*
X106430000Y-76640000D01*
X106430000Y-80979200D02*
X106430000Y-76640000D01*
X105160000Y-72810000D02*
X106430000Y-74080000D01*
X106527600Y-81076800D02*
X106430000Y-80979200D01*
%TO.N,/pA9*%
X90400000Y-77700000D02*
X89900000Y-77200000D01*
X89900000Y-77200000D02*
X89900000Y-76000000D01*
X90875000Y-62525000D02*
X91655991Y-62525000D01*
X91300000Y-82585005D02*
X90400000Y-81685005D01*
X91655991Y-62525000D02*
X92780991Y-61400000D01*
X90170000Y-63230000D02*
X90875000Y-62525000D01*
X92780991Y-61400000D02*
X93730000Y-61400000D01*
X91300000Y-86930000D02*
X91300000Y-82585005D01*
X89900000Y-76000000D02*
X90170000Y-75730000D01*
X90170000Y-75730000D02*
X90170000Y-63230000D01*
X90400000Y-81685005D02*
X90400000Y-77700000D01*
%TO.N,/pA8*%
X88600000Y-86770000D02*
X88600000Y-78180991D01*
X87800000Y-74641601D02*
X89270000Y-73171601D01*
X88362609Y-60096400D02*
X89886400Y-60096400D01*
X89270000Y-73171601D02*
X89270000Y-65856505D01*
X88600000Y-78180991D02*
X87525000Y-77105991D01*
X87525000Y-76174009D02*
X87800000Y-75899009D01*
X89270000Y-65856505D02*
X87525000Y-64111505D01*
X88760000Y-86930000D02*
X88600000Y-86770000D01*
X87525000Y-60934009D02*
X88362609Y-60096400D01*
X87525000Y-64111505D02*
X87525000Y-60934009D01*
X89886400Y-60096400D02*
X91190000Y-61400000D01*
X87800000Y-75899009D02*
X87800000Y-74641601D01*
X87525000Y-77105991D02*
X87525000Y-76174009D01*
%TO.N,/cA14*%
X39296535Y-64849495D02*
X38730400Y-65415630D01*
X46745700Y-75679508D02*
X46745700Y-77660708D01*
X55676800Y-63754000D02*
X55676800Y-68034500D01*
X74073000Y-58325000D02*
X62675000Y-58325000D01*
X47388700Y-68778705D02*
X47727406Y-69117411D01*
X53005200Y-69748400D02*
X53005200Y-72298300D01*
X58585800Y-60845000D02*
X55676800Y-63754000D01*
X47727406Y-69117411D02*
X47727406Y-73880363D01*
X53005200Y-68305200D02*
X53136800Y-68173600D01*
X47218874Y-66634276D02*
X47388700Y-66804102D01*
X46293200Y-78113208D02*
X46293200Y-81285995D01*
X53005200Y-69748400D02*
X53005200Y-68305200D01*
X46745700Y-77660708D02*
X46293200Y-78113208D01*
X47388700Y-66804102D02*
X47388700Y-68778705D01*
X60155000Y-60845000D02*
X58585800Y-60845000D01*
X48120500Y-83113295D02*
X48120500Y-85177500D01*
X38730400Y-65415630D02*
X38730400Y-66151500D01*
X47409666Y-75015542D02*
X46745700Y-75679508D01*
X62675000Y-58325000D02*
X60155000Y-60845000D01*
X47727406Y-73880363D02*
X47409666Y-74198103D01*
X47409666Y-74198103D02*
X47409666Y-75015542D01*
X46293200Y-81285995D02*
X48120500Y-83113295D01*
%TO.N,Net-(JP2-C)*%
X40030400Y-64589600D02*
X40820000Y-63800000D01*
X40030400Y-66151500D02*
X40030400Y-64589600D01*
%TO.N,Net-(JP3-C)*%
X54305200Y-67875200D02*
X51230000Y-64800000D01*
X54305200Y-69748400D02*
X54305200Y-67875200D01*
%TO.N,Net-(H1-vram~{CE})*%
X81140000Y-86930000D02*
X81140000Y-83460000D01*
X81140000Y-83460000D02*
X81750000Y-82850000D01*
%TO.N,Net-(JP8-C)*%
X57725000Y-69414009D02*
X58384009Y-68755000D01*
X58850000Y-67340000D02*
X63030000Y-71520000D01*
X56896000Y-70256400D02*
X57725000Y-69427400D01*
X54305200Y-71298300D02*
X54305200Y-72298300D01*
X56099800Y-71223300D02*
X54380200Y-71223300D01*
X63030000Y-71520000D02*
X63030000Y-72320000D01*
X58397400Y-68755000D02*
X58850000Y-68302400D01*
X56896000Y-72019500D02*
X56099800Y-71223300D01*
X58850000Y-68302400D02*
X58850000Y-67340000D01*
X57725000Y-69427400D02*
X57725000Y-69414009D01*
X56896000Y-72019500D02*
X56896000Y-70256400D01*
X54380200Y-71223300D02*
X54305200Y-71298300D01*
X58384009Y-68755000D02*
X58397400Y-68755000D01*
%TO.N,Net-(JP9-C)*%
X103886000Y-61404000D02*
X103890000Y-61400000D01*
X103886000Y-67818000D02*
X103886000Y-61404000D01*
%TO.N,Net-(JP7-C)*%
X65518700Y-66764500D02*
X65094500Y-66764500D01*
X103906800Y-70358000D02*
X103906800Y-69219600D01*
X65094500Y-66764500D02*
X63030000Y-64700000D01*
X103906800Y-69219600D02*
X103936800Y-69189600D01*
%TO.N,/r.4*%
X85615900Y-70000000D02*
X86115900Y-70500000D01*
X83250000Y-72250000D02*
X83250000Y-71000000D01*
X84250000Y-70000000D02*
X85615900Y-70000000D01*
X86115900Y-69775400D02*
X86115900Y-70500000D01*
X86115900Y-70500000D02*
X86115900Y-72004400D01*
X85500000Y-69159500D02*
X86115900Y-69775400D01*
X83250000Y-71000000D02*
X84250000Y-70000000D01*
%TO.N,/r.6*%
X75094327Y-77500000D02*
X74119327Y-76525000D01*
X67222200Y-64816305D02*
X67222200Y-63640195D01*
X67222200Y-63640195D02*
X69140395Y-61722000D01*
X71485000Y-75985000D02*
X70143000Y-75985000D01*
X71775000Y-76275000D02*
X71485000Y-75985000D01*
X66243200Y-72085200D02*
X66243200Y-65795305D01*
X70143000Y-75985000D02*
X66243200Y-72085200D01*
X69140395Y-61722000D02*
X70212000Y-61722000D01*
X71775000Y-76897400D02*
X71775000Y-76275000D01*
X77000000Y-77500000D02*
X75094327Y-77500000D01*
X70212000Y-61722000D02*
X70650000Y-62160000D01*
X74119327Y-76525000D02*
X73187780Y-76525000D01*
X73187780Y-76525000D02*
X72500000Y-77212780D01*
X66243200Y-65795305D02*
X67222200Y-64816305D01*
X72500000Y-77622400D02*
X71775000Y-76897400D01*
X72500000Y-77212780D02*
X72500000Y-77622400D01*
%TO.N,/r.7*%
X67767200Y-69485095D02*
X67767200Y-67582800D01*
X71433200Y-73566800D02*
X71311400Y-73445000D01*
X67767200Y-67582800D02*
X70650000Y-64700000D01*
X76836846Y-81648777D02*
X76425469Y-81237400D01*
X67781000Y-69498895D02*
X67767200Y-69485095D01*
X74337600Y-79500000D02*
X72390000Y-79500000D01*
X76425469Y-81237400D02*
X75000000Y-81237400D01*
X75000000Y-81237400D02*
X75000000Y-80162400D01*
X67767200Y-71028191D02*
X67767200Y-70113305D01*
X76966992Y-83348277D02*
X77018715Y-83400000D01*
X75000000Y-80162400D02*
X74337600Y-79500000D01*
X67767200Y-70113305D02*
X67781000Y-70099505D01*
X77018715Y-83400000D02*
X78575402Y-83400000D01*
X71311400Y-73445000D02*
X70184009Y-73445000D01*
X70184009Y-73445000D02*
X67767200Y-71028191D01*
X83245764Y-81518065D02*
X83245764Y-80345764D01*
X78575402Y-83400000D02*
X78987701Y-82987701D01*
X67781000Y-70099505D02*
X67781000Y-69498895D01*
%TO.N,/chr12*%
X92400000Y-72781458D02*
X92400000Y-71600000D01*
X92708500Y-72808500D02*
X93819503Y-73919503D01*
X96036200Y-67304600D02*
X96647000Y-66693800D01*
X97570412Y-66693800D02*
X99074212Y-65190000D01*
X95698800Y-71306200D02*
X96036200Y-70968800D01*
X92427042Y-72808500D02*
X92400000Y-72781458D01*
X86800744Y-75614260D02*
X86110000Y-76305004D01*
X92400000Y-71600000D02*
X93000000Y-71000000D01*
X99074212Y-65190000D02*
X100080000Y-65190000D01*
X94570791Y-71306200D02*
X95698800Y-71306200D01*
X86115900Y-73304400D02*
X87475500Y-73304400D01*
X96036200Y-70968800D02*
X96036200Y-67304600D01*
X93000000Y-71000000D02*
X94264591Y-71000000D01*
X86110000Y-76305004D02*
X86110000Y-76640000D01*
X94264591Y-71000000D02*
X94570791Y-71306200D01*
X96647000Y-66693800D02*
X97570412Y-66693800D01*
X92427042Y-72808500D02*
X92708500Y-72808500D01*
%TO.N,/r.5*%
X75675000Y-76075000D02*
X76800000Y-74950000D01*
X72675000Y-76075000D02*
X75675000Y-76075000D01*
X76800000Y-74950000D02*
X77250000Y-74950000D01*
X72200000Y-75600000D02*
X72675000Y-76075000D01*
%TD*%
%TA.AperFunction,Conductor*%
%TO.N,GND*%
G36*
X119642539Y-58220185D02*
G01*
X119688294Y-58272989D01*
X119699500Y-58324500D01*
X119699500Y-80675500D01*
X119679815Y-80742539D01*
X119627011Y-80788294D01*
X119575500Y-80799500D01*
X114259215Y-80799500D01*
X114237257Y-80796437D01*
X114228207Y-80795598D01*
X114188964Y-80799235D01*
X114183241Y-80799500D01*
X114172151Y-80799500D01*
X114161256Y-80801536D01*
X114155588Y-80802327D01*
X114116339Y-80805964D01*
X114107644Y-80808438D01*
X114098008Y-80811668D01*
X114089563Y-80814939D01*
X114056060Y-80835683D01*
X114051058Y-80838470D01*
X114015770Y-80856042D01*
X114008547Y-80861496D01*
X114000751Y-80867970D01*
X113994044Y-80874085D01*
X113970300Y-80905526D01*
X113966642Y-80909932D01*
X113940085Y-80939064D01*
X113935322Y-80946756D01*
X113930385Y-80955620D01*
X113926343Y-80963738D01*
X113915559Y-81001639D01*
X113913739Y-81007070D01*
X113899499Y-81043827D01*
X113897829Y-81052762D01*
X113896437Y-81062745D01*
X113895598Y-81071792D01*
X113899235Y-81111035D01*
X113899500Y-81116758D01*
X113899500Y-83676000D01*
X113879815Y-83743039D01*
X113827011Y-83788794D01*
X113775500Y-83800000D01*
X113117666Y-83800000D01*
X113050627Y-83780315D01*
X113018401Y-83750313D01*
X112997546Y-83722454D01*
X112950146Y-83686970D01*
X112882335Y-83636206D01*
X112882328Y-83636202D01*
X112747482Y-83585908D01*
X112747483Y-83585908D01*
X112687883Y-83579501D01*
X112687881Y-83579500D01*
X112687873Y-83579500D01*
X112687865Y-83579500D01*
X112549500Y-83579500D01*
X112482461Y-83559815D01*
X112436706Y-83507011D01*
X112425500Y-83455500D01*
X112425500Y-81065926D01*
X112445185Y-80998887D01*
X112459104Y-80981046D01*
X112470062Y-80969378D01*
X112479713Y-80951820D01*
X112490396Y-80935557D01*
X112502673Y-80919732D01*
X112521185Y-80876949D01*
X112523738Y-80871737D01*
X112546197Y-80830888D01*
X112551180Y-80811476D01*
X112557481Y-80793076D01*
X112565437Y-80774692D01*
X112572729Y-80728648D01*
X112573906Y-80722967D01*
X112585500Y-80677815D01*
X112585500Y-80657778D01*
X112587027Y-80638378D01*
X112587643Y-80634491D01*
X112590160Y-80618600D01*
X112585775Y-80572211D01*
X112585500Y-80566373D01*
X112585500Y-78091443D01*
X112605185Y-78024404D01*
X112621819Y-78003762D01*
X112813593Y-77811988D01*
X113010518Y-77615062D01*
X113071839Y-77581579D01*
X113141530Y-77586563D01*
X113185877Y-77615063D01*
X113199526Y-77628712D01*
X113210862Y-77640048D01*
X113374775Y-77754820D01*
X113397266Y-77770568D01*
X113428933Y-77785334D01*
X113481369Y-77831504D01*
X113500522Y-77898698D01*
X113483914Y-77959713D01*
X113422499Y-78066089D01*
X113422020Y-78066918D01*
X113422018Y-78066922D01*
X113363975Y-78245562D01*
X113363526Y-78246944D01*
X113343740Y-78435200D01*
X113363526Y-78623456D01*
X113363527Y-78623459D01*
X113422018Y-78803477D01*
X113422021Y-78803484D01*
X113516667Y-78967416D01*
X113625371Y-79088144D01*
X113643329Y-79108088D01*
X113796465Y-79219348D01*
X113796470Y-79219351D01*
X113969392Y-79296342D01*
X113969397Y-79296344D01*
X114154554Y-79335700D01*
X114154555Y-79335700D01*
X114343844Y-79335700D01*
X114343846Y-79335700D01*
X114529003Y-79296344D01*
X114701930Y-79219351D01*
X114855071Y-79108088D01*
X114981733Y-78967416D01*
X115076379Y-78803484D01*
X115134874Y-78623456D01*
X115154660Y-78435200D01*
X115134874Y-78246944D01*
X115117049Y-78192087D01*
X115115055Y-78122247D01*
X115147298Y-78066091D01*
X115558788Y-77654601D01*
X115571042Y-77644786D01*
X115570859Y-77644564D01*
X115576873Y-77639588D01*
X115576877Y-77639586D01*
X115576879Y-77639583D01*
X115582885Y-77634615D01*
X115584544Y-77636620D01*
X115633874Y-77607621D01*
X115703689Y-77610398D01*
X115746418Y-77636913D01*
X115747034Y-77636180D01*
X115751174Y-77639653D01*
X115937517Y-77770134D01*
X116143673Y-77866265D01*
X116143682Y-77866269D01*
X116251543Y-77895170D01*
X116311204Y-77931535D01*
X116341733Y-77994382D01*
X116333438Y-78063757D01*
X116326838Y-78076943D01*
X116306614Y-78111974D01*
X116297320Y-78128071D01*
X116297318Y-78128075D01*
X116245795Y-78286648D01*
X116238826Y-78308097D01*
X116219040Y-78496353D01*
X116238826Y-78684609D01*
X116238827Y-78684612D01*
X116297318Y-78864630D01*
X116297321Y-78864637D01*
X116391967Y-79028569D01*
X116501864Y-79150622D01*
X116518629Y-79169241D01*
X116671765Y-79280501D01*
X116671770Y-79280504D01*
X116844692Y-79357495D01*
X116844697Y-79357497D01*
X117029854Y-79396853D01*
X117029855Y-79396853D01*
X117219144Y-79396853D01*
X117219146Y-79396853D01*
X117404303Y-79357497D01*
X117577230Y-79280504D01*
X117730371Y-79169241D01*
X117857033Y-79028569D01*
X117951679Y-78864637D01*
X118010174Y-78684609D01*
X118027821Y-78516697D01*
X118054404Y-78452087D01*
X118063451Y-78441991D01*
X118383788Y-78121654D01*
X118396042Y-78111839D01*
X118395859Y-78111617D01*
X118401866Y-78106645D01*
X118401877Y-78106639D01*
X118439000Y-78067107D01*
X118449227Y-78056217D01*
X118459671Y-78045771D01*
X118470120Y-78035324D01*
X118474379Y-78029831D01*
X118478152Y-78025414D01*
X118510062Y-77991435D01*
X118519715Y-77973873D01*
X118530389Y-77957623D01*
X118542673Y-77941789D01*
X118561180Y-77899020D01*
X118563749Y-77893777D01*
X118573797Y-77875500D01*
X118586197Y-77852945D01*
X118591177Y-77833544D01*
X118597478Y-77815141D01*
X118605438Y-77796749D01*
X118612730Y-77750702D01*
X118613911Y-77745005D01*
X118625500Y-77699872D01*
X118625500Y-77679835D01*
X118627027Y-77660435D01*
X118630160Y-77640657D01*
X118625775Y-77594268D01*
X118625500Y-77588430D01*
X118625500Y-71959737D01*
X118627224Y-71944123D01*
X118626938Y-71944096D01*
X118627672Y-71936333D01*
X118625500Y-71867202D01*
X118625500Y-71837651D01*
X118625500Y-71837650D01*
X118624629Y-71830759D01*
X118624172Y-71824945D01*
X118624115Y-71823144D01*
X118622709Y-71778372D01*
X118617120Y-71759137D01*
X118613174Y-71740084D01*
X118613167Y-71740029D01*
X118610664Y-71720208D01*
X118593501Y-71676859D01*
X118591614Y-71671346D01*
X118590358Y-71667024D01*
X118578617Y-71626610D01*
X118570113Y-71612230D01*
X118568421Y-71609369D01*
X118559860Y-71591893D01*
X118552486Y-71573269D01*
X118552486Y-71573267D01*
X118541995Y-71558828D01*
X118525083Y-71535550D01*
X118521900Y-71530705D01*
X118498170Y-71490579D01*
X118498165Y-71490573D01*
X118484005Y-71476413D01*
X118471370Y-71461620D01*
X118459593Y-71445412D01*
X118423693Y-71415713D01*
X118419381Y-71411790D01*
X116403959Y-69396369D01*
X116370475Y-69335046D01*
X116368323Y-69321668D01*
X116350674Y-69153744D01*
X116294403Y-68980561D01*
X116292181Y-68973722D01*
X116292180Y-68973721D01*
X116292179Y-68973716D01*
X116197533Y-68809784D01*
X116180814Y-68791216D01*
X116122350Y-68726284D01*
X116092120Y-68663292D01*
X116090500Y-68643312D01*
X116090500Y-62835452D01*
X116110185Y-62768413D01*
X116126818Y-62747772D01*
X116145391Y-62729199D01*
X116175178Y-62699411D01*
X116236499Y-62665927D01*
X116294947Y-62667317D01*
X116363308Y-62685635D01*
X116520780Y-62699412D01*
X116589998Y-62705468D01*
X116590000Y-62705468D01*
X116590002Y-62705468D01*
X116648087Y-62700386D01*
X116816692Y-62685635D01*
X117036496Y-62626739D01*
X117242734Y-62530568D01*
X117429139Y-62400047D01*
X117590047Y-62239139D01*
X117720568Y-62052734D01*
X117816739Y-61846496D01*
X117875635Y-61626692D01*
X117894293Y-61413426D01*
X117895468Y-61400001D01*
X117895468Y-61399998D01*
X117883430Y-61262406D01*
X117875635Y-61173308D01*
X117816739Y-60953504D01*
X117720568Y-60747266D01*
X117590047Y-60560861D01*
X117590045Y-60560858D01*
X117429141Y-60399954D01*
X117242734Y-60269432D01*
X117242732Y-60269431D01*
X117036497Y-60173261D01*
X117036488Y-60173258D01*
X116816697Y-60114366D01*
X116816693Y-60114365D01*
X116816692Y-60114365D01*
X116816691Y-60114364D01*
X116816686Y-60114364D01*
X116590002Y-60094532D01*
X116589998Y-60094532D01*
X116363313Y-60114364D01*
X116363302Y-60114366D01*
X116143511Y-60173258D01*
X116143502Y-60173261D01*
X115937267Y-60269431D01*
X115937265Y-60269432D01*
X115750858Y-60399954D01*
X115589954Y-60560858D01*
X115459432Y-60747265D01*
X115459430Y-60747268D01*
X115432380Y-60805277D01*
X115386207Y-60857715D01*
X115319013Y-60876866D01*
X115252132Y-60856649D01*
X115207619Y-60805277D01*
X115180568Y-60747266D01*
X115122886Y-60664886D01*
X115050045Y-60560858D01*
X114889141Y-60399954D01*
X114702734Y-60269432D01*
X114702732Y-60269431D01*
X114496497Y-60173261D01*
X114496488Y-60173258D01*
X114276697Y-60114366D01*
X114276693Y-60114365D01*
X114276692Y-60114365D01*
X114276691Y-60114364D01*
X114276686Y-60114364D01*
X114050002Y-60094532D01*
X114049998Y-60094532D01*
X113823313Y-60114364D01*
X113823302Y-60114366D01*
X113603511Y-60173258D01*
X113603502Y-60173261D01*
X113397267Y-60269431D01*
X113397265Y-60269432D01*
X113210861Y-60399952D01*
X113185877Y-60424936D01*
X113124553Y-60458420D01*
X113054861Y-60453434D01*
X113010516Y-60424934D01*
X112476794Y-59891212D01*
X112466971Y-59878950D01*
X112466750Y-59879134D01*
X112461777Y-59873123D01*
X112455871Y-59867577D01*
X112411355Y-59825773D01*
X112400358Y-59814776D01*
X112390466Y-59804883D01*
X112384977Y-59800625D01*
X112380552Y-59796847D01*
X112346573Y-59764938D01*
X112346571Y-59764936D01*
X112346568Y-59764935D01*
X112329020Y-59755288D01*
X112312754Y-59744604D01*
X112296927Y-59732327D01*
X112296926Y-59732326D01*
X112296924Y-59732325D01*
X112254159Y-59713818D01*
X112248913Y-59711248D01*
X112208084Y-59688803D01*
X112208083Y-59688802D01*
X112188684Y-59683822D01*
X112170272Y-59677518D01*
X112151889Y-59669562D01*
X112151883Y-59669560D01*
X112105865Y-59662272D01*
X112100143Y-59661087D01*
X112055012Y-59649500D01*
X112055010Y-59649500D01*
X112034975Y-59649500D01*
X112015577Y-59647973D01*
X112008153Y-59646797D01*
X111995796Y-59644840D01*
X111995795Y-59644840D01*
X111949407Y-59649225D01*
X111943569Y-59649500D01*
X110177737Y-59649500D01*
X110162120Y-59647776D01*
X110162093Y-59648062D01*
X110154331Y-59647327D01*
X110085203Y-59649500D01*
X110055650Y-59649500D01*
X110054929Y-59649590D01*
X110048757Y-59650369D01*
X110042945Y-59650826D01*
X109996373Y-59652290D01*
X109996372Y-59652290D01*
X109977129Y-59657881D01*
X109958079Y-59661825D01*
X109938211Y-59664334D01*
X109938209Y-59664335D01*
X109894884Y-59681488D01*
X109889357Y-59683380D01*
X109844610Y-59696381D01*
X109844609Y-59696382D01*
X109827367Y-59706579D01*
X109809899Y-59715137D01*
X109791269Y-59722513D01*
X109791267Y-59722514D01*
X109753576Y-59749898D01*
X109748694Y-59753105D01*
X109708579Y-59776830D01*
X109694408Y-59791000D01*
X109679623Y-59803628D01*
X109663412Y-59815407D01*
X109633709Y-59851310D01*
X109629777Y-59855631D01*
X109384821Y-60100586D01*
X109323498Y-60134071D01*
X109265048Y-60132680D01*
X109196697Y-60114366D01*
X109196693Y-60114365D01*
X109196692Y-60114365D01*
X109083346Y-60104448D01*
X108970001Y-60094532D01*
X108969998Y-60094532D01*
X108743313Y-60114364D01*
X108743302Y-60114366D01*
X108523511Y-60173258D01*
X108523502Y-60173261D01*
X108317267Y-60269431D01*
X108317265Y-60269432D01*
X108130858Y-60399954D01*
X107969954Y-60560858D01*
X107839432Y-60747265D01*
X107839431Y-60747267D01*
X107812382Y-60805275D01*
X107766209Y-60857714D01*
X107699016Y-60876866D01*
X107632135Y-60856650D01*
X107587618Y-60805275D01*
X107574721Y-60777618D01*
X107560568Y-60747266D01*
X107430047Y-60560861D01*
X107430045Y-60560858D01*
X107269141Y-60399954D01*
X107082734Y-60269432D01*
X107082732Y-60269431D01*
X106876497Y-60173261D01*
X106876488Y-60173258D01*
X106656697Y-60114366D01*
X106656693Y-60114365D01*
X106656692Y-60114365D01*
X106656691Y-60114364D01*
X106656686Y-60114364D01*
X106430002Y-60094532D01*
X106429998Y-60094532D01*
X106203313Y-60114364D01*
X106203302Y-60114366D01*
X105983511Y-60173258D01*
X105983502Y-60173261D01*
X105777267Y-60269431D01*
X105777265Y-60269432D01*
X105590858Y-60399954D01*
X105565874Y-60424937D01*
X105504550Y-60458420D01*
X105434858Y-60453433D01*
X105390515Y-60424934D01*
X104437807Y-59472226D01*
X103408194Y-58442612D01*
X103398371Y-58430350D01*
X103398150Y-58430534D01*
X103393178Y-58424523D01*
X103382922Y-58414893D01*
X103347527Y-58354653D01*
X103350319Y-58284839D01*
X103390412Y-58227617D01*
X103455077Y-58201155D01*
X103467805Y-58200500D01*
X108943827Y-58200500D01*
X119575500Y-58200500D01*
X119642539Y-58220185D01*
G37*
%TD.AperFunction*%
%TA.AperFunction,Conductor*%
G36*
X64457579Y-71830209D02*
G01*
X64491079Y-71854065D01*
X68863181Y-76226167D01*
X68896666Y-76287490D01*
X68899500Y-76313848D01*
X68899500Y-78454152D01*
X68897305Y-78477379D01*
X68895773Y-78485412D01*
X68899378Y-78542724D01*
X68899500Y-78546595D01*
X68899500Y-78564356D01*
X68901725Y-78581968D01*
X68902090Y-78585837D01*
X68902685Y-78595278D01*
X68905696Y-78643138D01*
X68908222Y-78650914D01*
X68913309Y-78673672D01*
X68914334Y-78681784D01*
X68914336Y-78681792D01*
X68935469Y-78735170D01*
X68936788Y-78738833D01*
X68954532Y-78793440D01*
X68954533Y-78793441D01*
X68958832Y-78800216D01*
X68958907Y-78800333D01*
X68969503Y-78821129D01*
X68972511Y-78828726D01*
X68972513Y-78828731D01*
X69006265Y-78875187D01*
X69008455Y-78878409D01*
X69039213Y-78926876D01*
X69045164Y-78932464D01*
X69060604Y-78949978D01*
X69065403Y-78956585D01*
X69109647Y-78993187D01*
X69112567Y-78995761D01*
X69154418Y-79035062D01*
X69161578Y-79038998D01*
X69180879Y-79052114D01*
X69187177Y-79057324D01*
X69187178Y-79057324D01*
X69187179Y-79057325D01*
X69239125Y-79081769D01*
X69242597Y-79083538D01*
X69292903Y-79111195D01*
X69292905Y-79111195D01*
X69292908Y-79111197D01*
X69298205Y-79112556D01*
X69300814Y-79113227D01*
X69322777Y-79121133D01*
X69330174Y-79124614D01*
X69386576Y-79135373D01*
X69390362Y-79136219D01*
X69445981Y-79150500D01*
X69454153Y-79150500D01*
X69477385Y-79152696D01*
X69478989Y-79153001D01*
X69485412Y-79154227D01*
X69542724Y-79150621D01*
X69546597Y-79150500D01*
X69934148Y-79150500D01*
X70001187Y-79170185D01*
X70021829Y-79186819D01*
X70318181Y-79483171D01*
X70351666Y-79544494D01*
X70354500Y-79570852D01*
X70354500Y-83455500D01*
X70334815Y-83522539D01*
X70282011Y-83568294D01*
X70230501Y-83579500D01*
X70132130Y-83579500D01*
X70132123Y-83579501D01*
X70072516Y-83585908D01*
X69937671Y-83636202D01*
X69937664Y-83636206D01*
X69822455Y-83722452D01*
X69809266Y-83740071D01*
X69753332Y-83781941D01*
X69683640Y-83786925D01*
X69622317Y-83753439D01*
X69610734Y-83740071D01*
X69605032Y-83732454D01*
X69597546Y-83722454D01*
X69597544Y-83722453D01*
X69597544Y-83722452D01*
X69482335Y-83636206D01*
X69482328Y-83636202D01*
X69347482Y-83585908D01*
X69347483Y-83585908D01*
X69287883Y-83579501D01*
X69287881Y-83579500D01*
X69287873Y-83579500D01*
X69287865Y-83579500D01*
X69189500Y-83579500D01*
X69122461Y-83559815D01*
X69076706Y-83507011D01*
X69065500Y-83455500D01*
X69065500Y-81816400D01*
X69085185Y-81749361D01*
X69137989Y-81703606D01*
X69189500Y-81692400D01*
X69233444Y-81692400D01*
X69233446Y-81692400D01*
X69418603Y-81653044D01*
X69591530Y-81576051D01*
X69744671Y-81464788D01*
X69871333Y-81324116D01*
X69965979Y-81160184D01*
X70024474Y-80980156D01*
X70044260Y-80791900D01*
X70024474Y-80603644D01*
X69965979Y-80423616D01*
X69871333Y-80259684D01*
X69744671Y-80119012D01*
X69744670Y-80119011D01*
X69591534Y-80007751D01*
X69591529Y-80007748D01*
X69418607Y-79930757D01*
X69418602Y-79930755D01*
X69261034Y-79897264D01*
X69233446Y-79891400D01*
X69044154Y-79891400D01*
X69016566Y-79897264D01*
X68858997Y-79930755D01*
X68858992Y-79930757D01*
X68686070Y-80007748D01*
X68686065Y-80007751D01*
X68532929Y-80119011D01*
X68406266Y-80259685D01*
X68311621Y-80423615D01*
X68311618Y-80423622D01*
X68256494Y-80593277D01*
X68253126Y-80603644D01*
X68236190Y-80764781D01*
X68235479Y-80771549D01*
X68208894Y-80836163D01*
X68199839Y-80846268D01*
X68056208Y-80989899D01*
X68043951Y-80999720D01*
X68044134Y-80999941D01*
X68038123Y-81004913D01*
X67990772Y-81055336D01*
X67969889Y-81076219D01*
X67969877Y-81076232D01*
X67965621Y-81081717D01*
X67961837Y-81086147D01*
X67929937Y-81120118D01*
X67929936Y-81120120D01*
X67920284Y-81137676D01*
X67909610Y-81153926D01*
X67897329Y-81169761D01*
X67897324Y-81169768D01*
X67878815Y-81212538D01*
X67876245Y-81217784D01*
X67853803Y-81258606D01*
X67848822Y-81278007D01*
X67842521Y-81296410D01*
X67834562Y-81314802D01*
X67834561Y-81314805D01*
X67827271Y-81360827D01*
X67826087Y-81366546D01*
X67814501Y-81411672D01*
X67814500Y-81411682D01*
X67814500Y-81431716D01*
X67812973Y-81451115D01*
X67810627Y-81465929D01*
X67809840Y-81470896D01*
X67812202Y-81495884D01*
X67814225Y-81517283D01*
X67814500Y-81523121D01*
X67814500Y-83455500D01*
X67794815Y-83522539D01*
X67742011Y-83568294D01*
X67690501Y-83579500D01*
X67592130Y-83579500D01*
X67592123Y-83579501D01*
X67532516Y-83585908D01*
X67397671Y-83636202D01*
X67397664Y-83636206D01*
X67282455Y-83722452D01*
X67269266Y-83740071D01*
X67213332Y-83781941D01*
X67143640Y-83786925D01*
X67082317Y-83753439D01*
X67070734Y-83740071D01*
X67065032Y-83732454D01*
X67057546Y-83722454D01*
X67057544Y-83722453D01*
X67057544Y-83722452D01*
X66942335Y-83636206D01*
X66942328Y-83636202D01*
X66807482Y-83585908D01*
X66807483Y-83585908D01*
X66747883Y-83579501D01*
X66747881Y-83579500D01*
X66747873Y-83579500D01*
X66747865Y-83579500D01*
X66649500Y-83579500D01*
X66582461Y-83559815D01*
X66536706Y-83507011D01*
X66525500Y-83455500D01*
X66525500Y-79633734D01*
X66545185Y-79566695D01*
X66557350Y-79550762D01*
X66561951Y-79545652D01*
X66670933Y-79424616D01*
X66765579Y-79260684D01*
X66824074Y-79080656D01*
X66843860Y-78892400D01*
X66824074Y-78704144D01*
X66765579Y-78524116D01*
X66670933Y-78360184D01*
X66544271Y-78219512D01*
X66513505Y-78197159D01*
X66391134Y-78108251D01*
X66391129Y-78108248D01*
X66212266Y-78028612D01*
X66212840Y-78027320D01*
X66161276Y-77992061D01*
X66134078Y-77927702D01*
X66139563Y-77874569D01*
X66188199Y-77727797D01*
X66198700Y-77625009D01*
X66198699Y-76849992D01*
X66188199Y-76747203D01*
X66133014Y-76580666D01*
X66040912Y-76431344D01*
X65916856Y-76307288D01*
X65913542Y-76305243D01*
X65911746Y-76303248D01*
X65911189Y-76302807D01*
X65911264Y-76302711D01*
X65866818Y-76253297D01*
X65855597Y-76184334D01*
X65883440Y-76120252D01*
X65913548Y-76094165D01*
X65916542Y-76092318D01*
X66040515Y-75968345D01*
X66132556Y-75819124D01*
X66132558Y-75819119D01*
X66187705Y-75652697D01*
X66187706Y-75652690D01*
X66198199Y-75549986D01*
X66198200Y-75549973D01*
X66198200Y-75412500D01*
X64847200Y-75412500D01*
X64780161Y-75392815D01*
X64734406Y-75340011D01*
X64723200Y-75288500D01*
X64723199Y-74075000D01*
X65223200Y-74075000D01*
X65223200Y-74912500D01*
X66198198Y-74912500D01*
X66198199Y-74775028D01*
X66198198Y-74775013D01*
X66187705Y-74672302D01*
X66132558Y-74505880D01*
X66132556Y-74505875D01*
X66040515Y-74356654D01*
X65916545Y-74232684D01*
X65767324Y-74140643D01*
X65767319Y-74140641D01*
X65600897Y-74085494D01*
X65600890Y-74085493D01*
X65498186Y-74075000D01*
X65223200Y-74075000D01*
X64723199Y-74075000D01*
X64448229Y-74075000D01*
X64448212Y-74075001D01*
X64345502Y-74085494D01*
X64213819Y-74129130D01*
X64143991Y-74131532D01*
X64083949Y-74095800D01*
X64073240Y-74082547D01*
X64030045Y-74020858D01*
X63869141Y-73859954D01*
X63682734Y-73729432D01*
X63682728Y-73729429D01*
X63655038Y-73716517D01*
X63624724Y-73702381D01*
X63572285Y-73656210D01*
X63553133Y-73589017D01*
X63573348Y-73522135D01*
X63624725Y-73477618D01*
X63682734Y-73450568D01*
X63869139Y-73320047D01*
X64030047Y-73159139D01*
X64160568Y-72972734D01*
X64256739Y-72766496D01*
X64315635Y-72546692D01*
X64335468Y-72320000D01*
X64315635Y-72093308D01*
X64283623Y-71973837D01*
X64285286Y-71903990D01*
X64324448Y-71846127D01*
X64388677Y-71818623D01*
X64457579Y-71830209D01*
G37*
%TD.AperFunction*%
%TA.AperFunction,Conductor*%
G36*
X85913002Y-79585751D02*
G01*
X85961698Y-79635856D01*
X85975968Y-79689827D01*
X85977290Y-79731899D01*
X85982879Y-79751135D01*
X85986824Y-79770187D01*
X85989334Y-79790061D01*
X85990792Y-79793742D01*
X85999500Y-79839390D01*
X85999500Y-83455500D01*
X85979815Y-83522539D01*
X85927011Y-83568294D01*
X85875500Y-83579500D01*
X85372129Y-83579500D01*
X85372123Y-83579501D01*
X85312516Y-83585908D01*
X85177671Y-83636202D01*
X85177664Y-83636206D01*
X85062455Y-83722452D01*
X85049266Y-83740071D01*
X84993332Y-83781941D01*
X84923640Y-83786925D01*
X84862317Y-83753439D01*
X84850734Y-83740071D01*
X84845032Y-83732454D01*
X84837546Y-83722454D01*
X84837544Y-83722453D01*
X84837544Y-83722452D01*
X84722335Y-83636206D01*
X84722328Y-83636202D01*
X84587482Y-83585908D01*
X84587483Y-83585908D01*
X84527883Y-83579501D01*
X84527881Y-83579500D01*
X84527873Y-83579500D01*
X84527865Y-83579500D01*
X84429500Y-83579500D01*
X84362461Y-83559815D01*
X84316706Y-83507011D01*
X84305500Y-83455500D01*
X84305500Y-83440656D01*
X84305500Y-83440650D01*
X84304631Y-83433779D01*
X84304173Y-83427952D01*
X84304156Y-83427414D01*
X84302710Y-83381373D01*
X84297119Y-83362130D01*
X84293173Y-83343078D01*
X84290664Y-83323208D01*
X84273504Y-83279867D01*
X84271624Y-83274379D01*
X84258618Y-83229610D01*
X84255223Y-83223870D01*
X84248423Y-83212371D01*
X84239861Y-83194894D01*
X84232487Y-83176271D01*
X84232486Y-83176268D01*
X84219650Y-83158602D01*
X84196171Y-83092798D01*
X84211996Y-83024744D01*
X84262101Y-82976049D01*
X84294179Y-82964430D01*
X84367504Y-82948845D01*
X84367508Y-82948843D01*
X84367509Y-82948843D01*
X84427616Y-82922081D01*
X84540431Y-82871852D01*
X84693572Y-82760589D01*
X84820234Y-82619917D01*
X84914880Y-82455985D01*
X84973375Y-82275957D01*
X84991973Y-82098997D01*
X85006628Y-82052231D01*
X85010062Y-82045984D01*
X85019715Y-82028422D01*
X85030389Y-82012172D01*
X85042673Y-81996338D01*
X85061180Y-81953569D01*
X85063749Y-81948326D01*
X85078187Y-81922064D01*
X85086197Y-81907494D01*
X85091177Y-81888093D01*
X85097478Y-81869690D01*
X85105438Y-81851298D01*
X85112730Y-81805251D01*
X85113911Y-81799554D01*
X85114499Y-81797264D01*
X85125500Y-81754421D01*
X85125500Y-81734384D01*
X85127027Y-81714984D01*
X85127739Y-81710489D01*
X85130160Y-81695206D01*
X85125775Y-81648817D01*
X85125500Y-81642979D01*
X85125500Y-81573466D01*
X85145185Y-81506427D01*
X85197989Y-81460672D01*
X85206156Y-81457288D01*
X85242331Y-81443796D01*
X85357546Y-81357546D01*
X85443796Y-81242331D01*
X85494091Y-81107483D01*
X85500500Y-81047873D01*
X85500499Y-79813091D01*
X85520184Y-79746053D01*
X85572987Y-79700298D01*
X85574063Y-79699813D01*
X85655451Y-79663576D01*
X85725477Y-79632398D01*
X85779145Y-79593405D01*
X85844948Y-79569926D01*
X85913002Y-79585751D01*
G37*
%TD.AperFunction*%
%TA.AperFunction,Conductor*%
G36*
X87932590Y-78863456D02*
G01*
X87969804Y-78922591D01*
X87974500Y-78956393D01*
X87974500Y-83461411D01*
X87954815Y-83528450D01*
X87902011Y-83574205D01*
X87863754Y-83584701D01*
X87852516Y-83585909D01*
X87717671Y-83636202D01*
X87717664Y-83636206D01*
X87602455Y-83722452D01*
X87589266Y-83740071D01*
X87533332Y-83781941D01*
X87463640Y-83786925D01*
X87402317Y-83753439D01*
X87390734Y-83740071D01*
X87385032Y-83732454D01*
X87377546Y-83722454D01*
X87330146Y-83686970D01*
X87300188Y-83664543D01*
X87258318Y-83608609D01*
X87250500Y-83565277D01*
X87250500Y-79741010D01*
X87252224Y-79725396D01*
X87251938Y-79725369D01*
X87252672Y-79717606D01*
X87252268Y-79704763D01*
X87250500Y-79648476D01*
X87250500Y-79618923D01*
X87249629Y-79612032D01*
X87249172Y-79606218D01*
X87248954Y-79599289D01*
X87247709Y-79559646D01*
X87242117Y-79540401D01*
X87238175Y-79521361D01*
X87235664Y-79501481D01*
X87234204Y-79497795D01*
X87225500Y-79452155D01*
X87225500Y-79157453D01*
X87245185Y-79090414D01*
X87261814Y-79069777D01*
X87368478Y-78963113D01*
X87429800Y-78929630D01*
X87456158Y-78926796D01*
X87515350Y-78926796D01*
X87515352Y-78926796D01*
X87700509Y-78887440D01*
X87800066Y-78843113D01*
X87869313Y-78833828D01*
X87932590Y-78863456D01*
G37*
%TD.AperFunction*%
%TA.AperFunction,Conductor*%
G36*
X89518070Y-77708280D02*
G01*
X89542901Y-77727491D01*
X89738181Y-77922770D01*
X89771666Y-77984093D01*
X89774500Y-78010451D01*
X89774500Y-81602260D01*
X89772775Y-81617877D01*
X89773061Y-81617904D01*
X89772326Y-81625670D01*
X89774500Y-81694819D01*
X89774500Y-81724348D01*
X89774501Y-81724365D01*
X89775368Y-81731236D01*
X89775826Y-81737055D01*
X89777290Y-81783629D01*
X89777291Y-81783632D01*
X89782880Y-81802872D01*
X89786824Y-81821916D01*
X89789336Y-81841797D01*
X89799570Y-81867645D01*
X89806490Y-81885124D01*
X89808382Y-81890652D01*
X89819126Y-81927633D01*
X89821382Y-81935395D01*
X89826824Y-81944598D01*
X89831580Y-81952639D01*
X89840136Y-81970105D01*
X89844331Y-81980697D01*
X89847514Y-81988737D01*
X89874898Y-82026428D01*
X89878106Y-82031312D01*
X89901827Y-82071421D01*
X89901833Y-82071429D01*
X89915990Y-82085585D01*
X89928628Y-82100381D01*
X89940405Y-82116591D01*
X89940406Y-82116592D01*
X89976309Y-82146293D01*
X89980620Y-82150215D01*
X90317989Y-82487584D01*
X90638181Y-82807776D01*
X90671666Y-82869099D01*
X90674500Y-82895457D01*
X90674500Y-83455500D01*
X90654815Y-83522539D01*
X90602011Y-83568294D01*
X90550501Y-83579500D01*
X90452130Y-83579500D01*
X90452123Y-83579501D01*
X90392516Y-83585908D01*
X90257671Y-83636202D01*
X90257664Y-83636206D01*
X90142455Y-83722452D01*
X90129266Y-83740071D01*
X90073332Y-83781941D01*
X90003640Y-83786925D01*
X89942317Y-83753439D01*
X89930734Y-83740071D01*
X89925032Y-83732454D01*
X89917546Y-83722454D01*
X89917544Y-83722453D01*
X89917544Y-83722452D01*
X89802335Y-83636206D01*
X89802328Y-83636202D01*
X89667482Y-83585908D01*
X89667483Y-83585908D01*
X89607883Y-83579501D01*
X89607881Y-83579500D01*
X89607873Y-83579500D01*
X89607865Y-83579500D01*
X89349500Y-83579500D01*
X89282461Y-83559815D01*
X89236706Y-83507011D01*
X89225500Y-83455500D01*
X89225500Y-78263733D01*
X89227224Y-78248113D01*
X89226939Y-78248086D01*
X89227673Y-78240324D01*
X89225500Y-78171159D01*
X89225500Y-78141647D01*
X89225500Y-78141641D01*
X89224631Y-78134770D01*
X89224173Y-78128943D01*
X89223944Y-78121659D01*
X89222710Y-78082364D01*
X89217119Y-78063121D01*
X89213173Y-78044069D01*
X89210664Y-78024199D01*
X89193504Y-77980858D01*
X89191616Y-77975342D01*
X89182130Y-77942689D01*
X89182331Y-77872822D01*
X89220274Y-77814152D01*
X89248795Y-77795720D01*
X89302734Y-77770568D01*
X89384098Y-77713596D01*
X89450302Y-77691270D01*
X89518070Y-77708280D01*
G37*
%TD.AperFunction*%
%TA.AperFunction,Conductor*%
G36*
X36432211Y-77594159D02*
G01*
X36458487Y-77625394D01*
X36464292Y-77635209D01*
X36464781Y-77636036D01*
X36473336Y-77653500D01*
X36480714Y-77672132D01*
X36501252Y-77700401D01*
X36508098Y-77709823D01*
X36511306Y-77714707D01*
X36535027Y-77754816D01*
X36535033Y-77754824D01*
X36549190Y-77768980D01*
X36561827Y-77783775D01*
X36573606Y-77799987D01*
X36601986Y-77823465D01*
X36609509Y-77829688D01*
X36613820Y-77833610D01*
X37105708Y-78325499D01*
X37262638Y-78482429D01*
X37296123Y-78543752D01*
X37298278Y-78557148D01*
X37302498Y-78597298D01*
X37315926Y-78725056D01*
X37315927Y-78725059D01*
X37374418Y-78905077D01*
X37374421Y-78905084D01*
X37469067Y-79069016D01*
X37553130Y-79162377D01*
X37595729Y-79209688D01*
X37748865Y-79320948D01*
X37748870Y-79320951D01*
X37921792Y-79397942D01*
X37921797Y-79397944D01*
X38106954Y-79437300D01*
X38106955Y-79437300D01*
X38296244Y-79437300D01*
X38296246Y-79437300D01*
X38481403Y-79397944D01*
X38654330Y-79320951D01*
X38661531Y-79315718D01*
X38727336Y-79292237D01*
X38795391Y-79308061D01*
X38841806Y-79354035D01*
X38863516Y-79391638D01*
X38889879Y-79437300D01*
X38894387Y-79445107D01*
X38911000Y-79507107D01*
X38911000Y-81564843D01*
X38891315Y-81631882D01*
X38874681Y-81652524D01*
X37706810Y-82820394D01*
X37693181Y-82832173D01*
X37673920Y-82846512D01*
X37640350Y-82886519D01*
X37636705Y-82890498D01*
X37630861Y-82896344D01*
X37610511Y-82922081D01*
X37561147Y-82980911D01*
X37557181Y-82986941D01*
X37557134Y-82986910D01*
X37553082Y-82993269D01*
X37553131Y-82993299D01*
X37549341Y-82999443D01*
X37516876Y-83069063D01*
X37482412Y-83137688D01*
X37479940Y-83144479D01*
X37479884Y-83144458D01*
X37477412Y-83151572D01*
X37477467Y-83151591D01*
X37475194Y-83158449D01*
X37459659Y-83233688D01*
X37441953Y-83308392D01*
X37441115Y-83315565D01*
X37441057Y-83315558D01*
X37440289Y-83323072D01*
X37440346Y-83323077D01*
X37439717Y-83330259D01*
X37441952Y-83407038D01*
X37441952Y-83465500D01*
X37422267Y-83532539D01*
X37369463Y-83578294D01*
X37317952Y-83589500D01*
X36322129Y-83589500D01*
X36322123Y-83589501D01*
X36262512Y-83595909D01*
X36254969Y-83597692D01*
X36254307Y-83594893D01*
X36198139Y-83598910D01*
X36136816Y-83565423D01*
X36103333Y-83504099D01*
X36100500Y-83477744D01*
X36100500Y-81159216D01*
X36103561Y-81137276D01*
X36104401Y-81128207D01*
X36100765Y-81088964D01*
X36100500Y-81083241D01*
X36100500Y-81072156D01*
X36099335Y-81065926D01*
X36098461Y-81061253D01*
X36097671Y-81055585D01*
X36097409Y-81052762D01*
X36094035Y-81016340D01*
X36094035Y-81016339D01*
X36091548Y-81007599D01*
X36088350Y-80998059D01*
X36085061Y-80989570D01*
X36085061Y-80989567D01*
X36085059Y-80989564D01*
X36085058Y-80989561D01*
X36064312Y-80956056D01*
X36061530Y-80951064D01*
X36043958Y-80915772D01*
X36043956Y-80915770D01*
X36043955Y-80915768D01*
X36038475Y-80908511D01*
X36032061Y-80900786D01*
X36025916Y-80894045D01*
X35994463Y-80870294D01*
X35990054Y-80866632D01*
X35982494Y-80859740D01*
X35960933Y-80840084D01*
X35960931Y-80840083D01*
X35960929Y-80840081D01*
X35953232Y-80835315D01*
X35944390Y-80830390D01*
X35936264Y-80826343D01*
X35898366Y-80815560D01*
X35892935Y-80813740D01*
X35856172Y-80799499D01*
X35847236Y-80797829D01*
X35837257Y-80796437D01*
X35828207Y-80795598D01*
X35788964Y-80799235D01*
X35783241Y-80799500D01*
X32040292Y-80799500D01*
X31973253Y-80779815D01*
X31927498Y-80727011D01*
X31917554Y-80657853D01*
X31930266Y-80621122D01*
X31929487Y-80620776D01*
X31932123Y-80614854D01*
X31932128Y-80614846D01*
X31990623Y-80434818D01*
X32010409Y-80246562D01*
X31990623Y-80058306D01*
X31932128Y-79878278D01*
X31851062Y-79737868D01*
X31834590Y-79669970D01*
X31857443Y-79603943D01*
X31866290Y-79592909D01*
X31881554Y-79575957D01*
X31941039Y-79539310D01*
X32010896Y-79540641D01*
X32024138Y-79545652D01*
X32101042Y-79579892D01*
X32101047Y-79579894D01*
X32286204Y-79619250D01*
X32286205Y-79619250D01*
X32475494Y-79619250D01*
X32475496Y-79619250D01*
X32660653Y-79579894D01*
X32833580Y-79502901D01*
X32986721Y-79391638D01*
X33113383Y-79250966D01*
X33121641Y-79236663D01*
X33172356Y-79148822D01*
X33222922Y-79100606D01*
X33291529Y-79087382D01*
X33305518Y-79089530D01*
X33484154Y-79127500D01*
X33484155Y-79127500D01*
X33673444Y-79127500D01*
X33673446Y-79127500D01*
X33858603Y-79088144D01*
X34031530Y-79011151D01*
X34184671Y-78899888D01*
X34311333Y-78759216D01*
X34405979Y-78595284D01*
X34449130Y-78462479D01*
X34488566Y-78404806D01*
X34552925Y-78377607D01*
X34592835Y-78379508D01*
X34703354Y-78403000D01*
X34703356Y-78403000D01*
X34892644Y-78403000D01*
X34892646Y-78403000D01*
X35077803Y-78363644D01*
X35250730Y-78286651D01*
X35403871Y-78175388D01*
X35530533Y-78034716D01*
X35625179Y-77870784D01*
X35648110Y-77800206D01*
X35687548Y-77742530D01*
X35751906Y-77715331D01*
X35755228Y-77714995D01*
X35951213Y-77697849D01*
X36156009Y-77642974D01*
X36299353Y-77576131D01*
X36368427Y-77565640D01*
X36432211Y-77594159D01*
G37*
%TD.AperFunction*%
%TA.AperFunction,Conductor*%
G36*
X81454962Y-79016303D02*
G01*
X81462062Y-79019204D01*
X81469696Y-79022602D01*
X81469697Y-79022603D01*
X81654854Y-79061959D01*
X81654855Y-79061959D01*
X81790367Y-79061959D01*
X81857406Y-79081644D01*
X81903161Y-79134448D01*
X81913105Y-79203606D01*
X81884080Y-79267162D01*
X81880769Y-79270831D01*
X81871962Y-79280211D01*
X81864937Y-79287692D01*
X81864936Y-79287693D01*
X81855284Y-79305249D01*
X81844610Y-79321499D01*
X81832329Y-79337334D01*
X81832324Y-79337341D01*
X81813815Y-79380111D01*
X81811245Y-79385357D01*
X81788803Y-79426179D01*
X81783822Y-79445580D01*
X81777521Y-79463983D01*
X81769562Y-79482375D01*
X81769561Y-79482378D01*
X81762271Y-79528400D01*
X81761087Y-79534119D01*
X81749501Y-79579245D01*
X81749500Y-79579255D01*
X81749500Y-79599289D01*
X81747973Y-79618688D01*
X81744840Y-79638467D01*
X81744840Y-79638468D01*
X81749225Y-79684856D01*
X81749500Y-79690694D01*
X81749500Y-81025500D01*
X81729815Y-81092539D01*
X81677011Y-81138294D01*
X81625500Y-81149500D01*
X81439008Y-81149500D01*
X81371969Y-81129815D01*
X81326214Y-81077011D01*
X81316270Y-81007853D01*
X81317570Y-81000425D01*
X81336352Y-80909459D01*
X81346618Y-80859740D01*
X81341515Y-80684372D01*
X81296107Y-80514909D01*
X81282632Y-80489918D01*
X81215354Y-80365140D01*
X81200500Y-80306291D01*
X81200500Y-79219615D01*
X81220185Y-79152576D01*
X81236813Y-79131939D01*
X81323951Y-79044801D01*
X81385270Y-79011319D01*
X81454962Y-79016303D01*
G37*
%TD.AperFunction*%
%TA.AperFunction,Conductor*%
G36*
X55856386Y-71868485D02*
G01*
X55877028Y-71885119D01*
X55957039Y-71965130D01*
X55990524Y-72026453D01*
X55992678Y-72039843D01*
X56010326Y-72207756D01*
X56010327Y-72207759D01*
X56068818Y-72387777D01*
X56068821Y-72387784D01*
X56163467Y-72551716D01*
X56244028Y-72641188D01*
X56290129Y-72692388D01*
X56443265Y-72803648D01*
X56443270Y-72803651D01*
X56616192Y-72880642D01*
X56616197Y-72880644D01*
X56801354Y-72920000D01*
X56801355Y-72920000D01*
X56990644Y-72920000D01*
X56990646Y-72920000D01*
X57175803Y-72880644D01*
X57348730Y-72803651D01*
X57418467Y-72752984D01*
X57484272Y-72729505D01*
X57552326Y-72745330D01*
X57601020Y-72795436D01*
X57611126Y-72821209D01*
X57623259Y-72866490D01*
X57623261Y-72866497D01*
X57719431Y-73072732D01*
X57719432Y-73072734D01*
X57849954Y-73259141D01*
X58010858Y-73420045D01*
X58010861Y-73420047D01*
X58197266Y-73550568D01*
X58250235Y-73575268D01*
X58255275Y-73577618D01*
X58307714Y-73623791D01*
X58326866Y-73690984D01*
X58306650Y-73757865D01*
X58255275Y-73802382D01*
X58197267Y-73829431D01*
X58197265Y-73829432D01*
X58010858Y-73959954D01*
X57849954Y-74120858D01*
X57719432Y-74307265D01*
X57719431Y-74307267D01*
X57623261Y-74513502D01*
X57623258Y-74513511D01*
X57564366Y-74733302D01*
X57564364Y-74733313D01*
X57544532Y-74959998D01*
X57544532Y-74960001D01*
X57564364Y-75186686D01*
X57564366Y-75186697D01*
X57623258Y-75406488D01*
X57623261Y-75406497D01*
X57719431Y-75612732D01*
X57719432Y-75612734D01*
X57849954Y-75799141D01*
X58010858Y-75960045D01*
X58035462Y-75977273D01*
X58079087Y-76031849D01*
X58086281Y-76101348D01*
X58054758Y-76163703D01*
X57994529Y-76199117D01*
X57977593Y-76202138D01*
X57942516Y-76205908D01*
X57807671Y-76256202D01*
X57807664Y-76256206D01*
X57692455Y-76342452D01*
X57626389Y-76430705D01*
X57570455Y-76472575D01*
X57500764Y-76477559D01*
X57439442Y-76444074D01*
X57116129Y-76120761D01*
X57104349Y-76107130D01*
X57094699Y-76094168D01*
X57090012Y-76087872D01*
X57059340Y-76062135D01*
X57049987Y-76054286D01*
X57046012Y-76050644D01*
X57043090Y-76047722D01*
X57040180Y-76044811D01*
X57014440Y-76024459D01*
X56974053Y-75990570D01*
X56955614Y-75975098D01*
X56955613Y-75975097D01*
X56955609Y-75975094D01*
X56949580Y-75971129D01*
X56949612Y-75971080D01*
X56943253Y-75967028D01*
X56943222Y-75967079D01*
X56937080Y-75963291D01*
X56937078Y-75963290D01*
X56937077Y-75963289D01*
X56895414Y-75943861D01*
X56867458Y-75930824D01*
X56833294Y-75913667D01*
X56798833Y-75896360D01*
X56798831Y-75896359D01*
X56798830Y-75896359D01*
X56792045Y-75893889D01*
X56792065Y-75893833D01*
X56784949Y-75891359D01*
X56784931Y-75891415D01*
X56778071Y-75889142D01*
X56750241Y-75883396D01*
X56702834Y-75873607D01*
X56653872Y-75862003D01*
X56628119Y-75855899D01*
X56620947Y-75855061D01*
X56620953Y-75855001D01*
X56613455Y-75854235D01*
X56613450Y-75854295D01*
X56606260Y-75853665D01*
X56529483Y-75855900D01*
X54866848Y-75855900D01*
X54799809Y-75836215D01*
X54769068Y-75804902D01*
X54767793Y-75805911D01*
X54763311Y-75800243D01*
X54639257Y-75676189D01*
X54639256Y-75676188D01*
X54635942Y-75674143D01*
X54634146Y-75672148D01*
X54633589Y-75671707D01*
X54633664Y-75671611D01*
X54589218Y-75622197D01*
X54577997Y-75553234D01*
X54605840Y-75489152D01*
X54635948Y-75463065D01*
X54638942Y-75461218D01*
X54762915Y-75337245D01*
X54854956Y-75188024D01*
X54854958Y-75188019D01*
X54910105Y-75021597D01*
X54910106Y-75021590D01*
X54920599Y-74918886D01*
X54920600Y-74918873D01*
X54920600Y-74781400D01*
X53569600Y-74781400D01*
X53502561Y-74761715D01*
X53456806Y-74708911D01*
X53445600Y-74657400D01*
X53445600Y-74405400D01*
X53465285Y-74338361D01*
X53518089Y-74292606D01*
X53569600Y-74281400D01*
X54920598Y-74281400D01*
X54920599Y-74143928D01*
X54920598Y-74143913D01*
X54910105Y-74041202D01*
X54854958Y-73874780D01*
X54854956Y-73874775D01*
X54769511Y-73736248D01*
X54751071Y-73668856D01*
X54771993Y-73602192D01*
X54825635Y-73557422D01*
X54861796Y-73547861D01*
X54912683Y-73542391D01*
X55047531Y-73492096D01*
X55162746Y-73405846D01*
X55248996Y-73290631D01*
X55299291Y-73155783D01*
X55305700Y-73096173D01*
X55305699Y-71972799D01*
X55325384Y-71905761D01*
X55378187Y-71860006D01*
X55429699Y-71848800D01*
X55789347Y-71848800D01*
X55856386Y-71868485D01*
G37*
%TD.AperFunction*%
%TA.AperFunction,Conductor*%
G36*
X115215518Y-70209589D02*
G01*
X115273544Y-70221922D01*
X115370354Y-70242500D01*
X115429548Y-70242500D01*
X115496587Y-70262185D01*
X115517229Y-70278819D01*
X117338181Y-72099771D01*
X117371666Y-72161094D01*
X117374500Y-72187452D01*
X117374500Y-75376785D01*
X117354815Y-75443824D01*
X117302011Y-75489579D01*
X117232853Y-75499523D01*
X117198096Y-75489167D01*
X117036330Y-75413735D01*
X116839999Y-75361127D01*
X116839999Y-76324313D01*
X116828045Y-76312359D01*
X116715148Y-76254835D01*
X116621481Y-76240000D01*
X116558519Y-76240000D01*
X116464852Y-76254835D01*
X116351955Y-76312359D01*
X116340000Y-76324314D01*
X116340000Y-75361127D01*
X116143671Y-75413734D01*
X115976905Y-75491499D01*
X115907827Y-75501991D01*
X115844043Y-75473471D01*
X115805804Y-75414994D01*
X115800500Y-75379117D01*
X115800500Y-71458832D01*
X115802224Y-71443218D01*
X115801938Y-71443191D01*
X115802672Y-71435428D01*
X115802222Y-71421121D01*
X115800500Y-71366297D01*
X115800500Y-71336745D01*
X115799629Y-71329854D01*
X115799172Y-71324040D01*
X115799137Y-71322937D01*
X115797709Y-71277467D01*
X115792120Y-71258232D01*
X115788174Y-71239179D01*
X115785664Y-71219303D01*
X115768501Y-71175954D01*
X115766614Y-71170441D01*
X115765843Y-71167788D01*
X115753617Y-71125705D01*
X115753616Y-71125703D01*
X115743421Y-71108464D01*
X115734860Y-71090988D01*
X115731355Y-71082135D01*
X115727486Y-71072363D01*
X115727486Y-71072362D01*
X115713787Y-71053508D01*
X115700083Y-71034645D01*
X115696900Y-71029800D01*
X115673170Y-70989674D01*
X115673165Y-70989668D01*
X115659005Y-70975508D01*
X115646370Y-70960715D01*
X115634593Y-70944507D01*
X115598693Y-70914808D01*
X115594381Y-70910885D01*
X115102056Y-70418559D01*
X115068571Y-70357237D01*
X115073555Y-70287545D01*
X115115427Y-70231612D01*
X115180891Y-70207195D01*
X115215518Y-70209589D01*
G37*
%TD.AperFunction*%
%TA.AperFunction,Conductor*%
G36*
X96318812Y-73117054D02*
G01*
X96372690Y-73161539D01*
X96389775Y-73198949D01*
X96397023Y-73226001D01*
X96397025Y-73226005D01*
X96397026Y-73226009D01*
X96480884Y-73405844D01*
X96486629Y-73418164D01*
X96486631Y-73418168D01*
X96608235Y-73591836D01*
X96608239Y-73591841D01*
X96649659Y-73633261D01*
X96690518Y-73674120D01*
X96724002Y-73735444D01*
X96719018Y-73805135D01*
X96690517Y-73849482D01*
X95886208Y-74653790D01*
X95873951Y-74663611D01*
X95874134Y-74663832D01*
X95868123Y-74668804D01*
X95820772Y-74719227D01*
X95799889Y-74740110D01*
X95799877Y-74740123D01*
X95795621Y-74745608D01*
X95791837Y-74750038D01*
X95759937Y-74784009D01*
X95759936Y-74784011D01*
X95750284Y-74801567D01*
X95739610Y-74817817D01*
X95727329Y-74833652D01*
X95727324Y-74833659D01*
X95708815Y-74876429D01*
X95706245Y-74881675D01*
X95683803Y-74922497D01*
X95678822Y-74941898D01*
X95672521Y-74960301D01*
X95664562Y-74978693D01*
X95664561Y-74978696D01*
X95657271Y-75024718D01*
X95656087Y-75030437D01*
X95644501Y-75075563D01*
X95644500Y-75075573D01*
X95644500Y-75095607D01*
X95642973Y-75115006D01*
X95639840Y-75134785D01*
X95639840Y-75134786D01*
X95644225Y-75181174D01*
X95644500Y-75187012D01*
X95644500Y-75425811D01*
X95624815Y-75492850D01*
X95591623Y-75527386D01*
X95430861Y-75639951D01*
X95405877Y-75664936D01*
X95344553Y-75698420D01*
X95274861Y-75693434D01*
X95230516Y-75664934D01*
X94696794Y-75131212D01*
X94686971Y-75118950D01*
X94686750Y-75119134D01*
X94681777Y-75113123D01*
X94678190Y-75109755D01*
X94631355Y-75065773D01*
X94616140Y-75050558D01*
X94610466Y-75044883D01*
X94604977Y-75040625D01*
X94600552Y-75036847D01*
X94566573Y-75004938D01*
X94566571Y-75004936D01*
X94566568Y-75004935D01*
X94549020Y-74995288D01*
X94532754Y-74984604D01*
X94516927Y-74972327D01*
X94516926Y-74972326D01*
X94516924Y-74972325D01*
X94474159Y-74953818D01*
X94468913Y-74951248D01*
X94428084Y-74928803D01*
X94428083Y-74928802D01*
X94408684Y-74923822D01*
X94390272Y-74917518D01*
X94371889Y-74909562D01*
X94371885Y-74909561D01*
X94353059Y-74906579D01*
X94289925Y-74876648D01*
X94252995Y-74817335D01*
X94253995Y-74747473D01*
X94292606Y-74689241D01*
X94299540Y-74683814D01*
X94425374Y-74592391D01*
X94552036Y-74451719D01*
X94646682Y-74287787D01*
X94705177Y-74107759D01*
X94705177Y-74107758D01*
X94707185Y-74101579D01*
X94708885Y-74102131D01*
X94737928Y-74048326D01*
X94799088Y-74014544D01*
X94836839Y-74012053D01*
X94937490Y-74020859D01*
X94999999Y-74026328D01*
X95000000Y-74026328D01*
X95000001Y-74026328D01*
X95035202Y-74023248D01*
X95211213Y-74007849D01*
X95416009Y-73952974D01*
X95608164Y-73863371D01*
X95781841Y-73741761D01*
X95931761Y-73591841D01*
X96053371Y-73418164D01*
X96142974Y-73226009D01*
X96145606Y-73216185D01*
X96150225Y-73198949D01*
X96186590Y-73139288D01*
X96249437Y-73108759D01*
X96318812Y-73117054D01*
G37*
%TD.AperFunction*%
%TA.AperFunction,Conductor*%
G36*
X91950385Y-73575267D02*
G01*
X91973199Y-73591842D01*
X91974311Y-73592650D01*
X91974312Y-73592651D01*
X92147234Y-73669642D01*
X92147239Y-73669644D01*
X92332396Y-73709000D01*
X92332397Y-73709000D01*
X92521687Y-73709000D01*
X92521688Y-73709000D01*
X92623018Y-73687461D01*
X92692684Y-73692777D01*
X92736480Y-73721070D01*
X92880541Y-73865131D01*
X92914026Y-73926454D01*
X92916181Y-73939850D01*
X92920666Y-73982517D01*
X92933829Y-74107759D01*
X92933830Y-74107762D01*
X92992321Y-74287780D01*
X92992324Y-74287787D01*
X93086970Y-74451719D01*
X93184754Y-74560319D01*
X93213632Y-74592391D01*
X93313820Y-74665182D01*
X93356486Y-74720512D01*
X93362465Y-74790125D01*
X93329859Y-74851920D01*
X93269021Y-74886277D01*
X93240935Y-74889500D01*
X92602839Y-74889500D01*
X92535800Y-74869815D01*
X92515158Y-74853181D01*
X91789819Y-74127841D01*
X91756334Y-74066518D01*
X91753500Y-74040160D01*
X91753500Y-73675585D01*
X91773185Y-73608546D01*
X91825989Y-73562791D01*
X91895147Y-73552847D01*
X91950385Y-73575267D01*
G37*
%TD.AperFunction*%
%TA.AperFunction,Conductor*%
G36*
X68371522Y-63477974D02*
G01*
X68420338Y-63511182D01*
X68431327Y-63523386D01*
X68431330Y-63523389D01*
X68584465Y-63634648D01*
X68584470Y-63634651D01*
X68757392Y-63711642D01*
X68757397Y-63711644D01*
X68942554Y-63751000D01*
X69001748Y-63751000D01*
X69068787Y-63770685D01*
X69089429Y-63787319D01*
X69204090Y-63901980D01*
X69213915Y-63914244D01*
X69214136Y-63914062D01*
X69219106Y-63920069D01*
X69219109Y-63920072D01*
X69219110Y-63920073D01*
X69269547Y-63967437D01*
X69290426Y-63988316D01*
X69295900Y-63992562D01*
X69300338Y-63996352D01*
X69334314Y-64028258D01*
X69334318Y-64028260D01*
X69351869Y-64037909D01*
X69368127Y-64048588D01*
X69383960Y-64060870D01*
X69383962Y-64060871D01*
X69388391Y-64063490D01*
X69436077Y-64114557D01*
X69448584Y-64183298D01*
X69437658Y-64222627D01*
X69423263Y-64253496D01*
X69423258Y-64253511D01*
X69364366Y-64473302D01*
X69364364Y-64473313D01*
X69345247Y-64691830D01*
X69344532Y-64700000D01*
X69364364Y-64926686D01*
X69364365Y-64926691D01*
X69364366Y-64926697D01*
X69382680Y-64995048D01*
X69381017Y-65064897D01*
X69350586Y-65114821D01*
X67383408Y-67081999D01*
X67371151Y-67091820D01*
X67371334Y-67092041D01*
X67365323Y-67097013D01*
X67317972Y-67147436D01*
X67297089Y-67168319D01*
X67297077Y-67168332D01*
X67292821Y-67173817D01*
X67289037Y-67178247D01*
X67257137Y-67212218D01*
X67257136Y-67212220D01*
X67247484Y-67229776D01*
X67236810Y-67246026D01*
X67224529Y-67261861D01*
X67224524Y-67261868D01*
X67206015Y-67304638D01*
X67203445Y-67309884D01*
X67181003Y-67350706D01*
X67176022Y-67370107D01*
X67169721Y-67388510D01*
X67161762Y-67406902D01*
X67161761Y-67406905D01*
X67154471Y-67452927D01*
X67153287Y-67458646D01*
X67141701Y-67503772D01*
X67141700Y-67503782D01*
X67141700Y-67523816D01*
X67140173Y-67543213D01*
X67137040Y-67562996D01*
X67137389Y-67566686D01*
X67141425Y-67609383D01*
X67141700Y-67615221D01*
X67141700Y-69402350D01*
X67139975Y-69417967D01*
X67140261Y-69417994D01*
X67139526Y-69425760D01*
X67141700Y-69494909D01*
X67141700Y-69524438D01*
X67141701Y-69524455D01*
X67142568Y-69531326D01*
X67143026Y-69537145D01*
X67144490Y-69583722D01*
X67150079Y-69602956D01*
X67154024Y-69622002D01*
X67155010Y-69629812D01*
X67155500Y-69637585D01*
X67155500Y-69964869D01*
X67151605Y-69995704D01*
X67141700Y-70034281D01*
X67141700Y-70054321D01*
X67140173Y-70073720D01*
X67137040Y-70093499D01*
X67137039Y-70093502D01*
X67141424Y-70139890D01*
X67141699Y-70145726D01*
X67141700Y-70945446D01*
X67139975Y-70961063D01*
X67140261Y-70961090D01*
X67139526Y-70968856D01*
X67141700Y-71038005D01*
X67141700Y-71067534D01*
X67141701Y-71067551D01*
X67142568Y-71074422D01*
X67143026Y-71080241D01*
X67144490Y-71126815D01*
X67144491Y-71126818D01*
X67150080Y-71146058D01*
X67154024Y-71165102D01*
X67156536Y-71184983D01*
X67168790Y-71215934D01*
X67173690Y-71228310D01*
X67175582Y-71233838D01*
X67186121Y-71270113D01*
X67188582Y-71278581D01*
X67195671Y-71290569D01*
X67198780Y-71295825D01*
X67207336Y-71313291D01*
X67214714Y-71331923D01*
X67240858Y-71367908D01*
X67242098Y-71369614D01*
X67245306Y-71374498D01*
X67269027Y-71414607D01*
X67269033Y-71414615D01*
X67283190Y-71428771D01*
X67295828Y-71443567D01*
X67306918Y-71458832D01*
X67307606Y-71459778D01*
X67340855Y-71487284D01*
X67343509Y-71489479D01*
X67347820Y-71493401D01*
X69113557Y-73259139D01*
X69674934Y-73820516D01*
X69708419Y-73881839D01*
X69703435Y-73951531D01*
X69674936Y-73995877D01*
X69649952Y-74020861D01*
X69519430Y-74207268D01*
X69519428Y-74207271D01*
X69508541Y-74230618D01*
X69462366Y-74283056D01*
X69395172Y-74302205D01*
X69328292Y-74281986D01*
X69308480Y-74265890D01*
X68144283Y-73101693D01*
X66905019Y-71862428D01*
X66871534Y-71801105D01*
X66868700Y-71774747D01*
X66868700Y-66105757D01*
X66888385Y-66038718D01*
X66905019Y-66018076D01*
X67254772Y-65668323D01*
X67605988Y-65317106D01*
X67618242Y-65307291D01*
X67618059Y-65307069D01*
X67624066Y-65302097D01*
X67624077Y-65302091D01*
X67665822Y-65257637D01*
X67671427Y-65251669D01*
X67681871Y-65241223D01*
X67692320Y-65230776D01*
X67696579Y-65225283D01*
X67700352Y-65220866D01*
X67732262Y-65186887D01*
X67741913Y-65169329D01*
X67752596Y-65153066D01*
X67764873Y-65137241D01*
X67783385Y-65094458D01*
X67785938Y-65089246D01*
X67808397Y-65048397D01*
X67813380Y-65028985D01*
X67819681Y-65010585D01*
X67827637Y-64992201D01*
X67834929Y-64946157D01*
X67836106Y-64940476D01*
X67847700Y-64895324D01*
X67847700Y-64875288D01*
X67849227Y-64855887D01*
X67849530Y-64853976D01*
X67852360Y-64836109D01*
X67847975Y-64789720D01*
X67847700Y-64783882D01*
X67847700Y-63950646D01*
X67867385Y-63883607D01*
X67884015Y-63862969D01*
X68240510Y-63506473D01*
X68301831Y-63472990D01*
X68371522Y-63477974D01*
G37*
%TD.AperFunction*%
%TA.AperFunction,Conductor*%
G36*
X60283791Y-69658381D02*
G01*
X61140899Y-70515490D01*
X61987809Y-71362400D01*
X62021294Y-71423723D01*
X62016310Y-71493415D01*
X62001704Y-71521203D01*
X61899431Y-71667267D01*
X61803261Y-71873502D01*
X61803258Y-71873511D01*
X61744366Y-72093302D01*
X61744364Y-72093313D01*
X61724532Y-72319998D01*
X61724532Y-72320001D01*
X61744364Y-72546686D01*
X61744366Y-72546697D01*
X61803258Y-72766488D01*
X61803261Y-72766497D01*
X61899431Y-72972732D01*
X61899432Y-72972734D01*
X62029954Y-73159141D01*
X62190858Y-73320045D01*
X62190861Y-73320047D01*
X62377266Y-73450568D01*
X62435275Y-73477618D01*
X62487714Y-73523791D01*
X62506866Y-73590984D01*
X62486650Y-73657865D01*
X62435275Y-73702381D01*
X62421082Y-73709000D01*
X62377267Y-73729431D01*
X62377265Y-73729432D01*
X62190858Y-73859954D01*
X62029953Y-74020859D01*
X61928247Y-74166112D01*
X61873670Y-74209737D01*
X61804172Y-74216931D01*
X61800892Y-74216279D01*
X61639147Y-74181900D01*
X61639146Y-74181900D01*
X61550369Y-74181900D01*
X61483330Y-74162215D01*
X61468365Y-74150913D01*
X61445647Y-74130884D01*
X61442808Y-74128217D01*
X60149413Y-72834822D01*
X60115928Y-72773499D01*
X60117319Y-72715048D01*
X60122098Y-72697212D01*
X60135635Y-72646692D01*
X60155468Y-72420000D01*
X60154232Y-72405878D01*
X60142965Y-72277088D01*
X60135635Y-72193308D01*
X60076739Y-71973504D01*
X59980568Y-71767266D01*
X59869399Y-71608499D01*
X59850045Y-71580858D01*
X59689141Y-71419954D01*
X59502734Y-71289432D01*
X59502732Y-71289431D01*
X59461980Y-71270428D01*
X59444132Y-71262105D01*
X59391694Y-71215934D01*
X59372542Y-71148740D01*
X59392758Y-71081859D01*
X59444134Y-71037341D01*
X59502484Y-71010132D01*
X59688820Y-70879657D01*
X59849657Y-70718820D01*
X59980134Y-70532482D01*
X60076265Y-70326326D01*
X60076269Y-70326317D01*
X60128872Y-70130000D01*
X59165686Y-70130000D01*
X59177641Y-70118045D01*
X59235165Y-70005148D01*
X59254986Y-69880000D01*
X59235165Y-69754852D01*
X59177641Y-69641955D01*
X59165686Y-69630000D01*
X60153299Y-69630000D01*
X60154151Y-69629378D01*
X60223897Y-69625216D01*
X60283791Y-69658381D01*
G37*
%TD.AperFunction*%
%TA.AperFunction,Conductor*%
G36*
X37058812Y-64107054D02*
G01*
X37112690Y-64151539D01*
X37129775Y-64188949D01*
X37137023Y-64216001D01*
X37137025Y-64216005D01*
X37137026Y-64216009D01*
X37210196Y-64372924D01*
X37226629Y-64408164D01*
X37226631Y-64408168D01*
X37348235Y-64581836D01*
X37348240Y-64581842D01*
X37498157Y-64731759D01*
X37498163Y-64731764D01*
X37671831Y-64853368D01*
X37671833Y-64853369D01*
X37671836Y-64853371D01*
X37863991Y-64942974D01*
X37863997Y-64942975D01*
X37863998Y-64942976D01*
X37877583Y-64946616D01*
X37972040Y-64971925D01*
X38031699Y-65008290D01*
X38062229Y-65071136D01*
X38053935Y-65140512D01*
X38021154Y-65185409D01*
X38017456Y-65188612D01*
X37923311Y-65297262D01*
X37923296Y-65297283D01*
X37845502Y-65418333D01*
X37845489Y-65418356D01*
X37785583Y-65549533D01*
X37785143Y-65551258D01*
X37745221Y-65687217D01*
X37745218Y-65687227D01*
X37724758Y-65829538D01*
X37724758Y-65885897D01*
X37724753Y-65885914D01*
X37724753Y-66417056D01*
X37724758Y-66417103D01*
X37724758Y-66473462D01*
X37740006Y-66579515D01*
X37743958Y-66606999D01*
X37743958Y-66607002D01*
X37745219Y-66615776D01*
X37785767Y-66753868D01*
X37785772Y-66753881D01*
X37845489Y-66884643D01*
X37845502Y-66884666D01*
X37923296Y-67005716D01*
X37923311Y-67005737D01*
X37989393Y-67081999D01*
X38017457Y-67114387D01*
X38017460Y-67114390D01*
X38126230Y-67208639D01*
X38184406Y-67246026D01*
X38247178Y-67286368D01*
X38247180Y-67286368D01*
X38247184Y-67286371D01*
X38378100Y-67346158D01*
X38516055Y-67386665D01*
X38658511Y-67407147D01*
X38658514Y-67407147D01*
X39280400Y-67407147D01*
X39352361Y-67402000D01*
X39364413Y-67398460D01*
X39414951Y-67397107D01*
X39415204Y-67394762D01*
X39431787Y-67396544D01*
X39482527Y-67402000D01*
X40578272Y-67401999D01*
X40637883Y-67395591D01*
X40637894Y-67395586D01*
X40638494Y-67395446D01*
X40639742Y-67395390D01*
X40645595Y-67394761D01*
X40645634Y-67395126D01*
X40684662Y-67393382D01*
X40771749Y-67405903D01*
X40835302Y-67434927D01*
X40873077Y-67493705D01*
X40878100Y-67528640D01*
X40878100Y-69252722D01*
X40858415Y-69319761D01*
X40805611Y-69365516D01*
X40736453Y-69375460D01*
X40681215Y-69353041D01*
X40660843Y-69338240D01*
X40635530Y-69319849D01*
X40635528Y-69319848D01*
X40635529Y-69319848D01*
X40462607Y-69242857D01*
X40462602Y-69242855D01*
X40316801Y-69211865D01*
X40277446Y-69203500D01*
X40088154Y-69203500D01*
X40055697Y-69210398D01*
X39902997Y-69242855D01*
X39902992Y-69242857D01*
X39730070Y-69319848D01*
X39730065Y-69319851D01*
X39576929Y-69431111D01*
X39450266Y-69571785D01*
X39355621Y-69735715D01*
X39355618Y-69735722D01*
X39297127Y-69915740D01*
X39297126Y-69915744D01*
X39277340Y-70104000D01*
X39297126Y-70292256D01*
X39297127Y-70292259D01*
X39355618Y-70472277D01*
X39355621Y-70472284D01*
X39450267Y-70636216D01*
X39547403Y-70744096D01*
X39576929Y-70776888D01*
X39730065Y-70888148D01*
X39730067Y-70888149D01*
X39730070Y-70888151D01*
X39800936Y-70919703D01*
X39854172Y-70964952D01*
X39874493Y-71031801D01*
X39874499Y-71032981D01*
X39874500Y-72504137D01*
X39854815Y-72571176D01*
X39838181Y-72591818D01*
X39400008Y-73029990D01*
X39387751Y-73039811D01*
X39387934Y-73040032D01*
X39381923Y-73045004D01*
X39334570Y-73095429D01*
X39319478Y-73110520D01*
X39258154Y-73144003D01*
X39188462Y-73139016D01*
X39144119Y-73110517D01*
X39061842Y-73028240D01*
X39061836Y-73028235D01*
X38888168Y-72906631D01*
X38888164Y-72906629D01*
X38836565Y-72882568D01*
X38696009Y-72817026D01*
X38696005Y-72817025D01*
X38696001Y-72817023D01*
X38491218Y-72762152D01*
X38491208Y-72762150D01*
X38280001Y-72743672D01*
X38279999Y-72743672D01*
X38068791Y-72762150D01*
X38068785Y-72762151D01*
X38041643Y-72769424D01*
X37971793Y-72767759D01*
X37913931Y-72728595D01*
X37886429Y-72664366D01*
X37891620Y-72611332D01*
X37918874Y-72527456D01*
X37938660Y-72339200D01*
X37918874Y-72150944D01*
X37860379Y-71970916D01*
X37765733Y-71806984D01*
X37639071Y-71666312D01*
X37629716Y-71659515D01*
X37485934Y-71555051D01*
X37485929Y-71555048D01*
X37313007Y-71478057D01*
X37313002Y-71478055D01*
X37153129Y-71444074D01*
X37127846Y-71438700D01*
X37127845Y-71438700D01*
X37071589Y-71438700D01*
X37004550Y-71419015D01*
X36958795Y-71366211D01*
X36948061Y-71325508D01*
X36944905Y-71289432D01*
X36937849Y-71208787D01*
X36889169Y-71027111D01*
X36882976Y-71003998D01*
X36882975Y-71003996D01*
X36882974Y-71003991D01*
X36793371Y-70811836D01*
X36793369Y-70811833D01*
X36793368Y-70811831D01*
X36671764Y-70638163D01*
X36671759Y-70638157D01*
X36521842Y-70488240D01*
X36521836Y-70488235D01*
X36348168Y-70366631D01*
X36348164Y-70366629D01*
X36315501Y-70351398D01*
X36156009Y-70277026D01*
X36156005Y-70277025D01*
X36156001Y-70277023D01*
X36128949Y-70269775D01*
X36069288Y-70233410D01*
X36038759Y-70170563D01*
X36047054Y-70101188D01*
X36091539Y-70047310D01*
X36128949Y-70030225D01*
X36151038Y-70024306D01*
X36156009Y-70022974D01*
X36348164Y-69933371D01*
X36521841Y-69811761D01*
X36671761Y-69661841D01*
X36793371Y-69488164D01*
X36882974Y-69296009D01*
X36937849Y-69091213D01*
X36956328Y-68880000D01*
X36956054Y-68876873D01*
X36949045Y-68796759D01*
X36937849Y-68668787D01*
X36882974Y-68463991D01*
X36793371Y-68271836D01*
X36793369Y-68271833D01*
X36793368Y-68271831D01*
X36671764Y-68098163D01*
X36671759Y-68098157D01*
X36521842Y-67948240D01*
X36521836Y-67948235D01*
X36348168Y-67826631D01*
X36348164Y-67826629D01*
X36337864Y-67821826D01*
X36156009Y-67737026D01*
X36156005Y-67737025D01*
X36156001Y-67737023D01*
X36128949Y-67729775D01*
X36069288Y-67693410D01*
X36038759Y-67630563D01*
X36047054Y-67561188D01*
X36091539Y-67507310D01*
X36128949Y-67490225D01*
X36146930Y-67485406D01*
X36156009Y-67482974D01*
X36348164Y-67393371D01*
X36521841Y-67271761D01*
X36671761Y-67121841D01*
X36793371Y-66948164D01*
X36882974Y-66756009D01*
X36937849Y-66551213D01*
X36956328Y-66340000D01*
X36955713Y-66332976D01*
X36947072Y-66234204D01*
X36937849Y-66128787D01*
X36888985Y-65946424D01*
X36882976Y-65923998D01*
X36882975Y-65923996D01*
X36882974Y-65923991D01*
X36793371Y-65731836D01*
X36793369Y-65731833D01*
X36793368Y-65731831D01*
X36671764Y-65558163D01*
X36671759Y-65558157D01*
X36521842Y-65408240D01*
X36521836Y-65408235D01*
X36348168Y-65286631D01*
X36348164Y-65286629D01*
X36156009Y-65197026D01*
X36156005Y-65197025D01*
X36156001Y-65197023D01*
X36128949Y-65189775D01*
X36069288Y-65153410D01*
X36038759Y-65090563D01*
X36047054Y-65021188D01*
X36091539Y-64967310D01*
X36128949Y-64950225D01*
X36154818Y-64943293D01*
X36156009Y-64942974D01*
X36348164Y-64853371D01*
X36521841Y-64731761D01*
X36671761Y-64581841D01*
X36793371Y-64408164D01*
X36882974Y-64216009D01*
X36890224Y-64188949D01*
X36926590Y-64129288D01*
X36989437Y-64098759D01*
X37058812Y-64107054D01*
G37*
%TD.AperFunction*%
%TA.AperFunction,Conductor*%
G36*
X73960196Y-71280160D02*
G01*
X73960197Y-71280159D01*
X73960199Y-71280160D01*
X73976996Y-71278572D01*
X74045591Y-71291858D01*
X74096113Y-71340121D01*
X74112522Y-71408036D01*
X74107020Y-71434806D01*
X74107693Y-71434965D01*
X74105908Y-71442516D01*
X74100404Y-71493716D01*
X74099500Y-71502127D01*
X74099500Y-72161094D01*
X74099501Y-72725500D01*
X74079816Y-72792539D01*
X74027013Y-72838294D01*
X73975501Y-72849500D01*
X73646341Y-72849500D01*
X73630724Y-72847776D01*
X73630697Y-72848062D01*
X73622935Y-72847327D01*
X73553807Y-72849500D01*
X73524254Y-72849500D01*
X73523533Y-72849590D01*
X73517361Y-72850369D01*
X73511549Y-72850826D01*
X73464976Y-72852290D01*
X73464973Y-72852291D01*
X73445730Y-72857881D01*
X73426686Y-72861825D01*
X73417986Y-72862924D01*
X73415044Y-72863295D01*
X73346067Y-72852171D01*
X73294053Y-72805520D01*
X73275500Y-72740274D01*
X73275500Y-72042643D01*
X73277224Y-72027023D01*
X73276939Y-72026997D01*
X73277671Y-72019241D01*
X73277673Y-72019234D01*
X73275500Y-71950086D01*
X73275500Y-71920551D01*
X73274631Y-71913673D01*
X73274172Y-71907844D01*
X73273194Y-71876709D01*
X73290765Y-71809085D01*
X73309448Y-71785140D01*
X73789685Y-71304903D01*
X73851006Y-71271420D01*
X73896763Y-71270113D01*
X73960196Y-71280160D01*
G37*
%TD.AperFunction*%
%TA.AperFunction,Conductor*%
G36*
X96768137Y-71209017D02*
G01*
X96774312Y-71213071D01*
X96931836Y-71323371D01*
X97123991Y-71412974D01*
X97151050Y-71420224D01*
X97210709Y-71456587D01*
X97241240Y-71519433D01*
X97232946Y-71588809D01*
X97188462Y-71642688D01*
X97151055Y-71659773D01*
X97123997Y-71667024D01*
X97123993Y-71667025D01*
X97123991Y-71667026D01*
X97102865Y-71676877D01*
X96931835Y-71756629D01*
X96931831Y-71756631D01*
X96758163Y-71878235D01*
X96758157Y-71878240D01*
X96608240Y-72028157D01*
X96608235Y-72028163D01*
X96486631Y-72201831D01*
X96486629Y-72201835D01*
X96397027Y-72393989D01*
X96397024Y-72393997D01*
X96389773Y-72421055D01*
X96353406Y-72480714D01*
X96290558Y-72511241D01*
X96221182Y-72502944D01*
X96167306Y-72458456D01*
X96150225Y-72421052D01*
X96142974Y-72393991D01*
X96053371Y-72201836D01*
X95944270Y-72046024D01*
X95921944Y-71979819D01*
X95938954Y-71912052D01*
X95989902Y-71864239D01*
X96000206Y-71859607D01*
X96002529Y-71858687D01*
X96002528Y-71858687D01*
X96002532Y-71858686D01*
X96040249Y-71831282D01*
X96045105Y-71828092D01*
X96085220Y-71804370D01*
X96099389Y-71790199D01*
X96114179Y-71777568D01*
X96130387Y-71765794D01*
X96160099Y-71729876D01*
X96164012Y-71725576D01*
X96419986Y-71469602D01*
X96432248Y-71459780D01*
X96432065Y-71459559D01*
X96438067Y-71454592D01*
X96438077Y-71454586D01*
X96485441Y-71404148D01*
X96506320Y-71383270D01*
X96510573Y-71377786D01*
X96514350Y-71373363D01*
X96546262Y-71339382D01*
X96555914Y-71321823D01*
X96566589Y-71305572D01*
X96578874Y-71289736D01*
X96589399Y-71265410D01*
X96634085Y-71211704D01*
X96700716Y-71190680D01*
X96768137Y-71209017D01*
G37*
%TD.AperFunction*%
%TA.AperFunction,Conductor*%
G36*
X101398808Y-65497052D02*
G01*
X101452687Y-65541536D01*
X101469773Y-65578945D01*
X101477023Y-65606000D01*
X101477024Y-65606004D01*
X101477026Y-65606009D01*
X101556061Y-65775501D01*
X101566629Y-65798164D01*
X101566631Y-65798168D01*
X101688235Y-65971836D01*
X101688240Y-65971842D01*
X101838157Y-66121759D01*
X101838163Y-66121764D01*
X102011831Y-66243368D01*
X102011833Y-66243369D01*
X102011836Y-66243371D01*
X102203991Y-66332974D01*
X102203997Y-66332975D01*
X102203998Y-66332976D01*
X102230212Y-66340000D01*
X102408787Y-66387849D01*
X102557513Y-66400861D01*
X102619999Y-66406328D01*
X102620000Y-66406328D01*
X102620001Y-66406328D01*
X102655202Y-66403248D01*
X102831213Y-66387849D01*
X103036009Y-66332974D01*
X103084095Y-66310550D01*
X103153173Y-66300059D01*
X103216957Y-66328579D01*
X103255196Y-66387055D01*
X103260500Y-66422933D01*
X103260500Y-66494533D01*
X103240815Y-66561572D01*
X103188011Y-66607327D01*
X103179836Y-66610714D01*
X103143665Y-66624205D01*
X103028455Y-66710452D01*
X103028452Y-66710455D01*
X102942206Y-66825664D01*
X102942202Y-66825671D01*
X102891908Y-66960517D01*
X102885501Y-67020116D01*
X102885500Y-67020135D01*
X102885500Y-68615870D01*
X102885501Y-68615876D01*
X102891908Y-68675483D01*
X102942202Y-68810328D01*
X102942203Y-68810329D01*
X102942204Y-68810331D01*
X103018013Y-68911599D01*
X103026185Y-68922515D01*
X103050602Y-68987979D01*
X103050239Y-69009782D01*
X103032063Y-69182725D01*
X103031340Y-69189601D01*
X103031340Y-69189603D01*
X103034071Y-69215598D01*
X103021499Y-69284327D01*
X103010018Y-69302863D01*
X102963005Y-69365665D01*
X102963002Y-69365671D01*
X102912708Y-69500517D01*
X102906301Y-69560116D01*
X102906300Y-69560135D01*
X102906300Y-71155870D01*
X102906301Y-71155876D01*
X102912708Y-71215483D01*
X102963002Y-71350328D01*
X102963003Y-71350330D01*
X102985825Y-71380816D01*
X103015997Y-71421121D01*
X103026541Y-71435205D01*
X103050958Y-71500669D01*
X103036107Y-71568942D01*
X102986702Y-71618348D01*
X102918429Y-71633200D01*
X102895181Y-71629291D01*
X102831218Y-71612152D01*
X102831208Y-71612150D01*
X102620001Y-71593672D01*
X102619999Y-71593672D01*
X102408791Y-71612150D01*
X102408781Y-71612152D01*
X102203998Y-71667023D01*
X102203991Y-71667025D01*
X102203991Y-71667026D01*
X102182865Y-71676877D01*
X102011835Y-71756629D01*
X102011831Y-71756631D01*
X101838163Y-71878235D01*
X101838157Y-71878240D01*
X101688240Y-72028157D01*
X101688235Y-72028163D01*
X101566631Y-72201831D01*
X101566629Y-72201835D01*
X101477027Y-72393989D01*
X101477024Y-72393996D01*
X101469775Y-72421051D01*
X101433409Y-72480711D01*
X101370562Y-72511240D01*
X101301187Y-72502945D01*
X101247309Y-72458459D01*
X101230225Y-72421051D01*
X101223664Y-72396566D01*
X101222974Y-72393991D01*
X101133371Y-72201836D01*
X101133369Y-72201833D01*
X101133368Y-72201831D01*
X101011764Y-72028163D01*
X101011759Y-72028157D01*
X100861842Y-71878240D01*
X100861836Y-71878235D01*
X100688168Y-71756631D01*
X100688164Y-71756629D01*
X100640146Y-71734238D01*
X100496009Y-71667026D01*
X100496005Y-71667025D01*
X100496001Y-71667023D01*
X100291218Y-71612152D01*
X100291208Y-71612150D01*
X100080001Y-71593672D01*
X100079999Y-71593672D01*
X99868791Y-71612150D01*
X99868781Y-71612152D01*
X99663998Y-71667023D01*
X99663991Y-71667025D01*
X99663991Y-71667026D01*
X99642865Y-71676877D01*
X99471835Y-71756629D01*
X99471831Y-71756631D01*
X99298163Y-71878235D01*
X99298157Y-71878240D01*
X99148240Y-72028157D01*
X99148235Y-72028163D01*
X99026631Y-72201831D01*
X99026629Y-72201835D01*
X98937027Y-72393989D01*
X98937024Y-72393996D01*
X98929775Y-72421051D01*
X98893409Y-72480711D01*
X98830562Y-72511240D01*
X98761187Y-72502945D01*
X98707309Y-72458459D01*
X98690225Y-72421051D01*
X98683664Y-72396566D01*
X98682974Y-72393991D01*
X98593371Y-72201836D01*
X98593369Y-72201833D01*
X98593368Y-72201831D01*
X98471764Y-72028163D01*
X98471759Y-72028157D01*
X98321842Y-71878240D01*
X98321836Y-71878235D01*
X98148168Y-71756631D01*
X98148164Y-71756629D01*
X98100146Y-71734238D01*
X97956009Y-71667026D01*
X97956005Y-71667025D01*
X97956001Y-71667023D01*
X97928949Y-71659775D01*
X97869288Y-71623410D01*
X97838759Y-71560563D01*
X97847054Y-71491188D01*
X97891539Y-71437310D01*
X97928949Y-71420225D01*
X97949885Y-71414615D01*
X97956009Y-71412974D01*
X98148164Y-71323371D01*
X98321841Y-71201761D01*
X98471761Y-71051841D01*
X98593371Y-70878164D01*
X98682974Y-70686009D01*
X98737849Y-70481213D01*
X98756328Y-70270000D01*
X98753405Y-70236596D01*
X98745379Y-70144852D01*
X98737849Y-70058787D01*
X98682974Y-69853991D01*
X98593371Y-69661836D01*
X98593369Y-69661833D01*
X98593368Y-69661831D01*
X98471764Y-69488163D01*
X98471759Y-69488157D01*
X98321842Y-69338240D01*
X98321836Y-69338235D01*
X98148168Y-69216631D01*
X98148164Y-69216629D01*
X98064427Y-69177582D01*
X98011988Y-69131410D01*
X97992836Y-69064216D01*
X98013052Y-68997335D01*
X98066217Y-68952000D01*
X98116832Y-68941200D01*
X98299028Y-68941200D01*
X98299044Y-68941199D01*
X98358572Y-68934798D01*
X98358579Y-68934796D01*
X98493286Y-68884554D01*
X98493293Y-68884550D01*
X98608387Y-68798390D01*
X98608390Y-68798387D01*
X98694550Y-68683293D01*
X98694554Y-68683286D01*
X98744796Y-68548579D01*
X98744798Y-68548572D01*
X98751199Y-68489044D01*
X98751200Y-68489027D01*
X98751200Y-67980000D01*
X97855686Y-67980000D01*
X97867641Y-67968045D01*
X97925165Y-67855148D01*
X97944986Y-67730000D01*
X97925165Y-67604852D01*
X97867641Y-67491955D01*
X97855686Y-67480000D01*
X98751200Y-67480000D01*
X98751200Y-66970972D01*
X98751199Y-66970955D01*
X98744798Y-66911427D01*
X98744796Y-66911420D01*
X98694554Y-66776713D01*
X98694552Y-66776710D01*
X98620893Y-66678315D01*
X98596475Y-66612851D01*
X98611326Y-66544577D01*
X98632473Y-66516328D01*
X99074922Y-66073879D01*
X99136241Y-66040397D01*
X99205933Y-66045381D01*
X99250280Y-66073882D01*
X99298157Y-66121759D01*
X99298163Y-66121764D01*
X99471831Y-66243368D01*
X99471833Y-66243369D01*
X99471836Y-66243371D01*
X99663991Y-66332974D01*
X99663997Y-66332975D01*
X99663998Y-66332976D01*
X99690212Y-66340000D01*
X99868787Y-66387849D01*
X100017513Y-66400861D01*
X100079999Y-66406328D01*
X100080000Y-66406328D01*
X100080001Y-66406328D01*
X100115202Y-66403248D01*
X100291213Y-66387849D01*
X100496009Y-66332974D01*
X100688164Y-66243371D01*
X100861841Y-66121761D01*
X101011761Y-65971841D01*
X101133371Y-65798164D01*
X101222974Y-65606009D01*
X101230224Y-65578949D01*
X101266586Y-65519291D01*
X101329432Y-65488760D01*
X101398808Y-65497052D01*
G37*
%TD.AperFunction*%
%TA.AperFunction,Conductor*%
G36*
X106415883Y-67461220D02*
G01*
X106471816Y-67503092D01*
X106496233Y-67568556D01*
X106496077Y-67588209D01*
X106483672Y-67729998D01*
X106483672Y-67730000D01*
X106502150Y-67941208D01*
X106502152Y-67941218D01*
X106557023Y-68146001D01*
X106557025Y-68146005D01*
X106557026Y-68146009D01*
X106633095Y-68309141D01*
X106646629Y-68338164D01*
X106646631Y-68338168D01*
X106768235Y-68511836D01*
X106768240Y-68511842D01*
X106918157Y-68661759D01*
X106918163Y-68661764D01*
X107091831Y-68783368D01*
X107091833Y-68783369D01*
X107091836Y-68783371D01*
X107283991Y-68872974D01*
X107298542Y-68876873D01*
X107311051Y-68880225D01*
X107370711Y-68916591D01*
X107401240Y-68979438D01*
X107392945Y-69048813D01*
X107348459Y-69102691D01*
X107311051Y-69119775D01*
X107283996Y-69127024D01*
X107283991Y-69127025D01*
X107283991Y-69127026D01*
X107273099Y-69132105D01*
X107091835Y-69216629D01*
X107091831Y-69216631D01*
X106918163Y-69338235D01*
X106918157Y-69338240D01*
X106768240Y-69488157D01*
X106768235Y-69488163D01*
X106646631Y-69661831D01*
X106646629Y-69661835D01*
X106576719Y-69811759D01*
X106560092Y-69847417D01*
X106557027Y-69853989D01*
X106557023Y-69853998D01*
X106502152Y-70058781D01*
X106502150Y-70058791D01*
X106483672Y-70269999D01*
X106483672Y-70270000D01*
X106502150Y-70481208D01*
X106502152Y-70481218D01*
X106557023Y-70686001D01*
X106557025Y-70686005D01*
X106557026Y-70686009D01*
X106641579Y-70867334D01*
X106646629Y-70878164D01*
X106646631Y-70878168D01*
X106768235Y-71051836D01*
X106768240Y-71051842D01*
X106918157Y-71201759D01*
X106918163Y-71201764D01*
X107091831Y-71323368D01*
X107091833Y-71323369D01*
X107091836Y-71323371D01*
X107283991Y-71412974D01*
X107292060Y-71415136D01*
X107311051Y-71420225D01*
X107370711Y-71456591D01*
X107401240Y-71519438D01*
X107392945Y-71588813D01*
X107348459Y-71642691D01*
X107311051Y-71659775D01*
X107283996Y-71667024D01*
X107283991Y-71667025D01*
X107283991Y-71667026D01*
X107262865Y-71676877D01*
X107091835Y-71756629D01*
X107091831Y-71756631D01*
X106918163Y-71878235D01*
X106918157Y-71878240D01*
X106768240Y-72028157D01*
X106768235Y-72028163D01*
X106646631Y-72201831D01*
X106646629Y-72201835D01*
X106557027Y-72393989D01*
X106557024Y-72393996D01*
X106549775Y-72421051D01*
X106513409Y-72480711D01*
X106450562Y-72511240D01*
X106381187Y-72502945D01*
X106327309Y-72458459D01*
X106310225Y-72421051D01*
X106303664Y-72396566D01*
X106302974Y-72393991D01*
X106213371Y-72201836D01*
X106213369Y-72201833D01*
X106213368Y-72201831D01*
X106091764Y-72028163D01*
X106091759Y-72028157D01*
X105941842Y-71878240D01*
X105941836Y-71878235D01*
X105768168Y-71756631D01*
X105768164Y-71756629D01*
X105687254Y-71718900D01*
X105634815Y-71672727D01*
X105615663Y-71605534D01*
X105635879Y-71538653D01*
X105686303Y-71495315D01*
X105686128Y-71494994D01*
X105687633Y-71494171D01*
X105688162Y-71493717D01*
X105690016Y-71492871D01*
X105780120Y-71434965D01*
X105810969Y-71415140D01*
X105810966Y-71415143D01*
X105919739Y-71320891D01*
X105919741Y-71320889D01*
X105939464Y-71298128D01*
X105967920Y-71265287D01*
X106013888Y-71212237D01*
X106013890Y-71212233D01*
X106013897Y-71212226D01*
X106091704Y-71091155D01*
X106091707Y-71091147D01*
X106091710Y-71091143D01*
X106121945Y-71024937D01*
X106151432Y-70960370D01*
X106151432Y-70960369D01*
X106151432Y-70960367D01*
X106151614Y-70959970D01*
X106152050Y-70958262D01*
X106191980Y-70822277D01*
X106193044Y-70814881D01*
X106199626Y-70769100D01*
X106212442Y-70679962D01*
X106212442Y-70623603D01*
X106212447Y-70623585D01*
X106212447Y-70092443D01*
X106212442Y-70092397D01*
X106212442Y-70036039D01*
X106212442Y-70036038D01*
X106195704Y-69919626D01*
X106191980Y-69893720D01*
X106163327Y-69796139D01*
X106151432Y-69755630D01*
X106146058Y-69743862D01*
X106091710Y-69624856D01*
X106091697Y-69624833D01*
X106013903Y-69503783D01*
X106013888Y-69503762D01*
X105961897Y-69443762D01*
X105919743Y-69395113D01*
X105919740Y-69395110D01*
X105888351Y-69367911D01*
X105875096Y-69356425D01*
X105837322Y-69297646D01*
X105832300Y-69262713D01*
X105832300Y-68895262D01*
X105851985Y-68828223D01*
X105875099Y-68801548D01*
X105884362Y-68793521D01*
X105898943Y-68780887D01*
X105953001Y-68718500D01*
X105993088Y-68672237D01*
X105993090Y-68672233D01*
X105993097Y-68672226D01*
X106070904Y-68551155D01*
X106070907Y-68551147D01*
X106070910Y-68551143D01*
X106107707Y-68470568D01*
X106130632Y-68420370D01*
X106130632Y-68420369D01*
X106130632Y-68420367D01*
X106130814Y-68419970D01*
X106131250Y-68418262D01*
X106171180Y-68282277D01*
X106172682Y-68271835D01*
X106180026Y-68220751D01*
X106191642Y-68139962D01*
X106191642Y-68083603D01*
X106191647Y-68083585D01*
X106191647Y-67634304D01*
X106211332Y-67567265D01*
X106227961Y-67546628D01*
X106284870Y-67489719D01*
X106346191Y-67456236D01*
X106415883Y-67461220D01*
G37*
%TD.AperFunction*%
%TA.AperFunction,Conductor*%
G36*
X109854835Y-70395148D02*
G01*
X109912359Y-70508045D01*
X110001955Y-70597641D01*
X110114852Y-70655165D01*
X110195598Y-70667953D01*
X109578286Y-71285266D01*
X109632082Y-71322935D01*
X109632086Y-71322937D01*
X109824161Y-71412502D01*
X109824166Y-71412505D01*
X109852011Y-71419965D01*
X109911673Y-71456328D01*
X109942204Y-71519175D01*
X109933911Y-71588550D01*
X109889427Y-71642429D01*
X109852018Y-71659515D01*
X109823999Y-71667023D01*
X109823992Y-71667025D01*
X109823991Y-71667026D01*
X109802865Y-71676877D01*
X109631835Y-71756629D01*
X109631831Y-71756631D01*
X109458163Y-71878235D01*
X109458157Y-71878240D01*
X109308240Y-72028157D01*
X109308235Y-72028163D01*
X109186631Y-72201831D01*
X109186629Y-72201835D01*
X109097027Y-72393989D01*
X109097024Y-72393996D01*
X109089775Y-72421051D01*
X109053409Y-72480711D01*
X108990562Y-72511240D01*
X108921187Y-72502945D01*
X108867309Y-72458459D01*
X108850225Y-72421051D01*
X108843664Y-72396566D01*
X108842974Y-72393991D01*
X108753371Y-72201836D01*
X108753369Y-72201833D01*
X108753368Y-72201831D01*
X108631764Y-72028163D01*
X108631759Y-72028157D01*
X108481842Y-71878240D01*
X108481836Y-71878235D01*
X108308168Y-71756631D01*
X108308164Y-71756629D01*
X108260146Y-71734238D01*
X108116009Y-71667026D01*
X108116004Y-71667024D01*
X108116000Y-71667023D01*
X108088945Y-71659773D01*
X108029286Y-71623406D01*
X107998758Y-71560559D01*
X108007055Y-71491183D01*
X108051542Y-71437307D01*
X108088947Y-71420225D01*
X108116009Y-71412974D01*
X108308164Y-71323371D01*
X108481841Y-71201761D01*
X108631761Y-71051841D01*
X108753371Y-70878164D01*
X108842974Y-70686009D01*
X108843023Y-70685829D01*
X108850483Y-70657986D01*
X108886847Y-70598325D01*
X108949694Y-70567795D01*
X109019069Y-70576089D01*
X109072948Y-70620574D01*
X109090033Y-70657985D01*
X109097493Y-70685829D01*
X109097497Y-70685838D01*
X109187062Y-70877913D01*
X109224733Y-70931712D01*
X109842045Y-70314399D01*
X109854835Y-70395148D01*
G37*
%TD.AperFunction*%
%TA.AperFunction,Conductor*%
G36*
X57726703Y-70548751D02*
G01*
X57747075Y-70571340D01*
X57850342Y-70718820D01*
X58011179Y-70879657D01*
X58197518Y-71010134D01*
X58197520Y-71010135D01*
X58255865Y-71037342D01*
X58308305Y-71083514D01*
X58327457Y-71150707D01*
X58307242Y-71217589D01*
X58255867Y-71262105D01*
X58197268Y-71289431D01*
X58197264Y-71289433D01*
X58010858Y-71419954D01*
X57858098Y-71572715D01*
X57796775Y-71606200D01*
X57727083Y-71601216D01*
X57671150Y-71559344D01*
X57663030Y-71547034D01*
X57646513Y-71518426D01*
X57628533Y-71487284D01*
X57583536Y-71437310D01*
X57553350Y-71403784D01*
X57523120Y-71340792D01*
X57521500Y-71320812D01*
X57521500Y-70642464D01*
X57541185Y-70575425D01*
X57593989Y-70529670D01*
X57663147Y-70519726D01*
X57726703Y-70548751D01*
G37*
%TD.AperFunction*%
%TA.AperFunction,Conductor*%
G36*
X86940703Y-64372924D02*
G01*
X86966674Y-64409545D01*
X86968756Y-64408401D01*
X86972513Y-64415236D01*
X86972514Y-64415237D01*
X86997659Y-64449847D01*
X86999898Y-64452928D01*
X87003106Y-64457812D01*
X87026827Y-64497921D01*
X87026833Y-64497929D01*
X87040990Y-64512085D01*
X87053628Y-64526881D01*
X87065405Y-64543091D01*
X87065406Y-64543092D01*
X87101309Y-64572793D01*
X87105620Y-64576715D01*
X87565582Y-65036677D01*
X88024583Y-65495678D01*
X88058068Y-65557001D01*
X88053084Y-65626693D01*
X88011212Y-65682626D01*
X87962683Y-65704649D01*
X87807397Y-65737655D01*
X87807392Y-65737657D01*
X87634470Y-65814648D01*
X87634465Y-65814651D01*
X87481329Y-65925911D01*
X87354666Y-66066585D01*
X87260021Y-66230515D01*
X87260018Y-66230522D01*
X87206528Y-66395149D01*
X87201526Y-66410544D01*
X87181740Y-66598800D01*
X87201526Y-66787056D01*
X87201527Y-66787059D01*
X87260018Y-66967077D01*
X87260021Y-66967084D01*
X87354667Y-67131016D01*
X87424562Y-67208642D01*
X87481329Y-67271688D01*
X87634465Y-67382948D01*
X87634470Y-67382951D01*
X87807392Y-67459942D01*
X87807397Y-67459944D01*
X87992554Y-67499300D01*
X88050500Y-67499300D01*
X88117539Y-67518985D01*
X88163294Y-67571789D01*
X88174500Y-67623300D01*
X88174500Y-70588404D01*
X88154815Y-70655443D01*
X88146043Y-70667445D01*
X88138716Y-70676302D01*
X88134782Y-70680625D01*
X88080104Y-70735305D01*
X88052228Y-70763181D01*
X87990905Y-70796666D01*
X87964546Y-70799500D01*
X87905354Y-70799500D01*
X87891725Y-70802397D01*
X87720197Y-70838855D01*
X87720192Y-70838857D01*
X87547270Y-70915848D01*
X87547265Y-70915851D01*
X87394129Y-71027111D01*
X87267465Y-71167785D01*
X87267463Y-71167788D01*
X87232046Y-71229132D01*
X87181479Y-71277347D01*
X87112872Y-71290569D01*
X87048007Y-71264601D01*
X87043458Y-71260844D01*
X86970137Y-71197312D01*
X86970131Y-71197308D01*
X86970126Y-71197303D01*
X86970120Y-71197299D01*
X86970116Y-71197296D01*
X86849071Y-71119505D01*
X86849051Y-71119494D01*
X86813886Y-71103434D01*
X86761083Y-71057678D01*
X86741400Y-70990641D01*
X86741400Y-70582742D01*
X86743124Y-70567122D01*
X86742839Y-70567096D01*
X86743571Y-70559340D01*
X86743573Y-70559333D01*
X86741400Y-70490185D01*
X86741400Y-70460650D01*
X86741400Y-69858137D01*
X86743124Y-69842524D01*
X86742838Y-69842497D01*
X86743572Y-69834734D01*
X86741400Y-69765603D01*
X86741400Y-69736051D01*
X86741400Y-69736050D01*
X86740529Y-69729159D01*
X86740072Y-69723345D01*
X86738609Y-69676772D01*
X86733022Y-69657544D01*
X86729074Y-69638484D01*
X86726564Y-69618608D01*
X86709407Y-69575275D01*
X86707519Y-69569759D01*
X86694519Y-69525012D01*
X86684318Y-69507763D01*
X86675760Y-69490294D01*
X86668386Y-69471668D01*
X86668383Y-69471664D01*
X86668383Y-69471663D01*
X86640998Y-69433971D01*
X86637790Y-69429087D01*
X86614072Y-69388982D01*
X86614063Y-69388971D01*
X86599905Y-69374813D01*
X86587270Y-69360020D01*
X86575493Y-69343812D01*
X86539593Y-69314113D01*
X86535281Y-69310190D01*
X86438960Y-69213869D01*
X86405475Y-69152546D01*
X86403323Y-69139168D01*
X86385674Y-68971244D01*
X86327179Y-68791216D01*
X86232533Y-68627284D01*
X86105871Y-68486612D01*
X86105870Y-68486611D01*
X85952734Y-68375351D01*
X85952729Y-68375348D01*
X85779807Y-68298357D01*
X85779802Y-68298355D01*
X85605504Y-68261308D01*
X85594646Y-68259000D01*
X85456800Y-68259000D01*
X85389761Y-68239315D01*
X85344006Y-68186511D01*
X85332800Y-68135000D01*
X85332800Y-66488862D01*
X85352485Y-66421823D01*
X85405289Y-66376068D01*
X85474447Y-66366124D01*
X85538003Y-66395149D01*
X85548950Y-66405890D01*
X85550929Y-66408088D01*
X85704065Y-66519348D01*
X85704070Y-66519351D01*
X85876992Y-66596342D01*
X85876997Y-66596344D01*
X86062154Y-66635700D01*
X86062155Y-66635700D01*
X86251444Y-66635700D01*
X86251446Y-66635700D01*
X86436603Y-66596344D01*
X86609530Y-66519351D01*
X86762671Y-66408088D01*
X86889333Y-66267416D01*
X86983979Y-66103484D01*
X87042474Y-65923456D01*
X87062260Y-65735200D01*
X87042474Y-65546944D01*
X86983979Y-65366916D01*
X86889333Y-65202984D01*
X86887199Y-65200614D01*
X86767350Y-65067507D01*
X86737120Y-65004515D01*
X86735500Y-64984535D01*
X86735500Y-64466637D01*
X86755185Y-64399598D01*
X86807989Y-64353843D01*
X86877147Y-64343899D01*
X86940703Y-64372924D01*
G37*
%TD.AperFunction*%
%TA.AperFunction,Conductor*%
G36*
X91980429Y-70559015D02*
G01*
X92034770Y-70602934D01*
X92050518Y-70634504D01*
X92058641Y-70659019D01*
X92058643Y-70659024D01*
X92150685Y-70808246D01*
X92151333Y-70809066D01*
X92151602Y-70809733D01*
X92154475Y-70814391D01*
X92153679Y-70814881D01*
X92177474Y-70873862D01*
X92164433Y-70942504D01*
X92141749Y-70973658D01*
X92016208Y-71099200D01*
X92003951Y-71109020D01*
X92004134Y-71109241D01*
X91998123Y-71114213D01*
X91967891Y-71146407D01*
X91907649Y-71181801D01*
X91837835Y-71179007D01*
X91780615Y-71138912D01*
X91754155Y-71074247D01*
X91753500Y-71061522D01*
X91753500Y-70867334D01*
X91768839Y-70807595D01*
X91771697Y-70802397D01*
X91776681Y-70782981D01*
X91782981Y-70764585D01*
X91790937Y-70746201D01*
X91798228Y-70700161D01*
X91799409Y-70694464D01*
X91801582Y-70686001D01*
X91811000Y-70649324D01*
X91811000Y-70649321D01*
X91812708Y-70642669D01*
X91848447Y-70582632D01*
X91910971Y-70551447D01*
X91980429Y-70559015D01*
G37*
%TD.AperFunction*%
%TA.AperFunction,Conductor*%
G36*
X71991087Y-69549685D02*
G01*
X72011729Y-69566319D01*
X72773107Y-70327697D01*
X72804691Y-70381443D01*
X72812125Y-70407566D01*
X72815600Y-70419780D01*
X72815012Y-70489647D01*
X72784014Y-70541394D01*
X72219532Y-71105876D01*
X72158209Y-71139361D01*
X72088517Y-71134377D01*
X72044170Y-71105876D01*
X71685119Y-70746825D01*
X71651634Y-70685502D01*
X71656618Y-70615810D01*
X71671225Y-70588020D01*
X71780133Y-70432482D01*
X71876265Y-70226326D01*
X71876269Y-70226317D01*
X71928872Y-70030000D01*
X70965686Y-70030000D01*
X70977641Y-70018045D01*
X71035165Y-69905148D01*
X71054986Y-69780000D01*
X71035165Y-69654852D01*
X70977641Y-69541955D01*
X70965686Y-69530000D01*
X71924048Y-69530000D01*
X71991087Y-69549685D01*
G37*
%TD.AperFunction*%
%TA.AperFunction,Conductor*%
G36*
X57624485Y-62793418D02*
G01*
X57680418Y-62835290D01*
X57693532Y-62857194D01*
X57719428Y-62912727D01*
X57719432Y-62912734D01*
X57849954Y-63099141D01*
X58010858Y-63260045D01*
X58022523Y-63268213D01*
X58197266Y-63390568D01*
X58254434Y-63417226D01*
X58255275Y-63417618D01*
X58307714Y-63463791D01*
X58326866Y-63530984D01*
X58306650Y-63597865D01*
X58255275Y-63642381D01*
X58238272Y-63650310D01*
X58197267Y-63669431D01*
X58197265Y-63669432D01*
X58010858Y-63799954D01*
X57849954Y-63960858D01*
X57719432Y-64147265D01*
X57719431Y-64147267D01*
X57623261Y-64353502D01*
X57623258Y-64353511D01*
X57564366Y-64573302D01*
X57564364Y-64573313D01*
X57544532Y-64799998D01*
X57544532Y-64800001D01*
X57564364Y-65026686D01*
X57564366Y-65026697D01*
X57623258Y-65246488D01*
X57623261Y-65246497D01*
X57719431Y-65452732D01*
X57719432Y-65452734D01*
X57849954Y-65639141D01*
X58010858Y-65800045D01*
X58031715Y-65814649D01*
X58197266Y-65930568D01*
X58241192Y-65951051D01*
X58255275Y-65957618D01*
X58307714Y-66003791D01*
X58326866Y-66070984D01*
X58306650Y-66137865D01*
X58255275Y-66182382D01*
X58197267Y-66209431D01*
X58197265Y-66209432D01*
X58010858Y-66339954D01*
X57849954Y-66500858D01*
X57719432Y-66687265D01*
X57719431Y-66687267D01*
X57623261Y-66893502D01*
X57623258Y-66893511D01*
X57564366Y-67113302D01*
X57564364Y-67113313D01*
X57544532Y-67339998D01*
X57544532Y-67340001D01*
X57564364Y-67566686D01*
X57564366Y-67566697D01*
X57623258Y-67786488D01*
X57623261Y-67786497D01*
X57719431Y-67992732D01*
X57719432Y-67992734D01*
X57849951Y-68179137D01*
X57849952Y-68179138D01*
X57849953Y-68179139D01*
X57874934Y-68204120D01*
X57908419Y-68265441D01*
X57903436Y-68335133D01*
X57874934Y-68379482D01*
X57341208Y-68913208D01*
X57328951Y-68923029D01*
X57329134Y-68923250D01*
X57323123Y-68928222D01*
X57275772Y-68978645D01*
X57254880Y-68999537D01*
X57250623Y-69005024D01*
X57246837Y-69009455D01*
X57214943Y-69043419D01*
X57214937Y-69043427D01*
X57211903Y-69048946D01*
X57190928Y-69076879D01*
X56512208Y-69755599D01*
X56499951Y-69765420D01*
X56500134Y-69765641D01*
X56494123Y-69770613D01*
X56446772Y-69821036D01*
X56425889Y-69841919D01*
X56425877Y-69841932D01*
X56421621Y-69847417D01*
X56417837Y-69851847D01*
X56385937Y-69885818D01*
X56385936Y-69885820D01*
X56376284Y-69903376D01*
X56365610Y-69919626D01*
X56353329Y-69935461D01*
X56353324Y-69935468D01*
X56334815Y-69978238D01*
X56332245Y-69983484D01*
X56309803Y-70024306D01*
X56304822Y-70043707D01*
X56298521Y-70062110D01*
X56290562Y-70080502D01*
X56290561Y-70080505D01*
X56283271Y-70126527D01*
X56282087Y-70132246D01*
X56270501Y-70177372D01*
X56270500Y-70177382D01*
X56270500Y-70197416D01*
X56268973Y-70216815D01*
X56266345Y-70233410D01*
X56265840Y-70236596D01*
X56268541Y-70265165D01*
X56270225Y-70282983D01*
X56270500Y-70288821D01*
X56270500Y-70471854D01*
X56250815Y-70538893D01*
X56198011Y-70584648D01*
X56128853Y-70594592D01*
X56127103Y-70594327D01*
X56119609Y-70593140D01*
X56119604Y-70593140D01*
X56073216Y-70597525D01*
X56067378Y-70597800D01*
X55429700Y-70597800D01*
X55362661Y-70578115D01*
X55316906Y-70525311D01*
X55305700Y-70473800D01*
X55305699Y-69029364D01*
X55325384Y-68962325D01*
X55378187Y-68916570D01*
X55447346Y-68906626D01*
X55455455Y-68908069D01*
X55582154Y-68935000D01*
X55582155Y-68935000D01*
X55771444Y-68935000D01*
X55771446Y-68935000D01*
X55956603Y-68895644D01*
X56129530Y-68818651D01*
X56282671Y-68707388D01*
X56409333Y-68566716D01*
X56503979Y-68402784D01*
X56562474Y-68222756D01*
X56582260Y-68034500D01*
X56562474Y-67846244D01*
X56503979Y-67666216D01*
X56409333Y-67502284D01*
X56405640Y-67498183D01*
X56334150Y-67418784D01*
X56303920Y-67355792D01*
X56302300Y-67335812D01*
X56302300Y-64064451D01*
X56321985Y-63997412D01*
X56338614Y-63976775D01*
X57493472Y-62821917D01*
X57554793Y-62788434D01*
X57624485Y-62793418D01*
G37*
%TD.AperFunction*%
%TA.AperFunction,Conductor*%
G36*
X44678812Y-69187054D02*
G01*
X44732690Y-69231539D01*
X44749775Y-69268949D01*
X44757023Y-69296001D01*
X44757025Y-69296005D01*
X44757026Y-69296009D01*
X44838937Y-69471668D01*
X44846629Y-69488164D01*
X44846631Y-69488168D01*
X44968235Y-69661836D01*
X44968240Y-69661842D01*
X45118157Y-69811759D01*
X45118163Y-69811764D01*
X45291831Y-69933368D01*
X45291833Y-69933369D01*
X45291836Y-69933371D01*
X45483991Y-70022974D01*
X45498717Y-70026919D01*
X45511051Y-70030225D01*
X45570711Y-70066591D01*
X45601240Y-70129438D01*
X45592945Y-70198813D01*
X45548459Y-70252691D01*
X45511051Y-70269775D01*
X45483994Y-70277024D01*
X45371335Y-70329557D01*
X45302257Y-70340048D01*
X45238474Y-70311527D01*
X45231251Y-70304855D01*
X44475144Y-69548748D01*
X44441659Y-69487425D01*
X44446643Y-69417733D01*
X44450443Y-69408662D01*
X44456761Y-69395113D01*
X44502974Y-69296009D01*
X44507461Y-69279264D01*
X44510225Y-69268949D01*
X44546590Y-69209288D01*
X44609437Y-69178759D01*
X44678812Y-69187054D01*
G37*
%TD.AperFunction*%
%TA.AperFunction,Conductor*%
G36*
X92016203Y-68512986D02*
G01*
X92052705Y-68567693D01*
X92056076Y-68577865D01*
X92058185Y-68584231D01*
X92058187Y-68584236D01*
X92077699Y-68615870D01*
X92150288Y-68733556D01*
X92274344Y-68857612D01*
X92277628Y-68859637D01*
X92277653Y-68859653D01*
X92279445Y-68861646D01*
X92280011Y-68862093D01*
X92279934Y-68862189D01*
X92324379Y-68911599D01*
X92335603Y-68980561D01*
X92307761Y-69044644D01*
X92277665Y-69070726D01*
X92274660Y-69072579D01*
X92274655Y-69072583D01*
X92150684Y-69196554D01*
X92058643Y-69345775D01*
X92058641Y-69345780D01*
X92052706Y-69363693D01*
X92012933Y-69421138D01*
X91948417Y-69447961D01*
X91879642Y-69435646D01*
X91828442Y-69388103D01*
X91811000Y-69324689D01*
X91811000Y-68606699D01*
X91830685Y-68539660D01*
X91883489Y-68493905D01*
X91952647Y-68483961D01*
X92016203Y-68512986D01*
G37*
%TD.AperFunction*%
%TA.AperFunction,Conductor*%
G36*
X44678812Y-66647054D02*
G01*
X44732690Y-66691539D01*
X44749775Y-66728949D01*
X44757023Y-66756001D01*
X44757025Y-66756005D01*
X44757026Y-66756009D01*
X44826542Y-66905087D01*
X44846629Y-66948164D01*
X44846631Y-66948168D01*
X44968235Y-67121836D01*
X44968240Y-67121842D01*
X45118157Y-67271759D01*
X45118163Y-67271764D01*
X45291831Y-67393368D01*
X45291833Y-67393369D01*
X45291836Y-67393371D01*
X45483991Y-67482974D01*
X45498717Y-67486919D01*
X45511051Y-67490225D01*
X45570711Y-67526591D01*
X45601240Y-67589438D01*
X45592945Y-67658813D01*
X45548459Y-67712691D01*
X45511051Y-67729775D01*
X45483996Y-67737024D01*
X45483989Y-67737027D01*
X45291835Y-67826629D01*
X45291831Y-67826631D01*
X45118163Y-67948235D01*
X45118157Y-67948240D01*
X44968240Y-68098157D01*
X44968235Y-68098163D01*
X44846631Y-68271831D01*
X44846629Y-68271835D01*
X44757027Y-68463989D01*
X44757024Y-68463996D01*
X44749775Y-68491051D01*
X44713409Y-68550711D01*
X44650562Y-68581240D01*
X44581187Y-68572945D01*
X44527309Y-68528459D01*
X44510225Y-68491051D01*
X44502975Y-68463996D01*
X44502974Y-68463991D01*
X44413371Y-68271836D01*
X44413369Y-68271833D01*
X44413368Y-68271831D01*
X44291764Y-68098163D01*
X44291759Y-68098157D01*
X44141842Y-67948240D01*
X44141836Y-67948235D01*
X43968168Y-67826631D01*
X43968164Y-67826629D01*
X43957864Y-67821826D01*
X43776009Y-67737026D01*
X43776005Y-67737025D01*
X43776001Y-67737023D01*
X43748949Y-67729775D01*
X43689288Y-67693410D01*
X43658759Y-67630563D01*
X43667054Y-67561188D01*
X43711539Y-67507310D01*
X43748949Y-67490225D01*
X43766930Y-67485406D01*
X43776009Y-67482974D01*
X43968164Y-67393371D01*
X44141841Y-67271761D01*
X44291761Y-67121841D01*
X44413371Y-66948164D01*
X44502974Y-66756009D01*
X44510224Y-66728949D01*
X44546590Y-66669288D01*
X44609437Y-66638759D01*
X44678812Y-66647054D01*
G37*
%TD.AperFunction*%
%TA.AperFunction,Conductor*%
G36*
X58623200Y-58220185D02*
G01*
X58668955Y-58272989D01*
X58678899Y-58342147D01*
X58649874Y-58405703D01*
X58591096Y-58443477D01*
X58588254Y-58444275D01*
X58403682Y-58493730D01*
X58403673Y-58493734D01*
X58197517Y-58589865D01*
X58011179Y-58720342D01*
X57850342Y-58881179D01*
X57719865Y-59067517D01*
X57623734Y-59273673D01*
X57623730Y-59273682D01*
X57571127Y-59469999D01*
X57571128Y-59470000D01*
X58534314Y-59470000D01*
X58522359Y-59481955D01*
X58464835Y-59594852D01*
X58445014Y-59720000D01*
X58464835Y-59845148D01*
X58522359Y-59958045D01*
X58534314Y-59970000D01*
X57571128Y-59970000D01*
X57623730Y-60166317D01*
X57623734Y-60166326D01*
X57719866Y-60372482D01*
X57847102Y-60554194D01*
X57869429Y-60620401D01*
X57852419Y-60688168D01*
X57833208Y-60712999D01*
X55293008Y-63253199D01*
X55280751Y-63263020D01*
X55280934Y-63263241D01*
X55274923Y-63268213D01*
X55227572Y-63318636D01*
X55206689Y-63339519D01*
X55206677Y-63339532D01*
X55202421Y-63345017D01*
X55198637Y-63349447D01*
X55166737Y-63383418D01*
X55166736Y-63383420D01*
X55157084Y-63400976D01*
X55146410Y-63417226D01*
X55134129Y-63433061D01*
X55134124Y-63433068D01*
X55115615Y-63475838D01*
X55113045Y-63481084D01*
X55090603Y-63521906D01*
X55085622Y-63541307D01*
X55079321Y-63559710D01*
X55071362Y-63578102D01*
X55071361Y-63578105D01*
X55064071Y-63624127D01*
X55062887Y-63629846D01*
X55051301Y-63674972D01*
X55051300Y-63674982D01*
X55051300Y-63695016D01*
X55049773Y-63714413D01*
X55046640Y-63734196D01*
X55049016Y-63759329D01*
X55051025Y-63780583D01*
X55051300Y-63786421D01*
X55051300Y-67335812D01*
X55031615Y-67402851D01*
X55019450Y-67418784D01*
X54971343Y-67472212D01*
X54911856Y-67508861D01*
X54841999Y-67507530D01*
X54791512Y-67476921D01*
X54789206Y-67474615D01*
X54776568Y-67459819D01*
X54771561Y-67452927D01*
X54764794Y-67443613D01*
X54754294Y-67434927D01*
X54728888Y-67413909D01*
X54724576Y-67409986D01*
X52529413Y-65214822D01*
X52495928Y-65153499D01*
X52497319Y-65095048D01*
X52503726Y-65071136D01*
X52515635Y-65026692D01*
X52526267Y-64905166D01*
X52551718Y-64840101D01*
X52608309Y-64799122D01*
X52678070Y-64795243D01*
X52738855Y-64829696D01*
X52757181Y-64853976D01*
X52810665Y-64946614D01*
X52937329Y-65087288D01*
X53090465Y-65198548D01*
X53090470Y-65198551D01*
X53263392Y-65275542D01*
X53263397Y-65275544D01*
X53448554Y-65314900D01*
X53448555Y-65314900D01*
X53637844Y-65314900D01*
X53637846Y-65314900D01*
X53823003Y-65275544D01*
X53995930Y-65198551D01*
X54149071Y-65087288D01*
X54275733Y-64946616D01*
X54370379Y-64782684D01*
X54428874Y-64602656D01*
X54448660Y-64414400D01*
X54428874Y-64226144D01*
X54370379Y-64046116D01*
X54275733Y-63882184D01*
X54264854Y-63870102D01*
X54200550Y-63798684D01*
X54170320Y-63735692D01*
X54168700Y-63715712D01*
X54168700Y-62871537D01*
X54170424Y-62855923D01*
X54170138Y-62855896D01*
X54170872Y-62848133D01*
X54170468Y-62835290D01*
X54168700Y-62779002D01*
X54168700Y-62749450D01*
X54167829Y-62742559D01*
X54167372Y-62736745D01*
X54167199Y-62731252D01*
X54165909Y-62690172D01*
X54160320Y-62670937D01*
X54156374Y-62651884D01*
X54156108Y-62649775D01*
X54153864Y-62632008D01*
X54136701Y-62588659D01*
X54134814Y-62583146D01*
X54133173Y-62577499D01*
X54121817Y-62538410D01*
X54111621Y-62521169D01*
X54103060Y-62503693D01*
X54099142Y-62493797D01*
X54095686Y-62485068D01*
X54095686Y-62485067D01*
X54081311Y-62465283D01*
X54068283Y-62447350D01*
X54065100Y-62442505D01*
X54041370Y-62402379D01*
X54041365Y-62402373D01*
X54027205Y-62388213D01*
X54014570Y-62373420D01*
X54002793Y-62357212D01*
X53966893Y-62327513D01*
X53962581Y-62323590D01*
X52390203Y-60751212D01*
X52380380Y-60738950D01*
X52380159Y-60739134D01*
X52375186Y-60733123D01*
X52353756Y-60712999D01*
X52324764Y-60685773D01*
X52303871Y-60664880D01*
X52301349Y-60662923D01*
X52260446Y-60606282D01*
X52256658Y-60536515D01*
X52275777Y-60493828D01*
X52360568Y-60372734D01*
X52456739Y-60166496D01*
X52515635Y-59946692D01*
X52534390Y-59732325D01*
X52535468Y-59720001D01*
X52535468Y-59719998D01*
X52528892Y-59644840D01*
X52515635Y-59493308D01*
X52456739Y-59273504D01*
X52360568Y-59067266D01*
X52230047Y-58880861D01*
X52230045Y-58880858D01*
X52069141Y-58719954D01*
X51882734Y-58589432D01*
X51882732Y-58589431D01*
X51676497Y-58493261D01*
X51676488Y-58493258D01*
X51493677Y-58444275D01*
X51434016Y-58407910D01*
X51403487Y-58345063D01*
X51411782Y-58275688D01*
X51456267Y-58221810D01*
X51522819Y-58200535D01*
X51525770Y-58200500D01*
X58556161Y-58200500D01*
X58623200Y-58220185D01*
G37*
%TD.AperFunction*%
%TA.AperFunction,Conductor*%
G36*
X94511170Y-63620185D02*
G01*
X94551518Y-63662500D01*
X94594363Y-63736710D01*
X94644428Y-63792312D01*
X94682301Y-63834375D01*
X94682424Y-63834511D01*
X94712654Y-63897502D01*
X94704029Y-63966837D01*
X94659288Y-64020503D01*
X94622370Y-64037257D01*
X94584173Y-64047492D01*
X94584161Y-64047497D01*
X94392084Y-64137064D01*
X94338286Y-64174732D01*
X94955600Y-64792046D01*
X94874852Y-64804835D01*
X94761955Y-64862359D01*
X94672359Y-64951955D01*
X94614835Y-65064852D01*
X94602046Y-65145599D01*
X93984732Y-64528286D01*
X93947064Y-64582084D01*
X93857497Y-64774161D01*
X93857493Y-64774170D01*
X93802645Y-64978868D01*
X93802643Y-64978879D01*
X93784173Y-65189998D01*
X93784173Y-65190001D01*
X93802643Y-65401120D01*
X93802645Y-65401131D01*
X93857493Y-65605829D01*
X93857497Y-65605838D01*
X93947062Y-65797913D01*
X93984733Y-65851712D01*
X94602046Y-65234399D01*
X94614835Y-65315148D01*
X94672359Y-65428045D01*
X94761955Y-65517641D01*
X94874852Y-65575165D01*
X94955599Y-65587953D01*
X94338286Y-66205266D01*
X94392082Y-66242935D01*
X94392086Y-66242937D01*
X94584161Y-66332502D01*
X94584166Y-66332505D01*
X94612011Y-66339965D01*
X94671673Y-66376328D01*
X94702204Y-66439175D01*
X94693911Y-66508550D01*
X94649427Y-66562429D01*
X94612018Y-66579515D01*
X94583999Y-66587023D01*
X94583992Y-66587025D01*
X94583991Y-66587026D01*
X94583476Y-66587266D01*
X94391835Y-66676629D01*
X94391831Y-66676631D01*
X94218156Y-66798240D01*
X94140757Y-66875638D01*
X94079434Y-66909123D01*
X94014073Y-66905662D01*
X93923466Y-66875638D01*
X93845797Y-66849901D01*
X93845795Y-66849900D01*
X93743010Y-66839400D01*
X92692998Y-66839400D01*
X92692980Y-66839401D01*
X92590203Y-66849900D01*
X92590200Y-66849901D01*
X92423668Y-66905085D01*
X92423663Y-66905087D01*
X92274342Y-66997189D01*
X92150289Y-67121242D01*
X92058187Y-67270563D01*
X92058182Y-67270574D01*
X92052705Y-67287105D01*
X92012932Y-67344550D01*
X91948416Y-67371372D01*
X91879640Y-67359056D01*
X91828441Y-67311513D01*
X91811000Y-67248100D01*
X91811000Y-64174500D01*
X91830685Y-64107461D01*
X91883489Y-64061706D01*
X91935000Y-64050500D01*
X91946040Y-64050500D01*
X91961660Y-64052224D01*
X91961687Y-64051939D01*
X91969443Y-64052671D01*
X91969450Y-64052673D01*
X92038597Y-64050500D01*
X92068133Y-64050500D01*
X92075011Y-64049630D01*
X92080824Y-64049172D01*
X92127410Y-64047709D01*
X92146652Y-64042117D01*
X92165695Y-64038174D01*
X92185575Y-64035664D01*
X92228905Y-64018507D01*
X92234429Y-64016617D01*
X92239640Y-64015103D01*
X92279173Y-64003618D01*
X92296412Y-63993422D01*
X92313886Y-63984862D01*
X92332510Y-63977488D01*
X92332510Y-63977487D01*
X92332515Y-63977486D01*
X92370232Y-63950082D01*
X92375088Y-63946892D01*
X92415203Y-63923170D01*
X92429372Y-63908999D01*
X92444162Y-63896368D01*
X92460370Y-63884594D01*
X92490078Y-63848681D01*
X92493990Y-63844381D01*
X92665757Y-63672616D01*
X92701556Y-63636818D01*
X92762880Y-63603334D01*
X92789237Y-63600500D01*
X94444131Y-63600500D01*
X94511170Y-63620185D01*
G37*
%TD.AperFunction*%
%TA.AperFunction,Conductor*%
G36*
X96015265Y-65851711D02*
G01*
X96052938Y-65797911D01*
X96142502Y-65605838D01*
X96142505Y-65605830D01*
X96149965Y-65577989D01*
X96186328Y-65518327D01*
X96249174Y-65487796D01*
X96318549Y-65496088D01*
X96372429Y-65540571D01*
X96389515Y-65577982D01*
X96397022Y-65605998D01*
X96397024Y-65606005D01*
X96397026Y-65606009D01*
X96476061Y-65775501D01*
X96486629Y-65798164D01*
X96486631Y-65798168D01*
X96553591Y-65893797D01*
X96575918Y-65960003D01*
X96558908Y-66027770D01*
X96507959Y-66075583D01*
X96497209Y-66079637D01*
X96497458Y-66080266D01*
X96446883Y-66100288D01*
X96441358Y-66102180D01*
X96396613Y-66115180D01*
X96396610Y-66115181D01*
X96379366Y-66125379D01*
X96361905Y-66133933D01*
X96343274Y-66141310D01*
X96343262Y-66141317D01*
X96305570Y-66168702D01*
X96300687Y-66171909D01*
X96260580Y-66195629D01*
X96246414Y-66209795D01*
X96231624Y-66222427D01*
X96215414Y-66234204D01*
X96215411Y-66234207D01*
X96185710Y-66270109D01*
X96181777Y-66274431D01*
X95782557Y-66673650D01*
X95721234Y-66707135D01*
X95651542Y-66702151D01*
X95623753Y-66687544D01*
X95608168Y-66676632D01*
X95608164Y-66676629D01*
X95520391Y-66635700D01*
X95416009Y-66587026D01*
X95416005Y-66587024D01*
X95415998Y-66587022D01*
X95387982Y-66579515D01*
X95328323Y-66543149D01*
X95297795Y-66480302D01*
X95306091Y-66410926D01*
X95350577Y-66357049D01*
X95387989Y-66339965D01*
X95415830Y-66332505D01*
X95415838Y-66332502D01*
X95607911Y-66242938D01*
X95661712Y-66205265D01*
X95044401Y-65587953D01*
X95125148Y-65575165D01*
X95238045Y-65517641D01*
X95327641Y-65428045D01*
X95385165Y-65315148D01*
X95397953Y-65234400D01*
X96015265Y-65851711D01*
G37*
%TD.AperFunction*%
%TA.AperFunction,Conductor*%
G36*
X44678812Y-64107054D02*
G01*
X44732690Y-64151539D01*
X44749775Y-64188949D01*
X44757023Y-64216001D01*
X44757025Y-64216005D01*
X44757026Y-64216009D01*
X44830196Y-64372924D01*
X44846629Y-64408164D01*
X44846631Y-64408168D01*
X44968235Y-64581836D01*
X44968240Y-64581842D01*
X45118157Y-64731759D01*
X45118163Y-64731764D01*
X45291831Y-64853368D01*
X45291833Y-64853369D01*
X45291836Y-64853371D01*
X45483991Y-64942974D01*
X45495986Y-64946188D01*
X45511051Y-64950225D01*
X45570711Y-64986591D01*
X45601240Y-65049438D01*
X45592945Y-65118813D01*
X45548459Y-65172691D01*
X45511051Y-65189775D01*
X45483996Y-65197024D01*
X45483991Y-65197025D01*
X45483991Y-65197026D01*
X45476292Y-65200616D01*
X45291835Y-65286629D01*
X45291831Y-65286631D01*
X45118163Y-65408235D01*
X45118157Y-65408240D01*
X44968240Y-65558157D01*
X44968235Y-65558163D01*
X44846631Y-65731831D01*
X44846629Y-65731835D01*
X44771106Y-65893797D01*
X44757276Y-65923456D01*
X44757027Y-65923989D01*
X44757024Y-65923996D01*
X44749775Y-65951051D01*
X44713409Y-66010711D01*
X44650562Y-66041240D01*
X44581187Y-66032945D01*
X44527309Y-65988459D01*
X44510225Y-65951051D01*
X44504736Y-65930567D01*
X44502974Y-65923991D01*
X44413371Y-65731836D01*
X44413369Y-65731833D01*
X44413368Y-65731831D01*
X44291764Y-65558163D01*
X44291759Y-65558157D01*
X44141842Y-65408240D01*
X44141836Y-65408235D01*
X43968168Y-65286631D01*
X43968164Y-65286629D01*
X43776009Y-65197026D01*
X43776005Y-65197025D01*
X43776001Y-65197023D01*
X43748949Y-65189775D01*
X43689288Y-65153410D01*
X43658759Y-65090563D01*
X43667054Y-65021188D01*
X43711539Y-64967310D01*
X43748949Y-64950225D01*
X43774818Y-64943293D01*
X43776009Y-64942974D01*
X43968164Y-64853371D01*
X44141841Y-64731761D01*
X44291761Y-64581841D01*
X44413371Y-64408164D01*
X44502974Y-64216009D01*
X44510224Y-64188949D01*
X44546590Y-64129288D01*
X44609437Y-64098759D01*
X44678812Y-64107054D01*
G37*
%TD.AperFunction*%
%TA.AperFunction,Conductor*%
G36*
X67997987Y-59590185D02*
G01*
X68018629Y-59606819D01*
X69294581Y-60882772D01*
X69328066Y-60944095D01*
X69323082Y-61013787D01*
X69281210Y-61069720D01*
X69215746Y-61094137D01*
X69207522Y-61094043D01*
X69207524Y-61094083D01*
X69130598Y-61096500D01*
X69101045Y-61096500D01*
X69100324Y-61096590D01*
X69094152Y-61097369D01*
X69088340Y-61097826D01*
X69041767Y-61099290D01*
X69041764Y-61099291D01*
X69022521Y-61104881D01*
X69003478Y-61108825D01*
X68983599Y-61111336D01*
X68983598Y-61111337D01*
X68940273Y-61128490D01*
X68934747Y-61130382D01*
X68890003Y-61143383D01*
X68889999Y-61143385D01*
X68872760Y-61153580D01*
X68855293Y-61162137D01*
X68836664Y-61169512D01*
X68836662Y-61169513D01*
X68798959Y-61196906D01*
X68794077Y-61200112D01*
X68753975Y-61223828D01*
X68739803Y-61238000D01*
X68725018Y-61250628D01*
X68712120Y-61260000D01*
X68708807Y-61262407D01*
X68679104Y-61298310D01*
X68675172Y-61302631D01*
X66838408Y-63139394D01*
X66826151Y-63149215D01*
X66826334Y-63149436D01*
X66820323Y-63154408D01*
X66772972Y-63204831D01*
X66752089Y-63225714D01*
X66752077Y-63225727D01*
X66747821Y-63231212D01*
X66744037Y-63235642D01*
X66712137Y-63269613D01*
X66712136Y-63269615D01*
X66702484Y-63287171D01*
X66691810Y-63303421D01*
X66679529Y-63319256D01*
X66679524Y-63319263D01*
X66661015Y-63362033D01*
X66658445Y-63367279D01*
X66636003Y-63408101D01*
X66631022Y-63427502D01*
X66624721Y-63445905D01*
X66616762Y-63464297D01*
X66616761Y-63464300D01*
X66609471Y-63510322D01*
X66608287Y-63516041D01*
X66596701Y-63561167D01*
X66596700Y-63561177D01*
X66596700Y-63581211D01*
X66595173Y-63600608D01*
X66594627Y-63604055D01*
X66592073Y-63620185D01*
X66592040Y-63620391D01*
X66595549Y-63657506D01*
X66596425Y-63666778D01*
X66596700Y-63672616D01*
X66596700Y-64505851D01*
X66577015Y-64572890D01*
X66560381Y-64593532D01*
X65859408Y-65294504D01*
X65847151Y-65304325D01*
X65847334Y-65304546D01*
X65841323Y-65309518D01*
X65793972Y-65359941D01*
X65773089Y-65380824D01*
X65773077Y-65380837D01*
X65768821Y-65386322D01*
X65765037Y-65390752D01*
X65733137Y-65424723D01*
X65733136Y-65424725D01*
X65723484Y-65442281D01*
X65712810Y-65458531D01*
X65700529Y-65474366D01*
X65700524Y-65474373D01*
X65682015Y-65517143D01*
X65679445Y-65522389D01*
X65657003Y-65563211D01*
X65652022Y-65582612D01*
X65645721Y-65601015D01*
X65637762Y-65619407D01*
X65637761Y-65619410D01*
X65630471Y-65665432D01*
X65629287Y-65671151D01*
X65617701Y-65716277D01*
X65617700Y-65716287D01*
X65617700Y-65736321D01*
X65616172Y-65755722D01*
X65615589Y-65759408D01*
X65585654Y-65822540D01*
X65526340Y-65859467D01*
X65493117Y-65864000D01*
X65424054Y-65864000D01*
X65384699Y-65872365D01*
X65238898Y-65903355D01*
X65238893Y-65903357D01*
X65233056Y-65905956D01*
X65163805Y-65915237D01*
X65100530Y-65885606D01*
X65094945Y-65880355D01*
X64329413Y-65114822D01*
X64295928Y-65053499D01*
X64297319Y-64995048D01*
X64301676Y-64978787D01*
X64315635Y-64926692D01*
X64335468Y-64700000D01*
X64315635Y-64473308D01*
X64262828Y-64276230D01*
X64256741Y-64253511D01*
X64256738Y-64253502D01*
X64239251Y-64216001D01*
X64160568Y-64047266D01*
X64030047Y-63860861D01*
X64030045Y-63860858D01*
X63869141Y-63699954D01*
X63732184Y-63604057D01*
X63682734Y-63569432D01*
X63624722Y-63542380D01*
X63572284Y-63496208D01*
X63553133Y-63429014D01*
X63573349Y-63362133D01*
X63624721Y-63317619D01*
X63682734Y-63290568D01*
X63869139Y-63160047D01*
X64030047Y-62999139D01*
X64160568Y-62812734D01*
X64256739Y-62606496D01*
X64315635Y-62386692D01*
X64335468Y-62160000D01*
X64315635Y-61933308D01*
X64256739Y-61713504D01*
X64160568Y-61507266D01*
X64030047Y-61320861D01*
X64030045Y-61320858D01*
X63869141Y-61159954D01*
X63735864Y-61066634D01*
X63682734Y-61029432D01*
X63624722Y-61002380D01*
X63572284Y-60956208D01*
X63553133Y-60889014D01*
X63573349Y-60822133D01*
X63624721Y-60777619D01*
X63682734Y-60750568D01*
X63869139Y-60620047D01*
X64030047Y-60459139D01*
X64160568Y-60272734D01*
X64256739Y-60066496D01*
X64315635Y-59846692D01*
X64327260Y-59713818D01*
X64329896Y-59683692D01*
X64355349Y-59618624D01*
X64411940Y-59577645D01*
X64453424Y-59570500D01*
X67930948Y-59570500D01*
X67997987Y-59590185D01*
G37*
%TD.AperFunction*%
%TA.AperFunction,Conductor*%
G36*
X51001269Y-58220185D02*
G01*
X51047024Y-58272989D01*
X51056968Y-58342147D01*
X51027943Y-58405703D01*
X50969165Y-58443477D01*
X50966323Y-58444275D01*
X50783511Y-58493258D01*
X50783502Y-58493261D01*
X50577267Y-58589431D01*
X50577265Y-58589432D01*
X50390858Y-58719954D01*
X50229954Y-58880858D01*
X50099432Y-59067265D01*
X50099431Y-59067267D01*
X50003261Y-59273502D01*
X50003258Y-59273511D01*
X49944364Y-59493310D01*
X49943992Y-59495422D01*
X49943571Y-59496270D01*
X49942964Y-59498537D01*
X49942508Y-59498414D01*
X49912961Y-59558023D01*
X49853012Y-59593910D01*
X49833573Y-59597329D01*
X49826245Y-59598023D01*
X49820394Y-59598300D01*
X43013529Y-59598300D01*
X42997912Y-59596576D01*
X42997885Y-59596862D01*
X42990123Y-59596127D01*
X42920995Y-59598300D01*
X42891441Y-59598300D01*
X42890720Y-59598390D01*
X42884548Y-59599169D01*
X42878736Y-59599626D01*
X42832164Y-59601090D01*
X42832163Y-59601090D01*
X42812920Y-59606681D01*
X42793870Y-59610625D01*
X42774002Y-59613134D01*
X42774000Y-59613135D01*
X42730675Y-59630288D01*
X42725148Y-59632180D01*
X42680401Y-59645181D01*
X42680400Y-59645182D01*
X42663158Y-59655379D01*
X42645690Y-59663937D01*
X42627060Y-59671313D01*
X42627058Y-59671314D01*
X42589367Y-59698698D01*
X42584485Y-59701905D01*
X42544370Y-59725630D01*
X42530199Y-59739800D01*
X42515414Y-59752428D01*
X42499203Y-59764207D01*
X42469500Y-59800110D01*
X42465568Y-59804431D01*
X41859481Y-60410517D01*
X41798158Y-60444002D01*
X41728466Y-60439018D01*
X41684119Y-60410517D01*
X41601842Y-60328240D01*
X41601836Y-60328235D01*
X41428168Y-60206631D01*
X41428164Y-60206629D01*
X41356758Y-60173332D01*
X41236009Y-60117026D01*
X41236005Y-60117025D01*
X41236001Y-60117023D01*
X41031218Y-60062152D01*
X41031208Y-60062150D01*
X40820001Y-60043672D01*
X40819999Y-60043672D01*
X40608791Y-60062150D01*
X40608781Y-60062152D01*
X40403998Y-60117023D01*
X40403989Y-60117027D01*
X40211835Y-60206629D01*
X40211831Y-60206631D01*
X40038163Y-60328235D01*
X40038157Y-60328240D01*
X39888240Y-60478157D01*
X39888235Y-60478163D01*
X39766631Y-60651831D01*
X39766629Y-60651835D01*
X39677027Y-60843989D01*
X39677024Y-60843996D01*
X39669775Y-60871051D01*
X39633409Y-60930711D01*
X39570562Y-60961240D01*
X39501187Y-60952945D01*
X39447309Y-60908459D01*
X39430225Y-60871051D01*
X39425260Y-60852522D01*
X39422974Y-60843991D01*
X39333371Y-60651836D01*
X39333369Y-60651833D01*
X39333368Y-60651831D01*
X39211764Y-60478163D01*
X39211759Y-60478157D01*
X39061842Y-60328240D01*
X39061836Y-60328235D01*
X38888168Y-60206631D01*
X38888164Y-60206629D01*
X38816758Y-60173332D01*
X38696009Y-60117026D01*
X38696005Y-60117025D01*
X38696001Y-60117023D01*
X38491218Y-60062152D01*
X38491208Y-60062150D01*
X38280001Y-60043672D01*
X38279999Y-60043672D01*
X38068791Y-60062150D01*
X38068781Y-60062152D01*
X37918410Y-60102444D01*
X37848560Y-60100781D01*
X37790698Y-60061618D01*
X37763194Y-59997390D01*
X37774781Y-59928488D01*
X37778930Y-59920669D01*
X37789032Y-59903172D01*
X37809579Y-59867584D01*
X37868074Y-59687556D01*
X37887860Y-59499300D01*
X37868074Y-59311044D01*
X37809579Y-59131016D01*
X37714933Y-58967084D01*
X37588271Y-58826412D01*
X37588270Y-58826411D01*
X37435134Y-58715151D01*
X37435129Y-58715148D01*
X37262207Y-58638157D01*
X37262202Y-58638155D01*
X37116401Y-58607165D01*
X37077046Y-58598800D01*
X36887754Y-58598800D01*
X36855297Y-58605698D01*
X36702597Y-58638155D01*
X36702592Y-58638157D01*
X36529670Y-58715148D01*
X36529665Y-58715151D01*
X36376529Y-58826411D01*
X36249866Y-58967085D01*
X36155221Y-59131015D01*
X36155218Y-59131022D01*
X36102797Y-59292359D01*
X36096726Y-59311044D01*
X36076940Y-59499300D01*
X36096726Y-59687556D01*
X36096727Y-59687559D01*
X36155218Y-59867577D01*
X36155220Y-59867581D01*
X36155221Y-59867584D01*
X36175768Y-59903172D01*
X36192239Y-59971072D01*
X36169387Y-60037099D01*
X36114465Y-60080289D01*
X36044912Y-60086930D01*
X36036287Y-60084946D01*
X35951218Y-60062152D01*
X35951208Y-60062150D01*
X35740001Y-60043672D01*
X35739999Y-60043672D01*
X35528791Y-60062150D01*
X35528781Y-60062152D01*
X35323998Y-60117023D01*
X35323989Y-60117027D01*
X35131835Y-60206629D01*
X35131831Y-60206631D01*
X34958163Y-60328235D01*
X34958157Y-60328240D01*
X34808240Y-60478157D01*
X34808235Y-60478163D01*
X34686631Y-60651831D01*
X34686629Y-60651835D01*
X34597027Y-60843989D01*
X34597023Y-60843998D01*
X34542152Y-61048781D01*
X34542150Y-61048791D01*
X34523672Y-61259999D01*
X34523672Y-61260000D01*
X34542150Y-61471208D01*
X34542152Y-61471218D01*
X34597023Y-61676001D01*
X34597025Y-61676005D01*
X34597026Y-61676009D01*
X34625591Y-61737267D01*
X34686629Y-61868164D01*
X34686631Y-61868168D01*
X34808235Y-62041836D01*
X34808240Y-62041842D01*
X34958157Y-62191759D01*
X34958163Y-62191764D01*
X35131831Y-62313368D01*
X35131833Y-62313369D01*
X35131836Y-62313371D01*
X35323991Y-62402974D01*
X35338717Y-62406919D01*
X35351051Y-62410225D01*
X35410711Y-62446591D01*
X35441240Y-62509438D01*
X35432945Y-62578813D01*
X35388459Y-62632691D01*
X35351051Y-62649775D01*
X35323996Y-62657024D01*
X35323989Y-62657027D01*
X35131835Y-62746629D01*
X35131831Y-62746631D01*
X34958163Y-62868235D01*
X34958157Y-62868240D01*
X34808240Y-63018157D01*
X34808235Y-63018163D01*
X34686631Y-63191831D01*
X34686629Y-63191835D01*
X34597027Y-63383989D01*
X34597024Y-63383996D01*
X34589775Y-63411051D01*
X34553409Y-63470711D01*
X34490562Y-63501240D01*
X34421187Y-63492945D01*
X34367309Y-63448459D01*
X34350225Y-63411051D01*
X34342975Y-63383996D01*
X34342974Y-63383991D01*
X34253371Y-63191836D01*
X34253369Y-63191833D01*
X34253368Y-63191831D01*
X34131764Y-63018163D01*
X34131759Y-63018157D01*
X33981842Y-62868240D01*
X33981836Y-62868235D01*
X33808168Y-62746631D01*
X33808164Y-62746629D01*
X33791542Y-62738878D01*
X33616009Y-62657026D01*
X33616005Y-62657025D01*
X33616001Y-62657023D01*
X33411218Y-62602152D01*
X33411208Y-62602150D01*
X33200001Y-62583672D01*
X33199999Y-62583672D01*
X32988791Y-62602150D01*
X32988781Y-62602152D01*
X32783998Y-62657023D01*
X32783989Y-62657027D01*
X32591835Y-62746629D01*
X32591831Y-62746631D01*
X32418163Y-62868235D01*
X32418157Y-62868240D01*
X32268240Y-63018157D01*
X32268235Y-63018163D01*
X32146631Y-63191831D01*
X32146629Y-63191835D01*
X32057027Y-63383989D01*
X32057023Y-63383998D01*
X32002152Y-63588781D01*
X32002150Y-63588791D01*
X31983672Y-63799999D01*
X31983672Y-63800000D01*
X32002150Y-64011208D01*
X32002151Y-64011214D01*
X32005187Y-64022543D01*
X32003522Y-64092393D01*
X31973092Y-64142315D01*
X30521681Y-65593726D01*
X30460358Y-65627211D01*
X30390666Y-65622227D01*
X30334733Y-65580355D01*
X30310316Y-65514891D01*
X30310000Y-65506045D01*
X30310000Y-58324500D01*
X30329685Y-58257461D01*
X30382489Y-58211706D01*
X30434000Y-58200500D01*
X40943827Y-58200500D01*
X50934230Y-58200500D01*
X51001269Y-58220185D01*
G37*
%TD.AperFunction*%
%TA.AperFunction,Conductor*%
G36*
X96918381Y-63831720D02*
G01*
X96918408Y-63831435D01*
X96926164Y-63832167D01*
X96926171Y-63832169D01*
X96995318Y-63829996D01*
X97024854Y-63829996D01*
X97028752Y-63829996D01*
X97028752Y-63831577D01*
X97090577Y-63845538D01*
X97139591Y-63895332D01*
X97153903Y-63963720D01*
X97128971Y-64028989D01*
X97082698Y-64066280D01*
X96931836Y-64136629D01*
X96931831Y-64136631D01*
X96758163Y-64258235D01*
X96758157Y-64258240D01*
X96608240Y-64408157D01*
X96608235Y-64408163D01*
X96486631Y-64581831D01*
X96486629Y-64581835D01*
X96397027Y-64773989D01*
X96397023Y-64773999D01*
X96389515Y-64802018D01*
X96353149Y-64861677D01*
X96290301Y-64892205D01*
X96220926Y-64883908D01*
X96167049Y-64839421D01*
X96149965Y-64802011D01*
X96142505Y-64774166D01*
X96142502Y-64774161D01*
X96052936Y-64582086D01*
X96052933Y-64582082D01*
X96015265Y-64528286D01*
X95397953Y-65145598D01*
X95385165Y-65064852D01*
X95327641Y-64951955D01*
X95238045Y-64862359D01*
X95125148Y-64804835D01*
X95044400Y-64792046D01*
X95661712Y-64174733D01*
X95658172Y-64134266D01*
X95671939Y-64065766D01*
X95720554Y-64015583D01*
X95731250Y-64010186D01*
X95779628Y-63988647D01*
X95932769Y-63877384D01*
X95938348Y-63871188D01*
X95938498Y-63871022D01*
X95997985Y-63834375D01*
X96030646Y-63829996D01*
X96902761Y-63829996D01*
X96918381Y-63831720D01*
G37*
%TD.AperFunction*%
%TA.AperFunction,Conductor*%
G36*
X101398812Y-62957054D02*
G01*
X101452690Y-63001539D01*
X101469775Y-63038949D01*
X101477023Y-63066001D01*
X101477025Y-63066005D01*
X101477026Y-63066009D01*
X101553095Y-63229141D01*
X101566629Y-63258164D01*
X101566631Y-63258168D01*
X101688235Y-63431836D01*
X101688240Y-63431842D01*
X101838157Y-63581759D01*
X101838163Y-63581764D01*
X102011831Y-63703368D01*
X102011833Y-63703369D01*
X102011836Y-63703371D01*
X102203991Y-63792974D01*
X102215896Y-63796164D01*
X102231051Y-63800225D01*
X102290711Y-63836591D01*
X102321240Y-63899438D01*
X102312945Y-63968813D01*
X102268459Y-64022691D01*
X102231051Y-64039775D01*
X102203996Y-64047024D01*
X102203991Y-64047025D01*
X102203991Y-64047026D01*
X102197783Y-64049921D01*
X102011835Y-64136629D01*
X102011831Y-64136631D01*
X101838163Y-64258235D01*
X101838157Y-64258240D01*
X101688240Y-64408157D01*
X101688235Y-64408163D01*
X101566631Y-64581831D01*
X101566629Y-64581835D01*
X101477027Y-64773989D01*
X101477024Y-64773996D01*
X101469775Y-64801051D01*
X101433409Y-64860711D01*
X101370562Y-64891240D01*
X101301187Y-64882945D01*
X101247309Y-64838459D01*
X101230225Y-64801051D01*
X101223021Y-64774166D01*
X101222974Y-64773991D01*
X101133371Y-64581836D01*
X101133369Y-64581833D01*
X101133368Y-64581831D01*
X101011764Y-64408163D01*
X101011759Y-64408157D01*
X100861842Y-64258240D01*
X100861836Y-64258235D01*
X100688168Y-64136631D01*
X100688164Y-64136629D01*
X100687210Y-64136184D01*
X100496009Y-64047026D01*
X100496005Y-64047025D01*
X100496001Y-64047023D01*
X100468949Y-64039775D01*
X100409288Y-64003410D01*
X100378759Y-63940563D01*
X100387054Y-63871188D01*
X100431539Y-63817310D01*
X100468949Y-63800225D01*
X100486930Y-63795406D01*
X100496009Y-63792974D01*
X100688164Y-63703371D01*
X100861841Y-63581761D01*
X101011761Y-63431841D01*
X101133371Y-63258164D01*
X101222974Y-63066009D01*
X101226164Y-63054104D01*
X101230225Y-63038949D01*
X101266590Y-62979288D01*
X101329437Y-62948759D01*
X101398812Y-62957054D01*
G37*
%TD.AperFunction*%
%TA.AperFunction,Conductor*%
G36*
X49892571Y-62417985D02*
G01*
X49938326Y-62470789D01*
X49945306Y-62490205D01*
X49951353Y-62512771D01*
X50003258Y-62706488D01*
X50003261Y-62706497D01*
X50099431Y-62912732D01*
X50099432Y-62912734D01*
X50229954Y-63099141D01*
X50390858Y-63260045D01*
X50402523Y-63268213D01*
X50577266Y-63390568D01*
X50634434Y-63417226D01*
X50635275Y-63417618D01*
X50687714Y-63463791D01*
X50706866Y-63530984D01*
X50686650Y-63597865D01*
X50635275Y-63642381D01*
X50618272Y-63650310D01*
X50577267Y-63669431D01*
X50577265Y-63669432D01*
X50390858Y-63799954D01*
X50229954Y-63960858D01*
X50099432Y-64147265D01*
X50099431Y-64147267D01*
X50003261Y-64353502D01*
X50003259Y-64353509D01*
X49974705Y-64460074D01*
X49938339Y-64519734D01*
X49875492Y-64550263D01*
X49829150Y-64549270D01*
X49675446Y-64516600D01*
X49486154Y-64516600D01*
X49471410Y-64519734D01*
X49300997Y-64555955D01*
X49300992Y-64555957D01*
X49128070Y-64632948D01*
X49128066Y-64632951D01*
X49046804Y-64691990D01*
X48980997Y-64715469D01*
X48912944Y-64699643D01*
X48864249Y-64649536D01*
X48856214Y-64630675D01*
X48809758Y-64490480D01*
X48809756Y-64490475D01*
X48717715Y-64341254D01*
X48593744Y-64217283D01*
X48593741Y-64217281D01*
X48590739Y-64215429D01*
X48589113Y-64213621D01*
X48588077Y-64212802D01*
X48588217Y-64212624D01*
X48544017Y-64163480D01*
X48532797Y-64094517D01*
X48560643Y-64030436D01*
X48590744Y-64004354D01*
X48594056Y-64002312D01*
X48718112Y-63878256D01*
X48810214Y-63728934D01*
X48865399Y-63562397D01*
X48875900Y-63459609D01*
X48875899Y-62684592D01*
X48874134Y-62667318D01*
X48865399Y-62581803D01*
X48865396Y-62581793D01*
X48858607Y-62561302D01*
X48856206Y-62491474D01*
X48891938Y-62431433D01*
X48954459Y-62400241D01*
X48976313Y-62398300D01*
X49825532Y-62398300D01*
X49892571Y-62417985D01*
G37*
%TD.AperFunction*%
%TA.AperFunction,Conductor*%
G36*
X98858812Y-62957054D02*
G01*
X98912690Y-63001539D01*
X98929775Y-63038949D01*
X98937023Y-63066001D01*
X98937025Y-63066005D01*
X98937026Y-63066009D01*
X99013095Y-63229141D01*
X99026629Y-63258164D01*
X99026631Y-63258168D01*
X99148235Y-63431836D01*
X99148240Y-63431842D01*
X99298157Y-63581759D01*
X99298163Y-63581764D01*
X99471831Y-63703368D01*
X99471833Y-63703369D01*
X99471836Y-63703371D01*
X99663991Y-63792974D01*
X99675896Y-63796164D01*
X99691051Y-63800225D01*
X99750711Y-63836591D01*
X99781240Y-63899438D01*
X99772945Y-63968813D01*
X99728459Y-64022691D01*
X99691051Y-64039775D01*
X99663996Y-64047024D01*
X99663991Y-64047025D01*
X99663991Y-64047026D01*
X99657783Y-64049921D01*
X99471835Y-64136629D01*
X99471831Y-64136631D01*
X99298163Y-64258235D01*
X99148236Y-64408161D01*
X99073806Y-64514458D01*
X99019229Y-64558083D01*
X98983241Y-64565757D01*
X98983291Y-64566070D01*
X98977397Y-64567003D01*
X98976139Y-64567272D01*
X98975595Y-64567289D01*
X98975581Y-64567291D01*
X98956338Y-64572881D01*
X98937295Y-64576825D01*
X98917416Y-64579336D01*
X98917415Y-64579337D01*
X98874090Y-64596490D01*
X98868564Y-64598382D01*
X98823820Y-64611383D01*
X98823816Y-64611385D01*
X98806577Y-64621580D01*
X98789110Y-64630137D01*
X98770477Y-64637514D01*
X98766285Y-64639819D01*
X98698054Y-64654861D01*
X98632522Y-64630627D01*
X98596426Y-64586319D01*
X98596076Y-64586522D01*
X98594823Y-64584353D01*
X98594171Y-64583551D01*
X98593371Y-64581836D01*
X98593368Y-64581832D01*
X98593367Y-64581829D01*
X98471764Y-64408163D01*
X98471759Y-64408157D01*
X98321842Y-64258240D01*
X98321836Y-64258235D01*
X98148168Y-64136631D01*
X98148164Y-64136629D01*
X98147210Y-64136184D01*
X97956009Y-64047026D01*
X97956005Y-64047025D01*
X97956001Y-64047023D01*
X97928949Y-64039775D01*
X97869288Y-64003410D01*
X97838759Y-63940563D01*
X97847054Y-63871188D01*
X97891539Y-63817310D01*
X97928949Y-63800225D01*
X97946930Y-63795406D01*
X97956009Y-63792974D01*
X98148164Y-63703371D01*
X98321841Y-63581761D01*
X98471761Y-63431841D01*
X98593371Y-63258164D01*
X98682974Y-63066009D01*
X98686164Y-63054104D01*
X98690225Y-63038949D01*
X98726590Y-62979288D01*
X98789437Y-62948759D01*
X98858812Y-62957054D01*
G37*
%TD.AperFunction*%
%TA.AperFunction,Conductor*%
G36*
X52600168Y-62734075D02*
G01*
X52619984Y-62750174D01*
X52881381Y-63011571D01*
X52914866Y-63072894D01*
X52917700Y-63099252D01*
X52917700Y-63715712D01*
X52898015Y-63782751D01*
X52885850Y-63798684D01*
X52810666Y-63882184D01*
X52716021Y-64046115D01*
X52716018Y-64046122D01*
X52657527Y-64226140D01*
X52657526Y-64226144D01*
X52656407Y-64236790D01*
X52629823Y-64301402D01*
X52572525Y-64341386D01*
X52502706Y-64344046D01*
X52442532Y-64308536D01*
X52420705Y-64276230D01*
X52418073Y-64270586D01*
X52360568Y-64147266D01*
X52255985Y-63997904D01*
X52230045Y-63960858D01*
X52069141Y-63799954D01*
X51882734Y-63669432D01*
X51882728Y-63669429D01*
X51855038Y-63656517D01*
X51824724Y-63642381D01*
X51772285Y-63596210D01*
X51753133Y-63529017D01*
X51773348Y-63462135D01*
X51824725Y-63417618D01*
X51825566Y-63417226D01*
X51882734Y-63390568D01*
X52069139Y-63260047D01*
X52230047Y-63099139D01*
X52360568Y-62912734D01*
X52419922Y-62785447D01*
X52466093Y-62733011D01*
X52533287Y-62713859D01*
X52600168Y-62734075D01*
G37*
%TD.AperFunction*%
%TA.AperFunction,Conductor*%
G36*
X84907865Y-61943348D02*
G01*
X84952382Y-61994725D01*
X84979429Y-62052728D01*
X84979432Y-62052734D01*
X85109954Y-62239141D01*
X85270858Y-62400045D01*
X85431623Y-62512613D01*
X85475248Y-62567189D01*
X85484500Y-62614188D01*
X85484500Y-63673426D01*
X85464815Y-63740465D01*
X85412011Y-63786220D01*
X85342853Y-63796164D01*
X85287615Y-63773744D01*
X85160034Y-63681051D01*
X85160029Y-63681048D01*
X84987107Y-63604057D01*
X84987102Y-63604055D01*
X84824199Y-63569430D01*
X84801946Y-63564700D01*
X84612654Y-63564700D01*
X84570279Y-63573707D01*
X84500612Y-63568389D01*
X84444879Y-63526251D01*
X84420775Y-63460671D01*
X84420500Y-63452416D01*
X84420500Y-62440048D01*
X84440185Y-62373009D01*
X84456814Y-62352371D01*
X84570047Y-62239139D01*
X84700568Y-62052734D01*
X84727618Y-61994724D01*
X84773790Y-61942285D01*
X84840983Y-61923133D01*
X84907865Y-61943348D01*
G37*
%TD.AperFunction*%
%TA.AperFunction,Conductor*%
G36*
X84734040Y-59990634D02*
G01*
X84760129Y-60020739D01*
X84761981Y-60023741D01*
X84761983Y-60023744D01*
X84885954Y-60147715D01*
X85035175Y-60239756D01*
X85035182Y-60239759D01*
X85141694Y-60275053D01*
X85199139Y-60314825D01*
X85225963Y-60379341D01*
X85213648Y-60448117D01*
X85190373Y-60480440D01*
X85109951Y-60560862D01*
X84979432Y-60747265D01*
X84979431Y-60747267D01*
X84952382Y-60805275D01*
X84906209Y-60857714D01*
X84839016Y-60876866D01*
X84772135Y-60856650D01*
X84727618Y-60805275D01*
X84714721Y-60777618D01*
X84700568Y-60747266D01*
X84570047Y-60560861D01*
X84519599Y-60510413D01*
X84456818Y-60447631D01*
X84423334Y-60386308D01*
X84420500Y-60359950D01*
X84420500Y-60201930D01*
X84440185Y-60134891D01*
X84456819Y-60114249D01*
X84499546Y-60071522D01*
X84547012Y-60024056D01*
X84549052Y-60020747D01*
X84551045Y-60018955D01*
X84551493Y-60018389D01*
X84551589Y-60018465D01*
X84600994Y-59974023D01*
X84669956Y-59962795D01*
X84734040Y-59990634D01*
G37*
%TD.AperFunction*%
%TA.AperFunction,Conductor*%
G36*
X96761595Y-58220185D02*
G01*
X96807350Y-58272989D01*
X96817294Y-58342147D01*
X96788269Y-58405703D01*
X96782237Y-58412181D01*
X94769483Y-60424934D01*
X94708160Y-60458419D01*
X94638468Y-60453435D01*
X94594121Y-60424934D01*
X94569141Y-60399954D01*
X94382734Y-60269432D01*
X94382732Y-60269431D01*
X94176497Y-60173261D01*
X94176488Y-60173258D01*
X93956697Y-60114366D01*
X93956693Y-60114365D01*
X93956692Y-60114365D01*
X93956691Y-60114364D01*
X93956686Y-60114364D01*
X93730002Y-60094532D01*
X93729998Y-60094532D01*
X93503313Y-60114364D01*
X93503302Y-60114366D01*
X93283511Y-60173258D01*
X93283502Y-60173261D01*
X93077267Y-60269431D01*
X93077265Y-60269432D01*
X92890858Y-60399954D01*
X92729954Y-60560858D01*
X92599430Y-60747268D01*
X92599428Y-60747272D01*
X92593437Y-60760119D01*
X92547262Y-60812556D01*
X92531032Y-60821126D01*
X92513358Y-60831579D01*
X92495871Y-60840144D01*
X92493079Y-60841249D01*
X92423500Y-60847617D01*
X92361524Y-60815356D01*
X92335065Y-60778355D01*
X92322408Y-60751212D01*
X92320568Y-60747266D01*
X92190047Y-60560861D01*
X92190045Y-60560858D01*
X92029141Y-60399954D01*
X91842734Y-60269432D01*
X91842732Y-60269431D01*
X91636497Y-60173261D01*
X91636488Y-60173258D01*
X91416697Y-60114366D01*
X91416693Y-60114365D01*
X91416692Y-60114365D01*
X91416691Y-60114364D01*
X91416686Y-60114364D01*
X91190002Y-60094532D01*
X91189999Y-60094532D01*
X90963313Y-60114364D01*
X90963296Y-60114367D01*
X90894949Y-60132680D01*
X90825099Y-60131016D01*
X90775177Y-60100586D01*
X90387203Y-59712612D01*
X90377380Y-59700350D01*
X90377159Y-59700534D01*
X90372186Y-59694523D01*
X90358206Y-59681395D01*
X90321764Y-59647173D01*
X90306771Y-59632180D01*
X90300875Y-59626283D01*
X90295386Y-59622025D01*
X90290961Y-59618247D01*
X90256982Y-59586338D01*
X90256980Y-59586336D01*
X90256977Y-59586335D01*
X90239429Y-59576688D01*
X90223163Y-59566004D01*
X90207333Y-59553725D01*
X90164568Y-59535218D01*
X90159322Y-59532648D01*
X90118493Y-59510203D01*
X90118492Y-59510202D01*
X90099093Y-59505222D01*
X90080681Y-59498918D01*
X90062298Y-59490962D01*
X90062292Y-59490960D01*
X90016274Y-59483672D01*
X90010552Y-59482487D01*
X89965421Y-59470900D01*
X89965419Y-59470900D01*
X89945384Y-59470900D01*
X89925986Y-59469373D01*
X89918562Y-59468197D01*
X89906205Y-59466240D01*
X89906204Y-59466240D01*
X89859816Y-59470625D01*
X89853978Y-59470900D01*
X88445352Y-59470900D01*
X88429731Y-59469175D01*
X88429705Y-59469461D01*
X88421943Y-59468727D01*
X88421942Y-59468727D01*
X88352795Y-59470900D01*
X88323258Y-59470900D01*
X88316375Y-59471769D01*
X88310558Y-59472226D01*
X88263982Y-59473690D01*
X88244738Y-59479281D01*
X88225688Y-59483225D01*
X88205820Y-59485734D01*
X88162493Y-59502888D01*
X88156967Y-59504779D01*
X88112223Y-59517779D01*
X88112219Y-59517781D01*
X88094975Y-59527979D01*
X88077514Y-59536533D01*
X88058883Y-59543910D01*
X88058871Y-59543917D01*
X88021179Y-59571302D01*
X88016296Y-59574509D01*
X87976189Y-59598229D01*
X87962023Y-59612395D01*
X87947233Y-59625027D01*
X87931023Y-59636804D01*
X87931020Y-59636807D01*
X87901319Y-59672709D01*
X87897386Y-59677031D01*
X87149482Y-60424934D01*
X87088159Y-60458419D01*
X87018467Y-60453435D01*
X86974120Y-60424934D01*
X86949139Y-60399953D01*
X86949138Y-60399952D01*
X86949137Y-60399951D01*
X86762734Y-60269432D01*
X86762732Y-60269431D01*
X86659436Y-60221263D01*
X86606997Y-60175090D01*
X86587845Y-60107897D01*
X86608061Y-60041016D01*
X86617355Y-60029578D01*
X86617139Y-60029407D01*
X86621615Y-60023746D01*
X86713656Y-59874524D01*
X86713658Y-59874519D01*
X86768805Y-59708097D01*
X86768806Y-59708090D01*
X86779299Y-59605386D01*
X86779300Y-59605373D01*
X86779300Y-59330400D01*
X85565800Y-59330400D01*
X85498761Y-59310715D01*
X85453006Y-59257911D01*
X85441800Y-59206400D01*
X85441800Y-58954400D01*
X85461485Y-58887361D01*
X85514289Y-58841606D01*
X85565800Y-58830400D01*
X86779299Y-58830400D01*
X86779299Y-58555428D01*
X86779298Y-58555413D01*
X86768805Y-58452702D01*
X86739248Y-58363504D01*
X86736846Y-58293676D01*
X86772578Y-58233634D01*
X86835098Y-58202441D01*
X86856954Y-58200500D01*
X96694556Y-58200500D01*
X96761595Y-58220185D01*
G37*
%TD.AperFunction*%
%TA.AperFunction,Conductor*%
G36*
X61682586Y-58220185D02*
G01*
X61728341Y-58272989D01*
X61738285Y-58342147D01*
X61709260Y-58405703D01*
X61703228Y-58412181D01*
X60181727Y-59933681D01*
X60120404Y-59967166D01*
X60094046Y-59970000D01*
X59165686Y-59970000D01*
X59177641Y-59958045D01*
X59235165Y-59845148D01*
X59254986Y-59720000D01*
X59235165Y-59594852D01*
X59177641Y-59481955D01*
X59165686Y-59470000D01*
X60128872Y-59470000D01*
X60128872Y-59469999D01*
X60076269Y-59273682D01*
X60076265Y-59273673D01*
X59980134Y-59067517D01*
X59849657Y-58881179D01*
X59688820Y-58720342D01*
X59502482Y-58589865D01*
X59296326Y-58493734D01*
X59296317Y-58493730D01*
X59111746Y-58444275D01*
X59052085Y-58407910D01*
X59021556Y-58345063D01*
X59029851Y-58275687D01*
X59074336Y-58221810D01*
X59140888Y-58200535D01*
X59143839Y-58200500D01*
X61615547Y-58200500D01*
X61682586Y-58220185D01*
G37*
%TD.AperFunction*%
%TD*%
M02*
